<?xml version="1.0" encoding="UTF-8" standalone="no"?>
<svg
   xmlns:dc="http://purl.org/dc/elements/1.1/"
   xmlns:cc="http://creativecommons.org/ns#"
   xmlns:rdf="http://www.w3.org/1999/02/22-rdf-syntax-ns#"
   xmlns:svg="http://www.w3.org/2000/svg"
   xmlns="http://www.w3.org/2000/svg"
   xmlns:sodipodi="http://sodipodi.sourceforge.net/DTD/sodipodi-0.dtd"
   xmlns:inkscape="http://www.inkscape.org/namespaces/inkscape"
   width="200mm"
   height="200mm"
   viewBox="0 0 200 200"
   version="1.1"
   id="svg8"
   inkscape:version="1.0.1 (3bc2e813f5, 2020-09-07)"
   sodipodi:docname="amanda-kate-dw-logo.svg">
  <defs
     id="defs2">
    <rect
       x="29.485183"
       y="8.5821168"
       width="166.12507"
       height="27.459839"
       id="rect23" />
    <rect
       x="11.854147"
       y="7.1814656"
       width="179.04824"
       height="33.480369"
       id="rect3484" />
  </defs>
  <sodipodi:namedview
     id="base"
     pagecolor="#ffffff"
     bordercolor="#666666"
     borderopacity="1.0"
     inkscape:pageopacity="0.0"
     inkscape:pageshadow="2"
     inkscape:zoom="0.49497475"
     inkscape:cx="400"
     inkscape:cy="315.25334"
     inkscape:document-units="mm"
     inkscape:current-layer="text31"
     inkscape:document-rotation="0"
     showgrid="false"
     inkscape:window-width="1528"
     inkscape:window-height="836"
     inkscape:window-x="72"
     inkscape:window-y="27"
     inkscape:window-maximized="1" />
  <metadata
     id="metadata5">
    <rdf:RDF>
      <cc:Work
         rdf:about="">
        <dc:format>image/svg+xml</dc:format>
        <dc:type
           rdf:resource="http://purl.org/dc/dcmitype/StillImage" />
        <dc:title />
      </cc:Work>
    </rdf:RDF>
  </metadata>
  <g
     inkscape:label="Layer 1"
     inkscape:groupmode="layer"
     id="layer1">
    <path
       style="fill:#000000;stroke-width:0.79087"
       d="m 185.3991,199.02406 c -0.24685,-0.64324 -0.96911,-0.9334 -1.66182,-0.66758 -0.88625,0.34008 -1.08992,0.1176 -0.73619,-0.80421 0.4476,-1.16642 -5.91523,-1.27436 -75.12368,-1.27436 H 32.264723 v -7.86202 c 0,-4.32411 -0.34544,-8.07552 -0.767645,-8.33646 -0.422205,-0.26093 -1.828097,0.074 -3.124202,0.74419 -3.426986,1.77217 -3.683258,1.50128 -0.841707,-0.88971 2.505633,-2.10835 2.505633,-2.10835 0.65383,-3.13546 -1.851803,-1.0271 -1.851803,-1.0271 0.0096,-1.05512 1.845857,-0.0278 1.840909,-0.0513 -0.593156,-2.8236 -3.30106,-3.75969 -3.090609,-4.16809 0.62954,-1.22167 3.084069,2.44262 3.084069,2.44262 3.87261,-0.5267 0.78854,-2.96933 0.78854,-2.96933 0.870275,-0.31326 0.07643,2.48434 0.220971,2.62111 2.23516,2.1156 2.075565,-0.52095 2.104152,-0.48606 0.79087,0.96511 -1.885339,2.08327 -1.731536,2.34756 1.122404,1.9287 1.7214,-0.25265 2.314584,-0.0891 1.930498,0.5324 -0.403688,0.65318 2.566779,0.89712 10.923998,0.89712 11.47845,0 11.47845,0 12.031845,-2.96575 0.304374,-1.63118 1.722991,-6.44305 3.152484,-10.69309 2.134619,-6.34637 2.455776,-8.1384 1.79714,-10.02778 -1.381667,-3.96345 -0.602237,-6.60633 2.388695,-8.09952 2.233041,-1.11481 3.655542,-3.20938 8.539225,-12.57357 3.222912,-6.17975 6.376854,-11.97408 7.008771,-12.87627 1.489305,-2.12626 1.46323,-3.66099 -0.06224,-3.66099 -1.6524,0 -2.442992,-2.36751 -1.079009,-3.23118 0.607109,-0.38441 2.05183,-0.7044 3.210493,-0.71105 1.866121,-0.0108 2.94141,-1.38921 9.417537,-12.07288 12.432201,-20.509393 25.449381,-39.102277 29.737911,-42.475632 2.18905,-1.721902 5.37772,-2.138918 6.19862,-0.810658 0.27354,0.442584 -2.30394,4.624309 -5.72774,9.29272 -9.04766,12.336657 -16.8206,23.684827 -16.8206,24.557395 0,1.271728 5.44929,1.872709 12.19055,1.344448 3.5172,-0.275614 8.10741,-0.166586 10.20047,0.24229 3.38242,0.660745 3.74277,0.599849 3.24068,-0.547652 -2.10155,-4.8031 0.0684,-10.386071 4.03665,-10.386071 1.0302,0 2.07857,-0.332453 2.3297,-0.738788 0.25113,-0.406344 1.73657,-0.53109 3.30097,-0.277225 2.71222,0.440139 2.81706,0.373412 2.25664,-1.436093 -0.32324,-1.043721 -1.23485,-3.180848 -2.02577,-4.749171 -1.51628,-3.006658 -3.76779,-11.072134 -4.39217,-15.733944 -0.67645,-5.05053 -1.05985,-6.148216 -2.31585,-6.630184 -0.97152,-0.372812 -1.14574,-0.0881 -0.79353,1.296788 0.45133,1.774482 0.45133,1.774482 -0.47041,-0.01807 -0.66841,-1.299905 -1.37595,-1.666032 -2.57449,-1.332216 -1.33006,0.370447 -1.42113,0.295792 -0.46645,-0.382351 1.05448,-0.749046 1.05448,-0.929206 0,-1.621436 -0.93292,-0.612417 -0.95447,-0.781346 -0.1009,-0.79087 0.90542,-0.01005 0.91175,-0.241637 0.038,-1.396133 -0.89095,-1.177427 -0.8818,-1.236454 0.0614,-0.395435 1.50889,1.345522 2.19168,1.242456 2.6197,-0.395434 0.32635,-1.248818 0.37065,-1.240553 0.45343,0.08461 0.0615,0.986264 0.49487,1.31394 1.31912,0.997646 0.67506,-0.259045 1.02659,-0.14611 0.78119,0.250966 -0.2454,0.397075 0.003,0.875757 0.55208,1.063738 0.54905,0.18798 0.40208,0.255195 -0.3266,0.149368 -0.84344,-0.122496 -1.17256,0.204465 -0.90571,0.899836 0.23052,0.600737 0.74694,0.889652 1.14761,0.642035 0.40065,-0.247618 1.11401,0.6558 1.58525,2.007593 0.68978,1.978706 1.1716,2.357892 2.47178,1.945231 1.34277,-0.426178 1.51304,-0.263904 1.0102,0.962711 -1.38875,3.387587 -1.21911,4.355892 1.75073,9.992819 1.71097,3.247532 4.10918,9.544726 5.32937,13.993762 1.65681,6.041072 2.98991,9.115791 5.26524,12.143961 2.9467,3.921699 3.04672,4.263705 3.04672,10.418926 0,7.1234 -2.29871,16.90796 -4.77812,20.33827 -1.70889,2.36426 -1.92488,4.2784 -0.81284,7.20327 0.4048,1.06471 0.84966,5.67528 0.98859,10.2457 0.25258,8.30987 0.25258,8.30987 2.45156,6.7442 3.42017,-2.43515 11.15731,-11.7969 14.68396,-17.76727 5.09282,-8.62179 7.4195,-16.55882 7.84852,-26.77382 0.42996,-10.237531 -0.72261,-15.927784 -4.99742,-24.672195 C 166.0152,57.918743 144.23858,43.553732 116.09688,38.509141 106.04723,36.707668 82.37026,36.046792 71.820355,37.273283 46.707759,40.192777 29.39493,49.455115 22.329646,63.750734 c -4.790336,9.69259 -4.567466,17.631045 0.823093,29.318668 3.216477,6.973848 15.287016,23.329008 17.218349,23.330268 0.326239,2.3e-4 0.593155,-0.91034 0.593155,-2.02346 0,-1.14784 0.342322,-1.81227 0.790871,-1.53506 0.43498,0.26883 0.79087,1.17075 0.79087,2.00428 0,1.32445 0.272651,1.41183 2.163025,0.69309 2.163035,-0.82237 2.163035,-0.82237 0.197716,1.27582 -1.965309,2.09817 -1.965309,2.09817 1.198174,1.63225 3.163483,-0.46592 3.163483,-0.46592 0.593155,0.72321 -2.834338,1.31129 -3.254415,2.33462 -1.270827,3.09579 0.714727,0.27427 1.101095,0.69708 0.858604,0.93956 -0.24249,0.24249 -1.218321,0.0249 -2.16851,-0.48369 -1.64937,-0.88272 -1.70499,-0.80503 -1.228228,1.71538 0.499375,2.63998 0.499375,2.63998 -0.81709,0.26736 -0.724058,-1.30493 -1.414378,-2.48782 -1.53405,-2.62864 -0.119673,-0.14082 -1.300661,0.30405 -2.624416,0.98859 -3.319626,1.71663 -3.887157,1.55737 -1.405737,-0.39453 2.545423,-2.00222 2.595731,-2.61749 0.304374,-3.72257 -0.978698,-0.472 -1.360522,-0.88228 -0.848487,-0.91171 0.512035,-0.0294 -1.188219,-2.27786 -3.778351,-4.99648 C 26.094666,106.64605 18.665454,95.653002 16.469718,89.784367 10.007793,72.513323 17.258288,55.819431 35.981601,44.85923 60.463018,30.528378 111.73581,27.558928 140.06769,38.831116 c 12.09853,4.813555 19.89862,9.477546 28.77047,17.203053 21.71689,18.910839 25.91558,47.174101 10.76562,72.468271 -3.66946,6.12647 -14.25849,17.87724 -19.89004,22.07225 -2.64905,1.97329 -2.64905,1.97329 -1.0015,7.82313 0.90616,3.21743 2.78584,8.78597 4.1771,12.37455 2.52954,6.52466 2.52954,6.52466 12.66683,6.52466 h 10.13728 v 8.78419 c 0,7.81965 0.14254,8.72948 1.29816,8.28603 1.08545,-0.41653 1.13438,-0.30079 0.2986,0.70625 -0.54977,0.66243 -0.65941,1.20441 -0.24368,1.20441 1.07882,0 0.9346,1.8797 -0.2275,2.96526 -0.75205,0.70251 -1.0861,0.65097 -1.41999,-0.21911 z m -6.1866,-9.26438 c 0.17019,-1.40865 -0.39018,-2.49461 -1.90021,-3.6824 -1.17786,-0.92651 -1.9179,-1.90824 -1.64452,-2.18163 0.27339,-0.27338 1.0481,-0.0397 1.7216,0.51922 1.57201,1.30465 2.57476,0.33401 1.46899,-1.42196 -1.08491,-1.72284 -3.20042,-2.13916 -4.67048,-0.91913 -1.72483,1.43149 -1.3865,3.62065 0.82887,5.36327 2.00703,1.57873 2.62663,3.30477 1.1863,3.30477 -0.43498,0 -0.79087,-0.53383 -0.79087,-1.1863 0,-0.65247 -0.53384,-1.18632 -1.1863,-1.18632 -1.61895,0 -1.50409,2.90706 0.15146,3.83355 2.01322,1.12666 4.55927,-0.1598 4.83516,-2.44307 z M 44.756825,187.05591 c 0.232412,-4.84697 0.221239,-4.87493 -2.155593,-5.39697 -1.314067,-0.28861 -2.753792,-0.29943 -3.199388,-0.024 -0.445585,0.27539 -0.810165,2.81449 -0.810165,5.64242 0,5.14172 0,5.14172 2.965768,4.89627 2.965758,-0.24546 2.965758,-0.24546 3.199378,-5.11767 z m -3.792533,0.127 c 0,-1.9574 0.35589,-3.55892 0.79087,-3.55892 0.434979,0 0.790871,1.60152 0.790871,3.55892 0,1.95741 -0.355892,3.55891 -0.790871,3.55891 -0.43498,0 -0.79087,-1.6015 -0.79087,-3.55891 z m 14.685143,3.75663 c 0.970749,-1.31812 1.044841,-1.31812 1.555821,0 0.295091,0.76121 1.032297,1.38402 1.638226,1.38402 1.283974,0 1.290515,-1.30132 0.03376,-6.71222 -1.307048,-5.62739 -3.207606,-5.73369 -4.448512,-0.2488 -0.52174,2.30613 -1.119469,4.81579 -1.3283,5.577 -0.209434,0.76345 0.04843,1.38402 0.575021,1.38402 0.525086,0 1.413382,-0.62281 1.973988,-1.38402 z m 0.495569,-4.5475 c 0.01611,-1.30493 0.193361,-1.74303 0.393887,-0.97354 0.200515,0.76949 0.187329,1.83716 -0.02935,2.37261 -0.216646,0.53544 -0.38071,-0.0942 -0.36459,-1.39907 z m 14.152798,3.3612 c 0.07134,-2.57033 0.07134,-2.57033 0.813484,0 0.408185,1.41367 1.265821,2.57032 1.905852,2.57032 0.91482,0 1.163688,-1.19807 1.163688,-5.60199 0,-4.13043 -0.259685,-5.51528 -0.988586,-5.27186 -0.584745,0.19528 -0.915338,1.43372 -0.809273,3.03167 0.179311,2.70153 0.179311,2.70153 -0.861434,-0.0665 -1.743898,-4.63823 -3.238294,-3.54269 -3.506083,2.57033 -0.192258,4.38896 -0.0164,5.33836 0.988586,5.33836 0.837287,0 1.244915,-0.80983 1.293766,-2.57032 z m 18.766843,0.39543 c 0.169981,-1.19688 -0.153669,-1.77947 -0.988586,-1.77947 -0.682726,0 -1.24131,0.53385 -1.24131,1.18632 0,0.65247 -0.35589,1.1863 -0.79087,1.1863 -0.434979,0 -0.790871,-1.6015 -0.790871,-3.55891 0,-1.9574 0.355892,-3.55892 0.790871,-3.55892 0.43498,0 0.79087,0.3559 0.79087,0.79088 0,0.43498 0.533832,0.79087 1.186302,0.79087 2.062935,0 1.382693,-3.08406 -0.801141,-3.63216 -3.073079,-0.77129 -4.339514,0.85551 -4.339514,5.57436 0,4.84264 0.341496,5.32777 3.530488,5.01538 1.798638,-0.17618 2.464446,-0.68165 2.653761,-2.01465 z m 14.161445,1.1863 c -0.19182,-0.54372 -0.93325,-0.93916 -1.64765,-0.87874 -0.7144,0.0604 -1.29891,-0.38445 -1.29891,-0.98858 0,-0.60414 0.53385,-1.09845 1.18631,-1.09845 0.65246,0 1.18631,-0.53383 1.18631,-1.18629 0,-0.65247 -0.53385,-1.18631 -1.18631,-1.18631 -0.65246,0 -1.18631,-0.53384 -1.18631,-1.1863 0,-0.67488 0.71033,-1.18631 1.64765,-1.18631 2.62112,0 1.29869,-1.94753 -1.51084,-2.225 -2.509418,-0.24783 -2.509418,-0.24783 -2.509418,5.33837 0,5.5862 0,5.5862 2.833958,5.5862 1.9259,0 2.72221,-0.31675 2.48521,-0.98859 z m 12.07997,-1.03526 c 0,-1.14784 0.34232,-1.81227 0.79087,-1.53506 0.43498,0.26883 0.79087,1.20565 0.79087,2.08184 0,1.09012 0.43695,1.51003 1.38402,1.33009 1.04606,-0.19875 1.55644,-1.4728 2.09013,-5.2175 0.38836,-2.725 0.45798,-5.20266 0.15472,-5.50593 -0.82519,-0.82519 -2.00618,1.45622 -2.14724,4.14801 -0.10613,2.02526 -0.19476,1.90947 -0.60527,-0.79086 -0.31484,-2.07098 -0.89061,-3.16348 -1.66723,-3.16348 -0.78163,0 -1.34009,1.07912 -1.63715,3.16348 -0.45085,3.16348 -0.45085,3.16348 -0.79086,0.0611 -0.18702,-1.7063 -0.83615,-3.26557 -1.44253,-3.46507 -0.9036,-0.2973 -1.00004,0.54274 -0.53462,4.65659 0.6416,5.67101 0.87466,6.26061 2.47467,6.26061 0.69536,0 1.13962,-0.78896 1.13962,-2.02386 z m 20.4006,-2.79262 c 0.26758,-5.06843 -0.91753,-6.75172 -4.1775,-5.93351 -1.8376,0.4612 -1.98744,0.84549 -1.98744,5.09715 0,2.52909 0.25413,4.85246 0.56472,5.16307 0.3106,0.3106 1.6452,0.45888 2.96577,0.32952 2.32738,-0.22798 2.40819,-0.37081 2.63445,-4.65623 z m -3.79234,-0.32418 c 0,-1.9574 0.3559,-3.55892 0.79088,-3.55892 0.43497,0 0.79087,1.60152 0.79087,3.55892 0,1.95741 -0.3559,3.55891 -0.79087,3.55891 -0.43498,0 -0.79088,-1.6015 -0.79088,-3.55891 z m 14.23568,3.16348 c 0,-1.08745 0.35588,-1.97719 0.79086,-1.97719 0.43498,0 0.79087,0.88974 0.79087,1.97719 0,1.46883 0.41869,1.97717 1.62841,1.97717 0.95571,0 1.41226,-0.34974 1.10518,-0.84661 -0.28778,-0.46564 -0.50046,-2.75367 -0.47262,-5.08453 0.0485,-4.06119 -0.0462,-4.25916 -2.27219,-4.74807 -1.27754,-0.28059 -2.68737,-0.28484 -3.13297,-0.009 -0.44558,0.27538 -0.81017,2.79301 -0.81017,5.59468 0,4.00074 0.25461,5.09398 1.18631,5.09398 0.73815,0 1.18632,-0.74693 1.18632,-1.97718 z m 0,-5.53609 c 0,-0.65247 0.35588,-1.18631 0.79086,-1.18631 0.43498,0 0.79087,0.53384 0.79087,1.18631 0,0.65246 -0.35589,1.1863 -0.79087,1.1863 -0.43498,0 -0.79086,-0.53384 -0.79086,-1.1863 z m 15.08004,5.73381 c 0.0536,-1.77946 0.0536,-1.77946 0.91172,0 0.47202,0.97869 1.37918,1.77945 2.0159,1.77945 0.84823,0 0.99989,-0.47565 0.56734,-1.77945 -0.75314,-2.27012 -0.75314,-5.24316 0,-7.51327 0.89328,-2.69256 -1.64062,-2.31147 -2.62927,0.39544 -0.79434,2.17488 -0.79434,2.17488 -0.85677,0 -0.0395,-1.37824 -0.49698,-2.1749 -1.24874,-2.1749 -0.94153,0 -1.18632,1.14237 -1.18632,5.5361 0,4.39372 0.24479,5.53608 1.18632,5.53608 0.68714,0 1.20883,-0.74875 1.23982,-1.77945 z m -0.36434,-14.49807 c -0.26403,-0.68804 -0.48005,-1.77387 -0.48005,-2.41296 0,-0.63909 -1.24562,-1.68243 -2.76804,-2.31853 -2.97718,-1.24395 -3.14747,-1.61618 -2.05449,-4.49092 0.53471,-1.40642 0.26057,-2.81667 -1.09384,-5.62691 -0.99406,-2.06255 -1.9988,-3.94153 -2.23277,-4.17549 -0.23396,-0.23396 -5.52497,2.06224 -11.75781,5.10266 -18.52691,9.03758 -32.38209,13.02765 -45.339821,13.05714 -12.205001,0.0278 -19.331516,-3.48982 -23.458182,-11.57875 -1.017758,-1.99498 -1.854968,-2.82911 -2.346336,-2.33775 -0.781789,0.7818 -4.065721,9.94776 -4.964834,13.85761 -0.500143,2.17489 -0.500143,2.17489 48.238043,2.17489 44.11792,0 48.69267,-0.11858 48.25813,-1.25099 z m -47.62665,-7.55728 c 4.30038,-0.8758 10.57716,-2.60938 13.9484,-3.85241 7.07872,-2.61 19.29298,-8.60923 22.00806,-10.8096 1.81557,-1.47139 1.83186,-1.59882 0.69399,-5.42878 -0.64086,-2.15711 -2.45163,-6.44578 -4.02393,-9.53034 -1.57231,-3.08459 -3.33541,-7.71118 -3.91802,-10.28131 -1.05926,-4.67299 -1.05926,-4.67299 -8.512,-5.22806 -4.09902,-0.30529 -10.29987,-1.31402 -13.7797,-2.24162 -11.68546,-3.11491 -16.98962,-3.99643 -22.350581,-3.71453 -5.329864,0.28026 -5.329864,0.28026 -11.053605,9.7227 -8.970936,14.79932 -13.65258,24.43214 -13.65258,28.0912 0,13.4198 15.331649,18.42702 40.639966,13.27275 z m 27.37484,-56.0277 c 6.86099,-4.48895 7.00194,-4.62942 6.54672,-6.52421 -0.69744,-2.90301 -4.99629,-6.935918 -7.3933,-6.935918 -1.16491,0 -3.6753,-0.5503 -5.57865,-1.222881 -4.001,-1.413832 -12.07407,-2.341724 -20.21027,-2.322899 -4.493,0.01036 -5.50402,-0.195854 -4.8461,-0.988585 0.60904,-0.73384 0.50911,-1.001724 -0.37367,-1.001724 -1.0226,0 -11.69236,15.338567 -12.950567,18.617407 -0.666106,1.73583 3.009892,2.19268 10.561127,1.31251 5.30558,-0.61841 7.53027,-0.5683 9.69112,0.21826 1.61967,0.58958 6.64741,1.0538 11.89968,1.09873 8.79534,0.0752 9.21227,7.9e-4 12.65391,-2.25069 z m -86.535819,16.08021 c -0.27573,-0.71857 -0.982584,-1.03767 -1.693906,-0.7647 -0.766139,0.29399 -1.020435,0.14436 -0.682879,-0.40181 0.295801,-0.47862 0.04737,-1.18087 -0.552082,-1.56057 -0.92044,-0.58299 -0.92114,-0.69221 -0.0048,-0.70245 0.919988,-0.0104 0.919988,-0.22304 0,-1.39612 -0.993698,-1.26706 -0.963365,-1.28808 0.358873,-0.24858 1.25507,0.9867 1.538434,0.9867 2.162785,0 0.575289,-0.90916 0.720893,-0.92157 0.730589,-0.0623 0.0077,0.66852 0.501629,0.88536 1.310279,0.57505 1.129914,-0.43359 1.156344,-0.32726 0.203921,0.82033 -0.98358,1.18516 -0.894912,1.26316 0.876729,0.77122 1.65592,-0.4598 1.747081,-0.40706 0.570312,0.32996 -0.770358,0.48249 -1.252577,1.12228 -1.071596,1.42178 0.18098,0.2995 -0.135429,0.97356 -0.703142,1.49791 -0.812717,0.75064 -1.132819,0.69115 -1.505397,-0.27978 z M 151.4057,39.25656 c -1.44172,-3.485758 -1.44172,-3.485758 -4.73274,-1.846013 -3.29101,1.639744 -3.29101,1.639744 -0.52296,-0.778458 1.52241,-1.330011 2.39119,-2.432665 1.9306,-2.450344 -0.46058,-0.01767 -1.52148,-0.53234 -2.35757,-1.143694 -1.40845,-1.029891 -1.34694,-1.080558 0.83744,-0.689646 2.35757,0.421909 2.35757,0.421909 -0.21277,-2.287294 -3.49789,-3.68688 -3.2388,-4.482556 0.49635,-1.524274 3.06665,2.428844 3.06665,2.428844 3.68947,-0.13126 0.62283,-2.560106 0.62283,-2.560106 0.94706,-0.314377 0.28714,1.988754 0.56385,2.185588 2.41828,1.720156 2.09405,-0.525574 2.09405,-0.525574 0.53379,1.216748 -1.56027,1.742321 -1.56027,1.742321 1.40549,1.404413 1.63117,-0.185849 2.96576,-0.236201 2.96576,-0.111894 0,0.124309 -1.29756,0.768174 -2.88348,1.430814 -2.87057,1.1994 -2.87678,1.212362 -1.38403,2.893735 1.49291,1.681544 1.49138,1.684692 -0.34772,0.718913 -2.40244,-1.261604 -2.69975,-0.85262 -1.62385,2.233734 1.34856,3.868458 0.47576,3.611497 -1.15912,-0.341259 z"
       id="path3474"
       sodipodi:nodetypes="cssscsssssscssssssssssssssssssssssssssssssssssssssccscsscsssssssssssssssscsssssssssssssssssssssssssssssssscsssssccssscsssssssscssssccssssssssssssscsscccssssssssccsssssssssssssssssssssssscsssssssssssssccssssssssssscsssscscssccssssssssssscssssssssssssssssssssssssssssscssscssssscccssssssscssssssccsssssssssssssssssss" />
    <g
       aria-label="AMANDA-KATE"
       transform="matrix(1.1268417,0,0,1.1268417,-18.042287,-3.6741207)"
       id="text3482"
       style="font-style:normal;font-weight:normal;font-size:21.1667px;line-height:1.25;font-family:sans-serif;letter-spacing:0px;word-spacing:0px;white-space:pre;shape-inside:url(#rect3484);fill:#000000;fill-opacity:1;stroke:none">
      <text
         xml:space="preserve"
         id="text21"
         style="font-style:normal;font-weight:normal;font-size:15.6534px;line-height:1.25;font-family:Navilu;letter-spacing:0px;word-spacing:0px;white-space:pre;shape-inside:url(#rect23);fill:#000000;fill-opacity:1;stroke:none;-inkscape-font-specification:Navilu;font-stretch:normal;font-variant:normal;"
         x="56.116829"
         y="0" />
      <g
         aria-label="AMANDA KATE"
         id="text31"
         style="font-weight:bold;font-size:15.6534px;line-height:1.25;font-family:Navilu;-inkscape-font-specification:'Navilu Bold';letter-spacing:0px;word-spacing:0px;stroke-width:0.234801">
        <path
           d="m 51.692676,21.085894 h -4.601243 l -0.72611,2.078968 H 43.40738 l 4.226724,-11.41139 h 3.508258 l 4.226723,11.41139 h -2.957942 z m -3.86749,-2.117183 h 3.126094 l -1.559225,-4.540098 z"
           style="font-size:15.6534px;stroke-width:0.234801"
           id="path33" />
        <path
           d="m 56.882452,11.753472 h 3.745198 l 2.598709,6.106966 2.613996,-6.106966 h 3.737555 v 11.41139 H 66.795762 V 14.81842 L 64.16648,20.971246 H 62.301524 L 59.672242,14.81842 v 8.346442 h -2.78979 z"
           style="font-size:15.6534px;stroke-width:0.234801"
           id="path35" />
        <path
           d="m 79.384216,21.085894 h -4.601243 l -0.72611,2.078968 H 71.09892 l 4.226724,-11.41139 h 3.508257 l 4.226724,11.41139 h -2.957942 z m -3.86749,-2.117183 h 3.126094 l -1.559226,-4.540098 z"
           style="font-size:15.6534px;stroke-width:0.234801"
           id="path37" />
        <path
           d="m 84.573991,11.753472 h 3.286603 l 4.150291,7.8267 v -7.8267 h 2.789791 v 11.41139 h -3.286603 l -4.150291,-7.826701 v 7.826701 h -2.789791 z"
           style="font-size:15.6534px;stroke-width:0.234801"
           id="path39" />
        <path
           d="m 100.6172,13.977661 v 6.963011 h 1.05477 q 1.80381,0 2.75157,-0.894261 0.95541,-0.894262 0.95541,-2.598709 0,-1.696804 -0.94776,-2.583423 -0.94777,-0.886618 -2.75922,-0.886618 z m -2.942657,-2.224189 h 3.103167 q 2.59871,0 3.86749,0.374519 1.27642,0.366877 2.18597,1.253495 0.80254,0.77197 1.19235,1.78088 0.38981,1.008911 0.38981,2.285336 0,1.291711 -0.38981,2.308265 -0.38981,1.00891 -1.19235,1.78088 -0.91719,0.886618 -2.20126,1.261138 -1.28407,0.366877 -3.8522,0.366877 h -3.103167 z"
           style="font-size:15.6534px;stroke-width:0.234801"
           id="path41" />
        <path
           d="m 117.59288,21.085894 h -4.60124 l -0.72611,2.078968 h -2.95794 l 4.22672,-11.41139 h 3.50826 l 4.22672,11.41139 h -2.95794 z m -3.86749,-2.117183 h 3.1261 l -1.55923,-4.540098 z"
           style="font-size:15.6534px;stroke-width:0.234801"
           id="path43" />
        <path
           d="m 128.23231,11.753472 h 2.94265 v 4.165577 l 4.24201,-4.165577 h 3.41654 l -5.49551,5.403786 6.06111,6.007604 h -3.68405 l -4.5401,-4.494238 v 4.494238 h -2.94265 z"
           style="font-size:15.6534px;stroke-width:0.234801"
           id="path45" />
        <path
           d="m 147.28695,21.085894 h -4.60124 l -0.72611,2.078968 h -2.95794 l 4.22672,-11.41139 h 3.50826 l 4.22672,11.41139 h -2.95794 z m -3.86749,-2.117183 h 3.1261 l -1.55923,-4.540098 z"
           style="font-size:15.6534px;stroke-width:0.234801"
           id="path47" />
        <path
           d="m 149.90095,11.753472 h 10.51713 v 2.224189 h -3.78342 v 9.187201 h -2.94265 v -9.187201 h -3.79106 z"
           style="font-size:15.6534px;stroke-width:0.234801"
           id="path49" />
        <path
           d="m 161.93908,11.753472 h 7.94135 v 2.224189 h -4.99869 v 2.124827 h 4.70061 v 2.224189 h -4.70061 v 2.613995 h 5.16685 v 2.22419 h -8.10951 z"
           style="font-size:15.6534px;stroke-width:0.234801"
           id="path51" />
      </g>
    </g>
  </g>
</svg>
