  0
SECTION
  2
HEADER
  9
$ACADVER
  1
AC1014
  9
$HANDSEED
  5
FFFF
  9
$MEASUREMENT
 70
     1
  0
ENDSEC
  0
SECTION
  2
TABLES
  0
TABLE
  2
VPORT
  5
8
330
0
100
AcDbSymbolTable
 70
     4
  0
VPORT
  5
2E
330
8
100
AcDbSymbolTableRecord
100
AcDbViewportTableRecord
  2
*ACTIVE
 70
     0
 10
0.0
 20
0.0
 11
1.0
 21
1.0
 12
210.0
 22
148.5
 13
0.0
 23
0.0
 14
10.0
 24
10.0
 15
10.0
 25
10.0
 16
0.0
 26
0.0
 36
1.0
 17
0.0
 27
0.0
 37
0.0
 40
341.0
 41
1.24
 42
50.0
 43
0.0
 44
0.0
 50
0.0
 51
0.0
 71
     0
 72
   100
 73
     1
 74
     3
 75
     0
 76
     0
 77
     0
 78
     0
  0
ENDTAB
  0
TABLE
  2
LTYPE
  5
5
330
0
100
AcDbSymbolTable
 70
     1
  0
LTYPE
  5
14
330
5
100
AcDbSymbolTableRecord
100
AcDbLinetypeTableRecord
  2
BYBLOCK
 70
     0
  3

 72
    65
 73
     0
 40
0.0
  0
LTYPE
  5
15
330
5
100
AcDbSymbolTableRecord
100
AcDbLinetypeTableRecord
  2
BYLAYER
 70
     0
  3

 72
    65
 73
     0
 40
0.0
  0
LTYPE
  5
16
330
5
100
AcDbSymbolTableRecord
100
AcDbLinetypeTableRecord
  2
CONTINUOUS
 70
     0
  3
Solid line
 72
    65
 73
     0
 40
0.0
  0
ENDTAB
  0
TABLE
  2
LAYER
  5
2
100
AcDbSymbolTable
 70
2
  0
LAYER
  5
50
100
AcDbSymbolTableRecord
100
AcDbLayerTableRecord
  2
0
 70
0
  6
CONTINUOUS
  0
LAYER
  5
51
100
AcDbSymbolTableRecord
100
AcDbLayerTableRecord
  2
Layer_1
 70
0
  6
CONTINUOUS
  0
ENDTAB
  0
TABLE
  2
STYLE
  5
3
330
0
100
AcDbSymbolTable
 70
     1
  0
STYLE
  5
11
330
3
100
AcDbSymbolTableRecord
100
AcDbTextStyleTableRecord
  2
STANDARD
 70
     0
 40
0.0
 41
1.0
 50
0.0
 71
     0
 42
2.5
  3
txt
  4

  0
ENDTAB
  0
TABLE
  2
VIEW
  5
6
330
0
100
AcDbSymbolTable
 70
     0
  0
ENDTAB
  0
TABLE
  2
UCS
  5
7
330
0
100
AcDbSymbolTable
 70
     0
  0
ENDTAB
  0
TABLE
  2
APPID
  5
9
330
0
100
AcDbSymbolTable
 70
     2
  0
APPID
  5
12
330
9
100
AcDbSymbolTableRecord
100
AcDbRegAppTableRecord
  2
ACAD
 70
     0
  0
ENDTAB
  0
TABLE
  2
DIMSTYLE
  5
A
330
0
100
AcDbSymbolTable
 70
     1
  0
DIMSTYLE
105
27
330
A
100
AcDbSymbolTableRecord
100
AcDbDimStyleTableRecord
  2
ISO-25
 70
     0
  3

  4

  5

  6

  7

 40
1.0
 41
2.5
 42
0.625
 43
3.75
 44
1.25
 45
0.0
 46
0.0
 47
0.0
 48
0.0
140
2.5
141
2.5
142
0.0
143
0.03937007874016
144
1.0
145
0.0
146
1.0
147
0.625
 71
     0
 72
     0
 73
     0
 74
     0
 75
     0
 76
     0
 77
     1
 78
     8
170
     0
171
     3
172
     1
173
     0
174
     0
175
     0
176
     0
177
     0
178
     0
270
     2
271
     2
272
     2
273
     2
274
     3
340
11
275
     0
280
     0
281
     0
282
     0
283
     0
284
     8
285
     0
286
     0
287
     3
288
     0
  0
ENDTAB
  0
TABLE
  2
BLOCK_RECORD
  5
1
330
0
100
AcDbSymbolTable
 70
     1
  0
BLOCK_RECORD
  5
1F
330
1
100
AcDbSymbolTableRecord
100
AcDbBlockTableRecord
  2
*MODEL_SPACE
  0
BLOCK_RECORD
  5
1B
330
1
100
AcDbSymbolTableRecord
100
AcDbBlockTableRecord
  2
*PAPER_SPACE
  0
ENDTAB
  0
ENDSEC
  0
SECTION
  2
BLOCKS
  0
BLOCK
  5
20
330
1F
100
AcDbEntity
  8
0
100
AcDbBlockBegin
  2
*MODEL_SPACE
 70
     0
 10
0.0
 20
0.0
 30
0.0
  3
*MODEL_SPACE
  1

  0
ENDBLK
  5
21
330
1F
100
AcDbEntity
  8
0
100
AcDbBlockEnd
  0
BLOCK
  5
1C
330
1B
100
AcDbEntity
 67
     1
  8
0
100
AcDbBlockBegin
  2
*PAPER_SPACE
  1

  0
ENDBLK
  5
1D
330
1B
100
AcDbEntity
 67
     1
  8
0
100
AcDbBlockEnd
  0
ENDSEC
  0
SECTION
  2
ENTITIES
  0
SPLINE
  5
100
100
AcDbEntity
  8
Layer_1
 62
7
100
AcDbSpline
 70
8
 71
3
 72
8
 73
4
 74
0
 40
0
 40
0
 40
0
 40
0
 40
1
 40
1
 40
1
 40
1
 10
185.399100
 20
0.975940
 30
0.0
 10
185.152250
 20
1.619180
 30
0.0
 10
184.429990
 20
1.909340
 30
0.0
 10
183.737280
 20
1.643520
 30
0.0
  0
SPLINE
  5
101
100
AcDbEntity
  8
Layer_1
 62
7
100
AcDbSpline
 70
8
 71
3
 72
8
 73
4
 74
0
 40
0
 40
0
 40
0
 40
0
 40
1
 40
1
 40
1
 40
1
 10
183.737280
 20
1.643520
 30
0.0
 10
182.851030
 20
1.303440
 30
0.0
 10
182.647360
 20
1.525920
 30
0.0
 10
183.001090
 20
2.447730
 30
0.0
  0
SPLINE
  5
102
100
AcDbEntity
  8
Layer_1
 62
7
100
AcDbSpline
 70
8
 71
3
 72
8
 73
4
 74
0
 40
0
 40
0
 40
0
 40
0
 40
1
 40
1
 40
1
 40
1
 10
183.001090
 20
2.447730
 30
0.0
 10
183.448690
 20
3.614150
 30
0.0
 10
177.085860
 20
3.722090
 30
0.0
 10
107.877410
 20
3.722090
 30
0.0
  0
SPLINE
  5
103
100
AcDbEntity
  8
Layer_1
 62
7
100
AcDbSpline
 70
8
 71
3
 72
8
 73
4
 74
0
 40
0
 40
0
 40
0
 40
0
 40
1
 40
1
 40
1
 40
1
 10
32.264723
 20
11.584110
 30
0.0
 10
32.264723
 20
15.908220
 30
0.0
 10
31.919283
 20
19.659630
 30
0.0
 10
31.497078
 20
19.920570
 30
0.0
  0
SPLINE
  5
104
100
AcDbEntity
  8
Layer_1
 62
7
100
AcDbSpline
 70
8
 71
3
 72
8
 73
4
 74
0
 40
0
 40
0
 40
0
 40
0
 40
1
 40
1
 40
1
 40
1
 10
31.497078
 20
19.920570
 30
0.0
 10
31.074873
 20
20.181500
 30
0.0
 10
29.668981
 20
19.846570
 30
0.0
 10
28.372876
 20
19.176380
 30
0.0
  0
SPLINE
  5
105
100
AcDbEntity
  8
Layer_1
 62
7
100
AcDbSpline
 70
8
 71
3
 72
8
 73
4
 74
0
 40
0
 40
0
 40
0
 40
0
 40
1
 40
1
 40
1
 40
1
 10
28.372876
 20
19.176380
 30
0.0
 10
24.945890
 20
17.404210
 30
0.0
 10
24.689618
 20
17.675100
 30
0.0
 10
27.531169
 20
20.066090
 30
0.0
  0
SPLINE
  5
106
100
AcDbEntity
  8
Layer_1
 62
7
100
AcDbSpline
 70
8
 71
3
 72
8
 73
4
 74
0
 40
0
 40
0
 40
0
 40
0
 40
1
 40
1
 40
1
 40
1
 10
27.531169
 20
20.066090
 30
0.0
 10
30.036802
 20
22.174440
 30
0.0
 10
30.036802
 20
22.174440
 30
0.0
 10
28.184999
 20
23.201550
 30
0.0
  0
SPLINE
  5
107
100
AcDbEntity
  8
Layer_1
 62
7
100
AcDbSpline
 70
8
 71
3
 72
8
 73
4
 74
0
 40
0
 40
0
 40
0
 40
0
 40
1
 40
1
 40
1
 40
1
 10
28.184999
 20
23.201550
 30
0.0
 10
26.333196
 20
24.228650
 30
0.0
 10
26.333196
 20
24.228650
 30
0.0
 10
28.194599
 20
24.256670
 30
0.0
  0
SPLINE
  5
108
100
AcDbEntity
  8
Layer_1
 62
7
100
AcDbSpline
 70
8
 71
3
 72
8
 73
4
 74
0
 40
0
 40
0
 40
0
 40
0
 40
1
 40
1
 40
1
 40
1
 10
28.194599
 20
24.256670
 30
0.0
 10
30.040456
 20
24.284470
 30
0.0
 10
30.035508
 20
24.307970
 30
0.0
 10
27.601443
 20
27.080270
 30
0.0
  0
SPLINE
  5
109
100
AcDbEntity
  8
Layer_1
 62
7
100
AcDbSpline
 70
8
 71
3
 72
8
 73
4
 74
0
 40
0
 40
0
 40
0
 40
0
 40
1
 40
1
 40
1
 40
1
 10
27.601443
 20
27.080270
 30
0.0
 10
24.300383
 20
30.839960
 30
0.0
 10
24.510834
 20
31.248360
 30
0.0
 10
28.230983
 20
28.301940
 30
0.0
  0
SPLINE
  5
10a
100
AcDbEntity
  8
Layer_1
 62
7
100
AcDbSpline
 70
8
 71
3
 72
8
 73
4
 74
0
 40
0
 40
0
 40
0
 40
0
 40
1
 40
1
 40
1
 40
1
 10
28.230983
 20
28.301940
 30
0.0
 10
31.315052
 20
25.859320
 30
0.0
 10
31.315052
 20
25.859320
 30
0.0
 10
32.103593
 20
28.828640
 30
0.0
  0
SPLINE
  5
10b
100
AcDbEntity
  8
Layer_1
 62
7
100
AcDbSpline
 70
8
 71
3
 72
8
 73
4
 74
0
 40
0
 40
0
 40
0
 40
0
 40
1
 40
1
 40
1
 40
1
 10
32.103593
 20
28.828640
 30
0.0
 10
32.892133
 20
31.797970
 30
0.0
 10
32.892133
 20
31.797970
 30
0.0
 10
32.973868
 20
29.141900
 30
0.0
  0
SPLINE
  5
10c
100
AcDbEntity
  8
Layer_1
 62
7
100
AcDbSpline
 70
8
 71
3
 72
8
 73
4
 74
0
 40
0
 40
0
 40
0
 40
0
 40
1
 40
1
 40
1
 40
1
 10
32.973868
 20
29.141900
 30
0.0
 10
33.050298
 20
26.657560
 30
0.0
 10
33.194839
 20
26.520790
 30
0.0
 10
35.209028
 20
27.026300
 30
0.0
  0
SPLINE
  5
10d
100
AcDbEntity
  8
Layer_1
 62
7
100
AcDbSpline
 70
8
 71
3
 72
8
 73
4
 74
0
 40
0
 40
0
 40
0
 40
0
 40
1
 40
1
 40
1
 40
1
 10
35.209028
 20
27.026300
 30
0.0
 10
37.284593
 20
27.547250
 30
0.0
 10
37.313180
 20
27.512360
 30
0.0
 10
35.999898
 20
26.061190
 30
0.0
  0
SPLINE
  5
10e
100
AcDbEntity
  8
Layer_1
 62
7
100
AcDbSpline
 70
8
 71
3
 72
8
 73
4
 74
0
 40
0
 40
0
 40
0
 40
0
 40
1
 40
1
 40
1
 40
1
 10
35.999898
 20
26.061190
 30
0.0
 10
34.114559
 20
23.977920
 30
0.0
 10
34.268362
 20
23.713630
 30
0.0
 10
37.122302
 20
24.132490
 30
0.0
  0
SPLINE
  5
10f
100
AcDbEntity
  8
Layer_1
 62
7
100
AcDbSpline
 70
8
 71
3
 72
8
 73
4
 74
0
 40
0
 40
0
 40
0
 40
0
 40
1
 40
1
 40
1
 40
1
 10
37.122302
 20
24.132490
 30
0.0
 10
38.843702
 20
24.385140
 30
0.0
 10
39.436886
 20
24.221590
 30
0.0
 10
39.052800
 20
23.600090
 30
0.0
  0
SPLINE
  5
110
100
AcDbEntity
  8
Layer_1
 62
7
100
AcDbSpline
 70
8
 71
3
 72
8
 73
4
 74
0
 40
0
 40
0
 40
0
 40
0
 40
1
 40
1
 40
1
 40
1
 10
39.052800
 20
23.600090
 30
0.0
 10
38.649112
 20
22.946910
 30
0.0
 10
41.619579
 20
22.702970
 30
0.0
 10
49.976798
 20
22.702970
 30
0.0
  0
SPLINE
  5
111
100
AcDbEntity
  8
Layer_1
 62
7
100
AcDbSpline
 70
8
 71
3
 72
8
 73
4
 74
0
 40
0
 40
0
 40
0
 40
0
 40
1
 40
1
 40
1
 40
1
 10
49.976798
 20
22.702970
 30
0.0
 10
61.455248
 20
22.702970
 30
0.0
 10
61.455248
 20
22.702970
 30
0.0
 10
62.008643
 20
25.668720
 30
0.0
  0
SPLINE
  5
112
100
AcDbEntity
  8
Layer_1
 62
7
100
AcDbSpline
 70
8
 71
3
 72
8
 73
4
 74
0
 40
0
 40
0
 40
0
 40
0
 40
1
 40
1
 40
1
 40
1
 10
62.008643
 20
25.668720
 30
0.0
 10
62.313017
 20
27.299900
 30
0.0
 10
63.731634
 20
32.111770
 30
0.0
 10
65.161127
 20
36.361810
 30
0.0
  0
SPLINE
  5
113
100
AcDbEntity
  8
Layer_1
 62
7
100
AcDbSpline
 70
8
 71
3
 72
8
 73
4
 74
0
 40
0
 40
0
 40
0
 40
0
 40
1
 40
1
 40
1
 40
1
 10
65.161127
 20
36.361810
 30
0.0
 10
67.295746
 20
42.708180
 30
0.0
 10
67.616903
 20
44.500210
 30
0.0
 10
66.958267
 20
46.389590
 30
0.0
  0
SPLINE
  5
114
100
AcDbEntity
  8
Layer_1
 62
7
100
AcDbSpline
 70
8
 71
3
 72
8
 73
4
 74
0
 40
0
 40
0
 40
0
 40
0
 40
1
 40
1
 40
1
 40
1
 10
66.958267
 20
46.389590
 30
0.0
 10
65.576600
 20
50.353040
 30
0.0
 10
66.356030
 20
52.995920
 30
0.0
 10
69.346962
 20
54.489110
 30
0.0
  0
SPLINE
  5
115
100
AcDbEntity
  8
Layer_1
 62
7
100
AcDbSpline
 70
8
 71
3
 72
8
 73
4
 74
0
 40
0
 40
0
 40
0
 40
0
 40
1
 40
1
 40
1
 40
1
 10
69.346962
 20
54.489110
 30
0.0
 10
71.580003
 20
55.603920
 30
0.0
 10
73.002504
 20
57.698490
 30
0.0
 10
77.886187
 20
67.062680
 30
0.0
  0
SPLINE
  5
116
100
AcDbEntity
  8
Layer_1
 62
7
100
AcDbSpline
 70
8
 71
3
 72
8
 73
4
 74
0
 40
0
 40
0
 40
0
 40
0
 40
1
 40
1
 40
1
 40
1
 10
77.886187
 20
67.062680
 30
0.0
 10
81.109099
 20
73.242430
 30
0.0
 10
84.263041
 20
79.036760
 30
0.0
 10
84.894958
 20
79.938950
 30
0.0
  0
SPLINE
  5
117
100
AcDbEntity
  8
Layer_1
 62
7
100
AcDbSpline
 70
8
 71
3
 72
8
 73
4
 74
0
 40
0
 40
0
 40
0
 40
0
 40
1
 40
1
 40
1
 40
1
 10
84.894958
 20
79.938950
 30
0.0
 10
86.384263
 20
82.065210
 30
0.0
 10
86.358188
 20
83.599940
 30
0.0
 10
84.832718
 20
83.599940
 30
0.0
  0
SPLINE
  5
118
100
AcDbEntity
  8
Layer_1
 62
7
100
AcDbSpline
 70
8
 71
3
 72
8
 73
4
 74
0
 40
0
 40
0
 40
0
 40
0
 40
1
 40
1
 40
1
 40
1
 10
84.832718
 20
83.599940
 30
0.0
 10
83.180318
 20
83.599940
 30
0.0
 10
82.389726
 20
85.967450
 30
0.0
 10
83.753709
 20
86.831120
 30
0.0
  0
SPLINE
  5
119
100
AcDbEntity
  8
Layer_1
 62
7
100
AcDbSpline
 70
8
 71
3
 72
8
 73
4
 74
0
 40
0
 40
0
 40
0
 40
0
 40
1
 40
1
 40
1
 40
1
 10
83.753709
 20
86.831120
 30
0.0
 10
84.360818
 20
87.215530
 30
0.0
 10
85.805539
 20
87.535520
 30
0.0
 10
86.964202
 20
87.542170
 30
0.0
  0
SPLINE
  5
11a
100
AcDbEntity
  8
Layer_1
 62
7
100
AcDbSpline
 70
8
 71
3
 72
8
 73
4
 74
0
 40
0
 40
0
 40
0
 40
0
 40
1
 40
1
 40
1
 40
1
 10
86.964202
 20
87.542170
 30
0.0
 10
88.830323
 20
87.552970
 30
0.0
 10
89.905612
 20
88.931380
 30
0.0
 10
96.381739
 20
99.615050
 30
0.0
  0
SPLINE
  5
11b
100
AcDbEntity
  8
Layer_1
 62
7
100
AcDbSpline
 70
8
 71
3
 72
8
 73
4
 74
0
 40
0
 40
0
 40
0
 40
0
 40
1
 40
1
 40
1
 40
1
 10
96.381739
 20
99.615050
 30
0.0
 10
108.813940
 20
120.124443
 30
0.0
 10
121.831120
 20
138.717327
 30
0.0
 10
126.119650
 20
142.090682
 30
0.0
  0
SPLINE
  5
11c
100
AcDbEntity
  8
Layer_1
 62
7
100
AcDbSpline
 70
8
 71
3
 72
8
 73
4
 74
0
 40
0
 40
0
 40
0
 40
0
 40
1
 40
1
 40
1
 40
1
 10
126.119650
 20
142.090682
 30
0.0
 10
128.308700
 20
143.812584
 30
0.0
 10
131.497370
 20
144.229600
 30
0.0
 10
132.318270
 20
142.901340
 30
0.0
  0
SPLINE
  5
11d
100
AcDbEntity
  8
Layer_1
 62
7
100
AcDbSpline
 70
8
 71
3
 72
8
 73
4
 74
0
 40
0
 40
0
 40
0
 40
0
 40
1
 40
1
 40
1
 40
1
 10
132.318270
 20
142.901340
 30
0.0
 10
132.591810
 20
142.458756
 30
0.0
 10
130.014330
 20
138.277031
 30
0.0
 10
126.590530
 20
133.608620
 30
0.0
  0
SPLINE
  5
11e
100
AcDbEntity
  8
Layer_1
 62
7
100
AcDbSpline
 70
8
 71
3
 72
8
 73
4
 74
0
 40
0
 40
0
 40
0
 40
0
 40
1
 40
1
 40
1
 40
1
 10
126.590530
 20
133.608620
 30
0.0
 10
117.542870
 20
121.271963
 30
0.0
 10
109.769930
 20
109.923793
 30
0.0
 10
109.769930
 20
109.051225
 30
0.0
  0
SPLINE
  5
11f
100
AcDbEntity
  8
Layer_1
 62
7
100
AcDbSpline
 70
8
 71
3
 72
8
 73
4
 74
0
 40
0
 40
0
 40
0
 40
0
 40
1
 40
1
 40
1
 40
1
 10
109.769930
 20
109.051225
 30
0.0
 10
109.769930
 20
107.779497
 30
0.0
 10
115.219220
 20
107.178516
 30
0.0
 10
121.960480
 20
107.706777
 30
0.0
  0
SPLINE
  5
120
100
AcDbEntity
  8
Layer_1
 62
7
100
AcDbSpline
 70
8
 71
3
 72
8
 73
4
 74
0
 40
0
 40
0
 40
0
 40
0
 40
1
 40
1
 40
1
 40
1
 10
121.960480
 20
107.706777
 30
0.0
 10
125.477680
 20
107.982391
 30
0.0
 10
130.067890
 20
107.873363
 30
0.0
 10
132.160950
 20
107.464487
 30
0.0
  0
SPLINE
  5
121
100
AcDbEntity
  8
Layer_1
 62
7
100
AcDbSpline
 70
8
 71
3
 72
8
 73
4
 74
0
 40
0
 40
0
 40
0
 40
0
 40
1
 40
1
 40
1
 40
1
 10
132.160950
 20
107.464487
 30
0.0
 10
135.543370
 20
106.803742
 30
0.0
 10
135.903720
 20
106.864638
 30
0.0
 10
135.401630
 20
108.012139
 30
0.0
  0
SPLINE
  5
122
100
AcDbEntity
  8
Layer_1
 62
7
100
AcDbSpline
 70
8
 71
3
 72
8
 73
4
 74
0
 40
0
 40
0
 40
0
 40
0
 40
1
 40
1
 40
1
 40
1
 10
135.401630
 20
108.012139
 30
0.0
 10
133.300080
 20
112.815239
 30
0.0
 10
135.470030
 20
118.398210
 30
0.0
 10
139.438280
 20
118.398210
 30
0.0
  0
SPLINE
  5
123
100
AcDbEntity
  8
Layer_1
 62
7
100
AcDbSpline
 70
8
 71
3
 72
8
 73
4
 74
0
 40
0
 40
0
 40
0
 40
0
 40
1
 40
1
 40
1
 40
1
 10
139.438280
 20
118.398210
 30
0.0
 10
140.468480
 20
118.398210
 30
0.0
 10
141.516850
 20
118.730663
 30
0.0
 10
141.767980
 20
119.136998
 30
0.0
  0
SPLINE
  5
124
100
AcDbEntity
  8
Layer_1
 62
7
100
AcDbSpline
 70
8
 71
3
 72
8
 73
4
 74
0
 40
0
 40
0
 40
0
 40
0
 40
1
 40
1
 40
1
 40
1
 10
141.767980
 20
119.136998
 30
0.0
 10
142.019110
 20
119.543342
 30
0.0
 10
143.504550
 20
119.668088
 30
0.0
 10
145.068950
 20
119.414223
 30
0.0
  0
SPLINE
  5
125
100
AcDbEntity
  8
Layer_1
 62
7
100
AcDbSpline
 70
8
 71
3
 72
8
 73
4
 74
0
 40
0
 40
0
 40
0
 40
0
 40
1
 40
1
 40
1
 40
1
 10
145.068950
 20
119.414223
 30
0.0
 10
147.781170
 20
118.974084
 30
0.0
 10
147.886010
 20
119.040811
 30
0.0
 10
147.325590
 20
120.850316
 30
0.0
  0
SPLINE
  5
126
100
AcDbEntity
  8
Layer_1
 62
7
100
AcDbSpline
 70
8
 71
3
 72
8
 73
4
 74
0
 40
0
 40
0
 40
0
 40
0
 40
1
 40
1
 40
1
 40
1
 10
147.325590
 20
120.850316
 30
0.0
 10
147.002350
 20
121.894037
 30
0.0
 10
146.090740
 20
124.031164
 30
0.0
 10
145.299820
 20
125.599487
 30
0.0
  0
SPLINE
  5
127
100
AcDbEntity
  8
Layer_1
 62
7
100
AcDbSpline
 70
8
 71
3
 72
8
 73
4
 74
0
 40
0
 40
0
 40
0
 40
0
 40
1
 40
1
 40
1
 40
1
 10
145.299820
 20
125.599487
 30
0.0
 10
143.783540
 20
128.606145
 30
0.0
 10
141.532030
 20
136.671621
 30
0.0
 10
140.907650
 20
141.333431
 30
0.0
  0
SPLINE
  5
128
100
AcDbEntity
  8
Layer_1
 62
7
100
AcDbSpline
 70
8
 71
3
 72
8
 73
4
 74
0
 40
0
 40
0
 40
0
 40
0
 40
1
 40
1
 40
1
 40
1
 10
140.907650
 20
141.333431
 30
0.0
 10
140.231200
 20
146.383961
 30
0.0
 10
139.847800
 20
147.481647
 30
0.0
 10
138.591800
 20
147.963615
 30
0.0
  0
SPLINE
  5
129
100
AcDbEntity
  8
Layer_1
 62
7
100
AcDbSpline
 70
8
 71
3
 72
8
 73
4
 74
0
 40
0
 40
0
 40
0
 40
0
 40
1
 40
1
 40
1
 40
1
 10
138.591800
 20
147.963615
 30
0.0
 10
137.620280
 20
148.336427
 30
0.0
 10
137.446060
 20
148.051715
 30
0.0
 10
137.798270
 20
146.666827
 30
0.0
  0
SPLINE
  5
12a
100
AcDbEntity
  8
Layer_1
 62
7
100
AcDbSpline
 70
8
 71
3
 72
8
 73
4
 74
0
 40
0
 40
0
 40
0
 40
0
 40
1
 40
1
 40
1
 40
1
 10
137.798270
 20
146.666827
 30
0.0
 10
138.249600
 20
144.892345
 30
0.0
 10
138.249600
 20
144.892345
 30
0.0
 10
137.327860
 20
146.684897
 30
0.0
  0
SPLINE
  5
12b
100
AcDbEntity
  8
Layer_1
 62
7
100
AcDbSpline
 70
8
 71
3
 72
8
 73
4
 74
0
 40
0
 40
0
 40
0
 40
0
 40
1
 40
1
 40
1
 40
1
 10
137.327860
 20
146.684897
 30
0.0
 10
136.659450
 20
147.984802
 30
0.0
 10
135.951910
 20
148.350929
 30
0.0
 10
134.753370
 20
148.017113
 30
0.0
  0
SPLINE
  5
12c
100
AcDbEntity
  8
Layer_1
 62
7
100
AcDbSpline
 70
8
 71
3
 72
8
 73
4
 74
0
 40
0
 40
0
 40
0
 40
0
 40
1
 40
1
 40
1
 40
1
 10
134.753370
 20
148.017113
 30
0.0
 10
133.423310
 20
147.646666
 30
0.0
 10
133.332240
 20
147.721321
 30
0.0
 10
134.286920
 20
148.399464
 30
0.0
  0
SPLINE
  5
12d
100
AcDbEntity
  8
Layer_1
 62
7
100
AcDbSpline
 70
8
 71
3
 72
8
 73
4
 74
0
 40
0
 40
0
 40
0
 40
0
 40
1
 40
1
 40
1
 40
1
 10
134.286920
 20
148.399464
 30
0.0
 10
135.341400
 20
149.148510
 30
0.0
 10
135.341400
 20
149.328670
 30
0.0
 10
134.286920
 20
150.020900
 30
0.0
  0
SPLINE
  5
12e
100
AcDbEntity
  8
Layer_1
 62
7
100
AcDbSpline
 70
8
 71
3
 72
8
 73
4
 74
0
 40
0
 40
0
 40
0
 40
0
 40
1
 40
1
 40
1
 40
1
 10
134.286920
 20
150.020900
 30
0.0
 10
133.354000
 20
150.633317
 30
0.0
 10
133.332450
 20
150.802246
 30
0.0
 10
134.186020
 20
150.811770
 30
0.0
  0
SPLINE
  5
12f
100
AcDbEntity
  8
Layer_1
 62
7
100
AcDbSpline
 70
8
 71
3
 72
8
 73
4
 74
0
 40
0
 40
0
 40
0
 40
0
 40
1
 40
1
 40
1
 40
1
 10
134.186020
 20
150.811770
 30
0.0
 10
135.091440
 20
150.821820
 30
0.0
 10
135.097770
 20
151.053407
 30
0.0
 10
134.224020
 20
152.207903
 30
0.0
  0
SPLINE
  5
130
100
AcDbEntity
  8
Layer_1
 62
7
100
AcDbSpline
 70
8
 71
3
 72
8
 73
4
 74
0
 40
0
 40
0
 40
0
 40
0
 40
1
 40
1
 40
1
 40
1
 10
134.224020
 20
152.207903
 30
0.0
 10
133.333070
 20
153.385330
 30
0.0
 10
133.342220
 20
153.444357
 30
0.0
 10
134.285420
 20
152.603338
 30
0.0
  0
SPLINE
  5
131
100
AcDbEntity
  8
Layer_1
 62
7
100
AcDbSpline
 70
8
 71
3
 72
8
 73
4
 74
0
 40
0
 40
0
 40
0
 40
0
 40
1
 40
1
 40
1
 40
1
 10
134.285420
 20
152.603338
 30
0.0
 10
135.794310
 20
151.257816
 30
0.0
 10
136.477100
 20
151.360882
 30
0.0
 10
136.905120
 20
152.998772
 30
0.0
  0
SPLINE
  5
132
100
AcDbEntity
  8
Layer_1
 62
7
100
AcDbSpline
 70
8
 71
3
 72
8
 73
4
 74
0
 40
0
 40
0
 40
0
 40
0
 40
1
 40
1
 40
1
 40
1
 10
136.905120
 20
152.998772
 30
0.0
 10
137.231470
 20
154.247590
 30
0.0
 10
137.275770
 20
154.239325
 30
0.0
 10
137.358550
 20
152.914162
 30
0.0
  0
SPLINE
  5
133
100
AcDbEntity
  8
Layer_1
 62
7
100
AcDbSpline
 70
8
 71
3
 72
8
 73
4
 74
0
 40
0
 40
0
 40
0
 40
0
 40
1
 40
1
 40
1
 40
1
 10
137.358550
 20
152.914162
 30
0.0
 10
137.420050
 20
151.927898
 30
0.0
 10
137.853420
 20
151.600222
 30
0.0
 10
138.677670
 20
151.916516
 30
0.0
  0
SPLINE
  5
134
100
AcDbEntity
  8
Layer_1
 62
7
100
AcDbSpline
 70
8
 71
3
 72
8
 73
4
 74
0
 40
0
 40
0
 40
0
 40
0
 40
1
 40
1
 40
1
 40
1
 10
138.677670
 20
151.916516
 30
0.0
 10
139.352730
 20
152.175561
 30
0.0
 10
139.704260
 20
152.062626
 30
0.0
 10
139.458860
 20
151.665550
 30
0.0
  0
SPLINE
  5
135
100
AcDbEntity
  8
Layer_1
 62
7
100
AcDbSpline
 70
8
 71
3
 72
8
 73
4
 74
0
 40
0
 40
0
 40
0
 40
0
 40
1
 40
1
 40
1
 40
1
 10
139.458860
 20
151.665550
 30
0.0
 10
139.213460
 20
151.268475
 30
0.0
 10
139.461860
 20
150.789793
 30
0.0
 10
140.010940
 20
150.601812
 30
0.0
  0
SPLINE
  5
136
100
AcDbEntity
  8
Layer_1
 62
7
100
AcDbSpline
 70
8
 71
3
 72
8
 73
4
 74
0
 40
0
 40
0
 40
0
 40
0
 40
1
 40
1
 40
1
 40
1
 10
140.010940
 20
150.601812
 30
0.0
 10
140.559990
 20
150.413832
 30
0.0
 10
140.413020
 20
150.346617
 30
0.0
 10
139.684340
 20
150.452444
 30
0.0
  0
SPLINE
  5
137
100
AcDbEntity
  8
Layer_1
 62
7
100
AcDbSpline
 70
8
 71
3
 72
8
 73
4
 74
0
 40
0
 40
0
 40
0
 40
0
 40
1
 40
1
 40
1
 40
1
 10
139.684340
 20
150.452444
 30
0.0
 10
138.840900
 20
150.574940
 30
0.0
 10
138.511780
 20
150.247979
 30
0.0
 10
138.778630
 20
149.552608
 30
0.0
  0
SPLINE
  5
138
100
AcDbEntity
  8
Layer_1
 62
7
100
AcDbSpline
 70
8
 71
3
 72
8
 73
4
 74
0
 40
0
 40
0
 40
0
 40
0
 40
1
 40
1
 40
1
 40
1
 10
138.778630
 20
149.552608
 30
0.0
 10
139.009150
 20
148.951871
 30
0.0
 10
139.525570
 20
148.662956
 30
0.0
 10
139.926240
 20
148.910573
 30
0.0
  0
SPLINE
  5
139
100
AcDbEntity
  8
Layer_1
 62
7
100
AcDbSpline
 70
8
 71
3
 72
8
 73
4
 74
0
 40
0
 40
0
 40
0
 40
0
 40
1
 40
1
 40
1
 40
1
 10
139.926240
 20
148.910573
 30
0.0
 10
140.326890
 20
149.158191
 30
0.0
 10
141.040250
 20
148.254773
 30
0.0
 10
141.511490
 20
146.902980
 30
0.0
  0
SPLINE
  5
13a
100
AcDbEntity
  8
Layer_1
 62
7
100
AcDbSpline
 70
8
 71
3
 72
8
 73
4
 74
0
 40
0
 40
0
 40
0
 40
0
 40
1
 40
1
 40
1
 40
1
 10
141.511490
 20
146.902980
 30
0.0
 10
142.201270
 20
144.924274
 30
0.0
 10
142.683090
 20
144.545088
 30
0.0
 10
143.983270
 20
144.957749
 30
0.0
  0
SPLINE
  5
13b
100
AcDbEntity
  8
Layer_1
 62
7
100
AcDbSpline
 70
8
 71
3
 72
8
 73
4
 74
0
 40
0
 40
0
 40
0
 40
0
 40
1
 40
1
 40
1
 40
1
 10
143.983270
 20
144.957749
 30
0.0
 10
145.326040
 20
145.383927
 30
0.0
 10
145.496310
 20
145.221653
 30
0.0
 10
144.993470
 20
143.995038
 30
0.0
  0
SPLINE
  5
13c
100
AcDbEntity
  8
Layer_1
 62
7
100
AcDbSpline
 70
8
 71
3
 72
8
 73
4
 74
0
 40
0
 40
0
 40
0
 40
0
 40
1
 40
1
 40
1
 40
1
 10
144.993470
 20
143.995038
 30
0.0
 10
143.604720
 20
140.607451
 30
0.0
 10
143.774360
 20
139.639146
 30
0.0
 10
146.744200
 20
134.002219
 30
0.0
  0
SPLINE
  5
13d
100
AcDbEntity
  8
Layer_1
 62
7
100
AcDbSpline
 70
8
 71
3
 72
8
 73
4
 74
0
 40
0
 40
0
 40
0
 40
0
 40
1
 40
1
 40
1
 40
1
 10
146.744200
 20
134.002219
 30
0.0
 10
148.455170
 20
130.754687
 30
0.0
 10
150.853380
 20
124.457493
 30
0.0
 10
152.073570
 20
120.008457
 30
0.0
  0
SPLINE
  5
13e
100
AcDbEntity
  8
Layer_1
 62
7
100
AcDbSpline
 70
8
 71
3
 72
8
 73
4
 74
0
 40
0
 40
0
 40
0
 40
0
 40
1
 40
1
 40
1
 40
1
 10
152.073570
 20
120.008457
 30
0.0
 10
153.730380
 20
113.967385
 30
0.0
 10
155.063480
 20
110.892666
 30
0.0
 10
157.338810
 20
107.864496
 30
0.0
  0
SPLINE
  5
13f
100
AcDbEntity
  8
Layer_1
 62
7
100
AcDbSpline
 70
8
 71
3
 72
8
 73
4
 74
0
 40
0
 40
0
 40
0
 40
0
 40
1
 40
1
 40
1
 40
1
 10
157.338810
 20
107.864496
 30
0.0
 10
160.285510
 20
103.942797
 30
0.0
 10
160.385530
 20
103.600791
 30
0.0
 10
160.385530
 20
97.445570
 30
0.0
  0
SPLINE
  5
140
100
AcDbEntity
  8
Layer_1
 62
7
100
AcDbSpline
 70
8
 71
3
 72
8
 73
4
 74
0
 40
0
 40
0
 40
0
 40
0
 40
1
 40
1
 40
1
 40
1
 10
160.385530
 20
97.445570
 30
0.0
 10
160.385530
 20
90.322170
 30
0.0
 10
158.086820
 20
80.537610
 30
0.0
 10
155.607410
 20
77.107300
 30
0.0
  0
SPLINE
  5
141
100
AcDbEntity
  8
Layer_1
 62
7
100
AcDbSpline
 70
8
 71
3
 72
8
 73
4
 74
0
 40
0
 40
0
 40
0
 40
0
 40
1
 40
1
 40
1
 40
1
 10
155.607410
 20
77.107300
 30
0.0
 10
153.898520
 20
74.743040
 30
0.0
 10
153.682530
 20
72.828900
 30
0.0
 10
154.794570
 20
69.904030
 30
0.0
  0
SPLINE
  5
142
100
AcDbEntity
  8
Layer_1
 62
7
100
AcDbSpline
 70
8
 71
3
 72
8
 73
4
 74
0
 40
0
 40
0
 40
0
 40
0
 40
1
 40
1
 40
1
 40
1
 10
154.794570
 20
69.904030
 30
0.0
 10
155.199370
 20
68.839320
 30
0.0
 10
155.644230
 20
64.228750
 30
0.0
 10
155.783160
 20
59.658330
 30
0.0
  0
SPLINE
  5
143
100
AcDbEntity
  8
Layer_1
 62
7
100
AcDbSpline
 70
8
 71
3
 72
8
 73
4
 74
0
 40
0
 40
0
 40
0
 40
0
 40
1
 40
1
 40
1
 40
1
 10
155.783160
 20
59.658330
 30
0.0
 10
156.035740
 20
51.348460
 30
0.0
 10
156.035740
 20
51.348460
 30
0.0
 10
158.234720
 20
52.914130
 30
0.0
  0
SPLINE
  5
144
100
AcDbEntity
  8
Layer_1
 62
7
100
AcDbSpline
 70
8
 71
3
 72
8
 73
4
 74
0
 40
0
 40
0
 40
0
 40
0
 40
1
 40
1
 40
1
 40
1
 10
158.234720
 20
52.914130
 30
0.0
 10
161.654890
 20
55.349280
 30
0.0
 10
169.392030
 20
64.711030
 30
0.0
 10
172.918680
 20
70.681400
 30
0.0
  0
SPLINE
  5
145
100
AcDbEntity
  8
Layer_1
 62
7
100
AcDbSpline
 70
8
 71
3
 72
8
 73
4
 74
0
 40
0
 40
0
 40
0
 40
0
 40
1
 40
1
 40
1
 40
1
 10
172.918680
 20
70.681400
 30
0.0
 10
178.011500
 20
79.303190
 30
0.0
 10
180.338180
 20
87.240220
 30
0.0
 10
180.767200
 20
97.455220
 30
0.0
  0
SPLINE
  5
146
100
AcDbEntity
  8
Layer_1
 62
7
100
AcDbSpline
 70
8
 71
3
 72
8
 73
4
 74
0
 40
0
 40
0
 40
0
 40
0
 40
1
 40
1
 40
1
 40
1
 10
180.767200
 20
97.455220
 30
0.0
 10
181.197160
 20
107.692751
 30
0.0
 10
180.044590
 20
113.383004
 30
0.0
 10
175.769780
 20
122.127415
 30
0.0
  0
SPLINE
  5
147
100
AcDbEntity
  8
Layer_1
 62
7
100
AcDbSpline
 70
8
 71
3
 72
8
 73
4
 74
0
 40
0
 40
0
 40
0
 40
0
 40
1
 40
1
 40
1
 40
1
 10
175.769780
 20
122.127415
 30
0.0
 10
166.015200
 20
142.081257
 30
0.0
 10
144.238580
 20
156.446268
 30
0.0
 10
116.096880
 20
161.490859
 30
0.0
  0
SPLINE
  5
148
100
AcDbEntity
  8
Layer_1
 62
7
100
AcDbSpline
 70
8
 71
3
 72
8
 73
4
 74
0
 40
0
 40
0
 40
0
 40
0
 40
1
 40
1
 40
1
 40
1
 10
116.096880
 20
161.490859
 30
0.0
 10
106.047230
 20
163.292332
 30
0.0
 10
82.370260
 20
163.953208
 30
0.0
 10
71.820355
 20
162.726717
 30
0.0
  0
SPLINE
  5
149
100
AcDbEntity
  8
Layer_1
 62
7
100
AcDbSpline
 70
8
 71
3
 72
8
 73
4
 74
0
 40
0
 40
0
 40
0
 40
0
 40
1
 40
1
 40
1
 40
1
 10
71.820355
 20
162.726717
 30
0.0
 10
46.707759
 20
159.807223
 30
0.0
 10
29.394930
 20
150.544885
 30
0.0
 10
22.329646
 20
136.249266
 30
0.0
  0
SPLINE
  5
14a
100
AcDbEntity
  8
Layer_1
 62
7
100
AcDbSpline
 70
8
 71
3
 72
8
 73
4
 74
0
 40
0
 40
0
 40
0
 40
0
 40
1
 40
1
 40
1
 40
1
 10
22.329646
 20
136.249266
 30
0.0
 10
17.539310
 20
126.556676
 30
0.0
 10
17.762180
 20
118.618221
 30
0.0
 10
23.152739
 20
106.930598
 30
0.0
  0
SPLINE
  5
14b
100
AcDbEntity
  8
Layer_1
 62
7
100
AcDbSpline
 70
8
 71
3
 72
8
 73
4
 74
0
 40
0
 40
0
 40
0
 40
0
 40
1
 40
1
 40
1
 40
1
 10
23.152739
 20
106.930598
 30
0.0
 10
26.369216
 20
99.956750
 30
0.0
 10
38.439755
 20
83.601590
 30
0.0
 10
40.371088
 20
83.600330
 30
0.0
  0
SPLINE
  5
14c
100
AcDbEntity
  8
Layer_1
 62
7
100
AcDbSpline
 70
8
 71
3
 72
8
 73
4
 74
0
 40
0
 40
0
 40
0
 40
0
 40
1
 40
1
 40
1
 40
1
 10
40.371088
 20
83.600330
 30
0.0
 10
40.697327
 20
83.600100
 30
0.0
 10
40.964243
 20
84.510670
 30
0.0
 10
40.964243
 20
85.623790
 30
0.0
  0
SPLINE
  5
14d
100
AcDbEntity
  8
Layer_1
 62
7
100
AcDbSpline
 70
8
 71
3
 72
8
 73
4
 74
0
 40
0
 40
0
 40
0
 40
0
 40
1
 40
1
 40
1
 40
1
 10
40.964243
 20
85.623790
 30
0.0
 10
40.964243
 20
86.771630
 30
0.0
 10
41.306565
 20
87.436060
 30
0.0
 10
41.755114
 20
87.158850
 30
0.0
  0
SPLINE
  5
14e
100
AcDbEntity
  8
Layer_1
 62
7
100
AcDbSpline
 70
8
 71
3
 72
8
 73
4
 74
0
 40
0
 40
0
 40
0
 40
0
 40
1
 40
1
 40
1
 40
1
 10
41.755114
 20
87.158850
 30
0.0
 10
42.190094
 20
86.890020
 30
0.0
 10
42.545984
 20
85.988100
 30
0.0
 10
42.545984
 20
85.154570
 30
0.0
  0
SPLINE
  5
14f
100
AcDbEntity
  8
Layer_1
 62
7
100
AcDbSpline
 70
8
 71
3
 72
8
 73
4
 74
0
 40
0
 40
0
 40
0
 40
0
 40
1
 40
1
 40
1
 40
1
 10
42.545984
 20
85.154570
 30
0.0
 10
42.545984
 20
83.830120
 30
0.0
 10
42.818635
 20
83.742740
 30
0.0
 10
44.709009
 20
84.461480
 30
0.0
  0
SPLINE
  5
150
100
AcDbEntity
  8
Layer_1
 62
7
100
AcDbSpline
 70
8
 71
3
 72
8
 73
4
 74
0
 40
0
 40
0
 40
0
 40
0
 40
1
 40
1
 40
1
 40
1
 10
44.709009
 20
84.461480
 30
0.0
 10
46.872044
 20
85.283850
 30
0.0
 10
46.872044
 20
85.283850
 30
0.0
 10
44.906725
 20
83.185660
 30
0.0
  0
SPLINE
  5
151
100
AcDbEntity
  8
Layer_1
 62
7
100
AcDbSpline
 70
8
 71
3
 72
8
 73
4
 74
0
 40
0
 40
0
 40
0
 40
0
 40
1
 40
1
 40
1
 40
1
 10
44.906725
 20
83.185660
 30
0.0
 10
42.941416
 20
81.087490
 30
0.0
 10
42.941416
 20
81.087490
 30
0.0
 10
46.104899
 20
81.553410
 30
0.0
  0
SPLINE
  5
152
100
AcDbEntity
  8
Layer_1
 62
7
100
AcDbSpline
 70
8
 71
3
 72
8
 73
4
 74
0
 40
0
 40
0
 40
0
 40
0
 40
1
 40
1
 40
1
 40
1
 10
46.104899
 20
81.553410
 30
0.0
 10
49.268382
 20
82.019330
 30
0.0
 10
49.268382
 20
82.019330
 30
0.0
 10
46.698054
 20
80.830200
 30
0.0
  0
SPLINE
  5
153
100
AcDbEntity
  8
Layer_1
 62
7
100
AcDbSpline
 70
8
 71
3
 72
8
 73
4
 74
0
 40
0
 40
0
 40
0
 40
0
 40
1
 40
1
 40
1
 40
1
 10
46.698054
 20
80.830200
 30
0.0
 10
43.863716
 20
79.518910
 30
0.0
 10
43.443639
 20
78.495580
 30
0.0
 10
45.427227
 20
77.734410
 30
0.0
  0
SPLINE
  5
154
100
AcDbEntity
  8
Layer_1
 62
7
100
AcDbSpline
 70
8
 71
3
 72
8
 73
4
 74
0
 40
0
 40
0
 40
0
 40
0
 40
1
 40
1
 40
1
 40
1
 10
45.427227
 20
77.734410
 30
0.0
 10
46.141954
 20
77.460140
 30
0.0
 10
46.528322
 20
77.037330
 30
0.0
 10
46.285831
 20
76.794850
 30
0.0
  0
SPLINE
  5
155
100
AcDbEntity
  8
Layer_1
 62
7
100
AcDbSpline
 70
8
 71
3
 72
8
 73
4
 74
0
 40
0
 40
0
 40
0
 40
0
 40
1
 40
1
 40
1
 40
1
 10
46.285831
 20
76.794850
 30
0.0
 10
46.043341
 20
76.552360
 30
0.0
 10
45.067510
 20
76.769950
 30
0.0
 10
44.117321
 20
77.278540
 30
0.0
  0
SPLINE
  5
156
100
AcDbEntity
  8
Layer_1
 62
7
100
AcDbSpline
 70
8
 71
3
 72
8
 73
4
 74
0
 40
0
 40
0
 40
0
 40
0
 40
1
 40
1
 40
1
 40
1
 10
44.117321
 20
77.278540
 30
0.0
 10
42.467951
 20
78.161260
 30
0.0
 10
42.412331
 20
78.083570
 30
0.0
 10
42.889093
 20
75.563160
 30
0.0
  0
SPLINE
  5
157
100
AcDbEntity
  8
Layer_1
 62
7
100
AcDbSpline
 70
8
 71
3
 72
8
 73
4
 74
0
 40
0
 40
0
 40
0
 40
0
 40
1
 40
1
 40
1
 40
1
 10
42.889093
 20
75.563160
 30
0.0
 10
43.388468
 20
72.923180
 30
0.0
 10
43.388468
 20
72.923180
 30
0.0
 10
42.072003
 20
75.295800
 30
0.0
  0
SPLINE
  5
158
100
AcDbEntity
  8
Layer_1
 62
7
100
AcDbSpline
 70
8
 71
3
 72
8
 73
4
 74
0
 40
0
 40
0
 40
0
 40
0
 40
1
 40
1
 40
1
 40
1
 10
42.072003
 20
75.295800
 30
0.0
 10
41.347945
 20
76.600730
 30
0.0
 10
40.657625
 20
77.783620
 30
0.0
 10
40.537953
 20
77.924440
 30
0.0
  0
SPLINE
  5
159
100
AcDbEntity
  8
Layer_1
 62
7
100
AcDbSpline
 70
8
 71
3
 72
8
 73
4
 74
0
 40
0
 40
0
 40
0
 40
0
 40
1
 40
1
 40
1
 40
1
 10
40.537953
 20
77.924440
 30
0.0
 10
40.418280
 20
78.065260
 30
0.0
 10
39.237292
 20
77.620390
 30
0.0
 10
37.913537
 20
76.935850
 30
0.0
  0
SPLINE
  5
15a
100
AcDbEntity
  8
Layer_1
 62
7
100
AcDbSpline
 70
8
 71
3
 72
8
 73
4
 74
0
 40
0
 40
0
 40
0
 40
0
 40
1
 40
1
 40
1
 40
1
 10
37.913537
 20
76.935850
 30
0.0
 10
34.593911
 20
75.219220
 30
0.0
 10
34.026380
 20
75.378480
 30
0.0
 10
36.507800
 20
77.330380
 30
0.0
  0
SPLINE
  5
15b
100
AcDbEntity
  8
Layer_1
 62
7
100
AcDbSpline
 70
8
 71
3
 72
8
 73
4
 74
0
 40
0
 40
0
 40
0
 40
0
 40
1
 40
1
 40
1
 40
1
 10
36.507800
 20
77.330380
 30
0.0
 10
39.053223
 20
79.332600
 30
0.0
 10
39.103531
 20
79.947870
 30
0.0
 10
36.812174
 20
81.052950
 30
0.0
  0
SPLINE
  5
15c
100
AcDbEntity
  8
Layer_1
 62
7
100
AcDbSpline
 70
8
 71
3
 72
8
 73
4
 74
0
 40
0
 40
0
 40
0
 40
0
 40
1
 40
1
 40
1
 40
1
 10
36.812174
 20
81.052950
 30
0.0
 10
35.833476
 20
81.524950
 30
0.0
 10
35.451652
 20
81.935230
 30
0.0
 10
35.963687
 20
81.964660
 30
0.0
  0
SPLINE
  5
15d
100
AcDbEntity
  8
Layer_1
 62
7
100
AcDbSpline
 70
8
 71
3
 72
8
 73
4
 74
0
 40
0
 40
0
 40
0
 40
0
 40
1
 40
1
 40
1
 40
1
 10
35.963687
 20
81.964660
 30
0.0
 10
36.475722
 20
81.994060
 30
0.0
 10
34.775468
 20
84.242520
 30
0.0
 10
32.185336
 20
86.961140
 30
0.0
  0
SPLINE
  5
15e
100
AcDbEntity
  8
Layer_1
 62
7
100
AcDbSpline
 70
8
 71
3
 72
8
 73
4
 74
0
 40
0
 40
0
 40
0
 40
0
 40
1
 40
1
 40
1
 40
1
 10
32.185336
 20
86.961140
 30
0.0
 10
26.094666
 20
93.353950
 30
0.0
 10
18.665454
 20
104.346998
 30
0.0
 10
16.469718
 20
110.215633
 30
0.0
  0
SPLINE
  5
15f
100
AcDbEntity
  8
Layer_1
 62
7
100
AcDbSpline
 70
8
 71
3
 72
8
 73
4
 74
0
 40
0
 40
0
 40
0
 40
0
 40
1
 40
1
 40
1
 40
1
 10
16.469718
 20
110.215633
 30
0.0
 10
10.007793
 20
127.486677
 30
0.0
 10
17.258288
 20
144.180569
 30
0.0
 10
35.981601
 20
155.140770
 30
0.0
  0
SPLINE
  5
160
100
AcDbEntity
  8
Layer_1
 62
7
100
AcDbSpline
 70
8
 71
3
 72
8
 73
4
 74
0
 40
0
 40
0
 40
0
 40
0
 40
1
 40
1
 40
1
 40
1
 10
35.981601
 20
155.140770
 30
0.0
 10
60.463018
 20
169.471622
 30
0.0
 10
111.735810
 20
172.441072
 30
0.0
 10
140.067690
 20
161.168884
 30
0.0
  0
SPLINE
  5
161
100
AcDbEntity
  8
Layer_1
 62
7
100
AcDbSpline
 70
8
 71
3
 72
8
 73
4
 74
0
 40
0
 40
0
 40
0
 40
0
 40
1
 40
1
 40
1
 40
1
 10
140.067690
 20
161.168884
 30
0.0
 10
152.166220
 20
156.355329
 30
0.0
 10
159.966310
 20
151.691338
 30
0.0
 10
168.838160
 20
143.965831
 30
0.0
  0
SPLINE
  5
162
100
AcDbEntity
  8
Layer_1
 62
7
100
AcDbSpline
 70
8
 71
3
 72
8
 73
4
 74
0
 40
0
 40
0
 40
0
 40
0
 40
1
 40
1
 40
1
 40
1
 10
168.838160
 20
143.965831
 30
0.0
 10
190.555050
 20
125.054992
 30
0.0
 10
194.753740
 20
96.791730
 30
0.0
 10
179.603780
 20
71.497560
 30
0.0
  0
SPLINE
  5
163
100
AcDbEntity
  8
Layer_1
 62
7
100
AcDbSpline
 70
8
 71
3
 72
8
 73
4
 74
0
 40
0
 40
0
 40
0
 40
0
 40
1
 40
1
 40
1
 40
1
 10
179.603780
 20
71.497560
 30
0.0
 10
175.934320
 20
65.371090
 30
0.0
 10
165.345290
 20
53.620320
 30
0.0
 10
159.713740
 20
49.425310
 30
0.0
  0
SPLINE
  5
164
100
AcDbEntity
  8
Layer_1
 62
7
100
AcDbSpline
 70
8
 71
3
 72
8
 73
4
 74
0
 40
0
 40
0
 40
0
 40
0
 40
1
 40
1
 40
1
 40
1
 10
159.713740
 20
49.425310
 30
0.0
 10
157.064690
 20
47.452020
 30
0.0
 10
157.064690
 20
47.452020
 30
0.0
 10
158.712240
 20
41.602180
 30
0.0
  0
SPLINE
  5
165
100
AcDbEntity
  8
Layer_1
 62
7
100
AcDbSpline
 70
8
 71
3
 72
8
 73
4
 74
0
 40
0
 40
0
 40
0
 40
0
 40
1
 40
1
 40
1
 40
1
 10
158.712240
 20
41.602180
 30
0.0
 10
159.618400
 20
38.384750
 30
0.0
 10
161.498080
 20
32.816210
 30
0.0
 10
162.889340
 20
29.227630
 30
0.0
  0
SPLINE
  5
166
100
AcDbEntity
  8
Layer_1
 62
7
100
AcDbSpline
 70
8
 71
3
 72
8
 73
4
 74
0
 40
0
 40
0
 40
0
 40
0
 40
1
 40
1
 40
1
 40
1
 10
162.889340
 20
29.227630
 30
0.0
 10
165.418880
 20
22.702970
 30
0.0
 10
165.418880
 20
22.702970
 30
0.0
 10
175.556170
 20
22.702970
 30
0.0
  0
LWPOLYLINE
  5
167
100
AcDbEntity
  8
Layer_1
 62
7
100
AcDbPolyline
 90
3
 70
0
 10
107.877410
 20
3.722090
 30
0.0
 10
32.264723
 20
3.722090
 30
0.0
 10
32.264723
 20
11.584110
 30
0.0
  0
SPLINE
  5
168
100
AcDbEntity
  8
Layer_1
 62
7
100
AcDbSpline
 70
8
 71
3
 72
8
 73
4
 74
0
 40
0
 40
0
 40
0
 40
0
 40
1
 40
1
 40
1
 40
1
 10
185.693450
 20
13.918780
 30
0.0
 10
185.693450
 20
6.099130
 30
0.0
 10
185.835990
 20
5.189300
 30
0.0
 10
186.991610
 20
5.632750
 30
0.0
  0
SPLINE
  5
169
100
AcDbEntity
  8
Layer_1
 62
7
100
AcDbSpline
 70
8
 71
3
 72
8
 73
4
 74
0
 40
0
 40
0
 40
0
 40
0
 40
1
 40
1
 40
1
 40
1
 10
186.991610
 20
5.632750
 30
0.0
 10
188.077060
 20
6.049280
 30
0.0
 10
188.125990
 20
5.933540
 30
0.0
 10
187.290210
 20
4.926500
 30
0.0
  0
SPLINE
  5
16a
100
AcDbEntity
  8
Layer_1
 62
7
100
AcDbSpline
 70
8
 71
3
 72
8
 73
4
 74
0
 40
0
 40
0
 40
0
 40
0
 40
1
 40
1
 40
1
 40
1
 10
187.290210
 20
4.926500
 30
0.0
 10
186.740440
 20
4.264070
 30
0.0
 10
186.630800
 20
3.722090
 30
0.0
 10
187.046530
 20
3.722090
 30
0.0
  0
SPLINE
  5
16b
100
AcDbEntity
  8
Layer_1
 62
7
100
AcDbSpline
 70
8
 71
3
 72
8
 73
4
 74
0
 40
0
 40
0
 40
0
 40
0
 40
1
 40
1
 40
1
 40
1
 10
187.046530
 20
3.722090
 30
0.0
 10
188.125350
 20
3.722090
 30
0.0
 10
187.981130
 20
1.842390
 30
0.0
 10
186.819030
 20
0.756830
 30
0.0
  0
SPLINE
  5
16c
100
AcDbEntity
  8
Layer_1
 62
7
100
AcDbSpline
 70
8
 71
3
 72
8
 73
4
 74
0
 40
0
 40
0
 40
0
 40
0
 40
1
 40
1
 40
1
 40
1
 10
186.819030
 20
0.756830
 30
0.0
 10
186.066980
 20
0.054320
 30
0.0
 10
185.732930
 20
0.105860
 30
0.0
 10
185.399040
 20
0.975940
 30
0.0
  0
LWPOLYLINE
  5
16d
100
AcDbEntity
  8
Layer_1
 62
7
100
AcDbPolyline
 90
3
 70
0
 10
175.556170
 20
22.702970
 30
0.0
 10
185.693450
 20
22.702970
 30
0.0
 10
185.693450
 20
13.918780
 30
0.0
  0
SPLINE
  5
16e
100
AcDbEntity
  8
Layer_1
 62
7
100
AcDbSpline
 70
8
 71
3
 72
8
 73
4
 74
0
 40
0
 40
0
 40
0
 40
0
 40
1
 40
1
 40
1
 40
1
 10
179.212500
 20
10.240320
 30
0.0
 10
179.382690
 20
11.648970
 30
0.0
 10
178.822320
 20
12.734930
 30
0.0
 10
177.312290
 20
13.922720
 30
0.0
  0
SPLINE
  5
16f
100
AcDbEntity
  8
Layer_1
 62
7
100
AcDbSpline
 70
8
 71
3
 72
8
 73
4
 74
0
 40
0
 40
0
 40
0
 40
0
 40
1
 40
1
 40
1
 40
1
 10
177.312290
 20
13.922720
 30
0.0
 10
176.134430
 20
14.849230
 30
0.0
 10
175.394390
 20
15.830960
 30
0.0
 10
175.667770
 20
16.104350
 30
0.0
  0
SPLINE
  5
170
100
AcDbEntity
  8
Layer_1
 62
7
100
AcDbSpline
 70
8
 71
3
 72
8
 73
4
 74
0
 40
0
 40
0
 40
0
 40
0
 40
1
 40
1
 40
1
 40
1
 10
175.667770
 20
16.104350
 30
0.0
 10
175.941160
 20
16.377730
 30
0.0
 10
176.715870
 20
16.144050
 30
0.0
 10
177.389370
 20
15.585130
 30
0.0
  0
SPLINE
  5
171
100
AcDbEntity
  8
Layer_1
 62
7
100
AcDbSpline
 70
8
 71
3
 72
8
 73
4
 74
0
 40
0
 40
0
 40
0
 40
0
 40
1
 40
1
 40
1
 40
1
 10
177.389370
 20
15.585130
 30
0.0
 10
178.961380
 20
14.280480
 30
0.0
 10
179.964130
 20
15.251120
 30
0.0
 10
178.858360
 20
17.007090
 30
0.0
  0
SPLINE
  5
172
100
AcDbEntity
  8
Layer_1
 62
7
100
AcDbSpline
 70
8
 71
3
 72
8
 73
4
 74
0
 40
0
 40
0
 40
0
 40
0
 40
1
 40
1
 40
1
 40
1
 10
178.858360
 20
17.007090
 30
0.0
 10
177.773450
 20
18.729930
 30
0.0
 10
175.657940
 20
19.146250
 30
0.0
 10
174.187880
 20
17.926220
 30
0.0
  0
SPLINE
  5
173
100
AcDbEntity
  8
Layer_1
 62
7
100
AcDbSpline
 70
8
 71
3
 72
8
 73
4
 74
0
 40
0
 40
0
 40
0
 40
0
 40
1
 40
1
 40
1
 40
1
 10
174.187880
 20
17.926220
 30
0.0
 10
172.463050
 20
16.494730
 30
0.0
 10
172.801380
 20
14.305570
 30
0.0
 10
175.016750
 20
12.562950
 30
0.0
  0
SPLINE
  5
174
100
AcDbEntity
  8
Layer_1
 62
7
100
AcDbSpline
 70
8
 71
3
 72
8
 73
4
 74
0
 40
0
 40
0
 40
0
 40
0
 40
1
 40
1
 40
1
 40
1
 10
175.016750
 20
12.562950
 30
0.0
 10
177.023780
 20
10.984220
 30
0.0
 10
177.643380
 20
9.258180
 30
0.0
 10
176.203050
 20
9.258180
 30
0.0
  0
SPLINE
  5
175
100
AcDbEntity
  8
Layer_1
 62
7
100
AcDbSpline
 70
8
 71
3
 72
8
 73
4
 74
0
 40
0
 40
0
 40
0
 40
0
 40
1
 40
1
 40
1
 40
1
 10
176.203050
 20
9.258180
 30
0.0
 10
175.768070
 20
9.258180
 30
0.0
 10
175.412180
 20
9.792010
 30
0.0
 10
175.412180
 20
10.444480
 30
0.0
  0
SPLINE
  5
176
100
AcDbEntity
  8
Layer_1
 62
7
100
AcDbSpline
 70
8
 71
3
 72
8
 73
4
 74
0
 40
0
 40
0
 40
0
 40
0
 40
1
 40
1
 40
1
 40
1
 10
175.412180
 20
10.444480
 30
0.0
 10
175.412180
 20
11.096950
 30
0.0
 10
174.878340
 20
11.630800
 30
0.0
 10
174.225880
 20
11.630800
 30
0.0
  0
SPLINE
  5
177
100
AcDbEntity
  8
Layer_1
 62
7
100
AcDbSpline
 70
8
 71
3
 72
8
 73
4
 74
0
 40
0
 40
0
 40
0
 40
0
 40
1
 40
1
 40
1
 40
1
 10
174.225880
 20
11.630800
 30
0.0
 10
172.606930
 20
11.630800
 30
0.0
 10
172.721790
 20
8.723740
 30
0.0
 10
174.377340
 20
7.797250
 30
0.0
  0
SPLINE
  5
178
100
AcDbEntity
  8
Layer_1
 62
7
100
AcDbSpline
 70
8
 71
3
 72
8
 73
4
 74
0
 40
0
 40
0
 40
0
 40
0
 40
1
 40
1
 40
1
 40
1
 10
174.377340
 20
7.797250
 30
0.0
 10
176.390560
 20
6.670590
 30
0.0
 10
178.936610
 20
7.957050
 30
0.0
 10
179.212500
 20
10.240320
 30
0.0
  0
LWPOLYLINE
  5
179
100
AcDbEntity
  8
Layer_1
 62
7
100
AcDbPolyline
 90
1
 70
1
 10
185.399040
 20
0.975940
 30
0.0
  0
SPLINE
  5
17a
100
AcDbEntity
  8
Layer_1
 62
7
100
AcDbSpline
 70
8
 71
3
 72
8
 73
4
 74
0
 40
0
 40
0
 40
0
 40
0
 40
1
 40
1
 40
1
 40
1
 10
44.756825
 20
12.944090
 30
0.0
 10
44.989237
 20
17.791060
 30
0.0
 10
44.978064
 20
17.819020
 30
0.0
 10
42.601232
 20
18.341060
 30
0.0
  0
SPLINE
  5
17b
100
AcDbEntity
  8
Layer_1
 62
7
100
AcDbSpline
 70
8
 71
3
 72
8
 73
4
 74
0
 40
0
 40
0
 40
0
 40
0
 40
1
 40
1
 40
1
 40
1
 10
42.601232
 20
18.341060
 30
0.0
 10
41.287165
 20
18.629670
 30
0.0
 10
39.847440
 20
18.640490
 30
0.0
 10
39.401844
 20
18.365060
 30
0.0
  0
SPLINE
  5
17c
100
AcDbEntity
  8
Layer_1
 62
7
100
AcDbSpline
 70
8
 71
3
 72
8
 73
4
 74
0
 40
0
 40
0
 40
0
 40
0
 40
1
 40
1
 40
1
 40
1
 10
39.401844
 20
18.365060
 30
0.0
 10
38.956259
 20
18.089670
 30
0.0
 10
38.591679
 20
15.550570
 30
0.0
 10
38.591679
 20
12.722640
 30
0.0
  0
SPLINE
  5
17d
100
AcDbEntity
  8
Layer_1
 62
7
100
AcDbSpline
 70
8
 71
3
 72
8
 73
4
 74
0
 40
0
 40
0
 40
0
 40
0
 40
1
 40
1
 40
1
 40
1
 10
38.591679
 20
12.722640
 30
0.0
 10
38.591679
 20
7.580920
 30
0.0
 10
38.591679
 20
7.580920
 30
0.0
 10
41.557447
 20
7.826370
 30
0.0
  0
SPLINE
  5
17e
100
AcDbEntity
  8
Layer_1
 62
7
100
AcDbSpline
 70
8
 71
3
 72
8
 73
4
 74
0
 40
0
 40
0
 40
0
 40
0
 40
1
 40
1
 40
1
 40
1
 10
41.557447
 20
7.826370
 30
0.0
 10
44.523205
 20
8.071830
 30
0.0
 10
44.523205
 20
8.071830
 30
0.0
 10
44.756825
 20
12.944040
 30
0.0
  0
LWPOLYLINE
  5
17f
100
AcDbEntity
  8
Layer_1
 62
7
100
AcDbPolyline
 90
1
 70
1
 10
179.212500
 20
10.240320
 30
0.0
  0
SPLINE
  5
180
100
AcDbEntity
  8
Layer_1
 62
7
100
AcDbSpline
 70
8
 71
3
 72
8
 73
4
 74
0
 40
0
 40
0
 40
0
 40
0
 40
1
 40
1
 40
1
 40
1
 10
40.964292
 20
12.817090
 30
0.0
 10
40.964292
 20
14.774490
 30
0.0
 10
41.320182
 20
16.376010
 30
0.0
 10
41.755162
 20
16.376010
 30
0.0
  0
SPLINE
  5
181
100
AcDbEntity
  8
Layer_1
 62
7
100
AcDbSpline
 70
8
 71
3
 72
8
 73
4
 74
0
 40
0
 40
0
 40
0
 40
0
 40
1
 40
1
 40
1
 40
1
 10
41.755162
 20
16.376010
 30
0.0
 10
42.190141
 20
16.376010
 30
0.0
 10
42.546033
 20
14.774490
 30
0.0
 10
42.546033
 20
12.817090
 30
0.0
  0
SPLINE
  5
182
100
AcDbEntity
  8
Layer_1
 62
7
100
AcDbSpline
 70
8
 71
3
 72
8
 73
4
 74
0
 40
0
 40
0
 40
0
 40
0
 40
1
 40
1
 40
1
 40
1
 10
42.546033
 20
12.817090
 30
0.0
 10
42.546033
 20
10.859680
 30
0.0
 10
42.190141
 20
9.258180
 30
0.0
 10
41.755162
 20
9.258180
 30
0.0
  0
SPLINE
  5
183
100
AcDbEntity
  8
Layer_1
 62
7
100
AcDbSpline
 70
8
 71
3
 72
8
 73
4
 74
0
 40
0
 40
0
 40
0
 40
0
 40
1
 40
1
 40
1
 40
1
 10
41.755162
 20
9.258180
 30
0.0
 10
41.320182
 20
9.258180
 30
0.0
 10
40.964292
 20
10.859680
 30
0.0
 10
40.964292
 20
12.817090
 30
0.0
  0
LWPOLYLINE
  5
184
100
AcDbEntity
  8
Layer_1
 62
7
100
AcDbPolyline
 90
1
 70
1
 10
44.756825
 20
12.944040
 30
0.0
  0
SPLINE
  5
185
100
AcDbEntity
  8
Layer_1
 62
7
100
AcDbSpline
 70
8
 71
3
 72
8
 73
4
 74
0
 40
0
 40
0
 40
0
 40
0
 40
1
 40
1
 40
1
 40
1
 10
55.649435
 20
9.060460
 30
0.0
 10
56.620184
 20
10.378580
 30
0.0
 10
56.694276
 20
10.378580
 30
0.0
 10
57.205256
 20
9.060460
 30
0.0
  0
SPLINE
  5
186
100
AcDbEntity
  8
Layer_1
 62
7
100
AcDbSpline
 70
8
 71
3
 72
8
 73
4
 74
0
 40
0
 40
0
 40
0
 40
0
 40
1
 40
1
 40
1
 40
1
 10
57.205256
 20
9.060460
 30
0.0
 10
57.500347
 20
8.299250
 30
0.0
 10
58.237553
 20
7.676440
 30
0.0
 10
58.843482
 20
7.676440
 30
0.0
  0
SPLINE
  5
187
100
AcDbEntity
  8
Layer_1
 62
7
100
AcDbSpline
 70
8
 71
3
 72
8
 73
4
 74
0
 40
0
 40
0
 40
0
 40
0
 40
1
 40
1
 40
1
 40
1
 10
58.843482
 20
7.676440
 30
0.0
 10
60.127456
 20
7.676440
 30
0.0
 10
60.133997
 20
8.977760
 30
0.0
 10
58.877242
 20
14.388660
 30
0.0
  0
SPLINE
  5
188
100
AcDbEntity
  8
Layer_1
 62
7
100
AcDbSpline
 70
8
 71
3
 72
8
 73
4
 74
0
 40
0
 40
0
 40
0
 40
0
 40
1
 40
1
 40
1
 40
1
 10
58.877242
 20
14.388660
 30
0.0
 10
57.570194
 20
20.016050
 30
0.0
 10
55.669636
 20
20.122350
 30
0.0
 10
54.428730
 20
14.637460
 30
0.0
  0
SPLINE
  5
189
100
AcDbEntity
  8
Layer_1
 62
7
100
AcDbSpline
 70
8
 71
3
 72
8
 73
4
 74
0
 40
0
 40
0
 40
0
 40
0
 40
1
 40
1
 40
1
 40
1
 10
54.428730
 20
14.637460
 30
0.0
 10
53.906990
 20
12.331330
 30
0.0
 10
53.309261
 20
9.821670
 30
0.0
 10
53.100430
 20
9.060460
 30
0.0
  0
SPLINE
  5
18a
100
AcDbEntity
  8
Layer_1
 62
7
100
AcDbSpline
 70
8
 71
3
 72
8
 73
4
 74
0
 40
0
 40
0
 40
0
 40
0
 40
1
 40
1
 40
1
 40
1
 10
53.100430
 20
9.060460
 30
0.0
 10
52.890996
 20
8.297010
 30
0.0
 10
53.148860
 20
7.676440
 30
0.0
 10
53.675451
 20
7.676440
 30
0.0
  0
SPLINE
  5
18b
100
AcDbEntity
  8
Layer_1
 62
7
100
AcDbSpline
 70
8
 71
3
 72
8
 73
4
 74
0
 40
0
 40
0
 40
0
 40
0
 40
1
 40
1
 40
1
 40
1
 10
53.675451
 20
7.676440
 30
0.0
 10
54.200537
 20
7.676440
 30
0.0
 10
55.088833
 20
8.299250
 30
0.0
 10
55.649439
 20
9.060460
 30
0.0
  0
LWPOLYLINE
  5
18c
100
AcDbEntity
  8
Layer_1
 62
7
100
AcDbPolyline
 90
1
 70
1
 10
40.964292
 20
12.817090
 30
0.0
  0
SPLINE
  5
18d
100
AcDbEntity
  8
Layer_1
 62
7
100
AcDbSpline
 70
8
 71
3
 72
8
 73
4
 74
0
 40
0
 40
0
 40
0
 40
0
 40
1
 40
1
 40
1
 40
1
 10
56.145004
 20
13.607960
 30
0.0
 10
56.161114
 20
14.912890
 30
0.0
 10
56.338365
 20
15.350990
 30
0.0
 10
56.538891
 20
14.581500
 30
0.0
  0
SPLINE
  5
18e
100
AcDbEntity
  8
Layer_1
 62
7
100
AcDbSpline
 70
8
 71
3
 72
8
 73
4
 74
0
 40
0
 40
0
 40
0
 40
0
 40
1
 40
1
 40
1
 40
1
 10
56.538891
 20
14.581500
 30
0.0
 10
56.739406
 20
13.812010
 30
0.0
 10
56.726220
 20
12.744340
 30
0.0
 10
56.509541
 20
12.208890
 30
0.0
  0
SPLINE
  5
18f
100
AcDbEntity
  8
Layer_1
 62
7
100
AcDbSpline
 70
8
 71
3
 72
8
 73
4
 74
0
 40
0
 40
0
 40
0
 40
0
 40
1
 40
1
 40
1
 40
1
 10
56.509541
 20
12.208890
 30
0.0
 10
56.292895
 20
11.673450
 30
0.0
 10
56.128831
 20
12.303090
 30
0.0
 10
56.144951
 20
13.607960
 30
0.0
  0
LWPOLYLINE
  5
190
100
AcDbEntity
  8
Layer_1
 62
7
100
AcDbPolyline
 90
1
 70
1
 10
55.649439
 20
9.060460
 30
0.0
  0
SPLINE
  5
191
100
AcDbEntity
  8
Layer_1
 62
7
100
AcDbSpline
 70
8
 71
3
 72
8
 73
4
 74
0
 40
0
 40
0
 40
0
 40
0
 40
1
 40
1
 40
1
 40
1
 10
70.297802
 20
10.246760
 30
0.0
 10
70.369142
 20
12.817090
 30
0.0
 10
70.369142
 20
12.817090
 30
0.0
 10
71.111286
 20
10.246760
 30
0.0
  0
SPLINE
  5
192
100
AcDbEntity
  8
Layer_1
 62
7
100
AcDbSpline
 70
8
 71
3
 72
8
 73
4
 74
0
 40
0
 40
0
 40
0
 40
0
 40
1
 40
1
 40
1
 40
1
 10
71.111286
 20
10.246760
 30
0.0
 10
71.519471
 20
8.833090
 30
0.0
 10
72.377107
 20
7.676440
 30
0.0
 10
73.017138
 20
7.676440
 30
0.0
  0
SPLINE
  5
193
100
AcDbEntity
  8
Layer_1
 62
7
100
AcDbSpline
 70
8
 71
3
 72
8
 73
4
 74
0
 40
0
 40
0
 40
0
 40
0
 40
1
 40
1
 40
1
 40
1
 10
73.017138
 20
7.676440
 30
0.0
 10
73.931958
 20
7.676440
 30
0.0
 10
74.180826
 20
8.874510
 30
0.0
 10
74.180826
 20
13.278430
 30
0.0
  0
SPLINE
  5
194
100
AcDbEntity
  8
Layer_1
 62
7
100
AcDbSpline
 70
8
 71
3
 72
8
 73
4
 74
0
 40
0
 40
0
 40
0
 40
0
 40
1
 40
1
 40
1
 40
1
 10
74.180826
 20
13.278430
 30
0.0
 10
74.180826
 20
17.408860
 30
0.0
 10
73.921141
 20
18.793710
 30
0.0
 10
73.192240
 20
18.550290
 30
0.0
  0
SPLINE
  5
195
100
AcDbEntity
  8
Layer_1
 62
7
100
AcDbSpline
 70
8
 71
3
 72
8
 73
4
 74
0
 40
0
 40
0
 40
0
 40
0
 40
1
 40
1
 40
1
 40
1
 10
73.192240
 20
18.550290
 30
0.0
 10
72.607495
 20
18.355010
 30
0.0
 10
72.276902
 20
17.116570
 30
0.0
 10
72.382967
 20
15.518620
 30
0.0
  0
SPLINE
  5
196
100
AcDbEntity
  8
Layer_1
 62
7
100
AcDbSpline
 70
8
 71
3
 72
8
 73
4
 74
0
 40
0
 40
0
 40
0
 40
0
 40
1
 40
1
 40
1
 40
1
 10
72.382967
 20
15.518620
 30
0.0
 10
72.562278
 20
12.817090
 30
0.0
 10
72.562278
 20
12.817090
 30
0.0
 10
71.521533
 20
15.585120
 30
0.0
  0
SPLINE
  5
197
100
AcDbEntity
  8
Layer_1
 62
7
100
AcDbSpline
 70
8
 71
3
 72
8
 73
4
 74
0
 40
0
 40
0
 40
0
 40
0
 40
1
 40
1
 40
1
 40
1
 10
71.521533
 20
15.585120
 30
0.0
 10
69.777635
 20
20.223350
 30
0.0
 10
68.283239
 20
19.127810
 30
0.0
 10
68.015450
 20
13.014790
 30
0.0
  0
SPLINE
  5
198
100
AcDbEntity
  8
Layer_1
 62
7
100
AcDbSpline
 70
8
 71
3
 72
8
 73
4
 74
0
 40
0
 40
0
 40
0
 40
0
 40
1
 40
1
 40
1
 40
1
 10
68.015450
 20
13.014790
 30
0.0
 10
67.823192
 20
8.625830
 30
0.0
 10
67.999050
 20
7.676430
 30
0.0
 10
69.004036
 20
7.676430
 30
0.0
  0
SPLINE
  5
199
100
AcDbEntity
  8
Layer_1
 62
7
100
AcDbSpline
 70
8
 71
3
 72
8
 73
4
 74
0
 40
0
 40
0
 40
0
 40
0
 40
1
 40
1
 40
1
 40
1
 10
69.004036
 20
7.676430
 30
0.0
 10
69.841323
 20
7.676430
 30
0.0
 10
70.248951
 20
8.486260
 30
0.0
 10
70.297802
 20
10.246750
 30
0.0
  0
LWPOLYLINE
  5
19a
100
AcDbEntity
  8
Layer_1
 62
7
100
AcDbPolyline
 90
1
 70
1
 10
56.144951
 20
13.607960
 30
0.0
  0
SPLINE
  5
19b
100
AcDbEntity
  8
Layer_1
 62
7
100
AcDbSpline
 70
8
 71
3
 72
8
 73
4
 74
0
 40
0
 40
0
 40
0
 40
0
 40
1
 40
1
 40
1
 40
1
 10
89.064645
 20
9.851330
 30
0.0
 10
89.234626
 20
11.048210
 30
0.0
 10
88.910976
 20
11.630800
 30
0.0
 10
88.076059
 20
11.630800
 30
0.0
  0
SPLINE
  5
19c
100
AcDbEntity
  8
Layer_1
 62
7
100
AcDbSpline
 70
8
 71
3
 72
8
 73
4
 74
0
 40
0
 40
0
 40
0
 40
0
 40
1
 40
1
 40
1
 40
1
 10
88.076059
 20
11.630800
 30
0.0
 10
87.393333
 20
11.630800
 30
0.0
 10
86.834749
 20
11.096950
 30
0.0
 10
86.834749
 20
10.444480
 30
0.0
  0
SPLINE
  5
19d
100
AcDbEntity
  8
Layer_1
 62
7
100
AcDbSpline
 70
8
 71
3
 72
8
 73
4
 74
0
 40
0
 40
0
 40
0
 40
0
 40
1
 40
1
 40
1
 40
1
 10
86.834749
 20
10.444480
 30
0.0
 10
86.834749
 20
9.792010
 30
0.0
 10
86.478859
 20
9.258180
 30
0.0
 10
86.043879
 20
9.258180
 30
0.0
  0
SPLINE
  5
19e
100
AcDbEntity
  8
Layer_1
 62
7
100
AcDbSpline
 70
8
 71
3
 72
8
 73
4
 74
0
 40
0
 40
0
 40
0
 40
0
 40
1
 40
1
 40
1
 40
1
 10
86.043879
 20
9.258180
 30
0.0
 10
85.608900
 20
9.258180
 30
0.0
 10
85.253008
 20
10.859680
 30
0.0
 10
85.253008
 20
12.817090
 30
0.0
  0
SPLINE
  5
19f
100
AcDbEntity
  8
Layer_1
 62
7
100
AcDbSpline
 70
8
 71
3
 72
8
 73
4
 74
0
 40
0
 40
0
 40
0
 40
0
 40
1
 40
1
 40
1
 40
1
 10
85.253008
 20
12.817090
 30
0.0
 10
85.253008
 20
14.774490
 30
0.0
 10
85.608900
 20
16.376010
 30
0.0
 10
86.043879
 20
16.376010
 30
0.0
  0
SPLINE
  5
1a0
100
AcDbEntity
  8
Layer_1
 62
7
100
AcDbSpline
 70
8
 71
3
 72
8
 73
4
 74
0
 40
0
 40
0
 40
0
 40
0
 40
1
 40
1
 40
1
 40
1
 10
86.043879
 20
16.376010
 30
0.0
 10
86.478859
 20
16.376010
 30
0.0
 10
86.834749
 20
16.020110
 30
0.0
 10
86.834749
 20
15.585130
 30
0.0
  0
SPLINE
  5
1a1
100
AcDbEntity
  8
Layer_1
 62
7
100
AcDbSpline
 70
8
 71
3
 72
8
 73
4
 74
0
 40
0
 40
0
 40
0
 40
0
 40
1
 40
1
 40
1
 40
1
 10
86.834749
 20
15.585130
 30
0.0
 10
86.834749
 20
15.150150
 30
0.0
 10
87.368581
 20
14.794260
 30
0.0
 10
88.021051
 20
14.794260
 30
0.0
  0
SPLINE
  5
1a2
100
AcDbEntity
  8
Layer_1
 62
7
100
AcDbSpline
 70
8
 71
3
 72
8
 73
4
 74
0
 40
0
 40
0
 40
0
 40
0
 40
1
 40
1
 40
1
 40
1
 10
88.021051
 20
14.794260
 30
0.0
 10
90.083986
 20
14.794260
 30
0.0
 10
89.403744
 20
17.878320
 30
0.0
 10
87.219910
 20
18.426420
 30
0.0
  0
SPLINE
  5
1a3
100
AcDbEntity
  8
Layer_1
 62
7
100
AcDbSpline
 70
8
 71
3
 72
8
 73
4
 74
0
 40
0
 40
0
 40
0
 40
0
 40
1
 40
1
 40
1
 40
1
 10
87.219910
 20
18.426420
 30
0.0
 10
84.146831
 20
19.197710
 30
0.0
 10
82.880396
 20
17.570910
 30
0.0
 10
82.880396
 20
12.852060
 30
0.0
  0
SPLINE
  5
1a4
100
AcDbEntity
  8
Layer_1
 62
7
100
AcDbSpline
 70
8
 71
3
 72
8
 73
4
 74
0
 40
0
 40
0
 40
0
 40
0
 40
1
 40
1
 40
1
 40
1
 10
82.880396
 20
12.852060
 30
0.0
 10
82.880396
 20
8.009420
 30
0.0
 10
83.221892
 20
7.524290
 30
0.0
 10
86.410884
 20
7.836680
 30
0.0
  0
SPLINE
  5
1a5
100
AcDbEntity
  8
Layer_1
 62
7
100
AcDbSpline
 70
8
 71
3
 72
8
 73
4
 74
0
 40
0
 40
0
 40
0
 40
0
 40
1
 40
1
 40
1
 40
1
 10
86.410884
 20
7.836680
 30
0.0
 10
88.209522
 20
8.012860
 30
0.0
 10
88.875330
 20
8.518330
 30
0.0
 10
89.064645
 20
9.851330
 30
0.0
  0
LWPOLYLINE
  5
1a6
100
AcDbEntity
  8
Layer_1
 62
7
100
AcDbPolyline
 90
1
 70
1
 10
70.297802
 20
10.246750
 30
0.0
  0
SPLINE
  5
1a7
100
AcDbEntity
  8
Layer_1
 62
7
100
AcDbSpline
 70
8
 71
3
 72
8
 73
4
 74
0
 40
0
 40
0
 40
0
 40
0
 40
1
 40
1
 40
1
 40
1
 10
103.226090
 20
8.665030
 30
0.0
 10
103.034270
 20
9.208750
 30
0.0
 10
102.292840
 20
9.604190
 30
0.0
 10
101.578440
 20
9.543770
 30
0.0
  0
SPLINE
  5
1a8
100
AcDbEntity
  8
Layer_1
 62
7
100
AcDbSpline
 70
8
 71
3
 72
8
 73
4
 74
0
 40
0
 40
0
 40
0
 40
0
 40
1
 40
1
 40
1
 40
1
 10
101.578440
 20
9.543770
 30
0.0
 10
100.864040
 20
9.483370
 30
0.0
 10
100.279530
 20
9.928220
 30
0.0
 10
100.279530
 20
10.532350
 30
0.0
  0
SPLINE
  5
1a9
100
AcDbEntity
  8
Layer_1
 62
7
100
AcDbSpline
 70
8
 71
3
 72
8
 73
4
 74
0
 40
0
 40
0
 40
0
 40
0
 40
1
 40
1
 40
1
 40
1
 10
100.279530
 20
10.532350
 30
0.0
 10
100.279530
 20
11.136490
 30
0.0
 10
100.813380
 20
11.630800
 30
0.0
 10
101.465840
 20
11.630800
 30
0.0
  0
SPLINE
  5
1aa
100
AcDbEntity
  8
Layer_1
 62
7
100
AcDbSpline
 70
8
 71
3
 72
8
 73
4
 74
0
 40
0
 40
0
 40
0
 40
0
 40
1
 40
1
 40
1
 40
1
 10
101.465840
 20
11.630800
 30
0.0
 10
102.118300
 20
11.630800
 30
0.0
 10
102.652150
 20
12.164630
 30
0.0
 10
102.652150
 20
12.817090
 30
0.0
  0
SPLINE
  5
1ab
100
AcDbEntity
  8
Layer_1
 62
7
100
AcDbSpline
 70
8
 71
3
 72
8
 73
4
 74
0
 40
0
 40
0
 40
0
 40
0
 40
1
 40
1
 40
1
 40
1
 10
102.652150
 20
12.817090
 30
0.0
 10
102.652150
 20
13.469560
 30
0.0
 10
102.118300
 20
14.003400
 30
0.0
 10
101.465840
 20
14.003400
 30
0.0
  0
SPLINE
  5
1ac
100
AcDbEntity
  8
Layer_1
 62
7
100
AcDbSpline
 70
8
 71
3
 72
8
 73
4
 74
0
 40
0
 40
0
 40
0
 40
0
 40
1
 40
1
 40
1
 40
1
 10
101.465840
 20
14.003400
 30
0.0
 10
100.813380
 20
14.003400
 30
0.0
 10
100.279530
 20
14.537240
 30
0.0
 10
100.279530
 20
15.189700
 30
0.0
  0
SPLINE
  5
1ad
100
AcDbEntity
  8
Layer_1
 62
7
100
AcDbSpline
 70
8
 71
3
 72
8
 73
4
 74
0
 40
0
 40
0
 40
0
 40
0
 40
1
 40
1
 40
1
 40
1
 10
100.279530
 20
15.189700
 30
0.0
 10
100.279530
 20
15.864580
 30
0.0
 10
100.989860
 20
16.376010
 30
0.0
 10
101.927180
 20
16.376010
 30
0.0
  0
SPLINE
  5
1ae
100
AcDbEntity
  8
Layer_1
 62
7
100
AcDbSpline
 70
8
 71
3
 72
8
 73
4
 74
0
 40
0
 40
0
 40
0
 40
0
 40
1
 40
1
 40
1
 40
1
 10
101.927180
 20
16.376010
 30
0.0
 10
104.548300
 20
16.376010
 30
0.0
 10
103.225870
 20
18.323540
 30
0.0
 10
100.416340
 20
18.601010
 30
0.0
  0
SPLINE
  5
1af
100
AcDbEntity
  8
Layer_1
 62
7
100
AcDbSpline
 70
8
 71
3
 72
8
 73
4
 74
0
 40
0
 40
0
 40
0
 40
0
 40
1
 40
1
 40
1
 40
1
 10
100.416340
 20
18.601010
 30
0.0
 10
97.906922
 20
18.848840
 30
0.0
 10
97.906922
 20
18.848840
 30
0.0
 10
97.906922
 20
13.262640
 30
0.0
  0
SPLINE
  5
1b0
100
AcDbEntity
  8
Layer_1
 62
7
100
AcDbSpline
 70
8
 71
3
 72
8
 73
4
 74
0
 40
0
 40
0
 40
0
 40
0
 40
1
 40
1
 40
1
 40
1
 10
97.906922
 20
13.262640
 30
0.0
 10
97.906922
 20
7.676440
 30
0.0
 10
97.906922
 20
7.676440
 30
0.0
 10
100.740880
 20
7.676440
 30
0.0
  0
SPLINE
  5
1b1
100
AcDbEntity
  8
Layer_1
 62
7
100
AcDbSpline
 70
8
 71
3
 72
8
 73
4
 74
0
 40
0
 40
0
 40
0
 40
0
 40
1
 40
1
 40
1
 40
1
 10
100.740880
 20
7.676440
 30
0.0
 10
102.666780
 20
7.676440
 30
0.0
 10
103.463090
 20
7.993190
 30
0.0
 10
103.226090
 20
8.665030
 30
0.0
  0
LWPOLYLINE
  5
1b2
100
AcDbEntity
  8
Layer_1
 62
7
100
AcDbPolyline
 90
1
 70
1
 10
89.064645
 20
9.851330
 30
0.0
  0
SPLINE
  5
1b3
100
AcDbEntity
  8
Layer_1
 62
7
100
AcDbSpline
 70
8
 71
3
 72
8
 73
4
 74
0
 40
0
 40
0
 40
0
 40
0
 40
1
 40
1
 40
1
 40
1
 10
115.306060
 20
9.700290
 30
0.0
 10
115.306060
 20
10.848130
 30
0.0
 10
115.648380
 20
11.512560
 30
0.0
 10
116.096930
 20
11.235350
 30
0.0
  0
SPLINE
  5
1b4
100
AcDbEntity
  8
Layer_1
 62
7
100
AcDbSpline
 70
8
 71
3
 72
8
 73
4
 74
0
 40
0
 40
0
 40
0
 40
0
 40
1
 40
1
 40
1
 40
1
 10
116.096930
 20
11.235350
 30
0.0
 10
116.531910
 20
10.966520
 30
0.0
 10
116.887800
 20
10.029700
 30
0.0
 10
116.887800
 20
9.153510
 30
0.0
  0
SPLINE
  5
1b5
100
AcDbEntity
  8
Layer_1
 62
7
100
AcDbSpline
 70
8
 71
3
 72
8
 73
4
 74
0
 40
0
 40
0
 40
0
 40
0
 40
1
 40
1
 40
1
 40
1
 10
116.887800
 20
9.153510
 30
0.0
 10
116.887800
 20
8.063390
 30
0.0
 10
117.324750
 20
7.643480
 30
0.0
 10
118.271820
 20
7.823420
 30
0.0
  0
SPLINE
  5
1b6
100
AcDbEntity
  8
Layer_1
 62
7
100
AcDbSpline
 70
8
 71
3
 72
8
 73
4
 74
0
 40
0
 40
0
 40
0
 40
0
 40
1
 40
1
 40
1
 40
1
 10
118.271820
 20
7.823420
 30
0.0
 10
119.317880
 20
8.022170
 30
0.0
 10
119.828260
 20
9.296220
 30
0.0
 10
120.361950
 20
13.040920
 30
0.0
  0
SPLINE
  5
1b7
100
AcDbEntity
  8
Layer_1
 62
7
100
AcDbSpline
 70
8
 71
3
 72
8
 73
4
 74
0
 40
0
 40
0
 40
0
 40
0
 40
1
 40
1
 40
1
 40
1
 10
120.361950
 20
13.040920
 30
0.0
 10
120.750310
 20
15.765920
 30
0.0
 10
120.819930
 20
18.243580
 30
0.0
 10
120.516670
 20
18.546850
 30
0.0
  0
SPLINE
  5
1b8
100
AcDbEntity
  8
Layer_1
 62
7
100
AcDbSpline
 70
8
 71
3
 72
8
 73
4
 74
0
 40
0
 40
0
 40
0
 40
0
 40
1
 40
1
 40
1
 40
1
 10
120.516670
 20
18.546850
 30
0.0
 10
119.691480
 20
19.372040
 30
0.0
 10
118.510490
 20
17.090630
 30
0.0
 10
118.369430
 20
14.398840
 30
0.0
  0
SPLINE
  5
1b9
100
AcDbEntity
  8
Layer_1
 62
7
100
AcDbSpline
 70
8
 71
3
 72
8
 73
4
 74
0
 40
0
 40
0
 40
0
 40
0
 40
1
 40
1
 40
1
 40
1
 10
118.369430
 20
14.398840
 30
0.0
 10
118.263300
 20
12.373580
 30
0.0
 10
118.174670
 20
12.489370
 30
0.0
 10
117.764160
 20
15.189700
 30
0.0
  0
SPLINE
  5
1ba
100
AcDbEntity
  8
Layer_1
 62
7
100
AcDbSpline
 70
8
 71
3
 72
8
 73
4
 74
0
 40
0
 40
0
 40
0
 40
0
 40
1
 40
1
 40
1
 40
1
 10
117.764160
 20
15.189700
 30
0.0
 10
117.449320
 20
17.260680
 30
0.0
 10
116.873550
 20
18.353180
 30
0.0
 10
116.096930
 20
18.353180
 30
0.0
  0
SPLINE
  5
1bb
100
AcDbEntity
  8
Layer_1
 62
7
100
AcDbSpline
 70
8
 71
3
 72
8
 73
4
 74
0
 40
0
 40
0
 40
0
 40
0
 40
1
 40
1
 40
1
 40
1
 10
116.096930
 20
18.353180
 30
0.0
 10
115.315300
 20
18.353180
 30
0.0
 10
114.756840
 20
17.274060
 30
0.0
 10
114.459780
 20
15.189700
 30
0.0
  0
SPLINE
  5
1bc
100
AcDbEntity
  8
Layer_1
 62
7
100
AcDbSpline
 70
8
 71
3
 72
8
 73
4
 74
0
 40
0
 40
0
 40
0
 40
0
 40
1
 40
1
 40
1
 40
1
 10
114.459780
 20
15.189700
 30
0.0
 10
114.008930
 20
12.026220
 30
0.0
 10
114.008930
 20
12.026220
 30
0.0
 10
113.668920
 20
15.128600
 30
0.0
  0
SPLINE
  5
1bd
100
AcDbEntity
  8
Layer_1
 62
7
100
AcDbSpline
 70
8
 71
3
 72
8
 73
4
 74
0
 40
0
 40
0
 40
0
 40
0
 40
1
 40
1
 40
1
 40
1
 10
113.668920
 20
15.128600
 30
0.0
 10
113.481900
 20
16.834900
 30
0.0
 10
112.832770
 20
18.394170
 30
0.0
 10
112.226390
 20
18.593670
 30
0.0
  0
SPLINE
  5
1be
100
AcDbEntity
  8
Layer_1
 62
7
100
AcDbSpline
 70
8
 71
3
 72
8
 73
4
 74
0
 40
0
 40
0
 40
0
 40
0
 40
1
 40
1
 40
1
 40
1
 10
112.226390
 20
18.593670
 30
0.0
 10
111.322790
 20
18.890970
 30
0.0
 10
111.226350
 20
18.050930
 30
0.0
 10
111.691770
 20
13.937080
 30
0.0
  0
SPLINE
  5
1bf
100
AcDbEntity
  8
Layer_1
 62
7
100
AcDbSpline
 70
8
 71
3
 72
8
 73
4
 74
0
 40
0
 40
0
 40
0
 40
0
 40
1
 40
1
 40
1
 40
1
 10
111.691770
 20
13.937080
 30
0.0
 10
112.333370
 20
8.266070
 30
0.0
 10
112.566430
 20
7.676470
 30
0.0
 10
114.166440
 20
7.676470
 30
0.0
  0
SPLINE
  5
1c0
100
AcDbEntity
  8
Layer_1
 62
7
100
AcDbSpline
 70
8
 71
3
 72
8
 73
4
 74
0
 40
0
 40
0
 40
0
 40
0
 40
1
 40
1
 40
1
 40
1
 10
114.166440
 20
7.676470
 30
0.0
 10
114.861800
 20
7.676470
 30
0.0
 10
115.306060
 20
8.465430
 30
0.0
 10
115.306060
 20
9.700330
 30
0.0
  0
LWPOLYLINE
  5
1c1
100
AcDbEntity
  8
Layer_1
 62
7
100
AcDbPolyline
 90
1
 70
1
 10
103.226090
 20
8.665030
 30
0.0
  0
SPLINE
  5
1c2
100
AcDbEntity
  8
Layer_1
 62
7
100
AcDbSpline
 70
8
 71
3
 72
8
 73
4
 74
0
 40
0
 40
0
 40
0
 40
0
 40
1
 40
1
 40
1
 40
1
 10
135.706660
 20
12.492910
 30
0.0
 10
135.974240
 20
17.561340
 30
0.0
 10
134.789130
 20
19.244630
 30
0.0
 10
131.529160
 20
18.426420
 30
0.0
  0
SPLINE
  5
1c3
100
AcDbEntity
  8
Layer_1
 62
7
100
AcDbSpline
 70
8
 71
3
 72
8
 73
4
 74
0
 40
0
 40
0
 40
0
 40
0
 40
1
 40
1
 40
1
 40
1
 10
131.529160
 20
18.426420
 30
0.0
 10
129.691560
 20
17.965220
 30
0.0
 10
129.541720
 20
17.580930
 30
0.0
 10
129.541720
 20
13.329270
 30
0.0
  0
SPLINE
  5
1c4
100
AcDbEntity
  8
Layer_1
 62
7
100
AcDbSpline
 70
8
 71
3
 72
8
 73
4
 74
0
 40
0
 40
0
 40
0
 40
0
 40
1
 40
1
 40
1
 40
1
 10
129.541720
 20
13.329270
 30
0.0
 10
129.541720
 20
10.800180
 30
0.0
 10
129.795850
 20
8.476810
 30
0.0
 10
130.106440
 20
8.166200
 30
0.0
  0
SPLINE
  5
1c5
100
AcDbEntity
  8
Layer_1
 62
7
100
AcDbSpline
 70
8
 71
3
 72
8
 73
4
 74
0
 40
0
 40
0
 40
0
 40
0
 40
1
 40
1
 40
1
 40
1
 10
130.106440
 20
8.166200
 30
0.0
 10
130.417040
 20
7.855600
 30
0.0
 10
131.751640
 20
7.707320
 30
0.0
 10
133.072210
 20
7.836680
 30
0.0
  0
SPLINE
  5
1c6
100
AcDbEntity
  8
Layer_1
 62
7
100
AcDbSpline
 70
8
 71
3
 72
8
 73
4
 74
0
 40
0
 40
0
 40
0
 40
0
 40
1
 40
1
 40
1
 40
1
 10
133.072210
 20
7.836680
 30
0.0
 10
135.399590
 20
8.064660
 30
0.0
 10
135.480400
 20
8.207490
 30
0.0
 10
135.706660
 20
12.492910
 30
0.0
  0
LWPOLYLINE
  5
1c7
100
AcDbEntity
  8
Layer_1
 62
7
100
AcDbPolyline
 90
1
 70
1
 10
115.306060
 20
9.700330
 30
0.0
  0
SPLINE
  5
1c8
100
AcDbEntity
  8
Layer_1
 62
7
100
AcDbSpline
 70
8
 71
3
 72
8
 73
4
 74
0
 40
0
 40
0
 40
0
 40
0
 40
1
 40
1
 40
1
 40
1
 10
131.914320
 20
12.817090
 30
0.0
 10
131.914320
 20
14.774490
 30
0.0
 10
132.270220
 20
16.376010
 30
0.0
 10
132.705200
 20
16.376010
 30
0.0
  0
SPLINE
  5
1c9
100
AcDbEntity
  8
Layer_1
 62
7
100
AcDbSpline
 70
8
 71
3
 72
8
 73
4
 74
0
 40
0
 40
0
 40
0
 40
0
 40
1
 40
1
 40
1
 40
1
 10
132.705200
 20
16.376010
 30
0.0
 10
133.140170
 20
16.376010
 30
0.0
 10
133.496070
 20
14.774490
 30
0.0
 10
133.496070
 20
12.817090
 30
0.0
  0
SPLINE
  5
1ca
100
AcDbEntity
  8
Layer_1
 62
7
100
AcDbSpline
 70
8
 71
3
 72
8
 73
4
 74
0
 40
0
 40
0
 40
0
 40
0
 40
1
 40
1
 40
1
 40
1
 10
133.496070
 20
12.817090
 30
0.0
 10
133.496070
 20
10.859680
 30
0.0
 10
133.140170
 20
9.258180
 30
0.0
 10
132.705200
 20
9.258180
 30
0.0
  0
SPLINE
  5
1cb
100
AcDbEntity
  8
Layer_1
 62
7
100
AcDbSpline
 70
8
 71
3
 72
8
 73
4
 74
0
 40
0
 40
0
 40
0
 40
0
 40
1
 40
1
 40
1
 40
1
 10
132.705200
 20
9.258180
 30
0.0
 10
132.270220
 20
9.258180
 30
0.0
 10
131.914320
 20
10.859680
 30
0.0
 10
131.914320
 20
12.817090
 30
0.0
  0
LWPOLYLINE
  5
1cc
100
AcDbEntity
  8
Layer_1
 62
7
100
AcDbPolyline
 90
1
 70
1
 10
135.706660
 20
12.492910
 30
0.0
  0
SPLINE
  5
1cd
100
AcDbEntity
  8
Layer_1
 62
7
100
AcDbSpline
 70
8
 71
3
 72
8
 73
4
 74
0
 40
0
 40
0
 40
0
 40
0
 40
1
 40
1
 40
1
 40
1
 10
146.150000
 20
9.653610
 30
0.0
 10
146.150000
 20
10.741060
 30
0.0
 10
146.505880
 20
11.630800
 30
0.0
 10
146.940860
 20
11.630800
 30
0.0
  0
SPLINE
  5
1ce
100
AcDbEntity
  8
Layer_1
 62
7
100
AcDbSpline
 70
8
 71
3
 72
8
 73
4
 74
0
 40
0
 40
0
 40
0
 40
0
 40
1
 40
1
 40
1
 40
1
 10
146.940860
 20
11.630800
 30
0.0
 10
147.375840
 20
11.630800
 30
0.0
 10
147.731730
 20
10.741060
 30
0.0
 10
147.731730
 20
9.653610
 30
0.0
  0
SPLINE
  5
1cf
100
AcDbEntity
  8
Layer_1
 62
7
100
AcDbSpline
 70
8
 71
3
 72
8
 73
4
 74
0
 40
0
 40
0
 40
0
 40
0
 40
1
 40
1
 40
1
 40
1
 10
147.731730
 20
9.653610
 30
0.0
 10
147.731730
 20
8.184780
 30
0.0
 10
148.150420
 20
7.676440
 30
0.0
 10
149.360140
 20
7.676440
 30
0.0
  0
SPLINE
  5
1d0
100
AcDbEntity
  8
Layer_1
 62
7
100
AcDbSpline
 70
8
 71
3
 72
8
 73
4
 74
0
 40
0
 40
0
 40
0
 40
0
 40
1
 40
1
 40
1
 40
1
 10
149.360140
 20
7.676440
 30
0.0
 10
150.315850
 20
7.676440
 30
0.0
 10
150.772400
 20
8.026180
 30
0.0
 10
150.465320
 20
8.523050
 30
0.0
  0
SPLINE
  5
1d1
100
AcDbEntity
  8
Layer_1
 62
7
100
AcDbSpline
 70
8
 71
3
 72
8
 73
4
 74
0
 40
0
 40
0
 40
0
 40
0
 40
1
 40
1
 40
1
 40
1
 10
150.465320
 20
8.523050
 30
0.0
 10
150.177540
 20
8.988690
 30
0.0
 10
149.964860
 20
11.276720
 30
0.0
 10
149.992700
 20
13.607580
 30
0.0
  0
SPLINE
  5
1d2
100
AcDbEntity
  8
Layer_1
 62
7
100
AcDbSpline
 70
8
 71
3
 72
8
 73
4
 74
0
 40
0
 40
0
 40
0
 40
0
 40
1
 40
1
 40
1
 40
1
 10
149.992700
 20
13.607580
 30
0.0
 10
150.041200
 20
17.668770
 30
0.0
 10
149.946500
 20
17.866740
 30
0.0
 10
147.720510
 20
18.355650
 30
0.0
  0
SPLINE
  5
1d3
100
AcDbEntity
  8
Layer_1
 62
7
100
AcDbSpline
 70
8
 71
3
 72
8
 73
4
 74
0
 40
0
 40
0
 40
0
 40
0
 40
1
 40
1
 40
1
 40
1
 10
147.720510
 20
18.355650
 30
0.0
 10
146.442970
 20
18.636240
 30
0.0
 10
145.033140
 20
18.640490
 30
0.0
 10
144.587540
 20
18.364650
 30
0.0
  0
SPLINE
  5
1d4
100
AcDbEntity
  8
Layer_1
 62
7
100
AcDbSpline
 70
8
 71
3
 72
8
 73
4
 74
0
 40
0
 40
0
 40
0
 40
0
 40
1
 40
1
 40
1
 40
1
 10
144.587540
 20
18.364650
 30
0.0
 10
144.141960
 20
18.089270
 30
0.0
 10
143.777370
 20
15.571640
 30
0.0
 10
143.777370
 20
12.769970
 30
0.0
  0
SPLINE
  5
1d5
100
AcDbEntity
  8
Layer_1
 62
7
100
AcDbSpline
 70
8
 71
3
 72
8
 73
4
 74
0
 40
0
 40
0
 40
0
 40
0
 40
1
 40
1
 40
1
 40
1
 10
143.777370
 20
12.769970
 30
0.0
 10
143.777370
 20
8.769230
 30
0.0
 10
144.031980
 20
7.675990
 30
0.0
 10
144.963680
 20
7.675990
 30
0.0
  0
SPLINE
  5
1d6
100
AcDbEntity
  8
Layer_1
 62
7
100
AcDbSpline
 70
8
 71
3
 72
8
 73
4
 74
0
 40
0
 40
0
 40
0
 40
0
 40
1
 40
1
 40
1
 40
1
 10
144.963680
 20
7.675990
 30
0.0
 10
145.701830
 20
7.675990
 30
0.0
 10
146.150000
 20
8.422920
 30
0.0
 10
146.150000
 20
9.653170
 30
0.0
  0
LWPOLYLINE
  5
1d7
100
AcDbEntity
  8
Layer_1
 62
7
100
AcDbPolyline
 90
1
 70
1
 10
131.914320
 20
12.817090
 30
0.0
  0
SPLINE
  5
1d8
100
AcDbEntity
  8
Layer_1
 62
7
100
AcDbSpline
 70
8
 71
3
 72
8
 73
4
 74
0
 40
0
 40
0
 40
0
 40
0
 40
1
 40
1
 40
1
 40
1
 10
146.150000
 20
15.189700
 30
0.0
 10
146.150000
 20
15.842170
 30
0.0
 10
146.505880
 20
16.376010
 30
0.0
 10
146.940860
 20
16.376010
 30
0.0
  0
SPLINE
  5
1d9
100
AcDbEntity
  8
Layer_1
 62
7
100
AcDbSpline
 70
8
 71
3
 72
8
 73
4
 74
0
 40
0
 40
0
 40
0
 40
0
 40
1
 40
1
 40
1
 40
1
 10
146.940860
 20
16.376010
 30
0.0
 10
147.375840
 20
16.376010
 30
0.0
 10
147.731730
 20
15.842170
 30
0.0
 10
147.731730
 20
15.189700
 30
0.0
  0
SPLINE
  5
1da
100
AcDbEntity
  8
Layer_1
 62
7
100
AcDbSpline
 70
8
 71
3
 72
8
 73
4
 74
0
 40
0
 40
0
 40
0
 40
0
 40
1
 40
1
 40
1
 40
1
 10
147.731730
 20
15.189700
 30
0.0
 10
147.731730
 20
14.537240
 30
0.0
 10
147.375840
 20
14.003400
 30
0.0
 10
146.940860
 20
14.003400
 30
0.0
  0
SPLINE
  5
1db
100
AcDbEntity
  8
Layer_1
 62
7
100
AcDbSpline
 70
8
 71
3
 72
8
 73
4
 74
0
 40
0
 40
0
 40
0
 40
0
 40
1
 40
1
 40
1
 40
1
 10
146.940860
 20
14.003400
 30
0.0
 10
146.505880
 20
14.003400
 30
0.0
 10
146.150000
 20
14.537240
 30
0.0
 10
146.150000
 20
15.189700
 30
0.0
  0
LWPOLYLINE
  5
1dc
100
AcDbEntity
  8
Layer_1
 62
7
100
AcDbPolyline
 90
2
 70
0
 10
146.150000
 20
9.653170
 30
0.0
 10
146.150000
 20
9.653610
 30
0.0
  0
SPLINE
  5
1dd
100
AcDbEntity
  8
Layer_1
 62
7
100
AcDbSpline
 70
8
 71
3
 72
8
 73
4
 74
0
 40
0
 40
0
 40
0
 40
0
 40
1
 40
1
 40
1
 40
1
 10
161.230040
 20
9.455890
 30
0.0
 10
161.283640
 20
11.235350
 30
0.0
 10
161.283640
 20
11.235350
 30
0.0
 10
162.141760
 20
9.455890
 30
0.0
  0
SPLINE
  5
1de
100
AcDbEntity
  8
Layer_1
 62
7
100
AcDbSpline
 70
8
 71
3
 72
8
 73
4
 74
0
 40
0
 40
0
 40
0
 40
0
 40
1
 40
1
 40
1
 40
1
 10
162.141760
 20
9.455890
 30
0.0
 10
162.613780
 20
8.477200
 30
0.0
 10
163.520940
 20
7.676440
 30
0.0
 10
164.157660
 20
7.676440
 30
0.0
  0
SPLINE
  5
1df
100
AcDbEntity
  8
Layer_1
 62
7
100
AcDbSpline
 70
8
 71
3
 72
8
 73
4
 74
0
 40
0
 40
0
 40
0
 40
0
 40
1
 40
1
 40
1
 40
1
 10
164.157660
 20
7.676440
 30
0.0
 10
165.005890
 20
7.676440
 30
0.0
 10
165.157550
 20
8.152090
 30
0.0
 10
164.725000
 20
9.455890
 30
0.0
  0
SPLINE
  5
1e0
100
AcDbEntity
  8
Layer_1
 62
7
100
AcDbSpline
 70
8
 71
3
 72
8
 73
4
 74
0
 40
0
 40
0
 40
0
 40
0
 40
1
 40
1
 40
1
 40
1
 10
164.725000
 20
9.455890
 30
0.0
 10
163.971860
 20
11.726010
 30
0.0
 10
163.971860
 20
14.699050
 30
0.0
 10
164.725000
 20
16.969160
 30
0.0
  0
SPLINE
  5
1e1
100
AcDbEntity
  8
Layer_1
 62
7
100
AcDbSpline
 70
8
 71
3
 72
8
 73
4
 74
0
 40
0
 40
0
 40
0
 40
0
 40
1
 40
1
 40
1
 40
1
 10
164.725000
 20
16.969160
 30
0.0
 10
165.618280
 20
19.661720
 30
0.0
 10
163.084380
 20
19.280630
 30
0.0
 10
162.095730
 20
16.573720
 30
0.0
  0
SPLINE
  5
1e2
100
AcDbEntity
  8
Layer_1
 62
7
100
AcDbSpline
 70
8
 71
3
 72
8
 73
4
 74
0
 40
0
 40
0
 40
0
 40
0
 40
1
 40
1
 40
1
 40
1
 10
162.095730
 20
16.573720
 30
0.0
 10
161.301390
 20
14.398840
 30
0.0
 10
161.301390
 20
14.398840
 30
0.0
 10
161.238960
 20
16.573720
 30
0.0
  0
SPLINE
  5
1e3
100
AcDbEntity
  8
Layer_1
 62
7
100
AcDbSpline
 70
8
 71
3
 72
8
 73
4
 74
0
 40
0
 40
0
 40
0
 40
0
 40
1
 40
1
 40
1
 40
1
 10
161.238960
 20
16.573720
 30
0.0
 10
161.199460
 20
17.951960
 30
0.0
 10
160.741980
 20
18.748620
 30
0.0
 10
159.990220
 20
18.748620
 30
0.0
  0
SPLINE
  5
1e4
100
AcDbEntity
  8
Layer_1
 62
7
100
AcDbSpline
 70
8
 71
3
 72
8
 73
4
 74
0
 40
0
 40
0
 40
0
 40
0
 40
1
 40
1
 40
1
 40
1
 10
159.990220
 20
18.748620
 30
0.0
 10
159.048690
 20
18.748620
 30
0.0
 10
158.803900
 20
17.606250
 30
0.0
 10
158.803900
 20
13.212520
 30
0.0
  0
SPLINE
  5
1e5
100
AcDbEntity
  8
Layer_1
 62
7
100
AcDbSpline
 70
8
 71
3
 72
8
 73
4
 74
0
 40
0
 40
0
 40
0
 40
0
 40
1
 40
1
 40
1
 40
1
 10
158.803900
 20
13.212520
 30
0.0
 10
158.803900
 20
8.818800
 30
0.0
 10
159.048690
 20
7.676440
 30
0.0
 10
159.990220
 20
7.676440
 30
0.0
  0
SPLINE
  5
1e6
100
AcDbEntity
  8
Layer_1
 62
7
100
AcDbSpline
 70
8
 71
3
 72
8
 73
4
 74
0
 40
0
 40
0
 40
0
 40
0
 40
1
 40
1
 40
1
 40
1
 10
159.990220
 20
7.676440
 30
0.0
 10
160.677360
 20
7.676440
 30
0.0
 10
161.199050
 20
8.425190
 30
0.0
 10
161.230040
 20
9.455890
 30
0.0
  0
LWPOLYLINE
  5
1e7
100
AcDbEntity
  8
Layer_1
 62
7
100
AcDbPolyline
 90
1
 70
1
 10
146.150000
 20
15.189700
 30
0.0
  0
SPLINE
  5
1e8
100
AcDbEntity
  8
Layer_1
 62
7
100
AcDbSpline
 70
8
 71
3
 72
8
 73
4
 74
0
 40
0
 40
0
 40
0
 40
0
 40
1
 40
1
 40
1
 40
1
 10
160.865700
 20
23.953960
 30
0.0
 10
160.601670
 20
24.642000
 30
0.0
 10
160.385650
 20
25.727830
 30
0.0
 10
160.385650
 20
26.366920
 30
0.0
  0
SPLINE
  5
1e9
100
AcDbEntity
  8
Layer_1
 62
7
100
AcDbSpline
 70
8
 71
3
 72
8
 73
4
 74
0
 40
0
 40
0
 40
0
 40
0
 40
1
 40
1
 40
1
 40
1
 10
160.385650
 20
26.366920
 30
0.0
 10
160.385650
 20
27.006010
 30
0.0
 10
159.140030
 20
28.049350
 30
0.0
 10
157.617610
 20
28.685450
 30
0.0
  0
SPLINE
  5
1ea
100
AcDbEntity
  8
Layer_1
 62
7
100
AcDbSpline
 70
8
 71
3
 72
8
 73
4
 74
0
 40
0
 40
0
 40
0
 40
0
 40
1
 40
1
 40
1
 40
1
 10
157.617610
 20
28.685450
 30
0.0
 10
154.640430
 20
29.929400
 30
0.0
 10
154.470140
 20
30.301630
 30
0.0
 10
155.563120
 20
33.176370
 30
0.0
  0
SPLINE
  5
1eb
100
AcDbEntity
  8
Layer_1
 62
7
100
AcDbSpline
 70
8
 71
3
 72
8
 73
4
 74
0
 40
0
 40
0
 40
0
 40
0
 40
1
 40
1
 40
1
 40
1
 10
155.563120
 20
33.176370
 30
0.0
 10
156.097830
 20
34.582790
 30
0.0
 10
155.823690
 20
35.993040
 30
0.0
 10
154.469280
 20
38.803280
 30
0.0
  0
SPLINE
  5
1ec
100
AcDbEntity
  8
Layer_1
 62
7
100
AcDbSpline
 70
8
 71
3
 72
8
 73
4
 74
0
 40
0
 40
0
 40
0
 40
0
 40
1
 40
1
 40
1
 40
1
 10
154.469280
 20
38.803280
 30
0.0
 10
153.475220
 20
40.865830
 30
0.0
 10
152.470480
 20
42.744810
 30
0.0
 10
152.236510
 20
42.978770
 30
0.0
  0
SPLINE
  5
1ed
100
AcDbEntity
  8
Layer_1
 62
7
100
AcDbSpline
 70
8
 71
3
 72
8
 73
4
 74
0
 40
0
 40
0
 40
0
 40
0
 40
1
 40
1
 40
1
 40
1
 10
152.236510
 20
42.978770
 30
0.0
 10
152.002550
 20
43.212730
 30
0.0
 10
146.711540
 20
40.916530
 30
0.0
 10
140.478700
 20
37.876110
 30
0.0
  0
SPLINE
  5
1ee
100
AcDbEntity
  8
Layer_1
 62
7
100
AcDbSpline
 70
8
 71
3
 72
8
 73
4
 74
0
 40
0
 40
0
 40
0
 40
0
 40
1
 40
1
 40
1
 40
1
 10
140.478700
 20
37.876110
 30
0.0
 10
121.951790
 20
28.838530
 30
0.0
 10
108.096610
 20
24.848460
 30
0.0
 10
95.138879
 20
24.818970
 30
0.0
  0
SPLINE
  5
1ef
100
AcDbEntity
  8
Layer_1
 62
7
100
AcDbSpline
 70
8
 71
3
 72
8
 73
4
 74
0
 40
0
 40
0
 40
0
 40
0
 40
1
 40
1
 40
1
 40
1
 10
95.138879
 20
24.818970
 30
0.0
 10
82.933878
 20
24.791170
 30
0.0
 10
75.807363
 20
28.308790
 30
0.0
 10
71.680697
 20
36.397720
 30
0.0
  0
SPLINE
  5
1f0
100
AcDbEntity
  8
Layer_1
 62
7
100
AcDbSpline
 70
8
 71
3
 72
8
 73
4
 74
0
 40
0
 40
0
 40
0
 40
0
 40
1
 40
1
 40
1
 40
1
 10
71.680697
 20
36.397720
 30
0.0
 10
70.662939
 20
38.392700
 30
0.0
 10
69.825729
 20
39.226830
 30
0.0
 10
69.334361
 20
38.735470
 30
0.0
  0
SPLINE
  5
1f1
100
AcDbEntity
  8
Layer_1
 62
7
100
AcDbSpline
 70
8
 71
3
 72
8
 73
4
 74
0
 40
0
 40
0
 40
0
 40
0
 40
1
 40
1
 40
1
 40
1
 10
69.334361
 20
38.735470
 30
0.0
 10
68.552572
 20
37.953670
 30
0.0
 10
65.268640
 20
28.787710
 30
0.0
 10
64.369527
 20
24.877860
 30
0.0
  0
SPLINE
  5
1f2
100
AcDbEntity
  8
Layer_1
 62
7
100
AcDbSpline
 70
8
 71
3
 72
8
 73
4
 74
0
 40
0
 40
0
 40
0
 40
0
 40
1
 40
1
 40
1
 40
1
 10
64.369527
 20
24.877860
 30
0.0
 10
63.869384
 20
22.702970
 30
0.0
 10
63.869384
 20
22.702970
 30
0.0
 10
112.607570
 20
22.702970
 30
0.0
  0
SPLINE
  5
1f3
100
AcDbEntity
  8
Layer_1
 62
7
100
AcDbSpline
 70
8
 71
3
 72
8
 73
4
 74
0
 40
0
 40
0
 40
0
 40
0
 40
1
 40
1
 40
1
 40
1
 10
112.607570
 20
22.702970
 30
0.0
 10
156.725490
 20
22.702970
 30
0.0
 10
161.300240
 20
22.821550
 30
0.0
 10
160.865700
 20
23.953960
 30
0.0
  0
LWPOLYLINE
  5
1f4
100
AcDbEntity
  8
Layer_1
 62
7
100
AcDbPolyline
 90
1
 70
1
 10
161.230040
 20
9.455890
 30
0.0
  0
SPLINE
  5
1f5
100
AcDbEntity
  8
Layer_1
 62
7
100
AcDbSpline
 70
8
 71
3
 72
8
 73
4
 74
0
 40
0
 40
0
 40
0
 40
0
 40
1
 40
1
 40
1
 40
1
 10
113.239050
 20
31.511240
 30
0.0
 10
117.539430
 20
32.387040
 30
0.0
 10
123.816210
 20
34.120620
 30
0.0
 10
127.187450
 20
35.363650
 30
0.0
  0
SPLINE
  5
1f6
100
AcDbEntity
  8
Layer_1
 62
7
100
AcDbSpline
 70
8
 71
3
 72
8
 73
4
 74
0
 40
0
 40
0
 40
0
 40
0
 40
1
 40
1
 40
1
 40
1
 10
127.187450
 20
35.363650
 30
0.0
 10
134.266170
 20
37.973650
 30
0.0
 10
146.480430
 20
43.972880
 30
0.0
 10
149.195510
 20
46.173250
 30
0.0
  0
SPLINE
  5
1f7
100
AcDbEntity
  8
Layer_1
 62
7
100
AcDbSpline
 70
8
 71
3
 72
8
 73
4
 74
0
 40
0
 40
0
 40
0
 40
0
 40
1
 40
1
 40
1
 40
1
 10
149.195510
 20
46.173250
 30
0.0
 10
151.011080
 20
47.644640
 30
0.0
 10
151.027370
 20
47.772070
 30
0.0
 10
149.889500
 20
51.602030
 30
0.0
  0
SPLINE
  5
1f8
100
AcDbEntity
  8
Layer_1
 62
7
100
AcDbSpline
 70
8
 71
3
 72
8
 73
4
 74
0
 40
0
 40
0
 40
0
 40
0
 40
1
 40
1
 40
1
 40
1
 10
149.889500
 20
51.602030
 30
0.0
 10
149.248640
 20
53.759140
 30
0.0
 10
147.437870
 20
58.047810
 30
0.0
 10
145.865570
 20
61.132370
 30
0.0
  0
SPLINE
  5
1f9
100
AcDbEntity
  8
Layer_1
 62
7
100
AcDbSpline
 70
8
 71
3
 72
8
 73
4
 74
0
 40
0
 40
0
 40
0
 40
0
 40
1
 40
1
 40
1
 40
1
 10
145.865570
 20
61.132370
 30
0.0
 10
144.293260
 20
64.216960
 30
0.0
 10
142.530160
 20
68.843550
 30
0.0
 10
141.947550
 20
71.413680
 30
0.0
  0
SPLINE
  5
1fa
100
AcDbEntity
  8
Layer_1
 62
7
100
AcDbSpline
 70
8
 71
3
 72
8
 73
4
 74
0
 40
0
 40
0
 40
0
 40
0
 40
1
 40
1
 40
1
 40
1
 10
141.947550
 20
71.413680
 30
0.0
 10
140.888290
 20
76.086670
 30
0.0
 10
140.888290
 20
76.086670
 30
0.0
 10
133.435550
 20
76.641740
 30
0.0
  0
SPLINE
  5
1fb
100
AcDbEntity
  8
Layer_1
 62
7
100
AcDbSpline
 70
8
 71
3
 72
8
 73
4
 74
0
 40
0
 40
0
 40
0
 40
0
 40
1
 40
1
 40
1
 40
1
 10
133.435550
 20
76.641740
 30
0.0
 10
129.336530
 20
76.947030
 30
0.0
 10
123.135680
 20
77.955760
 30
0.0
 10
119.655850
 20
78.883360
 30
0.0
  0
SPLINE
  5
1fc
100
AcDbEntity
  8
Layer_1
 62
7
100
AcDbSpline
 70
8
 71
3
 72
8
 73
4
 74
0
 40
0
 40
0
 40
0
 40
0
 40
1
 40
1
 40
1
 40
1
 10
119.655850
 20
78.883360
 30
0.0
 10
107.970390
 20
81.998270
 30
0.0
 10
102.666230
 20
82.879790
 30
0.0
 10
97.305269
 20
82.597890
 30
0.0
  0
SPLINE
  5
1fd
100
AcDbEntity
  8
Layer_1
 62
7
100
AcDbSpline
 70
8
 71
3
 72
8
 73
4
 74
0
 40
0
 40
0
 40
0
 40
0
 40
1
 40
1
 40
1
 40
1
 10
97.305269
 20
82.597890
 30
0.0
 10
91.975405
 20
82.317630
 30
0.0
 10
91.975405
 20
82.317630
 30
0.0
 10
86.251664
 20
72.875190
 30
0.0
  0
SPLINE
  5
1fe
100
AcDbEntity
  8
Layer_1
 62
7
100
AcDbSpline
 70
8
 71
3
 72
8
 73
4
 74
0
 40
0
 40
0
 40
0
 40
0
 40
1
 40
1
 40
1
 40
1
 10
86.251664
 20
72.875190
 30
0.0
 10
77.280728
 20
58.075870
 30
0.0
 10
72.599084
 20
48.443050
 30
0.0
 10
72.599084
 20
44.783990
 30
0.0
  0
SPLINE
  5
1ff
100
AcDbEntity
  8
Layer_1
 62
7
100
AcDbSpline
 70
8
 71
3
 72
8
 73
4
 74
0
 40
0
 40
0
 40
0
 40
0
 40
1
 40
1
 40
1
 40
1
 10
72.599084
 20
44.783990
 30
0.0
 10
72.599084
 20
31.364190
 30
0.0
 10
87.930733
 20
26.356970
 30
0.0
 10
113.239050
 20
31.511240
 30
0.0
  0
LWPOLYLINE
  5
200
100
AcDbEntity
  8
Layer_1
 62
7
100
AcDbPolyline
 90
1
 70
1
 10
160.865700
 20
23.953960
 30
0.0
  0
SPLINE
  5
201
100
AcDbEntity
  8
Layer_1
 62
7
100
AcDbSpline
 70
8
 71
3
 72
8
 73
4
 74
0
 40
0
 40
0
 40
0
 40
0
 40
1
 40
1
 40
1
 40
1
 10
140.613890
 20
87.538940
 30
0.0
 10
147.474880
 20
92.027890
 30
0.0
 10
147.615830
 20
92.168360
 30
0.0
 10
147.160610
 20
94.063150
 30
0.0
  0
SPLINE
  5
202
100
AcDbEntity
  8
Layer_1
 62
7
100
AcDbSpline
 70
8
 71
3
 72
8
 73
4
 74
0
 40
0
 40
0
 40
0
 40
0
 40
1
 40
1
 40
1
 40
1
 10
147.160610
 20
94.063150
 30
0.0
 10
146.463170
 20
96.966160
 30
0.0
 10
142.164320
 20
100.999068
 30
0.0
 10
139.767310
 20
100.999068
 30
0.0
  0
SPLINE
  5
203
100
AcDbEntity
  8
Layer_1
 62
7
100
AcDbSpline
 70
8
 71
3
 72
8
 73
4
 74
0
 40
0
 40
0
 40
0
 40
0
 40
1
 40
1
 40
1
 40
1
 10
139.767310
 20
100.999068
 30
0.0
 10
138.602400
 20
100.999068
 30
0.0
 10
136.092010
 20
101.549368
 30
0.0
 10
134.188660
 20
102.221949
 30
0.0
  0
SPLINE
  5
204
100
AcDbEntity
  8
Layer_1
 62
7
100
AcDbSpline
 70
8
 71
3
 72
8
 73
4
 74
0
 40
0
 40
0
 40
0
 40
0
 40
1
 40
1
 40
1
 40
1
 10
134.188660
 20
102.221949
 30
0.0
 10
130.187660
 20
103.635781
 30
0.0
 10
122.114590
 20
104.563673
 30
0.0
 10
113.978390
 20
104.544848
 30
0.0
  0
SPLINE
  5
205
100
AcDbEntity
  8
Layer_1
 62
7
100
AcDbSpline
 70
8
 71
3
 72
8
 73
4
 74
0
 40
0
 40
0
 40
0
 40
0
 40
1
 40
1
 40
1
 40
1
 10
113.978390
 20
104.544848
 30
0.0
 10
109.485390
 20
104.534488
 30
0.0
 10
108.474370
 20
104.740702
 30
0.0
 10
109.132290
 20
105.533433
 30
0.0
  0
SPLINE
  5
206
100
AcDbEntity
  8
Layer_1
 62
7
100
AcDbSpline
 70
8
 71
3
 72
8
 73
4
 74
0
 40
0
 40
0
 40
0
 40
0
 40
1
 40
1
 40
1
 40
1
 10
109.132290
 20
105.533433
 30
0.0
 10
109.741330
 20
106.267273
 30
0.0
 10
109.641400
 20
106.535157
 30
0.0
 10
108.758620
 20
106.535157
 30
0.0
  0
SPLINE
  5
207
100
AcDbEntity
  8
Layer_1
 62
7
100
AcDbSpline
 70
8
 71
3
 72
8
 73
4
 74
0
 40
0
 40
0
 40
0
 40
0
 40
1
 40
1
 40
1
 40
1
 10
108.758620
 20
106.535157
 30
0.0
 10
107.736020
 20
106.535157
 30
0.0
 10
97.066260
 20
91.196590
 30
0.0
 10
95.808053
 20
87.917750
 30
0.0
  0
SPLINE
  5
208
100
AcDbEntity
  8
Layer_1
 62
7
100
AcDbSpline
 70
8
 71
3
 72
8
 73
4
 74
0
 40
0
 40
0
 40
0
 40
0
 40
1
 40
1
 40
1
 40
1
 10
95.808053
 20
87.917750
 30
0.0
 10
95.141947
 20
86.181920
 30
0.0
 10
98.817945
 20
85.725070
 30
0.0
 10
106.369180
 20
86.605240
 30
0.0
  0
SPLINE
  5
209
100
AcDbEntity
  8
Layer_1
 62
7
100
AcDbSpline
 70
8
 71
3
 72
8
 73
4
 74
0
 40
0
 40
0
 40
0
 40
0
 40
1
 40
1
 40
1
 40
1
 10
106.369180
 20
86.605240
 30
0.0
 10
111.674760
 20
87.223650
 30
0.0
 10
113.899450
 20
87.173540
 30
0.0
 10
116.060300
 20
86.386980
 30
0.0
  0
SPLINE
  5
20a
100
AcDbEntity
  8
Layer_1
 62
7
100
AcDbSpline
 70
8
 71
3
 72
8
 73
4
 74
0
 40
0
 40
0
 40
0
 40
0
 40
1
 40
1
 40
1
 40
1
 10
116.060300
 20
86.386980
 30
0.0
 10
117.679970
 20
85.797400
 30
0.0
 10
122.707710
 20
85.333180
 30
0.0
 10
127.959980
 20
85.288250
 30
0.0
  0
SPLINE
  5
20b
100
AcDbEntity
  8
Layer_1
 62
7
100
AcDbSpline
 70
8
 71
3
 72
8
 73
4
 74
0
 40
0
 40
0
 40
0
 40
0
 40
1
 40
1
 40
1
 40
1
 10
127.959980
 20
85.288250
 30
0.0
 10
136.755320
 20
85.213050
 30
0.0
 10
137.172250
 20
85.287460
 30
0.0
 10
140.613890
 20
87.538940
 30
0.0
  0
LWPOLYLINE
  5
20c
100
AcDbEntity
  8
Layer_1
 62
7
100
AcDbPolyline
 90
1
 70
1
 10
113.239050
 20
31.511240
 30
0.0
  0
SPLINE
  5
20d
100
AcDbEntity
  8
Layer_1
 62
7
100
AcDbSpline
 70
8
 71
3
 72
8
 73
4
 74
0
 40
0
 40
0
 40
0
 40
0
 40
1
 40
1
 40
1
 40
1
 10
54.078071
 20
71.458730
 30
0.0
 10
53.802341
 20
72.177300
 30
0.0
 10
53.095487
 20
72.496400
 30
0.0
 10
52.384165
 20
72.223430
 30
0.0
  0
SPLINE
  5
20e
100
AcDbEntity
  8
Layer_1
 62
7
100
AcDbSpline
 70
8
 71
3
 72
8
 73
4
 74
0
 40
0
 40
0
 40
0
 40
0
 40
1
 40
1
 40
1
 40
1
 10
52.384165
 20
72.223430
 30
0.0
 10
51.618026
 20
71.929440
 30
0.0
 10
51.363730
 20
72.079070
 30
0.0
 10
51.701286
 20
72.625240
 30
0.0
  0
SPLINE
  5
20f
100
AcDbEntity
  8
Layer_1
 62
7
100
AcDbSpline
 70
8
 71
3
 72
8
 73
4
 74
0
 40
0
 40
0
 40
0
 40
0
 40
1
 40
1
 40
1
 40
1
 10
51.701286
 20
72.625240
 30
0.0
 10
51.997087
 20
73.103860
 30
0.0
 10
51.748656
 20
73.806110
 30
0.0
 10
51.149204
 20
74.185810
 30
0.0
  0
SPLINE
  5
210
100
AcDbEntity
  8
Layer_1
 62
7
100
AcDbSpline
 70
8
 71
3
 72
8
 73
4
 74
0
 40
0
 40
0
 40
0
 40
0
 40
1
 40
1
 40
1
 40
1
 10
51.149204
 20
74.185810
 30
0.0
 10
50.228764
 20
74.768800
 30
0.0
 10
50.228064
 20
74.878020
 30
0.0
 10
51.144404
 20
74.888260
 30
0.0
  0
SPLINE
  5
211
100
AcDbEntity
  8
Layer_1
 62
7
100
AcDbSpline
 70
8
 71
3
 72
8
 73
4
 74
0
 40
0
 40
0
 40
0
 40
0
 40
1
 40
1
 40
1
 40
1
 10
51.144404
 20
74.888260
 30
0.0
 10
52.064392
 20
74.898660
 30
0.0
 10
52.064392
 20
75.111300
 30
0.0
 10
51.144404
 20
76.284380
 30
0.0
  0
SPLINE
  5
212
100
AcDbEntity
  8
Layer_1
 62
7
100
AcDbSpline
 70
8
 71
3
 72
8
 73
4
 74
0
 40
0
 40
0
 40
0
 40
0
 40
1
 40
1
 40
1
 40
1
 10
51.144404
 20
76.284380
 30
0.0
 10
50.150706
 20
77.551440
 30
0.0
 10
50.181039
 20
77.572460
 30
0.0
 10
51.503277
 20
76.532960
 30
0.0
  0
SPLINE
  5
213
100
AcDbEntity
  8
Layer_1
 62
7
100
AcDbSpline
 70
8
 71
3
 72
8
 73
4
 74
0
 40
0
 40
0
 40
0
 40
0
 40
1
 40
1
 40
1
 40
1
 10
51.503277
 20
76.532960
 30
0.0
 10
52.758347
 20
75.546260
 30
0.0
 10
53.041711
 20
75.546260
 30
0.0
 10
53.666062
 20
76.532960
 30
0.0
  0
SPLINE
  5
214
100
AcDbEntity
  8
Layer_1
 62
7
100
AcDbSpline
 70
8
 71
3
 72
8
 73
4
 74
0
 40
0
 40
0
 40
0
 40
0
 40
1
 40
1
 40
1
 40
1
 10
53.666062
 20
76.532960
 30
0.0
 10
54.241351
 20
77.442120
 30
0.0
 10
54.386955
 20
77.454530
 30
0.0
 10
54.396651
 20
76.595260
 30
0.0
  0
SPLINE
  5
215
100
AcDbEntity
  8
Layer_1
 62
7
100
AcDbSpline
 70
8
 71
3
 72
8
 73
4
 74
0
 40
0
 40
0
 40
0
 40
0
 40
1
 40
1
 40
1
 40
1
 10
54.396651
 20
76.595260
 30
0.0
 10
54.404351
 20
75.926740
 30
0.0
 10
54.898280
 20
75.709900
 30
0.0
 10
55.706930
 20
76.020210
 30
0.0
  0
SPLINE
  5
216
100
AcDbEntity
  8
Layer_1
 62
7
100
AcDbSpline
 70
8
 71
3
 72
8
 73
4
 74
0
 40
0
 40
0
 40
0
 40
0
 40
1
 40
1
 40
1
 40
1
 10
55.706930
 20
76.020210
 30
0.0
 10
56.836844
 20
76.453800
 30
0.0
 10
56.863274
 20
76.347470
 30
0.0
 10
55.910851
 20
75.199880
 30
0.0
  0
SPLINE
  5
217
100
AcDbEntity
  8
Layer_1
 62
7
100
AcDbSpline
 70
8
 71
3
 72
8
 73
4
 74
0
 40
0
 40
0
 40
0
 40
0
 40
1
 40
1
 40
1
 40
1
 10
55.910851
 20
75.199880
 30
0.0
 10
54.927271
 20
74.014720
 30
0.0
 10
55.015939
 20
73.936720
 30
0.0
 10
56.787580
 20
74.428660
 30
0.0
  0
SPLINE
  5
218
100
AcDbEntity
  8
Layer_1
 62
7
100
AcDbSpline
 70
8
 71
3
 72
8
 73
4
 74
0
 40
0
 40
0
 40
0
 40
0
 40
1
 40
1
 40
1
 40
1
 10
56.787580
 20
74.428660
 30
0.0
 10
58.443500
 20
74.888460
 30
0.0
 10
58.534661
 20
74.835720
 30
0.0
 10
57.357892
 20
74.098700
 30
0.0
  0
SPLINE
  5
219
100
AcDbEntity
  8
Layer_1
 62
7
100
AcDbSpline
 70
8
 71
3
 72
8
 73
4
 74
0
 40
0
 40
0
 40
0
 40
0
 40
1
 40
1
 40
1
 40
1
 10
57.357892
 20
74.098700
 30
0.0
 10
56.587534
 20
73.616210
 30
0.0
 10
56.105315
 20
72.976420
 30
0.0
 10
56.286296
 20
72.676920
 30
0.0
  0
SPLINE
  5
21a
100
AcDbEntity
  8
Layer_1
 62
7
100
AcDbSpline
 70
8
 71
3
 72
8
 73
4
 74
0
 40
0
 40
0
 40
0
 40
0
 40
1
 40
1
 40
1
 40
1
 10
56.286296
 20
72.676920
 30
0.0
 10
56.467276
 20
72.377420
 30
0.0
 10
56.150867
 20
71.703360
 30
0.0
 10
55.583154
 20
71.179010
 30
0.0
  0
SPLINE
  5
21b
100
AcDbEntity
  8
Layer_1
 62
7
100
AcDbSpline
 70
8
 71
3
 72
8
 73
4
 74
0
 40
0
 40
0
 40
0
 40
0
 40
1
 40
1
 40
1
 40
1
 10
55.583154
 20
71.179010
 30
0.0
 10
54.770437
 20
70.428370
 30
0.0
 10
54.450335
 20
70.487860
 30
0.0
 10
54.077757
 20
71.458790
 30
0.0
  0
LWPOLYLINE
  5
21c
100
AcDbEntity
  8
Layer_1
 62
7
100
AcDbPolyline
 90
1
 70
1
 10
140.613890
 20
87.538940
 30
0.0
  0
SPLINE
  5
21d
100
AcDbEntity
  8
Layer_1
 62
7
100
AcDbSpline
 70
8
 71
3
 72
8
 73
4
 74
0
 40
0
 40
0
 40
0
 40
0
 40
1
 40
1
 40
1
 40
1
 10
151.405700
 20
160.743440
 30
0.0
 10
149.963980
 20
164.229198
 30
0.0
 10
149.963980
 20
164.229198
 30
0.0
 10
146.672960
 20
162.589453
 30
0.0
  0
SPLINE
  5
21e
100
AcDbEntity
  8
Layer_1
 62
7
100
AcDbSpline
 70
8
 71
3
 72
8
 73
4
 74
0
 40
0
 40
0
 40
0
 40
0
 40
1
 40
1
 40
1
 40
1
 10
146.672960
 20
162.589453
 30
0.0
 10
143.381950
 20
160.949709
 30
0.0
 10
143.381950
 20
160.949709
 30
0.0
 10
146.150000
 20
163.367911
 30
0.0
  0
SPLINE
  5
21f
100
AcDbEntity
  8
Layer_1
 62
7
100
AcDbSpline
 70
8
 71
3
 72
8
 73
4
 74
0
 40
0
 40
0
 40
0
 40
0
 40
1
 40
1
 40
1
 40
1
 10
146.150000
 20
163.367911
 30
0.0
 10
147.672410
 20
164.697922
 30
0.0
 10
148.541190
 20
165.800576
 30
0.0
 10
148.080600
 20
165.818255
 30
0.0
  0
SPLINE
  5
220
100
AcDbEntity
  8
Layer_1
 62
7
100
AcDbSpline
 70
8
 71
3
 72
8
 73
4
 74
0
 40
0
 40
0
 40
0
 40
0
 40
1
 40
1
 40
1
 40
1
 10
148.080600
 20
165.818255
 30
0.0
 10
147.620020
 20
165.835925
 30
0.0
 10
146.559120
 20
166.350595
 30
0.0
 10
145.723030
 20
166.961949
 30
0.0
  0
SPLINE
  5
221
100
AcDbEntity
  8
Layer_1
 62
7
100
AcDbSpline
 70
8
 71
3
 72
8
 73
4
 74
0
 40
0
 40
0
 40
0
 40
0
 40
1
 40
1
 40
1
 40
1
 10
145.723030
 20
166.961949
 30
0.0
 10
144.314580
 20
167.991840
 30
0.0
 10
144.376090
 20
168.042507
 30
0.0
 10
146.560470
 20
167.651595
 30
0.0
  0
SPLINE
  5
222
100
AcDbEntity
  8
Layer_1
 62
7
100
AcDbSpline
 70
8
 71
3
 72
8
 73
4
 74
0
 40
0
 40
0
 40
0
 40
0
 40
1
 40
1
 40
1
 40
1
 10
146.560470
 20
167.651595
 30
0.0
 10
148.918040
 20
167.229686
 30
0.0
 10
148.918040
 20
167.229686
 30
0.0
 10
146.347700
 20
169.938889
 30
0.0
  0
SPLINE
  5
223
100
AcDbEntity
  8
Layer_1
 62
7
100
AcDbSpline
 70
8
 71
3
 72
8
 73
4
 74
0
 40
0
 40
0
 40
0
 40
0
 40
1
 40
1
 40
1
 40
1
 10
146.347700
 20
169.938889
 30
0.0
 10
142.849810
 20
173.625769
 30
0.0
 10
143.108900
 20
174.421445
 30
0.0
 10
146.844050
 20
171.463163
 30
0.0
  0
SPLINE
  5
224
100
AcDbEntity
  8
Layer_1
 62
7
100
AcDbSpline
 70
8
 71
3
 72
8
 73
4
 74
0
 40
0
 40
0
 40
0
 40
0
 40
1
 40
1
 40
1
 40
1
 10
146.844050
 20
171.463163
 30
0.0
 10
149.910700
 20
169.034319
 30
0.0
 10
149.910700
 20
169.034319
 30
0.0
 10
150.533520
 20
171.594423
 30
0.0
  0
SPLINE
  5
225
100
AcDbEntity
  8
Layer_1
 62
7
100
AcDbSpline
 70
8
 71
3
 72
8
 73
4
 74
0
 40
0
 40
0
 40
0
 40
0
 40
1
 40
1
 40
1
 40
1
 10
150.533520
 20
171.594423
 30
0.0
 10
151.156350
 20
174.154529
 30
0.0
 10
151.156350
 20
174.154529
 30
0.0
 10
151.480580
 20
171.908800
 30
0.0
  0
SPLINE
  5
226
100
AcDbEntity
  8
Layer_1
 62
7
100
AcDbSpline
 70
8
 71
3
 72
8
 73
4
 74
0
 40
0
 40
0
 40
0
 40
0
 40
1
 40
1
 40
1
 40
1
 10
151.480580
 20
171.908800
 30
0.0
 10
151.767720
 20
169.920046
 30
0.0
 10
152.044430
 20
169.723212
 30
0.0
 10
153.898860
 20
170.188644
 30
0.0
  0
SPLINE
  5
227
100
AcDbEntity
  8
Layer_1
 62
7
100
AcDbSpline
 70
8
 71
3
 72
8
 73
4
 74
0
 40
0
 40
0
 40
0
 40
0
 40
1
 40
1
 40
1
 40
1
 10
153.898860
 20
170.188644
 30
0.0
 10
155.992910
 20
170.714218
 30
0.0
 10
155.992910
 20
170.714218
 30
0.0
 10
154.432650
 20
168.971896
 30
0.0
  0
SPLINE
  5
228
100
AcDbEntity
  8
Layer_1
 62
7
100
AcDbSpline
 70
8
 71
3
 72
8
 73
4
 74
0
 40
0
 40
0
 40
0
 40
0
 40
1
 40
1
 40
1
 40
1
 10
154.432650
 20
168.971896
 30
0.0
 10
152.872380
 20
167.229575
 30
0.0
 10
152.872380
 20
167.229575
 30
0.0
 10
155.838140
 20
167.567483
 30
0.0
  0
SPLINE
  5
229
100
AcDbEntity
  8
Layer_1
 62
7
100
AcDbSpline
 70
8
 71
3
 72
8
 73
4
 74
0
 40
0
 40
0
 40
0
 40
0
 40
1
 40
1
 40
1
 40
1
 10
155.838140
 20
167.567483
 30
0.0
 10
157.469310
 20
167.753332
 30
0.0
 10
158.803900
 20
167.803684
 30
0.0
 10
158.803900
 20
167.679377
 30
0.0
  0
SPLINE
  5
22a
100
AcDbEntity
  8
Layer_1
 62
7
100
AcDbSpline
 70
8
 71
3
 72
8
 73
4
 74
0
 40
0
 40
0
 40
0
 40
0
 40
1
 40
1
 40
1
 40
1
 10
158.803900
 20
167.679377
 30
0.0
 10
158.803900
 20
167.555068
 30
0.0
 10
157.506340
 20
166.911203
 30
0.0
 10
155.920420
 20
166.248563
 30
0.0
  0
SPLINE
  5
22b
100
AcDbEntity
  8
Layer_1
 62
7
100
AcDbSpline
 70
8
 71
3
 72
8
 73
4
 74
0
 40
0
 40
0
 40
0
 40
0
 40
1
 40
1
 40
1
 40
1
 10
155.920420
 20
166.248563
 30
0.0
 10
153.049850
 20
165.049163
 30
0.0
 10
153.043640
 20
165.036201
 30
0.0
 10
154.536390
 20
163.354828
 30
0.0
  0
SPLINE
  5
22c
100
AcDbEntity
  8
Layer_1
 62
7
100
AcDbSpline
 70
8
 71
3
 72
8
 73
4
 74
0
 40
0
 40
0
 40
0
 40
0
 40
1
 40
1
 40
1
 40
1
 10
154.536390
 20
163.354828
 30
0.0
 10
156.029300
 20
161.673284
 30
0.0
 10
156.027770
 20
161.670136
 30
0.0
 10
154.188670
 20
162.635915
 30
0.0
  0
SPLINE
  5
22d
100
AcDbEntity
  8
Layer_1
 62
7
100
AcDbSpline
 70
8
 71
3
 72
8
 73
4
 74
0
 40
0
 40
0
 40
0
 40
0
 40
1
 40
1
 40
1
 40
1
 10
154.188670
 20
162.635915
 30
0.0
 10
151.786230
 20
163.897519
 30
0.0
 10
151.488920
 20
163.488535
 30
0.0
 10
152.564820
 20
160.402181
 30
0.0
  0
SPLINE
  5
22e
100
AcDbEntity
  8
Layer_1
 62
7
100
AcDbSpline
 70
8
 71
3
 72
8
 73
4
 74
0
 40
0
 40
0
 40
0
 40
0
 40
1
 40
1
 40
1
 40
1
 10
152.564820
 20
160.402181
 30
0.0
 10
153.913380
 20
156.533723
 30
0.0
 10
153.040580
 20
156.790684
 30
0.0
 10
151.405700
 20
160.743440
 30
0.0
  0
LWPOLYLINE
  5
22f
100
AcDbEntity
  8
Layer_1
 62
7
100
AcDbPolyline
 90
2
 70
0
 10
54.077757
 20
71.458790
 30
0.0
 10
54.078071
 20
71.458730
 30
0.0
  0
LWPOLYLINE
  5
230
100
AcDbEntity
  8
Layer_1
 62
7
100
AcDbPolyline
 90
1
 70
1
 10
151.405700
 20
160.743440
 30
0.0
  0
LWPOLYLINE
  5
231
100
AcDbEntity
  8
Layer_1
 62
7
100
AcDbPolyline
 90
8
 70
1
 10
40.207075
 20
179.913691
 30
0.0
 10
35.022210
 20
179.913691
 30
0.0
 10
34.204001
 20
177.571027
 30
0.0
 10
30.870872
 20
177.571027
 30
0.0
 10
35.633714
 20
190.429838
 30
0.0
 10
39.586959
 20
190.429838
 30
0.0
 10
44.349800
 20
177.571027
 30
0.0
 10
41.016672
 20
177.571027
 30
0.0
  0
LWPOLYLINE
  5
232
100
AcDbEntity
  8
Layer_1
 62
7
100
AcDbPolyline
 90
3
 70
1
 10
35.849033
 20
182.299418
 30
0.0
 10
39.371640
 20
182.299418
 30
0.0
 10
37.614643
 20
187.415382
 30
0.0
  0
LWPOLYLINE
  5
233
100
AcDbEntity
  8
Layer_1
 62
7
100
AcDbPolyline
 90
13
 70
1
 10
46.055122
 20
190.429838
 30
0.0
 10
50.275361
 20
190.429838
 30
0.0
 10
53.203690
 20
183.548264
 30
0.0
 10
56.149246
 20
190.429838
 30
0.0
 10
60.360872
 20
190.429838
 30
0.0
 10
60.360872
 20
177.571027
 30
0.0
 10
57.225836
 20
177.571027
 30
0.0
 10
57.225836
 20
186.976132
 30
0.0
 10
54.263056
 20
180.042881
 30
0.0
 10
52.161549
 20
180.042881
 30
0.0
 10
49.198769
 20
186.976132
 30
0.0
 10
49.198769
 20
177.571027
 30
0.0
 10
46.055122
 20
177.571027
 30
0.0
  0
LWPOLYLINE
  5
234
100
AcDbEntity
  8
Layer_1
 62
7
100
AcDbPolyline
 90
8
 70
1
 10
71.411010
 20
179.913691
 30
0.0
 10
66.226145
 20
179.913691
 30
0.0
 10
65.407936
 20
177.571027
 30
0.0
 10
62.074807
 20
177.571027
 30
0.0
 10
66.837649
 20
190.429838
 30
0.0
 10
70.790893
 20
190.429838
 30
0.0
 10
75.553735
 20
177.571027
 30
0.0
 10
72.220607
 20
177.571027
 30
0.0
  0
LWPOLYLINE
  5
235
100
AcDbEntity
  8
Layer_1
 62
7
100
AcDbPolyline
 90
3
 70
1
 10
67.052968
 20
182.299418
 30
0.0
 10
70.575575
 20
182.299418
 30
0.0
 10
68.818577
 20
187.415382
 30
0.0
  0
LWPOLYLINE
  5
236
100
AcDbEntity
  8
Layer_1
 62
7
100
AcDbPolyline
 90
10
 70
1
 10
77.259056
 20
190.429838
 30
0.0
 10
80.962532
 20
190.429838
 30
0.0
 10
85.639246
 20
181.610399
 30
0.0
 10
85.639246
 20
190.429838
 30
0.0
 10
88.782894
 20
190.429838
 30
0.0
 10
88.782894
 20
177.571027
 30
0.0
 10
85.079418
 20
177.571027
 30
0.0
 10
80.402704
 20
186.390467
 30
0.0
 10
80.402704
 20
177.571027
 30
0.0
 10
77.259056
 20
177.571027
 30
0.0
  0
SPLINE
  5
237
100
AcDbEntity
  8
Layer_1
 62
7
100
AcDbSpline
 70
8
 71
3
 72
8
 73
4
 74
0
 40
0
 40
0
 40
0
 40
0
 40
1
 40
1
 40
1
 40
1
 10
96.525743
 20
180.077333
 30
0.0
 10
97.880813
 20
180.077333
 30
0.0
 10
98.914339
 20
180.413230
 30
0.0
 10
99.626322
 20
181.085022
 30
0.0
  0
SPLINE
  5
238
100
AcDbEntity
  8
Layer_1
 62
7
100
AcDbSpline
 70
8
 71
3
 72
8
 73
4
 74
0
 40
0
 40
0
 40
0
 40
0
 40
1
 40
1
 40
1
 40
1
 10
99.626322
 20
181.085022
 30
0.0
 10
100.344051
 20
181.756816
 30
0.0
 10
100.702916
 20
182.732925
 30
0.0
 10
100.702916
 20
184.013351
 30
0.0
  0
SPLINE
  5
239
100
AcDbEntity
  8
Layer_1
 62
7
100
AcDbSpline
 70
8
 71
3
 72
8
 73
4
 74
0
 40
0
 40
0
 40
0
 40
0
 40
1
 40
1
 40
1
 40
1
 10
100.702916
 20
184.013351
 30
0.0
 10
100.702916
 20
185.288036
 30
0.0
 10
100.346925
 20
186.258404
 30
0.0
 10
99.634942
 20
186.924456
 30
0.0
  0
SPLINE
  5
23a
100
AcDbEntity
  8
Layer_1
 62
7
100
AcDbSpline
 70
8
 71
3
 72
8
 73
4
 74
0
 40
0
 40
0
 40
0
 40
0
 40
1
 40
1
 40
1
 40
1
 10
99.634942
 20
186.924456
 30
0.0
 10
98.922952
 20
187.590507
 30
0.0
 10
97.886552
 20
187.923532
 30
0.0
 10
96.525743
 20
187.923532
 30
0.0
  0
LWPOLYLINE
  5
23b
100
AcDbEntity
  8
Layer_1
 62
7
100
AcDbPolyline
 90
3
 70
0
 10
95.337186
 20
187.923532
 30
0.0
 10
95.337186
 20
180.077333
 30
0.0
 10
96.525743
 20
180.077333
 30
0.0
  0
LWPOLYLINE
  5
23c
100
AcDbEntity
  8
Layer_1
 62
7
100
AcDbPolyline
 90
2
 70
0
 10
96.525743
 20
187.923532
 30
0.0
 10
95.337186
 20
187.923532
 30
0.0
  0
SPLINE
  5
23d
100
AcDbEntity
  8
Layer_1
 62
7
100
AcDbSpline
 70
8
 71
3
 72
8
 73
4
 74
0
 40
0
 40
0
 40
0
 40
0
 40
1
 40
1
 40
1
 40
1
 10
95.518055
 20
190.429838
 30
0.0
 10
97.470275
 20
190.429838
 30
0.0
 10
98.922956
 20
190.289163
 30
0.0
 10
99.876097
 20
190.007815
 30
0.0
  0
SPLINE
  5
23e
100
AcDbEntity
  8
Layer_1
 62
7
100
AcDbSpline
 70
8
 71
3
 72
8
 73
4
 74
0
 40
0
 40
0
 40
0
 40
0
 40
1
 40
1
 40
1
 40
1
 10
99.876097
 20
190.007815
 30
0.0
 10
100.834978
 20
189.732207
 30
0.0
 10
101.656057
 20
189.261377
 30
0.0
 10
102.339336
 20
188.595326
 30
0.0
  0
SPLINE
  5
23f
100
AcDbEntity
  8
Layer_1
 62
7
100
AcDbSpline
 70
8
 71
3
 72
8
 73
4
 74
0
 40
0
 40
0
 40
0
 40
0
 40
1
 40
1
 40
1
 40
1
 10
102.339336
 20
188.595326
 30
0.0
 10
102.942225
 20
188.015402
 30
0.0
 10
103.390088
 20
187.346480
 30
0.0
 10
103.682923
 20
186.588559
 30
0.0
  0
SPLINE
  5
240
100
AcDbEntity
  8
Layer_1
 62
7
100
AcDbSpline
 70
8
 71
3
 72
8
 73
4
 74
0
 40
0
 40
0
 40
0
 40
0
 40
1
 40
1
 40
1
 40
1
 10
103.682923
 20
186.588559
 30
0.0
 10
103.975759
 20
185.830639
 30
0.0
 10
104.122177
 20
184.972236
 30
0.0
 10
104.122177
 20
184.013351
 30
0.0
  0
SPLINE
  5
241
100
AcDbEntity
  8
Layer_1
 62
7
100
AcDbSpline
 70
8
 71
3
 72
8
 73
4
 74
0
 40
0
 40
0
 40
0
 40
0
 40
1
 40
1
 40
1
 40
1
 10
104.122177
 20
184.013351
 30
0.0
 10
104.122177
 20
183.042984
 30
0.0
 10
103.975759
 20
182.175969
 30
0.0
 10
103.682923
 20
181.412306
 30
0.0
  0
SPLINE
  5
242
100
AcDbEntity
  8
Layer_1
 62
7
100
AcDbSpline
 70
8
 71
3
 72
8
 73
4
 74
0
 40
0
 40
0
 40
0
 40
0
 40
1
 40
1
 40
1
 40
1
 10
103.682923
 20
181.412306
 30
0.0
 10
103.390088
 20
180.654386
 30
0.0
 10
102.942225
 20
179.985464
 30
0.0
 10
102.339336
 20
179.405539
 30
0.0
  0
SPLINE
  5
243
100
AcDbEntity
  8
Layer_1
 62
7
100
AcDbSpline
 70
8
 71
3
 72
8
 73
4
 74
0
 40
0
 40
0
 40
0
 40
0
 40
1
 40
1
 40
1
 40
1
 10
102.339336
 20
179.405539
 30
0.0
 10
101.650318
 20
178.739488
 30
0.0
 10
100.823495
 20
178.265788
 30
0.0
 10
99.858868
 20
177.984439
 30
0.0
  0
SPLINE
  5
244
100
AcDbEntity
  8
Layer_1
 62
7
100
AcDbSpline
 70
8
 71
3
 72
8
 73
4
 74
0
 40
0
 40
0
 40
0
 40
0
 40
1
 40
1
 40
1
 40
1
 10
99.858868
 20
177.984439
 30
0.0
 10
98.894240
 20
177.708831
 30
0.0
 10
97.447302
 20
177.571027
 30
0.0
 10
95.518055
 20
177.571027
 30
0.0
  0
LWPOLYLINE
  5
245
100
AcDbEntity
  8
Layer_1
 62
7
100
AcDbPolyline
 90
2
 70
0
 10
92.021282
 20
190.429838
 30
0.0
 10
95.518055
 20
190.429838
 30
0.0
  0
LWPOLYLINE
  5
246
100
AcDbEntity
  8
Layer_1
 62
7
100
AcDbPolyline
 90
3
 70
0
 10
95.518055
 20
177.571027
 30
0.0
 10
92.021282
 20
177.571027
 30
0.0
 10
92.021282
 20
190.429838
 30
0.0
  0
LWPOLYLINE
  5
247
100
AcDbEntity
  8
Layer_1
 62
7
100
AcDbPolyline
 90
8
 70
1
 10
114.466061
 20
179.913691
 30
0.0
 10
109.281200
 20
179.913691
 30
0.0
 10
108.462990
 20
177.571027
 30
0.0
 10
105.129865
 20
177.571027
 30
0.0
 10
109.892702
 20
190.429838
 30
0.0
 10
113.845950
 20
190.429838
 30
0.0
 10
118.608787
 20
177.571027
 30
0.0
 10
115.275662
 20
177.571027
 30
0.0
  0
LWPOLYLINE
  5
248
100
AcDbEntity
  8
Layer_1
 62
7
100
AcDbPolyline
 90
3
 70
1
 10
110.108018
 20
182.299418
 30
0.0
 10
113.630633
 20
182.299418
 30
0.0
 10
111.873630
 20
187.415382
 30
0.0
  0
LWPOLYLINE
  5
249
100
AcDbEntity
  8
Layer_1
 62
7
100
AcDbPolyline
 90
11
 70
1
 10
126.454996
 20
190.429838
 30
0.0
 10
129.770892
 20
190.429838
 30
0.0
 10
129.770892
 20
185.735899
 30
0.0
 10
134.550958
 20
190.429838
 30
0.0
 10
138.400852
 20
190.429838
 30
0.0
 10
132.208292
 20
184.340635
 30
0.0
 10
139.038193
 20
177.571027
 30
0.0
 10
134.886858
 20
177.571027
 30
0.0
 10
129.770892
 20
182.635314
 30
0.0
 10
129.770892
 20
177.571027
 30
0.0
 10
126.454996
 20
177.571027
 30
0.0
  0
LWPOLYLINE
  5
24a
100
AcDbEntity
  8
Layer_1
 62
7
100
AcDbPolyline
 90
8
 70
1
 10
147.926527
 20
179.913691
 30
0.0
 10
142.741665
 20
179.913691
 30
0.0
 10
141.923456
 20
177.571027
 30
0.0
 10
138.590331
 20
177.571027
 30
0.0
 10
143.353168
 20
190.429838
 30
0.0
 10
147.306415
 20
190.429838
 30
0.0
 10
152.069253
 20
177.571027
 30
0.0
 10
148.736127
 20
177.571027
 30
0.0
  0
LWPOLYLINE
  5
24b
100
AcDbEntity
  8
Layer_1
 62
7
100
AcDbPolyline
 90
3
 70
1
 10
143.568484
 20
182.299418
 30
0.0
 10
147.091099
 20
182.299418
 30
0.0
 10
145.334096
 20
187.415382
 30
0.0
  0
LWPOLYLINE
  5
24c
100
AcDbEntity
  8
Layer_1
 62
7
100
AcDbPolyline
 90
8
 70
1
 10
150.872086
 20
190.429838
 30
0.0
 10
162.723209
 20
190.429838
 30
0.0
 10
162.723209
 20
187.923532
 30
0.0
 10
158.459900
 20
187.923532
 30
0.0
 10
158.459900
 20
177.571027
 30
0.0
 10
155.144005
 20
177.571027
 30
0.0
 10
155.144005
 20
187.923532
 30
0.0
 10
150.872086
 20
187.923532
 30
0.0
  0
LWPOLYLINE
  5
24d
100
AcDbEntity
  8
Layer_1
 62
7
100
AcDbPolyline
 90
12
 70
1
 10
164.437133
 20
190.429838
 30
0.0
 10
173.385764
 20
190.429838
 30
0.0
 10
173.385764
 20
187.923532
 30
0.0
 10
167.753040
 20
187.923532
 30
0.0
 10
167.753040
 20
185.529192
 30
0.0
 10
173.049875
 20
185.529192
 30
0.0
 10
173.049875
 20
183.022887
 30
0.0
 10
167.753040
 20
183.022887
 30
0.0
 10
167.753040
 20
180.077333
 30
0.0
 10
173.575253
 20
180.077333
 30
0.0
 10
173.575253
 20
177.571027
 30
0.0
 10
164.437133
 20
177.571027
 30
0.0
  0
ENDSEC
  0
SECTION
  2
OBJECTS
  0
DICTIONARY
  5
C
330
0
100
AcDbDictionary
  3
ACAD_GROUP
350
D
  3
ACAD_MLINESTYLE
350
17
  0
DICTIONARY
  5
D
330
C
100
AcDbDictionary
  0
DICTIONARY
  5
1A
330
C
100
AcDbDictionary
  0
DICTIONARY
  5
17
330
C
100
AcDbDictionary
  3
STANDARD
350
18
  0
DICTIONARY
  5
19
330
C
100
AcDbDictionary
  0
ENDSEC
  0
EOF
