  0
SECTION
  2
HEADER
  9
$ACADVER
  1
AC1014
  9
$HANDSEED
  5
FFFF
  9
$MEASUREMENT
 70
     1
  0
ENDSEC
  0
SECTION
  2
TABLES
  0
TABLE
  2
VPORT
  5
8
330
0
100
AcDbSymbolTable
 70
     4
  0
VPORT
  5
2E
330
8
100
AcDbSymbolTableRecord
100
AcDbViewportTableRecord
  2
*ACTIVE
 70
     0
 10
0.0
 20
0.0
 11
1.0
 21
1.0
 12
210.0
 22
148.5
 13
0.0
 23
0.0
 14
10.0
 24
10.0
 15
10.0
 25
10.0
 16
0.0
 26
0.0
 36
1.0
 17
0.0
 27
0.0
 37
0.0
 40
341.0
 41
1.24
 42
50.0
 43
0.0
 44
0.0
 50
0.0
 51
0.0
 71
     0
 72
   100
 73
     1
 74
     3
 75
     0
 76
     0
 77
     0
 78
     0
  0
ENDTAB
  0
TABLE
  2
LTYPE
  5
5
330
0
100
AcDbSymbolTable
 70
     1
  0
LTYPE
  5
14
330
5
100
AcDbSymbolTableRecord
100
AcDbLinetypeTableRecord
  2
BYBLOCK
 70
     0
  3

 72
    65
 73
     0
 40
0.0
  0
LTYPE
  5
15
330
5
100
AcDbSymbolTableRecord
100
AcDbLinetypeTableRecord
  2
BYLAYER
 70
     0
  3

 72
    65
 73
     0
 40
0.0
  0
LTYPE
  5
16
330
5
100
AcDbSymbolTableRecord
100
AcDbLinetypeTableRecord
  2
CONTINUOUS
 70
     0
  3
Solid line
 72
    65
 73
     0
 40
0.0
  0
ENDTAB
  0
TABLE
  2
LAYER
  5
2
100
AcDbSymbolTable
 70
2
  0
LAYER
  5
50
100
AcDbSymbolTableRecord
100
AcDbLayerTableRecord
  2
0
 70
0
  6
CONTINUOUS
  0
LAYER
  5
51
100
AcDbSymbolTableRecord
100
AcDbLayerTableRecord
  2
Layer_1
 70
0
  6
CONTINUOUS
  0
ENDTAB
  0
TABLE
  2
STYLE
  5
3
330
0
100
AcDbSymbolTable
 70
     1
  0
STYLE
  5
11
330
3
100
AcDbSymbolTableRecord
100
AcDbTextStyleTableRecord
  2
STANDARD
 70
     0
 40
0.0
 41
1.0
 50
0.0
 71
     0
 42
2.5
  3
txt
  4

  0
ENDTAB
  0
TABLE
  2
VIEW
  5
6
330
0
100
AcDbSymbolTable
 70
     0
  0
ENDTAB
  0
TABLE
  2
UCS
  5
7
330
0
100
AcDbSymbolTable
 70
     0
  0
ENDTAB
  0
TABLE
  2
APPID
  5
9
330
0
100
AcDbSymbolTable
 70
     2
  0
APPID
  5
12
330
9
100
AcDbSymbolTableRecord
100
AcDbRegAppTableRecord
  2
ACAD
 70
     0
  0
ENDTAB
  0
TABLE
  2
DIMSTYLE
  5
A
330
0
100
AcDbSymbolTable
 70
     1
  0
DIMSTYLE
105
27
330
A
100
AcDbSymbolTableRecord
100
AcDbDimStyleTableRecord
  2
ISO-25
 70
     0
  3

  4

  5

  6

  7

 40
1.0
 41
2.5
 42
0.625
 43
3.75
 44
1.25
 45
0.0
 46
0.0
 47
0.0
 48
0.0
140
2.5
141
2.5
142
0.0
143
0.03937007874016
144
1.0
145
0.0
146
1.0
147
0.625
 71
     0
 72
     0
 73
     0
 74
     0
 75
     0
 76
     0
 77
     1
 78
     8
170
     0
171
     3
172
     1
173
     0
174
     0
175
     0
176
     0
177
     0
178
     0
270
     2
271
     2
272
     2
273
     2
274
     3
340
11
275
     0
280
     0
281
     0
282
     0
283
     0
284
     8
285
     0
286
     0
287
     3
288
     0
  0
ENDTAB
  0
TABLE
  2
BLOCK_RECORD
  5
1
330
0
100
AcDbSymbolTable
 70
     1
  0
BLOCK_RECORD
  5
1F
330
1
100
AcDbSymbolTableRecord
100
AcDbBlockTableRecord
  2
*MODEL_SPACE
  0
BLOCK_RECORD
  5
1B
330
1
100
AcDbSymbolTableRecord
100
AcDbBlockTableRecord
  2
*PAPER_SPACE
  0
ENDTAB
  0
ENDSEC
  0
SECTION
  2
BLOCKS
  0
BLOCK
  5
20
330
1F
100
AcDbEntity
  8
0
100
AcDbBlockBegin
  2
*MODEL_SPACE
 70
     0
 10
0.0
 20
0.0
 30
0.0
  3
*MODEL_SPACE
  1

  0
ENDBLK
  5
21
330
1F
100
AcDbEntity
  8
0
100
AcDbBlockEnd
  0
BLOCK
  5
1C
330
1B
100
AcDbEntity
 67
     1
  8
0
100
AcDbBlockBegin
  2
*PAPER_SPACE
  1

  0
ENDBLK
  5
1D
330
1B
100
AcDbEntity
 67
     1
  8
0
100
AcDbBlockEnd
  0
ENDSEC
  0
SECTION
  2
ENTITIES
  0
SPLINE
  5
100
100
AcDbEntity
  8
Layer_1
 62
7
100
AcDbSpline
 70
8
 71
3
 72
8
 73
4
 74
0
 40
0
 40
0
 40
0
 40
0
 40
1
 40
1
 40
1
 40
1
 10
14.437309
 20
78.039146
 30
0.0
 10
14.593826
 20
78.039146
 30
0.0
 10
14.729273
 20
77.945359
 30
0.0
 10
14.843650
 20
77.757784
 30
0.0
  0
SPLINE
  5
101
100
AcDbEntity
  8
Layer_1
 62
7
100
AcDbSpline
 70
8
 71
3
 72
8
 73
4
 74
0
 40
0
 40
0
 40
0
 40
0
 40
1
 40
1
 40
1
 40
1
 10
14.843650
 20
77.757784
 30
0.0
 10
14.964047
 20
77.579588
 30
0.0
 10
15.024246
 20
77.368566
 30
0.0
 10
15.024246
 20
77.124719
 30
0.0
  0
SPLINE
  5
102
100
AcDbEntity
  8
Layer_1
 62
7
100
AcDbSpline
 70
8
 71
3
 72
8
 73
4
 74
0
 40
0
 40
0
 40
0
 40
0
 40
1
 40
1
 40
1
 40
1
 10
15.024246
 20
77.124719
 30
0.0
 10
15.024246
 20
71.094187
 30
0.0
 10
15.024246
 20
65.068344
 30
0.0
 10
15.024246
 20
59.047190
 30
0.0
  0
SPLINE
  5
103
100
AcDbEntity
  8
Layer_1
 62
7
100
AcDbSpline
 70
8
 71
3
 72
8
 73
4
 74
0
 40
0
 40
0
 40
0
 40
0
 40
1
 40
1
 40
1
 40
1
 10
15.024246
 20
59.047190
 30
0.0
 10
15.024246
 20
58.747070
 30
0.0
 10
14.964047
 20
58.521980
 30
0.0
 10
14.843650
 20
58.371921
 30
0.0
  0
SPLINE
  5
104
100
AcDbEntity
  8
Layer_1
 62
7
100
AcDbSpline
 70
8
 71
3
 72
8
 73
4
 74
0
 40
0
 40
0
 40
0
 40
0
 40
1
 40
1
 40
1
 40
1
 10
14.843650
 20
58.371921
 30
0.0
 10
14.723253
 20
58.231239
 30
0.0
 10
14.584796
 20
58.160898
 30
0.0
 10
14.428279
 20
58.160898
 30
0.0
  0
SPLINE
  5
105
100
AcDbEntity
  8
Layer_1
 62
7
100
AcDbSpline
 70
8
 71
3
 72
8
 73
4
 74
0
 40
0
 40
0
 40
0
 40
0
 40
1
 40
1
 40
1
 40
1
 10
14.428279
 20
58.160898
 30
0.0
 10
14.277783
 20
58.160898
 30
0.0
 10
14.142336
 20
58.231239
 30
0.0
 10
14.021938
 20
58.371921
 30
0.0
  0
SPLINE
  5
106
100
AcDbEntity
  8
Layer_1
 62
7
100
AcDbSpline
 70
8
 71
3
 72
8
 73
4
 74
0
 40
0
 40
0
 40
0
 40
0
 40
1
 40
1
 40
1
 40
1
 10
14.021938
 20
58.371921
 30
0.0
 10
13.901541
 20
58.521980
 30
0.0
 10
13.841342
 20
58.747070
 30
0.0
 10
13.841342
 20
59.047190
 30
0.0
  0
SPLINE
  5
107
100
AcDbEntity
  8
Layer_1
 62
7
100
AcDbSpline
 70
8
 71
3
 72
8
 73
4
 74
0
 40
0
 40
0
 40
0
 40
0
 40
1
 40
1
 40
1
 40
1
 10
13.841342
 20
59.047190
 30
0.0
 10
13.841342
 20
62.254721
 30
0.0
 10
13.841342
 20
65.466941
 30
0.0
 10
13.841342
 20
68.683850
 30
0.0
  0
SPLINE
  5
108
100
AcDbEntity
  8
Layer_1
 62
7
100
AcDbSpline
 70
8
 71
3
 72
8
 73
4
 74
0
 40
0
 40
0
 40
0
 40
0
 40
1
 40
1
 40
1
 40
1
 10
13.841342
 20
68.683850
 30
0.0
 10
11.951105
 20
68.683850
 30
0.0
 10
10.057857
 20
68.683850
 30
0.0
 10
8.161599
 20
68.683850
 30
0.0
  0
SPLINE
  5
109
100
AcDbEntity
  8
Layer_1
 62
7
100
AcDbSpline
 70
8
 71
3
 72
8
 73
4
 74
0
 40
0
 40
0
 40
0
 40
0
 40
1
 40
1
 40
1
 40
1
 10
8.161599
 20
68.683850
 30
0.0
 10
8.161599
 20
65.466941
 30
0.0
 10
8.161599
 20
62.254721
 30
0.0
 10
8.161599
 20
59.047190
 30
0.0
  0
SPLINE
  5
10a
100
AcDbEntity
  8
Layer_1
 62
7
100
AcDbSpline
 70
8
 71
3
 72
8
 73
4
 74
0
 40
0
 40
0
 40
0
 40
0
 40
1
 40
1
 40
1
 40
1
 10
8.161599
 20
59.047190
 30
0.0
 10
8.161599
 20
58.747070
 30
0.0
 10
8.101401
 20
58.521980
 30
0.0
 10
7.981004
 20
58.371921
 30
0.0
  0
SPLINE
  5
10b
100
AcDbEntity
  8
Layer_1
 62
7
100
AcDbSpline
 70
8
 71
3
 72
8
 73
4
 74
0
 40
0
 40
0
 40
0
 40
0
 40
1
 40
1
 40
1
 40
1
 10
7.981004
 20
58.371921
 30
0.0
 10
7.860606
 20
58.231239
 30
0.0
 10
7.722149
 20
58.160898
 30
0.0
 10
7.565633
 20
58.160898
 30
0.0
  0
SPLINE
  5
10c
100
AcDbEntity
  8
Layer_1
 62
7
100
AcDbSpline
 70
8
 71
3
 72
8
 73
4
 74
0
 40
0
 40
0
 40
0
 40
0
 40
1
 40
1
 40
1
 40
1
 10
7.565633
 20
58.160898
 30
0.0
 10
7.415136
 20
58.160898
 30
0.0
 10
7.279689
 20
58.231239
 30
0.0
 10
7.159292
 20
58.371921
 30
0.0
  0
SPLINE
  5
10d
100
AcDbEntity
  8
Layer_1
 62
7
100
AcDbSpline
 70
8
 71
3
 72
8
 73
4
 74
0
 40
0
 40
0
 40
0
 40
0
 40
1
 40
1
 40
1
 40
1
 10
7.159292
 20
58.371921
 30
0.0
 10
7.044914
 20
58.521980
 30
0.0
 10
6.987726
 20
58.747070
 30
0.0
 10
6.987726
 20
59.047190
 30
0.0
  0
SPLINE
  5
10e
100
AcDbEntity
  8
Layer_1
 62
7
100
AcDbSpline
 70
8
 71
3
 72
8
 73
4
 74
0
 40
0
 40
0
 40
0
 40
0
 40
1
 40
1
 40
1
 40
1
 10
6.987726
 20
59.047190
 30
0.0
 10
6.987726
 20
60.050716
 30
0.0
 10
6.987726
 20
61.054241
 30
0.0
 10
6.987726
 20
62.057766
 30
0.0
  0
SPLINE
  5
10f
100
AcDbEntity
  8
Layer_1
 62
7
100
AcDbSpline
 70
8
 71
3
 72
8
 73
4
 74
0
 40
0
 40
0
 40
0
 40
0
 40
1
 40
1
 40
1
 40
1
 10
6.987726
 20
62.057766
 30
0.0
 10
6.987726
 20
63.061292
 30
0.0
 10
6.987726
 20
64.064818
 30
0.0
 10
6.987726
 20
65.068343
 30
0.0
  0
SPLINE
  5
110
100
AcDbEntity
  8
Layer_1
 62
7
100
AcDbSpline
 70
8
 71
3
 72
8
 73
4
 74
0
 40
0
 40
0
 40
0
 40
0
 40
1
 40
1
 40
1
 40
1
 10
6.987726
 20
65.068343
 30
0.0
 10
6.987726
 20
66.071869
 30
0.0
 10
6.987726
 20
67.075395
 30
0.0
 10
6.987726
 20
68.078921
 30
0.0
  0
SPLINE
  5
111
100
AcDbEntity
  8
Layer_1
 62
7
100
AcDbSpline
 70
8
 71
3
 72
8
 73
4
 74
0
 40
0
 40
0
 40
0
 40
0
 40
1
 40
1
 40
1
 40
1
 10
6.987726
 20
68.078921
 30
0.0
 10
6.987726
 20
69.082446
 30
0.0
 10
6.987726
 20
70.085971
 30
0.0
 10
6.987726
 20
71.089497
 30
0.0
  0
SPLINE
  5
112
100
AcDbEntity
  8
Layer_1
 62
7
100
AcDbSpline
 70
8
 71
3
 72
8
 73
4
 74
0
 40
0
 40
0
 40
0
 40
0
 40
1
 40
1
 40
1
 40
1
 10
6.987726
 20
71.089497
 30
0.0
 10
6.987726
 20
72.102401
 30
0.0
 10
6.987726
 20
73.110616
 30
0.0
 10
6.987726
 20
74.114142
 30
0.0
  0
SPLINE
  5
113
100
AcDbEntity
  8
Layer_1
 62
7
100
AcDbSpline
 70
8
 71
3
 72
8
 73
4
 74
0
 40
0
 40
0
 40
0
 40
0
 40
1
 40
1
 40
1
 40
1
 10
6.987726
 20
74.114142
 30
0.0
 10
6.987726
 20
75.117668
 30
0.0
 10
6.987726
 20
76.121193
 30
0.0
 10
6.987726
 20
77.124719
 30
0.0
  0
SPLINE
  5
114
100
AcDbEntity
  8
Layer_1
 62
7
100
AcDbSpline
 70
8
 71
3
 72
8
 73
4
 74
0
 40
0
 40
0
 40
0
 40
0
 40
1
 40
1
 40
1
 40
1
 10
6.987726
 20
77.124719
 30
0.0
 10
6.987726
 20
77.368566
 30
0.0
 10
7.044914
 20
77.579588
 30
0.0
 10
7.159292
 20
77.757784
 30
0.0
  0
SPLINE
  5
115
100
AcDbEntity
  8
Layer_1
 62
7
100
AcDbSpline
 70
8
 71
3
 72
8
 73
4
 74
0
 40
0
 40
0
 40
0
 40
0
 40
1
 40
1
 40
1
 40
1
 10
7.159292
 20
77.757784
 30
0.0
 10
7.273669
 20
77.945359
 30
0.0
 10
7.412126
 20
78.039146
 30
0.0
 10
7.574663
 20
78.039146
 30
0.0
  0
SPLINE
  5
116
100
AcDbEntity
  8
Layer_1
 62
7
100
AcDbSpline
 70
8
 71
3
 72
8
 73
4
 74
0
 40
0
 40
0
 40
0
 40
0
 40
1
 40
1
 40
1
 40
1
 10
7.574663
 20
78.039146
 30
0.0
 10
9.862211
 20
78.039146
 30
0.0
 10
12.149760
 20
78.039146
 30
0.0
 10
14.437309
 20
78.039146
 30
0.0
  0
LWPOLYLINE
  5
117
100
AcDbEntity
  8
Layer_1
 62
7
100
AcDbPolyline
 90
2
 70
1
 10
14.437309
 20
78.039146
 30
0.0
 10
14.437309
 20
78.039146
 30
0.0
  0
SPLINE
  5
118
100
AcDbEntity
  8
Layer_1
 62
7
100
AcDbSpline
 70
8
 71
3
 72
8
 73
4
 74
0
 40
0
 40
0
 40
0
 40
0
 40
1
 40
1
 40
1
 40
1
 10
8.161599
 20
70.512704
 30
0.0
 10
10.057857
 20
70.512704
 30
0.0
 10
11.951105
 20
70.512704
 30
0.0
 10
13.841342
 20
70.512704
 30
0.0
  0
SPLINE
  5
119
100
AcDbEntity
  8
Layer_1
 62
7
100
AcDbSpline
 70
8
 71
3
 72
8
 73
4
 74
0
 40
0
 40
0
 40
0
 40
0
 40
1
 40
1
 40
1
 40
1
 10
13.841342
 20
70.512704
 30
0.0
 10
13.841342
 20
72.407210
 30
0.0
 10
13.841342
 20
74.306406
 30
0.0
 10
13.841342
 20
76.210291
 30
0.0
  0
SPLINE
  5
11a
100
AcDbEntity
  8
Layer_1
 62
7
100
AcDbSpline
 70
8
 71
3
 72
8
 73
4
 74
0
 40
0
 40
0
 40
0
 40
0
 40
1
 40
1
 40
1
 40
1
 10
13.841342
 20
76.210291
 30
0.0
 10
11.951105
 20
76.210291
 30
0.0
 10
10.057857
 20
76.210291
 30
0.0
 10
8.161599
 20
76.210291
 30
0.0
  0
SPLINE
  5
11b
100
AcDbEntity
  8
Layer_1
 62
7
100
AcDbSpline
 70
8
 71
3
 72
8
 73
4
 74
0
 40
0
 40
0
 40
0
 40
0
 40
1
 40
1
 40
1
 40
1
 10
8.161599
 20
76.210291
 30
0.0
 10
8.161599
 20
74.306406
 30
0.0
 10
8.161599
 20
72.407210
 30
0.0
 10
8.161599
 20
70.512704
 30
0.0
  0
LWPOLYLINE
  5
11c
100
AcDbEntity
  8
Layer_1
 62
7
100
AcDbPolyline
 90
2
 70
1
 10
8.161599
 20
70.512704
 30
0.0
 10
8.161599
 20
70.512704
 30
0.0
  0
SPLINE
  5
11d
100
AcDbEntity
  8
Layer_1
 62
7
100
AcDbSpline
 70
8
 71
3
 72
8
 73
4
 74
0
 40
0
 40
0
 40
0
 40
0
 40
1
 40
1
 40
1
 40
1
 10
24.776428
 20
77.124719
 30
0.0
 10
24.776428
 20
77.415460
 30
0.0
 10
24.836626
 20
77.635861
 30
0.0
 10
24.957023
 20
77.785920
 30
0.0
  0
SPLINE
  5
11e
100
AcDbEntity
  8
Layer_1
 62
7
100
AcDbSpline
 70
8
 71
3
 72
8
 73
4
 74
0
 40
0
 40
0
 40
0
 40
0
 40
1
 40
1
 40
1
 40
1
 10
24.957023
 20
77.785920
 30
0.0
 10
25.077420
 20
77.935980
 30
0.0
 10
25.212868
 20
78.011010
 30
0.0
 10
25.363365
 20
78.011010
 30
0.0
  0
SPLINE
  5
11f
100
AcDbEntity
  8
Layer_1
 62
7
100
AcDbSpline
 70
8
 71
3
 72
8
 73
4
 74
0
 40
0
 40
0
 40
0
 40
0
 40
1
 40
1
 40
1
 40
1
 10
25.363365
 20
78.011010
 30
0.0
 10
25.519881
 20
78.011010
 30
0.0
 10
25.655328
 20
77.935980
 30
0.0
 10
25.769705
 20
77.785920
 30
0.0
  0
SPLINE
  5
120
100
AcDbEntity
  8
Layer_1
 62
7
100
AcDbSpline
 70
8
 71
3
 72
8
 73
4
 74
0
 40
0
 40
0
 40
0
 40
0
 40
1
 40
1
 40
1
 40
1
 10
25.769705
 20
77.785920
 30
0.0
 10
25.890103
 20
77.635861
 30
0.0
 10
25.950302
 20
77.415460
 30
0.0
 10
25.950302
 20
77.124719
 30
0.0
  0
SPLINE
  5
121
100
AcDbEntity
  8
Layer_1
 62
7
100
AcDbSpline
 70
8
 71
3
 72
8
 73
4
 74
0
 40
0
 40
0
 40
0
 40
0
 40
1
 40
1
 40
1
 40
1
 10
25.950302
 20
77.124719
 30
0.0
 10
25.950302
 20
71.094187
 30
0.0
 10
25.950302
 20
65.068344
 30
0.0
 10
25.950302
 20
59.047190
 30
0.0
  0
SPLINE
  5
122
100
AcDbEntity
  8
Layer_1
 62
7
100
AcDbSpline
 70
8
 71
3
 72
8
 73
4
 74
0
 40
0
 40
0
 40
0
 40
0
 40
1
 40
1
 40
1
 40
1
 10
25.950302
 20
59.047190
 30
0.0
 10
25.950302
 20
58.793964
 30
0.0
 10
25.893113
 20
58.578252
 30
0.0
 10
25.778736
 20
58.400056
 30
0.0
  0
SPLINE
  5
123
100
AcDbEntity
  8
Layer_1
 62
7
100
AcDbSpline
 70
8
 71
3
 72
8
 73
4
 74
0
 40
0
 40
0
 40
0
 40
0
 40
1
 40
1
 40
1
 40
1
 10
25.778736
 20
58.400056
 30
0.0
 10
25.664357
 20
58.221860
 30
0.0
 10
25.525900
 20
58.132762
 30
0.0
 10
25.363365
 20
58.132762
 30
0.0
  0
SPLINE
  5
124
100
AcDbEntity
  8
Layer_1
 62
7
100
AcDbSpline
 70
8
 71
3
 72
8
 73
4
 74
0
 40
0
 40
0
 40
0
 40
0
 40
1
 40
1
 40
1
 40
1
 10
25.363365
 20
58.132762
 30
0.0
 10
24.038994
 20
58.132762
 30
0.0
 10
22.714624
 20
58.132762
 30
0.0
 10
21.390253
 20
58.132762
 30
0.0
  0
SPLINE
  5
125
100
AcDbEntity
  8
Layer_1
 62
7
100
AcDbSpline
 70
8
 71
3
 72
8
 73
4
 74
0
 40
0
 40
0
 40
0
 40
0
 40
1
 40
1
 40
1
 40
1
 10
21.390253
 20
58.132762
 30
0.0
 10
21.233737
 20
58.132762
 30
0.0
 10
21.095280
 20
58.221860
 30
0.0
 10
20.974882
 20
58.400056
 30
0.0
  0
SPLINE
  5
126
100
AcDbEntity
  8
Layer_1
 62
7
100
AcDbSpline
 70
8
 71
3
 72
8
 73
4
 74
0
 40
0
 40
0
 40
0
 40
0
 40
1
 40
1
 40
1
 40
1
 10
20.974882
 20
58.400056
 30
0.0
 10
20.860505
 20
58.587631
 30
0.0
 10
20.803316
 20
58.803342
 30
0.0
 10
20.803316
 20
59.047190
 30
0.0
  0
SPLINE
  5
127
100
AcDbEntity
  8
Layer_1
 62
7
100
AcDbSpline
 70
8
 71
3
 72
8
 73
4
 74
0
 40
0
 40
0
 40
0
 40
0
 40
1
 40
1
 40
1
 40
1
 10
20.803316
 20
59.047190
 30
0.0
 10
20.803316
 20
64.768224
 30
0.0
 10
20.803316
 20
70.489258
 30
0.0
 10
20.803316
 20
76.210291
 30
0.0
  0
SPLINE
  5
128
100
AcDbEntity
  8
Layer_1
 62
7
100
AcDbSpline
 70
8
 71
3
 72
8
 73
4
 74
0
 40
0
 40
0
 40
0
 40
0
 40
1
 40
1
 40
1
 40
1
 10
20.803316
 20
76.210291
 30
0.0
 10
19.870237
 20
76.210291
 30
0.0
 10
18.937158
 20
76.210291
 30
0.0
 10
18.004079
 20
76.210291
 30
0.0
  0
SPLINE
  5
129
100
AcDbEntity
  8
Layer_1
 62
7
100
AcDbSpline
 70
8
 71
3
 72
8
 73
4
 74
0
 40
0
 40
0
 40
0
 40
0
 40
1
 40
1
 40
1
 40
1
 10
18.004079
 20
76.210291
 30
0.0
 10
18.004079
 20
70.489258
 30
0.0
 10
18.004079
 20
64.768224
 30
0.0
 10
18.004079
 20
59.047190
 30
0.0
  0
SPLINE
  5
12a
100
AcDbEntity
  8
Layer_1
 62
7
100
AcDbSpline
 70
8
 71
3
 72
8
 73
4
 74
0
 40
0
 40
0
 40
0
 40
0
 40
1
 40
1
 40
1
 40
1
 10
18.004079
 20
59.047190
 30
0.0
 10
18.004079
 20
58.747070
 30
0.0
 10
17.943880
 20
58.521980
 30
0.0
 10
17.823483
 20
58.371921
 30
0.0
  0
SPLINE
  5
12b
100
AcDbEntity
  8
Layer_1
 62
7
100
AcDbSpline
 70
8
 71
3
 72
8
 73
4
 74
0
 40
0
 40
0
 40
0
 40
0
 40
1
 40
1
 40
1
 40
1
 10
17.823483
 20
58.371921
 30
0.0
 10
17.703086
 20
58.231239
 30
0.0
 10
17.564629
 20
58.160898
 30
0.0
 10
17.408112
 20
58.160898
 30
0.0
  0
SPLINE
  5
12c
100
AcDbEntity
  8
Layer_1
 62
7
100
AcDbSpline
 70
8
 71
3
 72
8
 73
4
 74
0
 40
0
 40
0
 40
0
 40
0
 40
1
 40
1
 40
1
 40
1
 10
17.408112
 20
58.160898
 30
0.0
 10
17.257616
 20
58.160898
 30
0.0
 10
17.122169
 20
58.231239
 30
0.0
 10
17.001772
 20
58.371921
 30
0.0
  0
SPLINE
  5
12d
100
AcDbEntity
  8
Layer_1
 62
7
100
AcDbSpline
 70
8
 71
3
 72
8
 73
4
 74
0
 40
0
 40
0
 40
0
 40
0
 40
1
 40
1
 40
1
 40
1
 10
17.001772
 20
58.371921
 30
0.0
 10
16.887395
 20
58.521980
 30
0.0
 10
16.830206
 20
58.747070
 30
0.0
 10
16.830206
 20
59.047190
 30
0.0
  0
SPLINE
  5
12e
100
AcDbEntity
  8
Layer_1
 62
7
100
AcDbSpline
 70
8
 71
3
 72
8
 73
4
 74
0
 40
0
 40
0
 40
0
 40
0
 40
1
 40
1
 40
1
 40
1
 10
16.830206
 20
59.047190
 30
0.0
 10
16.830206
 20
65.068344
 30
0.0
 10
16.830206
 20
71.094187
 30
0.0
 10
16.830206
 20
77.124719
 30
0.0
  0
SPLINE
  5
12f
100
AcDbEntity
  8
Layer_1
 62
7
100
AcDbSpline
 70
8
 71
3
 72
8
 73
4
 74
0
 40
0
 40
0
 40
0
 40
0
 40
1
 40
1
 40
1
 40
1
 10
16.830206
 20
77.124719
 30
0.0
 10
16.830206
 20
77.368566
 30
0.0
 10
16.887395
 20
77.579588
 30
0.0
 10
17.001772
 20
77.757784
 30
0.0
  0
SPLINE
  5
130
100
AcDbEntity
  8
Layer_1
 62
7
100
AcDbSpline
 70
8
 71
3
 72
8
 73
4
 74
0
 40
0
 40
0
 40
0
 40
0
 40
1
 40
1
 40
1
 40
1
 10
17.001772
 20
77.757784
 30
0.0
 10
17.116149
 20
77.945359
 30
0.0
 10
17.254606
 20
78.039146
 30
0.0
 10
17.417142
 20
78.039146
 30
0.0
  0
SPLINE
  5
131
100
AcDbEntity
  8
Layer_1
 62
7
100
AcDbSpline
 70
8
 71
3
 72
8
 73
4
 74
0
 40
0
 40
0
 40
0
 40
0
 40
1
 40
1
 40
1
 40
1
 10
17.417142
 20
78.039146
 30
0.0
 10
18.741512
 20
78.039146
 30
0.0
 10
20.065883
 20
78.039146
 30
0.0
 10
21.390253
 20
78.039146
 30
0.0
  0
SPLINE
  5
132
100
AcDbEntity
  8
Layer_1
 62
7
100
AcDbSpline
 70
8
 71
3
 72
8
 73
4
 74
0
 40
0
 40
0
 40
0
 40
0
 40
1
 40
1
 40
1
 40
1
 10
21.390253
 20
78.039146
 30
0.0
 10
21.546770
 20
78.039146
 30
0.0
 10
21.682217
 20
77.945359
 30
0.0
 10
21.796595
 20
77.757784
 30
0.0
  0
SPLINE
  5
133
100
AcDbEntity
  8
Layer_1
 62
7
100
AcDbSpline
 70
8
 71
3
 72
8
 73
4
 74
0
 40
0
 40
0
 40
0
 40
0
 40
1
 40
1
 40
1
 40
1
 10
21.796595
 20
77.757784
 30
0.0
 10
21.916992
 20
77.579588
 30
0.0
 10
21.977190
 20
77.368566
 30
0.0
 10
21.977190
 20
77.124719
 30
0.0
  0
SPLINE
  5
134
100
AcDbEntity
  8
Layer_1
 62
7
100
AcDbSpline
 70
8
 71
3
 72
8
 73
4
 74
0
 40
0
 40
0
 40
0
 40
0
 40
1
 40
1
 40
1
 40
1
 10
21.977190
 20
77.124719
 30
0.0
 10
21.977190
 20
71.403686
 30
0.0
 10
21.977190
 20
65.682652
 30
0.0
 10
21.977190
 20
59.961618
 30
0.0
  0
SPLINE
  5
135
100
AcDbEntity
  8
Layer_1
 62
7
100
AcDbSpline
 70
8
 71
3
 72
8
 73
4
 74
0
 40
0
 40
0
 40
0
 40
0
 40
1
 40
1
 40
1
 40
1
 10
21.977190
 20
59.961618
 30
0.0
 10
22.910269
 20
59.961618
 30
0.0
 10
23.843349
 20
59.961618
 30
0.0
 10
24.776428
 20
59.961618
 30
0.0
  0
SPLINE
  5
136
100
AcDbEntity
  8
Layer_1
 62
7
100
AcDbSpline
 70
8
 71
3
 72
8
 73
4
 74
0
 40
0
 40
0
 40
0
 40
0
 40
1
 40
1
 40
1
 40
1
 10
24.776428
 20
59.961618
 30
0.0
 10
24.776428
 20
65.682652
 30
0.0
 10
24.776428
 20
71.403686
 30
0.0
 10
24.776428
 20
77.124719
 30
0.0
  0
LWPOLYLINE
  5
137
100
AcDbEntity
  8
Layer_1
 62
7
100
AcDbPolyline
 90
2
 70
1
 10
24.776428
 20
77.124719
 30
0.0
 10
24.776428
 20
77.124719
 30
0.0
  0
SPLINE
  5
138
100
AcDbEntity
  8
Layer_1
 62
7
100
AcDbSpline
 70
8
 71
3
 72
8
 73
4
 74
0
 40
0
 40
0
 40
0
 40
0
 40
1
 40
1
 40
1
 40
1
 10
35.702482
 20
77.124719
 30
0.0
 10
35.702482
 20
77.415460
 30
0.0
 10
35.762681
 20
77.635861
 30
0.0
 10
35.883079
 20
77.785920
 30
0.0
  0
SPLINE
  5
139
100
AcDbEntity
  8
Layer_1
 62
7
100
AcDbSpline
 70
8
 71
3
 72
8
 73
4
 74
0
 40
0
 40
0
 40
0
 40
0
 40
1
 40
1
 40
1
 40
1
 10
35.883079
 20
77.785920
 30
0.0
 10
36.003476
 20
77.935980
 30
0.0
 10
36.138923
 20
78.011010
 30
0.0
 10
36.289419
 20
78.011010
 30
0.0
  0
SPLINE
  5
13a
100
AcDbEntity
  8
Layer_1
 62
7
100
AcDbSpline
 70
8
 71
3
 72
8
 73
4
 74
0
 40
0
 40
0
 40
0
 40
0
 40
1
 40
1
 40
1
 40
1
 10
36.289419
 20
78.011010
 30
0.0
 10
36.445936
 20
78.011010
 30
0.0
 10
36.581383
 20
77.935980
 30
0.0
 10
36.695761
 20
77.785920
 30
0.0
  0
SPLINE
  5
13b
100
AcDbEntity
  8
Layer_1
 62
7
100
AcDbSpline
 70
8
 71
3
 72
8
 73
4
 74
0
 40
0
 40
0
 40
0
 40
0
 40
1
 40
1
 40
1
 40
1
 10
36.695761
 20
77.785920
 30
0.0
 10
36.816158
 20
77.635861
 30
0.0
 10
36.876356
 20
77.415460
 30
0.0
 10
36.876356
 20
77.124719
 30
0.0
  0
SPLINE
  5
13c
100
AcDbEntity
  8
Layer_1
 62
7
100
AcDbSpline
 70
8
 71
3
 72
8
 73
4
 74
0
 40
0
 40
0
 40
0
 40
0
 40
1
 40
1
 40
1
 40
1
 10
36.876356
 20
77.124719
 30
0.0
 10
36.876356
 20
71.094187
 30
0.0
 10
36.876356
 20
65.068344
 30
0.0
 10
36.876356
 20
59.047190
 30
0.0
  0
SPLINE
  5
13d
100
AcDbEntity
  8
Layer_1
 62
7
100
AcDbSpline
 70
8
 71
3
 72
8
 73
4
 74
0
 40
0
 40
0
 40
0
 40
0
 40
1
 40
1
 40
1
 40
1
 10
36.876356
 20
59.047190
 30
0.0
 10
36.876356
 20
58.793964
 30
0.0
 10
36.819168
 20
58.578252
 30
0.0
 10
36.704790
 20
58.400056
 30
0.0
  0
SPLINE
  5
13e
100
AcDbEntity
  8
Layer_1
 62
7
100
AcDbSpline
 70
8
 71
3
 72
8
 73
4
 74
0
 40
0
 40
0
 40
0
 40
0
 40
1
 40
1
 40
1
 40
1
 10
36.704790
 20
58.400056
 30
0.0
 10
36.590413
 20
58.221860
 30
0.0
 10
36.451956
 20
58.132762
 30
0.0
 10
36.289419
 20
58.132762
 30
0.0
  0
SPLINE
  5
13f
100
AcDbEntity
  8
Layer_1
 62
7
100
AcDbSpline
 70
8
 71
3
 72
8
 73
4
 74
0
 40
0
 40
0
 40
0
 40
0
 40
1
 40
1
 40
1
 40
1
 10
36.289419
 20
58.132762
 30
0.0
 10
34.965049
 20
58.132762
 30
0.0
 10
33.640679
 20
58.132762
 30
0.0
 10
32.316309
 20
58.132762
 30
0.0
  0
SPLINE
  5
140
100
AcDbEntity
  8
Layer_1
 62
7
100
AcDbSpline
 70
8
 71
3
 72
8
 73
4
 74
0
 40
0
 40
0
 40
0
 40
0
 40
1
 40
1
 40
1
 40
1
 10
32.316309
 20
58.132762
 30
0.0
 10
32.159792
 20
58.132762
 30
0.0
 10
32.021335
 20
58.221860
 30
0.0
 10
31.900938
 20
58.400056
 30
0.0
  0
SPLINE
  5
141
100
AcDbEntity
  8
Layer_1
 62
7
100
AcDbSpline
 70
8
 71
3
 72
8
 73
4
 74
0
 40
0
 40
0
 40
0
 40
0
 40
1
 40
1
 40
1
 40
1
 10
31.900938
 20
58.400056
 30
0.0
 10
31.786561
 20
58.587631
 30
0.0
 10
31.729372
 20
58.803342
 30
0.0
 10
31.729372
 20
59.047190
 30
0.0
  0
SPLINE
  5
142
100
AcDbEntity
  8
Layer_1
 62
7
100
AcDbSpline
 70
8
 71
3
 72
8
 73
4
 74
0
 40
0
 40
0
 40
0
 40
0
 40
1
 40
1
 40
1
 40
1
 10
31.729372
 20
59.047190
 30
0.0
 10
31.729372
 20
64.768224
 30
0.0
 10
31.729372
 20
70.489258
 30
0.0
 10
31.729372
 20
76.210291
 30
0.0
  0
SPLINE
  5
143
100
AcDbEntity
  8
Layer_1
 62
7
100
AcDbSpline
 70
8
 71
3
 72
8
 73
4
 74
0
 40
0
 40
0
 40
0
 40
0
 40
1
 40
1
 40
1
 40
1
 10
31.729372
 20
76.210291
 30
0.0
 10
30.796293
 20
76.210291
 30
0.0
 10
29.863214
 20
76.210291
 30
0.0
 10
28.930135
 20
76.210291
 30
0.0
  0
SPLINE
  5
144
100
AcDbEntity
  8
Layer_1
 62
7
100
AcDbSpline
 70
8
 71
3
 72
8
 73
4
 74
0
 40
0
 40
0
 40
0
 40
0
 40
1
 40
1
 40
1
 40
1
 10
28.930135
 20
76.210291
 30
0.0
 10
28.930135
 20
70.489258
 30
0.0
 10
28.930135
 20
64.768224
 30
0.0
 10
28.930135
 20
59.047190
 30
0.0
  0
SPLINE
  5
145
100
AcDbEntity
  8
Layer_1
 62
7
100
AcDbSpline
 70
8
 71
3
 72
8
 73
4
 74
0
 40
0
 40
0
 40
0
 40
0
 40
1
 40
1
 40
1
 40
1
 10
28.930135
 20
59.047190
 30
0.0
 10
28.930135
 20
58.747070
 30
0.0
 10
28.869936
 20
58.521980
 30
0.0
 10
28.749539
 20
58.371921
 30
0.0
  0
SPLINE
  5
146
100
AcDbEntity
  8
Layer_1
 62
7
100
AcDbSpline
 70
8
 71
3
 72
8
 73
4
 74
0
 40
0
 40
0
 40
0
 40
0
 40
1
 40
1
 40
1
 40
1
 10
28.749539
 20
58.371921
 30
0.0
 10
28.629141
 20
58.231239
 30
0.0
 10
28.490684
 20
58.160898
 30
0.0
 10
28.334168
 20
58.160898
 30
0.0
  0
SPLINE
  5
147
100
AcDbEntity
  8
Layer_1
 62
7
100
AcDbSpline
 70
8
 71
3
 72
8
 73
4
 74
0
 40
0
 40
0
 40
0
 40
0
 40
1
 40
1
 40
1
 40
1
 10
28.334168
 20
58.160898
 30
0.0
 10
28.183671
 20
58.160898
 30
0.0
 10
28.048224
 20
58.231239
 30
0.0
 10
27.927827
 20
58.371921
 30
0.0
  0
SPLINE
  5
148
100
AcDbEntity
  8
Layer_1
 62
7
100
AcDbSpline
 70
8
 71
3
 72
8
 73
4
 74
0
 40
0
 40
0
 40
0
 40
0
 40
1
 40
1
 40
1
 40
1
 10
27.927827
 20
58.371921
 30
0.0
 10
27.813449
 20
58.521980
 30
0.0
 10
27.756261
 20
58.747070
 30
0.0
 10
27.756261
 20
59.047190
 30
0.0
  0
SPLINE
  5
149
100
AcDbEntity
  8
Layer_1
 62
7
100
AcDbSpline
 70
8
 71
3
 72
8
 73
4
 74
0
 40
0
 40
0
 40
0
 40
0
 40
1
 40
1
 40
1
 40
1
 10
27.756261
 20
59.047190
 30
0.0
 10
27.756261
 20
65.068344
 30
0.0
 10
27.756261
 20
71.094187
 30
0.0
 10
27.756261
 20
77.124719
 30
0.0
  0
SPLINE
  5
14a
100
AcDbEntity
  8
Layer_1
 62
7
100
AcDbSpline
 70
8
 71
3
 72
8
 73
4
 74
0
 40
0
 40
0
 40
0
 40
0
 40
1
 40
1
 40
1
 40
1
 10
27.756261
 20
77.124719
 30
0.0
 10
27.756261
 20
77.368566
 30
0.0
 10
27.813449
 20
77.579588
 30
0.0
 10
27.927827
 20
77.757784
 30
0.0
  0
SPLINE
  5
14b
100
AcDbEntity
  8
Layer_1
 62
7
100
AcDbSpline
 70
8
 71
3
 72
8
 73
4
 74
0
 40
0
 40
0
 40
0
 40
0
 40
1
 40
1
 40
1
 40
1
 10
27.927827
 20
77.757784
 30
0.0
 10
28.042204
 20
77.945359
 30
0.0
 10
28.180661
 20
78.039146
 30
0.0
 10
28.343198
 20
78.039146
 30
0.0
  0
SPLINE
  5
14c
100
AcDbEntity
  8
Layer_1
 62
7
100
AcDbSpline
 70
8
 71
3
 72
8
 73
4
 74
0
 40
0
 40
0
 40
0
 40
0
 40
1
 40
1
 40
1
 40
1
 10
28.343198
 20
78.039146
 30
0.0
 10
29.667568
 20
78.039146
 30
0.0
 10
30.991939
 20
78.039146
 30
0.0
 10
32.316309
 20
78.039146
 30
0.0
  0
SPLINE
  5
14d
100
AcDbEntity
  8
Layer_1
 62
7
100
AcDbSpline
 70
8
 71
3
 72
8
 73
4
 74
0
 40
0
 40
0
 40
0
 40
0
 40
1
 40
1
 40
1
 40
1
 10
32.316309
 20
78.039146
 30
0.0
 10
32.472825
 20
78.039146
 30
0.0
 10
32.608272
 20
77.945359
 30
0.0
 10
32.722649
 20
77.757784
 30
0.0
  0
SPLINE
  5
14e
100
AcDbEntity
  8
Layer_1
 62
7
100
AcDbSpline
 70
8
 71
3
 72
8
 73
4
 74
0
 40
0
 40
0
 40
0
 40
0
 40
1
 40
1
 40
1
 40
1
 10
32.722649
 20
77.757784
 30
0.0
 10
32.843047
 20
77.579588
 30
0.0
 10
32.903245
 20
77.368566
 30
0.0
 10
32.903245
 20
77.124719
 30
0.0
  0
SPLINE
  5
14f
100
AcDbEntity
  8
Layer_1
 62
7
100
AcDbSpline
 70
8
 71
3
 72
8
 73
4
 74
0
 40
0
 40
0
 40
0
 40
0
 40
1
 40
1
 40
1
 40
1
 10
32.903245
 20
77.124719
 30
0.0
 10
32.903245
 20
71.403686
 30
0.0
 10
32.903245
 20
65.682652
 30
0.0
 10
32.903245
 20
59.961618
 30
0.0
  0
SPLINE
  5
150
100
AcDbEntity
  8
Layer_1
 62
7
100
AcDbSpline
 70
8
 71
3
 72
8
 73
4
 74
0
 40
0
 40
0
 40
0
 40
0
 40
1
 40
1
 40
1
 40
1
 10
32.903245
 20
59.961618
 30
0.0
 10
33.836324
 20
59.961618
 30
0.0
 10
34.769403
 20
59.961618
 30
0.0
 10
35.702482
 20
59.961618
 30
0.0
  0
SPLINE
  5
151
100
AcDbEntity
  8
Layer_1
 62
7
100
AcDbSpline
 70
8
 71
3
 72
8
 73
4
 74
0
 40
0
 40
0
 40
0
 40
0
 40
1
 40
1
 40
1
 40
1
 10
35.702482
 20
59.961618
 30
0.0
 10
35.702482
 20
65.682652
 30
0.0
 10
35.702482
 20
71.403686
 30
0.0
 10
35.702482
 20
77.124719
 30
0.0
  0
LWPOLYLINE
  5
152
100
AcDbEntity
  8
Layer_1
 62
7
100
AcDbPolyline
 90
2
 70
1
 10
35.702482
 20
77.124719
 30
0.0
 10
35.702482
 20
77.124719
 30
0.0
  0
SPLINE
  5
153
100
AcDbEntity
  8
Layer_1
 62
7
100
AcDbSpline
 70
8
 71
3
 72
8
 73
4
 74
0
 40
0
 40
0
 40
0
 40
0
 40
1
 40
1
 40
1
 40
1
 10
46.131899
 20
78.039146
 30
0.0
 10
46.288416
 20
78.039146
 30
0.0
 10
46.423863
 20
77.945359
 30
0.0
 10
46.538240
 20
77.757784
 30
0.0
  0
SPLINE
  5
154
100
AcDbEntity
  8
Layer_1
 62
7
100
AcDbSpline
 70
8
 71
3
 72
8
 73
4
 74
0
 40
0
 40
0
 40
0
 40
0
 40
1
 40
1
 40
1
 40
1
 10
46.538240
 20
77.757784
 30
0.0
 10
46.658638
 20
77.579588
 30
0.0
 10
46.718836
 20
77.368566
 30
0.0
 10
46.718836
 20
77.124719
 30
0.0
  0
SPLINE
  5
155
100
AcDbEntity
  8
Layer_1
 62
7
100
AcDbSpline
 70
8
 71
3
 72
8
 73
4
 74
0
 40
0
 40
0
 40
0
 40
0
 40
1
 40
1
 40
1
 40
1
 10
46.718836
 20
77.124719
 30
0.0
 10
46.718836
 20
71.094187
 30
0.0
 10
46.718836
 20
65.068344
 30
0.0
 10
46.718836
 20
59.047190
 30
0.0
  0
SPLINE
  5
156
100
AcDbEntity
  8
Layer_1
 62
7
100
AcDbSpline
 70
8
 71
3
 72
8
 73
4
 74
0
 40
0
 40
0
 40
0
 40
0
 40
1
 40
1
 40
1
 40
1
 10
46.718836
 20
59.047190
 30
0.0
 10
46.718836
 20
58.747070
 30
0.0
 10
46.658638
 20
58.521980
 30
0.0
 10
46.538240
 20
58.371921
 30
0.0
  0
SPLINE
  5
157
100
AcDbEntity
  8
Layer_1
 62
7
100
AcDbSpline
 70
8
 71
3
 72
8
 73
4
 74
0
 40
0
 40
0
 40
0
 40
0
 40
1
 40
1
 40
1
 40
1
 10
46.538240
 20
58.371921
 30
0.0
 10
46.417843
 20
58.231239
 30
0.0
 10
46.279386
 20
58.160898
 30
0.0
 10
46.122870
 20
58.160898
 30
0.0
  0
SPLINE
  5
158
100
AcDbEntity
  8
Layer_1
 62
7
100
AcDbSpline
 70
8
 71
3
 72
8
 73
4
 74
0
 40
0
 40
0
 40
0
 40
0
 40
1
 40
1
 40
1
 40
1
 10
46.122870
 20
58.160898
 30
0.0
 10
45.972373
 20
58.160898
 30
0.0
 10
45.836926
 20
58.231239
 30
0.0
 10
45.716529
 20
58.371921
 30
0.0
  0
SPLINE
  5
159
100
AcDbEntity
  8
Layer_1
 62
7
100
AcDbSpline
 70
8
 71
3
 72
8
 73
4
 74
0
 40
0
 40
0
 40
0
 40
0
 40
1
 40
1
 40
1
 40
1
 10
45.716529
 20
58.371921
 30
0.0
 10
45.596131
 20
58.521980
 30
0.0
 10
45.535932
 20
58.747070
 30
0.0
 10
45.535932
 20
59.047190
 30
0.0
  0
SPLINE
  5
15a
100
AcDbEntity
  8
Layer_1
 62
7
100
AcDbSpline
 70
8
 71
3
 72
8
 73
4
 74
0
 40
0
 40
0
 40
0
 40
0
 40
1
 40
1
 40
1
 40
1
 10
45.535932
 20
59.047190
 30
0.0
 10
45.535932
 20
62.254721
 30
0.0
 10
45.535932
 20
65.466941
 30
0.0
 10
45.535932
 20
68.683850
 30
0.0
  0
SPLINE
  5
15b
100
AcDbEntity
  8
Layer_1
 62
7
100
AcDbSpline
 70
8
 71
3
 72
8
 73
4
 74
0
 40
0
 40
0
 40
0
 40
0
 40
1
 40
1
 40
1
 40
1
 10
45.535932
 20
68.683850
 30
0.0
 10
43.645695
 20
68.683850
 30
0.0
 10
41.752447
 20
68.683850
 30
0.0
 10
39.856190
 20
68.683850
 30
0.0
  0
SPLINE
  5
15c
100
AcDbEntity
  8
Layer_1
 62
7
100
AcDbSpline
 70
8
 71
3
 72
8
 73
4
 74
0
 40
0
 40
0
 40
0
 40
0
 40
1
 40
1
 40
1
 40
1
 10
39.856190
 20
68.683850
 30
0.0
 10
39.856190
 20
65.466941
 30
0.0
 10
39.856190
 20
62.254721
 30
0.0
 10
39.856190
 20
59.047190
 30
0.0
  0
SPLINE
  5
15d
100
AcDbEntity
  8
Layer_1
 62
7
100
AcDbSpline
 70
8
 71
3
 72
8
 73
4
 74
0
 40
0
 40
0
 40
0
 40
0
 40
1
 40
1
 40
1
 40
1
 10
39.856190
 20
59.047190
 30
0.0
 10
39.856190
 20
58.747070
 30
0.0
 10
39.795991
 20
58.521980
 30
0.0
 10
39.675594
 20
58.371921
 30
0.0
  0
SPLINE
  5
15e
100
AcDbEntity
  8
Layer_1
 62
7
100
AcDbSpline
 70
8
 71
3
 72
8
 73
4
 74
0
 40
0
 40
0
 40
0
 40
0
 40
1
 40
1
 40
1
 40
1
 10
39.675594
 20
58.371921
 30
0.0
 10
39.555197
 20
58.231239
 30
0.0
 10
39.416740
 20
58.160898
 30
0.0
 10
39.260223
 20
58.160898
 30
0.0
  0
SPLINE
  5
15f
100
AcDbEntity
  8
Layer_1
 62
7
100
AcDbSpline
 70
8
 71
3
 72
8
 73
4
 74
0
 40
0
 40
0
 40
0
 40
0
 40
1
 40
1
 40
1
 40
1
 10
39.260223
 20
58.160898
 30
0.0
 10
39.109727
 20
58.160898
 30
0.0
 10
38.974280
 20
58.231239
 30
0.0
 10
38.853883
 20
58.371921
 30
0.0
  0
SPLINE
  5
160
100
AcDbEntity
  8
Layer_1
 62
7
100
AcDbSpline
 70
8
 71
3
 72
8
 73
4
 74
0
 40
0
 40
0
 40
0
 40
0
 40
1
 40
1
 40
1
 40
1
 10
38.853883
 20
58.371921
 30
0.0
 10
38.739505
 20
58.521980
 30
0.0
 10
38.682317
 20
58.747070
 30
0.0
 10
38.682317
 20
59.047190
 30
0.0
  0
SPLINE
  5
161
100
AcDbEntity
  8
Layer_1
 62
7
100
AcDbSpline
 70
8
 71
3
 72
8
 73
4
 74
0
 40
0
 40
0
 40
0
 40
0
 40
1
 40
1
 40
1
 40
1
 10
38.682317
 20
59.047190
 30
0.0
 10
38.682317
 20
60.050716
 30
0.0
 10
38.682317
 20
61.054241
 30
0.0
 10
38.682317
 20
62.057766
 30
0.0
  0
SPLINE
  5
162
100
AcDbEntity
  8
Layer_1
 62
7
100
AcDbSpline
 70
8
 71
3
 72
8
 73
4
 74
0
 40
0
 40
0
 40
0
 40
0
 40
1
 40
1
 40
1
 40
1
 10
38.682317
 20
62.057766
 30
0.0
 10
38.682317
 20
63.061292
 30
0.0
 10
38.682317
 20
64.064818
 30
0.0
 10
38.682317
 20
65.068343
 30
0.0
  0
SPLINE
  5
163
100
AcDbEntity
  8
Layer_1
 62
7
100
AcDbSpline
 70
8
 71
3
 72
8
 73
4
 74
0
 40
0
 40
0
 40
0
 40
0
 40
1
 40
1
 40
1
 40
1
 10
38.682317
 20
65.068343
 30
0.0
 10
38.682317
 20
66.071869
 30
0.0
 10
38.682317
 20
67.075395
 30
0.0
 10
38.682317
 20
68.078921
 30
0.0
  0
SPLINE
  5
164
100
AcDbEntity
  8
Layer_1
 62
7
100
AcDbSpline
 70
8
 71
3
 72
8
 73
4
 74
0
 40
0
 40
0
 40
0
 40
0
 40
1
 40
1
 40
1
 40
1
 10
38.682317
 20
68.078921
 30
0.0
 10
38.682317
 20
69.082446
 30
0.0
 10
38.682317
 20
70.085971
 30
0.0
 10
38.682317
 20
71.089497
 30
0.0
  0
SPLINE
  5
165
100
AcDbEntity
  8
Layer_1
 62
7
100
AcDbSpline
 70
8
 71
3
 72
8
 73
4
 74
0
 40
0
 40
0
 40
0
 40
0
 40
1
 40
1
 40
1
 40
1
 10
38.682317
 20
71.089497
 30
0.0
 10
38.682317
 20
72.102401
 30
0.0
 10
38.682317
 20
73.110616
 30
0.0
 10
38.682317
 20
74.114142
 30
0.0
  0
SPLINE
  5
166
100
AcDbEntity
  8
Layer_1
 62
7
100
AcDbSpline
 70
8
 71
3
 72
8
 73
4
 74
0
 40
0
 40
0
 40
0
 40
0
 40
1
 40
1
 40
1
 40
1
 10
38.682317
 20
74.114142
 30
0.0
 10
38.682317
 20
75.117668
 30
0.0
 10
38.682317
 20
76.121193
 30
0.0
 10
38.682317
 20
77.124719
 30
0.0
  0
SPLINE
  5
167
100
AcDbEntity
  8
Layer_1
 62
7
100
AcDbSpline
 70
8
 71
3
 72
8
 73
4
 74
0
 40
0
 40
0
 40
0
 40
0
 40
1
 40
1
 40
1
 40
1
 10
38.682317
 20
77.124719
 30
0.0
 10
38.682317
 20
77.368566
 30
0.0
 10
38.739505
 20
77.579588
 30
0.0
 10
38.853883
 20
77.757784
 30
0.0
  0
SPLINE
  5
168
100
AcDbEntity
  8
Layer_1
 62
7
100
AcDbSpline
 70
8
 71
3
 72
8
 73
4
 74
0
 40
0
 40
0
 40
0
 40
0
 40
1
 40
1
 40
1
 40
1
 10
38.853883
 20
77.757784
 30
0.0
 10
38.968260
 20
77.945359
 30
0.0
 10
39.106717
 20
78.039146
 30
0.0
 10
39.269254
 20
78.039146
 30
0.0
  0
SPLINE
  5
169
100
AcDbEntity
  8
Layer_1
 62
7
100
AcDbSpline
 70
8
 71
3
 72
8
 73
4
 74
0
 40
0
 40
0
 40
0
 40
0
 40
1
 40
1
 40
1
 40
1
 10
39.269254
 20
78.039146
 30
0.0
 10
41.556802
 20
78.039146
 30
0.0
 10
43.844350
 20
78.039146
 30
0.0
 10
46.131899
 20
78.039146
 30
0.0
  0
LWPOLYLINE
  5
16a
100
AcDbEntity
  8
Layer_1
 62
7
100
AcDbPolyline
 90
2
 70
1
 10
46.131899
 20
78.039146
 30
0.0
 10
46.131899
 20
78.039146
 30
0.0
  0
SPLINE
  5
16b
100
AcDbEntity
  8
Layer_1
 62
7
100
AcDbSpline
 70
8
 71
3
 72
8
 73
4
 74
0
 40
0
 40
0
 40
0
 40
0
 40
1
 40
1
 40
1
 40
1
 10
39.856190
 20
70.512704
 30
0.0
 10
41.752447
 20
70.512704
 30
0.0
 10
43.645695
 20
70.512704
 30
0.0
 10
45.535932
 20
70.512704
 30
0.0
  0
SPLINE
  5
16c
100
AcDbEntity
  8
Layer_1
 62
7
100
AcDbSpline
 70
8
 71
3
 72
8
 73
4
 74
0
 40
0
 40
0
 40
0
 40
0
 40
1
 40
1
 40
1
 40
1
 10
45.535932
 20
70.512704
 30
0.0
 10
45.535932
 20
72.407210
 30
0.0
 10
45.535932
 20
74.306406
 30
0.0
 10
45.535932
 20
76.210291
 30
0.0
  0
SPLINE
  5
16d
100
AcDbEntity
  8
Layer_1
 62
7
100
AcDbSpline
 70
8
 71
3
 72
8
 73
4
 74
0
 40
0
 40
0
 40
0
 40
0
 40
1
 40
1
 40
1
 40
1
 10
45.535932
 20
76.210291
 30
0.0
 10
43.645695
 20
76.210291
 30
0.0
 10
41.752447
 20
76.210291
 30
0.0
 10
39.856190
 20
76.210291
 30
0.0
  0
SPLINE
  5
16e
100
AcDbEntity
  8
Layer_1
 62
7
100
AcDbSpline
 70
8
 71
3
 72
8
 73
4
 74
0
 40
0
 40
0
 40
0
 40
0
 40
1
 40
1
 40
1
 40
1
 10
39.856190
 20
76.210291
 30
0.0
 10
39.856190
 20
74.306406
 30
0.0
 10
39.856190
 20
72.407210
 30
0.0
 10
39.856190
 20
70.512704
 30
0.0
  0
LWPOLYLINE
  5
16f
100
AcDbEntity
  8
Layer_1
 62
7
100
AcDbPolyline
 90
2
 70
1
 10
39.856190
 20
70.512704
 30
0.0
 10
39.856190
 20
70.512704
 30
0.0
  0
SPLINE
  5
170
100
AcDbEntity
  8
Layer_1
 62
7
100
AcDbSpline
 70
8
 71
3
 72
8
 73
4
 74
0
 40
0
 40
0
 40
0
 40
0
 40
1
 40
1
 40
1
 40
1
 10
55.974379
 20
68.993347
 30
0.0
 10
56.136915
 20
68.993347
 30
0.0
 10
56.275372
 20
68.904249
 30
0.0
 10
56.389750
 20
68.726053
 30
0.0
  0
SPLINE
  5
171
100
AcDbEntity
  8
Layer_1
 62
7
100
AcDbSpline
 70
8
 71
3
 72
8
 73
4
 74
0
 40
0
 40
0
 40
0
 40
0
 40
1
 40
1
 40
1
 40
1
 10
56.389750
 20
68.726053
 30
0.0
 10
56.504127
 20
68.547857
 30
0.0
 10
56.561316
 20
68.332146
 30
0.0
 10
56.561316
 20
68.078921
 30
0.0
  0
SPLINE
  5
172
100
AcDbEntity
  8
Layer_1
 62
7
100
AcDbSpline
 70
8
 71
3
 72
8
 73
4
 74
0
 40
0
 40
0
 40
0
 40
0
 40
1
 40
1
 40
1
 40
1
 10
56.561316
 20
68.078921
 30
0.0
 10
56.561316
 20
65.068343
 30
0.0
 10
56.561316
 20
62.057766
 30
0.0
 10
56.561316
 20
59.047190
 30
0.0
  0
SPLINE
  5
173
100
AcDbEntity
  8
Layer_1
 62
7
100
AcDbSpline
 70
8
 71
3
 72
8
 73
4
 74
0
 40
0
 40
0
 40
0
 40
0
 40
1
 40
1
 40
1
 40
1
 10
56.561316
 20
59.047190
 30
0.0
 10
56.561316
 20
58.793964
 30
0.0
 10
56.501117
 20
58.578252
 30
0.0
 10
56.380720
 20
58.400056
 30
0.0
  0
SPLINE
  5
174
100
AcDbEntity
  8
Layer_1
 62
7
100
AcDbSpline
 70
8
 71
3
 72
8
 73
4
 74
0
 40
0
 40
0
 40
0
 40
0
 40
1
 40
1
 40
1
 40
1
 10
56.380720
 20
58.400056
 30
0.0
 10
56.266343
 20
58.221860
 30
0.0
 10
56.130896
 20
58.132762
 30
0.0
 10
55.974379
 20
58.132762
 30
0.0
  0
SPLINE
  5
175
100
AcDbEntity
  8
Layer_1
 62
7
100
AcDbSpline
 70
8
 71
3
 72
8
 73
4
 74
0
 40
0
 40
0
 40
0
 40
0
 40
1
 40
1
 40
1
 40
1
 10
55.974379
 20
58.132762
 30
0.0
 10
53.686830
 20
58.132762
 30
0.0
 10
51.399281
 20
58.132762
 30
0.0
 10
49.111733
 20
58.132762
 30
0.0
  0
SPLINE
  5
176
100
AcDbEntity
  8
Layer_1
 62
7
100
AcDbSpline
 70
8
 71
3
 72
8
 73
4
 74
0
 40
0
 40
0
 40
0
 40
0
 40
1
 40
1
 40
1
 40
1
 10
49.111733
 20
58.132762
 30
0.0
 10
48.955216
 20
58.132762
 30
0.0
 10
48.816759
 20
58.221860
 30
0.0
 10
48.696362
 20
58.400056
 30
0.0
  0
SPLINE
  5
177
100
AcDbEntity
  8
Layer_1
 62
7
100
AcDbSpline
 70
8
 71
3
 72
8
 73
4
 74
0
 40
0
 40
0
 40
0
 40
0
 40
1
 40
1
 40
1
 40
1
 10
48.696362
 20
58.400056
 30
0.0
 10
48.581985
 20
58.578252
 30
0.0
 10
48.524796
 20
58.793964
 30
0.0
 10
48.524796
 20
59.047190
 30
0.0
  0
SPLINE
  5
178
100
AcDbEntity
  8
Layer_1
 62
7
100
AcDbSpline
 70
8
 71
3
 72
8
 73
4
 74
0
 40
0
 40
0
 40
0
 40
0
 40
1
 40
1
 40
1
 40
1
 10
48.524796
 20
59.047190
 30
0.0
 10
48.524796
 20
60.050716
 30
0.0
 10
48.524796
 20
61.054241
 30
0.0
 10
48.524796
 20
62.057766
 30
0.0
  0
SPLINE
  5
179
100
AcDbEntity
  8
Layer_1
 62
7
100
AcDbSpline
 70
8
 71
3
 72
8
 73
4
 74
0
 40
0
 40
0
 40
0
 40
0
 40
1
 40
1
 40
1
 40
1
 10
48.524796
 20
62.057766
 30
0.0
 10
48.524796
 20
63.061292
 30
0.0
 10
48.524796
 20
64.064818
 30
0.0
 10
48.524796
 20
65.068343
 30
0.0
  0
SPLINE
  5
17a
100
AcDbEntity
  8
Layer_1
 62
7
100
AcDbSpline
 70
8
 71
3
 72
8
 73
4
 74
0
 40
0
 40
0
 40
0
 40
0
 40
1
 40
1
 40
1
 40
1
 10
48.524796
 20
65.068343
 30
0.0
 10
48.524796
 20
66.071869
 30
0.0
 10
48.524796
 20
67.075395
 30
0.0
 10
48.524796
 20
68.078921
 30
0.0
  0
SPLINE
  5
17b
100
AcDbEntity
  8
Layer_1
 62
7
100
AcDbSpline
 70
8
 71
3
 72
8
 73
4
 74
0
 40
0
 40
0
 40
0
 40
0
 40
1
 40
1
 40
1
 40
1
 10
48.524796
 20
68.078921
 30
0.0
 10
48.524796
 20
69.082446
 30
0.0
 10
48.524796
 20
70.085971
 30
0.0
 10
48.524796
 20
71.089497
 30
0.0
  0
SPLINE
  5
17c
100
AcDbEntity
  8
Layer_1
 62
7
100
AcDbSpline
 70
8
 71
3
 72
8
 73
4
 74
0
 40
0
 40
0
 40
0
 40
0
 40
1
 40
1
 40
1
 40
1
 10
48.524796
 20
71.089497
 30
0.0
 10
48.524796
 20
72.102401
 30
0.0
 10
48.524796
 20
73.110616
 30
0.0
 10
48.524796
 20
74.114142
 30
0.0
  0
SPLINE
  5
17d
100
AcDbEntity
  8
Layer_1
 62
7
100
AcDbSpline
 70
8
 71
3
 72
8
 73
4
 74
0
 40
0
 40
0
 40
0
 40
0
 40
1
 40
1
 40
1
 40
1
 10
48.524796
 20
74.114142
 30
0.0
 10
48.524796
 20
75.117668
 30
0.0
 10
48.524796
 20
76.121193
 30
0.0
 10
48.524796
 20
77.124719
 30
0.0
  0
SPLINE
  5
17e
100
AcDbEntity
  8
Layer_1
 62
7
100
AcDbSpline
 70
8
 71
3
 72
8
 73
4
 74
0
 40
0
 40
0
 40
0
 40
0
 40
1
 40
1
 40
1
 40
1
 10
48.524796
 20
77.124719
 30
0.0
 10
48.524796
 20
77.368566
 30
0.0
 10
48.581985
 20
77.579588
 30
0.0
 10
48.696362
 20
77.757784
 30
0.0
  0
SPLINE
  5
17f
100
AcDbEntity
  8
Layer_1
 62
7
100
AcDbSpline
 70
8
 71
3
 72
8
 73
4
 74
0
 40
0
 40
0
 40
0
 40
0
 40
1
 40
1
 40
1
 40
1
 10
48.696362
 20
77.757784
 30
0.0
 10
48.816759
 20
77.945359
 30
0.0
 10
48.955216
 20
78.039146
 30
0.0
 10
49.111733
 20
78.039146
 30
0.0
  0
SPLINE
  5
180
100
AcDbEntity
  8
Layer_1
 62
7
100
AcDbSpline
 70
8
 71
3
 72
8
 73
4
 74
0
 40
0
 40
0
 40
0
 40
0
 40
1
 40
1
 40
1
 40
1
 10
49.111733
 20
78.039146
 30
0.0
 10
51.068189
 20
78.039146
 30
0.0
 10
53.024645
 20
78.039146
 30
0.0
 10
54.981101
 20
78.039146
 30
0.0
  0
SPLINE
  5
181
100
AcDbEntity
  8
Layer_1
 62
7
100
AcDbSpline
 70
8
 71
3
 72
8
 73
4
 74
0
 40
0
 40
0
 40
0
 40
0
 40
1
 40
1
 40
1
 40
1
 10
54.981101
 20
78.039146
 30
0.0
 10
55.137617
 20
78.039146
 30
0.0
 10
55.273064
 20
77.945359
 30
0.0
 10
55.387442
 20
77.757784
 30
0.0
  0
SPLINE
  5
182
100
AcDbEntity
  8
Layer_1
 62
7
100
AcDbSpline
 70
8
 71
3
 72
8
 73
4
 74
0
 40
0
 40
0
 40
0
 40
0
 40
1
 40
1
 40
1
 40
1
 10
55.387442
 20
77.757784
 30
0.0
 10
55.507839
 20
77.579588
 30
0.0
 10
55.568038
 20
77.368566
 30
0.0
 10
55.568038
 20
77.124719
 30
0.0
  0
SPLINE
  5
183
100
AcDbEntity
  8
Layer_1
 62
7
100
AcDbSpline
 70
8
 71
3
 72
8
 73
4
 74
0
 40
0
 40
0
 40
0
 40
0
 40
1
 40
1
 40
1
 40
1
 10
55.568038
 20
77.124719
 30
0.0
 10
55.568038
 20
74.414262
 30
0.0
 10
55.568038
 20
71.703805
 30
0.0
 10
55.568038
 20
68.993347
 30
0.0
  0
SPLINE
  5
184
100
AcDbEntity
  8
Layer_1
 62
7
100
AcDbSpline
 70
8
 71
3
 72
8
 73
4
 74
0
 40
0
 40
0
 40
0
 40
0
 40
1
 40
1
 40
1
 40
1
 10
55.568038
 20
68.993347
 30
0.0
 10
55.706495
 20
68.993347
 30
0.0
 10
55.841942
 20
68.993347
 30
0.0
 10
55.974379
 20
68.993347
 30
0.0
  0
LWPOLYLINE
  5
185
100
AcDbEntity
  8
Layer_1
 62
7
100
AcDbPolyline
 90
2
 70
1
 10
55.974379
 20
68.993347
 30
0.0
 10
55.974379
 20
68.993347
 30
0.0
  0
SPLINE
  5
186
100
AcDbEntity
  8
Layer_1
 62
7
100
AcDbSpline
 70
8
 71
3
 72
8
 73
4
 74
0
 40
0
 40
0
 40
0
 40
0
 40
1
 40
1
 40
1
 40
1
 10
49.698669
 20
67.164493
 30
0.0
 10
49.698669
 20
64.763534
 30
0.0
 10
49.698669
 20
62.362576
 30
0.0
 10
49.698669
 20
59.961618
 30
0.0
  0
SPLINE
  5
187
100
AcDbEntity
  8
Layer_1
 62
7
100
AcDbSpline
 70
8
 71
3
 72
8
 73
4
 74
0
 40
0
 40
0
 40
0
 40
0
 40
1
 40
1
 40
1
 40
1
 10
49.698669
 20
59.961618
 30
0.0
 10
50.649808
 20
59.961618
 30
0.0
 10
51.597937
 20
59.961618
 30
0.0
 10
52.543055
 20
59.961618
 30
0.0
  0
SPLINE
  5
188
100
AcDbEntity
  8
Layer_1
 62
7
100
AcDbSpline
 70
8
 71
3
 72
8
 73
4
 74
0
 40
0
 40
0
 40
0
 40
0
 40
1
 40
1
 40
1
 40
1
 10
52.543055
 20
59.961618
 30
0.0
 10
53.494194
 20
59.961618
 30
0.0
 10
54.442323
 20
59.961618
 30
0.0
 10
55.387442
 20
59.961618
 30
0.0
  0
SPLINE
  5
189
100
AcDbEntity
  8
Layer_1
 62
7
100
AcDbSpline
 70
8
 71
3
 72
8
 73
4
 74
0
 40
0
 40
0
 40
0
 40
0
 40
1
 40
1
 40
1
 40
1
 10
55.387442
 20
59.961618
 30
0.0
 10
55.387442
 20
62.362576
 30
0.0
 10
55.387442
 20
64.763534
 30
0.0
 10
55.387442
 20
67.164493
 30
0.0
  0
SPLINE
  5
18a
100
AcDbEntity
  8
Layer_1
 62
7
100
AcDbSpline
 70
8
 71
3
 72
8
 73
4
 74
0
 40
0
 40
0
 40
0
 40
0
 40
1
 40
1
 40
1
 40
1
 10
55.387442
 20
67.164493
 30
0.0
 10
54.442323
 20
67.164493
 30
0.0
 10
53.494194
 20
67.164493
 30
0.0
 10
52.543055
 20
67.164493
 30
0.0
  0
SPLINE
  5
18b
100
AcDbEntity
  8
Layer_1
 62
7
100
AcDbSpline
 70
8
 71
3
 72
8
 73
4
 74
0
 40
0
 40
0
 40
0
 40
0
 40
1
 40
1
 40
1
 40
1
 10
52.543055
 20
67.164493
 30
0.0
 10
51.597937
 20
67.164493
 30
0.0
 10
50.649808
 20
67.164493
 30
0.0
 10
49.698669
 20
67.164493
 30
0.0
  0
LWPOLYLINE
  5
18c
100
AcDbEntity
  8
Layer_1
 62
7
100
AcDbPolyline
 90
2
 70
1
 10
49.698669
 20
67.164493
 30
0.0
 10
49.698669
 20
67.164493
 30
0.0
  0
SPLINE
  5
18d
100
AcDbEntity
  8
Layer_1
 62
7
100
AcDbSpline
 70
8
 71
3
 72
8
 73
4
 74
0
 40
0
 40
0
 40
0
 40
0
 40
1
 40
1
 40
1
 40
1
 10
49.698669
 20
68.993347
 30
0.0
 10
51.263835
 20
68.993347
 30
0.0
 10
52.829000
 20
68.993347
 30
0.0
 10
54.394164
 20
68.993347
 30
0.0
  0
SPLINE
  5
18e
100
AcDbEntity
  8
Layer_1
 62
7
100
AcDbSpline
 70
8
 71
3
 72
8
 73
4
 74
0
 40
0
 40
0
 40
0
 40
0
 40
1
 40
1
 40
1
 40
1
 10
54.394164
 20
68.993347
 30
0.0
 10
54.394164
 20
71.403685
 30
0.0
 10
54.394164
 20
73.809333
 30
0.0
 10
54.394164
 20
76.210291
 30
0.0
  0
SPLINE
  5
18f
100
AcDbEntity
  8
Layer_1
 62
7
100
AcDbSpline
 70
8
 71
3
 72
8
 73
4
 74
0
 40
0
 40
0
 40
0
 40
0
 40
1
 40
1
 40
1
 40
1
 10
54.394164
 20
76.210291
 30
0.0
 10
52.829000
 20
76.210291
 30
0.0
 10
51.263835
 20
76.210291
 30
0.0
 10
49.698669
 20
76.210291
 30
0.0
  0
SPLINE
  5
190
100
AcDbEntity
  8
Layer_1
 62
7
100
AcDbSpline
 70
8
 71
3
 72
8
 73
4
 74
0
 40
0
 40
0
 40
0
 40
0
 40
1
 40
1
 40
1
 40
1
 10
49.698669
 20
76.210291
 30
0.0
 10
49.698669
 20
73.809333
 30
0.0
 10
49.698669
 20
71.403685
 30
0.0
 10
49.698669
 20
68.993347
 30
0.0
  0
LWPOLYLINE
  5
191
100
AcDbEntity
  8
Layer_1
 62
7
100
AcDbPolyline
 90
2
 70
1
 10
49.698669
 20
68.993347
 30
0.0
 10
49.698669
 20
68.993347
 30
0.0
  0
SPLINE
  5
192
100
AcDbEntity
  8
Layer_1
 62
7
100
AcDbSpline
 70
8
 71
3
 72
8
 73
4
 74
0
 40
0
 40
0
 40
0
 40
0
 40
1
 40
1
 40
1
 40
1
 10
65.816858
 20
59.961618
 30
0.0
 10
66.009494
 20
59.961618
 30
0.0
 10
66.150961
 20
59.867830
 30
0.0
 10
66.241259
 20
59.680254
 30
0.0
  0
SPLINE
  5
193
100
AcDbEntity
  8
Layer_1
 62
7
100
AcDbSpline
 70
8
 71
3
 72
8
 73
4
 74
0
 40
0
 40
0
 40
0
 40
0
 40
1
 40
1
 40
1
 40
1
 10
66.241259
 20
59.680254
 30
0.0
 10
66.337577
 20
59.492680
 30
0.0
 10
66.385736
 20
59.276969
 30
0.0
 10
66.385736
 20
59.033122
 30
0.0
  0
SPLINE
  5
194
100
AcDbEntity
  8
Layer_1
 62
7
100
AcDbSpline
 70
8
 71
3
 72
8
 73
4
 74
0
 40
0
 40
0
 40
0
 40
0
 40
1
 40
1
 40
1
 40
1
 10
66.385736
 20
59.033122
 30
0.0
 10
66.385736
 20
58.798653
 30
0.0
 10
66.337577
 20
58.587631
 30
0.0
 10
66.241259
 20
58.400056
 30
0.0
  0
SPLINE
  5
195
100
AcDbEntity
  8
Layer_1
 62
7
100
AcDbSpline
 70
8
 71
3
 72
8
 73
4
 74
0
 40
0
 40
0
 40
0
 40
0
 40
1
 40
1
 40
1
 40
1
 10
66.241259
 20
58.400056
 30
0.0
 10
66.150961
 20
58.221860
 30
0.0
 10
66.009494
 20
58.132762
 30
0.0
 10
65.816858
 20
58.132762
 30
0.0
  0
SPLINE
  5
196
100
AcDbEntity
  8
Layer_1
 62
7
100
AcDbSpline
 70
8
 71
3
 72
8
 73
4
 74
0
 40
0
 40
0
 40
0
 40
0
 40
1
 40
1
 40
1
 40
1
 10
65.816858
 20
58.132762
 30
0.0
 10
63.529309
 20
58.132762
 30
0.0
 10
61.241761
 20
58.132762
 30
0.0
 10
58.954213
 20
58.132762
 30
0.0
  0
SPLINE
  5
197
100
AcDbEntity
  8
Layer_1
 62
7
100
AcDbSpline
 70
8
 71
3
 72
8
 73
4
 74
0
 40
0
 40
0
 40
0
 40
0
 40
1
 40
1
 40
1
 40
1
 10
58.954213
 20
58.132762
 30
0.0
 10
58.797696
 20
58.132762
 30
0.0
 10
58.659239
 20
58.221860
 30
0.0
 10
58.538842
 20
58.400056
 30
0.0
  0
SPLINE
  5
198
100
AcDbEntity
  8
Layer_1
 62
7
100
AcDbSpline
 70
8
 71
3
 72
8
 73
4
 74
0
 40
0
 40
0
 40
0
 40
0
 40
1
 40
1
 40
1
 40
1
 10
58.538842
 20
58.400056
 30
0.0
 10
58.424464
 20
58.587631
 30
0.0
 10
58.367276
 20
58.803342
 30
0.0
 10
58.367276
 20
59.047190
 30
0.0
  0
SPLINE
  5
199
100
AcDbEntity
  8
Layer_1
 62
7
100
AcDbSpline
 70
8
 71
3
 72
8
 73
4
 74
0
 40
0
 40
0
 40
0
 40
0
 40
1
 40
1
 40
1
 40
1
 10
58.367276
 20
59.047190
 30
0.0
 10
58.367276
 20
65.068344
 30
0.0
 10
58.367276
 20
71.094187
 30
0.0
 10
58.367276
 20
77.124719
 30
0.0
  0
SPLINE
  5
19a
100
AcDbEntity
  8
Layer_1
 62
7
100
AcDbSpline
 70
8
 71
3
 72
8
 73
4
 74
0
 40
0
 40
0
 40
0
 40
0
 40
1
 40
1
 40
1
 40
1
 10
58.367276
 20
77.124719
 30
0.0
 10
58.367276
 20
77.368566
 30
0.0
 10
58.424464
 20
77.579588
 30
0.0
 10
58.538842
 20
77.757784
 30
0.0
  0
SPLINE
  5
19b
100
AcDbEntity
  8
Layer_1
 62
7
100
AcDbSpline
 70
8
 71
3
 72
8
 73
4
 74
0
 40
0
 40
0
 40
0
 40
0
 40
1
 40
1
 40
1
 40
1
 10
58.538842
 20
77.757784
 30
0.0
 10
58.659239
 20
77.945359
 30
0.0
 10
58.797696
 20
78.039146
 30
0.0
 10
58.954213
 20
78.039146
 30
0.0
  0
SPLINE
  5
19c
100
AcDbEntity
  8
Layer_1
 62
7
100
AcDbSpline
 70
8
 71
3
 72
8
 73
4
 74
0
 40
0
 40
0
 40
0
 40
0
 40
1
 40
1
 40
1
 40
1
 10
58.954213
 20
78.039146
 30
0.0
 10
61.241761
 20
78.039146
 30
0.0
 10
63.529309
 20
78.039146
 30
0.0
 10
65.816858
 20
78.039146
 30
0.0
  0
SPLINE
  5
19d
100
AcDbEntity
  8
Layer_1
 62
7
100
AcDbSpline
 70
8
 71
3
 72
8
 73
4
 74
0
 40
0
 40
0
 40
0
 40
0
 40
1
 40
1
 40
1
 40
1
 10
65.816858
 20
78.039146
 30
0.0
 10
66.009494
 20
78.039146
 30
0.0
 10
66.150961
 20
77.945359
 30
0.0
 10
66.241259
 20
77.757784
 30
0.0
  0
SPLINE
  5
19e
100
AcDbEntity
  8
Layer_1
 62
7
100
AcDbSpline
 70
8
 71
3
 72
8
 73
4
 74
0
 40
0
 40
0
 40
0
 40
0
 40
1
 40
1
 40
1
 40
1
 10
66.241259
 20
77.757784
 30
0.0
 10
66.337577
 20
77.570209
 30
0.0
 10
66.385736
 20
77.354498
 30
0.0
 10
66.385736
 20
77.110651
 30
0.0
  0
SPLINE
  5
19f
100
AcDbEntity
  8
Layer_1
 62
7
100
AcDbSpline
 70
8
 71
3
 72
8
 73
4
 74
0
 40
0
 40
0
 40
0
 40
0
 40
1
 40
1
 40
1
 40
1
 10
66.385736
 20
77.110651
 30
0.0
 10
66.385736
 20
76.876182
 30
0.0
 10
66.337577
 20
76.665160
 30
0.0
 10
66.241259
 20
76.477586
 30
0.0
  0
SPLINE
  5
1a0
100
AcDbEntity
  8
Layer_1
 62
7
100
AcDbSpline
 70
8
 71
3
 72
8
 73
4
 74
0
 40
0
 40
0
 40
0
 40
0
 40
1
 40
1
 40
1
 40
1
 10
66.241259
 20
76.477586
 30
0.0
 10
66.150961
 20
76.299389
 30
0.0
 10
66.009494
 20
76.210291
 30
0.0
 10
65.816858
 20
76.210291
 30
0.0
  0
SPLINE
  5
1a1
100
AcDbEntity
  8
Layer_1
 62
7
100
AcDbSpline
 70
8
 71
3
 72
8
 73
4
 74
0
 40
0
 40
0
 40
0
 40
0
 40
1
 40
1
 40
1
 40
1
 10
65.816858
 20
76.210291
 30
0.0
 10
63.727965
 20
76.210291
 30
0.0
 10
61.636062
 20
76.210291
 30
0.0
 10
59.541149
 20
76.210291
 30
0.0
  0
SPLINE
  5
1a2
100
AcDbEntity
  8
Layer_1
 62
7
100
AcDbSpline
 70
8
 71
3
 72
8
 73
4
 74
0
 40
0
 40
0
 40
0
 40
0
 40
1
 40
1
 40
1
 40
1
 10
59.541149
 20
76.210291
 30
0.0
 10
59.541149
 20
74.719071
 30
0.0
 10
59.541149
 20
73.227851
 30
0.0
 10
59.541149
 20
71.736631
 30
0.0
  0
SPLINE
  5
1a3
100
AcDbEntity
  8
Layer_1
 62
7
100
AcDbSpline
 70
8
 71
3
 72
8
 73
4
 74
0
 40
0
 40
0
 40
0
 40
0
 40
1
 40
1
 40
1
 40
1
 10
59.541149
 20
71.736631
 30
0.0
 10
61.317009
 20
71.736631
 30
0.0
 10
63.089860
 20
71.736631
 30
0.0
 10
64.859700
 20
71.736631
 30
0.0
  0
SPLINE
  5
1a4
100
AcDbEntity
  8
Layer_1
 62
7
100
AcDbSpline
 70
8
 71
3
 72
8
 73
4
 74
0
 40
0
 40
0
 40
0
 40
0
 40
1
 40
1
 40
1
 40
1
 10
64.859700
 20
71.736631
 30
0.0
 10
65.046316
 20
71.736631
 30
0.0
 10
65.187783
 20
71.642843
 30
0.0
 10
65.284101
 20
71.455269
 30
0.0
  0
SPLINE
  5
1a5
100
AcDbEntity
  8
Layer_1
 62
7
100
AcDbSpline
 70
8
 71
3
 72
8
 73
4
 74
0
 40
0
 40
0
 40
0
 40
0
 40
1
 40
1
 40
1
 40
1
 10
65.284101
 20
71.455269
 30
0.0
 10
65.380418
 20
71.267693
 30
0.0
 10
65.428577
 20
71.051982
 30
0.0
 10
65.428577
 20
70.808135
 30
0.0
  0
SPLINE
  5
1a6
100
AcDbEntity
  8
Layer_1
 62
7
100
AcDbSpline
 70
8
 71
3
 72
8
 73
4
 74
0
 40
0
 40
0
 40
0
 40
0
 40
1
 40
1
 40
1
 40
1
 10
65.428577
 20
70.808135
 30
0.0
 10
65.428577
 20
70.573667
 30
0.0
 10
65.380418
 20
70.362645
 30
0.0
 10
65.284101
 20
70.175069
 30
0.0
  0
SPLINE
  5
1a7
100
AcDbEntity
  8
Layer_1
 62
7
100
AcDbSpline
 70
8
 71
3
 72
8
 73
4
 74
0
 40
0
 40
0
 40
0
 40
0
 40
1
 40
1
 40
1
 40
1
 10
65.284101
 20
70.175069
 30
0.0
 10
65.187783
 20
69.996873
 30
0.0
 10
65.046316
 20
69.907775
 30
0.0
 10
64.859700
 20
69.907775
 30
0.0
  0
SPLINE
  5
1a8
100
AcDbEntity
  8
Layer_1
 62
7
100
AcDbSpline
 70
8
 71
3
 72
8
 73
4
 74
0
 40
0
 40
0
 40
0
 40
0
 40
1
 40
1
 40
1
 40
1
 10
64.859700
 20
69.907775
 30
0.0
 10
63.974780
 20
69.907775
 30
0.0
 10
63.089859
 20
69.907775
 30
0.0
 10
62.204939
 20
69.907775
 30
0.0
  0
SPLINE
  5
1a9
100
AcDbEntity
  8
Layer_1
 62
7
100
AcDbSpline
 70
8
 71
3
 72
8
 73
4
 74
0
 40
0
 40
0
 40
0
 40
0
 40
1
 40
1
 40
1
 40
1
 10
62.204939
 20
69.907775
 30
0.0
 10
61.320019
 20
69.907775
 30
0.0
 10
60.432089
 20
69.907775
 30
0.0
 10
59.541149
 20
69.907775
 30
0.0
  0
SPLINE
  5
1aa
100
AcDbEntity
  8
Layer_1
 62
7
100
AcDbSpline
 70
8
 71
3
 72
8
 73
4
 74
0
 40
0
 40
0
 40
0
 40
0
 40
1
 40
1
 40
1
 40
1
 10
59.541149
 20
69.907775
 30
0.0
 10
59.541149
 20
66.587700
 30
0.0
 10
59.541149
 20
63.272314
 30
0.0
 10
59.541149
 20
59.961618
 30
0.0
  0
SPLINE
  5
1ab
100
AcDbEntity
  8
Layer_1
 62
7
100
AcDbSpline
 70
8
 71
3
 72
8
 73
4
 74
0
 40
0
 40
0
 40
0
 40
0
 40
1
 40
1
 40
1
 40
1
 10
59.541149
 20
59.961618
 30
0.0
 10
61.636062
 20
59.961618
 30
0.0
 10
63.727965
 20
59.961618
 30
0.0
 10
65.816858
 20
59.961618
 30
0.0
  0
LWPOLYLINE
  5
1ac
100
AcDbEntity
  8
Layer_1
 62
7
100
AcDbPolyline
 90
2
 70
1
 10
65.816858
 20
59.961618
 30
0.0
 10
65.816858
 20
59.961618
 30
0.0
  0
SPLINE
  5
1ad
100
AcDbEntity
  8
Layer_1
 62
7
100
AcDbSpline
 70
8
 71
3
 72
8
 73
4
 74
0
 40
0
 40
0
 40
0
 40
0
 40
1
 40
1
 40
1
 40
1
 10
75.045312
 20
63.689668
 30
0.0
 10
75.045312
 20
63.989788
 30
0.0
 10
75.105511
 20
64.210188
 30
0.0
 10
75.225908
 20
64.350869
 30
0.0
  0
SPLINE
  5
1ae
100
AcDbEntity
  8
Layer_1
 62
7
100
AcDbSpline
 70
8
 71
3
 72
8
 73
4
 74
0
 40
0
 40
0
 40
0
 40
0
 40
1
 40
1
 40
1
 40
1
 10
75.225908
 20
64.350869
 30
0.0
 10
75.346305
 20
64.500930
 30
0.0
 10
75.481752
 20
64.575960
 30
0.0
 10
75.632248
 20
64.575960
 30
0.0
  0
SPLINE
  5
1af
100
AcDbEntity
  8
Layer_1
 62
7
100
AcDbSpline
 70
8
 71
3
 72
8
 73
4
 74
0
 40
0
 40
0
 40
0
 40
0
 40
1
 40
1
 40
1
 40
1
 10
75.632248
 20
64.575960
 30
0.0
 10
75.788765
 20
64.575960
 30
0.0
 10
75.927222
 20
64.500930
 30
0.0
 10
76.047619
 20
64.350869
 30
0.0
  0
SPLINE
  5
1b0
100
AcDbEntity
  8
Layer_1
 62
7
100
AcDbSpline
 70
8
 71
3
 72
8
 73
4
 74
0
 40
0
 40
0
 40
0
 40
0
 40
1
 40
1
 40
1
 40
1
 10
76.047619
 20
64.350869
 30
0.0
 10
76.168016
 20
64.200810
 30
0.0
 10
76.228215
 20
63.980409
 30
0.0
 10
76.228215
 20
63.689668
 30
0.0
  0
SPLINE
  5
1b1
100
AcDbEntity
  8
Layer_1
 62
7
100
AcDbSpline
 70
8
 71
3
 72
8
 73
4
 74
0
 40
0
 40
0
 40
0
 40
0
 40
1
 40
1
 40
1
 40
1
 10
76.228215
 20
63.689668
 30
0.0
 10
76.228215
 20
62.658006
 30
0.0
 10
76.228215
 20
61.626345
 30
0.0
 10
76.228215
 20
60.594682
 30
0.0
  0
SPLINE
  5
1b2
100
AcDbEntity
  8
Layer_1
 62
7
100
AcDbSpline
 70
8
 71
3
 72
8
 73
4
 74
0
 40
0
 40
0
 40
0
 40
0
 40
1
 40
1
 40
1
 40
1
 10
76.228215
 20
60.594682
 30
0.0
 10
76.228215
 20
60.078852
 30
0.0
 10
76.228215
 20
59.563021
 30
0.0
 10
76.228215
 20
59.047190
 30
0.0
  0
SPLINE
  5
1b3
100
AcDbEntity
  8
Layer_1
 62
7
100
AcDbSpline
 70
8
 71
3
 72
8
 73
4
 74
0
 40
0
 40
0
 40
0
 40
0
 40
1
 40
1
 40
1
 40
1
 10
76.228215
 20
59.047190
 30
0.0
 10
76.228215
 20
58.793964
 30
0.0
 10
76.168016
 20
58.578252
 30
0.0
 10
76.047619
 20
58.400056
 30
0.0
  0
SPLINE
  5
1b4
100
AcDbEntity
  8
Layer_1
 62
7
100
AcDbSpline
 70
8
 71
3
 72
8
 73
4
 74
0
 40
0
 40
0
 40
0
 40
0
 40
1
 40
1
 40
1
 40
1
 10
76.047619
 20
58.400056
 30
0.0
 10
75.933242
 20
58.221860
 30
0.0
 10
75.797795
 20
58.132762
 30
0.0
 10
75.641279
 20
58.132762
 30
0.0
  0
SPLINE
  5
1b5
100
AcDbEntity
  8
Layer_1
 62
7
100
AcDbSpline
 70
8
 71
3
 72
8
 73
4
 74
0
 40
0
 40
0
 40
0
 40
0
 40
1
 40
1
 40
1
 40
1
 10
75.641279
 20
58.132762
 30
0.0
 10
73.353730
 20
58.132762
 30
0.0
 10
71.066181
 20
58.132762
 30
0.0
 10
68.778632
 20
58.132762
 30
0.0
  0
SPLINE
  5
1b6
100
AcDbEntity
  8
Layer_1
 62
7
100
AcDbSpline
 70
8
 71
3
 72
8
 73
4
 74
0
 40
0
 40
0
 40
0
 40
0
 40
1
 40
1
 40
1
 40
1
 10
68.778632
 20
58.132762
 30
0.0
 10
68.616096
 20
58.132762
 30
0.0
 10
68.477639
 20
58.221860
 30
0.0
 10
68.363261
 20
58.400056
 30
0.0
  0
SPLINE
  5
1b7
100
AcDbEntity
  8
Layer_1
 62
7
100
AcDbSpline
 70
8
 71
3
 72
8
 73
4
 74
0
 40
0
 40
0
 40
0
 40
0
 40
1
 40
1
 40
1
 40
1
 10
68.363261
 20
58.400056
 30
0.0
 10
68.248884
 20
58.587631
 30
0.0
 10
68.191695
 20
58.803342
 30
0.0
 10
68.191695
 20
59.047190
 30
0.0
  0
SPLINE
  5
1b8
100
AcDbEntity
  8
Layer_1
 62
7
100
AcDbSpline
 70
8
 71
3
 72
8
 73
4
 74
0
 40
0
 40
0
 40
0
 40
0
 40
1
 40
1
 40
1
 40
1
 10
68.191695
 20
59.047190
 30
0.0
 10
68.191695
 20
65.068344
 30
0.0
 10
68.191695
 20
71.094187
 30
0.0
 10
68.191695
 20
77.124719
 30
0.0
  0
SPLINE
  5
1b9
100
AcDbEntity
  8
Layer_1
 62
7
100
AcDbSpline
 70
8
 71
3
 72
8
 73
4
 74
0
 40
0
 40
0
 40
0
 40
0
 40
1
 40
1
 40
1
 40
1
 10
68.191695
 20
77.124719
 30
0.0
 10
68.191695
 20
77.415460
 30
0.0
 10
68.248884
 20
77.635861
 30
0.0
 10
68.363261
 20
77.785920
 30
0.0
  0
SPLINE
  5
1ba
100
AcDbEntity
  8
Layer_1
 62
7
100
AcDbSpline
 70
8
 71
3
 72
8
 73
4
 74
0
 40
0
 40
0
 40
0
 40
0
 40
1
 40
1
 40
1
 40
1
 10
68.363261
 20
77.785920
 30
0.0
 10
68.483658
 20
77.935980
 30
0.0
 10
68.619106
 20
78.011010
 30
0.0
 10
68.769603
 20
78.011010
 30
0.0
  0
SPLINE
  5
1bb
100
AcDbEntity
  8
Layer_1
 62
7
100
AcDbSpline
 70
8
 71
3
 72
8
 73
4
 74
0
 40
0
 40
0
 40
0
 40
0
 40
1
 40
1
 40
1
 40
1
 10
68.769603
 20
78.011010
 30
0.0
 10
68.926119
 20
78.011010
 30
0.0
 10
69.064575
 20
77.935980
 30
0.0
 10
69.184972
 20
77.785920
 30
0.0
  0
SPLINE
  5
1bc
100
AcDbEntity
  8
Layer_1
 62
7
100
AcDbSpline
 70
8
 71
3
 72
8
 73
4
 74
0
 40
0
 40
0
 40
0
 40
0
 40
1
 40
1
 40
1
 40
1
 10
69.184972
 20
77.785920
 30
0.0
 10
69.305370
 20
77.635861
 30
0.0
 10
69.365569
 20
77.415460
 30
0.0
 10
69.365569
 20
77.124719
 30
0.0
  0
SPLINE
  5
1bd
100
AcDbEntity
  8
Layer_1
 62
7
100
AcDbSpline
 70
8
 71
3
 72
8
 73
4
 74
0
 40
0
 40
0
 40
0
 40
0
 40
1
 40
1
 40
1
 40
1
 10
69.365569
 20
77.124719
 30
0.0
 10
69.365569
 20
71.403686
 30
0.0
 10
69.365569
 20
65.682652
 30
0.0
 10
69.365569
 20
59.961618
 30
0.0
  0
SPLINE
  5
1be
100
AcDbEntity
  8
Layer_1
 62
7
100
AcDbSpline
 70
8
 71
3
 72
8
 73
4
 74
0
 40
0
 40
0
 40
0
 40
0
 40
1
 40
1
 40
1
 40
1
 10
69.365569
 20
59.961618
 30
0.0
 10
71.261827
 20
59.961618
 30
0.0
 10
73.155074
 20
59.961618
 30
0.0
 10
75.045312
 20
59.961618
 30
0.0
  0
SPLINE
  5
1bf
100
AcDbEntity
  8
Layer_1
 62
7
100
AcDbSpline
 70
8
 71
3
 72
8
 73
4
 74
0
 40
0
 40
0
 40
0
 40
0
 40
1
 40
1
 40
1
 40
1
 10
75.045312
 20
59.961618
 30
0.0
 10
75.045312
 20
60.580615
 30
0.0
 10
75.045312
 20
61.199612
 30
0.0
 10
75.045312
 20
61.818609
 30
0.0
  0
SPLINE
  5
1c0
100
AcDbEntity
  8
Layer_1
 62
7
100
AcDbSpline
 70
8
 71
3
 72
8
 73
4
 74
0
 40
0
 40
0
 40
0
 40
0
 40
1
 40
1
 40
1
 40
1
 10
75.045312
 20
61.818609
 30
0.0
 10
75.045312
 20
62.446985
 30
0.0
 10
75.045312
 20
63.070671
 30
0.0
 10
75.045312
 20
63.689668
 30
0.0
  0
LWPOLYLINE
  5
1c1
100
AcDbEntity
  8
Layer_1
 62
7
100
AcDbPolyline
 90
2
 70
1
 10
75.045312
 20
63.689668
 30
0.0
 10
75.045312
 20
63.689668
 30
0.0
  0
SPLINE
  5
1c2
100
AcDbEntity
  8
Layer_1
 62
7
100
AcDbSpline
 70
8
 71
3
 72
8
 73
4
 74
0
 40
0
 40
0
 40
0
 40
0
 40
1
 40
1
 40
1
 40
1
 10
84.887792
 20
63.689668
 30
0.0
 10
84.887792
 20
63.989788
 30
0.0
 10
84.947990
 20
64.210188
 30
0.0
 10
85.068387
 20
64.350869
 30
0.0
  0
SPLINE
  5
1c3
100
AcDbEntity
  8
Layer_1
 62
7
100
AcDbSpline
 70
8
 71
3
 72
8
 73
4
 74
0
 40
0
 40
0
 40
0
 40
0
 40
1
 40
1
 40
1
 40
1
 10
85.068387
 20
64.350869
 30
0.0
 10
85.188785
 20
64.500930
 30
0.0
 10
85.324231
 20
64.575960
 30
0.0
 10
85.474728
 20
64.575960
 30
0.0
  0
SPLINE
  5
1c4
100
AcDbEntity
  8
Layer_1
 62
7
100
AcDbSpline
 70
8
 71
3
 72
8
 73
4
 74
0
 40
0
 40
0
 40
0
 40
0
 40
1
 40
1
 40
1
 40
1
 10
85.474728
 20
64.575960
 30
0.0
 10
85.631245
 20
64.575960
 30
0.0
 10
85.769702
 20
64.500930
 30
0.0
 10
85.890099
 20
64.350869
 30
0.0
  0
SPLINE
  5
1c5
100
AcDbEntity
  8
Layer_1
 62
7
100
AcDbSpline
 70
8
 71
3
 72
8
 73
4
 74
0
 40
0
 40
0
 40
0
 40
0
 40
1
 40
1
 40
1
 40
1
 10
85.890099
 20
64.350869
 30
0.0
 10
86.010496
 20
64.200810
 30
0.0
 10
86.070694
 20
63.980409
 30
0.0
 10
86.070694
 20
63.689668
 30
0.0
  0
SPLINE
  5
1c6
100
AcDbEntity
  8
Layer_1
 62
7
100
AcDbSpline
 70
8
 71
3
 72
8
 73
4
 74
0
 40
0
 40
0
 40
0
 40
0
 40
1
 40
1
 40
1
 40
1
 10
86.070694
 20
63.689668
 30
0.0
 10
86.070694
 20
62.658006
 30
0.0
 10
86.070694
 20
61.626345
 30
0.0
 10
86.070694
 20
60.594682
 30
0.0
  0
SPLINE
  5
1c7
100
AcDbEntity
  8
Layer_1
 62
7
100
AcDbSpline
 70
8
 71
3
 72
8
 73
4
 74
0
 40
0
 40
0
 40
0
 40
0
 40
1
 40
1
 40
1
 40
1
 10
86.070694
 20
60.594682
 30
0.0
 10
86.070694
 20
60.078852
 30
0.0
 10
86.070694
 20
59.563021
 30
0.0
 10
86.070694
 20
59.047190
 30
0.0
  0
SPLINE
  5
1c8
100
AcDbEntity
  8
Layer_1
 62
7
100
AcDbSpline
 70
8
 71
3
 72
8
 73
4
 74
0
 40
0
 40
0
 40
0
 40
0
 40
1
 40
1
 40
1
 40
1
 10
86.070694
 20
59.047190
 30
0.0
 10
86.070694
 20
58.793964
 30
0.0
 10
86.010496
 20
58.578252
 30
0.0
 10
85.890099
 20
58.400056
 30
0.0
  0
SPLINE
  5
1c9
100
AcDbEntity
  8
Layer_1
 62
7
100
AcDbSpline
 70
8
 71
3
 72
8
 73
4
 74
0
 40
0
 40
0
 40
0
 40
0
 40
1
 40
1
 40
1
 40
1
 10
85.890099
 20
58.400056
 30
0.0
 10
85.775721
 20
58.221860
 30
0.0
 10
85.640275
 20
58.132762
 30
0.0
 10
85.483758
 20
58.132762
 30
0.0
  0
SPLINE
  5
1ca
100
AcDbEntity
  8
Layer_1
 62
7
100
AcDbSpline
 70
8
 71
3
 72
8
 73
4
 74
0
 40
0
 40
0
 40
0
 40
0
 40
1
 40
1
 40
1
 40
1
 10
85.483758
 20
58.132762
 30
0.0
 10
83.196210
 20
58.132762
 30
0.0
 10
80.908661
 20
58.132762
 30
0.0
 10
78.621112
 20
58.132762
 30
0.0
  0
SPLINE
  5
1cb
100
AcDbEntity
  8
Layer_1
 62
7
100
AcDbSpline
 70
8
 71
3
 72
8
 73
4
 74
0
 40
0
 40
0
 40
0
 40
0
 40
1
 40
1
 40
1
 40
1
 10
78.621112
 20
58.132762
 30
0.0
 10
78.458575
 20
58.132762
 30
0.0
 10
78.320118
 20
58.221860
 30
0.0
 10
78.205741
 20
58.400056
 30
0.0
  0
SPLINE
  5
1cc
100
AcDbEntity
  8
Layer_1
 62
7
100
AcDbSpline
 70
8
 71
3
 72
8
 73
4
 74
0
 40
0
 40
0
 40
0
 40
0
 40
1
 40
1
 40
1
 40
1
 10
78.205741
 20
58.400056
 30
0.0
 10
78.091363
 20
58.587631
 30
0.0
 10
78.034175
 20
58.803342
 30
0.0
 10
78.034175
 20
59.047190
 30
0.0
  0
SPLINE
  5
1cd
100
AcDbEntity
  8
Layer_1
 62
7
100
AcDbSpline
 70
8
 71
3
 72
8
 73
4
 74
0
 40
0
 40
0
 40
0
 40
0
 40
1
 40
1
 40
1
 40
1
 10
78.034175
 20
59.047190
 30
0.0
 10
78.034175
 20
65.068344
 30
0.0
 10
78.034175
 20
71.094187
 30
0.0
 10
78.034175
 20
77.124719
 30
0.0
  0
SPLINE
  5
1ce
100
AcDbEntity
  8
Layer_1
 62
7
100
AcDbSpline
 70
8
 71
3
 72
8
 73
4
 74
0
 40
0
 40
0
 40
0
 40
0
 40
1
 40
1
 40
1
 40
1
 10
78.034175
 20
77.124719
 30
0.0
 10
78.034175
 20
77.415460
 30
0.0
 10
78.091363
 20
77.635861
 30
0.0
 10
78.205741
 20
77.785920
 30
0.0
  0
SPLINE
  5
1cf
100
AcDbEntity
  8
Layer_1
 62
7
100
AcDbSpline
 70
8
 71
3
 72
8
 73
4
 74
0
 40
0
 40
0
 40
0
 40
0
 40
1
 40
1
 40
1
 40
1
 10
78.205741
 20
77.785920
 30
0.0
 10
78.326138
 20
77.935980
 30
0.0
 10
78.461585
 20
78.011010
 30
0.0
 10
78.612082
 20
78.011010
 30
0.0
  0
SPLINE
  5
1d0
100
AcDbEntity
  8
Layer_1
 62
7
100
AcDbSpline
 70
8
 71
3
 72
8
 73
4
 74
0
 40
0
 40
0
 40
0
 40
0
 40
1
 40
1
 40
1
 40
1
 10
78.612082
 20
78.011010
 30
0.0
 10
78.768598
 20
78.011010
 30
0.0
 10
78.907055
 20
77.935980
 30
0.0
 10
79.027452
 20
77.785920
 30
0.0
  0
SPLINE
  5
1d1
100
AcDbEntity
  8
Layer_1
 62
7
100
AcDbSpline
 70
8
 71
3
 72
8
 73
4
 74
0
 40
0
 40
0
 40
0
 40
0
 40
1
 40
1
 40
1
 40
1
 10
79.027452
 20
77.785920
 30
0.0
 10
79.147850
 20
77.635861
 30
0.0
 10
79.208049
 20
77.415460
 30
0.0
 10
79.208049
 20
77.124719
 30
0.0
  0
SPLINE
  5
1d2
100
AcDbEntity
  8
Layer_1
 62
7
100
AcDbSpline
 70
8
 71
3
 72
8
 73
4
 74
0
 40
0
 40
0
 40
0
 40
0
 40
1
 40
1
 40
1
 40
1
 10
79.208049
 20
77.124719
 30
0.0
 10
79.208049
 20
71.403686
 30
0.0
 10
79.208049
 20
65.682652
 30
0.0
 10
79.208049
 20
59.961618
 30
0.0
  0
SPLINE
  5
1d3
100
AcDbEntity
  8
Layer_1
 62
7
100
AcDbSpline
 70
8
 71
3
 72
8
 73
4
 74
0
 40
0
 40
0
 40
0
 40
0
 40
1
 40
1
 40
1
 40
1
 10
79.208049
 20
59.961618
 30
0.0
 10
81.104306
 20
59.961618
 30
0.0
 10
82.997554
 20
59.961618
 30
0.0
 10
84.887792
 20
59.961618
 30
0.0
  0
SPLINE
  5
1d4
100
AcDbEntity
  8
Layer_1
 62
7
100
AcDbSpline
 70
8
 71
3
 72
8
 73
4
 74
0
 40
0
 40
0
 40
0
 40
0
 40
1
 40
1
 40
1
 40
1
 10
84.887792
 20
59.961618
 30
0.0
 10
84.887792
 20
60.580615
 30
0.0
 10
84.887792
 20
61.199612
 30
0.0
 10
84.887792
 20
61.818609
 30
0.0
  0
SPLINE
  5
1d5
100
AcDbEntity
  8
Layer_1
 62
7
100
AcDbSpline
 70
8
 71
3
 72
8
 73
4
 74
0
 40
0
 40
0
 40
0
 40
0
 40
1
 40
1
 40
1
 40
1
 10
84.887792
 20
61.818609
 30
0.0
 10
84.887792
 20
62.446985
 30
0.0
 10
84.887792
 20
63.070671
 30
0.0
 10
84.887792
 20
63.689668
 30
0.0
  0
LWPOLYLINE
  5
1d6
100
AcDbEntity
  8
Layer_1
 62
7
100
AcDbPolyline
 90
2
 70
1
 10
84.887792
 20
63.689668
 30
0.0
 10
84.887792
 20
63.689668
 30
0.0
  0
SPLINE
  5
1d7
100
AcDbEntity
  8
Layer_1
 62
7
100
AcDbSpline
 70
8
 71
3
 72
8
 73
4
 74
0
 40
0
 40
0
 40
0
 40
0
 40
1
 40
1
 40
1
 40
1
 10
95.326238
 20
59.961618
 30
0.0
 10
95.518873
 20
59.961618
 30
0.0
 10
95.660340
 20
59.867830
 30
0.0
 10
95.750639
 20
59.680254
 30
0.0
  0
SPLINE
  5
1d8
100
AcDbEntity
  8
Layer_1
 62
7
100
AcDbSpline
 70
8
 71
3
 72
8
 73
4
 74
0
 40
0
 40
0
 40
0
 40
0
 40
1
 40
1
 40
1
 40
1
 10
95.750639
 20
59.680254
 30
0.0
 10
95.846956
 20
59.492680
 30
0.0
 10
95.895115
 20
59.276969
 30
0.0
 10
95.895115
 20
59.033122
 30
0.0
  0
SPLINE
  5
1d9
100
AcDbEntity
  8
Layer_1
 62
7
100
AcDbSpline
 70
8
 71
3
 72
8
 73
4
 74
0
 40
0
 40
0
 40
0
 40
0
 40
1
 40
1
 40
1
 40
1
 10
95.895115
 20
59.033122
 30
0.0
 10
95.895115
 20
58.798653
 30
0.0
 10
95.846956
 20
58.587631
 30
0.0
 10
95.750639
 20
58.400056
 30
0.0
  0
SPLINE
  5
1da
100
AcDbEntity
  8
Layer_1
 62
7
100
AcDbSpline
 70
8
 71
3
 72
8
 73
4
 74
0
 40
0
 40
0
 40
0
 40
0
 40
1
 40
1
 40
1
 40
1
 10
95.750639
 20
58.400056
 30
0.0
 10
95.660340
 20
58.221860
 30
0.0
 10
95.518873
 20
58.132762
 30
0.0
 10
95.326238
 20
58.132762
 30
0.0
  0
SPLINE
  5
1db
100
AcDbEntity
  8
Layer_1
 62
7
100
AcDbSpline
 70
8
 71
3
 72
8
 73
4
 74
0
 40
0
 40
0
 40
0
 40
0
 40
1
 40
1
 40
1
 40
1
 10
95.326238
 20
58.132762
 30
0.0
 10
93.038689
 20
58.132762
 30
0.0
 10
90.751140
 20
58.132762
 30
0.0
 10
88.463591
 20
58.132762
 30
0.0
  0
SPLINE
  5
1dc
100
AcDbEntity
  8
Layer_1
 62
7
100
AcDbSpline
 70
8
 71
3
 72
8
 73
4
 74
0
 40
0
 40
0
 40
0
 40
0
 40
1
 40
1
 40
1
 40
1
 10
88.463591
 20
58.132762
 30
0.0
 10
88.307075
 20
58.132762
 30
0.0
 10
88.168618
 20
58.221860
 30
0.0
 10
88.048221
 20
58.400056
 30
0.0
  0
SPLINE
  5
1dd
100
AcDbEntity
  8
Layer_1
 62
7
100
AcDbSpline
 70
8
 71
3
 72
8
 73
4
 74
0
 40
0
 40
0
 40
0
 40
0
 40
1
 40
1
 40
1
 40
1
 10
88.048221
 20
58.400056
 30
0.0
 10
87.933843
 20
58.587631
 30
0.0
 10
87.876654
 20
58.803342
 30
0.0
 10
87.876654
 20
59.047190
 30
0.0
  0
SPLINE
  5
1de
100
AcDbEntity
  8
Layer_1
 62
7
100
AcDbSpline
 70
8
 71
3
 72
8
 73
4
 74
0
 40
0
 40
0
 40
0
 40
0
 40
1
 40
1
 40
1
 40
1
 10
87.876654
 20
59.047190
 30
0.0
 10
87.876654
 20
65.068344
 30
0.0
 10
87.876654
 20
71.094187
 30
0.0
 10
87.876654
 20
77.124719
 30
0.0
  0
SPLINE
  5
1df
100
AcDbEntity
  8
Layer_1
 62
7
100
AcDbSpline
 70
8
 71
3
 72
8
 73
4
 74
0
 40
0
 40
0
 40
0
 40
0
 40
1
 40
1
 40
1
 40
1
 10
87.876654
 20
77.124719
 30
0.0
 10
87.876654
 20
77.368566
 30
0.0
 10
87.933843
 20
77.579588
 30
0.0
 10
88.048221
 20
77.757784
 30
0.0
  0
SPLINE
  5
1e0
100
AcDbEntity
  8
Layer_1
 62
7
100
AcDbSpline
 70
8
 71
3
 72
8
 73
4
 74
0
 40
0
 40
0
 40
0
 40
0
 40
1
 40
1
 40
1
 40
1
 10
88.048221
 20
77.757784
 30
0.0
 10
88.168618
 20
77.945359
 30
0.0
 10
88.307075
 20
78.039146
 30
0.0
 10
88.463591
 20
78.039146
 30
0.0
  0
SPLINE
  5
1e1
100
AcDbEntity
  8
Layer_1
 62
7
100
AcDbSpline
 70
8
 71
3
 72
8
 73
4
 74
0
 40
0
 40
0
 40
0
 40
0
 40
1
 40
1
 40
1
 40
1
 10
88.463591
 20
78.039146
 30
0.0
 10
90.751140
 20
78.039146
 30
0.0
 10
93.038689
 20
78.039146
 30
0.0
 10
95.326238
 20
78.039146
 30
0.0
  0
SPLINE
  5
1e2
100
AcDbEntity
  8
Layer_1
 62
7
100
AcDbSpline
 70
8
 71
3
 72
8
 73
4
 74
0
 40
0
 40
0
 40
0
 40
0
 40
1
 40
1
 40
1
 40
1
 10
95.326238
 20
78.039146
 30
0.0
 10
95.518873
 20
78.039146
 30
0.0
 10
95.660340
 20
77.945359
 30
0.0
 10
95.750639
 20
77.757784
 30
0.0
  0
SPLINE
  5
1e3
100
AcDbEntity
  8
Layer_1
 62
7
100
AcDbSpline
 70
8
 71
3
 72
8
 73
4
 74
0
 40
0
 40
0
 40
0
 40
0
 40
1
 40
1
 40
1
 40
1
 10
95.750639
 20
77.757784
 30
0.0
 10
95.846956
 20
77.570209
 30
0.0
 10
95.895115
 20
77.354498
 30
0.0
 10
95.895115
 20
77.110651
 30
0.0
  0
SPLINE
  5
1e4
100
AcDbEntity
  8
Layer_1
 62
7
100
AcDbSpline
 70
8
 71
3
 72
8
 73
4
 74
0
 40
0
 40
0
 40
0
 40
0
 40
1
 40
1
 40
1
 40
1
 10
95.895115
 20
77.110651
 30
0.0
 10
95.895115
 20
76.876182
 30
0.0
 10
95.846956
 20
76.665160
 30
0.0
 10
95.750639
 20
76.477586
 30
0.0
  0
SPLINE
  5
1e5
100
AcDbEntity
  8
Layer_1
 62
7
100
AcDbSpline
 70
8
 71
3
 72
8
 73
4
 74
0
 40
0
 40
0
 40
0
 40
0
 40
1
 40
1
 40
1
 40
1
 10
95.750639
 20
76.477586
 30
0.0
 10
95.660340
 20
76.299389
 30
0.0
 10
95.518873
 20
76.210291
 30
0.0
 10
95.326238
 20
76.210291
 30
0.0
  0
SPLINE
  5
1e6
100
AcDbEntity
  8
Layer_1
 62
7
100
AcDbSpline
 70
8
 71
3
 72
8
 73
4
 74
0
 40
0
 40
0
 40
0
 40
0
 40
1
 40
1
 40
1
 40
1
 10
95.326238
 20
76.210291
 30
0.0
 10
93.237345
 20
76.210291
 30
0.0
 10
91.145442
 20
76.210291
 30
0.0
 10
89.050528
 20
76.210291
 30
0.0
  0
SPLINE
  5
1e7
100
AcDbEntity
  8
Layer_1
 62
7
100
AcDbSpline
 70
8
 71
3
 72
8
 73
4
 74
0
 40
0
 40
0
 40
0
 40
0
 40
1
 40
1
 40
1
 40
1
 10
89.050528
 20
76.210291
 30
0.0
 10
89.050528
 20
74.719071
 30
0.0
 10
89.050528
 20
73.227851
 30
0.0
 10
89.050528
 20
71.736631
 30
0.0
  0
SPLINE
  5
1e8
100
AcDbEntity
  8
Layer_1
 62
7
100
AcDbSpline
 70
8
 71
3
 72
8
 73
4
 74
0
 40
0
 40
0
 40
0
 40
0
 40
1
 40
1
 40
1
 40
1
 10
89.050528
 20
71.736631
 30
0.0
 10
90.826388
 20
71.736631
 30
0.0
 10
92.599238
 20
71.736631
 30
0.0
 10
94.369079
 20
71.736631
 30
0.0
  0
SPLINE
  5
1e9
100
AcDbEntity
  8
Layer_1
 62
7
100
AcDbSpline
 70
8
 71
3
 72
8
 73
4
 74
0
 40
0
 40
0
 40
0
 40
0
 40
1
 40
1
 40
1
 40
1
 10
94.369079
 20
71.736631
 30
0.0
 10
94.555695
 20
71.736631
 30
0.0
 10
94.697162
 20
71.642843
 30
0.0
 10
94.793479
 20
71.455269
 30
0.0
  0
SPLINE
  5
1ea
100
AcDbEntity
  8
Layer_1
 62
7
100
AcDbSpline
 70
8
 71
3
 72
8
 73
4
 74
0
 40
0
 40
0
 40
0
 40
0
 40
1
 40
1
 40
1
 40
1
 10
94.793479
 20
71.455269
 30
0.0
 10
94.889797
 20
71.267693
 30
0.0
 10
94.937956
 20
71.051982
 30
0.0
 10
94.937956
 20
70.808135
 30
0.0
  0
SPLINE
  5
1eb
100
AcDbEntity
  8
Layer_1
 62
7
100
AcDbSpline
 70
8
 71
3
 72
8
 73
4
 74
0
 40
0
 40
0
 40
0
 40
0
 40
1
 40
1
 40
1
 40
1
 10
94.937956
 20
70.808135
 30
0.0
 10
94.937956
 20
70.573667
 30
0.0
 10
94.889797
 20
70.362645
 30
0.0
 10
94.793479
 20
70.175069
 30
0.0
  0
SPLINE
  5
1ec
100
AcDbEntity
  8
Layer_1
 62
7
100
AcDbSpline
 70
8
 71
3
 72
8
 73
4
 74
0
 40
0
 40
0
 40
0
 40
0
 40
1
 40
1
 40
1
 40
1
 10
94.793479
 20
70.175069
 30
0.0
 10
94.697162
 20
69.996873
 30
0.0
 10
94.555695
 20
69.907775
 30
0.0
 10
94.369079
 20
69.907775
 30
0.0
  0
SPLINE
  5
1ed
100
AcDbEntity
  8
Layer_1
 62
7
100
AcDbSpline
 70
8
 71
3
 72
8
 73
4
 74
0
 40
0
 40
0
 40
0
 40
0
 40
1
 40
1
 40
1
 40
1
 10
94.369079
 20
69.907775
 30
0.0
 10
93.484159
 20
69.907775
 30
0.0
 10
92.599239
 20
69.907775
 30
0.0
 10
91.714318
 20
69.907775
 30
0.0
  0
SPLINE
  5
1ee
100
AcDbEntity
  8
Layer_1
 62
7
100
AcDbSpline
 70
8
 71
3
 72
8
 73
4
 74
0
 40
0
 40
0
 40
0
 40
0
 40
1
 40
1
 40
1
 40
1
 10
91.714318
 20
69.907775
 30
0.0
 10
90.829398
 20
69.907775
 30
0.0
 10
89.941468
 20
69.907775
 30
0.0
 10
89.050528
 20
69.907775
 30
0.0
  0
SPLINE
  5
1ef
100
AcDbEntity
  8
Layer_1
 62
7
100
AcDbSpline
 70
8
 71
3
 72
8
 73
4
 74
0
 40
0
 40
0
 40
0
 40
0
 40
1
 40
1
 40
1
 40
1
 10
89.050528
 20
69.907775
 30
0.0
 10
89.050528
 20
66.587700
 30
0.0
 10
89.050528
 20
63.272314
 30
0.0
 10
89.050528
 20
59.961618
 30
0.0
  0
SPLINE
  5
1f0
100
AcDbEntity
  8
Layer_1
 62
7
100
AcDbSpline
 70
8
 71
3
 72
8
 73
4
 74
0
 40
0
 40
0
 40
0
 40
0
 40
1
 40
1
 40
1
 40
1
 10
89.050528
 20
59.961618
 30
0.0
 10
91.145442
 20
59.961618
 30
0.0
 10
93.237345
 20
59.961618
 30
0.0
 10
95.326238
 20
59.961618
 30
0.0
  0
LWPOLYLINE
  5
1f1
100
AcDbEntity
  8
Layer_1
 62
7
100
AcDbPolyline
 90
2
 70
1
 10
95.326238
 20
59.961618
 30
0.0
 10
95.326238
 20
59.961618
 30
0.0
  0
LWPOLYLINE
  5
1f2
100
AcDbEntity
  8
Layer_1
 62
7
100
AcDbPolyline
 90
5
 70
0
 10
5.461634
 20
56.665255
 30
0.0
 10
5.461634
 20
-1.193152
 30
0.0
 10
94.535283
 20
-1.193152
 30
0.0
 10
5.461634
 20
-1.193152
 30
0.0
 10
5.461634
 20
-1.193152
 30
0.0
  0
SPLINE
  5
1f3
100
AcDbEntity
  8
Layer_1
 62
7
100
AcDbSpline
 70
8
 71
3
 72
8
 73
4
 74
0
 40
0
 40
0
 40
0
 40
0
 40
1
 40
1
 40
1
 40
1
 10
59.630621
 20
33.794167
 30
0.0
 10
59.640341
 20
36.221769
 30
0.0
 10
64.460816
 20
36.094072
 30
0.0
 10
67.069320
 20
35.875027
 30
0.0
  0
SPLINE
  5
1f4
100
AcDbEntity
  8
Layer_1
 62
7
100
AcDbSpline
 70
8
 71
3
 72
8
 73
4
 74
0
 40
0
 40
0
 40
0
 40
0
 40
1
 40
1
 40
1
 40
1
 10
67.069320
 20
35.875027
 30
0.0
 10
67.878230
 20
35.807240
 30
0.0
 10
69.000711
 20
35.987205
 30
0.0
 10
69.681834
 20
35.599076
 30
0.0
  0
SPLINE
  5
1f5
100
AcDbEntity
  8
Layer_1
 62
7
100
AcDbSpline
 70
8
 71
3
 72
8
 73
4
 74
0
 40
0
 40
0
 40
0
 40
0
 40
1
 40
1
 40
1
 40
1
 10
69.681834
 20
35.599076
 30
0.0
 10
71.308992
 20
34.671436
 30
0.0
 10
70.033172
 20
31.615286
 30
0.0
 10
69.358149
 20
30.526869
 30
0.0
  0
LWPOLYLINE
  5
1f6
100
AcDbEntity
  8
Layer_1
 62
7
100
AcDbPolyline
 90
2
 70
0
 10
52.764129
 20
32.296655
 30
0.0
 10
59.630621
 20
33.794167
 30
0.0
  0
SPLINE
  5
1f7
100
AcDbEntity
  8
Layer_1
 62
7
100
AcDbSpline
 70
8
 71
3
 72
8
 73
4
 74
0
 40
0
 40
0
 40
0
 40
0
 40
1
 40
1
 40
1
 40
1
 10
70.311831
 20
30.663004
 30
0.0
 10
70.154665
 20
29.175295
 30
0.0
 10
67.977604
 20
28.930384
 30
0.0
 10
66.306376
 20
28.620942
 30
0.0
  0
SPLINE
  5
1f8
100
AcDbEntity
  8
Layer_1
 62
7
100
AcDbSpline
 70
8
 71
3
 72
8
 73
4
 74
0
 40
0
 40
0
 40
0
 40
0
 40
1
 40
1
 40
1
 40
1
 10
66.306376
 20
28.620942
 30
0.0
 10
67.358475
 20
25.466910
 30
0.0
 10
64.211907
 20
22.731229
 30
0.0
 10
60.393565
 20
21.523009
 30
0.0
  0
SPLINE
  5
1f9
100
AcDbEntity
  8
Layer_1
 62
7
100
AcDbSpline
 70
8
 71
3
 72
8
 73
4
 74
0
 40
0
 40
0
 40
0
 40
0
 40
1
 40
1
 40
1
 40
1
 10
60.393565
 20
21.523009
 30
0.0
 10
59.014925
 20
21.086689
 30
0.0
 10
55.501762
 20
20.926728
 30
0.0
 10
55.243696
 20
19.772009
 30
0.0
  0
SPLINE
  5
1fa
100
AcDbEntity
  8
Layer_1
 62
7
100
AcDbSpline
 70
8
 71
3
 72
8
 73
4
 74
0
 40
0
 40
0
 40
0
 40
0
 40
1
 40
1
 40
1
 40
1
 10
55.243696
 20
19.772009
 30
0.0
 10
59.753264
 20
19.517978
 30
0.0
 10
63.049371
 20
17.872756
 30
0.0
 10
63.254603
 20
14.462650
 30
0.0
  0
LWPOLYLINE
  5
1fb
100
AcDbEntity
  8
Layer_1
 62
7
100
AcDbPolyline
 90
2
 70
0
 10
69.358149
 20
30.526869
 30
0.0
 10
70.311831
 20
30.663004
 30
0.0
  0
SPLINE
  5
1fc
100
AcDbEntity
  8
Layer_1
 62
7
100
AcDbSpline
 70
8
 71
3
 72
8
 73
4
 74
0
 40
0
 40
0
 40
0
 40
0
 40
1
 40
1
 40
1
 40
1
 10
63.445339
 20
14.462650
 30
0.0
 10
63.998091
 20
18.398791
 30
0.0
 10
70.682236
 20
21.291985
 30
0.0
 10
74.467969
 20
17.457538
 30
0.0
  0
SPLINE
  5
1fd
100
AcDbEntity
  8
Layer_1
 62
7
100
AcDbSpline
 70
8
 71
3
 72
8
 73
4
 74
0
 40
0
 40
0
 40
0
 40
0
 40
1
 40
1
 40
1
 40
1
 10
74.467969
 20
17.457538
 30
0.0
 10
75.006037
 20
16.912580
 30
0.0
 10
75.404675
 20
16.329094
 30
0.0
 10
75.652427
 20
15.687887
 30
0.0
  0
LWPOLYLINE
  5
1fe
100
AcDbEntity
  8
Layer_1
 62
7
100
AcDbPolyline
 90
2
 70
0
 10
63.254603
 20
14.462650
 30
0.0
 10
63.445339
 20
14.462650
 30
0.0
  0
SPLINE
  5
1ff
100
AcDbEntity
  8
Layer_1
 62
7
100
AcDbSpline
 70
8
 71
3
 72
8
 73
4
 74
0
 40
0
 40
0
 40
0
 40
0
 40
1
 40
1
 40
1
 40
1
 10
75.843174
 20
15.687887
 30
0.0
 10
75.371094
 20
17.504097
 30
0.0
 10
77.292386
 20
17.888412
 30
0.0
 10
79.276412
 20
18.580126
 30
0.0
  0
SPLINE
  5
200
100
AcDbEntity
  8
Layer_1
 62
7
100
AcDbSpline
 70
8
 71
3
 72
8
 73
4
 74
0
 40
0
 40
0
 40
0
 40
0
 40
1
 40
1
 40
1
 40
1
 10
79.276412
 20
18.580126
 30
0.0
 10
79.980614
 20
18.825583
 30
0.0
 10
80.940587
 20
19.260814
 30
0.0
 10
81.755221
 20
19.091596
 30
0.0
  0
SPLINE
  5
201
100
AcDbEntity
  8
Layer_1
 62
7
100
AcDbSpline
 70
8
 71
3
 72
8
 73
4
 74
0
 40
0
 40
0
 40
0
 40
0
 40
1
 40
1
 40
1
 40
1
 10
81.755221
 20
19.091596
 30
0.0
 10
82.962762
 20
18.840966
 30
0.0
 10
83.499882
 20
17.687882
 30
0.0
 10
84.235542
 20
17.049260
 30
0.0
  0
SPLINE
  5
202
100
AcDbEntity
  8
Layer_1
 62
7
100
AcDbSpline
 70
8
 71
3
 72
8
 73
4
 74
0
 40
0
 40
0
 40
0
 40
0
 40
1
 40
1
 40
1
 40
1
 10
84.235542
 20
17.049260
 30
0.0
 10
84.622935
 20
17.861457
 30
0.0
 10
85.204301
 20
19.190567
 30
0.0
 10
86.341838
 20
19.610960
 30
0.0
  0
SPLINE
  5
203
100
AcDbEntity
  8
Layer_1
 62
7
100
AcDbSpline
 70
8
 71
3
 72
8
 73
4
 74
0
 40
0
 40
0
 40
0
 40
0
 40
1
 40
1
 40
1
 40
1
 10
86.341838
 20
19.610960
 30
0.0
 10
87.692445
 20
20.110040
 30
0.0
 10
92.372916
 20
18.984591
 30
0.0
 10
92.598940
 20
17.865951
 30
0.0
  0
SPLINE
  5
204
100
AcDbEntity
  8
Layer_1
 62
7
100
AcDbSpline
 70
8
 71
3
 72
8
 73
4
 74
0
 40
0
 40
0
 40
0
 40
0
 40
1
 40
1
 40
1
 40
1
 10
92.598940
 20
17.865951
 30
0.0
 10
92.875506
 20
16.497906
 30
0.0
 10
91.391964
 20
14.945393
 30
0.0
 10
90.576950
 20
13.781963
 30
0.0
  0
SPLINE
  5
205
100
AcDbEntity
  8
Layer_1
 62
7
100
AcDbSpline
 70
8
 71
3
 72
8
 73
4
 74
0
 40
0
 40
0
 40
0
 40
0
 40
1
 40
1
 40
1
 40
1
 10
90.576950
 20
13.781963
 30
0.0
 10
90.232473
 20
13.290371
 30
0.0
 10
89.488990
 20
12.587494
 30
0.0
 10
89.708523
 20
12.012178
 30
0.0
  0
SPLINE
  5
206
100
AcDbEntity
  8
Layer_1
 62
7
100
AcDbSpline
 70
8
 71
3
 72
8
 73
4
 74
0
 40
0
 40
0
 40
0
 40
0
 40
1
 40
1
 40
1
 40
1
 10
89.708523
 20
12.012178
 30
0.0
 10
90.423970
 20
10.136201
 30
0.0
 10
94.657553
 20
8.705534
 30
0.0
 10
94.294010
 20
6.566681
 30
0.0
  0
SPLINE
  5
207
100
AcDbEntity
  8
Layer_1
 62
7
100
AcDbSpline
 70
8
 71
3
 72
8
 73
4
 74
0
 40
0
 40
0
 40
0
 40
0
 40
1
 40
1
 40
1
 40
1
 10
94.294010
 20
6.566681
 30
0.0
 10
94.092016
 20
5.377382
 30
0.0
 10
90.645229
 20
2.500800
 30
0.0
 10
88.813206
 20
2.992120
 30
0.0
  0
SPLINE
  5
208
100
AcDbEntity
  8
Layer_1
 62
7
100
AcDbSpline
 70
8
 71
3
 72
8
 73
4
 74
0
 40
0
 40
0
 40
0
 40
0
 40
1
 40
1
 40
1
 40
1
 10
88.813206
 20
2.992120
 30
0.0
 10
87.084373
 20
3.455803
 30
0.0
 10
85.781648
 20
5.404609
 30
0.0
 10
85.189222
 20
6.566681
 30
0.0
  0
LWPOLYLINE
  5
209
100
AcDbEntity
  8
Layer_1
 62
7
100
AcDbPolyline
 90
2
 70
0
 10
75.652427
 20
15.687887
 30
0.0
 10
75.843174
 20
15.687887
 30
0.0
  0
SPLINE
  5
20a
100
AcDbEntity
  8
Layer_1
 62
7
100
AcDbSpline
 70
8
 71
3
 72
8
 73
4
 74
0
 40
0
 40
0
 40
0
 40
0
 40
1
 40
1
 40
1
 40
1
 10
84.998488
 20
6.566681
 30
0.0
 10
84.563044
 20
5.430340
 30
0.0
 10
83.705298
 20
3.127576
 30
0.0
 10
82.308168
 20
2.428510
 30
0.0
  0
SPLINE
  5
20b
100
AcDbEntity
  8
Layer_1
 62
7
100
AcDbSpline
 70
8
 71
3
 72
8
 73
4
 74
0
 40
0
 40
0
 40
0
 40
0
 40
1
 40
1
 40
1
 40
1
 10
82.308168
 20
2.428510
 30
0.0
 10
81.080398
 20
1.814259
 30
0.0
 10
76.691175
 20
2.560697
 30
0.0
 10
76.148922
 20
3.574243
 30
0.0
  0
SPLINE
  5
20c
100
AcDbEntity
  8
Layer_1
 62
7
100
AcDbSpline
 70
8
 71
3
 72
8
 73
4
 74
0
 40
0
 40
0
 40
0
 40
0
 40
1
 40
1
 40
1
 40
1
 10
76.148922
 20
3.574243
 30
0.0
 10
74.864883
 20
5.974755
 30
0.0
 10
79.611354
 20
8.654891
 30
0.0
 10
79.965931
 20
10.884278
 30
0.0
  0
SPLINE
  5
20d
100
AcDbEntity
  8
Layer_1
 62
7
100
AcDbSpline
 70
8
 71
3
 72
8
 73
4
 74
0
 40
0
 40
0
 40
0
 40
0
 40
1
 40
1
 40
1
 40
1
 10
79.965931
 20
10.884278
 30
0.0
 10
80.041603
 20
11.360896
 30
0.0
 10
79.338029
 20
11.904492
 30
0.0
 10
79.004812
 20
12.284452
 30
0.0
  0
SPLINE
  5
20e
100
AcDbEntity
  8
Layer_1
 62
7
100
AcDbSpline
 70
8
 71
3
 72
8
 73
4
 74
0
 40
0
 40
0
 40
0
 40
0
 40
1
 40
1
 40
1
 40
1
 10
79.004812
 20
12.284452
 30
0.0
 10
78.032432
 20
13.392475
 30
0.0
 10
76.684697
 20
14.462378
 30
0.0
 10
76.033908
 20
15.687887
 30
0.0
  0
LWPOLYLINE
  5
20f
100
AcDbEntity
  8
Layer_1
 62
7
100
AcDbPolyline
 90
2
 70
0
 10
85.189222
 20
6.566681
 30
0.0
 10
84.998488
 20
6.566681
 30
0.0
  0
SPLINE
  5
210
100
AcDbEntity
  8
Layer_1
 62
7
100
AcDbSpline
 70
8
 71
3
 72
8
 73
4
 74
0
 40
0
 40
0
 40
0
 40
0
 40
1
 40
1
 40
1
 40
1
 10
75.843174
 20
15.687887
 30
0.0
 10
76.254020
 20
14.408875
 30
0.0
 10
77.436002
 20
12.277100
 30
0.0
 10
76.090559
 20
11.090255
 30
0.0
  0
SPLINE
  5
211
100
AcDbEntity
  8
Layer_1
 62
7
100
AcDbSpline
 70
8
 71
3
 72
8
 73
4
 74
0
 40
0
 40
0
 40
0
 40
0
 40
1
 40
1
 40
1
 40
1
 10
76.090559
 20
11.090255
 30
0.0
 10
74.978369
 20
10.109248
 30
0.0
 10
70.288364
 20
10.158121
 30
0.0
 10
68.595207
 20
10.106252
 30
0.0
  0
SPLINE
  5
212
100
AcDbEntity
  8
Layer_1
 62
7
100
AcDbSpline
 70
8
 71
3
 72
8
 73
4
 74
0
 40
0
 40
0
 40
0
 40
0
 40
1
 40
1
 40
1
 40
1
 10
68.595207
 20
10.106252
 30
0.0
 10
69.556891
 20
9.387039
 30
0.0
 10
71.583464
 20
10.034246
 30
0.0
 10
72.104176
 20
9.138451
 30
0.0
  0
SPLINE
  5
213
100
AcDbEntity
  8
Layer_1
 62
7
100
AcDbSpline
 70
8
 71
3
 72
8
 73
4
 74
0
 40
0
 40
0
 40
0
 40
0
 40
1
 40
1
 40
1
 40
1
 10
72.104176
 20
9.138451
 30
0.0
 10
72.535050
 20
8.397047
 30
0.0
 10
71.966119
 20
7.316798
 30
0.0
 10
71.790606
 20
6.566681
 30
0.0
  0
SPLINE
  5
214
100
AcDbEntity
  8
Layer_1
 62
7
100
AcDbSpline
 70
8
 71
3
 72
8
 73
4
 74
0
 40
0
 40
0
 40
0
 40
0
 40
1
 40
1
 40
1
 40
1
 10
71.790606
 20
6.566681
 30
0.0
 10
71.557522
 20
5.570154
 30
0.0
 10
71.472270
 20
4.109807
 30
0.0
 10
70.396320
 20
3.358466
 30
0.0
  0
SPLINE
  5
215
100
AcDbEntity
  8
Layer_1
 62
7
100
AcDbSpline
 70
8
 71
3
 72
8
 73
4
 74
0
 40
0
 40
0
 40
0
 40
0
 40
1
 40
1
 40
1
 40
1
 10
70.396320
 20
3.358466
 30
0.0
 10
68.905343
 20
2.317149
 30
0.0
 10
66.134714
 20
3.494872
 30
0.0
 10
64.971224
 20
4.252343
 30
0.0
  0
SPLINE
  5
216
100
AcDbEntity
  8
Layer_1
 62
7
100
AcDbSpline
 70
8
 71
3
 72
8
 73
4
 74
0
 40
0
 40
0
 40
0
 40
0
 40
1
 40
1
 40
1
 40
1
 10
64.971224
 20
4.252343
 30
0.0
 10
64.971224
 20
3.390320
 30
0.0
 10
65.277928
 20
2.154194
 30
0.0
 10
64.426864
 20
1.447095
 30
0.0
  0
SPLINE
  5
217
100
AcDbEntity
  8
Layer_1
 62
7
100
AcDbSpline
 70
8
 71
3
 72
8
 73
4
 74
0
 40
0
 40
0
 40
0
 40
0
 40
1
 40
1
 40
1
 40
1
 10
64.426864
 20
1.447095
 30
0.0
 10
63.586675
 20
0.749256
 30
0.0
 10
58.945308
 20
0.417080
 30
0.0
 10
58.191709
 20
1.288365
 30
0.0
  0
SPLINE
  5
218
100
AcDbEntity
  8
Layer_1
 62
7
100
AcDbSpline
 70
8
 71
3
 72
8
 73
4
 74
0
 40
0
 40
0
 40
0
 40
0
 40
1
 40
1
 40
1
 40
1
 10
58.191709
 20
1.288365
 30
0.0
 10
56.568548
 20
3.165155
 30
0.0
 10
59.326397
 20
6.044324
 30
0.0
 10
56.960319
 20
7.791921
 30
0.0
  0
SPLINE
  5
219
100
AcDbEntity
  8
Layer_1
 62
7
100
AcDbSpline
 70
8
 71
3
 72
8
 73
4
 74
0
 40
0
 40
0
 40
0
 40
0
 40
1
 40
1
 40
1
 40
1
 10
56.960319
 20
7.791921
 30
0.0
 10
57.275796
 20
6.846311
 30
0.0
 10
57.660510
 20
4.567779
 30
0.0
 10
56.796668
 20
3.745781
 30
0.0
  0
SPLINE
  5
21a
100
AcDbEntity
  8
Layer_1
 62
7
100
AcDbSpline
 70
8
 71
3
 72
8
 73
4
 74
0
 40
0
 40
0
 40
0
 40
0
 40
1
 40
1
 40
1
 40
1
 10
56.796668
 20
3.745781
 30
0.0
 10
55.974977
 20
2.963808
 30
0.0
 10
51.494592
 20
2.693031
 30
0.0
 10
50.642957
 20
3.466563
 30
0.0
  0
SPLINE
  5
21b
100
AcDbEntity
  8
Layer_1
 62
7
100
AcDbSpline
 70
8
 71
3
 72
8
 73
4
 74
0
 40
0
 40
0
 40
0
 40
0
 40
1
 40
1
 40
1
 40
1
 10
50.642957
 20
3.466563
 30
0.0
 10
49.992166
 20
4.057807
 30
0.0
 10
50.093828
 20
4.909621
 30
0.0
 10
50.093828
 20
5.613723
 30
0.0
  0
LWPOLYLINE
  5
21c
100
AcDbEntity
  8
Layer_1
 62
7
100
AcDbPolyline
 90
2
 70
0
 10
76.033908
 20
15.687887
 30
0.0
 10
75.843174
 20
15.687887
 30
0.0
  0
SPLINE
  5
21d
100
AcDbEntity
  8
Layer_1
 62
7
100
AcDbSpline
 70
8
 71
3
 72
8
 73
4
 74
0
 40
0
 40
0
 40
0
 40
0
 40
1
 40
1
 40
1
 40
1
 10
50.093828
 20
10.242395
 30
0.0
 10
48.623825
 20
9.196042
 30
0.0
 10
47.216576
 20
8.184814
 30
0.0
 10
45.134695
 20
9.017158
 30
0.0
  0
SPLINE
  5
21e
100
AcDbEntity
  8
Layer_1
 62
7
100
AcDbSpline
 70
8
 71
3
 72
8
 73
4
 74
0
 40
0
 40
0
 40
0
 40
0
 40
1
 40
1
 40
1
 40
1
 10
45.134695
 20
9.017158
 30
0.0
 10
45.607148
 20
7.648569
 30
0.0
 10
46.472897
 20
4.967614
 30
0.0
 10
45.186581
 20
3.725905
 30
0.0
  0
SPLINE
  5
21f
100
AcDbEntity
  8
Layer_1
 62
7
100
AcDbSpline
 70
8
 71
3
 72
8
 73
4
 74
0
 40
0
 40
0
 40
0
 40
0
 40
1
 40
1
 40
1
 40
1
 10
45.186581
 20
3.725905
 30
0.0
 10
44.329222
 20
2.898327
 30
0.0
 10
40.106522
 20
2.483379
 30
0.0
 10
39.128999
 20
3.319534
 30
0.0
  0
SPLINE
  5
220
100
AcDbEntity
  8
Layer_1
 62
7
100
AcDbSpline
 70
8
 71
3
 72
8
 73
4
 74
0
 40
0
 40
0
 40
0
 40
0
 40
1
 40
1
 40
1
 40
1
 10
39.128999
 20
3.319534
 30
0.0
 10
38.084722
 20
4.212869
 30
0.0
 10
38.268210
 20
5.889400
 30
0.0
 10
38.268210
 20
6.975098
 30
0.0
  0
LWPOLYLINE
  5
221
100
AcDbEntity
  8
Layer_1
 62
7
100
AcDbPolyline
 90
2
 70
0
 10
50.093828
 20
5.613723
 30
0.0
 10
50.093828
 20
10.242395
 30
0.0
  0
SPLINE
  5
222
100
AcDbEntity
  8
Layer_1
 62
7
100
AcDbSpline
 70
8
 71
3
 72
8
 73
4
 74
0
 40
0
 40
0
 40
0
 40
0
 40
1
 40
1
 40
1
 40
1
 10
37.695998
 20
6.975098
 30
0.0
 10
37.684116
 20
5.955292
 30
0.0
 10
37.709016
 20
4.024863
 30
0.0
 10
36.794198
 20
3.194289
 30
0.0
  0
SPLINE
  5
223
100
AcDbEntity
  8
Layer_1
 62
7
100
AcDbSpline
 70
8
 71
3
 72
8
 73
4
 74
0
 40
0
 40
0
 40
0
 40
0
 40
1
 40
1
 40
1
 40
1
 10
36.794198
 20
3.194289
 30
0.0
 10
35.844714
 20
2.331994
 30
0.0
 10
31.546291
 20
2.956730
 30
0.0
 10
30.862884
 20
3.849927
 30
0.0
  0
SPLINE
  5
224
100
AcDbEntity
  8
Layer_1
 62
7
100
AcDbSpline
 70
8
 71
3
 72
8
 73
4
 74
0
 40
0
 40
0
 40
0
 40
0
 40
1
 40
1
 40
1
 40
1
 10
30.862884
 20
3.849927
 30
0.0
 10
29.586290
 20
5.518563
 30
0.0
 10
30.909998
 20
8.989521
 30
0.0
 10
31.783186
 20
10.650808
 30
0.0
  0
LWPOLYLINE
  5
225
100
AcDbEntity
  8
Layer_1
 62
7
100
AcDbPolyline
 90
2
 70
0
 10
38.268210
 20
6.975098
 30
0.0
 10
37.695998
 20
6.975098
 30
0.0
  0
SPLINE
  5
226
100
AcDbEntity
  8
Layer_1
 62
7
100
AcDbSpline
 70
8
 71
3
 72
8
 73
4
 74
0
 40
0
 40
0
 40
0
 40
0
 40
1
 40
1
 40
1
 40
1
 10
24.916694
 20
10.106257
 30
0.0
 10
25.889066
 20
9.379148
 30
0.0
 10
27.677024
 20
10.036684
 30
0.0
 10
28.344600
 20
9.258394
 30
0.0
  0
SPLINE
  5
227
100
AcDbEntity
  8
Layer_1
 62
7
100
AcDbSpline
 70
8
 71
3
 72
8
 73
4
 74
0
 40
0
 40
0
 40
0
 40
0
 40
1
 40
1
 40
1
 40
1
 10
28.344600
 20
9.258394
 30
0.0
 10
28.760403
 20
8.773472
 30
0.0
 10
28.454266
 20
8.036696
 30
0.0
 10
28.334662
 20
7.519647
 30
0.0
  0
SPLINE
  5
228
100
AcDbEntity
  8
Layer_1
 62
7
100
AcDbSpline
 70
8
 71
3
 72
8
 73
4
 74
0
 40
0
 40
0
 40
0
 40
0
 40
1
 40
1
 40
1
 40
1
 10
28.334662
 20
7.519647
 30
0.0
 10
28.045125
 20
6.269225
 30
0.0
 10
28.007169
 20
3.227233
 30
0.0
 10
25.678856
 20
3.041951
 30
0.0
  0
SPLINE
  5
229
100
AcDbEntity
  8
Layer_1
 62
7
100
AcDbSpline
 70
8
 71
3
 72
8
 73
4
 74
0
 40
0
 40
0
 40
0
 40
0
 40
1
 40
1
 40
1
 40
1
 10
25.678856
 20
3.041951
 30
0.0
 10
18.932852
 20
2.504887
 30
0.0
 10
18.106299
 20
9.739912
 30
0.0
 10
19.194599
 20
12.965144
 30
0.0
  0
LWPOLYLINE
  5
22a
100
AcDbEntity
  8
Layer_1
 62
7
100
AcDbPolyline
 90
2
 70
0
 10
31.783186
 20
10.650808
 30
0.0
 10
24.916694
 20
10.106257
 30
0.0
  0
SPLINE
  5
22b
100
AcDbEntity
  8
Layer_1
 62
7
100
AcDbSpline
 70
8
 71
3
 72
8
 73
4
 74
0
 40
0
 40
0
 40
0
 40
0
 40
1
 40
1
 40
1
 40
1
 10
16.715033
 20
12.965144
 30
0.0
 10
16.715033
 20
10.173918
 30
0.0
 10
18.118295
 20
6.013422
 30
0.0
 10
16.227149
 20
3.438110
 30
0.0
  0
SPLINE
  5
22c
100
AcDbEntity
  8
Layer_1
 62
7
100
AcDbSpline
 70
8
 71
3
 72
8
 73
4
 74
0
 40
0
 40
0
 40
0
 40
0
 40
1
 40
1
 40
1
 40
1
 10
16.227149
 20
3.438110
 30
0.0
 10
15.382323
 20
2.287749
 30
0.0
 10
10.508678
 20
1.980486
 30
0.0
 10
9.501211
 20
3.192382
 30
0.0
  0
SPLINE
  5
22d
100
AcDbEntity
  8
Layer_1
 62
7
100
AcDbSpline
 70
8
 71
3
 72
8
 73
4
 74
0
 40
0
 40
0
 40
0
 40
0
 40
1
 40
1
 40
1
 40
1
 10
9.501211
 20
3.192382
 30
0.0
 10
8.964839
 20
3.837535
 30
0.0
 10
9.276311
 20
5.024108
 30
0.0
 10
9.276369
 20
5.749856
 30
0.0
  0
SPLINE
  5
22e
100
AcDbEntity
  8
Layer_1
 62
7
100
AcDbSpline
 70
8
 71
3
 72
8
 73
4
 74
0
 40
0
 40
0
 40
0
 40
0
 40
1
 40
1
 40
1
 40
1
 10
9.276369
 20
5.749856
 30
0.0
 10
9.276578
 20
8.064874
 30
0.0
 10
9.657841
 20
10.373900
 30
0.0
 10
9.657841
 20
12.692866
 30
0.0
  0
SPLINE
  5
22f
100
AcDbEntity
  8
Layer_1
 62
7
100
AcDbSpline
 70
8
 71
3
 72
8
 73
4
 74
0
 40
0
 40
0
 40
0
 40
0
 40
1
 40
1
 40
1
 40
1
 10
9.657841
 20
12.692866
 30
0.0
 10
8.847118
 20
12.585450
 30
0.0
 10
7.757997
 20
12.394996
 30
0.0
 10
7.040667
 20
12.793879
 30
0.0
  0
SPLINE
  5
230
100
AcDbEntity
  8
Layer_1
 62
7
100
AcDbSpline
 70
8
 71
3
 72
8
 73
4
 74
0
 40
0
 40
0
 40
0
 40
0
 40
1
 40
1
 40
1
 40
1
 10
7.040667
 20
12.793879
 30
0.0
 10
6.374980
 20
13.164173
 30
0.0
 10
6.453394
 20
13.791495
 30
0.0
 10
6.398406
 20
14.326515
 30
0.0
  0
SPLINE
  5
231
100
AcDbEntity
  8
Layer_1
 62
7
100
AcDbSpline
 70
8
 71
3
 72
8
 73
4
 74
0
 40
0
 40
0
 40
0
 40
0
 40
1
 40
1
 40
1
 40
1
 10
6.398406
 20
14.326515
 30
0.0
 10
6.265116
 20
15.623224
 30
0.0
 10
5.781126
 20
17.518257
 30
0.0
 10
6.957661
 20
18.662763
 30
0.0
  0
SPLINE
  5
232
100
AcDbEntity
  8
Layer_1
 62
7
100
AcDbSpline
 70
8
 71
3
 72
8
 73
4
 74
0
 40
0
 40
0
 40
0
 40
0
 40
1
 40
1
 40
1
 40
1
 10
6.957661
 20
18.662763
 30
0.0
 10
7.820120
 20
19.501642
 30
0.0
 10
10.295184
 20
19.177636
 30
0.0
 10
11.565199
 20
19.239716
 30
0.0
  0
SPLINE
  5
233
100
AcDbEntity
  8
Layer_1
 62
7
100
AcDbSpline
 70
8
 71
3
 72
8
 73
4
 74
0
 40
0
 40
0
 40
0
 40
0
 40
1
 40
1
 40
1
 40
1
 10
11.565199
 20
19.239716
 30
0.0
 10
13.691046
 20
19.343591
 30
0.0
 10
18.774387
 20
20.040747
 30
0.0
 10
20.087679
 20
18.396343
 30
0.0
  0
SPLINE
  5
234
100
AcDbEntity
  8
Layer_1
 62
7
100
AcDbSpline
 70
8
 71
3
 72
8
 73
4
 74
0
 40
0
 40
0
 40
0
 40
0
 40
1
 40
1
 40
1
 40
1
 10
20.087679
 20
18.396343
 30
0.0
 10
20.608673
 20
17.743974
 30
0.0
 10
20.339049
 20
16.687138
 30
0.0
 10
20.339049
 20
15.960163
 30
0.0
  0
LWPOLYLINE
  5
235
100
AcDbEntity
  8
Layer_1
 62
7
100
AcDbPolyline
 90
2
 70
0
 10
19.194599
 20
12.965144
 30
0.0
 10
16.715033
 20
12.965144
 30
0.0
  0
SPLINE
  5
236
100
AcDbEntity
  8
Layer_1
 62
7
100
AcDbSpline
 70
8
 71
3
 72
8
 73
4
 74
0
 40
0
 40
0
 40
0
 40
0
 40
1
 40
1
 40
1
 40
1
 10
20.529785
 20
15.960163
 30
0.0
 10
20.776178
 20
16.558080
 30
0.0
 10
21.210636
 20
17.084796
 30
0.0
 10
21.714082
 20
17.593814
 30
0.0
  0
SPLINE
  5
237
100
AcDbEntity
  8
Layer_1
 62
7
100
AcDbSpline
 70
8
 71
3
 72
8
 73
4
 74
0
 40
0
 40
0
 40
0
 40
0
 40
1
 40
1
 40
1
 40
1
 10
21.714082
 20
17.593814
 30
0.0
 10
25.877447
 20
21.803183
 30
0.0
 10
32.303529
 20
17.568751
 30
0.0
 10
32.736881
 20
13.781965
 30
0.0
  0
LWPOLYLINE
  5
238
100
AcDbEntity
  8
Layer_1
 62
7
100
AcDbPolyline
 90
2
 70
0
 10
20.339049
 20
15.960163
 30
0.0
 10
20.529785
 20
15.960163
 30
0.0
  0
SPLINE
  5
239
100
AcDbEntity
  8
Layer_1
 62
7
100
AcDbSpline
 70
8
 71
3
 72
8
 73
4
 74
0
 40
0
 40
0
 40
0
 40
0
 40
1
 40
1
 40
1
 40
1
 10
29.875842
 20
18.410637
 30
0.0
 10
29.538431
 20
19.504230
 30
0.0
 10
31.325817
 20
20.212962
 30
0.0
 10
32.546145
 20
20.588837
 30
0.0
  0
SPLINE
  5
23a
100
AcDbEntity
  8
Layer_1
 62
7
100
AcDbSpline
 70
8
 71
3
 72
8
 73
4
 74
0
 40
0
 40
0
 40
0
 40
0
 40
1
 40
1
 40
1
 40
1
 10
32.546145
 20
20.588837
 30
0.0
 10
31.454944
 20
20.934082
 30
0.0
 10
29.215515
 20
21.046667
 30
0.0
 10
28.476223
 20
21.745731
 30
0.0
  0
SPLINE
  5
23b
100
AcDbEntity
  8
Layer_1
 62
7
100
AcDbSpline
 70
8
 71
3
 72
8
 73
4
 74
0
 40
0
 40
0
 40
0
 40
0
 40
1
 40
1
 40
1
 40
1
 10
28.476223
 20
21.745731
 30
0.0
 10
27.592162
 20
22.581752
 30
0.0
 10
31.535054
 20
23.806989
 30
0.0
 10
32.355409
 20
23.992272
 30
0.0
  0
LWPOLYLINE
  5
23c
100
AcDbEntity
  8
Layer_1
 62
7
100
AcDbPolyline
 90
5
 70
0
 10
32.736881
 20
13.781965
 30
0.0
 10
32.927617
 20
13.781965
 30
0.0
 10
34.303012
 20
17.729950
 30
0.0
 10
33.499824
 20
20.180425
 30
0.0
 10
29.875842
 20
18.410637
 30
0.0
  0
SPLINE
  5
23d
100
AcDbEntity
  8
Layer_1
 62
7
100
AcDbSpline
 70
8
 71
3
 72
8
 73
4
 74
0
 40
0
 40
0
 40
0
 40
0
 40
1
 40
1
 40
1
 40
1
 10
32.355409
 20
24.400684
 30
0.0
 10
31.629087
 20
24.618777
 30
0.0
 10
29.343117
 20
25.394079
 30
0.0
 10
29.343117
 20
26.046994
 30
0.0
  0
SPLINE
  5
23e
100
AcDbEntity
  8
Layer_1
 62
7
100
AcDbSpline
 70
8
 71
3
 72
8
 73
4
 74
0
 40
0
 40
0
 40
0
 40
0
 40
1
 40
1
 40
1
 40
1
 10
29.343117
 20
26.046994
 30
0.0
 10
29.343117
 20
26.808411
 30
0.0
 10
31.345844
 20
27.738638
 30
0.0
 10
32.164673
 20
28.076394
 30
0.0
  0
LWPOLYLINE
  5
23f
100
AcDbEntity
  8
Layer_1
 62
7
100
AcDbPolyline
 90
2
 70
0
 10
32.355409
 20
23.992272
 30
0.0
 10
32.355409
 20
24.400684
 30
0.0
  0
SPLINE
  5
240
100
AcDbEntity
  8
Layer_1
 62
7
100
AcDbSpline
 70
8
 71
3
 72
8
 73
4
 74
0
 40
0
 40
0
 40
0
 40
0
 40
1
 40
1
 40
1
 40
1
 10
32.164673
 20
28.212528
 30
0.0
 10
31.350803
 20
28.521832
 30
0.0
 10
28.538976
 20
29.414484
 30
0.0
 10
28.955733
 20
30.256630
 30
0.0
  0
SPLINE
  5
241
100
AcDbEntity
  8
Layer_1
 62
7
100
AcDbSpline
 70
8
 71
3
 72
8
 73
4
 74
0
 40
0
 40
0
 40
0
 40
0
 40
1
 40
1
 40
1
 40
1
 10
28.955733
 20
30.256630
 30
0.0
 10
29.322517
 20
30.997763
 30
0.0
 10
31.200313
 20
31.478328
 30
0.0
 10
31.200313
 20
32.294608
 30
0.0
  0
SPLINE
  5
242
100
AcDbEntity
  8
Layer_1
 62
7
100
AcDbSpline
 70
8
 71
3
 72
8
 73
4
 74
0
 40
0
 40
0
 40
0
 40
0
 40
1
 40
1
 40
1
 40
1
 10
31.200313
 20
32.294608
 30
0.0
 10
31.200504
 20
33.142743
 30
0.0
 10
28.891073
 20
33.434894
 30
0.0
 10
29.510202
 20
34.474848
 30
0.0
  0
SPLINE
  5
243
100
AcDbEntity
  8
Layer_1
 62
7
100
AcDbSpline
 70
8
 71
3
 72
8
 73
4
 74
0
 40
0
 40
0
 40
0
 40
0
 40
1
 40
1
 40
1
 40
1
 10
29.510202
 20
34.474848
 30
0.0
 10
30.050365
 20
35.382477
 30
0.0
 10
31.965545
 20
35.836904
 30
0.0
 10
32.315927
 20
36.789184
 30
0.0
  0
SPLINE
  5
244
100
AcDbEntity
  8
Layer_1
 62
7
100
AcDbSpline
 70
8
 71
3
 72
8
 73
4
 74
0
 40
0
 40
0
 40
0
 40
0
 40
1
 40
1
 40
1
 40
1
 10
32.315927
 20
36.789184
 30
0.0
 10
32.618051
 20
37.610094
 30
0.0
 10
30.483717
 20
38.183233
 30
0.0
 10
30.082981
 20
38.836012
 30
0.0
  0
SPLINE
  5
245
100
AcDbEntity
  8
Layer_1
 62
7
100
AcDbSpline
 70
8
 71
3
 72
8
 73
4
 74
0
 40
0
 40
0
 40
0
 40
0
 40
1
 40
1
 40
1
 40
1
 10
30.082981
 20
38.836012
 30
0.0
 10
29.533090
 20
39.732341
 30
0.0
 10
32.782658
 20
40.764262
 30
0.0
 10
33.690560
 20
41.009446
 30
0.0
  0
SPLINE
  5
246
100
AcDbEntity
  8
Layer_1
 62
7
100
AcDbSpline
 70
8
 71
3
 72
8
 73
4
 74
0
 40
0
 40
0
 40
0
 40
0
 40
1
 40
1
 40
1
 40
1
 10
33.690560
 20
41.009446
 30
0.0
 10
33.345328
 20
41.787608
 30
0.0
 10
32.186799
 20
42.520979
 30
0.0
 10
32.082084
 20
43.323264
 30
0.0
  0
SPLINE
  5
247
100
AcDbEntity
  8
Layer_1
 62
7
100
AcDbSpline
 70
8
 71
3
 72
8
 73
4
 74
0
 40
0
 40
0
 40
0
 40
0
 40
1
 40
1
 40
1
 40
1
 10
32.082084
 20
43.323264
 30
0.0
 10
31.954099
 20
44.305128
 30
0.0
 10
35.094947
 20
45.259126
 30
0.0
 10
36.170127
 20
45.501981
 30
0.0
  0
SPLINE
  5
248
100
AcDbEntity
  8
Layer_1
 62
7
100
AcDbSpline
 70
8
 71
3
 72
8
 73
4
 74
0
 40
0
 40
0
 40
0
 40
0
 40
1
 40
1
 40
1
 40
1
 10
36.170127
 20
45.501981
 30
0.0
 10
35.796475
 20
46.139267
 30
0.0
 10
34.799499
 20
46.957657
 30
0.0
 10
34.953040
 20
47.678083
 30
0.0
  0
SPLINE
  5
249
100
AcDbEntity
  8
Layer_1
 62
7
100
AcDbSpline
 70
8
 71
3
 72
8
 73
4
 74
0
 40
0
 40
0
 40
0
 40
0
 40
1
 40
1
 40
1
 40
1
 10
34.953040
 20
47.678083
 30
0.0
 10
35.168954
 20
48.691448
 30
0.0
 10
38.441981
 20
49.246019
 30
0.0
 10
39.603372
 20
49.586103
 30
0.0
  0
SPLINE
  5
24a
100
AcDbEntity
  8
Layer_1
 62
7
100
AcDbSpline
 70
8
 71
3
 72
8
 73
4
 74
0
 40
0
 40
0
 40
0
 40
0
 40
1
 40
1
 40
1
 40
1
 10
39.603372
 20
49.586103
 30
0.0
 10
39.215797
 20
50.207341
 30
0.0
 10
38.450754
 20
51.202655
 30
0.0
 10
38.798848
 20
51.894448
 30
0.0
  0
SPLINE
  5
24b
100
AcDbEntity
  8
Layer_1
 62
7
100
AcDbSpline
 70
8
 71
3
 72
8
 73
4
 74
0
 40
0
 40
0
 40
0
 40
0
 40
1
 40
1
 40
1
 40
1
 10
38.798848
 20
51.894448
 30
0.0
 10
39.371627
 20
53.033404
 30
0.0
 10
42.301712
 20
52.717264
 30
0.0
 10
43.608825
 20
52.717264
 30
0.0
  0
SPLINE
  5
24c
100
AcDbEntity
  8
Layer_1
 62
7
100
AcDbSpline
 70
8
 71
3
 72
8
 73
4
 74
0
 40
0
 40
0
 40
0
 40
0
 40
1
 40
1
 40
1
 40
1
 10
43.608825
 20
52.717264
 30
0.0
 10
43.571442
 20
53.337984
 30
0.0
 10
42.738115
 20
54.990773
 30
0.0
 10
43.533109
 20
55.436128
 30
0.0
  0
SPLINE
  5
24d
100
AcDbEntity
  8
Layer_1
 62
7
100
AcDbSpline
 70
8
 71
3
 72
8
 73
4
 74
0
 40
0
 40
0
 40
0
 40
0
 40
1
 40
1
 40
1
 40
1
 10
43.533109
 20
55.436128
 30
0.0
 10
45.055562
 20
56.288964
 30
0.0
 10
47.811314
 20
54.426115
 30
0.0
 10
49.330907
 20
54.490413
 30
0.0
  0
SPLINE
  5
24e
100
AcDbEntity
  8
Layer_1
 62
7
100
AcDbSpline
 70
8
 71
3
 72
8
 73
4
 74
0
 40
0
 40
0
 40
0
 40
0
 40
1
 40
1
 40
1
 40
1
 10
49.330907
 20
54.490413
 30
0.0
 10
51.083960
 20
54.564581
 30
0.0
 10
52.844452
 20
55.422538
 30
0.0
 10
54.671511
 20
55.552934
 30
0.0
  0
SPLINE
  5
24f
100
AcDbEntity
  8
Layer_1
 62
7
100
AcDbSpline
 70
8
 71
3
 72
8
 73
4
 74
0
 40
0
 40
0
 40
0
 40
0
 40
1
 40
1
 40
1
 40
1
 10
54.671511
 20
55.552934
 30
0.0
 10
60.418002
 20
55.963046
 30
0.0
 10
66.234871
 20
53.484685
 30
0.0
 10
67.543510
 20
49.313829
 30
0.0
  0
SPLINE
  5
250
100
AcDbEntity
  8
Layer_1
 62
7
100
AcDbSpline
 70
8
 71
3
 72
8
 73
4
 74
0
 40
0
 40
0
 40
0
 40
0
 40
1
 40
1
 40
1
 40
1
 10
67.543510
 20
49.313829
 30
0.0
 10
69.074357
 20
44.434949
 30
0.0
 10
62.917212
 20
40.516356
 30
0.0
 10
57.723285
 20
38.208418
 30
0.0
  0
SPLINE
  5
251
100
AcDbEntity
  8
Layer_1
 62
7
100
AcDbSpline
 70
8
 71
3
 72
8
 73
4
 74
0
 40
0
 40
0
 40
0
 40
0
 40
1
 40
1
 40
1
 40
1
 10
57.723285
 20
38.208418
 30
0.0
 10
56.494755
 20
37.662644
 30
0.0
 10
55.209577
 20
37.140965
 30
0.0
 10
53.908567
 20
36.688307
 30
0.0
  0
SPLINE
  5
252
100
AcDbEntity
  8
Layer_1
 62
7
100
AcDbSpline
 70
8
 71
3
 72
8
 73
4
 74
0
 40
0
 40
0
 40
0
 40
0
 40
1
 40
1
 40
1
 40
1
 10
53.908567
 20
36.688307
 30
0.0
 10
53.332164
 20
36.487777
 30
0.0
 10
52.359411
 20
36.337890
 30
0.0
 10
52.013988
 20
35.918722
 30
0.0
  0
SPLINE
  5
253
100
AcDbEntity
  8
Layer_1
 62
7
100
AcDbSpline
 70
8
 71
3
 72
8
 73
4
 74
0
 40
0
 40
0
 40
0
 40
0
 40
1
 40
1
 40
1
 40
1
 10
52.013988
 20
35.918722
 30
0.0
 10
51.400772
 20
35.174596
 30
0.0
 10
52.452490
 20
33.088288
 30
0.0
 10
52.764153
 20
32.296650
 30
0.0
  0
LWPOLYLINE
  5
254
100
AcDbEntity
  8
Layer_1
 62
7
100
AcDbPolyline
 90
2
 70
0
 10
32.164673
 20
28.076394
 30
0.0
 10
32.164673
 20
28.212528
 30
0.0
  0
SPLINE
  5
255
100
AcDbEntity
  8
Layer_1
 62
7
100
AcDbSpline
 70
8
 71
3
 72
8
 73
4
 74
0
 40
0
 40
0
 40
0
 40
0
 40
1
 40
1
 40
1
 40
1
 10
47.614283
 20
53.670227
 30
0.0
 10
47.044938
 20
54.451763
 30
0.0
 10
45.854937
 20
54.537830
 30
0.0
 10
44.753246
 20
54.759326
 30
0.0
  0
SPLINE
  5
256
100
AcDbEntity
  8
Layer_1
 62
7
100
AcDbSpline
 70
8
 71
3
 72
8
 73
4
 74
0
 40
0
 40
0
 40
0
 40
0
 40
1
 40
1
 40
1
 40
1
 10
34.834978
 20
18.682911
 30
0.0
 10
35.513615
 20
18.974246
 30
0.0
 10
36.155252
 20
19.287769
 30
0.0
 10
36.933073
 20
19.429624
 30
0.0
  0
SPLINE
  5
257
100
AcDbEntity
  8
Layer_1
 62
7
100
AcDbSpline
 70
8
 71
3
 72
8
 73
4
 74
0
 40
0
 40
0
 40
0
 40
0
 40
1
 40
1
 40
1
 40
1
 10
36.933073
 20
19.429624
 30
0.0
 10
41.962207
 20
20.347191
 30
0.0
 10
41.785202
 20
17.126587
 30
0.0
 10
43.227356
 20
14.734924
 30
0.0
  0
SPLINE
  5
258
100
AcDbEntity
  8
Layer_1
 62
7
100
AcDbSpline
 70
8
 71
3
 72
8
 73
4
 74
0
 40
0
 40
0
 40
0
 40
0
 40
1
 40
1
 40
1
 40
1
 10
43.227356
 20
14.734924
 30
0.0
 10
45.280247
 20
15.690883
 30
0.0
 10
47.899050
 20
15.690883
 30
0.0
 10
50.093848
 20
14.871059
 30
0.0
  0
SPLINE
  5
259
100
AcDbEntity
  8
Layer_1
 62
7
100
AcDbSpline
 70
8
 71
3
 72
8
 73
4
 74
0
 40
0
 40
0
 40
0
 40
0
 40
1
 40
1
 40
1
 40
1
 10
50.093848
 20
14.871059
 30
0.0
 10
50.093848
 20
16.914210
 30
0.0
 10
49.774938
 20
19.046665
 30
0.0
 10
53.336358
 20
19.499731
 30
0.0
  0
LWPOLYLINE
  5
25a
100
AcDbEntity
  8
Layer_1
 62
7
100
AcDbPolyline
 90
3
 70
0
 10
44.753246
 20
54.759326
 30
0.0
 10
45.325453
 20
52.853402
 30
0.0
 10
47.614283
 20
53.670227
 30
0.0
  0
SPLINE
  5
25b
100
AcDbEntity
  8
Layer_1
 62
7
100
AcDbSpline
 70
8
 71
3
 72
8
 73
4
 74
0
 40
0
 40
0
 40
0
 40
0
 40
1
 40
1
 40
1
 40
1
 10
51.810453
 20
26.578879
 30
0.0
 10
47.633911
 20
26.587046
 30
0.0
 10
44.112354
 20
27.866196
 30
0.0
 10
42.333169
 20
30.663002
 30
0.0
  0
SPLINE
  5
25c
100
AcDbEntity
  8
Layer_1
 62
7
100
AcDbSpline
 70
8
 71
3
 72
8
 73
4
 74
0
 40
0
 40
0
 40
0
 40
0
 40
1
 40
1
 40
1
 40
1
 10
42.333169
 20
30.663002
 30
0.0
 10
41.333714
 20
32.234300
 30
0.0
 10
40.922105
 20
35.448506
 30
0.0
 10
44.371754
 20
35.768292
 30
0.0
  0
SPLINE
  5
25d
100
AcDbEntity
  8
Layer_1
 62
7
100
AcDbSpline
 70
8
 71
3
 72
8
 73
4
 74
0
 40
0
 40
0
 40
0
 40
0
 40
1
 40
1
 40
1
 40
1
 10
44.371754
 20
35.768292
 30
0.0
 10
47.149441
 20
36.025728
 30
0.0
 10
47.911431
 20
32.456476
 30
0.0
 10
50.666038
 20
32.160514
 30
0.0
  0
SPLINE
  5
25e
100
AcDbEntity
  8
Layer_1
 62
7
100
AcDbSpline
 70
8
 71
3
 72
8
 73
4
 74
0
 40
0
 40
0
 40
0
 40
0
 40
1
 40
1
 40
1
 40
1
 10
50.666038
 20
32.160514
 30
0.0
 10
50.558269
 20
33.134714
 30
0.0
 10
49.118408
 20
35.833503
 30
0.0
 10
50.157345
 20
36.566329
 30
0.0
  0
SPLINE
  5
25f
100
AcDbEntity
  8
Layer_1
 62
7
100
AcDbSpline
 70
8
 71
3
 72
8
 73
4
 74
0
 40
0
 40
0
 40
0
 40
0
 40
1
 40
1
 40
1
 40
1
 10
50.157345
 20
36.566329
 30
0.0
 10
51.036638
 20
37.186437
 30
0.0
 10
52.626803
 20
37.511531
 30
0.0
 10
53.717812
 20
37.913408
 30
0.0
  0
SPLINE
  5
260
100
AcDbEntity
  8
Layer_1
 62
7
100
AcDbSpline
 70
8
 71
3
 72
8
 73
4
 74
0
 40
0
 40
0
 40
0
 40
0
 40
1
 40
1
 40
1
 40
1
 10
53.717812
 20
37.913408
 30
0.0
 10
55.889149
 20
38.713353
 30
0.0
 10
58.166726
 20
39.591439
 30
0.0
 10
60.012096
 20
40.744523
 30
0.0
  0
SPLINE
  5
261
100
AcDbEntity
  8
Layer_1
 62
7
100
AcDbSpline
 70
8
 71
3
 72
8
 73
4
 74
0
 40
0
 40
0
 40
0
 40
0
 40
1
 40
1
 40
1
 40
1
 10
60.012096
 20
40.744523
 30
0.0
 10
60.977601
 20
41.347749
 30
0.0
 10
62.619073
 20
42.020132
 30
0.0
 10
62.300926
 20
43.051509
 30
0.0
  0
LWPOLYLINE
  5
262
100
AcDbEntity
  8
Layer_1
 62
7
100
AcDbPolyline
 90
2
 70
0
 10
53.336358
 20
19.499731
 30
0.0
 10
51.810453
 20
26.578879
 30
0.0
  0
SPLINE
  5
263
100
AcDbEntity
  8
Layer_1
 62
7
100
AcDbSpline
 70
8
 71
3
 72
8
 73
4
 74
0
 40
0
 40
0
 40
0
 40
0
 40
1
 40
1
 40
1
 40
1
 10
61.919454
 20
43.051509
 30
0.0
 10
61.025095
 20
41.180707
 30
0.0
 10
59.365501
 20
40.962888
 30
0.0
 10
57.914001
 20
42.643097
 30
0.0
  0
SPLINE
  5
264
100
AcDbEntity
  8
Layer_1
 62
7
100
AcDbSpline
 70
8
 71
3
 72
8
 73
4
 74
0
 40
0
 40
0
 40
0
 40
0
 40
1
 40
1
 40
1
 40
1
 10
57.914001
 20
42.643097
 30
0.0
 10
57.217625
 20
41.978744
 30
0.0
 10
56.154081
 20
39.626156
 30
0.0
 10
54.687895
 20
41.289210
 30
0.0
  0
SPLINE
  5
265
100
AcDbEntity
  8
Layer_1
 62
7
100
AcDbSpline
 70
8
 71
3
 72
8
 73
4
 74
0
 40
0
 40
0
 40
0
 40
0
 40
1
 40
1
 40
1
 40
1
 10
54.687895
 20
41.289210
 30
0.0
 10
54.351818
 20
41.670123
 30
0.0
 10
54.245006
 20
42.125365
 30
0.0
 10
53.908548
 20
42.506959
 30
0.0
  0
SPLINE
  5
266
100
AcDbEntity
  8
Layer_1
 62
7
100
AcDbSpline
 70
8
 71
3
 72
8
 73
4
 74
0
 40
0
 40
0
 40
0
 40
0
 40
1
 40
1
 40
1
 40
1
 10
53.908548
 20
42.506959
 30
0.0
 10
53.613288
 20
42.194659
 30
0.0
 10
53.340537
 20
41.857310
 30
0.0
 10
53.000264
 20
41.568562
 30
0.0
  0
SPLINE
  5
267
100
AcDbEntity
  8
Layer_1
 62
7
100
AcDbSpline
 70
8
 71
3
 72
8
 73
4
 74
0
 40
0
 40
0
 40
0
 40
0
 40
1
 40
1
 40
1
 40
1
 10
53.000264
 20
41.568562
 30
0.0
 10
50.559988
 20
39.498321
 30
0.0
 10
49.784457
 20
43.418317
 30
0.0
 10
49.080260
 20
44.239457
 30
0.0
  0
SPLINE
  5
268
100
AcDbEntity
  8
Layer_1
 62
7
100
AcDbSpline
 70
8
 71
3
 72
8
 73
4
 74
0
 40
0
 40
0
 40
0
 40
0
 40
1
 40
1
 40
1
 40
1
 10
49.080260
 20
44.239457
 30
0.0
 10
48.782521
 20
44.586499
 30
0.0
 10
48.179224
 20
44.784837
 30
0.0
 10
47.805001
 20
45.093569
 30
0.0
  0
SPLINE
  5
269
100
AcDbEntity
  8
Layer_1
 62
7
100
AcDbSpline
 70
8
 71
3
 72
8
 73
4
 74
0
 40
0
 40
0
 40
0
 40
0
 40
1
 40
1
 40
1
 40
1
 10
47.805001
 20
45.093569
 30
0.0
 10
53.151707
 20
45.575851
 30
0.0
 10
59.525337
 20
43.251182
 30
0.0
 10
64.772099
 20
45.066788
 30
0.0
  0
SPLINE
  5
26a
100
AcDbEntity
  8
Layer_1
 62
7
100
AcDbSpline
 70
8
 71
3
 72
8
 73
4
 74
0
 40
0
 40
0
 40
0
 40
0
 40
1
 40
1
 40
1
 40
1
 10
64.772099
 20
45.066788
 30
0.0
 10
66.176297
 20
45.552745
 30
0.0
 10
66.625289
 20
47.360895
 30
0.0
 10
66.413192
 20
48.360878
 30
0.0
  0
SPLINE
  5
26b
100
AcDbEntity
  8
Layer_1
 62
7
100
AcDbSpline
 70
8
 71
3
 72
8
 73
4
 74
0
 40
0
 40
0
 40
0
 40
0
 40
1
 40
1
 40
1
 40
1
 10
66.413192
 20
48.360878
 30
0.0
 10
65.889621
 20
50.830329
 30
0.0
 10
63.794006
 20
53.195704
 30
0.0
 10
60.393568
 20
54.066356
 30
0.0
  0
SPLINE
  5
26c
100
AcDbEntity
  8
Layer_1
 62
7
100
AcDbSpline
 70
8
 71
3
 72
8
 73
4
 74
0
 40
0
 40
0
 40
0
 40
0
 40
1
 40
1
 40
1
 40
1
 10
60.393568
 20
54.066356
 30
0.0
 10
53.376394
 20
55.863069
 30
0.0
 10
44.316823
 20
51.850203
 30
0.0
 10
40.786683
 20
47.680191
 30
0.0
  0
SPLINE
  5
26d
100
AcDbEntity
  8
Layer_1
 62
7
100
AcDbSpline
 70
8
 71
3
 72
8
 73
4
 74
0
 40
0
 40
0
 40
0
 40
0
 40
1
 40
1
 40
1
 40
1
 10
40.786683
 20
47.680191
 30
0.0
 10
34.945779
 20
40.780610
 30
0.0
 10
33.803270
 20
32.311637
 30
0.0
 10
34.074878
 20
24.400689
 30
0.0
  0
SPLINE
  5
26e
100
AcDbEntity
  8
Layer_1
 62
7
100
AcDbSpline
 70
8
 71
3
 72
8
 73
4
 74
0
 40
0
 40
0
 40
0
 40
0
 40
1
 40
1
 40
1
 40
1
 10
34.074878
 20
24.400689
 30
0.0
 10
34.140678
 20
22.483332
 30
0.0
 10
34.834579
 20
20.600958
 30
0.0
 10
34.834962
 20
18.682918
 30
0.0
  0
SPLINE
  5
26f
100
AcDbEntity
  8
Layer_1
 62
7
100
AcDbSpline
 70
8
 71
3
 72
8
 73
4
 74
0
 40
0
 40
0
 40
0
 40
0
 40
1
 40
1
 40
1
 40
1
 10
52.001185
 20
52.811912
 30
0.0
 10
55.609528
 20
53.157373
 30
0.0
 10
55.260289
 20
48.590318
 30
0.0
 10
52.191732
 20
48.253936
 30
0.0
  0
SPLINE
  5
270
100
AcDbEntity
  8
Layer_1
 62
7
100
AcDbSpline
 70
8
 71
3
 72
8
 73
4
 74
0
 40
0
 40
0
 40
0
 40
0
 40
1
 40
1
 40
1
 40
1
 10
52.191732
 20
48.253936
 30
0.0
 10
47.455759
 20
47.734734
 30
0.0
 10
47.487804
 20
52.379798
 30
0.0
 10
52.001185
 20
52.811912
 30
0.0
  0
SPLINE
  5
271
100
AcDbEntity
  8
Layer_1
 62
7
100
AcDbSpline
 70
8
 71
3
 72
8
 73
4
 74
0
 40
0
 40
0
 40
0
 40
0
 40
1
 40
1
 40
1
 40
1
 10
59.439885
 20
52.539637
 30
0.0
 10
62.884384
 20
52.871609
 30
0.0
 10
63.075693
 20
48.242881
 30
0.0
 10
60.012093
 20
47.847415
 30
0.0
  0
SPLINE
  5
272
100
AcDbEntity
  8
Layer_1
 62
7
100
AcDbSpline
 70
8
 71
3
 72
8
 73
4
 74
0
 40
0
 40
0
 40
0
 40
0
 40
1
 40
1
 40
1
 40
1
 10
60.012093
 20
47.847415
 30
0.0
 10
55.320944
 20
47.241849
 30
0.0
 10
54.828464
 20
52.095230
 30
0.0
 10
59.439885
 20
52.539637
 30
0.0
  0
SPLINE
  5
273
100
AcDbEntity
  8
Layer_1
 62
7
100
AcDbSpline
 70
8
 71
3
 72
8
 73
4
 74
0
 40
0
 40
0
 40
0
 40
0
 40
1
 40
1
 40
1
 40
1
 10
52.003284
 20
51.768295
 30
0.0
 10
50.417888
 20
51.530681
 30
0.0
 10
49.991784
 20
48.801234
 30
0.0
 10
51.993783
 20
49.090826
 30
0.0
  0
SPLINE
  5
274
100
AcDbEntity
  8
Layer_1
 62
7
100
AcDbSpline
 70
8
 71
3
 72
8
 73
4
 74
0
 40
0
 40
0
 40
0
 40
0
 40
1
 40
1
 40
1
 40
1
 10
51.993783
 20
49.090826
 30
0.0
 10
53.486672
 20
49.306795
 30
0.0
 10
53.677599
 20
52.019238
 30
0.0
 10
52.003284
 20
51.768295
 30
0.0
  0
LWPOLYLINE
  5
275
100
AcDbEntity
  8
Layer_1
 62
7
100
AcDbPolyline
 90
2
 70
0
 10
62.300926
 20
43.051509
 30
0.0
 10
61.919454
 20
43.051509
 30
0.0
  0
SPLINE
  5
276
100
AcDbEntity
  8
Layer_1
 62
7
100
AcDbSpline
 70
8
 71
3
 72
8
 73
4
 74
0
 40
0
 40
0
 40
0
 40
0
 40
1
 40
1
 40
1
 40
1
 10
59.442174
 20
51.495945
 30
0.0
 10
57.724980
 20
51.239643
 30
0.0
 10
57.648494
 20
48.484083
 30
0.0
 10
59.627760
 20
48.691219
 30
0.0
  0
SPLINE
  5
277
100
AcDbEntity
  8
Layer_1
 62
7
100
AcDbSpline
 70
8
 71
3
 72
8
 73
4
 74
0
 40
0
 40
0
 40
0
 40
0
 40
1
 40
1
 40
1
 40
1
 10
59.627760
 20
48.691219
 30
0.0
 10
61.400077
 20
48.876691
 30
0.0
 10
61.301848
 20
51.773654
 30
0.0
 10
59.442174
 20
51.496003
 30
0.0
  0
LWPOLYLINE
  5
278
100
AcDbEntity
  8
Layer_1
 62
7
100
AcDbPolyline
 90
3
 70
1
 10
40.366298
 20
51.492032
 30
0.0
 10
40.747770
 20
50.130659
 30
0.0
 10
43.036601
 20
51.764306
 30
0.0
  0
SPLINE
  5
279
100
AcDbEntity
  8
Layer_1
 62
7
100
AcDbSpline
 70
8
 71
3
 72
8
 73
4
 74
0
 40
0
 40
0
 40
0
 40
0
 40
1
 40
1
 40
1
 40
1
 10
38.649677
 20
48.088595
 30
0.0
 10
37.197032
 20
47.848627
 30
0.0
 10
36.270626
 20
47.548103
 30
0.0
 10
37.123789
 20
46.454948
 30
0.0
  0
LWPOLYLINE
  5
27a
100
AcDbEntity
  8
Layer_1
 62
7
100
AcDbPolyline
 90
3
 70
0
 10
37.123789
 20
46.454948
 30
0.0
 10
37.505260
 20
46.454948
 30
0.0
 10
38.649677
 20
48.088595
 30
0.0
  0
LWPOLYLINE
  5
27b
100
AcDbEntity
  8
Layer_1
 62
7
100
AcDbPolyline
 90
3
 70
1
 10
35.979374
 20
44.549024
 30
0.0
 10
33.690543
 20
43.459923
 30
0.0
 10
35.025694
 20
41.962412
 30
0.0
  0
LWPOLYLINE
  5
27c
100
AcDbEntity
  8
Layer_1
 62
7
100
AcDbPolyline
 90
4
 70
1
 10
50.666036
 20
44.140612
 30
0.0
 10
51.810449
 20
41.826275
 30
0.0
 10
52.191921
 20
41.826275
 30
0.0
 10
53.336337
 20
43.732199
 30
0.0
  0
LWPOLYLINE
  5
27d
100
AcDbEntity
  8
Layer_1
 62
7
100
AcDbPolyline
 90
2
 70
1
 10
63.254603
 20
43.459923
 30
0.0
 10
63.826811
 20
43.868335
 30
0.0
  0
SPLINE
  5
27e
100
AcDbEntity
  8
Layer_1
 62
7
100
AcDbSpline
 70
8
 71
3
 72
8
 73
4
 74
0
 40
0
 40
0
 40
0
 40
0
 40
1
 40
1
 40
1
 40
1
 10
59.630621
 20
41.962408
 30
0.0
 10
60.676044
 20
42.195884
 30
0.0
 10
60.984273
 20
43.017883
 30
0.0
 10
61.156508
 20
43.732196
 30
0.0
  0
LWPOLYLINE
  5
27f
100
AcDbEntity
  8
Layer_1
 62
7
100
AcDbPolyline
 90
2
 70
0
 10
59.249149
 20
43.596058
 30
0.0
 10
59.630621
 20
41.962408
 30
0.0
  0
LWPOLYLINE
  5
280
100
AcDbEntity
  8
Layer_1
 62
7
100
AcDbPolyline
 90
2
 70
0
 10
61.156508
 20
43.732196
 30
0.0
 10
59.249149
 20
43.596058
 30
0.0
  0
SPLINE
  5
281
100
AcDbEntity
  8
Layer_1
 62
7
100
AcDbSpline
 70
8
 71
3
 72
8
 73
4
 74
0
 40
0
 40
0
 40
0
 40
0
 40
1
 40
1
 40
1
 40
1
 10
67.069320
 20
41.690137
 30
0.0
 10
67.069511
 20
40.641607
 30
0.0
 10
68.534743
 20
38.517998
 30
0.0
 10
66.497112
 20
38.286701
 30
0.0
  0
LWPOLYLINE
  5
282
100
AcDbEntity
  8
Layer_1
 62
7
100
AcDbPolyline
 90
4
 70
1
 10
55.243696
 20
43.596061
 30
0.0
 10
55.815904
 20
41.553999
 30
0.0
 10
56.006640
 20
41.553999
 30
0.0
 10
56.769583
 20
43.596061
 30
0.0
  0
SPLINE
  5
283
100
AcDbEntity
  8
Layer_1
 62
7
100
AcDbSpline
 70
8
 71
3
 72
8
 73
4
 74
0
 40
0
 40
0
 40
0
 40
0
 40
1
 40
1
 40
1
 40
1
 10
64.399018
 20
41.554003
 30
0.0
 10
64.868419
 20
40.802523
 30
0.0
 10
64.121878
 20
40.392886
 30
0.0
 10
64.078963
 20
39.648077
 30
0.0
  0
SPLINE
  5
284
100
AcDbEntity
  8
Layer_1
 62
7
100
AcDbSpline
 70
8
 71
3
 72
8
 73
4
 74
0
 40
0
 40
0
 40
0
 40
0
 40
1
 40
1
 40
1
 40
1
 10
64.078963
 20
39.648077
 30
0.0
 10
64.021551
 20
38.650191
 30
0.0
 10
65.798638
 20
38.086036
 30
0.0
 10
65.670653
 20
37.069498
 30
0.0
  0
SPLINE
  5
285
100
AcDbEntity
  8
Layer_1
 62
7
100
AcDbSpline
 70
8
 71
3
 72
8
 73
4
 74
0
 40
0
 40
0
 40
0
 40
0
 40
1
 40
1
 40
1
 40
1
 10
65.670653
 20
37.069498
 30
0.0
 10
65.613623
 20
36.618067
 30
0.0
 10
65.034932
 20
36.437684
 30
0.0
 10
64.547983
 20
36.735826
 30
0.0
  0
SPLINE
  5
286
100
AcDbEntity
  8
Layer_1
 62
7
100
AcDbSpline
 70
8
 71
3
 72
8
 73
4
 74
0
 40
0
 40
0
 40
0
 40
0
 40
1
 40
1
 40
1
 40
1
 10
64.547983
 20
36.735826
 30
0.0
 10
62.401632
 20
38.049825
 30
0.0
 10
62.621359
 20
40.148927
 30
0.0
 10
64.399018
 20
41.554001
 30
0.0
  0
LWPOLYLINE
  5
287
100
AcDbEntity
  8
Layer_1
 62
7
100
AcDbPolyline
 90
3
 70
0
 10
66.497112
 20
38.286701
 30
0.0
 10
66.687848
 20
41.690137
 30
0.0
 10
67.069320
 20
41.690137
 30
0.0
  0
LWPOLYLINE
  5
288
100
AcDbEntity
  8
Layer_1
 62
7
100
AcDbPolyline
 90
3
 70
1
 10
31.592449
 20
39.103529
 30
0.0
 10
33.499807
 20
37.878290
 30
0.0
 10
34.072015
 20
40.056490
 30
0.0
  0
SPLINE
  5
289
100
AcDbEntity
  8
Layer_1
 62
7
100
AcDbSpline
 70
8
 71
3
 72
8
 73
4
 74
0
 40
0
 40
0
 40
0
 40
0
 40
1
 40
1
 40
1
 40
1
 10
33.309071
 20
35.563954
 30
0.0
 10
31.041985
 20
35.109801
 30
0.0
 10
30.668714
 20
33.733724
 30
0.0
 10
32.927599
 20
33.113482
 30
0.0
  0
SPLINE
  5
28a
100
AcDbEntity
  8
Layer_1
 62
7
100
AcDbSpline
 70
8
 71
3
 72
8
 73
4
 74
0
 40
0
 40
0
 40
0
 40
0
 40
1
 40
1
 40
1
 40
1
 10
43.993141
 20
34.751078
 30
0.0
 10
41.657390
 20
34.397938
 30
0.0
 10
44.004598
 20
31.134859
 30
0.0
 10
44.651751
 20
30.390733
 30
0.0
  0
SPLINE
  5
28b
100
AcDbEntity
  8
Layer_1
 62
7
100
AcDbSpline
 70
8
 71
3
 72
8
 73
4
 74
0
 40
0
 40
0
 40
0
 40
0
 40
1
 40
1
 40
1
 40
1
 10
44.651751
 20
30.390733
 30
0.0
 10
46.599356
 20
28.151272
 30
0.0
 10
51.025000
 20
27.213284
 30
0.0
 10
54.480752
 20
27.905680
 30
0.0
  0
SPLINE
  5
28c
100
AcDbEntity
  8
Layer_1
 62
7
100
AcDbSpline
 70
8
 71
3
 72
8
 73
4
 74
0
 40
0
 40
0
 40
0
 40
0
 40
1
 40
1
 40
1
 40
1
 10
54.480752
 20
27.905680
 30
0.0
 10
55.897539
 20
28.189662
 30
0.0
 10
57.360292
 20
28.794385
 30
0.0
 10
58.153943
 20
29.710046
 30
0.0
  0
SPLINE
  5
28d
100
AcDbEntity
  8
Layer_1
 62
7
100
AcDbSpline
 70
8
 71
3
 72
8
 73
4
 74
0
 40
0
 40
0
 40
0
 40
0
 40
1
 40
1
 40
1
 40
1
 10
58.153943
 20
29.710046
 30
0.0
 10
58.782800
 20
30.435659
 30
0.0
 10
58.378059
 20
31.487455
 30
0.0
 10
57.150292
 20
31.708814
 30
0.0
  0
SPLINE
  5
28e
100
AcDbEntity
  8
Layer_1
 62
7
100
AcDbSpline
 70
8
 71
3
 72
8
 73
4
 74
0
 40
0
 40
0
 40
0
 40
0
 40
1
 40
1
 40
1
 40
1
 10
57.150292
 20
31.708814
 30
0.0
 10
54.278000
 20
32.226682
 30
0.0
 10
51.817317
 20
30.325659
 30
0.0
 10
48.758677
 20
31.271271
 30
0.0
  0
SPLINE
  5
28f
100
AcDbEntity
  8
Layer_1
 62
7
100
AcDbSpline
 70
8
 71
3
 72
8
 73
4
 74
0
 40
0
 40
0
 40
0
 40
0
 40
1
 40
1
 40
1
 40
1
 10
48.758677
 20
31.271271
 30
0.0
 10
47.173471
 20
31.761500
 30
0.0
 10
46.446004
 20
32.786616
 30
0.0
 10
45.625268
 20
33.794032
 30
0.0
  0
SPLINE
  5
290
100
AcDbEntity
  8
Layer_1
 62
7
100
AcDbSpline
 70
8
 71
3
 72
8
 73
4
 74
0
 40
0
 40
0
 40
0
 40
0
 40
1
 40
1
 40
1
 40
1
 10
45.625268
 20
33.794032
 30
0.0
 10
45.292433
 20
34.202444
 30
0.0
 10
44.803197
 20
34.873603
 30
0.0
 10
43.993141
 20
34.751078
 30
0.0
  0
SPLINE
  5
291
100
AcDbEntity
  8
Layer_1
 62
7
100
AcDbSpline
 70
8
 71
3
 72
8
 73
4
 74
0
 40
0
 40
0
 40
0
 40
0
 40
1
 40
1
 40
1
 40
1
 10
64.589754
 20
34.825535
 30
0.0
 10
63.960897
 20
34.766579
 30
0.0
 10
62.542776
 20
34.913892
 30
0.0
 10
62.115527
 20
34.528892
 30
0.0
  0
SPLINE
  5
292
100
AcDbEntity
  8
Layer_1
 62
7
100
AcDbSpline
 70
8
 71
3
 72
8
 73
4
 74
0
 40
0
 40
0
 40
0
 40
0
 40
1
 40
1
 40
1
 40
1
 10
62.115527
 20
34.528892
 30
0.0
 10
61.708879
 20
34.162409
 30
0.0
 10
61.931660
 20
33.394321
 30
0.0
 10
62.036950
 20
32.977333
 30
0.0
  0
SPLINE
  5
293
100
AcDbEntity
  8
Layer_1
 62
7
100
AcDbSpline
 70
8
 71
3
 72
8
 73
4
 74
0
 40
0
 40
0
 40
0
 40
0
 40
1
 40
1
 40
1
 40
1
 10
62.036950
 20
32.977333
 30
0.0
 10
62.410793
 20
31.497519
 30
0.0
 10
63.691584
 20
29.926084
 30
0.0
 10
66.115645
 20
30.144721
 30
0.0
  0
SPLINE
  5
294
100
AcDbEntity
  8
Layer_1
 62
7
100
AcDbSpline
 70
8
 71
3
 72
8
 73
4
 74
0
 40
0
 40
0
 40
0
 40
0
 40
1
 40
1
 40
1
 40
1
 10
66.115645
 20
30.144721
 30
0.0
 10
67.972078
 20
30.312180
 30
0.0
 10
69.687371
 20
33.667140
 30
0.0
 10
68.289462
 20
34.665028
 30
0.0
  0
SPLINE
  5
295
100
AcDbEntity
  8
Layer_1
 62
7
100
AcDbSpline
 70
8
 71
3
 72
8
 73
4
 74
0
 40
0
 40
0
 40
0
 40
0
 40
1
 40
1
 40
1
 40
1
 10
68.289462
 20
34.665028
 30
0.0
 10
67.609490
 20
35.150221
 30
0.0
 10
65.460469
 20
34.907079
 30
0.0
 10
64.589759
 20
34.825528
 30
0.0
  0
LWPOLYLINE
  5
296
100
AcDbEntity
  8
Layer_1
 62
7
100
AcDbPolyline
 90
2
 70
0
 10
32.927599
 20
33.113482
 30
0.0
 10
33.309071
 20
35.563954
 30
0.0
  0
SPLINE
  5
297
100
AcDbEntity
  8
Layer_1
 62
7
100
AcDbSpline
 70
8
 71
3
 72
8
 73
4
 74
0
 40
0
 40
0
 40
0
 40
0
 40
1
 40
1
 40
1
 40
1
 10
59.821363
 20
32.841189
 30
0.0
 10
58.658065
 20
32.565373
 30
0.0
 10
59.233706
 20
31.862360
 30
0.0
 10
60.202835
 20
31.752088
 30
0.0
  0
LWPOLYLINE
  5
298
100
AcDbEntity
  8
Layer_1
 62
7
100
AcDbPolyline
 90
2
 70
0
 10
60.202835
 20
31.752088
 30
0.0
 10
59.821363
 20
32.841189
 30
0.0
  0
SPLINE
  5
299
100
AcDbEntity
  8
Layer_1
 62
7
100
AcDbSpline
 70
8
 71
3
 72
8
 73
4
 74
0
 40
0
 40
0
 40
0
 40
0
 40
1
 40
1
 40
1
 40
1
 10
59.630628
 20
31.071408
 30
0.0
 10
59.560241
 20
28.713780
 30
0.0
 10
56.703021
 20
27.036568
 30
0.0
 10
53.527078
 20
26.851148
 30
0.0
  0
SPLINE
  5
29a
100
AcDbEntity
  8
Layer_1
 62
7
100
AcDbSpline
 70
8
 71
3
 72
8
 73
4
 74
0
 40
0
 40
0
 40
0
 40
0
 40
1
 40
1
 40
1
 40
1
 10
53.527078
 20
26.851148
 30
0.0
 10
53.559885
 20
26.306734
 30
0.0
 10
53.548440
 20
25.317152
 30
0.0
 10
54.087461
 20
24.891177
 30
0.0
  0
SPLINE
  5
29b
100
AcDbEntity
  8
Layer_1
 62
7
100
AcDbSpline
 70
8
 71
3
 72
8
 73
4
 74
0
 40
0
 40
0
 40
0
 40
0
 40
1
 40
1
 40
1
 40
1
 10
54.087461
 20
24.891177
 30
0.0
 10
54.713837
 20
24.396453
 30
0.0
 10
56.269670
 20
24.856195
 30
0.0
 10
56.960325
 20
25.064480
 30
0.0
  0
SPLINE
  5
29c
100
AcDbEntity
  8
Layer_1
 62
7
100
AcDbSpline
 70
8
 71
3
 72
8
 73
4
 74
0
 40
0
 40
0
 40
0
 40
0
 40
1
 40
1
 40
1
 40
1
 10
56.960325
 20
25.064480
 30
0.0
 10
59.349100
 20
25.784648
 30
0.0
 10
61.329893
 20
27.348187
 30
0.0
 10
62.682401
 20
28.893210
 30
0.0
  0
LWPOLYLINE
  5
29d
100
AcDbEntity
  8
Layer_1
 62
7
100
AcDbPolyline
 90
4
 70
1
 10
30.638775
 20
30.118440
 30
0.0
 10
30.638775
 20
29.982306
 30
0.0
 10
32.736870
 20
29.029343
 30
0.0
 10
32.736870
 20
31.343679
 30
0.0
  0
SPLINE
  5
29e
100
AcDbEntity
  8
Layer_1
 62
7
100
AcDbSpline
 70
8
 71
3
 72
8
 73
4
 74
0
 40
0
 40
0
 40
0
 40
0
 40
1
 40
1
 40
1
 40
1
 10
62.491665
 20
29.846171
 30
0.0
 10
61.723381
 20
30.624059
 30
0.0
 10
60.983707
 20
31.059972
 30
0.0
 10
59.630628
 20
31.071408
 30
0.0
  0
SPLINE
  5
29f
100
AcDbEntity
  8
Layer_1
 62
7
100
AcDbSpline
 70
8
 71
3
 72
8
 73
4
 74
0
 40
0
 40
0
 40
0
 40
0
 40
1
 40
1
 40
1
 40
1
 10
54.480758
 20
23.447711
 30
0.0
 10
54.493918
 20
22.992196
 30
0.0
 10
54.438023
 20
22.130854
 30
0.0
 10
55.002994
 20
21.818419
 30
0.0
  0
SPLINE
  5
2a0
100
AcDbEntity
  8
Layer_1
 62
7
100
AcDbSpline
 70
8
 71
3
 72
8
 73
4
 74
0
 40
0
 40
0
 40
0
 40
0
 40
1
 40
1
 40
1
 40
1
 10
55.002994
 20
21.818419
 30
0.0
 10
55.653212
 20
21.458880
 30
0.0
 10
57.064848
 20
21.923519
 30
0.0
 10
57.723268
 20
22.093688
 30
0.0
  0
SPLINE
  5
2a1
100
AcDbEntity
  8
Layer_1
 62
7
100
AcDbSpline
 70
8
 71
3
 72
8
 73
4
 74
0
 40
0
 40
0
 40
0
 40
0
 40
1
 40
1
 40
1
 40
1
 10
57.723268
 20
22.093688
 30
0.0
 10
60.317849
 20
22.764302
 30
0.0
 10
62.789976
 20
23.532798
 30
0.0
 10
64.146680
 20
25.353635
 30
0.0
  0
SPLINE
  5
2a2
100
AcDbEntity
  8
Layer_1
 62
7
100
AcDbSpline
 70
8
 71
3
 72
8
 73
4
 74
0
 40
0
 40
0
 40
0
 40
0
 40
1
 40
1
 40
1
 40
1
 10
64.146680
 20
25.353635
 30
0.0
 10
64.437171
 20
25.743534
 30
0.0
 10
65.775373
 20
28.125939
 30
0.0
 10
64.370794
 20
28.125939
 30
0.0
  0
SPLINE
  5
2a3
100
AcDbEntity
  8
Layer_1
 62
7
100
AcDbSpline
 70
8
 71
3
 72
8
 73
4
 74
0
 40
0
 40
0
 40
0
 40
0
 40
1
 40
1
 40
1
 40
1
 10
64.370794
 20
28.125939
 30
0.0
 10
62.977088
 20
28.125939
 30
0.0
 10
61.742265
 20
26.272699
 30
0.0
 10
60.910655
 20
25.638162
 30
0.0
  0
SPLINE
  5
2a4
100
AcDbEntity
  8
Layer_1
 62
7
100
AcDbSpline
 70
8
 71
3
 72
8
 73
4
 74
0
 40
0
 40
0
 40
0
 40
0
 40
1
 40
1
 40
1
 40
1
 10
60.910655
 20
25.638162
 30
0.0
 10
59.198611
 20
24.331652
 30
0.0
 10
56.922369
 20
23.672748
 30
0.0
 10
54.480758
 20
23.447711
 30
0.0
  0
LWPOLYLINE
  5
2a5
100
AcDbEntity
  8
Layer_1
 62
7
100
AcDbPolyline
 90
3
 70
0
 10
62.682401
 20
28.893210
 30
0.0
 10
60.012099
 20
30.118447
 30
0.0
 10
62.491665
 20
29.846171
 30
0.0
  0
LWPOLYLINE
  5
2a6
100
AcDbEntity
  8
Layer_1
 62
7
100
AcDbPolyline
 90
3
 70
1
 10
32.355398
 20
27.123422
 30
0.0
 10
31.020247
 20
26.034323
 30
0.0
 10
32.546134
 20
25.353635
 30
0.0
  0
LWPOLYLINE
  5
2a7
100
AcDbEntity
  8
Layer_1
 62
7
100
AcDbPolyline
 90
3
 70
1
 10
30.066567
 20
22.222476
 30
0.0
 10
32.927606
 20
21.541788
 30
0.0
 10
32.736870
 20
23.175437
 30
0.0
  0
SPLINE
  5
2a8
100
AcDbEntity
  8
Layer_1
 62
7
100
AcDbSpline
 70
8
 71
3
 72
8
 73
4
 74
0
 40
0
 40
0
 40
0
 40
0
 40
1
 40
1
 40
1
 40
1
 10
89.194692
 20
4.252334
 30
0.0
 10
89.805041
 20
4.455453
 30
0.0
 10
90.238391
 20
4.731266
 30
0.0
 10
90.720571
 20
5.069840
 30
0.0
  0
SPLINE
  5
2a9
100
AcDbEntity
  8
Layer_1
 62
7
100
AcDbSpline
 70
8
 71
3
 72
8
 73
4
 74
0
 40
0
 40
0
 40
0
 40
0
 40
1
 40
1
 40
1
 40
1
 10
90.720571
 20
5.069840
 30
0.0
 10
91.278668
 20
5.461644
 30
0.0
 10
92.350601
 20
5.998568
 30
0.0
 10
92.540570
 20
6.566672
 30
0.0
  0
SPLINE
  5
2aa
100
AcDbEntity
  8
Layer_1
 62
7
100
AcDbSpline
 70
8
 71
3
 72
8
 73
4
 74
0
 40
0
 40
0
 40
0
 40
0
 40
1
 40
1
 40
1
 40
1
 10
92.540570
 20
6.566672
 30
0.0
 10
92.709180
 20
7.070381
 30
0.0
 10
91.847825
 20
7.683815
 30
0.0
 10
91.478751
 20
8.064184
 30
0.0
  0
SPLINE
  5
2ab
100
AcDbEntity
  8
Layer_1
 62
7
100
AcDbSpline
 70
8
 71
3
 72
8
 73
4
 74
0
 40
0
 40
0
 40
0
 40
0
 40
1
 40
1
 40
1
 40
1
 10
91.478751
 20
8.064184
 30
0.0
 10
90.473569
 20
9.100461
 30
0.0
 10
88.029671
 20
10.742823
 30
0.0
 10
87.828823
 20
12.012169
 30
0.0
  0
SPLINE
  5
2ac
100
AcDbEntity
  8
Layer_1
 62
7
100
AcDbSpline
 70
8
 71
3
 72
8
 73
4
 74
0
 40
0
 40
0
 40
0
 40
0
 40
1
 40
1
 40
1
 40
1
 10
87.828823
 20
12.012169
 30
0.0
 10
87.734476
 20
12.608585
 30
0.0
 10
88.416483
 20
13.269533
 30
0.0
 10
88.764001
 20
13.781955
 30
0.0
  0
SPLINE
  5
2ad
100
AcDbEntity
  8
Layer_1
 62
7
100
AcDbSpline
 70
8
 71
3
 72
8
 73
4
 74
0
 40
0
 40
0
 40
0
 40
0
 40
1
 40
1
 40
1
 40
1
 10
88.764001
 20
13.781955
 30
0.0
 10
89.583783
 20
14.991537
 30
0.0
 10
90.582105
 20
16.305534
 30
0.0
 10
91.102052
 20
17.593804
 30
0.0
  0
LWPOLYLINE
  5
2ae
100
AcDbEntity
  8
Layer_1
 62
7
100
AcDbPolyline
 90
11
 70
0
 10
86.715120
 20
18.410627
 30
0.0
 10
84.235548
 20
14.462641
 30
0.0
 10
81.565257
 20
17.866077
 30
0.0
 10
77.369059
 20
16.640841
 30
0.0
 10
81.750078
 20
11.195344
 30
0.0
 10
80.721442
 20
9.153281
 30
0.0
 10
77.559792
 20
4.116196
 30
0.0
 10
81.565257
 20
3.435510
 30
0.0
 10
84.617028
 20
8.881008
 30
0.0
 10
84.998495
 20
8.881008
 30
0.0
 10
89.194692
 20
4.252334
 30
0.0
  0
LWPOLYLINE
  5
2af
100
AcDbEntity
  8
Layer_1
 62
7
100
AcDbPolyline
 90
2
 70
0
 10
91.102052
 20
17.593804
 30
0.0
 10
86.715120
 20
18.410627
 30
0.0
  0
LWPOLYLINE
  5
2b0
100
AcDbEntity
  8
Layer_1
 62
7
100
AcDbPolyline
 90
2
 70
1
 10
34.453493
 20
18.274492
 30
0.0
 10
34.644229
 20
18.138358
 30
0.0
  0
SPLINE
  5
2b1
100
AcDbEntity
  8
Layer_1
 62
7
100
AcDbSpline
 70
8
 71
3
 72
8
 73
4
 74
0
 40
0
 40
0
 40
0
 40
0
 40
1
 40
1
 40
1
 40
1
 10
55.625173
 20
4.524609
 30
0.0
 10
55.625173
 20
5.654550
 30
0.0
 10
55.721683
 20
6.806545
 30
0.0
 10
55.515308
 20
7.928046
 30
0.0
  0
SPLINE
  5
2b2
100
AcDbEntity
  8
Layer_1
 62
7
100
AcDbSpline
 70
8
 71
3
 72
8
 73
4
 74
0
 40
0
 40
0
 40
0
 40
0
 40
1
 40
1
 40
1
 40
1
 10
55.515308
 20
7.928046
 30
0.0
 10
55.434055
 20
8.370220
 30
0.0
 10
55.235307
 20
9.126464
 30
0.0
 10
55.740187
 20
9.479058
 30
0.0
  0
SPLINE
  5
2b3
100
AcDbEntity
  8
Layer_1
 62
7
100
AcDbSpline
 70
8
 71
3
 72
8
 73
4
 74
0
 40
0
 40
0
 40
0
 40
0
 40
1
 40
1
 40
1
 40
1
 10
55.740187
 20
9.479058
 30
0.0
 10
56.758907
 20
10.190376
 30
0.0
 10
58.232913
 20
8.919533
 30
0.0
 10
58.587682
 20
8.336458
 30
0.0
  0
SPLINE
  5
2b4
100
AcDbEntity
  8
Layer_1
 62
7
100
AcDbSpline
 70
8
 71
3
 72
8
 73
4
 74
0
 40
0
 40
0
 40
0
 40
0
 40
1
 40
1
 40
1
 40
1
 10
58.587682
 20
8.336458
 30
0.0
 10
59.636729
 20
6.612415
 30
0.0
 10
59.857028
 20
4.032882
 30
0.0
 10
59.249153
 20
2.210273
 30
0.0
  0
LWPOLYLINE
  5
2b5
100
AcDbEntity
  8
Layer_1
 62
7
100
AcDbPolyline
 90
3
 70
0
 10
51.619721
 20
17.729942
 30
0.0
 10
51.619721
 20
4.388474
 30
0.0
 10
55.625173
 20
4.524609
 30
0.0
  0
SPLINE
  5
2b6
100
AcDbEntity
  8
Layer_1
 62
7
100
AcDbSpline
 70
8
 71
3
 72
8
 73
4
 74
0
 40
0
 40
0
 40
0
 40
0
 40
1
 40
1
 40
1
 40
1
 10
63.445344
 20
2.346407
 30
0.0
 10
63.434859
 20
5.043836
 30
0.0
 10
63.213408
 20
8.940497
 30
0.0
 10
59.821361
 20
10.650792
 30
0.0
  0
SPLINE
  5
2b7
100
AcDbEntity
  8
Layer_1
 62
7
100
AcDbSpline
 70
8
 71
3
 72
8
 73
4
 74
0
 40
0
 40
0
 40
0
 40
0
 40
1
 40
1
 40
1
 40
1
 10
59.821361
 20
10.650792
 30
0.0
 10
62.193924
 20
12.507299
 30
0.0
 10
62.806377
 20
16.545135
 30
0.0
 10
59.058418
 20
17.821423
 30
0.0
  0
SPLINE
  5
2b8
100
AcDbEntity
  8
Layer_1
 62
7
100
AcDbSpline
 70
8
 71
3
 72
8
 73
4
 74
0
 40
0
 40
0
 40
0
 40
0
 40
1
 40
1
 40
1
 40
1
 10
59.058418
 20
17.821423
 30
0.0
 10
56.633593
 20
18.647095
 30
0.0
 10
54.088033
 20
18.132906
 30
0.0
 10
51.619720
 20
17.729935
 30
0.0
  0
LWPOLYLINE
  5
2b9
100
AcDbEntity
  8
Layer_1
 62
7
100
AcDbPolyline
 90
2
 70
0
 10
59.249153
 20
2.210273
 30
0.0
 10
63.445344
 20
2.346407
 30
0.0
  0
SPLINE
  5
2ba
100
AcDbEntity
  8
Layer_1
 62
7
100
AcDbSpline
 70
8
 71
3
 72
8
 73
4
 74
0
 40
0
 40
0
 40
0
 40
0
 40
1
 40
1
 40
1
 40
1
 10
40.175566
 20
18.138344
 30
0.0
 10
39.190035
 20
18.007790
 30
0.0
 10
36.847989
 20
18.298571
 30
0.0
 10
36.158288
 20
17.765055
 30
0.0
  0
SPLINE
  5
2bb
100
AcDbEntity
  8
Layer_1
 62
7
100
AcDbSpline
 70
8
 71
3
 72
8
 73
4
 74
0
 40
0
 40
0
 40
0
 40
0
 40
1
 40
1
 40
1
 40
1
 10
36.158288
 20
17.765055
 30
0.0
 10
35.456952
 20
17.222410
 30
0.0
 10
35.465726
 20
15.846877
 30
0.0
 10
35.239132
 20
15.143320
 30
0.0
  0
SPLINE
  5
2bc
100
AcDbEntity
  8
Layer_1
 62
7
100
AcDbSpline
 70
8
 71
3
 72
8
 73
4
 74
0
 40
0
 40
0
 40
0
 40
0
 40
1
 40
1
 40
1
 40
1
 10
35.239132
 20
15.143320
 30
0.0
 10
34.452537
 20
12.700878
 30
0.0
 10
33.790684
 20
10.239651
 30
0.0
 10
33.037468
 20
7.791899
 30
0.0
  0
SPLINE
  5
2bd
100
AcDbEntity
  8
Layer_1
 62
7
100
AcDbSpline
 70
8
 71
3
 72
8
 73
4
 74
0
 40
0
 40
0
 40
0
 40
0
 40
1
 40
1
 40
1
 40
1
 10
33.037468
 20
7.791899
 30
0.0
 10
32.808204
 20
7.046955
 30
0.0
 10
31.836975
 20
5.440942
 30
0.0
 10
32.287304
 20
4.719822
 30
0.0
  0
SPLINE
  5
2be
100
AcDbEntity
  8
Layer_1
 62
7
100
AcDbSpline
 70
8
 71
3
 72
8
 73
4
 74
0
 40
0
 40
0
 40
0
 40
0
 40
1
 40
1
 40
1
 40
1
 10
32.287304
 20
4.719822
 30
0.0
 10
32.646078
 20
4.145322
 30
0.0
 10
35.020167
 20
4.139741
 30
0.0
 10
35.788642
 20
4.116188
 30
0.0
  0
LWPOLYLINE
  5
2bf
100
AcDbEntity
  8
Layer_1
 62
7
100
AcDbPolyline
 90
7
 70
0
 10
35.788642
 20
4.116191
 30
0.0
 10
36.360850
 20
8.200315
 30
0.0
 10
39.603358
 20
8.336449
 30
0.0
 10
40.175566
 20
4.252326
 30
0.0
 10
43.990284
 20
4.524600
 30
0.0
 10
42.540692
 20
10.106235
 30
0.0
 10
40.175566
 20
18.138344
 30
0.0
  0
SPLINE
  5
2c0
100
AcDbEntity
  8
Layer_1
 62
7
100
AcDbSpline
 70
8
 71
3
 72
8
 73
4
 74
0
 40
0
 40
0
 40
0
 40
0
 40
1
 40
1
 40
1
 40
1
 10
27.014792
 20
8.336449
 30
0.0
 10
26.197679
 20
8.262810
 30
0.0
 10
25.294927
 20
8.075337
 30
0.0
 10
24.555254
 20
8.437466
 30
0.0
  0
SPLINE
  5
2c1
100
AcDbEntity
  8
Layer_1
 62
7
100
AcDbSpline
 70
8
 71
3
 72
8
 73
4
 74
0
 40
0
 40
0
 40
0
 40
0
 40
1
 40
1
 40
1
 40
1
 10
24.555254
 20
8.437466
 30
0.0
 10
23.691944
 20
8.860308
 30
0.0
 10
22.713832
 20
10.646433
 30
0.0
 10
23.832918
 20
11.192072
 30
0.0
  0
SPLINE
  5
2c2
100
AcDbEntity
  8
Layer_1
 62
7
100
AcDbSpline
 70
8
 71
3
 72
8
 73
4
 74
0
 40
0
 40
0
 40
0
 40
0
 40
1
 40
1
 40
1
 40
1
 10
23.832918
 20
11.192072
 30
0.0
 10
25.516371
 20
12.012981
 30
0.0
 10
29.384876
 20
11.743971
 30
0.0
 10
31.401717
 20
12.012164
 30
0.0
  0
SPLINE
  5
2c3
100
AcDbEntity
  8
Layer_1
 62
7
100
AcDbSpline
 70
8
 71
3
 72
8
 73
4
 74
0
 40
0
 40
0
 40
0
 40
0
 40
1
 40
1
 40
1
 40
1
 10
31.401717
 20
12.012164
 30
0.0
 10
31.371772
 20
13.044902
 30
0.0
 10
31.138501
 20
14.159867
 30
0.0
 10
30.686647
 20
15.143323
 30
0.0
  0
SPLINE
  5
2c4
100
AcDbEntity
  8
Layer_1
 62
7
100
AcDbSpline
 70
8
 71
3
 72
8
 73
4
 74
0
 40
0
 40
0
 40
0
 40
0
 40
1
 40
1
 40
1
 40
1
 10
30.686647
 20
15.143323
 30
0.0
 10
29.602506
 20
17.502449
 30
0.0
 10
25.020649
 20
19.258895
 30
0.0
 10
22.347352
 20
16.907664
 30
0.0
  0
SPLINE
  5
2c5
100
AcDbEntity
  8
Layer_1
 62
7
100
AcDbSpline
 70
8
 71
3
 72
8
 73
4
 74
0
 40
0
 40
0
 40
0
 40
0
 40
1
 40
1
 40
1
 40
1
 10
22.347352
 20
16.907664
 30
0.0
 10
19.650138
 20
14.535335
 30
0.0
 10
19.886039
 20
10.271783
 30
0.0
 10
21.048860
 20
7.519628
 30
0.0
  0
SPLINE
  5
2c6
100
AcDbEntity
  8
Layer_1
 62
7
100
AcDbSpline
 70
8
 71
3
 72
8
 73
4
 74
0
 40
0
 40
0
 40
0
 40
0
 40
1
 40
1
 40
1
 40
1
 10
21.048860
 20
7.519628
 30
0.0
 10
21.774228
 20
5.802799
 30
0.0
 10
23.204768
 20
4.393912
 30
0.0
 10
25.870377
 20
4.388467
 30
0.0
  0
LWPOLYLINE
  5
2c7
100
AcDbEntity
  8
Layer_1
 62
7
100
AcDbPolyline
 90
2
 70
0
 10
25.870377
 20
4.388464
 30
0.0
 10
27.014792
 20
8.336449
 30
0.0
  0
SPLINE
  5
2c8
100
AcDbEntity
  8
Layer_1
 62
7
100
AcDbSpline
 70
8
 71
3
 72
8
 73
4
 74
0
 40
0
 40
0
 40
0
 40
0
 40
1
 40
1
 40
1
 40
1
 10
70.693302
 20
8.336453
 30
0.0
 10
69.876193
 20
8.262813
 30
0.0
 10
68.973441
 20
8.075340
 30
0.0
 10
68.233765
 20
8.437469
 30
0.0
  0
SPLINE
  5
2c9
100
AcDbEntity
  8
Layer_1
 62
7
100
AcDbSpline
 70
8
 71
3
 72
8
 73
4
 74
0
 40
0
 40
0
 40
0
 40
0
 40
1
 40
1
 40
1
 40
1
 10
68.233765
 20
8.437469
 30
0.0
 10
67.370496
 20
8.860312
 30
0.0
 10
66.392402
 20
10.646437
 30
0.0
 10
67.511450
 20
11.192076
 30
0.0
  0
SPLINE
  5
2ca
100
AcDbEntity
  8
Layer_1
 62
7
100
AcDbSpline
 70
8
 71
3
 72
8
 73
4
 74
0
 40
0
 40
0
 40
0
 40
0
 40
1
 40
1
 40
1
 40
1
 10
67.511450
 20
11.192076
 30
0.0
 10
68.740361
 20
11.791352
 30
0.0
 10
71.520142
 20
11.642280
 30
0.0
 10
72.982141
 20
11.778282
 30
0.0
  0
SPLINE
  5
2cb
100
AcDbEntity
  8
Layer_1
 62
7
100
AcDbSpline
 70
8
 71
3
 72
8
 73
4
 74
0
 40
0
 40
0
 40
0
 40
0
 40
1
 40
1
 40
1
 40
1
 10
72.982141
 20
11.778282
 30
0.0
 10
73.507803
 20
11.827148
 30
0.0
 10
74.523480
 20
11.787640
 30
0.0
 10
74.883388
 20
12.113180
 30
0.0
  0
SPLINE
  5
2cc
100
AcDbEntity
  8
Layer_1
 62
7
100
AcDbSpline
 70
8
 71
3
 72
8
 73
4
 74
0
 40
0
 40
0
 40
0
 40
0
 40
1
 40
1
 40
1
 40
1
 10
74.883388
 20
12.113180
 30
0.0
 10
75.360420
 20
12.544464
 30
0.0
 10
74.837279
 20
13.701087
 30
0.0
 10
74.698003
 20
14.190365
 30
0.0
  0
SPLINE
  5
2cd
100
AcDbEntity
  8
Layer_1
 62
7
100
AcDbSpline
 70
8
 71
3
 72
8
 73
4
 74
0
 40
0
 40
0
 40
0
 40
0
 40
1
 40
1
 40
1
 40
1
 10
74.698003
 20
14.190365
 30
0.0
 10
73.991128
 20
16.675827
 30
0.0
 10
71.753791
 20
18.382718
 30
0.0
 10
68.023003
 20
17.801410
 30
0.0
  0
SPLINE
  5
2ce
100
AcDbEntity
  8
Layer_1
 62
7
100
AcDbSpline
 70
8
 71
3
 72
8
 73
4
 74
0
 40
0
 40
0
 40
0
 40
0
 40
1
 40
1
 40
1
 40
1
 10
68.023003
 20
17.801410
 30
0.0
 10
65.940168
 20
17.476858
 30
0.0
 10
65.054963
 20
15.921761
 30
0.0
 10
64.541121
 20
14.598778
 30
0.0
  0
SPLINE
  5
2cf
100
AcDbEntity
  8
Layer_1
 62
7
100
AcDbSpline
 70
8
 71
3
 72
8
 73
4
 74
0
 40
0
 40
0
 40
0
 40
0
 40
1
 40
1
 40
1
 40
1
 10
64.541121
 20
14.598778
 30
0.0
 10
63.375153
 20
11.595858
 30
0.0
 10
63.398803
 20
4.401131
 30
0.0
 10
69.548889
 20
4.388471
 30
0.0
  0
LWPOLYLINE
  5
2d0
100
AcDbEntity
  8
Layer_1
 62
7
100
AcDbPolyline
 90
2
 70
0
 10
69.548889
 20
4.388467
 30
0.0
 10
70.693302
 20
8.336453
 30
0.0
  0
LWPOLYLINE
  5
2d1
100
AcDbEntity
  8
Layer_1
 62
7
100
AcDbPolyline
 90
10
 70
1
 10
7.941206
 20
13.918105
 30
0.0
 10
11.374452
 20
14.190379
 30
0.0
 10
10.802245
 20
3.980072
 30
0.0
 10
14.998433
 20
4.116207
 30
0.0
 10
15.189169
 20
11.603767
 30
0.0
 10
15.494995
 20
14.221279
 30
0.0
 10
18.622415
 20
14.190364
 30
0.0
 10
18.813151
 20
17.729937
 30
0.0
 10
10.802245
 20
17.866071
 30
0.0
 10
8.137244
 20
17.647843
 30
0.0
  0
SPLINE
  5
2d2
100
AcDbEntity
  8
Layer_1
 62
7
100
AcDbSpline
 70
8
 71
3
 72
8
 73
4
 74
0
 40
0
 40
0
 40
0
 40
0
 40
1
 40
1
 40
1
 40
1
 10
55.304356
 20
15.878052
 30
0.0
 10
58.579481
 20
17.030592
 30
0.0
 10
60.328338
 20
13.119229
 30
0.0
 10
57.334166
 20
12.179335
 30
0.0
  0
SPLINE
  5
2d3
100
AcDbEntity
  8
Layer_1
 62
7
100
AcDbSpline
 70
8
 71
3
 72
8
 73
4
 74
0
 40
0
 40
0
 40
0
 40
0
 40
1
 40
1
 40
1
 40
1
 10
57.334166
 20
12.179335
 30
0.0
 10
54.776590
 20
11.376668
 30
0.0
 10
55.118388
 20
13.137334
 30
0.0
 10
55.045526
 20
14.326495
 30
0.0
  0
SPLINE
  5
2d4
100
AcDbEntity
  8
Layer_1
 62
7
100
AcDbSpline
 70
8
 71
3
 72
8
 73
4
 74
0
 40
0
 40
0
 40
0
 40
0
 40
1
 40
1
 40
1
 40
1
 10
55.045526
 20
14.326495
 30
0.0
 10
55.018442
 20
14.766218
 30
0.0
 10
54.577843
 20
15.622249
 30
0.0
 10
55.304356
 20
15.878052
 30
0.0
  0
LWPOLYLINE
  5
2d5
100
AcDbEntity
  8
Layer_1
 62
7
100
AcDbPolyline
 90
2
 70
1
 10
20.148303
 20
15.960148
 30
0.0
 10
20.339038
 20
15.824013
 30
0.0
  0
SPLINE
  5
2d6
100
AcDbEntity
  8
Layer_1
 62
7
100
AcDbSpline
 70
8
 71
3
 72
8
 73
4
 74
0
 40
0
 40
0
 40
0
 40
0
 40
1
 40
1
 40
1
 40
1
 10
23.772284
 20
13.373532
 30
0.0
 10
23.909407
 20
15.618302
 30
0.0
 10
27.602831
 20
16.313421
 30
0.0
 10
27.968472
 20
13.781945
 30
0.0
  0
LWPOLYLINE
  5
2d7
100
AcDbEntity
  8
Layer_1
 62
7
100
AcDbPolyline
 90
2
 70
0
 10
27.968472
 20
13.781945
 30
0.0
 10
23.772284
 20
13.373532
 30
0.0
  0
SPLINE
  5
2d8
100
AcDbEntity
  8
Layer_1
 62
7
100
AcDbSpline
 70
8
 71
3
 72
8
 73
4
 74
0
 40
0
 40
0
 40
0
 40
0
 40
1
 40
1
 40
1
 40
1
 10
67.450797
 20
13.509670
 30
0.0
 10
67.718781
 20
15.700258
 30
0.0
 10
71.295843
 20
16.213633
 30
0.0
 10
71.646982
 20
13.781945
 30
0.0
  0
LWPOLYLINE
  5
2d9
100
AcDbEntity
  8
Layer_1
 62
7
100
AcDbPolyline
 90
2
 70
0
 10
71.646982
 20
13.781945
 30
0.0
 10
67.450797
 20
13.509670
 30
0.0
  0
SPLINE
  5
2da
100
AcDbEntity
  8
Layer_1
 62
7
100
AcDbSpline
 70
8
 71
3
 72
8
 73
4
 74
0
 40
0
 40
0
 40
0
 40
0
 40
1
 40
1
 40
1
 40
1
 10
47.232790
 20
13.373553
 30
0.0
 10
45.084532
 20
15.086160
 30
0.0
 10
43.426655
 20
13.327817
 30
0.0
 10
44.473414
 20
11.603767
 30
0.0
  0
SPLINE
  5
2db
100
AcDbEntity
  8
Layer_1
 62
7
100
AcDbSpline
 70
8
 71
3
 72
8
 73
4
 74
0
 40
0
 40
0
 40
0
 40
0
 40
1
 40
1
 40
1
 40
1
 10
44.473414
 20
11.603767
 30
0.0
 10
44.823796
 20
11.026679
 30
0.0
 10
45.687830
 20
10.099856
 30
0.0
 10
46.660582
 20
10.043903
 30
0.0
  0
SPLINE
  5
2dc
100
AcDbEntity
  8
Layer_1
 62
7
100
AcDbSpline
 70
8
 71
3
 72
8
 73
4
 74
0
 40
0
 40
0
 40
0
 40
0
 40
1
 40
1
 40
1
 40
1
 10
46.660582
 20
10.043903
 30
0.0
 10
48.365760
 20
9.946154
 30
0.0
 10
49.878677
 20
11.776388
 30
0.0
 10
49.670967
 20
12.829002
 30
0.0
  0
SPLINE
  5
2dd
100
AcDbEntity
  8
Layer_1
 62
7
100
AcDbSpline
 70
8
 71
3
 72
8
 73
4
 74
0
 40
0
 40
0
 40
0
 40
0
 40
1
 40
1
 40
1
 40
1
 10
49.670967
 20
12.829002
 30
0.0
 10
49.467070
 20
13.863103
 30
0.0
 10
48.019193
 20
14.486341
 30
0.0
 10
47.232790
 20
13.373553
 30
0.0
  0
LWPOLYLINE
  5
2de
100
AcDbEntity
  8
Layer_1
 62
7
100
AcDbPolyline
 90
3
 70
1
 10
56.578847
 20
14.598790
 30
0.0
 10
56.578847
 20
13.373553
 30
0.0
 10
57.341790
 20
14.598790
 30
0.0
  0
LWPOLYLINE
  5
2df
100
AcDbEntity
  8
Layer_1
 62
7
100
AcDbPolyline
 90
3
 70
1
 10
37.886733
 20
13.918103
 30
0.0
 10
39.221882
 20
10.378530
 30
0.0
 10
36.742317
 20
10.378530
 30
0.0
  0
LWPOLYLINE
  5
2e0
100
AcDbEntity
  8
Layer_1
 62
7
100
AcDbPolyline
 90
3
 70
1
 10
62.300924
 20
11.331491
 30
0.0
 10
62.300924
 20
10.514666
 30
0.0
 10
62.491660
 20
10.514666
 30
0.0
  0
ENDSEC
  0
SECTION
  2
OBJECTS
  0
DICTIONARY
  5
C
330
0
100
AcDbDictionary
  3
ACAD_GROUP
350
D
  3
ACAD_MLINESTYLE
350
17
  0
DICTIONARY
  5
D
330
C
100
AcDbDictionary
  0
DICTIONARY
  5
1A
330
C
100
AcDbDictionary
  0
DICTIONARY
  5
17
330
C
100
AcDbDictionary
  3
STANDARD
350
18
  0
DICTIONARY
  5
19
330
C
100
AcDbDictionary
  0
ENDSEC
  0
EOF
