<?xml version="1.0" encoding="UTF-8" standalone="no"?>
<svg
   xmlns:dc="http://purl.org/dc/elements/1.1/"
   xmlns:cc="http://creativecommons.org/ns#"
   xmlns:rdf="http://www.w3.org/1999/02/22-rdf-syntax-ns#"
   xmlns:svg="http://www.w3.org/2000/svg"
   xmlns="http://www.w3.org/2000/svg"
   xmlns:sodipodi="http://sodipodi.sourceforge.net/DTD/sodipodi-0.dtd"
   xmlns:inkscape="http://www.inkscape.org/namespaces/inkscape"
   width="450mm"
   height="280mm"
   viewBox="0 0 450 280"
   version="1.1"
   id="svg8"
   inkscape:version="1.0.1 (3bc2e813f5, 2020-09-07)"
   sodipodi:docname="bike.svg">
  <defs
     id="defs2" />
  <sodipodi:namedview
     id="base"
     pagecolor="#ffffff"
     bordercolor="#666666"
     borderopacity="1.0"
     inkscape:pageopacity="0.0"
     inkscape:pageshadow="2"
     inkscape:zoom="0.35"
     inkscape:cx="400"
     inkscape:cy="560"
     inkscape:document-units="mm"
     inkscape:current-layer="layer1"
     inkscape:document-rotation="0"
     showgrid="false"
     inkscape:window-width="1528"
     inkscape:window-height="836"
     inkscape:window-x="72"
     inkscape:window-y="27"
     inkscape:window-maximized="1" />
  <metadata
     id="metadata5">
    <rdf:RDF>
      <cc:Work
         rdf:about="">
        <dc:format>image/svg+xml</dc:format>
        <dc:type
           rdf:resource="http://purl.org/dc/dcmitype/StillImage" />
        <dc:title></dc:title>
      </cc:Work>
    </rdf:RDF>
  </metadata>
  <g
     inkscape:label="Layer 1"
     inkscape:groupmode="layer"
     id="layer1">
    <path
       style="fill:#000000;stroke-width:1.73701"
       d="M 75.9197,275.98702 C 45.344881,266.62952 21.779569,239.86137 16.752973,208.77888 15.099202,198.55225 14.981963,198.38747 9.2228449,198.19199 3.7559682,198.00644 3.3854624,197.61615 3.5680682,192.2362 4.3197817,170.08919 15.900022,145.62679 33.366011,129.29028 52.50333,111.39056 74.66482,103.08456 100.9097,103.97536 c 20.20205,0.6857 44.14444,10.41624 57.36647,23.31452 2.07816,2.02735 3.98807,3.36424 4.24421,2.97084 0.25639,-0.39331 2.31302,-2.68054 4.57102,-5.0826 l 4.10538,-4.36735 -4.49475,-14.76394 c -2.47215,-8.120189 -6.23899,-18.733717 -8.37072,-23.585577 -3.56933,-8.123994 -4.3113,-8.792995 -9.38217,-8.459239 -6.77943,0.446155 -22.46114,-6.699053 -24.70476,-11.256421 -2.22701,-4.523688 -0.032,-10.011703 4.61673,-11.543951 5.71587,-1.88385 59.94148,0.908626 62.07956,3.196945 3.75657,4.020473 0.57936,8.204069 -7.01473,9.236696 -4.05423,0.551341 -11.01444,2.468239 -15.46705,4.259849 -9.38369,3.775669 -9.4025,2.439192 0.38091,27.088859 3.46128,8.720649 10.14482,26.715489 14.85243,39.988619 4.70754,13.27313 9.71977,26.57704 11.13828,29.56431 l 2.57904,5.4313 15.37782,-7.46619 c 33.39249,-16.21252 43.87217,-27.10172 68.31025,-70.979782 l 16.92571,-30.389746 -4.33498,-15.171175 -4.335,-15.171112 6.08375,-7.173751 c 9.85209,-11.617385 9.16018,-12.302084 -12.42608,-12.296693 -18.18893,0.0047 -18.6948,-0.09786 -19.09995,-3.858561 -0.56691,-5.261841 4.44869,-6.1290254 26.13968,-4.5193995 14.45483,1.0726305 17.86475,1.8633885 19.70585,4.5692565 1.90706,2.80295 1.67639,4.280475 -1.60879,10.304423 -2.1093,3.867679 -5.90306,8.610385 -8.43046,10.539201 l -4.59527,3.507027 2.84902,8.293845 c 1.56694,4.561594 3.89551,8.736714 5.17462,9.278045 3.97196,1.680865 18.25241,-4.154599 18.36613,-7.504997 0.13263,-3.907385 5.41908,-4.503991 42.43588,-4.789149 l 29.24585,-0.225343 -1.15238,5.864126 c -0.63367,3.225283 -2.77194,16.367619 -4.75142,29.205156 -1.97949,12.837537 -4.22713,23.95859 -4.99476,24.71338 -0.76764,0.75485 -11.86425,1.4195 -24.65919,1.47703 -12.79495,0.0577 -24.22163,0.36401 -25.39257,0.68109 -1.57969,0.42788 -1.71543,1.906979 -0.52564,5.731869 l 1.60315,5.15521 9.96732,-2.26387 c 17.8148,-4.04629 59.5151,1.69227 63.55024,8.74585 0.49425,0.86344 0.0711,2.99637 -0.93927,4.7398 -1.56254,2.69551 -0.38215,4.27209 7.88977,10.53617 41.51874,31.44168 43.67557,93.42594 4.46653,128.36311 -34.50942,30.74953 -87.0012,27.48454 -117.39658,-7.30214 -9.91514,-11.34761 -17.68439,-25.97117 -19.43418,-36.57955 -0.80006,-4.85095 -1.42251,-5.35232 -5.75674,-4.63739 -4.80965,0.79323 -4.86762,0.69005 -5.62753,-10.01751 -1.0142,-14.28951 3.63727,-33.10802 12.08663,-48.89924 4.96476,-9.27868 9.83605,-15.09876 20.21559,-24.15281 l 13.67463,-11.92835 -1.8874,-7.17675 c -1.57516,-5.98948 -2.27207,-6.79187 -4.21293,-4.85024 -1.27904,1.27955 -19.61075,21.29236 -40.73725,44.473 -21.12641,23.18058 -39.50014,43.33636 -40.83051,44.7906 -2.03109,2.22038 -2.00817,3.80346 0.14296,9.87746 3.16556,8.93842 1.53655,17.56232 -4.60464,24.37736 -5.24877,5.82466 -5.34306,6.5627 -2.01553,15.77332 1.72249,4.76787 3.62607,7.11024 5.83913,7.18536 3.33912,0.11333 4.03733,2.85943 1.96946,7.74578 -0.82965,1.96042 -3.49701,2.63043 -9.64128,2.42189 -7.85729,-0.2667 -8.48343,-0.6072 -8.34988,-4.54208 0.0794,-2.33955 1.29629,-4.84802 2.70429,-5.57438 2.18977,-1.12967 2.1195,-2.40124 -0.48553,-8.79287 -2.68965,-6.59892 -3.7149,-7.49576 -8.77229,-7.6732 -7.91001,-0.27479 -16.53096,-6.40679 -19.29976,-13.72171 -2.9233,-7.72298 -4.99695,-7.84132 -6.66048,-0.37979 -2.30135,10.32165 -12.23854,26.23822 -22.18125,35.52813 -21.98438,20.541 -53.92031,28.48986 -81.074208,20.17942 z m 33.44759,-9.65501 c 0.95257,-1.50846 -11.100735,-61.60467 -12.368433,-61.66742 -1.002455,-0.047 -19.394706,54.78323 -19.4058,57.85445 -0.0054,1.12462 1.347597,2.4485 3.003677,2.94187 5.131654,1.52881 27.919536,2.21872 28.770556,0.87082 z m 23.15574,-7.36705 c 5.83382,-2.89783 10.63697,-6.15488 10.67373,-7.23795 0.0673,-1.98468 -40.88259,-49.25113 -41.86255,-48.31981 -0.48396,0.45981 10.34434,55.27618 11.96488,60.57103 0.91234,2.9809 5.58136,1.76328 19.22394,-5.01327 z M 82.896771,233.84113 c 4.88495,-14.58128 8.648013,-27.30107 8.362321,-28.2662 -0.285833,-0.96509 -10.752051,7.20146 -23.258512,18.14786 -21.608509,18.91311 -22.592709,20.05651 -19.796298,22.99877 4.949457,5.20756 23.087249,16.23925 24.490383,14.89545 0.726149,-0.6955 5.317082,-13.1946 10.202106,-27.77588 z m 291.362589,34.38051 c 1.75381,-1.03144 0.86533,-7.9602 -4.02894,-31.42589 -3.45332,-16.5565 -6.86524,-29.52186 -7.58202,-28.81192 -1.37722,1.36412 -19.05434,53.84952 -19.15719,56.87992 -0.033,0.97429 1.29486,2.17509 2.95094,2.66846 5.25373,1.56514 25.47597,2.06635 27.81721,0.6893 z m -25.47939,-31.13078 c 5.08877,-15.36074 9.72412,-29.06579 10.30062,-30.45572 1.5132,-3.64815 -4.57259,1.08612 -28.42872,22.1151 l -20.43764,18.01561 4.22189,3.62853 c 5.88086,5.05446 20.83651,14.44476 23.16288,14.54337 1.0608,0.0423 6.09214,-12.4861 11.18097,-27.84689 z m 47.85894,23.69652 c 15.69708,-8.75932 16.26171,-6.1515 -6.92707,-31.99438 -11.41161,-12.71775 -21.00371,-22.53402 -21.31586,-21.81408 -0.51672,1.19238 9.00495,51.81156 10.79713,57.39877 0.99666,3.10728 8.04158,1.6574 17.4458,-3.59031 z M 157.00579,237.82665 c 12.62187,-17.46044 13.37534,-16.39862 -19.27889,-27.16806 -15.62692,-5.15383 -29.15176,-9.13236 -30.05521,-8.84121 -2.30794,0.74382 38.29634,46.46872 40.68279,45.81336 1.07337,-0.29466 4.96645,-4.70664 8.65131,-9.80409 z M 70.08844,217.23897 c 10.124979,-9.29146 18.199546,-17.11773 17.943539,-17.3918 -0.660294,-0.70669 -57.281738,10.66783 -58.426057,11.73703 -1.223903,1.14355 4.862594,16.29546 9.450643,23.52684 l 3.56073,5.61211 4.531054,-3.29533 c 2.492059,-1.81243 12.815114,-10.89742 22.940091,-20.18885 z m 350.17251,23.1438 c 7.10468,-9.82787 10.74011,-17.08971 9.31774,-18.6121 -1.67714,-1.79493 -56.71989,-19.92598 -57.7031,-19.00739 -1.09291,1.02114 38.44899,44.95769 40.83482,45.37314 0.95027,0.16562 4.34802,-3.32366 7.55054,-7.75365 z m -91.55871,-14.18561 c 10.60591,-9.31936 21.30204,-18.80771 23.7691,-21.08521 l 4.48558,-4.1409 -6.11634,0.98157 c -3.364,0.54008 -17.76169,3.32722 -31.99493,6.19403 -24.53307,4.94146 -25.82515,5.40925 -24.85181,8.9967 2.35014,8.66218 11.7169,25.83772 14.148,25.9429 0.70225,0.0302 9.95442,-7.56973 20.5604,-16.88909 z M 168.67381,210.50144 c -0.78786,-0.82841 -8.44827,-2.18902 -17.02305,-3.02352 -17.06583,-1.66081 -16.78444,-1.04856 2.42769,5.28245 11.13669,3.66998 13.10433,3.90782 14.45937,1.74771 0.86634,-1.3811 0.92722,-3.17464 0.13599,-4.00664 z m -112.202792,-8.142 c 33.687475,-6.79078 35.072804,-7.3255 26.175881,-10.10276 -3.783519,-1.18107 -16.931293,-5.54132 -29.217269,-9.68946 -19.809788,-6.6884 -22.482584,-7.22666 -23.614129,-4.75537 -1.905592,4.16187 -2.673013,29.67838 -0.894439,29.73874 0.846413,0.0287 13.243828,-2.30729 27.549892,-5.19116 z m 376.295122,12.67294 c 1.68278,-3.97643 2.24173,-28.10998 0.67486,-29.15321 -1.91238,-1.27358 -60.28877,10.87541 -59.01081,12.28103 1.10298,1.21327 51.73416,18.96691 55.2097,19.35912 1.08848,0.12293 2.49517,-0.99634 3.12592,-2.48695 z M 324.97346,203.48316 c 18.39103,-3.76002 29.11875,-6.69707 27.65047,-7.5702 -1.31945,-0.78456 -14.66728,-5.54034 -29.66197,-10.56835 -22.25172,-7.46141 -27.55544,-8.71302 -28.85395,-6.80916 -2.22525,3.2625 -3.0287,30.96095 -0.90028,31.0332 0.94391,0.0321 15.2384,-2.70645 31.76567,-6.08549 z m -254.787537,-36.32848 -20.606297,-23.3775 -4.885472,5.56663 c -5.104837,5.81662 -13.705781,21.29185 -12.484651,22.46308 1.245705,1.1948 52.134768,18.11426 55.418494,18.42541 2.019802,0.1914 -4.288617,-8.1553 -17.442074,-23.07762 z m 17.742695,-10.20493 c -4.329862,-21.18014 -6.683566,-29.31003 -8.503546,-29.37181 -3.06911,-0.10413 -17.614278,6.75453 -23.401218,11.03467 l -4.217598,3.11946 20.533916,22.73858 c 11.293715,12.50624 20.768305,22.51971 21.054726,22.25209 0.286277,-0.26748 -2.173444,-13.6654 -5.46628,-29.77299 z m 20.947862,-0.56402 c 10.90129,-32.61808 11.47169,-30.57676 -8.79117,-31.46041 -8.876431,-0.38727 -12.917647,0.11335 -13.581533,1.68225 -0.519911,1.22832 1.108425,12.42859 3.61835,24.88946 6.03222,29.94802 7.770346,37.01941 8.593007,34.95903 0.376879,-0.94312 4.949196,-14.4748 10.161346,-30.07033 z m 132.69827,11.45607 c 11.53582,-12.51318 31.46539,-34.21703 44.28813,-48.23074 l 23.31398,-25.479519 -3.50665,-9.90847 c -1.9287,-5.449625 -4.06572,-9.929017 -4.74901,-9.954113 -0.68323,-0.0253 -7.07449,10.542398 -14.20281,23.483233 -23.59034,42.826329 -35.24425,54.847689 -68.80224,70.971759 -9.59155,4.60852 -17.47125,9.32584 -17.51053,10.48294 -0.22006,6.48369 8.46883,11.9822 18.15635,11.48982 1.12128,-0.0572 11.47709,-10.34167 23.01278,-22.85491 z M 136.809,154.92049 c 9.32916,-8.89834 9.63452,-9.45875 6.90982,-12.68293 -4.20758,-4.97881 -19.88916,-13.77477 -21.56988,-12.09875 -0.79807,0.79586 -5.07793,12.2734 -9.51073,25.50561 -4.43282,13.23223 -8.44675,25.11221 -8.9198,26.39987 -1.00001,2.72236 18.90518,-13.5937 33.09059,-27.1238 z m 6.74217,27.89104 c 11.36783,-0.96215 21.11477,-2.16606 21.65993,-2.67544 2.92106,-2.72927 -9.671,-29.30271 -13.82544,-29.17623 -0.71168,0.0219 -9.76011,7.52376 -20.10757,16.67138 -21.70636,19.18917 -22.56366,18.12876 12.27308,15.18029 z m 51.40223,3.41305 c 0.0166,-0.48947 -3.81226,-10.98226 -8.50862,-23.31746 -4.6963,-12.33511 -9.39755,-25.38955 -10.44721,-29.0098 -2.14993,-7.41545 -3.30925,-7.97742 -7.51029,-3.64057 -2.7485,2.83733 -2.46107,3.7128 4.47213,13.62137 6.86545,9.81175 13.97279,26.82782 15.97808,38.25372 0.46399,2.64446 2.00077,4.84739 3.41473,4.89539 1.41402,0.048 2.58455,-0.31296 2.60118,-0.80265 z m 145.86895,-11.01065 c -6.88798,-8.64911 -15.68471,-18.96132 -19.54827,-22.91606 l -7.02459,-7.19045 -5.32734,5.90221 c -5.90121,6.53803 -13.55849,20.0667 -12.18808,21.53341 1.21199,1.29715 55.16027,19.51068 55.96369,18.89394 0.35678,-0.27363 -4.98744,-7.57403 -11.87541,-16.22305 z m 61.46607,12.64768 c 14.60512,-2.96441 27.59383,-5.90323 28.86381,-6.5306 1.75561,-0.86735 0.82705,-4.28006 -3.87451,-14.24051 -3.40083,-7.20493 -7.34338,-13.31694 -8.76127,-13.58224 -1.41781,-0.26556 -12.65994,8.52622 -24.98249,19.53667 -12.32253,11.01052 -21.36869,20.06128 -20.10252,20.11286 1.26624,0.0493 14.25178,-2.3317 28.85698,-5.29618 z m -48.16112,-29.897 c -3.25104,-15.76915 -6.2583,-29.04289 -6.68279,-29.49716 -1.9706,-2.10913 -8.19731,1.49694 -7.81782,4.52756 0.22482,1.79475 -1.10071,4.29355 -2.94538,5.55286 -3.25124,2.21957 -3.26948,2.58081 -0.59671,11.79398 1.51662,5.2274 4.16614,12.56279 5.88801,16.30091 3.4828,7.56146 16.69488,23.7255 17.53121,21.44824 0.29386,-0.80037 -2.12559,-14.35719 -5.37665,-30.1264 z m 20.58108,1.41928 c 7.33571,-21.88281 9.24523,-29.4757 7.68188,-30.54505 -1.14432,-0.78276 -8.60987,-1.65671 -16.59002,-1.94222 -14.16075,-0.50696 -14.49102,-0.42418 -13.74551,3.41736 6.65263,34.2835 11.86997,59.14605 12.32294,58.72276 0.31274,-0.29222 4.96131,-13.63576 10.33071,-29.65285 z m 25.88333,2.90734 14.99477,-14.1691 -5.66895,-4.56104 c -8.33655,-6.70724 -20.376,-12.90535 -21.94947,-11.29998 -1.22542,1.25017 -19.21277,53.9403 -19.30094,56.53785 -0.0624,1.83704 16.34897,-11.78961 31.92459,-26.50773 z m -72.75245,-14.11557 c -3.25732,-8.50352 -6.34728,-10.96215 -8.92068,-7.09794 -0.92819,1.39381 9.90091,15.8213 11.92692,15.89007 0.20142,0.006 -1.15134,-3.94966 -3.00624,-8.79213 z m 7.04128,-13.6651 c 0.62227,-0.93479 0.30432,-1.72766 -0.70658,-1.76198 -1.01116,-0.0343 -1.865,0.71879 -1.8974,1.67359 -0.0324,0.9548 0.28553,1.74775 0.70658,1.76203 0.42123,0.0143 1.27494,-0.73887 1.8974,-1.67364 z m -5.2634,-24.14823 c 0.13175,-3.88154 -5.21012,-21.159237 -6.34178,-20.511793 -5.58405,3.194543 -2.20235,24.452713 3.57263,22.458613 1.50434,-0.51912 2.75044,-1.39549 2.76915,-1.94682 z m -8.54103,-25.97008 c 1.44905,-6.499254 -1.19863,-33.815469 -3.28452,-33.886269 -3.46254,-0.117526 -12.33597,3.624032 -12.39029,5.224527 -0.13886,4.091168 11.53574,36.292216 12.87921,35.523608 0.79789,-0.456391 2.05588,-3.544351 2.7956,-6.861866 z"
       id="path144" />
  </g>
</svg>
