<?xml version="1.0" encoding="UTF-8" standalone="no"?>
<svg
   xmlns:dc="http://purl.org/dc/elements/1.1/"
   xmlns:cc="http://creativecommons.org/ns#"
   xmlns:rdf="http://www.w3.org/1999/02/22-rdf-syntax-ns#"
   xmlns:svg="http://www.w3.org/2000/svg"
   xmlns="http://www.w3.org/2000/svg"
   xmlns:sodipodi="http://sodipodi.sourceforge.net/DTD/sodipodi-0.dtd"
   xmlns:inkscape="http://www.inkscape.org/namespaces/inkscape"
   sodipodi:docname="dr-leroy.svg"
   id="svg8"
   version="1.1"
   viewBox="0 0 279.4 215.9"
   height="8.5in"
   width="11in"
   inkscape:version="1.0.1 (3bc2e813f5, 2020-09-07)">
  <defs
     id="defs2">
    <rect
       x="-110.10707"
       y="-68.19387"
       width="293.36974"
       height="217.38733"
       id="rect12" />
  </defs>
  <sodipodi:namedview
     id="base"
     pagecolor="#ffffff"
     bordercolor="#666666"
     borderopacity="1.0"
     inkscape:pageopacity="0.0"
     inkscape:pageshadow="2"
     inkscape:zoom="0.35"
     inkscape:cx="400"
     inkscape:cy="788.57143"
     inkscape:document-units="mm"
     inkscape:current-layer="layer1"
     inkscape:document-rotation="0"
     showgrid="false"
     units="in"
     inkscape:window-width="1528"
     inkscape:window-height="836"
     inkscape:window-x="72"
     inkscape:window-y="27"
     inkscape:window-maximized="1" />
  <metadata
     id="metadata5">
    <rdf:RDF>
      <cc:Work
         rdf:about="">
        <dc:format>image/svg+xml</dc:format>
        <dc:type
           rdf:resource="http://purl.org/dc/dcmitype/StillImage" />
        <dc:title></dc:title>
      </cc:Work>
    </rdf:RDF>
  </metadata>
  <g
     inkscape:label="Layer 1"
     inkscape:groupmode="layer"
     id="layer1">
    <g
       aria-label="Let's-a go!,          Dr. Leroy!"
       transform="translate(126.03429,85.238776)"
       id="text10"
       style="font-size:35.2778px;line-height:1.25;font-family:Navilu;-inkscape-font-specification:Navilu;letter-spacing:0px;word-spacing:0px;white-space:pre;shape-inside:url(#rect12)">
      <g
         id="g247"
         transform="matrix(1.0438405,0,0,1.0438405,-4.3424478,-4.9731444)">
        <path
           d="m -103.54815,-67.444357 -1.07384,16.589045 11.367937,-1.370076 1.036814,8.553726 -20.588181,2.443922 -1.03682,-27.401548 z"
           style="font-style:normal;font-variant:normal;font-weight:normal;font-stretch:normal;font-size:35.2778px;font-family:'Super Mario 256';-inkscape-font-specification:'Super Mario 256, ';stroke-width:1.04964"
           id="path16" />
        <path
           d="m -88.329243,-68.481172 h 18.144268 l -1.518193,7.665028 -8.924019,1.370077 -0.111087,1.888485 7.887203,0.592466 -0.370291,5.887631 -7.035534,0.629494 0.629496,1.999572 8.553726,0.07406 3.147475,7.368795 h -20.403044 l -1.999573,-17.69992 1.999573,-9.775687 z"
           style="font-style:normal;font-variant:normal;font-weight:normal;font-stretch:normal;font-size:35.2778px;font-family:'Super Mario 256';-inkscape-font-specification:'Super Mario 256, ';stroke-width:1.04964"
           id="path18" />
        <path
           d="m -69.111131,-68.370085 27.36452,0.481379 v 11.108736 l -9.257281,-1.518194 2.55501,17.440715 h -13.256425 l 1.999573,-17.440715 -9.405397,-0.481379 z"
           style="font-style:normal;font-variant:normal;font-weight:normal;font-stretch:normal;font-size:35.2778px;font-family:'Super Mario 256';-inkscape-font-specification:'Super Mario 256, ';stroke-width:1.04964"
           id="path20" />
        <path
           d="m -38.451078,-69.962336 1.999572,0.333261 v 4.110233 l -1.962542,2.666097 -1.518195,-0.592467 1.518195,-3.036388 z"
           style="font-style:normal;font-variant:normal;font-weight:normal;font-stretch:normal;font-size:35.2778px;font-family:'Super Mario 256';-inkscape-font-specification:'Super Mario 256, ';stroke-width:1.04964"
           id="path22" />
        <path
           d="m -8.864879,-61.482669 -4.776756,5.887631 -5.591397,-3.591825 -1.407107,1.777397 9.997863,7.331766 -4.850815,9.146193 h -11.886348 l -8.294522,-6.591184 3.591824,-6.035746 7.14662,4.036174 1.073844,-1.66631 -10.47924,-6.220893 9.923803,-11.108735 h 8.924019 z"
           style="font-style:normal;font-variant:normal;font-weight:normal;font-stretch:normal;font-size:35.2778px;font-family:'Super Mario 256';-inkscape-font-specification:'Super Mario 256, ';stroke-width:1.04964"
           id="path24" />
        <path
           d="m -8.4946553,-53.558437 -0.1851456,-3.295592 11.9974347,-1.481165 0.5924659,4.332407 z"
           style="font-style:normal;font-variant:normal;font-weight:normal;font-stretch:normal;font-size:35.2778px;font-family:'Super Mario 256';-inkscape-font-specification:'Super Mario 256, ';stroke-width:1.04964"
           id="path26" />
        <path
           d="m 24.090903,-68.333056 11.701202,25.513063 -11.182794,1.777399 -0.888699,-6.554155 -8.998076,-0.222174 -2.036601,6.998504 L 1.9104609,-42.745934 16.68508,-67.592473 Z m -5.517339,9.70163 -1.518193,3.77697 5.665455,0.148116 -1.296019,-3.813999 z"
           style="font-style:normal;font-variant:normal;font-weight:normal;font-stretch:normal;font-size:35.2778px;font-family:'Super Mario 256';-inkscape-font-specification:'Super Mario 256, ';stroke-width:1.04964"
           id="path28" />
        <path
           d="m 75.820518,-62.778688 -6.331979,3.554796 -2.55501,-1.407106 -3.776969,1.147902 -2.258777,5.369223 2.369864,4.99893 6.813357,-0.814641 0.148117,-1.22196 -5.258135,0.481378 0.666524,-7.442853 10.96062,0.148116 V -43.3384 l -18.403473,2.369863 -5.591397,-11.367939 2.036602,-10.442212 7.850173,-5.702484 9.627572,0.666524 z"
           style="font-style:normal;font-variant:normal;font-weight:normal;font-stretch:normal;font-size:35.2778px;font-family:'Super Mario 256';-inkscape-font-specification:'Super Mario 256, ';stroke-width:1.04964"
           id="path30" />
        <path
           d="m 96.630858,-68.036823 8.072352,10.034892 -2.2958,13.219396 -14.626508,3.813998 -11.664172,-10.294094 1.740369,-11.590114 8.701842,-5.51734 z m -7.887199,9.331338 -1.888485,4.22132 3.258563,2.184718 3.443707,-1.25899 -0.185145,-4.110232 z"
           style="font-style:normal;font-variant:normal;font-weight:normal;font-stretch:normal;font-size:35.2778px;font-family:'Super Mario 256';-inkscape-font-specification:'Super Mario 256, ';stroke-width:1.04964"
           id="path32" />
        <path
           d="m 108.03579,-43.78275 1.29603,-2.443921 3.36965,-0.148117 1.33305,2.073631 -0.8887,3.258563 -2.99936,0.111087 z m 5.25814,-5.221106 -4.4435,0.333263 -3.4437,-20.662249 7.29474,-1.036815 z"
           style="font-style:normal;font-variant:normal;font-weight:normal;font-stretch:normal;font-size:35.2778px;font-family:'Super Mario 256';-inkscape-font-specification:'Super Mario 256, ';stroke-width:1.04964"
           id="path34" />
        <path
           d="m 119.51482,-43.893837 2.96233,0.185146 -0.88869,4.258348 -3.18451,2.96233 h -1.96255 l 2.70313,-3.851028 z"
           style="font-style:normal;font-variant:normal;font-weight:normal;font-stretch:normal;font-size:35.2778px;font-family:'Super Mario 256';-inkscape-font-specification:'Super Mario 256, ';stroke-width:1.04964"
           id="path36" />
        <path
           d="m -44.672057,92.754472 7.776114,6.369014 1.592253,14.848674 -7.665028,6.25793 H -58.298773 V 94.420783 Z m -5.147047,9.886778 v 8.07235 l 4.99893,-1.74036 v -4.03619 z"
           style="font-style:normal;font-variant:normal;font-weight:normal;font-stretch:normal;font-size:35.2778px;font-family:'Super Mario 256';-inkscape-font-specification:'Super Mario 256, ';stroke-width:1.04964"
           id="path38" />
        <path
           d="m -19.418261,92.939618 6.850387,4.998928 0.629496,8.627794 -3.851028,4.29537 6.8503865,6.03575 -8.0353195,3.48074 -8.40561,-7.18365 1.25899,7.14662 h -8.516697 l -2.147689,-26.21662 z m -5.961688,7.665032 -0.222175,5.25813 2.258777,0.29624 2.258776,-3.25856 z"
           style="font-style:normal;font-variant:normal;font-weight:normal;font-stretch:normal;font-size:35.2778px;font-family:'Super Mario 256';-inkscape-font-specification:'Super Mario 256, ';stroke-width:1.04964"
           id="path40" />
        <path
           d="m -5.7545873,113.8981 h 2.9253005 l 1.7403686,3.03639 -1.2219609,2.25878 -3.4437082,0.77761 -1.592252,-2.70313 z"
           style="font-style:normal;font-variant:normal;font-weight:normal;font-stretch:normal;font-size:35.2778px;font-family:'Super Mario 256';-inkscape-font-specification:'Super Mario 256, ';stroke-width:1.04964"
           id="path42" />
        <path
           d="m 30.274606,93.754259 -1.073844,16.589041 11.367939,-1.37006 1.036815,8.55372 -20.58819,2.44392 -1.036815,-27.401553 z"
           style="font-style:normal;font-variant:normal;font-weight:normal;font-stretch:normal;font-size:35.2778px;font-family:'Super Mario 256';-inkscape-font-specification:'Super Mario 256, ';stroke-width:1.04964"
           id="path44" />
        <path
           d="m 45.493519,92.717443 h 18.144269 l -1.518194,7.665027 -8.924018,1.37008 -0.111087,1.88849 7.887202,0.59247 -0.370291,5.88763 -7.035533,0.62949 0.629496,1.99957 8.553726,0.0741 3.147475,7.3688 H 45.493519 l -1.999572,-17.69992 1.999572,-9.775695 z"
           style="font-style:normal;font-variant:normal;font-weight:normal;font-stretch:normal;font-size:35.2778px;font-family:'Super Mario 256';-inkscape-font-specification:'Super Mario 256, ';stroke-width:1.04964"
           id="path46" />
        <path
           d="m 80.078708,92.939618 6.850387,4.998928 0.629496,8.627794 -3.851028,4.29537 6.850386,6.03575 -8.035319,3.48074 -8.40561,-7.18365 1.25899,7.14662 h -8.516697 l -2.14769,-26.21662 z m -5.961688,7.665032 -0.222175,5.25813 2.258777,0.29624 2.258776,-3.25856 z"
           style="font-style:normal;font-variant:normal;font-weight:normal;font-stretch:normal;font-size:35.2778px;font-family:'Super Mario 256';-inkscape-font-specification:'Super Mario 256, ';stroke-width:1.04964"
           id="path48" />
        <path
           d="m 109.10948,93.161793 8.07234,10.034897 -2.2958,13.21939 -14.6265,3.81401 -11.664178,-10.2941 1.740368,-11.590124 8.701848,-5.517335 z m -7.88721,9.331347 -1.888482,4.22132 3.258562,2.18471 3.44371,-1.25899 -0.18515,-4.11023 z"
           style="font-style:normal;font-variant:normal;font-weight:normal;font-stretch:normal;font-size:35.2778px;font-family:'Super Mario 256';-inkscape-font-specification:'Super Mario 256, ';stroke-width:1.04964"
           id="path50" />
        <path
           d="m 120.51439,93.161793 6.10981,6.517123 5.73951,-7.257705 8.10938,6.109805 -8.84996,7.702064 6.55416,13.58968 -14.51542,-0.66652 v -11.81229 l -9.22025,-8.812934 z"
           style="font-style:normal;font-variant:normal;font-weight:normal;font-stretch:normal;font-size:35.2778px;font-family:'Super Mario 256';-inkscape-font-specification:'Super Mario 256, ';stroke-width:1.04964"
           id="path52" />
        <path
           d="m 143.65753,117.41587 1.29603,-2.44392 3.36965,-0.14812 1.33304,2.07363 -0.8887,3.25856 -2.99936,0.11109 z m 5.25814,-5.22111 -4.44349,0.33326 -3.44371,-20.662246 7.29474,-1.036816 z"
           style="font-style:normal;font-variant:normal;font-weight:normal;font-stretch:normal;font-size:35.2778px;font-family:'Super Mario 256';-inkscape-font-specification:'Super Mario 256, ';stroke-width:1.04964"
           id="path54" />
        <path
           style="fill:#000000;stroke-width:0.150813"
           d="m 77.229864,85.385599 c -2.901238,-0.368536 -5.475374,-1.514778 -7.228903,-3.219024 -1.328995,-1.291634 -2.019393,-2.83224 -2.438648,-5.4417 -0.264092,-1.643747 -0.266977,-1.650648 -0.982263,-2.350985 -1.232007,-1.206282 -1.785703,-2.661813 -2.399356,-6.307347 -0.174234,-1.035149 -0.339044,-1.904325 -0.366226,-1.931511 -0.02718,-0.02724 -0.752483,0.05449 -1.611769,0.181354 -8.120629,1.199561 -15.21841,0.282169 -21.469751,-2.774983 -2.135129,-1.044172 -3.641299,-2.018706 -5.227646,-3.382434 -0.635633,-0.546438 -1.216143,-0.993519 -1.290037,-0.993519 -0.07386,0 -0.368232,0.242663 -0.65407,0.53923 -0.649937,0.674327 -2.266897,1.760624 -3.245729,2.180539 -1.834687,0.787075 -4.180636,1.075966 -6.136239,0.755664 -0.800554,-0.13111 -0.996835,-0.09923 -2.488433,0.404238 -2.825239,0.95364 -4.63154,0.700662 -6.190805,-0.867034 -1.137826,-1.143978 -2.290247,-3.36649 -3.255221,-6.277878 C 11.902661,54.868033 11.679342,54.493266 10.851873,53.562606 8.3989885,50.803808 7.1102997,48.319991 5.9568097,44.127885 5.2119129,41.420726 5.1905792,40.553662 5.825989,38.812614 6.390903,37.264718 6.4874004,37.076555 7.1150344,36.299616 7.4461355,35.889744 8.041496,35.458495 8.8671601,35.030473 9.814844,34.539197 10.483185,34.027972 11.62627,32.919968 c 1.590513,-1.541687 2.548401,-2.13901 4.490135,-2.799976 2.262452,-0.770133 5.568696,-0.854801 8.026939,-0.20555 2.401873,0.63437 4.065344,1.799465 5.911617,4.140531 l 0.475758,0.603253 0.501303,-0.466213 c 0.925793,-0.860998 1.453777,-1.128039 2.637134,-1.333822 1.118186,-0.194446 1.196848,-0.23589 1.965218,-1.035465 0.44022,-0.458101 0.800386,-0.906962 0.800386,-0.997473 0,-0.09051 -0.617184,-0.826038 -1.371517,-1.634511 -3.843385,-4.119166 -6.86731,-8.184186 -9.171037,-12.32853 C 25.032642,15.315887 24.552438,14.646714 23.619493,13.695125 22.96891,13.031547 22.16028,12.089022 21.822528,11.600627 20.669962,9.9339506 20.003983,7.5791753 19.991239,5.1255309 19.987897,4.4226931 19.88574,3.9901338 19.576496,3.3643815 19.189671,2.5815998 19.094388,2.5000839 17.883838,1.9163082 15.659463,0.84364409 14.568971,-0.58360679 14.038759,-3.1161147 13.909031,-3.7357478 13.68237,-4.3804743 13.535061,-4.5488434 13.387764,-4.7172102 12.938052,-5.2282252 12.535698,-5.6844341 11.495627,-6.8637507 10.233062,-8.8638853 9.5797277,-10.367266 c -1.781369,-4.099072 -1.9224276,-8.020422 -0.3930524,-10.926383 0.5734252,-1.089548 2.6376687,-3.224932 4.0044067,-4.1424 1.741832,-1.169273 4.574568,-2.267182 5.849554,-2.267182 0.702653,0 1.144311,-0.206319 2.089221,-0.975956 2.18731,-1.781587 4.791737,-2.274688 7.535473,-1.426703 1.220755,0.377291 2.13826,0.985019 3.267397,2.164226 0.729178,0.761509 1.16316,1.072777 1.915877,1.374111 1.011607,0.404977 1.9417,0.985543 2.834006,1.769003 0.308286,0.270671 0.577023,0.402617 0.656911,0.322531 0.07442,-0.07454 0.381934,-0.844547 0.683469,-1.711125 0.653713,-1.878701 1.073435,-2.73434 2.055933,-4.191169 1.5092,-2.23786 3.757348,-4.038788 6.309537,-5.054416 5.136441,-2.044002 11.422194,-1.287425 18.362073,2.210128 5.19984,2.620609 9.282474,6.180068 12.817383,11.174881 3.056712,4.319133 5.211682,8.686517 6.668913,13.5155369 0.566908,1.8786321 0.899101,2.5433711 1.27346,2.5482862 0.382057,0.00512 3.25296,1.5153385 4.099835,2.1568343 2.451603,1.8570509 3.96276,4.46852677 4.226236,7.3034443 0.199311,2.1444273 -0.709007,4.8833695 -2.327148,7.0172833 -0.42596,0.561728 -0.843923,1.151102 -0.928812,1.309707 -0.08489,0.158609 -0.154338,1.066153 -0.154338,2.016766 0,1.863385 -0.265718,3.054051 -1.015483,4.550215 -0.948085,1.891918 -2.650815,3.751171 -4.56462,4.984228 -1.345816,0.867107 -2.01438,1.190825 -3.862312,1.870133 -0.875216,0.321733 -1.636166,0.629832 -1.690999,0.684661 -0.130787,0.130787 0.208914,0.318552 1.93378,1.068889 2.47492,1.076619 4.540734,2.171484 6.292325,3.334886 1.507151,1.001047 1.804452,1.139991 2.714638,1.268722 2.122853,0.300238 3.676773,0.964777 4.926197,2.10669 0.896446,0.819308 1.324721,1.592439 1.588264,2.867196 0.148901,0.72021 0.244073,0.876528 0.658746,1.081903 0.809908,0.40113 2.177341,1.573356 2.903242,2.488796 0.90216,1.137736 1.95496,3.281885 2.3505,4.7871 0.45234,1.721366 0.45154,4.652758 -0.002,6.334169 -0.63973,2.373161 -1.70347,4.160904 -3.506202,5.892622 -1.885774,1.811507 -3.653765,2.855287 -6.614978,3.905337 l -1.734369,0.615004 0.02674,0.619554 c 0.01471,0.340739 0.29582,1.255396 0.624682,2.032568 1.157778,2.736248 1.845611,5.900012 1.946609,8.953723 0.09057,2.737703 -0.163417,4.482105 -0.857911,5.892833 -0.711699,1.445658 -1.7677,2.209648 -4.321883,3.126761 -0.590481,0.212018 -1.58305,0.731156 -2.205715,1.153623 -1.394076,0.945867 -3.17432,1.611438 -5.077664,1.898349 -1.59087,0.239825 -2.138762,0.246831 -3.708108,0.04751 z m 11.5098,-6.769772 c 1.392328,-0.848864 1.738758,-4.439406 0.852992,-8.840737 -0.437335,-2.17318 -0.942894,-3.654501 -1.752382,-5.134675 -0.399146,-0.729816 -0.619468,-1.347429 -0.672541,-1.885169 -0.04334,-0.439855 -0.107727,-0.944328 -0.142997,-1.121054 -0.0752,-0.377215 -0.600006,-0.55658 -1.000834,-0.342057 -0.377055,0.201788 -0.282674,0.941919 0.555723,4.358297 1.117552,4.553951 1.663293,8.609324 1.547545,11.499549 -0.0391,0.974631 -0.02986,1.771809 0.0205,1.771493 0.05024,-2.96e-4 0.316708,-0.137849 0.591941,-0.305647 z M 20.367213,59.175009 c 0.04801,-0.07762 -0.204491,-0.501863 -0.561115,-0.942589 -1.248572,-1.543005 -2.070605,-3.001739 -2.586813,-4.59037 -0.138107,-0.425028 -0.734002,-1.61268 -1.324216,-2.639235 -1.957397,-3.404496 -3.809774,-7.704212 -4.593138,-10.661621 -0.212736,-0.803099 -0.413072,-1.488045 -0.445212,-1.522094 -0.128726,-0.136405 -0.662447,0.506527 -0.822121,0.990355 -0.2451873,0.74291 0.05715,2.787322 0.695411,4.702972 0.890367,2.672178 2.329829,5.194615 4.160371,7.290454 0.526525,0.602834 0.877913,1.251896 1.414051,2.611934 0.747805,1.89703 1.779654,3.8303 2.403845,4.503823 0.279499,0.301575 0.513825,0.397623 0.970065,0.397623 0.330867,0 0.640846,-0.06357 0.688872,-0.141252 z m 69.324302,-0.680147 c 3.064876,-0.802054 5.149753,-1.94626 7.15953,-3.929226 1.132038,-1.116954 1.486467,-1.584338 2.001424,-2.639235 0.757984,-1.552755 0.988607,-2.701464 0.847504,-4.221251 -0.220307,-2.372728 -1.234002,-4.71017 -2.757745,-6.359024 -1.382584,-1.496102 -3.181719,-2.454347 -5.51551,-2.937619 -1.647507,-0.341154 -1.904725,-0.817466 -0.604361,-1.11916 0.321197,-0.07451 0.906364,-0.13712 1.300363,-0.139098 0.605052,-0.0025 0.716366,-0.04865 0.716366,-0.293653 0,-0.43749 -0.67889,-1.155245 -1.344623,-1.421625 -1.160676,-0.464405 -3.023737,-0.627113 -4.952726,-0.432554 -3.043132,0.306947 -5.369184,1.163893 -7.455486,2.746678 -1.654837,1.255456 -2.823032,3.396986 -2.195409,4.024602 0.193886,0.193901 0.333229,0.173522 1.142561,-0.167118 0.887192,-0.373418 1.534076,-0.495553 1.534076,-0.289637 0,0.05413 -0.595004,0.71577 -1.322232,1.470434 -2.491319,2.585314 -3.381351,5.259019 -2.667703,8.013936 0.437079,1.687231 1.247904,2.486388 2.848945,2.807923 0.652053,0.130948 1.048359,0.128156 1.673753,-0.01175 0.450682,-0.100853 0.853682,-0.238811 0.895548,-0.306566 0.04189,-0.06778 -0.200181,-0.470242 -0.53791,-0.894412 -0.534167,-0.670885 -0.596196,-0.825214 -0.476683,-1.186198 0.208647,-0.630288 0.908047,-0.64479 1.604528,-0.03327 1.085824,0.953371 2.506169,3.476963 2.506169,4.452826 0,0.419982 -0.60698,1.122631 -0.969787,1.122631 -0.126164,0 -0.446358,-0.238409 -0.71152,-0.529804 -0.429905,-0.472442 -0.540528,-0.519519 -1.021645,-0.434884 -0.988346,0.173877 -1.024774,0.382128 -0.211198,1.207275 1.923743,1.951116 4.831754,2.463409 8.513771,1.499848 z M 88.920917,50.380556 C 88.109546,49.966023 87.85675,49.50034 87.33115,47.452077 c -0.489104,-1.90609 -0.462868,-2.625742 0.101155,-2.775359 0.342107,-0.09074 0.495832,-0.0058 1.069336,0.593276 0.829229,0.865735 1.961998,2.348752 2.285111,2.991678 0.568312,1.130823 0.01003,2.442273 -1.045106,2.456152 -0.08611,8.33e-4 -0.455438,-0.150639 -0.82074,-0.337268 z m 5.537681,-2.010027 c -0.630449,-0.34199 -1.087142,-1.195735 -1.60386,-2.998296 -0.645468,-2.251617 -0.601074,-2.796284 0.227908,-2.796284 0.6668,0 2.954572,3.077706 3.254889,4.37876 l 0.181632,0.786899 -0.485101,0.433441 c -0.538787,0.481407 -0.953474,0.532854 -1.575468,0.19548 z M 51.468119,47.60934 c 2.018,-0.956149 2.987274,-3.49194 2.166177,-5.667053 -1.004622,-2.661252 -4.07478,-4.003997 -6.31914,-2.763715 -2.154647,1.190726 -3.153176,3.757397 -2.231092,5.734985 0.370003,0.793554 1.85045,2.292276 2.709435,2.742909 1.095482,0.574684 2.397472,0.557995 3.67462,-0.04712 z M 33.147711,44.204415 c 1.324093,-1.736276 2.60026,-5.935854 2.092251,-6.885086 -0.279678,-0.522576 -1.00343,-0.431245 -1.581211,0.199547 -1.157111,1.263281 -2.149044,4.187056 -2.009656,5.923588 0.128158,1.596621 0.657033,1.86552 1.498616,0.761951 z M 54.957108,29.681248 c 3.511359,-0.67611 7.661414,-2.624887 11.03714,-5.182783 0.456218,-0.345684 1.451983,-1.238169 2.212822,-1.98329 1.007218,-0.986405 1.487399,-1.354769 1.766029,-1.354769 0.210463,0 1.047078,0.165665 1.859139,0.368153 4.231458,1.055101 7.449893,0.832436 10.676941,-0.738691 3.160227,-1.538579 5.300303,-5.624633 4.616321,-8.813939 C 86.538673,9.2396441 84.129147,6.735817 81.460864,6.089649 80.375308,5.8267588 78.375667,5.8587003 77.355649,6.1552208 75.741852,6.6243683 75.0776,7.1225128 73.837416,8.7936696 71.885444,11.423985 68.714099,13.770101 67.110139,13.770408 65.433835,13.770706 64.141503,12.71113 63.830555,11.081436 63.76984,10.763264 63.484525,10.335971 63.052203,9.9157985 62.676797,9.5509567 62.302939,9.0769466 62.221381,8.8624299 c -0.210663,-0.5540745 -0.183525,-1.653231 0.05492,-2.2227003 0.30549,-0.7297081 1.311493,-1.5476264 2.38406,-1.9383293 1.506827,-0.5488797 2.676615,-1.9609196 3.848108,-4.64499738 0.621496,-1.42392772 0.544951,-1.51806332 -1.234502,-1.51806332 -1.436109,0 -3.546975,-0.3366 -5.351638,-0.8533712 -1.128703,-0.3232105 -4.939502,-1.7954461 -7.197977,-2.7808232 -0.433626,-0.189186 -0.833652,-0.2987286 -0.888964,-0.2434281 -0.05526,0.0553 0.01114,0.3927683 0.147453,0.7499166 0.788801,2.0654795 -0.317287,6.8799422 -1.973049,8.588008 -0.646773,0.6671898 -1.184271,0.816617 -1.884729,0.5239433 -0.810814,-0.3387769 -1.069002,-1.0509023 -1.046643,-2.8867898 0.03331,-2.7345466 1.174902,-5.9356515 2.444908,-6.8556384 0.352758,-0.2555331 0.728989,-0.4645999 0.836058,-0.4645999 0.459839,0 0.315382,-0.3026266 -0.311795,-0.653162 -0.925247,-0.5171365 -10.929402,-5.3162839 -11.354583,-5.4469749 -0.455438,-0.139987 -1.175581,0.315555 -2.10299,1.330277 -0.850763,0.9308689 -1.573201,2.2247156 -2.089031,3.7413051 -0.422975,1.2436129 -0.448631,1.5277888 -0.159585,1.7676809 0.170247,0.1412859 0.324585,-0.1167492 0.846319,-1.4148829 0.924467,-2.3002475 1.717412,-3.2454 2.722747,-3.2454 0.517936,0 1.174512,0.4720486 1.442726,1.0372597 0.371541,0.782981 0.214395,3.7386195 -0.287765,5.4122218 l -0.373992,1.2464114 0.808575,1.09120008 c 0.758299,1.02335113 1.400582,2.37312162 1.129249,2.37312162 -0.06684,0 -0.656499,-0.4812552 -1.310468,-1.06944909 -3.034376,-2.72917441 -5.12881,-3.60054061 -8.654328,-3.60054061 -3.118919,0 -5.023188,0.6569353 -6.702913,2.31238319 -2.444095,2.40877621 -3.051743,6.26035461 -1.478341,9.37044411 0.628191,1.2416878 2.311781,2.7945677 3.807668,3.5120107 1.801511,0.864028 2.798847,1.099453 5.056944,1.193702 3.53521,0.147552 6.393145,-0.501159 8.604998,-1.953223 1.254589,-0.823616 1.814801,-1.008457 3.078369,-1.015674 2.166088,-0.01237 4.762271,-0.7958171 8.062599,-2.4330417 1.508855,-0.7485208 2.404157,-1.1027269 2.910139,-1.1513421 0.685151,-0.065828 0.760047,-0.036997 1.197783,0.4615731 0.536328,0.6108633 1.066295,1.9191836 1.262699,3.1172357 0.404193,2.465657 -1.19198,5.472016 -3.523981,6.637326 -0.499721,0.24972 -0.983199,0.454031 -1.074383,0.454031 -0.272102,0 -0.691022,2.238128 -0.69159,3.694941 -5.79e-4,1.596725 -0.334455,3.844355 -0.765429,5.153684 -0.368554,1.119739 -1.274964,2.215214 -2.04242,2.468502 -2.195766,0.724669 -5.569988,-1.135489 -7.691259,-4.240087 l -0.713659,-1.044487 h -1.340358 -1.340357 l 0.348981,0.632339 c 0.666859,1.208335 2.607167,2.942854 4.420954,3.952064 1.317799,0.733242 3.144676,1.423575 4.611142,1.742428 1.665265,0.362092 4.20325,0.334594 6.295111,-0.06819 z M 77.00366,19.058793 c -1.163361,-0.355153 -2.325886,-1.256085 -2.834418,-2.196581 -0.148657,-0.274931 -0.244241,-0.807456 -0.243639,-1.357323 0.0022,-1.78177 1.515572,-3.807647 3.623052,-4.84921 0.946213,-0.467655 1.284711,-0.552279 2.482038,-0.620548 1.143743,-0.065215 1.374191,-0.042188 1.316674,0.131523 -0.07453,0.225232 -0.254322,0.328785 -1.779888,1.025353 -0.539146,0.246174 -1.276178,0.701191 -1.637815,1.011142 l -0.657512,0.563547 0.580823,0.297981 0.580811,0.297981 -1.054397,0.483102 c -1.543345,0.707119 -2.02698,1.397064 -1.736229,2.476863 0.309055,1.147739 1.532439,1.95153 3.36062,2.207998 0.818233,0.114787 1.006638,0.281337 0.577848,0.510826 -0.335881,0.179751 -2.009133,0.191009 -2.577968,0.01733 z M 23.394047,-2.5119822 c 1.209447,-1.1214106 2.351118,-1.8578163 3.690272,-2.3803169 1.425993,-0.5563761 1.977327,-0.6583723 4.04508,-0.7483291 2.311213,-0.1005525 2.316082,-0.1035715 2.684915,-1.670861 0.36655,-1.5574862 0.45643,-1.4685594 -2.257929,-2.2339328 -3.192924,-0.900329 -5.30095,-1.828558 -7.498498,-3.301854 l -1.271767,-0.852613 -1.339065,0.409726 c -1.874636,0.573594 -3.109595,0.63858 -4.442355,0.233764 -1.053851,-0.320092 -1.985471,-0.92603 -1.985471,-1.291357 0,-0.145231 0.478332,-0.187149 1.998271,-0.17511 1.579741,0.01254 2.16454,-0.04212 2.792074,-0.260885 1.141325,-0.397864 1.233188,-0.526639 1.059053,-1.484736 -0.181408,-0.998003 -0.0033,-1.646417 0.710251,-2.580455 0.465865,-0.61011 0.528597,-0.797515 0.528597,-1.579323 0,-1.330976 0.34321,-2.15107 1.265193,-3.023034 0.978142,-0.925089 1.548381,-1.221011 3.552924,-1.843776 l 1.574984,-0.48931 -0.437001,-0.348438 c -0.240341,-0.19164 -0.770074,-0.428353 -1.177197,-0.526016 -1.481929,-0.355512 -2.968937,0.119376 -4.408689,1.407933 -0.687301,0.615142 -0.831947,0.677319 -1.802947,0.774961 -2.354215,0.236741 -5.474394,1.691113 -6.827217,3.182296 -0.376253,0.41474 -0.8943,1.195195 -1.151229,1.734357 -0.445088,0.93406 -0.467113,1.06919 -0.467113,2.865456 0,2.142754 0.218317,2.988795 1.363028,5.28203 0.648132,1.298414 2.135475,3.4262639 2.800373,4.0063171 1.571196,1.3707186 4.04849,1.7851862 6.762202,1.1313614 0.700425,-0.1687602 1.311226,-0.2689384 1.357313,-0.2226259 0.140591,0.141287 -0.616917,0.6798898 -1.65057,1.1735816 -0.903992,0.4317672 -1.103526,0.4682072 -2.56382,0.4682072 -0.870961,0 -1.804107,-0.049184 -2.073691,-0.1093422 -0.480961,-0.1072923 -0.490151,-0.099372 -0.490151,0.4222245 0,1.6174562 1.796865,3.0375417 3.884949,3.0703354 0.591584,0.00925 0.732141,-0.07308 1.775231,-1.0402409 z M 56.158624,-16.957759 c 1.309699,-1.664333 1.857134,-4.137198 1.377187,-6.22106 -0.258366,-1.121815 -1.024396,-2.491679 -1.888015,-3.376224 -2.320716,-2.376964 -5.682973,-2.960858 -8.735128,-1.516963 -2.101609,0.994225 -3.852442,3.368059 -4.184591,5.67363 -0.263579,1.82959 -0.100597,2.05323 1.699243,2.332031 l 0.678089,0.105031 -0.414175,-0.542998 c -0.227786,-0.298648 -0.413383,-0.666288 -0.412425,-0.816981 0.0022,-0.258634 3.462185,-5.229729 4.061735,-5.834691 0.153847,-0.155225 0.34663,-0.240868 0.428422,-0.190319 0.08188,0.05055 0.429448,0.78835 0.772581,1.639548 0.833184,2.06694 0.783988,2.002228 1.31361,1.728106 0.239126,-0.123752 0.841962,-0.543025 1.339644,-0.931718 1.172306,-0.915564 1.684048,-1.186498 1.821385,-0.964294 0.09603,0.15543 0.501036,5.530914 0.511608,6.790754 0.0033,0.485296 -0.05258,0.570728 -0.476081,0.718371 -0.264371,0.09216 -0.850585,0.211043 -1.30267,0.264173 l -0.821999,0.09661 0.109398,-1.832969 c 0.127757,-2.140457 0.116928,-2.152221 -1.13551,-1.232827 -1.271844,0.933655 -1.463625,1.010196 -1.704768,0.680409 -0.111927,-0.153076 -0.325821,-0.622582 -0.475301,-1.043354 -0.149492,-0.420771 -0.375317,-0.925886 -0.501827,-1.12247 l -0.230014,-0.357427 -0.294048,0.357427 c -0.161724,0.196584 -0.567098,0.923287 -0.900839,1.614892 -0.495989,1.027847 -0.567944,1.281488 -0.393955,1.389007 0.117051,0.07236 1.502661,0.572416 3.079126,1.111269 1.576465,0.538854 3.409236,1.215717 4.07282,1.504133 1.621004,0.704554 2.038119,0.70118 2.606498,-0.0211 z m -30.643763,-4.11502 c 1.193562,-0.411309 3.180625,-0.718735 5.771739,-0.892963 1.176305,-0.07909 2.20948,-0.187531 2.29594,-0.240975 0.237567,-0.146821 -0.279533,-0.64456 -1.144333,-1.101517 -0.693217,-0.366279 -0.894043,-0.397623 -2.488433,-0.388412 -1.481205,0.0085 -1.908669,0.0702 -2.928587,0.422214 -1.342619,0.46339 -2.195243,1.060602 -2.54487,1.782518 -0.391181,0.80769 -0.251972,0.86387 1.038544,0.419135 z"
           id="path139" />
        <path
           style="fill:#000000;stroke-width:0.103418"
           d="m -80.290534,45.24103 c -0.54428,-0.27958 -0.74801,-0.76067 -0.66997,-1.58207 0.0938,-0.98689 0.5043,-3.73451 1.13572,-7.6012 1.61722,-9.90352 2.56032,-16.46037 2.57357,-17.89271 0.0112,-1.20787 0.002,-1.26181 -0.33067,-1.93823 -0.46426,-0.94406 -1.95488,-2.51981 -10.04791,-10.6217601 -8.01816,-8.02699 -8.84282,-8.8846 -8.99934,-9.35889 -0.25764,-0.78063 0.22015,-1.42908 1.22583,-1.66368 0.76302,-0.17801 4.85978,-0.86575 7.35644,-1.23497 2.83908,-0.41987 6.73666,-1.04512 9.66955,-1.55121 1.47888,-0.25519 3.56678,-0.60636 4.63979,-0.78039 3.8397,-0.62273 4.69862,-0.87847 5.47724,-1.6308199 0.83718,-0.80894 0.68952,-0.54674 5.36976,-9.53488 1.05143,-2.01923 2.77818,-5.393238 3.8372,-7.497788 3.57843,-7.111254 3.81852,-7.497788 4.65708,-7.497788 0.6702,0 1.03984,0.314768 1.63951,1.396139 0.28388,0.511918 1.85352,3.560156 3.48809,6.773863 2.63485,5.180334 6.51574,12.642184 7.68351,14.773204 0.90817,1.65728 1.84934,2.3317599 3.77284,2.7037399 1.832,0.35428 12.63679,2.15396 15.84936,2.63993 3.65843,0.5534 8.46477,1.35441 9.01564,1.50252 0.72784,0.19568 1.15655,1.0093 0.88026,1.67057 -0.20887,0.49989 -1.01503,1.33563 -8.95796,9.28662 -8.20597,8.2143001 -9.54354,9.6242701 -10.01749,10.5597401 -0.42694,0.84268 -0.51231,1.83618 -0.29673,3.45337 0.29655,2.22456 1.52305,10.39254 2.04209,13.59943 1.01826,6.29135 1.32552,8.27073 1.4983,9.65221 0.1684,1.34648 0.16772,1.40737 -0.0199,1.79149 -0.25149,0.51498 -0.81899,0.81091 -1.36031,0.70936 -0.20982,-0.0394 -2.36018,-1.07437 -4.77857,-2.30001 -13.3007,-6.74076 -18.23105,-9.16634 -19.18849,-9.44015 -0.9086,-0.25984 -1.46373,-0.25985 -2.37626,-8e-5 -0.76937,0.21902 -5.71972,2.62135 -12.51322,6.07245 -7.90976,4.01818 -11.17125,5.62346 -11.53108,5.67554 -0.23454,0.0339 -0.48938,-0.0131 -0.72392,-0.13355 z m 19.80153,-32.54641 c 1.20028,-0.9155 1.56198,-3.2141901 1.4743,-9.3696101 -0.0596,-4.18238999 -0.24461,-5.11139 -1.17008,-5.87424 -1.08331,-0.89296 -2.3105,-0.46041 -3.04423,1.07301 -0.5068,1.05915001 -0.60247,1.97199001 -0.61166,5.83644 -0.012,5.02101 0.17229,6.5932201 0.9025,7.7020301 0.65768,0.99868 1.6373,1.25161 2.44917,0.63237 z m 14.10544,0.0722 c 1.10386,-0.8091 1.57677,-2.8821901 1.56384,-6.8553501 -0.0123,-3.80168 -0.2738,-6.48364999 -0.73697,-7.56032 -0.44232,-1.02819 -1.46463,-1.61531 -2.35048,-1.34991 -1.26167,0.37801 -1.69902,1.58601 -1.82178,5.03206 -0.12758,3.5811 0.17199,8.0927401 0.62205,9.3683301 0.19839,0.56231 0.80358,1.30095 1.22201,1.49148 0.42031,0.19138 1.15188,0.12985 1.50133,-0.12629 z"
           id="path223" />
      </g>
    </g>
    <g
       gcodetools="Gcodetools tool definition"
       transform="translate(-309.81595,255.55556)"
       id="g800" />
  </g>
</svg>
