<?xml version="1.0" encoding="UTF-8" standalone="no"?>
<svg
   xmlns:dc="http://purl.org/dc/elements/1.1/"
   xmlns:cc="http://creativecommons.org/ns#"
   xmlns:rdf="http://www.w3.org/1999/02/22-rdf-syntax-ns#"
   xmlns:svg="http://www.w3.org/2000/svg"
   xmlns="http://www.w3.org/2000/svg"
   xmlns:sodipodi="http://sodipodi.sourceforge.net/DTD/sodipodi-0.dtd"
   xmlns:inkscape="http://www.inkscape.org/namespaces/inkscape"
   width="698.5mm"
   height="139.7mm"
   viewBox="0 0 698.5 139.7"
   version="1.1"
   id="svg8"
   inkscape:version="1.0.1 (3bc2e813f5, 2020-09-07)"
   sodipodi:docname="winter.svg">
  <defs
     id="defs2">
    <rect
       x="156.11469"
       y="87.14439"
       width="403.50822"
       height="49.98366"
       id="rect125" />
    <rect
       x="27.399629"
       y="23.203526"
       width="222.2644"
       height="59.696199"
       id="rect80" />
    <rect
       x="16.355637"
       y="45.414425"
       width="122.37865"
       height="26.712056"
       id="rect68" />
    <rect
       x="11.301913"
       y="10.862709"
       width="75.706059"
       height="36.648511"
       id="rect62" />
    <rect
       x="12.201636"
       y="7.4023952"
       width="225.14965"
       height="59.032665"
       id="rect12" />
  </defs>
  <sodipodi:namedview
     id="base"
     pagecolor="#ffffff"
     bordercolor="#666666"
     borderopacity="1.0"
     inkscape:pageopacity="0.0"
     inkscape:pageshadow="2"
     inkscape:zoom="0.35"
     inkscape:cx="1301.2568"
     inkscape:cy="503.29225"
     inkscape:document-units="mm"
     inkscape:current-layer="text86"
     inkscape:document-rotation="0"
     showgrid="false"
     inkscape:window-width="1514"
     inkscape:window-height="617"
     inkscape:window-x="250"
     inkscape:window-y="123"
     inkscape:window-maximized="0" />
  <metadata
     id="metadata5">
    <rdf:RDF>
      <cc:Work
         rdf:about="">
        <dc:format>image/svg+xml</dc:format>
        <dc:type
           rdf:resource="http://purl.org/dc/dcmitype/StillImage" />
        <dc:title />
      </cc:Work>
    </rdf:RDF>
  </metadata>
  <g
     inkscape:label="Layer 1"
     inkscape:groupmode="layer"
     id="layer1">
    <text
       xml:space="preserve"
       id="text10"
       style="fill:black;fill-opacity:1;stroke:none;font-family:sans-serif;font-style:normal;font-weight:normal;font-size:10.58333333px;line-height:1.25;letter-spacing:0px;word-spacing:0px;white-space:pre;shape-inside:url(#rect12);" />
    <text
       xml:space="preserve"
       id="text78"
       style="font-style:normal;font-weight:normal;font-size:10.5833px;line-height:1.25;font-family:Winter;letter-spacing:0px;word-spacing:0px;white-space:pre;shape-inside:url(#rect80);fill:#000000;fill-opacity:1;stroke:none;-inkscape-font-specification:Winter;font-stretch:normal;font-variant:normal;" />
    <g
       aria-label="Winter"
       transform="matrix(0.78250297,0,0,0.78250297,76.699321,45.64788)"
       id="text86"
       style="font-style:normal;font-weight:normal;font-size:105.833px;line-height:1.25;font-family:sans-serif;letter-spacing:0px;word-spacing:0px;white-space:pre;inline-size:318.04;fill:#000000;fill-opacity:1;stroke:none;stroke-width:0.264583">
      <path
         d="m 121.90779,-45.640318 q 0.635,0 0.9525,0.423332 0.42333,0.423332 0.42333,0.952497 0,0.529165 -0.42333,0.952497 -0.3175,0.423332 -0.9525,0.423332 -5.29165,0 -7.93747,5.185817 -2.2225,4.339153 -2.64583,12.594127 -0.10583,2.963324 -0.3175,9.736636 -0.635,19.684938 -2.22249,27.728246 -0.3175,1.375829 -0.635,2.645825 -0.74083,3.492489 -1.90499,5.820815 -0.635,1.164163 -1.27,2.010827 -2.85749,4.23332 -7.302477,4.23332 -3.809988,0 -6.773312,-3.069157 -4.021654,-4.23332 -6.138314,-14.393288 -1.375829,10.900799 -5.397483,14.922453 -2.539992,2.539992 -6.032481,2.539992 -6.032481,0 -9.736636,-5.079984 -3.915821,-5.185817 -5.29165,-15.87495 -0.952497,-8.572473 -0.317499,-20.214103 0.529165,-8.360807 1.799161,-16.827447 -5.079984,1.904994 -8.678306,1.904994 -0.423332,0 -0.634998,0.105833 -0.317499,0.529165 1.05833,4.127487 0.740831,2.11666 1.05833,3.280823 0.423332,1.05833 0.423332,2.751658 0,1.587495 -0.740831,2.645825 -1.375829,2.010827 -5.185817,2.010827 -0.423332,0 -0.740831,-0.105833 -0.317499,-0.211666 -0.529165,-0.529165 -0.105833,-0.317499 -0.105833,-0.740831 0,-0.529165 0.317499,-0.952497 0.423332,-0.423332 1.05833,-0.423332 0.105833,0 0.211666,0 0.105833,-0.317499 0,-1.481662 -0.105833,-0.952497 -0.740831,-3.386656 -0.529165,-2.539992 -0.846664,-3.915821 -0.211666,-1.375829 -0.105833,-3.280823 0.211666,-2.010827 1.164163,-3.17499 1.481662,-1.904994 4.762485,-1.904994 4.550819,0 8.889972,-1.05833 1.05833,-6.455813 1.904994,-9.313304 0.529165,-1.481662 2.222493,-1.904994 1.799161,-0.529165 3.598322,0.105833 2.222493,0.529165 2.963324,2.11666 0,0 0.105833,0.105833 1.693328,1.904994 0.529165,4.444986 -0.423332,0.952497 -1.375829,2.010827 -1.904994,12.170795 -2.539992,25.611586 -1.269996,26.246584 3.915821,32.914063 1.375829,1.799161 3.280823,1.799161 1.587495,0 2.751658,-1.269996 4.656652,-4.656652 4.974151,-27.728246 -0.634998,-10.900799 0,-20.531602 0,0 0,-0.105833 0.105833,-1.05833 1.05833,-1.693328 0.952497,-0.740831 2.751658,-0.740831 2.11666,0.211666 3.598322,1.375829 1.587495,1.05833 1.587495,2.857491 -0.423332,4.339153 -0.211666,11.429964 0.211666,7.090811 0.740831,13.96995603 0.529165,6.77331197 2.010827,12.91162597 1.481662,6.032481 3.598322,8.254974 1.164163,1.164163 2.328321,1.164163 1.37583,0 2.54,-1.481662 1.69332,-2.434159 2.75165,-6.773312 0.52917,-1.904994 0.84667,-4.23332 1.26999,-7.831642 1.79916,-25.505753 0.3175,-7.40831 0.52916,-10.054135 0.42334,-8.784139 2.8575,-13.652457 3.38665,-6.667479 10.37163,-6.667479 z"
         style="font-style:normal;font-variant:normal;font-weight:normal;font-stretch:normal;font-size:105.833px;font-family:Winter;-inkscape-font-specification:Winter;stroke-width:0.264583"
         id="path170" />
      <path
         d="m 142.4393,7.91118 q 0.42333,-1.375829 1.69333,-0.952497 1.37583,0.423332 0.95249,1.693328 -0.42333,1.269996 -2.32832,4.656652 -1.5875,2.963324 -3.70416,5.820815 -5.71498,8.043308 -10.05413,8.043308 -2.53999,0 -4.33915,-2.434159 -2.43416,-3.17499 -3.17499,-10.5833 -0.74084,-7.514143 -0.3175,-14.07578898 0.52916,-6.56164602 1.58749,-9.84246902 0.3175,-1.164163 1.79916,-1.587495 1.48166,-0.423332 2.96333,0 1.48166,0.423332 2.22249,1.481662 0.74083,0.952497 0.42333,2.11666 -0.74083,2.751658 -1.05833,8.995805 -0.3175,6.138314 0.21167,12.382461 0.52916,6.138314 1.90499,7.937475 0.3175,0.423332 0.52917,0.423332 1.69332,0 4.76248,-4.021654 0.21167,-0.211666 0.3175,-0.423332 0.21167,-0.317499 0.42333,-0.529165 1.905,-2.751658 3.38666,-5.503316 1.58749,-2.857491 1.79916,-3.598322 z m -14.39329,-23.494926 q -1.69333,0 -2.53999,-1.587495 -0.635,-1.164163 -0.635,-2.857491 0,-2.222493 0.9525,-4.021654 1.05833,-1.799161 2.75166,-1.799161 1.69332,0 2.53999,1.799161 0.635,1.164163 0.635,2.857491 0,2.328326 -1.05833,4.021654 -0.9525,1.587495 -2.64583,1.587495 z"
         style="font-style:normal;font-variant:normal;font-weight:normal;font-stretch:normal;font-size:105.833px;font-family:Winter;-inkscape-font-specification:Winter;stroke-width:0.264583"
         id="path172" />
      <path
         d="m 183.60819,8.122846 q 0,0.105833 0,0.211666 0,0.105833 0,0.105833 0,0.105833 0,0.105833 l -0.10583,0.105833 q -1.48167,6.879145 -4.86832,12.69996 -0.635,1.05833 -1.27,1.904994 -2.96332,3.915821 -5.82081,3.915821 -2.75166,0 -4.44499,-1.693328 -2.11666,-2.328326 -2.64582,-7.514143 -0.42334,-5.29165 0.10583,-10.265801 0.52916,-10.5833 -0.9525,-12.064962 -0.3175,-0.317499 -0.74083,-0.317499 -3.17499,0 -6.45581,6.455813 -2.32833,5.079984 -3.70416,11.429964 -1.37583,6.34998 -1.48166,11.959129 0,0.317499 0,0.740831 0,0.529165 -0.42333,0.846664 -0.42333,0.423332 -0.9525,0.423332 0,0 -0.10583,0 -2.53999,0 -4.23332,-2.434159 -2.43416,-3.17499 -3.17499,-10.5833 -0.74083,-7.514143 -0.3175,-14.07578898 0.52916,-6.56164602 1.58749,-9.84246902 0.3175,-1.164163 1.79917,-1.587495 1.48166,-0.423332 2.96332,0 1.48166,0.423332 2.22249,1.481662 0.74083,0.952497 0.42333,2.11666 -1.26999,4.868318 -1.69332,17.356612 -0.10584,3.915821 -0.10584,6.879145 1.05833,-6.984978 3.38666,-12.805793 0.74083,-1.799161 1.48166,-3.28082297 5.18582,-11.00663203 12.4883,-11.00663203 2.11666,0 3.49248,1.481662 2.01083,2.010827 2.32833,7.196644 0.42333,5.185817 -0.10583,10.5833 -0.52917,12.064962 0.95249,13.652457 0.3175,0.317499 0.84667,0.317499 0.3175,0 0.9525,-0.846664 l 0.10583,-0.105833 q 0.635,-0.952497 1.37583,-2.222493 0.635,-1.164163 1.26999,-2.645825 2.11666,-4.762485 3.06916,-8.784139 0.10583,-0.105833 0.10583,-0.105833 0,-0.105833 0,-0.105833 0,-0.105833 0,-0.105833 h 0.10584 q 0,-0.105833 0,-0.105833 0,-0.105833 0.10583,-0.211666 0,0 0,0 0.10583,-0.105833 0.10583,-0.105833 0,0 0.10584,0 0.21166,-0.317499 0.63499,-0.317499 0,0 0.10584,0 0.10583,0 0.21166,0 0,0 0.10584,0 0,0 0.10583,0 v 0 h 0.10583 q 0.10583,0 0.10583,0.105833 0,0 0.10584,0 0,0 0,0 0,0 0.10583,0 0,0.105833 0.10583,0.211666 0,0 0.10584,0 0,0 0,0.105833 0.10583,0 0.10583,0.105833 0,0 0.10583,0 0.10584,0.211666 0.21167,0.529165 0,0 0,0.105833 z"
         style="font-style:normal;font-variant:normal;font-weight:normal;font-stretch:normal;font-size:105.833px;font-family:Winter;-inkscape-font-specification:Winter;stroke-width:0.264583"
         id="path174" />
      <path
         d="m 209.96043,-21.72206 q 0,0 0,0.105833 0,0.105833 0,0.317499 0,0.105833 0,0.105833 0,0 -0.10583,0.105833 0,0 0,0 0,0.105833 0,0.105833 -0.10583,0.105833 -0.10583,0.211666 -0.10583,0 -0.10583,0.105833 -0.10584,0 -0.10584,0.105833 h -0.10583 q -0.10583,0.105833 -0.10583,0.105833 0,0 -0.10584,0 0,0 0,0.105833 -0.10583,0 -0.21166,0 0,0 -0.10584,0 0,0 -0.10583,0.105833 0,0 -0.10583,0 0,0 -0.10583,0 0,0 -0.10584,0 -0.21166,-0.105833 -0.3175,-0.105833 -0.10583,0 -0.21166,0 0,-0.105833 0,-0.105833 -0.10584,-0.105833 -0.10584,-0.105833 0,0 -0.10583,0 0,0 -0.10583,0 0,-0.105833 0,-0.211666 v 0 q -0.21167,-0.211666 -0.3175,-0.317499 -0.74083,-0.740831 -2.22249,-0.952497 -1.37583,-0.317499 -3.80999,0 -2.32833,0.317499 -4.02166,0.634998 -1.69332,0.211666 -4.97415,0.952497 -2.22249,0.423332 -3.38665,0.634998 -1.16417,9.419137 -1.16417,21.272433 0,9.842469 1.5875,15.557451 1.69333,5.609149 4.55082,5.609149 2.01083,0 5.07998,-3.386656 0.74083,-0.846664 1.5875,-1.799161 0.3175,-0.423332 0.42333,-0.634998 2.75166,-3.598322 5.92665,-9.207471 0.635,-1.05833 1.79916,-0.529165 1.16416,0.529165 0.74083,1.693328 -1.37583,3.492489 -6.24415,9.736636 -0.10583,0.105833 -0.3175,0.317499 -0.95249,1.164163 -1.79916,2.11666 -5.50331,6.34998 -9.20747,6.34998 -2.96332,0 -5.18582,-2.010827 -2.11666,-2.010827 -3.38665,-4.868318 -1.16416,-2.963324 -1.905,-6.984978 -0.74083,-4.021654 -0.95249,-7.40831 -0.21167,-3.386656 -0.21167,-7.090811 0,-9.207471 0.84667,-17.462445 -2.96333,0.317499 -5.60915,0.317499 -0.42334,0 -0.74083,0 -1.05833,0.105833 -2.11666,0.105833 -7.83165,0 -12.1708,-5.185817 -0.10583,-0.211666 -0.21167,-0.423332 0,-0.105833 0,-0.105833 -0.10583,-0.105833 -0.10583,-0.105833 0,0 0,-0.105833 0,-0.105833 0,-0.105833 0,-0.105833 0,-0.211666 0,0 0,-0.105833 0,-0.105833 0.10583,-0.105833 0,-0.105833 0,-0.105833 0,-0.105833 0.10584,-0.105833 0,-0.105833 0,-0.211666 0,0 0.10583,0 0,-0.105833 0.10583,-0.211666 0,0 0.10584,0 0,-0.105833 0.10583,-0.105833 0,-0.105833 0.10583,-0.105833 0,0 0.10584,0 0,-0.105833 0.10583,-0.105833 0,0 0.10583,0 0,0 0.10583,0 0.10584,-0.105833 0.21167,-0.105833 h 0.10583 q 0.10584,0 0.10584,0.105833 0,0 0.10583,0 0,0 0.10583,0 0,0 0.10584,0 v 0.105833 h 0.10583 q 0.10583,0.105833 0.3175,0.211666 4.33915,4.127487 12.48829,4.339153 2.75166,-0.317499 6.56165,-1.164163 0.84666,-5.926648 2.01082,-10.689133 3.28083,-12.805793 8.25498,-12.805793 2.64582,0 3.70415,2.645825 0.9525,1.904994 -0.10583,3.069157 -3.70415,4.021654 -5.82081,15.663284 6.66747,-1.799161 10.2658,-2.010827 6.24414,-0.317499 9.41913,3.17499 0.3175,0.211666 0.52917,0.529165 0,0 0,0.105833 0.10583,0 0.10583,0.105833 0,0 0,0 0.10583,0.211666 0.10583,0.529165 z"
         style="font-style:normal;font-variant:normal;font-weight:normal;font-stretch:normal;font-size:105.833px;font-family:Winter;-inkscape-font-specification:Winter;stroke-width:0.264583"
         id="path176" />
      <path
         d="m 240.7577,8.122846 q 0,0.105833 0,0.211666 0,0 0,0.105833 0,0.105833 0,0.211666 0,0 0,0 0,0 0,0.105833 0,0 -0.10583,0.105833 V 8.96951 q -3.91582,7.196644 -8.04331,11.747463 -0.9525,0.952497 -1.905,1.799161 -0.10583,0 -0.10583,0.105833 -5.18582,4.656652 -10.5833,4.656652 -4.76248,0 -8.46664,-3.809988 -4.23332,-4.127487 -4.65665,-11.324131 -0.10583,-0.211666 -0.10583,-0.423332 0,-0.105833 0,-0.317499 0,-0.529165 0,-1.164163 0,-7.725809 3.59832,-13.75829 4.44498,-7.196644 11.74746,-7.196644 2.64583,0 4.76249,1.481662 2.22249,1.481662 3.17499,3.809988 0.52916,1.164163 0.52916,2.222493 0,0.423332 0,0.740831 0,8.678306 -10.15997,12.911626 -2.32832,0.952497 -5.18581,1.693328 0.52916,4.339153 2.75165,7.302477 2.43416,3.17499 5.82082,3.17499 2.32833,0 4.65665,-1.799161 1.37583,-1.164163 2.64583,-2.645825 2.53999,-2.963324 7.19664,-10.5833 0,-0.105833 0,-0.105833 0.10583,-0.105833 0.10583,-0.105833 0.10584,-0.105833 0.10584,-0.105833 0.10583,-0.105833 0.21166,-0.211666 0.10584,0 0.10584,0 0.10583,-0.105833 0.10583,-0.105833 0.10583,0 0.10583,0 0.10583,0 0.10583,0 0.10584,0 0.10584,0 0.10583,0 0.21166,0 0.10584,0 0.10584,0 0,0 0,0 0.10583,0 0.21166,0 h 0.10584 q 0,0.105833 0.10583,0.105833 0.10583,0 0.10583,0.105833 0.21167,0.105833 0.3175,0.211666 0.21167,0.211666 0.3175,0.529165 0,0.105833 0,0.105833 0,0.105833 0,0.105833 z m -22.7541,-9.842469 q -2.85749,4.868318 -2.85749,11.006632 5.29165,-1.269996 8.99581,-4.127487 3.80999,-2.857491 3.80999,-7.619976 0,-1.05833 -0.42334,-2.010827 -1.05833,-2.010827 -3.17499,-2.010827 -3.59832,0 -6.34998,4.762485 z"
         style="font-style:normal;font-variant:normal;font-weight:normal;font-stretch:normal;font-size:105.833px;font-family:Winter;-inkscape-font-specification:Winter;stroke-width:0.264583"
         id="path178" />
      <path
         d="m 274.83576,7.487848 q 0.74084,-1.05833 1.79917,-0.317499 1.16416,0.740831 0.42333,1.904994 -1.79916,2.539992 -3.80999,4.656652 -2.85749,2.857491 -4.65665,2.857491 -0.42333,0 -0.84667,-0.105833 -2.53999,-0.105833 -4.86831,-2.645825 -2.64583,-2.857491 -4.55082,-7.937475 -1.905,-5.18581697 -2.2225,-10.054135 -0.95249,1.375829 -2.11666,3.70415502 -1.58749,3.06915698 -3.91582,8.78413898 -3.28082,9.842469 -3.17499,17.462445 v 0.105833 q 0,0.529165 -0.42333,0.846664 -0.42333,0.423332 -0.9525,0.423332 -2.53999,0 -4.33915,-2.434159 -2.43416,-3.17499 -3.17499,-10.5833 -0.74083,-7.514143 -0.3175,-14.07578898 0.52917,-6.56164602 1.5875,-9.84246902 0.3175,-1.164163 1.79916,-1.587495 1.48166,-0.423332 2.96332,0 1.48166,0.423332 2.22249,1.481662 0.74084,0.952497 0.42334,2.11666 -1.27,4.868318 -1.69333,17.356612 -0.21167,4.444986 -0.10583,7.831642 0.84666,-4.868318 2.64582,-10.054135 0.21167,-0.740831 0.52917,-1.587495 3.80998,-10.477467 7.93747,-14.710787 1.79916,-1.799161 3.38666,-1.799161 4.02165,0 5.60915,5.29165 0.74083,2.751658 1.16416,9.419137 0.52916,9.313304 2.11666,9.842469 0.21166,0 0.3175,0 0.74083,0 2.75166,-2.11666 1.79916,-1.799161 3.49248,-4.23332 z"
         style="font-style:normal;font-variant:normal;font-weight:normal;font-stretch:normal;font-size:105.833px;font-family:Winter;-inkscape-font-specification:Winter;stroke-width:0.264583"
         id="path180" />
    </g>
    <path
       sodipodi:type="star"
       style="fill:none;stroke:#000000;stroke-width:0.879996"
       id="path88"
       sodipodi:sides="5"
       sodipodi:cx="401.39241"
       sodipodi:cy="46.149655"
       sodipodi:r1="26.389584"
       sodipodi:r2="13.194791"
       sodipodi:arg1="2.2039072"
       sodipodi:arg2="2.8322257"
       inkscape:flatsided="false"
       inkscape:rounded="0"
       inkscape:randomized="0"
       d="m 385.77885,67.424695 3.04516,-17.257811 -12.49023,-12.292243 17.35416,-2.436842 7.83092,-15.677425 7.68031,15.751761 17.33,2.603061 -12.60747,12.171965 2.87961,17.286206 -15.47215,-8.229073 z"
       inkscape:transform-center-x="-0.039083121"
       inkscape:transform-center-y="-2.4827842" />
    <path
       sodipodi:type="star"
       style="fill:none;stroke:#000000;stroke-width:0.879996"
       id="path88-8"
       sodipodi:sides="5"
       sodipodi:cx="333.18282"
       sodipodi:cy="46.149796"
       sodipodi:r1="26.389584"
       sodipodi:r2="13.194791"
       sodipodi:arg1="2.2039072"
       sodipodi:arg2="2.8322257"
       inkscape:flatsided="false"
       inkscape:rounded="0"
       inkscape:randomized="0"
       d="m 317.56929,67.424836 3.04515,-17.257811 -12.49023,-12.292243 17.35416,-2.436842 7.83093,-15.677425 7.6803,15.751761 17.33001,2.603061 -12.60747,12.171965 2.87961,17.286206 -15.47215,-8.229073 z"
       inkscape:transform-center-x="-0.039083121"
       inkscape:transform-center-y="-2.4827842" />
    <path
       sodipodi:type="star"
       style="fill:none;stroke:#000000;stroke-width:0.879996"
       id="path88-2"
       sodipodi:sides="5"
       sodipodi:cx="538.88948"
       sodipodi:cy="46.149655"
       sodipodi:r1="26.389584"
       sodipodi:r2="13.194791"
       sodipodi:arg1="2.2039072"
       sodipodi:arg2="2.8322257"
       inkscape:flatsided="false"
       inkscape:rounded="0"
       inkscape:randomized="0"
       d="m 523.27592,67.424695 3.04516,-17.257811 -12.49023,-12.292243 17.35416,-2.436842 7.83092,-15.677425 7.68031,15.751761 17.33,2.603061 -12.60747,12.171965 2.87961,17.286206 -15.47215,-8.229073 z"
       inkscape:transform-center-x="-0.039083121"
       inkscape:transform-center-y="-2.4827842" />
    <path
       sodipodi:type="star"
       style="fill:none;stroke:#000000;stroke-width:0.879996"
       id="path88-8-9"
       sodipodi:sides="5"
       sodipodi:cx="470.70214"
       sodipodi:cy="46.149655"
       sodipodi:r1="26.389584"
       sodipodi:r2="13.194791"
       sodipodi:arg1="2.2039072"
       sodipodi:arg2="2.8322257"
       inkscape:flatsided="false"
       inkscape:rounded="0"
       inkscape:randomized="0"
       d="m 455.0886,67.424695 3.04516,-17.257811 -12.49023,-12.292243 17.35416,-2.436842 7.83093,-15.677425 7.6803,15.751761 17.33001,2.603061 -12.60747,12.171965 2.8796,17.286206 -15.47214,-8.229073 z"
       inkscape:transform-center-x="-0.039083121"
       inkscape:transform-center-y="-2.4827842" />
    <g
       aria-label="&quot;I hate it here&quot; - AB"
       transform="translate(-16.369986,-1.0208633)"
       id="text123"
       style="font-style:normal;font-weight:normal;font-size:35.2778px;line-height:1.25;font-family:sans-serif;letter-spacing:0px;word-spacing:0px;white-space:pre;shape-inside:url(#rect125);fill:#000000;fill-opacity:1;stroke:none">
      <path
         d="m 192.48722,92.639462 v 9.560148 h -2.92833 v -9.560148 z m 6.51124,0 v 9.560148 h -2.92834 v -9.560148 z"
         style="font-style:italic;font-variant:normal;font-weight:normal;font-stretch:normal;font-family:sans-serif;-inkscape-font-specification:'sans-serif Italic';text-align:center;text-anchor:middle"
         id="path137" />
      <path
         d="m 208.3519,92.639462 h 3.49677 l -5.01262,25.717658 h -3.49677 z"
         style="font-style:italic;font-variant:normal;font-weight:normal;font-stretch:normal;font-family:sans-serif;-inkscape-font-specification:'sans-serif Italic';text-align:center;text-anchor:middle"
         id="path139" />
      <path
         d="m 243.66415,106.71269 -2.25654,11.64443 h -3.18672 l 2.25654,-11.52385 q 0.15503,-0.8096 0.24116,-1.42972 0.0861,-0.62012 0.0861,-0.98185 0,-1.44694 -0.91295,-2.25654 -0.91296,-0.8096 -2.54938,-0.8096 -2.54937,0 -4.42695,1.72255 -1.86035,1.72255 -2.41157,4.58198 l -2.08428,10.69703 h -3.16949 l 5.21932,-26.802864 h 3.16949 l -2.04983,10.542004 q 1.20578,-1.6192 3.08336,-2.549377 1.87758,-0.947402 3.94464,-0.947402 2.54937,0 3.94464,1.37804 1.41249,1.378039 1.41249,3.875739 0,0.62011 -0.0861,1.32636 -0.0689,0.70624 -0.22393,1.53307 z"
         style="font-style:italic;font-variant:normal;font-weight:normal;font-stretch:normal;font-family:sans-serif;-inkscape-font-specification:'sans-serif Italic';text-align:center;text-anchor:middle"
         id="path141" />
      <path
         d="m 265.31659,107.35003 -2.15319,11.00709 h -3.16949 l 0.58567,-2.92834 q -1.39527,1.72255 -3.18672,2.58383 -1.77422,0.84405 -3.96186,0.84405 -2.46325,0 -4.04799,-1.49862 -1.56752,-1.51584 -1.56752,-3.87574 0,-3.37619 2.68718,-5.3399 2.7044,-1.9637 7.44141,-1.9637 h 4.40972 l 0.17226,-0.84405 q 0.0345,-0.13781 0.0517,-0.29284 0.0172,-0.17225 0.0172,-0.51676 0,-1.53307 -1.25746,-2.37712 -1.24024,-0.86127 -3.49678,-0.86127 -1.55029,0 -3.18671,0.39618 -1.6192,0.39619 -3.34175,1.18856 l 0.55122,-2.92833 q 1.79145,-0.671794 3.49677,-0.999079 1.72255,-0.34451 3.32452,-0.34451 3.41065,0 5.18488,1.481389 1.79145,1.4814 1.79145,4.30638 0,0.56844 -0.0861,1.34358 -0.0861,0.75793 -0.25838,1.6192 z m -3.42788,1.30914 h -3.16949 q -3.89296,0 -5.77053,1.05075 -1.86036,1.03353 -1.86036,3.22117 0,1.51584 0.9474,2.37712 0.96463,0.86127 2.65273,0.86127 2.58382,0 4.51308,-1.84313 1.92925,-1.86035 2.54937,-4.96094 z"
         style="font-style:italic;font-variant:normal;font-weight:normal;font-stretch:normal;font-family:sans-serif;-inkscape-font-specification:'sans-serif Italic';text-align:center;text-anchor:middle"
         id="path143" />
      <path
         d="m 282.90382,99.06457 -0.48232,2.46324 h -6.32175 l -2.04984,10.4731 q -0.10335,0.58567 -0.15503,0.98185 -0.0517,0.39619 -0.0517,0.62012 0,1.10243 0.65457,1.60197 0.67179,0.49954 2.13596,0.49954 h 3.20394 l -0.53399,2.65273 H 276.272 q -2.82498,0 -4.22024,-1.10243 -1.37804,-1.10244 -1.37804,-3.34175 0,-0.39619 0.0517,-0.86127 0.0517,-0.48232 0.15503,-1.05076 l 2.04984,-10.4731 h -2.68718 l 0.49954,-2.46324 h 2.6355 l 1.06798,-5.477706 h 3.16949 l -1.05075,5.477706 z"
         style="font-style:italic;font-variant:normal;font-weight:normal;font-stretch:normal;font-family:sans-serif;-inkscape-font-specification:'sans-serif Italic';text-align:center;text-anchor:middle"
         id="path145" />
      <path
         d="m 298.78571,106.98829 q 0.0517,-0.2756 0.0689,-0.56844 0.0344,-0.29283 0.0344,-0.58566 0,-2.10151 -1.24023,-3.32452 -1.22301,-1.22301 -3.34175,-1.22301 -2.35989,0 -4.16857,1.49862 -1.80867,1.48139 -2.73885,4.22024 z m 2.75608,2.48048 h -14.74502 q -0.10335,0.65456 -0.1378,1.03352 -0.0345,0.37897 -0.0345,0.65457 0,2.39435 1.46417,3.70348 1.48139,1.30914 4.16857,1.30914 2.06706,0 3.91019,-0.46509 1.84312,-0.46509 3.42787,-1.36081 l -0.60289,3.13504 q -1.70533,0.68902 -3.53123,1.03353 -1.80868,0.34451 -3.68625,0.34451 -4.01354,0 -6.18395,-1.91203 -2.15319,-1.92926 -2.15319,-5.46048 0,-3.01446 1.06798,-5.59829 1.08521,-2.60105 3.16949,-4.63365 1.34359,-1.274689 3.18672,-1.963709 1.86035,-0.68902 3.94463,-0.68902 3.27284,0 5.2021,1.963709 1.94648,1.9637 1.94648,5.271 0,0.79237 -0.10335,1.70532 -0.10336,0.89573 -0.31006,1.92926 z"
         style="font-style:italic;font-variant:normal;font-weight:normal;font-stretch:normal;font-family:sans-serif;-inkscape-font-specification:'sans-serif Italic';text-align:center;text-anchor:middle"
         id="path147" />
      <path
         d="m 321.19607,91.554256 h 3.16949 l -0.77515,4.013539 h -3.16949 z m -1.44694,7.510314 h 3.16949 l -3.77238,19.29255 h -3.16949 z"
         style="font-style:italic;font-variant:normal;font-weight:normal;font-stretch:normal;font-family:sans-serif;-inkscape-font-specification:'sans-serif Italic';text-align:center;text-anchor:middle"
         id="path149" />
      <path
         d="m 339.4551,99.06457 -0.48231,2.46324 h -6.32176 l -2.04983,10.4731 q -0.10335,0.58567 -0.15503,0.98185 -0.0517,0.39619 -0.0517,0.62012 0,1.10243 0.65457,1.60197 0.6718,0.49954 2.13596,0.49954 h 3.20394 l -0.53399,2.65273 h -3.03168 q -2.82498,0 -4.22025,-1.10243 -1.37804,-1.10244 -1.37804,-3.34175 0,-0.39619 0.0517,-0.86127 0.0517,-0.48232 0.15503,-1.05076 l 2.04983,-10.4731 h -2.68717 l 0.49953,-2.46324 h 2.6355 l 1.06798,-5.477706 h 3.16949 l -1.05075,5.477706 z"
         style="font-style:italic;font-variant:normal;font-weight:normal;font-stretch:normal;font-family:sans-serif;-inkscape-font-specification:'sans-serif Italic';text-align:center;text-anchor:middle"
         id="path151" />
      <path
         d="m 369.23796,106.71269 -2.25654,11.64443 h -3.18671 l 2.25654,-11.52385 q 0.15503,-0.8096 0.24115,-1.42972 0.0861,-0.62012 0.0861,-0.98185 0,-1.44694 -0.91295,-2.25654 -0.91295,-0.8096 -2.54937,-0.8096 -2.54937,0 -4.42695,1.72255 -1.86036,1.72255 -2.41157,4.58198 l -2.08429,10.69703 h -3.16949 l 5.21933,-26.802864 h 3.16949 l -2.04984,10.542004 q 1.20579,-1.6192 3.08337,-2.549377 1.87757,-0.947402 3.94463,-0.947402 2.54938,0 3.94464,1.37804 1.41249,1.378039 1.41249,3.875739 0,0.62011 -0.0861,1.32636 -0.0689,0.70624 -0.22393,1.53307 z"
         style="font-style:italic;font-variant:normal;font-weight:normal;font-stretch:normal;font-family:sans-serif;-inkscape-font-specification:'sans-serif Italic';text-align:center;text-anchor:middle"
         id="path153" />
      <path
         d="m 388.90947,106.98829 q 0.0517,-0.2756 0.0689,-0.56844 0.0344,-0.29283 0.0344,-0.58566 0,-2.10151 -1.24024,-3.32452 -1.22301,-1.22301 -3.34174,-1.22301 -2.3599,0 -4.16857,1.49862 -1.80868,1.48139 -2.73885,4.22024 z m 2.75608,2.48048 h -14.74502 q -0.10335,0.65456 -0.1378,1.03352 -0.0344,0.37897 -0.0344,0.65457 0,2.39435 1.46417,3.70348 1.48139,1.30914 4.16856,1.30914 2.06706,0 3.91019,-0.46509 1.84313,-0.46509 3.42787,-1.36081 l -0.60289,3.13504 q -1.70532,0.68902 -3.53123,1.03353 -1.80867,0.34451 -3.68625,0.34451 -4.01354,0 -6.18395,-1.91203 -2.15319,-1.92926 -2.15319,-5.46048 0,-3.01446 1.06798,-5.59829 1.08521,-2.60105 3.16949,-4.63365 1.34359,-1.274689 3.18672,-1.963709 1.86035,-0.68902 3.94464,-0.68902 3.27284,0 5.20209,1.963709 1.94648,1.9637 1.94648,5.271 0,0.79237 -0.10335,1.70532 -0.10335,0.89573 -0.31006,1.92926 z"
         style="font-style:italic;font-variant:normal;font-weight:normal;font-stretch:normal;font-family:sans-serif;-inkscape-font-specification:'sans-serif Italic';text-align:center;text-anchor:middle"
         id="path155" />
      <path
         d="m 409.37336,101.9929 q -0.48232,-0.25838 -1.10244,-0.39618 -0.62011,-0.13781 -1.32636,-0.13781 -2.53215,0 -4.42695,1.92926 -1.8948,1.91203 -2.51492,5.13319 l -1.94648,9.83576 h -3.16949 l 3.77238,-19.29255 h 3.16949 l -0.60289,2.99723 q 1.25746,-1.67087 2.99723,-2.566593 1.757,-0.895726 3.73794,-0.895726 0.51676,0 1.0163,0.0689 0.49954,0.05168 0.99908,0.189481 z"
         style="font-style:italic;font-variant:normal;font-weight:normal;font-stretch:normal;font-family:sans-serif;-inkscape-font-specification:'sans-serif Italic';text-align:center;text-anchor:middle"
         id="path157" />
      <path
         d="m 425.11745,106.98829 q 0.0517,-0.2756 0.0689,-0.56844 0.0344,-0.29283 0.0344,-0.58566 0,-2.10151 -1.24023,-3.32452 -1.22301,-1.22301 -3.34175,-1.22301 -2.35989,0 -4.16856,1.49862 -1.80868,1.48139 -2.73886,4.22024 z m 2.75608,2.48048 h -14.74502 q -0.10335,0.65456 -0.1378,1.03352 -0.0344,0.37897 -0.0344,0.65457 0,2.39435 1.46416,3.70348 1.48139,1.30914 4.16857,1.30914 2.06706,0 3.91019,-0.46509 1.84312,-0.46509 3.42787,-1.36081 l -0.60289,3.13504 q -1.70533,0.68902 -3.53123,1.03353 -1.80867,0.34451 -3.68625,0.34451 -4.01354,0 -6.18395,-1.91203 -2.15319,-1.92926 -2.15319,-5.46048 0,-3.01446 1.06798,-5.59829 1.08521,-2.60105 3.16949,-4.63365 1.34359,-1.274689 3.18672,-1.963709 1.86035,-0.68902 3.94463,-0.68902 3.27285,0 5.2021,1.963709 1.94648,1.9637 1.94648,5.271 0,0.79237 -0.10335,1.70532 -0.10335,0.89573 -0.31006,1.92926 z"
         style="font-style:italic;font-variant:normal;font-weight:normal;font-stretch:normal;font-family:sans-serif;-inkscape-font-specification:'sans-serif Italic';text-align:center;text-anchor:middle"
         id="path159" />
      <path
         d="m 436.17622,92.639462 v 9.560148 h -2.92834 v -9.560148 z m 6.51123,0 v 9.560148 h -2.92833 v -9.560148 z"
         style="font-style:italic;font-variant:normal;font-weight:normal;font-stretch:normal;font-family:sans-serif;-inkscape-font-specification:'sans-serif Italic';text-align:center;text-anchor:middle"
         id="path161" />
      <path
         d="m 459.44786,107.28113 h 9.28454 l -0.53399,2.82498 h -9.31899 z"
         style="font-style:italic;font-variant:normal;font-weight:normal;font-stretch:normal;font-family:sans-serif;-inkscape-font-specification:'sans-serif Italic';text-align:center;text-anchor:middle"
         id="path163" />
      <path
         d="m 494.22612,92.639462 h 3.94463 l 4.77146,25.717658 h -3.63457 l -1.06798,-6.59736 h -11.57553 l -3.63458,6.59736 h -3.66903 z m 1.25746,3.427873 -7.21748,12.798535 h 9.43957 z"
         style="font-style:italic;font-variant:normal;font-weight:normal;font-stretch:normal;font-family:sans-serif;-inkscape-font-specification:'sans-serif Italic';text-align:center;text-anchor:middle"
         id="path165" />
      <path
         d="m 511.33102,92.639462 h 8.88835 q 3.61736,0 5.40881,1.343588 1.79145,1.343589 1.79145,4.04799 0,2.48047 -1.5503,4.28915 -1.53306,1.79145 -4.03076,2.17041 2.13596,0.48231 3.20394,1.84313 1.06798,1.36081 1.06798,3.63457 0,3.87574 -2.87666,6.13228 -2.85943,2.25654 -7.83759,2.25654 h -9.07784 z m 0.84405,13.435878 -1.8259,9.42235 h 5.59828 q 3.15227,0 4.85759,-1.44694 1.70532,-1.44695 1.70532,-4.08245 0,-2.0326 -1.13688,-2.96278 -1.11966,-0.93018 -3.61735,-0.93018 z m 2.04983,-10.576447 -1.51584,7.751467 h 5.18487 q 2.77331,0 4.3236,-1.20578 1.56752,-1.20578 1.56752,-3.341746 0,-1.670872 -1.05076,-2.428794 -1.05075,-0.775147 -3.35897,-0.775147 z"
         style="font-style:italic;font-variant:normal;font-weight:normal;font-stretch:normal;font-family:sans-serif;-inkscape-font-specification:'sans-serif Italic';text-align:center;text-anchor:middle"
         id="path167" />
    </g>
  </g>
</svg>
