<?xml version="1.0" encoding="UTF-8" standalone="no"?>
<svg
   xmlns:dc="http://purl.org/dc/elements/1.1/"
   xmlns:cc="http://creativecommons.org/ns#"
   xmlns:rdf="http://www.w3.org/1999/02/22-rdf-syntax-ns#"
   xmlns:svg="http://www.w3.org/2000/svg"
   xmlns="http://www.w3.org/2000/svg"
   xmlns:sodipodi="http://sodipodi.sourceforge.net/DTD/sodipodi-0.dtd"
   xmlns:inkscape="http://www.inkscape.org/namespaces/inkscape"
   width="140mm"
   height="140mm"
   viewBox="0 0 140 140"
   version="1.1"
   id="svg1186"
   sodipodi:docname="basinger-logo.svg"
   inkscape:version="1.0.1 (3bc2e813f5, 2020-09-07)">
  <defs
     id="defs1180" />
  <sodipodi:namedview
     id="base"
     pagecolor="#ffffff"
     bordercolor="#666666"
     borderopacity="1.0"
     inkscape:pageopacity="0.0"
     inkscape:pageshadow="2"
     inkscape:zoom="0.90509668"
     inkscape:cx="400"
     inkscape:cy="277.57764"
     inkscape:document-units="mm"
     inkscape:current-layer="layer1"
     inkscape:document-rotation="0"
     showgrid="false"
     inkscape:window-width="1528"
     inkscape:window-height="836"
     inkscape:window-x="72"
     inkscape:window-y="27"
     inkscape:window-maximized="1" />
  <metadata
     id="metadata1183">
    <rdf:RDF>
      <cc:Work
         rdf:about="">
        <dc:format>image/svg+xml</dc:format>
        <dc:type
           rdf:resource="http://purl.org/dc/dcmitype/StillImage" />
        <dc:title></dc:title>
      </cc:Work>
    </rdf:RDF>
  </metadata>
  <g
     inkscape:label="Layer 1"
     inkscape:groupmode="layer"
     id="layer1">
    <path
       style="fill:#000000;stroke-width:0.108404"
       d="m 115.12018,133.45127 c -3.01148,-0.62396 -8.84046,-3.84616 -15.884641,-8.78092 -0.944952,-0.66198 -1.767964,-1.20359 -1.828918,-1.20359 -0.06102,0 -0.442604,0.17516 -0.848111,0.38926 -3.842877,2.02894 -9.650889,4.03832 -14.737373,5.09864 -4.085741,0.85171 -7.695183,1.20715 -12.258292,1.20715 -3.527818,0 -5.222452,-0.10972 -8.363814,-0.54177 -10.607623,-1.45874 -20.715447,-5.78265 -28.849875,-12.34134 -1.829879,-1.47541 -2.958199,-2.49579 -4.8933,-4.42525 l -1.611293,-1.60659 -1.990254,2.80778 c -1.094646,1.54428 -2.841141,4.0415 -3.881097,5.54937 l -1.890854,2.74162 -0.621663,-0.32902 c -0.341908,-0.18095 -0.621663,-0.36204 -0.621663,-0.40242 0,-0.0405 0.430584,-1.21763 0.956864,-2.61611 1.230895,-3.27091 3.20279,-8.03103 4.135614,-9.98329 0.401737,-0.84078 0.730437,-1.56913 0.730437,-1.61855 0,-0.0494 -0.28711,-0.48243 -0.638024,-0.96227 -1.683425,-2.30186 -3.698497,-5.72343 -4.987559,-8.468862 -0.540093,-1.150275 -0.794037,-1.581711 -0.930988,-1.581711 -0.183076,0 -3.616818,0.646962 -7.0478712,1.327892 -0.9316682,0.18491 -1.748136,0.336395 -1.8143922,0.336633 C 7.0644749,98.04859 5.9179575,95.223474 5.3738797,93.441974 4.1839152,89.545638 3.6011528,85.750252 3.4394921,80.84378 3.3061591,76.797146 3.7290536,73.130784 4.6729902,70.149653 c 0.5731939,-1.810248 2.2140673,-4.878687 2.6710672,-4.994902 0.127188,-0.03238 1.4937707,-0.31401 3.0368426,-0.625915 1.543071,-0.311892 2.878292,-0.589533 2.967173,-0.616968 0.106809,-0.03295 0.31614,-0.624091 0.617278,-1.742991 0.835152,-3.102951 2.349647,-7.012004 3.831733,-9.890019 5.109066,-9.921166 13.324308,-18.221614 23.358446,-23.60073 0.712456,-0.381931 1.271524,-0.748414 1.249298,-0.818935 -0.02214,-0.0702 -0.232064,-0.97677 -0.466514,-2.014595 C 39.941288,17.004576 39.420116,10.924689 40.40034,7.903157 40.704956,6.9642011 40.974268,6.488134 41.446992,6.0529743 42.0382,5.5087553 42.648178,5.3258226 43.652107,5.3916591 c 1.510899,0.099084 2.62074,0.7717775 4.617831,2.7989518 2.331341,2.3664611 6.005527,7.2701461 10.180592,13.5873511 l 0.466763,0.706251 0.479172,-0.06289 c 0.263545,-0.03459 1.408194,-0.187861 2.543663,-0.340599 6.869168,-0.923996 14.793845,-0.49947 21.703577,1.162668 2.461369,0.592082 3.763964,0.981961 6.299333,1.885455 4.527448,1.613382 8.338089,3.510693 12.492782,6.220141 l 1.48219,0.966598 9.21079,-1.868691 c 5.06594,-1.027779 9.34293,-1.895838 9.50442,-1.929018 l 0.29363,-0.06033 -0.44808,0.691479 c -0.24645,0.380315 -2.1095,3.463638 -4.14014,6.851826 -2.29937,3.836634 -3.65882,6.207045 -3.60396,6.284141 0.0485,0.06805 0.5601,0.725881 1.13703,1.461794 4.2218,5.385203 7.49053,11.841345 9.22854,18.227445 0.27413,1.007305 0.53126,1.870473 0.57141,1.918153 0.0402,0.04767 1.30781,0.335806 2.81704,0.640282 1.50924,0.304476 2.84555,0.577091 2.96957,0.605805 0.30289,0.07009 1.58848,2.080224 2.25696,3.528873 1.0323,2.237076 1.64938,4.634787 1.91969,7.459042 0.37773,3.946735 -0.83073,13.835608 -2.19559,17.966573 -0.40915,1.238354 -1.263,3.033214 -1.70896,3.592336 l -0.28585,0.358428 -4.12898,-0.773084 c -2.27093,-0.425187 -4.2111,-0.793739 -4.31147,-0.818999 -0.1433,-0.03612 -0.34093,0.291455 -0.91995,1.524624 -2.42574,5.166195 -6.40739,10.887965 -10.26667,14.753645 -0.47245,0.47322 -0.859,0.90701 -0.859,0.96396 0,0.0569 1.23526,2.37271 2.74503,5.14613 3.68189,6.76357 4.50038,8.50508 4.98702,10.61079 0.49768,2.15352 -10e-4,3.59107 -1.38985,4.00875 -0.42165,0.12678 -1.54924,0.12252 -2.18046,-0.008 z m 2.01854,-1.60242 c 0.44548,-0.35366 0.37043,-1.54738 -0.20597,-3.27622 -0.40643,-1.21905 -1.37628,-3.19767 -3.34601,-6.82633 -0.96102,-1.77041 -2.11998,-3.91821 -2.57544,-4.77289 -1.42528,-2.6745 -1.48072,-2.71348 -0.78906,-0.55499 1.25797,3.92589 1.64575,6.94893 1.10487,8.61318 -0.37394,1.15061 -1.3578,1.873 -2.55364,1.87498 -1.25017,0.002 -3.62046,-0.96749 -5.54361,-2.26766 -0.3785,-0.25587 -2.7606,-1.75382 -5.293557,-3.32877 -2.532971,-1.57494 -4.712587,-2.93393 -4.843609,-3.01995 -0.131011,-0.0861 -0.238209,-0.13567 -0.238209,-0.11029 0,0.12919 7.914815,5.76261 10.110695,7.19637 5.48716,3.58273 9.16126,5.59297 11.60824,6.35132 1.02138,0.31654 2.24639,0.37443 2.5653,0.12125 z m -7.52637,-6.7603 c 0.70325,-0.68331 0.69361,-2.63177 -0.0273,-5.52463 -0.31827,-1.27709 -0.90011,-3.2293 -1.03861,-3.48482 -0.053,-0.0977 -0.53957,0.22856 -1.61106,1.08039 -1.54352,1.2271 -4.02968,3.01952 -5.27549,3.80344 -0.36855,0.23191 -0.63058,0.45737 -0.5823,0.50102 0.0483,0.0437 1.05159,0.68963 2.22955,1.43552 3.01645,1.90999 4.17603,2.43709 5.38613,2.44827 0.5392,0.004 0.69142,-0.038 0.91912,-0.25919 z m -23.176535,-8.06923 1.52104,-3.70882 3.962408,-0.0555 3.962398,-0.0555 -2.468357,-2.27545 c -1.357597,-1.2515 -2.689016,-2.47812 -2.958717,-2.72581 l -0.490349,-0.45036 1.186336,-3.8045 c 0.652496,-2.09248 1.171788,-3.84562 1.15399,-3.89586 -0.01782,-0.05027 -1.528999,0.8443 -3.358219,1.98789 l -3.325864,2.07927 -2.940444,-2.24912 c -1.617233,-1.23701 -3.056206,-2.328638 -3.197714,-2.425854 -0.253167,-0.173916 -0.246449,-0.126599 0.420961,2.962114 0.373043,1.72637 0.764079,3.53933 0.868976,4.02882 l 0.190723,0.88997 -3.155272,2.38445 c -2.355295,1.77991 -3.109265,2.4036 -2.97388,2.46 0.09979,0.0415 1.848843,0.23469 3.886865,0.4292 2.038021,0.19453 3.708745,0.36033 3.712719,0.36845 0.0043,0.008 0.549003,1.77431 1.211175,3.92484 0.662162,2.15053 1.218843,3.89444 1.237062,3.87534 0.01825,-0.0191 0.717586,-1.70371 1.554163,-3.74358 z m -59.33731,-9.92467 c 2.483768,-3.29409 6.479278,-8.339518 9.053666,-11.43273 0.965374,-1.159922 1.95319,-2.349929 2.195157,-2.644453 l 0.439948,-0.535503 -0.360548,0.06419 c -0.198294,0.03532 -1.646868,0.263669 -3.219055,0.50749 -1.572187,0.243832 -2.983751,0.471055 -3.136804,0.504943 -0.22688,0.05027 -0.522349,0.475618 -1.599964,2.30346 -2.688358,4.559983 -4.816092,8.633743 -7.084309,13.563563 -0.942047,2.04749 -2.59723,5.84781 -2.924795,6.71534 -0.03456,0.0916 0.954941,-1.25705 2.198915,-2.99692 1.243974,-1.73988 3.240978,-4.4621 4.437789,-6.04936 z M 130.73085,94.468698 c 1.09442,-2.739563 1.89893,-7.187062 2.40437,-13.291931 0.2529,-3.054568 0.19865,-4.763513 -0.22376,-7.048325 -0.42681,-2.308737 -1.25235,-4.446288 -2.40262,-6.220994 l -0.27809,-0.429083 -3.46916,-0.692671 C 105.85391,62.61116 89.799974,60.253747 76.603275,59.42029 73.459116,59.221714 67.060782,59.159768 64.110478,59.299341 c -13.06355,0.618011 -28.69179,2.815934 -49.494736,6.960813 -2.008906,0.400266 -4.17998,0.830786 -4.8246031,0.956705 l -1.1720586,0.228944 -0.3786481,0.621882 c -1.0057757,1.651845 -1.8635524,4.516171 -2.2138837,7.392714 -0.2014899,1.654392 -0.169782,6.793579 0.05551,8.990788 0.3250169,3.17041 0.9241948,6.201326 1.6896017,8.546794 0.5202537,1.594257 0.7756665,2.164453 0.9695211,2.164453 0.092229,0 2.3687737,-0.422764 5.0591077,-0.939471 16.873629,-3.24077 31.110879,-5.377595 42.552109,-6.38652 6.213227,-0.5479 14.235824,-0.711376 19.509813,-0.397548 7.278109,0.433102 14.201892,1.178254 23.873933,2.569407 7.577116,1.089824 22.414306,3.626576 29.114546,4.977771 0.72787,0.146786 1.37634,0.271493 1.44106,0.277121 0.0647,0.0057 0.26231,-0.351896 0.43913,-0.794496 z M 20.913077,89.473818 C 20.798276,89.14399 20.030742,67.693654 20.129289,67.569173 c 0.175851,-0.222138 3.180489,-0.92911 4.901971,-1.153389 1.097238,-0.142948 2.196172,2.3e-5 2.908326,0.378379 1.333352,0.708377 2.120822,2.464083 2.129613,4.748126 0.0076,1.870948 -0.454753,3.150075 -1.543233,4.273018 l -0.666773,0.687894 0.555871,0.266806 c 0.764878,0.367124 1.249244,0.843126 1.628281,1.600168 0.458447,0.915636 0.605874,1.682359 0.603681,3.139579 -0.0032,2.211317 -0.587914,3.810964 -1.888219,5.166824 -1.28012,1.334812 -2.560294,1.906388 -5.707941,2.548516 -2.172262,0.443156 -2.074104,0.431732 -2.137789,0.248724 z m 4.457736,-4.35231 c 1.387567,-0.651718 2.19371,-2.374781 2.001367,-4.277728 -0.182817,-1.808651 -1.00503,-2.549558 -2.666013,-2.402352 -0.445152,0.0394 -0.827213,0.09047 -0.849028,0.113305 -0.04946,0.05185 0.1699,5.83256 0.246157,6.486282 0.05497,0.471213 0.06123,0.477679 0.392429,0.406132 0.185117,-0.03997 0.578907,-0.186518 0.875088,-0.325639 z m -0.417062,-9.178811 c 0.73925,-0.287877 1.433767,-0.953839 1.743006,-1.67133 0.219698,-0.509733 0.252972,-0.755184 0.252972,-1.866352 0,-1.154736 -0.02635,-1.333237 -0.2709,-1.831454 -0.471147,-0.960079 -1.325198,-1.249711 -2.744246,-0.93064 -0.525621,0.118185 -0.536453,0.128693 -0.48631,0.471745 0.02819,0.192971 0.07808,1.224959 0.110816,2.293316 0.03272,1.068345 0.08877,2.382017 0.124617,2.919252 l 0.06512,0.976813 0.330018,-0.07462 c 0.181499,-0.04098 0.575224,-0.170066 0.874937,-0.286779 z m 88.459019,13.060202 c -0.6008,-0.07586 -1.13648,-0.18423 -1.19042,-0.240764 -0.0539,-0.0565 -0.57455,-2.21905 -1.15695,-4.805588 -0.58239,-2.586537 -1.07187,-4.716388 -1.08772,-4.73301 -0.0159,-0.01664 -0.5024,1.871911 -1.08124,4.196726 -0.57883,2.324815 -1.12586,4.315727 -1.21562,4.424231 -0.15578,0.188363 -0.23271,0.188771 -1.6973,0.009 -1.22142,-0.149855 -1.54071,-0.224041 -1.56642,-0.364012 -0.0353,-0.192155 5.21145,-21.050228 5.32495,-21.168935 0.2188,-0.228863 4.93459,0.264055 6.06965,0.634429 1.24671,0.40681 2.08522,1.11907 2.62998,2.233997 0.28237,0.577894 0.29777,0.684564 0.28848,1.997954 -0.009,1.171799 -0.0544,1.542105 -0.2972,2.382311 -0.49617,1.717447 -1.24509,2.973861 -2.36101,3.960898 -0.56377,0.498648 -1.78759,1.165085 -2.3385,1.273443 -0.19628,0.03861 -0.37674,0.126327 -0.40102,0.19493 -0.0243,0.06862 0.52436,2.344902 1.2192,5.058445 0.69483,2.713543 1.23975,4.973729 1.21093,5.022632 -0.0713,0.120936 -1.03339,0.08957 -2.34979,-0.07677 z m -0.6176,-12.821283 c 1.10622,-0.552679 2.03464,-1.960443 2.35831,-3.57593 0.26186,-1.306924 0.0324,-2.136226 -0.69929,-2.527581 -0.403,-0.215559 -1.96715,-0.530702 -2.07464,-0.418008 -0.0466,0.04892 -1.73871,6.695547 -1.73871,6.829946 0,0.02933 0.36922,0.02967 0.82049,6.58e-4 0.55481,-0.03555 0.98673,-0.135703 1.33384,-0.309119 z M 33.353743,87.420372 c -6.26e-4,-0.106885 0.716992,-5.139187 1.594748,-11.182981 1.301968,-8.9647 1.630193,-11.01972 1.782004,-11.156906 0.222906,-0.201463 3.171493,-0.726481 3.303389,-0.588198 0.175744,0.184254 4.379331,21.340757 4.264185,21.46149 -0.141617,0.148462 -3.132754,0.681666 -3.230988,0.575958 -0.04125,-0.04439 -0.248188,-1.104543 -0.459981,-2.356042 -0.211793,-1.251489 -0.417549,-2.309134 -0.457227,-2.350315 -0.07484,-0.07768 -2.851206,0.398567 -2.954462,0.506823 -0.03218,0.03374 -0.166477,1.09193 -0.298449,2.35156 -0.131973,1.259617 -0.280199,2.329536 -0.329391,2.377601 -0.09245,0.09035 -2.596204,0.555249 -2.990263,0.555249 -0.140763,0 -0.22282,-0.07133 -0.223565,-0.194239 z m 5.541151,-8.469721 c 0.670759,-0.111754 0.820259,-0.171911 0.784415,-0.315686 -0.02441,-0.09771 -0.325125,-1.846911 -0.668372,-3.887132 -0.464689,-2.762094 -0.64418,-3.626734 -0.702779,-3.385427 -0.06318,0.260228 -0.824255,7.418575 -0.824255,7.752729 0,0.05027 0.131012,0.06488 0.291139,0.03249 0.160138,-0.03238 0.664062,-0.12105 1.119852,-0.19699 z m 57.188667,7.492025 c -2.096253,-0.201633 -3.823276,-0.37008 -3.837834,-0.374326 -0.01458,-0.0045 -0.02646,-0.08413 -0.02646,-0.177583 0,-0.339136 4.764016,-21.185807 4.865933,-21.292658 0.138139,-0.144828 7.70608,0.522696 7.86959,0.694132 0.0857,0.0899 0.0203,0.541346 -0.24334,1.679506 -0.19831,0.856136 -0.39422,1.613699 -0.43535,1.68348 -0.0556,0.09432 -0.64827,0.07485 -2.30811,-0.07586 -1.22833,-0.111528 -2.264127,-0.170473 -2.301754,-0.131014 -0.104649,0.109716 -1.203783,4.992242 -1.139126,5.06003 0.03121,0.03272 0.984475,0.139721 2.11844,0.237866 1.13396,0.09816 2.11367,0.23286 2.17713,0.299381 0.0833,0.08729 0.0166,0.542398 -0.23915,1.634521 -0.19498,0.832449 -0.38792,1.570242 -0.42876,1.639514 -0.0553,0.09375 -0.55648,0.09035 -1.96109,-0.01336 -1.037746,-0.07665 -2.032128,-0.164835 -2.209729,-0.196073 l -0.322901,-0.05684 -0.650584,2.863228 c -0.357816,1.574771 -0.641286,2.871301 -0.629936,2.881174 0.01922,0.01675 5.12686,0.489432 5.2764,0.488323 0.19913,-0.0012 0.16389,0.483928 -0.12345,1.700259 -0.45425,1.922862 -0.4137,1.853919 -1.08046,1.836991 -0.30696,-0.008 -2.273206,-0.179145 -4.369449,-0.38079 z M 46.87114,85.986647 c -0.03888,-0.04065 -0.07063,-0.808787 -0.07063,-1.706862 0,-1.240143 0.03456,-1.662963 0.143776,-1.757971 0.07905,-0.06884 0.519768,-0.225309 0.979306,-0.347786 1.193193,-0.318006 1.956397,-0.742435 2.192446,-1.219253 0.156725,-0.316579 0.183886,-0.573421 0.146757,-1.387472 -0.05432,-1.191581 -0.325924,-2.097582 -1.486945,-4.960821 -1.897237,-4.678843 -2.188926,-6.768974 -1.231123,-8.821899 0.741918,-1.590227 2.911166,-2.852245 5.072358,-2.950979 l 0.588627,-0.02694 0.02938,1.583296 c 0.01696,0.914166 -0.01566,1.671524 -0.07722,1.792075 -0.06501,0.127347 -0.32425,0.262583 -0.664602,0.346699 -0.79273,0.195915 -1.41719,0.523999 -1.723275,0.905378 -0.53587,0.667673 -0.309498,1.721966 1.270519,5.9173 0.482822,1.282013 1.025442,2.817088 1.205808,3.411276 1.158472,3.816263 0.331788,6.741109 -2.310833,8.175899 -0.947219,0.514274 -1.627503,0.737714 -2.917484,0.958233 -1.107411,0.189314 -1.055853,0.185271 -1.146938,0.08979 z m 37.939332,-0.593939 c -2.064319,-0.149221 -2.876748,-0.453268 -3.693529,-1.382276 -1.097789,-1.248624 -1.299992,-2.858393 -0.811478,-6.460433 0.654299,-4.824588 1.923436,-9.963751 2.886694,-11.689238 0.375322,-0.672325 1.119637,-1.489909 1.653822,-1.816634 1.339529,-0.819281 3.315982,-0.991646 5.845443,-0.509789 1.003605,0.191193 0.972664,0.117869 0.685371,1.623787 -0.318181,1.667719 -0.369404,1.810984 -0.647755,1.810984 -0.123754,0 -0.769587,-0.107452 -1.435183,-0.238884 -1.060044,-0.209243 -1.282852,-0.221833 -1.795827,-0.101456 -1.015107,0.238172 -1.598679,0.969612 -2.087031,2.615807 -0.72292,2.436898 -1.870334,8.926045 -1.894374,10.713546 -0.02084,1.549986 0.376715,2.161668 1.514592,2.330294 0.37138,0.05503 0.704357,0.06466 0.739963,0.02151 0.03564,-0.04326 0.408434,-1.851791 0.828499,-4.019018 0.420065,-2.167227 0.820107,-3.99687 0.888977,-4.065881 0.152308,-0.152629 2.879933,-0.02774 3.039121,0.139143 0.127825,0.134014 -1.865086,10.687752 -2.057731,10.896983 -0.176165,0.191341 -1.950587,0.255167 -3.659574,0.131625 z M 57.067165,84.367943 c -0.0011,-0.259458 0.243015,-5.166926 0.543549,-10.905487 0.381909,-7.292429 0.584933,-10.477424 0.674354,-10.578784 0.131973,-0.149616 2.844737,-0.486339 3.097807,-0.384526 0.07355,0.02966 0.135212,0.185837 0.136972,0.347185 0.0022,0.161359 -0.243295,5.063483 -0.544574,10.89362 -0.352276,6.817039 -0.589577,10.647637 -0.664895,10.733032 -0.11669,0.132305 -1.890573,0.366694 -2.775122,0.366694 h -0.465197 l -0.0032,-0.471734 z m 7.561688,-0.128738 c -0.102273,-0.279318 2.451228,-21.721468 2.598061,-21.8166 0.179135,-0.116079 3.098519,-0.249324 3.191462,-0.145666 0.04233,0.04721 0.664926,3.301652 1.383613,7.232171 0.941291,5.148018 1.327607,7.056886 1.381497,6.826334 0.04115,-0.176032 0.295459,-3.341958 0.565149,-7.035394 0.26969,-3.693436 0.524368,-6.752704 0.565936,-6.79838 0.04158,-0.04563 0.799847,-0.115909 1.685033,-0.156071 l 1.609447,-0.07303 0.0022,0.267078 c 0.0065,0.771149 -2.483023,21.485595 -2.597781,21.616213 -0.09158,0.104286 -0.573604,0.167042 -1.614068,0.210215 -1.392394,0.05775 -1.486967,0.04869 -1.540437,-0.148643 -0.03132,-0.115626 -0.638726,-3.481872 -1.349746,-7.480543 -0.711008,-3.998682 -1.322844,-7.306153 -1.359606,-7.349938 -0.03683,-0.04381 -0.316755,3.250948 -0.62217,7.321643 -0.305416,4.070694 -0.590452,7.434879 -0.633402,7.475969 -0.04298,0.0411 -0.780775,0.109603 -1.639621,0.15221 -1.368505,0.06794 -1.569433,0.05582 -1.625592,-0.0976 z M 79.977554,55.132032 c 3.211775,-2.183079 6.552942,-4.305299 9.012638,-5.724588 1.048121,-0.604797 1.945759,-1.141048 1.994747,-1.191682 0.109778,-0.113476 -1.379057,-5.000077 -1.523416,-5.000077 -0.155192,0 -2.671132,1.335355 -4.653244,2.469756 -3.821991,2.187392 -7.753048,4.717555 -12.953339,8.337235 l -3.689619,2.568184 2.842653,0.07891 c 1.563461,0.04336 3.176148,0.0959 3.58375,0.116691 0.407602,0.02072 1.211402,0.04767 1.786215,0.05978 l 1.04513,0.02208 z M 114.06727,40.86519 c 3.23962,-5.413555 5.89021,-9.867427 5.89021,-9.897505 0,-0.06166 -24.039553,12.443428 -24.16861,12.572234 -0.04557,0.04551 0.883394,0.633285 2.064481,1.306132 1.181087,0.672834 3.981649,2.273501 6.223469,3.557032 2.24183,1.28352 4.08148,2.327216 4.08813,2.319301 0.006,-0.008 2.66269,-4.443649 5.90232,-9.857194 z M 49.96482,47.877272 C 46.372291,35.536871 44.513166,26.94467 44.296924,21.682199 c -0.133959,-3.259951 0.409643,-5.275272 1.661015,-6.157996 0.391986,-0.27651 0.600787,-0.339888 1.230798,-0.373588 0.933688,-0.04995 1.288188,0.06803 2.335963,0.777458 0.981498,0.664543 4.295191,4.129862 5.851416,6.119173 0.983906,1.257714 1.013832,1.284482 1.376324,1.230899 0.917607,-0.13564 0.886882,-0.09298 0.491149,-0.681971 C 54.534096,18.563541 53.571077,17.157946 52.586835,15.79934 49.129896,11.027499 46.498723,8.143364 44.841941,7.3098363 43.275402,6.52171 42.300049,6.8367052 41.820187,8.2857299 41.467555,9.35054 41.366081,10.561511 41.437035,12.857912 c 0.158215,5.12009 1.65447,12.591635 4.559405,22.767378 1.312476,4.597512 4.463028,14.558059 4.56947,14.446463 0.01588,-0.01664 -0.254581,-1.004203 -0.60109,-2.194481 z m 45.589697,-0.565485 2.203591,-1.120768 -1.522962,-0.870517 c -0.837646,-0.478788 -1.532293,-0.860756 -1.543665,-0.848834 -0.01134,0.01189 -0.306172,0.820607 -0.655088,1.797046 -0.348917,0.97644 -0.6674,1.862762 -0.707737,1.969591 -0.04039,0.106885 -0.05184,0.194251 -0.02559,0.194251 0.02624,0 1.039427,-0.504343 2.251402,-1.120769 z M 92.942524,45.82412 c 0.347599,-0.976779 0.71319,-1.987718 0.812396,-2.24653 l 0.180388,-0.470579 9.516482,-4.95995 c 5.23406,-2.727967 9.50016,-4.977057 9.4802,-4.997981 -0.02,-0.02095 -2.50887,0.865093 -5.53091,1.968922 -3.02204,1.103842 -8.114923,2.958067 -11.317519,4.120503 -3.202606,1.162424 -5.83771,2.127948 -5.8558,2.145589 -0.01803,0.01767 0.410702,1.458331 0.952846,3.201515 0.542145,1.743184 1.018163,3.134562 1.057809,3.091944 0.03964,-0.04258 0.356498,-0.876653 0.704108,-1.853433 z m 8.350086,-9.787853 c 6.53339,-2.365566 11.86674,-4.313784 11.85187,-4.329382 -0.0149,-0.0156 -6.76584,1.338129 -15.002129,3.008294 -8.236291,1.670153 -15.069021,3.055168 -15.183844,3.077813 -0.146325,0.02887 5.716755,2.345853 6.402233,2.530061 0.02916,0.008 5.398455,-1.921232 11.93187,-4.286786 z M 49.500272,25.018185 c 1.164585,-0.411809 2.712948,-0.912528 3.440804,-1.112711 0.727867,-0.200181 1.38693,-0.382754 1.464579,-0.405716 0.183628,-0.0543 -0.07722,-0.394854 -2.095313,-2.735686 -1.799629,-2.087409 -3.278507,-3.501978 -4.106045,-3.927507 -1.041976,-0.535792 -1.767575,-0.123728 -2.175491,1.235444 -0.208056,0.693224 -0.233521,1.0138 -0.229461,2.888707 0.0032,1.385439 0.06836,2.584942 0.190442,3.496416 0.260921,1.947553 0.186749,1.812181 0.843143,1.538816 0.302457,-0.125961 1.502756,-0.565955 2.667342,-0.977763 z"
       id="path72" />
  </g>
</svg>
