<?xml version="1.0" encoding="UTF-8" standalone="no"?>
<svg
   xmlns:dc="http://purl.org/dc/elements/1.1/"
   xmlns:cc="http://creativecommons.org/ns#"
   xmlns:rdf="http://www.w3.org/1999/02/22-rdf-syntax-ns#"
   xmlns:svg="http://www.w3.org/2000/svg"
   xmlns="http://www.w3.org/2000/svg"
   xmlns:sodipodi="http://sodipodi.sourceforge.net/DTD/sodipodi-0.dtd"
   xmlns:inkscape="http://www.inkscape.org/namespaces/inkscape"
   width="100mm"
   height="81.279999mm"
   viewBox="0 0 100 81.279999"
   version="1.1"
   id="svg8"
   inkscape:version="1.0.1 (3bc2e813f5, 2020-09-07)"
   sodipodi:docname="annabelle-mug.svg">
  <defs
     id="defs2">
    <rect
       x="5.0040493"
       y="3.2905545"
       width="91.941491"
       height="19.878407"
       id="rect72" />
    <rect
       x="7.6914948"
       y="3.8209935"
       width="83.594658"
       height="35.193058"
       id="rect18" />
    <rect
       x="6.7848041"
       y="3.3021644"
       width="86.697331"
       height="34.634076"
       id="rect12" />
    <clipPath
       clipPathUnits="userSpaceOnUse"
       id="clipPath98">
      <g
         inkscape:label="Clip"
         id="use100">
        <path
           style="fill:#000000;stroke-width:0.264583"
           d="m -12.445756,92.340005 c -0.228675,-0.228674 -0.415773,-0.515705 -0.415773,-0.637842 0,-0.122137 0.719525,-1.095899 1.598945,-2.163913 l 1.5989448,-1.941846 -1.2541458,-1.118473 c -1.241852,-1.107509 -1.258923,-1.113346 -1.741544,-0.595313 -0.991377,1.06412 -2.848034,0.331888 -2.848034,-1.123212 0,-0.258662 -0.04288,-0.470294 -0.09529,-0.470294 -0.05241,0 -1.110385,0.468974 -2.351056,1.042167 -4.231028,1.95474 -4.114476,1.922011 -4.71299,1.323497 -0.384354,-0.384353 -0.459655,-0.649129 -0.280051,-0.984721 0.135111,-0.252458 1.862622,-1.172464 3.838912,-2.044457 l 3.593254,-1.585444 0.0036,-4.411803 0.0036,-4.4118 -3.902604,-2.110476 c -3.461403,-1.871879 -3.91265,-2.194237 -3.991467,-2.851388 -0.04887,-0.4075 -0.316765,-1.030642 -0.595312,-1.384758 -0.468377,-0.595444 -0.50645,-1.143941 -0.50645,-7.296169 0,-7.521876 -0.004,-7.505251 2.009363,-8.368276 4.106474,-1.76024 13.6204338,-1.844059 17.6614898,-0.155599 l 0.96665,0.403892 v -1.625668 c 0,-1.399435 0.0979,-1.727849 0.70347,-2.359932 0.66013,-0.689028 0.67235,-0.745234 0.19844,-0.912337 -5.679173,-2.002454 -8.6771628,-3.846404 -9.5420788,-5.868968 -0.703744,-1.645671 0.443563,-2.903831 3.3484988,-3.672029 2.52827,-0.66859 8.43998995,-0.600255 12.51013,0.144607 10.0531802,1.839799 17.5046202,6.337464 15.3410502,9.259807 -0.28336,0.382743 -1.21869,0.993552 -2.07851,1.357355 -1.50165,0.635376 -1.77195,0.660364 -6.8549602,0.63372 -4.33597,-0.02273 -5.72173,-0.126608 -7.67292,-0.57518 l -2.38125005,-0.547443 -0.72759995,0.829769 -0.72761,0.82977 v 15.987728 15.987729 l 1.49188995,1.947785 c 0.82054,1.071285 1.53310005,1.947789 1.58348005,1.947789 0.0504,0 -0.25363,-0.68461 -0.67558005,-1.521354 -1.51655,-3.007442 -1.99376995,-5.143448 -1.99503995,-8.929688 -10e-4,-4.03256 0.38571995,-5.787403 2.00544995,-9.091801 1.41712005,-2.891068 3.83933005,-5.39893 6.44635005,-6.674313 l 1.84508,-0.902636 5.0340802,-0.07984 5.03409,-0.07984 -1.40961,0.960601 c -7.56776,5.157202 -9.9580302,16.61252 -5.32467,25.518414 1.22109,2.347092 3.50912,4.916971 5.53762,6.219748 l 1.44917,0.930717 h -4.01584 c -5.9052102,0 -8.2024002,-0.654219 -10.9583602,-3.120835 -1.58742,-1.420759 -1.49853,-1.178099 0.48382,1.320774 0.77307,0.974497 1.40557,2.001716 1.40557,2.282706 0,0.635693 -0.66032,1.21267 -1.16583,1.018685 -0.20836,-0.07995 -1.76222,-1.934514 -3.45302,-4.121247 -1.69081005,-2.186737 -3.18873,-4.046668 -3.32871,-4.133181 -0.15756,-0.09738 -0.25452,1.051353 -0.25452,3.015488 0,2.965193 -0.0355,3.184035 -0.54186,3.344765 -1.06778,0.338899 -1.28945,-0.24446 -1.36843,-3.601175 l -0.0741,-3.148648 -3.65362,4.365083 c -2.009493,2.400797 -3.8166918,4.365085 -4.0159998,4.365085 -0.199309,0 -0.549477,-0.187097 -0.778153,-0.415774 z m 6.4460618,-9.109226 2.12416,-2.513542 0.001,-6.482292 c 8.5e-4,-5.385308 -0.0554,-6.370775 -0.33238,-5.823323 -0.22394,0.4426 -1.61474,1.352185 -4.235861,2.770249 l -3.9024538,2.111285 0.07257,4.108915 0.07258,4.108916 1.316198,0.08307 c 1.5113868,0.09539 1.9910938,0.395086 1.9910938,1.243938 0,0.62928 -0.446733,0.921465 -1.4107018,0.922666 -0.484706,5.29e-4 -0.389026,0.162869 0.6169518,1.046289 0.654843,0.575064 1.274336,1.021226 1.376651,0.991471 0.102314,-0.02976 1.141892,-1.185193 2.310182,-2.567641 z M -15.429279,70.067758 c 0.07687,-0.400183 0.12052,-0.740752 0.09699,-0.75682 -0.02353,-0.01607 -0.87622,-0.101049 -1.894865,-0.188849 l -1.852084,-0.159636 1.5875,0.885671 c 0.873125,0.487117 1.662917,0.89952 1.755093,0.916454 0.09218,0.01693 0.230491,-0.296638 0.307366,-0.69682 z m 4.949,-0.06615 1.4552078,-0.768784 -1.6536458,-0.01248 -1.653646,-0.01248 v 0.79375 c 0,0.436562 0.0893,0.788133 0.198438,0.781267 0.10914,-0.0069 0.853281,-0.358436 1.653646,-0.781267 z m 32.808335,20.876168 c -5.66846,-1.107014 -10.20906,-6.92221 -11.12706,-14.250546 -0.8651,-6.905996 2.38086,-14.559485 7.42979,-17.518357 3.1082,-1.821525 7.23253,-2.054828 10.31185,-0.583313 3.02536,1.445728 5.19701,3.627119 6.81528,6.84584 3.02815,6.022967 2.62125,14.014714 -0.99566,19.555256 -3.03445,4.648314 -7.69168,6.877304 -12.4342,5.95112 z m 7.80521,-33.068908 c -2.19126,-1.246157 -4.23983,-1.565594 -10.04026,-1.565594 h -5.17329 v -3.38956 -3.389564 l 1.28208,-0.328586 c 2.39121,-0.612848 4.00959,-2.187907 4.00959,-3.902255 0,-0.910463 -1.1028,-2.808467 -2.02002,-3.476617 l -0.70331,-0.512329 1.26866,-0.319454 c 5.45166,-1.372744 14.49716,-0.519428 16.58075,1.564161 l 0.74892,0.74892 v 6.443773 c 0,7.376547 0.0266,7.278038 -2.1851,8.097128 -2.23014,0.825925 -2.36652,0.82701 -3.76802,0.02998 z"
           id="path178" />
      </g>
    </clipPath>
  </defs>
  <sodipodi:namedview
     id="base"
     pagecolor="#ffffff"
     bordercolor="#666666"
     borderopacity="1.0"
     inkscape:pageopacity="0.0"
     inkscape:pageshadow="2"
     inkscape:zoom="1.4"
     inkscape:cx="255.76325"
     inkscape:cy="180.67385"
     inkscape:document-units="mm"
     inkscape:current-layer="text70"
     inkscape:document-rotation="0"
     showgrid="false"
     inkscape:window-width="1528"
     inkscape:window-height="836"
     inkscape:window-x="72"
     inkscape:window-y="27"
     inkscape:window-maximized="1" />
  <metadata
     id="metadata5">
    <rdf:RDF>
      <cc:Work
         rdf:about="">
        <dc:format>image/svg+xml</dc:format>
        <dc:type
           rdf:resource="http://purl.org/dc/dcmitype/StillImage" />
        <dc:title></dc:title>
      </cc:Work>
    </rdf:RDF>
  </metadata>
  <g
     inkscape:label="Layer 1"
     inkscape:groupmode="layer"
     id="layer1">
    <text
       xml:space="preserve"
       id="text10"
       style="fill:black;fill-opacity:1;stroke:none;font-family:sans-serif;font-style:normal;font-weight:normal;font-size:10.58333333px;line-height:1.25;letter-spacing:0px;word-spacing:0px;white-space:pre;shape-inside:url(#rect12);" />
    <g
       aria-label="WILL"
       transform="matrix(1.6007434,0,0,1.1988597,-6.5835032,-10.950605)"
       id="text16"
       style="font-style:normal;font-weight:normal;font-size:25.4px;line-height:1.25;font-family:sans-serif;letter-spacing:0px;word-spacing:0px;white-space:pre;shape-inside:url(#rect18);fill:#000000;fill-opacity:1;stroke:none" />
    <g
       aria-label="ANNABELLE"
       transform="matrix(1.092114,0,0,1.7014709,0.6199296,-8.4592356)"
       id="text70"
       style="font-style:normal;font-weight:normal;font-size:16.9333px;line-height:1.25;font-family:sans-serif;letter-spacing:0px;word-spacing:0px;white-space:pre;shape-inside:url(#rect72);fill:#000000;fill-opacity:1;stroke:none">
      <path
         d="m 12.652003,6.8764607 v 0 q 0.214974,0 0.37207,0.1653642 0.165364,0.1570961 0.165364,0.3720696 0,5.3164605 0,10.6246535 0,0.264583 -0.165364,0.396874 -0.165364,0.124024 -0.380338,0.124024 -0.206705,0 -0.37207,-0.124024 -0.165364,-0.132291 -0.165364,-0.396874 0,-2.827729 0,-5.663726 -2.5962187,0 -5.2007058,0 0,2.835997 0,5.663726 0,0.264583 -0.1653642,0.396874 -0.1653643,0.124024 -0.3803378,0.124024 -0.2067054,0 -0.3720696,-0.124024 -0.1570961,-0.132291 -0.1570961,-0.396874 0,-0.884699 0,-1.769397 0,-0.884699 0,-1.769398 0,-0.884699 0,-1.769398 0,-0.884698 0,-1.769397 0,-0.892967 0,-1.7776659 0,-0.8846988 0,-1.7693976 0,-0.2149735 0.1570961,-0.3720696 0.157096,-0.1653642 0.3803378,-0.1653642 3.1419209,0 6.2838416,0 z M 6.9055952,11.299955 v 0 q 2.6044871,0 5.2007058,0 0,-1.6701794 0,-3.3486266 -2.5962187,0 -5.2007058,0 0,1.6784472 0,3.3486266 z"
         style="font-style:normal;font-variant:normal;font-weight:normal;font-stretch:normal;font-size:16.9333px;font-family:'Korean Looks';-inkscape-font-specification:'Korean Looks'"
         id="path76" />
      <path
         d="m 22.119107,7.4138945 v 0 q 0,-0.2563146 0.165364,-0.388606 0.165364,-0.1322914 0.37207,-0.1322914 0.214973,0 0.372069,0.1322914 0.165365,0.1322914 0.165365,0.388606 0,5.3164605 0,10.6246535 0,0.223242 -0.157096,0.380338 -0.157097,0.157096 -0.380338,0.157096 -1.819007,0 -3.638014,0 -0.214973,0 -0.380338,-0.157096 -0.157096,-0.165364 -0.157096,-0.380338 0,-5.04361 0,-10.0872196 -1.281573,0 -2.563146,0 0,5.0436096 0,10.0872196 0,0.264583 -0.165364,0.396874 -0.165364,0.124024 -0.380338,0.124024 -0.206705,0 -0.372069,-0.124024 -0.157096,-0.132291 -0.157096,-0.396874 0,-5.308193 0,-10.6246535 0,-0.2149735 0.157096,-0.3720696 0.157096,-0.1653642 0.380337,-0.1653642 1.819007,0 3.638014,0 0.214974,0 0.37207,0.1653642 0.165364,0.1570961 0.165364,0.3720696 0,5.0436095 0,10.0872195 1.281573,0 2.563146,0 0,-5.04361 0,-10.0872195 z"
         style="font-style:normal;font-variant:normal;font-weight:normal;font-stretch:normal;font-size:16.9333px;font-family:'Korean Looks';-inkscape-font-specification:'Korean Looks'"
         id="path78" />
      <path
         d="m 32.123644,7.4138945 v 0 q 0,-0.2563146 0.165365,-0.388606 0.165364,-0.1322914 0.372069,-0.1322914 0.214974,0 0.37207,0.1322914 0.165364,0.1322914 0.165364,0.388606 0,5.3164605 0,10.6246535 0,0.223242 -0.157096,0.380338 -0.157096,0.157096 -0.380338,0.157096 -1.819007,0 -3.638013,0 -0.214974,0 -0.380338,-0.157096 -0.157096,-0.165364 -0.157096,-0.380338 0,-5.04361 0,-10.0872196 -1.281573,0 -2.563146,0 0,5.0436096 0,10.0872196 0,0.264583 -0.165364,0.396874 -0.165365,0.124024 -0.380338,0.124024 -0.206706,0 -0.37207,-0.124024 -0.157096,-0.132291 -0.157096,-0.396874 0,-5.308193 0,-10.6246535 0,-0.2149735 0.157096,-0.3720696 0.157096,-0.1653642 0.380338,-0.1653642 1.819007,0 3.638014,0 0.214973,0 0.372069,0.1653642 0.165364,0.1570961 0.165364,0.3720696 0,5.0436095 0,10.0872195 1.281573,0 2.563146,0 0,-5.04361 0,-10.0872195 z"
         style="font-style:normal;font-variant:normal;font-weight:normal;font-stretch:normal;font-size:16.9333px;font-family:'Korean Looks';-inkscape-font-specification:'Korean Looks'"
         id="path80" />
      <path
         d="m 41.67343,6.8764607 v 0 q 0.214974,0 0.37207,0.1653642 0.165364,0.1570961 0.165364,0.3720696 0,5.3164605 0,10.6246535 0,0.264583 -0.165364,0.396874 -0.165364,0.124024 -0.380338,0.124024 -0.206705,0 -0.372069,-0.124024 -0.165365,-0.132291 -0.165365,-0.396874 0,-2.827729 0,-5.663726 -2.596219,0 -5.200706,0 0,2.835997 0,5.663726 0,0.264583 -0.165364,0.396874 -0.165364,0.124024 -0.380338,0.124024 -0.206705,0 -0.372069,-0.124024 -0.157096,-0.132291 -0.157096,-0.396874 0,-0.884699 0,-1.769397 0,-0.884699 0,-1.769398 0,-0.884699 0,-1.769398 0,-0.884698 0,-1.769397 0,-0.892967 0,-1.7776659 0,-0.8846988 0,-1.7693976 0,-0.2149735 0.157096,-0.3720696 0.157096,-0.1653642 0.380338,-0.1653642 3.14192,0 6.283841,0 z m -5.746408,4.4234943 v 0 q 2.604487,0 5.200706,0 0,-1.6701794 0,-3.3486266 -2.596219,0 -5.200706,0 0,1.6784472 0,3.3486266 z"
         style="font-style:normal;font-variant:normal;font-weight:normal;font-stretch:normal;font-size:16.9333px;font-family:'Korean Looks';-inkscape-font-specification:'Korean Looks'"
         id="path82" />
      <path
         d="m 50.685782,12.192922 v 0 q 0.223242,0 0.380338,0.157096 0.157096,0.157096 0.157096,0.380337 0,2.654097 0,5.308193 0,0.223242 -0.165364,0.380338 -0.157096,0.157096 -0.37207,0.157096 -3.141921,0 -6.283841,0 -0.214974,0 -0.380338,-0.157096 -0.157096,-0.157096 -0.157096,-0.380338 0,-0.884699 0,-1.769397 0,-0.884699 0,-1.769398 0,-0.884699 0,-1.769398 0,-0.884698 0,-1.769397 0,-0.892967 0,-1.7776659 0,-0.8846988 0,-1.7693976 0,-0.2149735 0.157096,-0.3720696 0.165364,-0.1653642 0.380338,-0.1653642 2.687169,0 5.374338,0 0.214973,0 0.372069,0.1653642 0.165365,0.1570961 0.165365,0.3720696 0,2.3895136 0,4.7790275 0.190169,0 0.372069,0 z m -5.746408,1.074867 v 0 q 0,2.116663 0,4.233325 1.306378,0 2.604487,0 1.306378,0 2.604487,0 0,-2.116662 0,-4.233325 -1.298109,0 -2.604487,0 -1.298109,0 -2.604487,0 z m 0,-1.074867 v 0 q 2.149736,0 4.299471,0 0,-2.124931 0,-4.2415936 -2.149735,0 -4.299471,0 0,2.1166626 0,4.2415936 z"
         style="font-style:normal;font-variant:normal;font-weight:normal;font-stretch:normal;font-size:16.9333px;font-family:'Korean Looks';-inkscape-font-specification:'Korean Looks'"
         id="path84" />
      <path
         d="m 59.698134,17.501114 v 0 q 0.264583,0 0.388606,0.165365 0.132292,0.165364 0.132292,0.380337 0,0.206706 -0.132292,0.37207 -0.124023,0.157096 -0.388606,0.157096 -3.141921,0 -6.283841,0 -0.214974,0 -0.380338,-0.157096 -0.157096,-0.165364 -0.157096,-0.380338 0,-5.308193 0,-10.6246535 0,-0.2149735 0.157096,-0.3720696 0.165364,-0.1653642 0.380338,-0.1653642 3.14192,0 6.283841,0 0.264583,0 0.388606,0.1653642 0.132292,0.1653643 0.132292,0.3803378 0,0.2067054 -0.132292,0.3720696 -0.124023,0.1570961 -0.388606,0.1570961 -2.86907,0 -5.746408,0 0,1.3146458 0,2.6292916 2.439123,0 4.869978,0 0.256314,0 0.388606,0.165364 0.132291,0.165365 0.132291,0.380338 0,0.206705 -0.132291,0.37207 -0.132292,0.157096 -0.388606,0.157096 -1.215428,0 -2.430855,0 -1.215427,0 -2.439123,0 0,2.926947 0,5.845626 2.877338,0 5.746408,0 z"
         style="font-style:normal;font-variant:normal;font-weight:normal;font-stretch:normal;font-size:16.9333px;font-family:'Korean Looks';-inkscape-font-specification:'Korean Looks'"
         id="path86" />
      <path
         d="m 68.148248,15.310038 v 0 q 0,-0.264583 0.165364,-0.388606 0.165364,-0.132292 0.372069,-0.132292 0.214974,0 0.380338,0.132292 0.165364,0.132291 0.165364,0.388606 0,0.909503 0,1.819007 0,0.454751 0,0.909503 0,0.223242 -0.165364,0.380338 -0.157096,0.157096 -0.372069,0.157096 -3.141921,0 -6.283842,0 -0.223242,0 -0.380338,-0.157096 -0.157096,-0.165364 -0.157096,-0.380338 0,-5.308193 0,-10.6246535 0,-0.2563146 0.157096,-0.388606 0.165364,-0.1322914 0.37207,-0.1322914 0.214973,0 0.380337,0.1322914 0.165365,0.1322914 0.165365,0.388606 0,5.0436095 0,10.0872195 2.604487,0 5.200706,0 0,-0.545702 0,-1.091404 0,-0.55397 0,-1.099672 z"
         style="font-style:normal;font-variant:normal;font-weight:normal;font-stretch:normal;font-size:16.9333px;font-family:'Korean Looks';-inkscape-font-specification:'Korean Looks'"
         id="path88" />
      <path
         d="m 77.1606,15.310038 v 0 q 0,-0.264583 0.165364,-0.388606 0.165364,-0.132292 0.372069,-0.132292 0.214974,0 0.380338,0.132292 0.165364,0.132291 0.165364,0.388606 0,0.909503 0,1.819007 0,0.454751 0,0.909503 0,0.223242 -0.165364,0.380338 -0.157096,0.157096 -0.372069,0.157096 -3.141921,0 -6.283842,0 -0.223242,0 -0.380338,-0.157096 -0.157096,-0.165364 -0.157096,-0.380338 0,-5.308193 0,-10.6246535 0,-0.2563146 0.157096,-0.388606 0.165364,-0.1322914 0.37207,-0.1322914 0.214973,0 0.380337,0.1322914 0.165365,0.1322914 0.165365,0.388606 0,5.0436095 0,10.0872195 2.604487,0 5.200706,0 0,-0.545702 0,-1.091404 0,-0.55397 0,-1.099672 z"
         style="font-style:normal;font-variant:normal;font-weight:normal;font-stretch:normal;font-size:16.9333px;font-family:'Korean Looks';-inkscape-font-specification:'Korean Looks'"
         id="path90" />
      <path
         d="m 86.718654,17.501114 v 0 q 0.264582,0 0.388606,0.165365 0.132291,0.165364 0.132291,0.380337 0,0.206706 -0.132291,0.37207 -0.124024,0.157096 -0.388606,0.157096 -3.141921,0 -6.283842,0 -0.214974,0 -0.380338,-0.157096 -0.157096,-0.165364 -0.157096,-0.380338 0,-5.308193 0,-10.6246535 0,-0.2149735 0.157096,-0.3720696 0.165364,-0.1653642 0.380338,-0.1653642 3.141921,0 6.283842,0 0.264582,0 0.388606,0.1653642 0.132291,0.1653643 0.132291,0.3803378 0,0.2067054 -0.132291,0.3720696 -0.124024,0.1570961 -0.388606,0.1570961 -2.86907,0 -5.746408,0 0,1.3146458 0,2.6292916 2.439122,0 4.869977,0 0.256315,0 0.388606,0.165364 0.132291,0.165365 0.132291,0.380338 0,0.206705 -0.132291,0.37207 -0.132291,0.157096 -0.388606,0.157096 -1.215427,0 -2.430855,0 -1.215427,0 -2.439122,0 0,2.926947 0,5.845626 2.877338,0 5.746408,0 z"
         style="font-style:normal;font-variant:normal;font-weight:normal;font-stretch:normal;font-size:16.9333px;font-family:'Korean Looks';-inkscape-font-specification:'Korean Looks'"
         id="path92" />
      <path
         style="fill:#030303;stroke:none;stroke-width:0.118212"
         d="M 4.4333486,19.438476 V 53.443429 H 85.994409 4.4333486 v 0 M 47.746289,33.760562 54.033652,32.880434 c 0.0089,-1.426768 4.42281,-1.351717 6.811309,-1.222978 0.740686,0.03984 1.768495,-0.06593 2.392172,0.162184 1.489921,0.545199 0.321705,2.341381 -0.296385,2.981073 l 0.873247,-0.08001 c -0.143911,0.874367 -2.137355,1.018308 -3.66763,1.200175 0.963364,1.85371 -1.917819,3.461544 -5.414117,4.171648 -1.262363,0.256437 -4.479222,0.35045 -4.715522,1.02911 4.129225,0.149301 7.147334,1.116242 7.335257,3.120454 h 0.174649 c 0.506132,-2.313377 6.626527,-4.013785 10.092967,-1.760177 0.492686,0.320287 0.857703,0.663217 1.084559,1.040072 h 0.174659 c -0.432264,-1.067436 1.326984,-1.293308 3.143674,-1.699847 0.644809,-0.144262 1.523817,-0.400059 2.269743,-0.300605 1.105696,0.147302 1.597514,0.825001 2.271128,1.200336 0.35472,-0.47735 0.887052,-1.258504 1.928648,-1.50558 1.236695,-0.293323 5.522409,0.368134 5.72937,1.025589 0.25324,0.804037 -1.105178,1.716491 -1.851453,2.40027 -0.315423,0.288922 -0.9962,0.702022 -0.795183,1.040151 0.655106,1.102562 4.531623,1.943404 4.198741,3.200466 -0.184957,0.698983 -3.341038,2.389628 -5.018545,2.100866 -1.583021,-0.272519 -2.775873,-1.417885 -3.318333,-2.100866 H 77.26196 c -0.398718,0.667858 -1.184121,2.021255 -2.463415,2.432115 -1.124218,0.361012 -5.143248,-0.07769 -5.639767,-0.673378 -1.175742,-1.410846 3.170406,-2.986035 3.495077,-4.296306 0.06929,-0.280121 -0.574944,-0.599607 -0.880057,-0.82292 -0.890368,-0.651215 -2.124433,-1.280026 -2.720334,-2.000291 h -0.174647 c 0.376195,0.75171 1.458487,2.004612 0.22652,2.702153 -1.018386,0.576564 -5.31283,0.54784 -6.863184,0.578325 0.880574,0.422701 2.736224,0.04232 3.213018,0.568803 0.394534,0.435743 -0.126413,1.070635 -0.287123,1.511499 -0.213425,0.585686 -0.291487,1.443971 -1.27669,1.885555 -1.365226,0.61201 -3.902177,-0.08017 -4.967536,-0.525356 0,0.506634 0.280836,1.233139 -0.498448,1.64872 -0.769327,0.410139 -5.019235,0.605368 -5.709274,0.09329 -1.486262,-1.10304 1.038987,-2.795206 -1.127533,-3.822316 0.288869,0.555761 0.641136,1.894916 -0.149849,2.378026 -0.752388,0.459587 -4.854892,0.61873 -5.634699,0.164104 -0.595902,-0.34749 -0.502814,-0.848124 -0.502814,-1.261944 v -2.720396 c -1.346021,0.61497 -2.634581,1.209296 -4.540874,0.720105 0.432606,0.804357 1.225337,2.380027 0.04751,3.109813 -0.785048,0.48639 -4.6516,0.730266 -5.546677,0.238835 -0.956202,-0.525037 -0.788189,-1.51038 -0.788189,-2.148474 h -0.523951 c -0.01088,0.599368 0.01192,1.733933 -0.825741,2.222084 -0.869403,0.506794 -4.805292,0.13962 -5.431059,-0.385336 -1.168925,-0.980703 0.04314,-3.020679 0.842682,-3.997062 l -6.287363,0.320047 c 0.890361,0.427342 2.52752,0.04089 3.138792,0.498312 0.380734,0.285002 0.100417,0.718025 -0.0091,1.021909 -0.265117,0.734907 -0.299872,2.522768 -2.431812,2.631663 -6.177037,0.315647 -6.933877,-3.936573 -5.937366,-5.832129 h -2.270436 c 0,1.640479 1.284909,4.085715 -0.446735,5.599296 -0.773573,0.676098 -5.2361676,0.856685 -6.1586642,0.144421 C 7.6410887,50.486758 7.9262905,49.789377 7.9263436,49.362835 7.9265352,48.002236 8.2756415,46.645159 8.2756415,45.28224 7.5332959,45.345371 6.5360332,45.457306 5.879204,45.222872 5.2696617,45.00524 5.3414618,44.636546 5.2911117,44.3221 5.1690639,43.559989 4.7258942,42.446227 5.8031984,41.77357 c 0.789718,-0.493032 3.0560319,-0.302605 4.2189326,-0.339091 1.94655,-0.06105 6.601155,-0.470788 7.803683,0.495673 0.477052,0.383415 0.230169,1.004546 0.230169,1.431809 h 0.174649 c 0.225612,-0.351412 0.623427,-0.660977 1.084412,-0.960141 3.812221,-2.47396 9.696319,0.01473 10.093121,2.240327 h 0.174649 l 1.259393,-2.320338 -0.735446,-1.44021 -3.318331,1.040152 c -0.308953,-0.642734 1.327682,-1.059275 2.445086,-1.280187 -0.999167,-0.20291 -3.04972,-0.269079 -3.726659,-0.679938 -0.809498,-0.491352 2.800845,-1.211457 3.55201,-1.320353 v -0.240035 c -0.665063,-0.128179 -2.758231,-0.583845 -2.758231,-0.967581 0,-0.447505 1.833814,-0.994225 2.583582,-1.192733 v -0.08001 c -0.745227,-0.181786 -3.319901,-0.706422 -2.938294,-1.201374 0.335849,-0.435584 2.055269,-0.718025 2.055269,-1.197775 1.75e-4,-0.498472 -2.114475,-0.670177 -1.547564,-1.281386 0.494605,-0.533438 2.248256,-0.800517 2.569086,-1.360198 0.276643,-0.482471 -1.677679,-0.81932 -2.044616,-1.202976 -0.503513,-0.526797 2.471982,-1.133285 3.303311,-1.277386 -0.316115,-0.457347 -1.376932,-0.888369 -1.472815,-1.359894 -0.117191,-0.577068 2.758754,-1.137758 3.743252,-1.280491 -0.342138,-0.37455 -1.255028,-0.85554 -1.114436,-1.278954 0.197703,-0.595582 3.194679,-0.921518 4.258116,-1.121395 -0.354886,-0.365118 -1.055404,-0.950091 -0.736669,-1.356677 0.52447,-0.669395 3.207428,-0.483591 4.404297,-0.483591 -0.03423,-0.364814 -0.797273,-1.336203 -0.06933,-1.59795 1.394048,-0.501235 3.917376,0.593612 5.308804,0.555822 1.605199,-0.04359 3.217208,-0.547835 4.890171,-0.624472 5.261824,-0.241034 10.588091,1.215566 11.786358,3.666891 1.401733,2.86745 -4.23611,5.170513 -8.991975,6.526951 -1.124914,0.320766 -2.301698,0.627371 -3.492979,0.89341 -0.527789,0.117857 -1.418499,0.20595 -1.734788,0.452306 -0.561497,0.437343 0.401518,1.663523 0.686895,2.12879 m -7.335257,-13.201923 0.523947,1.120163 2.095787,-0.48007 c -0.521326,-0.45933 -1.610961,-0.509914 -2.619734,-0.640093 m -9.081748,21.203086 c 0.6214,-0.171225 1.20892,-0.355491 1.921139,-0.438863 4.60497,-0.539279 4.442894,1.353557 5.763415,2.759202 1.879747,-0.561843 4.277677,-0.561843 6.287363,-0.08001 0,-1.200815 -0.292013,-2.454117 2.969032,-2.720396 l -1.397208,-4.160607 c -3.824287,-0.0048 -7.048831,-0.756591 -8.677957,-2.40035 -0.91516,-0.923494 -1.292053,-2.81257 1.866648,-3.000517 2.543413,-0.151302 3.241136,1.946444 5.763416,2.120389 -0.09868,-0.572564 -1.417101,-2.158715 -0.465789,-2.589417 0.805132,-0.364454 2.26118,-0.555521 3.260172,-0.791715 1.988204,-0.470149 4.073687,-0.986224 5.763416,-1.663923 0.884073,-0.354532 2.387101,-0.74971 2.095787,-1.355878 h -0.349298 c -0.818928,1.099521 -2.338549,1.227539 -3.667628,0.240035 -0.637643,0.390458 -1.611486,1.773138 -2.954012,0.795716 -0.307732,-0.223873 -0.405535,-0.491431 -0.713616,-0.715704 -0.270357,0.183547 -0.520104,0.381816 -0.831678,0.551521 -2.23446,1.216737 -2.944582,-1.087151 -3.589386,-1.569757 -0.272627,-0.203966 -0.825041,-0.320535 -1.167702,-0.501985 4.895758,-0.28345 10.731828,1.082821 15.536071,0.01574 1.285766,-0.28561 1.69689,-1.348309 1.502681,-1.936026 -0.479412,-1.451363 -2.39828,-2.841558 -5.511921,-3.353264 -6.425336,-1.055977 -14.720811,1.302493 -17.953215,3.753322 -5.348274,4.055071 -6.394422,9.032516 -6.145722,13.681994 0.06025,1.126883 0.695627,2.233205 0.695977,3.360489 M 47.047693,21.70319 c 3.30401,-0.203037 2.984227,2.481145 0.174476,2.678846 -4.336535,0.305149 -4.307193,-2.424881 -0.174476,-2.678846 m 6.81131,0.160023 c 3.153985,-0.195109 3.329159,2.52532 0.523947,2.757746 -4.295491,0.355908 -4.746435,-2.496556 -0.523947,-2.757746 m -6.809388,0.453339 c -1.451682,0.139652 -1.841848,1.743822 -0.0087,1.573621 1.366977,-0.126931 1.541801,-1.721107 0.0087,-1.573621 m -10.655508,0.162367 0.349298,0.800116 2.095788,-0.960139 -2.445086,0.160023 m 17.466992,-0.0023 c -1.572364,0.150636 -1.642399,1.770153 0.169933,1.648414 1.622838,-0.109007 1.532894,-1.811631 -0.169933,-1.648448 M 33.425076,25.43935 h 0.349297 l 1.047895,-0.960139 c -1.330127,0.141036 -2.178398,0.317662 -1.397192,0.960139 m -1.047894,1.120163 -2.095788,0.640094 1.222543,0.880128 0.873245,-1.520222 m 13.44797,0.240035 1.047892,1.360198 h 0.349298 l 1.047894,-1.120163 -2.445084,-0.240035 m 11.526831,0.400059 0.523947,-0.240035 -0.523947,0.240035 m -3.667629,-0.08001 0.349298,0.96014 c 0.957251,-0.13722 1.239483,-0.620331 1.397192,-1.040152 l -1.74649,0.08001 m -3.667628,0 0.523947,1.200175 h 0.174649 l 0.698596,-1.200175 h -1.397192 m 10.828235,1.120163 c 1.75e-4,0.61625 1.341828,1.864352 -0.523947,2.000292 l 0.174649,-2.000292 h 0.349298 m -2.445085,0.08001 c 0.429811,0.441665 -0.253765,0.68242 -0.293061,1.120164 -0.05257,0.586485 1.574635,0.918054 1.457445,1.515501 -0.05222,0.265318 -0.582104,0.371334 -1.027983,0.196108 -1.965325,-0.772273 -1.76413,-2.005972 -0.136401,-2.831772 m -30.03962,1.440209 1.746489,0.720106 0.523947,-1.280187 -2.270436,0.560081 m 1.222542,3.520513 0.349298,-1.440209 c -2.075877,0.266918 -2.417666,1.075676 -0.349298,1.440209 m 10.13226,-0.96246 c -2.138751,0.20755 0.01049,2.12535 0.603062,2.562693 1.783341,1.316192 5.83572,1.867473 9.00001,1.460533 1.297293,-0.166904 2.636676,-0.522316 3.363389,-1.060475 0.575818,-0.426462 0.205214,-1.044631 -0.919002,-1.17473 -2.630039,-0.304365 -4.883185,0.812918 -7.683855,0.257156 -1.451508,-0.288121 -2.117619,-0.890609 -2.869133,-1.482695 -0.304763,-0.240035 -0.752737,-0.634493 -1.494471,-0.562482 m 18.859467,-0.04376 c -0.575818,0.03465 -1.874333,-0.05193 -2.265547,0.174345 -0.372351,0.215392 -0.16836,0.666818 -0.07195,0.911893 0.342313,0.869727 1.51508,1.793302 3.734693,1.664803 1.699859,-0.09842 3.270482,-2.070221 1.990474,-2.656707 -0.622622,-0.285161 -2.590392,-0.14226 -3.387665,-0.09433 m -4.016925,1.806344 -0.349298,-0.640094 c -1.065184,0.162104 -0.538094,0.575284 0.349298,0.640094 m -27.070589,0.960139 v 0.08001 l 1.921139,0.560082 v -1.360198 l -1.921139,0.720104 m 26.546642,-0.560083 c -0.06445,1.385642 -2.680688,2.371385 -5.588768,2.480361 0.03004,0.319967 0.01956,0.901571 0.513119,1.151928 0.573547,0.290763 1.998159,0.02056 2.630563,-0.101855 2.187303,-0.423262 4.001033,-1.342196 5.239469,-2.250248 l -2.445085,-0.720105 2.270436,0.160024 c -0.703486,-0.457186 -1.380775,-0.713384 -2.619734,-0.720105 m -4.715523,4.480653 c 0.01205,0.267719 -0.03913,0.773953 0.47819,0.957579 0.595378,0.211311 1.887955,-0.06177 2.490843,-0.161783 2.37575,-0.394138 4.639375,-0.845804 5.881653,-1.915959 0.26599,-0.229154 1.491327,-1.629358 0.205212,-1.629358 -1.276159,0 -2.406836,1.089199 -3.168307,1.462134 -1.567648,0.767871 -3.651908,1.155127 -5.887591,1.287387 m -20.259278,-2.160315 -1.222543,0.640093 1.397192,0.400059 -0.174649,-1.040152 m -2.095788,2.880419 2.619735,0.400059 -0.174649,-0.96014 -2.445086,0.560081 m 51.87074,2.240327 -2.270442,2.320338 -2.445075,-2.000291 -3.842285,0.720104 4.011518,3.200466 -0.941879,1.200176 -2.894993,2.960431 3.667639,0.400058 2.794381,-3.200467 h 0.349293 l 3.842285,2.720397 c 0.558871,-0.119378 0.955672,-0.281481 1.397184,-0.48047 0.511026,-0.230274 1.492551,-0.545839 1.666498,-0.879729 0.154389,-0.296043 -0.634318,-0.656575 -0.972264,-0.880128 -0.920404,-0.609048 -3.15818,-1.574309 -3.342088,-2.320338 -0.08639,-0.35053 0.538096,-0.738987 0.856304,-1.040151 0.75064,-0.710904 1.664762,-1.483176 2.140856,-2.240327 l -4.016932,-0.480069 m -47.853813,0.08001 0.174649,0.08001 -0.174649,-0.08001 m 15.718406,0.320047 v 7.841142 l 3.667627,-0.08001 c 0,-0.664097 0.08837,-1.341156 -0.100599,-2.000292 -0.0744,-0.259878 -0.256385,-0.704343 0.205912,-0.911572 0.9328,-0.418061 2.282487,0.328848 2.607334,0.671537 0.960569,1.013267 1.162288,2.529328 0.605682,3.600525 l 3.842278,-0.08001 c -0.0096,-1.585352 -0.212374,-3.875525 -3.318331,-4.880712 2.172458,-1.091119 2.733256,-3.464265 -0.698596,-4.214374 -2.220312,-0.48527 -4.551176,-0.183067 -6.811308,0.05377 m -14.495864,8.001166 0.523947,-2.40035 2.969031,-0.08001 0.523947,2.40035 3.49298,-0.160023 -1.327332,-3.280478 -2.165648,-4.720688 c -0.90241,0.07673 -3.046925,-0.09417 -3.678456,0.219392 -0.642184,0.318927 -0.63415,1.127365 -0.841633,1.540865 -0.720252,1.435489 -1.326284,2.882019 -2.015973,4.320629 -0.209927,0.437824 -1.099241,1.381721 -0.686894,1.805543 0.328515,0.337649 2.50237,0.340929 3.206031,0.354772 m -9.081746,-0.160024 1.047894,-2.320338 c -0.748197,0.04328 -1.57481,0.153463 -2.252098,-0.05937 -0.790497,-0.248516 -1.686114,-1.29827 -0.661413,-1.618957 1.541469,-0.48247 5.083699,-0.324366 6.930437,-0.48199 -0.02742,-0.606968 -0.241016,-1.262263 -0.65476,-1.840267 -0.992703,-1.386522 -5.188121,-2.418833 -7.635948,-1.036951 -2.469728,1.394282 -2.253723,3.900087 -1.188976,5.517603 0.66419,1.009027 1.974076,1.837068 4.414864,1.840268 m 39.994609,0 1.047892,-2.320338 c -0.748193,0.04328 -1.574806,0.153463 -2.252096,-0.05937 -0.79046,-0.248516 -1.68606,-1.29827 -0.661394,-1.618957 1.125263,-0.352211 3.670593,-0.264597 5.009285,-0.344529 0.481327,-0.02872 1.411341,-0.0055 1.740894,-0.196829 0.436798,-0.253477 -0.04222,-0.933256 -0.16975,-1.220818 -0.647256,-1.460773 -2.695893,-2.463959 -6.112021,-2.122309 -1.907166,0.190748 -2.717712,1.104721 -3.188216,1.882274 -1.067629,1.764897 -1.045973,5.993433 4.585406,6.000874 M 6.7037904,44.562134 9.8474719,44.402111 9.323525,50.402985 l 3.842276,-0.08001 0.174649,-4.400642 0.280033,-1.538383 2.863649,0.01817 0.174649,-2.080303 -7.335256,-0.08001 -2.4402312,0.128259 -0.1795034,2.192079 m 11.1775336,-1.200175 0.174649,0.08001 -0.174649,-0.08001 m 32.190946,0.04825 c 2.998897,-0.677379 4.600253,1.621435 1.858613,2.173836 -2.341867,0.471749 -2.028896,-0.563042 -2.095613,-1.261944 -0.0248,-0.258437 -0.428238,-0.76155 0.237,-0.911892 m -25.03034,1.231939 -3.842276,0.240035 c 0.125558,-1.319312 3.507474,-1.727852 3.842276,-0.240035 m 39.994607,0 -3.842273,0.160023 c 0.245382,-1.287468 3.52075,-1.589192 3.842273,-0.160023 M 51.239269,44.162077 v 0.720105 l 0.698595,-0.720105 h -0.698595 m -8.557799,0.720105 c -1.967071,-1.006546 -3.48512,0.02688 -2.526646,1.040151 0.32083,0.33917 1.11199,0.883889 2.002699,0.916774 1.561361,0.05745 2.946677,-1.018228 2.756485,-1.636878 -0.1867,-0.607769 -1.512461,-0.974063 -2.232538,-0.320047 m -8.557798,-0.320047 1.222541,2.080303 h -2.270435 l 1.047894,-2.080303 m 22.355066,1.520222 v 0.48007 h 0.174649 z"
         id="path193"
         sodipodi:nodetypes="ccccccccccccccccsccccccccccccccccccccccccccccccscccccccccccccccccsccsccsccccccccccccsccscccccccccccccscccscccccccccccccccccccccccccccccccccccscccccccccscccccccccccccccccccccccccccccccccccccccccccsccsccccccscccccccccccccccccccccssccccccccccccccccccccccccscccccccccccccccccccccccccccsccccccccsccccccccscccccccccccccccccccccccccccccccsccccccccccc" />
    </g>
  </g>
</svg>
