  0
SECTION
  2
HEADER
  9
$ACADVER
  1
AC1014
  9
$HANDSEED
  5
FFFF
  9
$MEASUREMENT
 70
     1
  0
ENDSEC
  0
SECTION
  2
TABLES
  0
TABLE
  2
VPORT
  5
8
330
0
100
AcDbSymbolTable
 70
     4
  0
VPORT
  5
2E
330
8
100
AcDbSymbolTableRecord
100
AcDbViewportTableRecord
  2
*ACTIVE
 70
     0
 10
0.0
 20
0.0
 11
1.0
 21
1.0
 12
210.0
 22
148.5
 13
0.0
 23
0.0
 14
10.0
 24
10.0
 15
10.0
 25
10.0
 16
0.0
 26
0.0
 36
1.0
 17
0.0
 27
0.0
 37
0.0
 40
341.0
 41
1.24
 42
50.0
 43
0.0
 44
0.0
 50
0.0
 51
0.0
 71
     0
 72
   100
 73
     1
 74
     3
 75
     0
 76
     0
 77
     0
 78
     0
  0
ENDTAB
  0
TABLE
  2
LTYPE
  5
5
330
0
100
AcDbSymbolTable
 70
     1
  0
LTYPE
  5
14
330
5
100
AcDbSymbolTableRecord
100
AcDbLinetypeTableRecord
  2
BYBLOCK
 70
     0
  3

 72
    65
 73
     0
 40
0.0
  0
LTYPE
  5
15
330
5
100
AcDbSymbolTableRecord
100
AcDbLinetypeTableRecord
  2
BYLAYER
 70
     0
  3

 72
    65
 73
     0
 40
0.0
  0
LTYPE
  5
16
330
5
100
AcDbSymbolTableRecord
100
AcDbLinetypeTableRecord
  2
CONTINUOUS
 70
     0
  3
Solid line
 72
    65
 73
     0
 40
0.0
  0
ENDTAB
  0
TABLE
  2
LAYER
  5
2
100
AcDbSymbolTable
 70
2
  0
LAYER
  5
50
100
AcDbSymbolTableRecord
100
AcDbLayerTableRecord
  2
0
 70
0
  6
CONTINUOUS
  0
LAYER
  5
51
100
AcDbSymbolTableRecord
100
AcDbLayerTableRecord
  2
Layer_1
 70
0
  6
CONTINUOUS
  0
ENDTAB
  0
TABLE
  2
STYLE
  5
3
330
0
100
AcDbSymbolTable
 70
     1
  0
STYLE
  5
11
330
3
100
AcDbSymbolTableRecord
100
AcDbTextStyleTableRecord
  2
STANDARD
 70
     0
 40
0.0
 41
1.0
 50
0.0
 71
     0
 42
2.5
  3
txt
  4

  0
ENDTAB
  0
TABLE
  2
VIEW
  5
6
330
0
100
AcDbSymbolTable
 70
     0
  0
ENDTAB
  0
TABLE
  2
UCS
  5
7
330
0
100
AcDbSymbolTable
 70
     0
  0
ENDTAB
  0
TABLE
  2
APPID
  5
9
330
0
100
AcDbSymbolTable
 70
     2
  0
APPID
  5
12
330
9
100
AcDbSymbolTableRecord
100
AcDbRegAppTableRecord
  2
ACAD
 70
     0
  0
ENDTAB
  0
TABLE
  2
DIMSTYLE
  5
A
330
0
100
AcDbSymbolTable
 70
     1
  0
DIMSTYLE
105
27
330
A
100
AcDbSymbolTableRecord
100
AcDbDimStyleTableRecord
  2
ISO-25
 70
     0
  3

  4

  5

  6

  7

 40
1.0
 41
2.5
 42
0.625
 43
3.75
 44
1.25
 45
0.0
 46
0.0
 47
0.0
 48
0.0
140
2.5
141
2.5
142
0.0
143
0.03937007874016
144
1.0
145
0.0
146
1.0
147
0.625
 71
     0
 72
     0
 73
     0
 74
     0
 75
     0
 76
     0
 77
     1
 78
     8
170
     0
171
     3
172
     1
173
     0
174
     0
175
     0
176
     0
177
     0
178
     0
270
     2
271
     2
272
     2
273
     2
274
     3
340
11
275
     0
280
     0
281
     0
282
     0
283
     0
284
     8
285
     0
286
     0
287
     3
288
     0
  0
ENDTAB
  0
TABLE
  2
BLOCK_RECORD
  5
1
330
0
100
AcDbSymbolTable
 70
     1
  0
BLOCK_RECORD
  5
1F
330
1
100
AcDbSymbolTableRecord
100
AcDbBlockTableRecord
  2
*MODEL_SPACE
  0
BLOCK_RECORD
  5
1B
330
1
100
AcDbSymbolTableRecord
100
AcDbBlockTableRecord
  2
*PAPER_SPACE
  0
ENDTAB
  0
ENDSEC
  0
SECTION
  2
BLOCKS
  0
BLOCK
  5
20
330
1F
100
AcDbEntity
  8
0
100
AcDbBlockBegin
  2
*MODEL_SPACE
 70
     0
 10
0.0
 20
0.0
 30
0.0
  3
*MODEL_SPACE
  1

  0
ENDBLK
  5
21
330
1F
100
AcDbEntity
  8
0
100
AcDbBlockEnd
  0
BLOCK
  5
1C
330
1B
100
AcDbEntity
 67
     1
  8
0
100
AcDbBlockBegin
  2
*PAPER_SPACE
  1

  0
ENDBLK
  5
1D
330
1B
100
AcDbEntity
 67
     1
  8
0
100
AcDbBlockEnd
  0
ENDSEC
  0
SECTION
  2
ENTITIES
  0
LWPOLYLINE
  5
100
100
AcDbEntity
  8
Layer_1
 62
7
100
AcDbPolyline
 90
6
 70
1
 10
13.603849
 20
206.035458
 30
0.0
 10
12.482932
 20
188.719149
 30
0.0
 10
24.349239
 20
190.149289
 30
0.0
 10
25.431507
 20
181.220568
 30
0.0
 10
3.940740
 20
178.669504
 30
0.0
 10
2.858466
 20
207.272336
 30
0.0
  0
LWPOLYLINE
  5
101
100
AcDbEntity
  8
Layer_1
 62
7
100
AcDbPolyline
 90
14
 70
1
 10
29.489953
 20
207.117727
 30
0.0
 10
48.429666
 20
207.117727
 30
0.0
 10
46.844915
 20
199.116664
 30
0.0
 10
37.529667
 20
197.686523
 30
0.0
 10
37.413710
 20
195.715246
 30
0.0
 10
45.646688
 20
195.096807
 30
0.0
 10
45.260163
 20
188.951062
 30
0.0
 10
37.916192
 20
188.293971
 30
0.0
 10
38.573285
 20
186.206738
 30
0.0
 10
47.502006
 20
186.129431
 30
0.0
 10
50.787466
 20
178.437588
 30
0.0
 10
29.489953
 20
178.437588
 30
0.0
 10
27.402719
 20
196.913472
 30
0.0
 10
29.489953
 20
207.117726
 30
0.0
  0
LWPOLYLINE
  5
102
100
AcDbEntity
  8
Layer_1
 62
7
100
AcDbPolyline
 90
8
 70
1
 10
49.550587
 20
207.001770
 30
0.0
 10
78.114768
 20
206.499287
 30
0.0
 10
78.114768
 20
194.903544
 30
0.0
 10
68.451647
 20
196.488296
 30
0.0
 10
71.118669
 20
178.282980
 30
0.0
 10
57.281082
 20
178.282980
 30
0.0
 10
59.368317
 20
196.488296
 30
0.0
 10
49.550587
 20
196.990778
 30
0.0
  0
LWPOLYLINE
  5
103
100
AcDbEntity
  8
Layer_1
 62
7
100
AcDbPolyline
 90
6
 70
1
 10
81.554777
 20
208.663825
 30
0.0
 10
83.642010
 20
208.315954
 30
0.0
 10
83.642010
 20
204.025528
 30
0.0
 10
81.593430
 20
201.242549
 30
0.0
 10
80.008677
 20
201.860990
 30
0.0
 10
81.593430
 20
205.030493
 30
0.0
  0
LWPOLYLINE
  5
104
100
AcDbEntity
  8
Layer_1
 62
7
100
AcDbPolyline
 90
14
 70
1
 10
112.438035
 20
199.812409
 30
0.0
 10
107.451866
 20
193.666664
 30
0.0
 10
101.615342
 20
197.415955
 30
0.0
 10
100.146547
 20
195.560637
 30
0.0
 10
110.582717
 20
187.907446
 30
0.0
 10
105.519242
 20
178.360284
 30
0.0
 10
93.111796
 20
178.360284
 30
0.0
 10
84.453643
 20
185.240426
 30
0.0
 10
88.202932
 20
191.540779
 30
0.0
 10
95.662860
 20
187.327659
 30
0.0
 10
96.783781
 20
189.067020
 30
0.0
 10
85.845131
 20
195.560637
 30
0.0
 10
96.203994
 20
207.156379
 30
0.0
 10
105.519242
 20
207.156379
 30
0.0
  0
LWPOLYLINE
  5
105
100
AcDbEntity
  8
Layer_1
 62
7
100
AcDbPolyline
 90
4
 70
1
 10
112.824489
 20
191.540779
 30
0.0
 10
112.631227
 20
194.980850
 30
0.0
 10
125.154629
 20
196.526949
 30
0.0
 10
125.773068
 20
192.004609
 30
0.0
  0
LWPOLYLINE
  5
106
100
AcDbEntity
  8
Layer_1
 62
7
100
AcDbPolyline
 90
8
 70
1
 10
146.838598
 20
206.963117
 30
0.0
 10
159.052781
 20
180.331561
 30
0.0
 10
147.379733
 20
178.476241
 30
0.0
 10
146.452074
 20
185.317730
 30
0.0
 10
137.059522
 20
185.549645
 30
0.0
 10
134.933636
 20
178.244326
 30
0.0
 10
123.685766
 20
180.254256
 30
0.0
 10
139.108104
 20
206.190067
 30
0.0
  0
LWPOLYLINE
  5
107
100
AcDbEntity
  8
Layer_1
 62
7
100
AcDbPolyline
 90
4
 70
1
 10
141.079379
 20
196.836168
 30
0.0
 10
139.494628
 20
192.893615
 30
0.0
 10
145.408457
 20
192.739006
 30
0.0
 10
144.055621
 20
196.720211
 30
0.0
  0
LWPOLYLINE
  5
108
100
AcDbEntity
  8
Layer_1
 62
7
100
AcDbPolyline
 90
17
 70
1
 10
200.836040
 20
201.165246
 30
0.0
 10
194.226467
 20
197.454607
 30
0.0
 10
191.559445
 20
198.923401
 30
0.0
 10
187.616894
 20
197.725175
 30
0.0
 10
185.259092
 20
192.120565
 30
0.0
 10
187.732851
 20
186.902482
 30
0.0
 10
194.844905
 20
187.752837
 30
0.0
 10
194.999516
 20
189.028368
 30
0.0
 10
189.510864
 20
188.525886
 30
0.0
 10
190.206608
 20
196.295034
 30
0.0
 10
201.647742
 20
196.140424
 30
0.0
 10
201.647742
 20
180.872695
 30
0.0
 10
182.437461
 20
178.398938
 30
0.0
 10
176.600937
 20
190.265247
 30
0.0
 10
178.726824
 20
201.165246
 30
0.0
 10
186.921148
 20
207.117727
 30
0.0
 10
196.970793
 20
206.421982
 30
0.0
  0
LWPOLYLINE
  5
109
100
AcDbEntity
  8
Layer_1
 62
7
100
AcDbPolyline
 90
7
 70
1
 10
222.558705
 20
206.653897
 30
0.0
 10
230.984949
 20
196.179076
 30
0.0
 10
228.588501
 20
182.380141
 30
0.0
 10
213.320767
 20
178.398938
 30
0.0
 10
201.145237
 20
189.144325
 30
0.0
 10
202.961904
 20
201.242549
 30
0.0
 10
212.045235
 20
207.001770
 30
0.0
  0
LWPOLYLINE
  5
10a
100
AcDbEntity
  8
Layer_1
 62
7
100
AcDbPolyline
 90
5
 70
1
 10
214.325731
 20
196.913473
 30
0.0
 10
212.354455
 20
192.507091
 30
0.0
 10
215.755873
 20
190.226595
 30
0.0
 10
219.350552
 20
191.540779
 30
0.0
 10
219.157291
 20
195.831203
 30
0.0
  0
LWPOLYLINE
  5
10b
100
AcDbEntity
  8
Layer_1
 62
7
100
AcDbPolyline
 90
6
 70
1
 10
234.463629
 20
181.336526
 30
0.0
 10
235.816477
 20
183.887588
 30
0.0
 10
239.333852
 20
184.042199
 30
0.0
 10
240.725343
 20
181.877660
 30
0.0
 10
239.797683
 20
178.476241
 30
0.0
 10
236.666831
 20
178.360284
 30
0.0
  0
LWPOLYLINE
  5
10c
100
AcDbEntity
  8
Layer_1
 62
7
100
AcDbPolyline
 90
4
 70
1
 10
239.952286
 20
186.786525
 30
0.0
 10
235.313983
 20
186.438652
 30
0.0
 10
231.719311
 20
208.006734
 30
0.0
 10
239.333852
 20
209.089003
 30
0.0
  0
LWPOLYLINE
  5
10d
100
AcDbEntity
  8
Layer_1
 62
7
100
AcDbPolyline
 90
6
 70
1
 10
246.445900
 20
181.452483
 30
0.0
 10
249.538098
 20
181.259220
 30
0.0
 10
248.610448
 20
176.814186
 30
0.0
 10
245.286329
 20
173.721987
 30
0.0
 10
243.237741
 20
173.721987
 30
0.0
 10
246.059376
 20
177.741845
 30
0.0
  0
LWPOLYLINE
  5
10e
100
AcDbEntity
  8
Layer_1
 62
7
100
AcDbPolyline
 90
6
 70
1
 10
75.061070
 20
38.813512
 30
0.0
 10
83.178089
 20
32.165280
 30
0.0
 10
84.840146
 20
16.665641
 30
0.0
 10
76.839083
 20
10.133363
 30
0.0
 10
60.836959
 20
10.133363
 30
0.0
 10
60.836959
 20
37.074150
 30
0.0
  0
LWPOLYLINE
  5
10f
100
AcDbEntity
  8
Layer_1
 62
7
100
AcDbPolyline
 90
4
 70
1
 10
69.688376
 20
28.493298
 30
0.0
 10
69.688376
 20
20.067056
 30
0.0
 10
74.906460
 20
21.883713
 30
0.0
 10
74.906460
 20
26.096850
 30
0.0
  0
LWPOLYLINE
  5
110
100
AcDbEntity
  8
Layer_1
 62
7
100
AcDbPolyline
 90
10
 70
1
 10
101.421992
 20
38.620249
 30
0.0
 10
108.572700
 20
33.402168
 30
0.0
 10
109.229794
 20
24.396132
 30
0.0
 10
105.209936
 20
19.912453
 30
0.0
 10
112.360644
 20
13.612095
 30
0.0
 10
103.973056
 20
9.978760
 30
0.0
 10
95.198944
 20
17.477341
 30
0.0
 10
96.513128
 20
10.017413
 30
0.0
 10
87.623059
 20
10.017413
 30
0.0
 10
85.381215
 20
37.383370
 30
0.0
  0
LWPOLYLINE
  5
111
100
AcDbEntity
  8
Layer_1
 62
7
100
AcDbPolyline
 90
4
 70
1
 10
95.198944
 20
30.619182
 30
0.0
 10
94.967029
 20
25.130536
 30
0.0
 10
97.324831
 20
24.821309
 30
0.0
 10
99.682631
 20
28.222724
 30
0.0
  0
LWPOLYLINE
  5
112
100
AcDbEntity
  8
Layer_1
 62
7
100
AcDbPolyline
 90
6
 70
1
 10
115.684682
 20
16.742947
 30
0.0
 10
118.738227
 20
16.742947
 30
0.0
 10
120.554894
 20
13.573442
 30
0.0
 10
119.279362
 20
11.215637
 30
0.0
 10
115.684682
 20
10.403937
 30
0.0
 10
114.022625
 20
13.225572
 30
0.0
  0
LWPOLYLINE
  5
113
100
AcDbEntity
  8
Layer_1
 62
7
100
AcDbPolyline
 90
6
 70
1
 10
153.293395
 20
37.769894
 30
0.0
 10
152.172473
 20
20.453590
 30
0.0
 10
164.038783
 20
21.883713
 30
0.0
 10
165.121052
 20
12.954998
 30
0.0
 10
143.630276
 20
10.403937
 30
0.0
 10
142.548007
 20
39.006774
 30
0.0
  0
LWPOLYLINE
  5
114
100
AcDbEntity
  8
Layer_1
 62
7
100
AcDbPolyline
 90
14
 70
1
 10
169.179505
 20
38.852164
 30
0.0
 10
188.119219
 20
38.852164
 30
0.0
 10
186.534467
 20
30.851103
 30
0.0
 10
177.219220
 20
29.420958
 30
0.0
 10
177.103263
 20
27.449677
 30
0.0
 10
185.336240
 20
26.831233
 30
0.0
 10
184.949715
 20
20.685489
 30
0.0
 10
177.605745
 20
20.028402
 30
0.0
 10
178.262838
 20
17.941171
 30
0.0
 10
187.191559
 20
17.863823
 30
0.0
 10
190.477019
 20
10.171974
 30
0.0
 10
169.179505
 20
10.171974
 30
0.0
 10
167.092272
 20
28.647859
 30
0.0
 10
169.179505
 20
38.852120
 30
0.0
  0
LWPOLYLINE
  5
115
100
AcDbEntity
  8
Layer_1
 62
7
100
AcDbPolyline
 90
10
 70
1
 10
205.280909
 20
38.620249
 30
0.0
 10
212.431617
 20
33.402168
 30
0.0
 10
213.088710
 20
24.396132
 30
0.0
 10
209.068853
 20
19.912453
 30
0.0
 10
216.219559
 20
13.612095
 30
0.0
 10
207.831972
 20
9.978760
 30
0.0
 10
199.057860
 20
17.477341
 30
0.0
 10
200.372044
 20
10.017413
 30
0.0
 10
191.481975
 20
10.017413
 30
0.0
 10
189.240131
 20
37.383370
 30
0.0
  0
LWPOLYLINE
  5
116
100
AcDbEntity
  8
Layer_1
 62
7
100
AcDbPolyline
 90
4
 70
1
 10
199.057860
 20
30.619182
 30
0.0
 10
198.825945
 20
25.130536
 30
0.0
 10
201.183747
 20
24.821309
 30
0.0
 10
203.541548
 20
28.222724
 30
0.0
  0
LWPOLYLINE
  5
117
100
AcDbEntity
  8
Layer_1
 62
7
100
AcDbPolyline
 90
7
 70
1
 10
235.584390
 20
38.388334
 30
0.0
 10
244.010621
 20
27.913507
 30
0.0
 10
241.614173
 20
14.114579
 30
0.0
 10
226.346447
 20
10.133363
 30
0.0
 10
214.170912
 20
20.878756
 30
0.0
 10
215.987578
 20
32.976991
 30
0.0
 10
225.070915
 20
38.736206
 30
0.0
  0
LWPOLYLINE
  5
118
100
AcDbEntity
  8
Layer_1
 62
7
100
AcDbPolyline
 90
5
 70
1
 10
227.351404
 20
28.647901
 30
0.0
 10
225.380131
 20
24.241518
 30
0.0
 10
228.781549
 20
21.961030
 30
0.0
 10
232.376231
 20
23.275215
 30
0.0
 10
232.182964
 20
27.565637
 30
0.0
  0
LWPOLYLINE
  5
119
100
AcDbEntity
  8
Layer_1
 62
7
100
AcDbPolyline
 90
9
 70
1
 10
247.489291
 20
38.388334
 30
0.0
 10
253.866955
 20
31.585500
 30
0.0
 10
259.858085
 20
39.161383
 30
0.0
 10
268.322980
 20
32.783724
 30
0.0
 10
259.085038
 20
24.744002
 30
0.0
 10
265.926532
 20
10.558550
 30
0.0
 10
250.774756
 20
11.254290
 30
0.0
 10
250.774756
 20
23.584431
 30
0.0
 10
241.150291
 20
32.783724
 30
0.0
  0
LWPOLYLINE
  5
11a
100
AcDbEntity
  8
Layer_1
 62
7
100
AcDbPolyline
 90
6
 70
1
 10
271.647026
 20
13.070958
 30
0.0
 10
272.999874
 20
15.622020
 30
0.0
 10
276.517250
 20
15.776633
 30
0.0
 10
277.908730
 20
13.612095
 30
0.0
 10
276.981069
 20
10.210680
 30
0.0
 10
273.850217
 20
10.094720
 30
0.0
  0
SPLINE
  5
11b
100
AcDbEntity
  8
Layer_1
 62
7
100
AcDbSpline
 70
8
 71
3
 72
8
 73
4
 74
0
 40
0
 40
0
 40
0
 40
0
 40
1
 40
1
 40
1
 40
1
 10
202.307171
 20
46.505436
 30
0.0
 10
199.278743
 20
46.890129
 30
0.0
 10
196.591757
 20
48.086622
 30
0.0
 10
194.761353
 20
49.865582
 30
0.0
  0
SPLINE
  5
11c
100
AcDbEntity
  8
Layer_1
 62
7
100
AcDbSpline
 70
8
 71
3
 72
8
 73
4
 74
0
 40
0
 40
0
 40
0
 40
0
 40
1
 40
1
 40
1
 40
1
 10
194.761353
 20
49.865582
 30
0.0
 10
193.374095
 20
51.213842
 30
0.0
 10
192.653430
 20
52.821988
 30
0.0
 10
192.215795
 20
55.545846
 30
0.0
  0
SPLINE
  5
11d
100
AcDbEntity
  8
Layer_1
 62
7
100
AcDbSpline
 70
8
 71
3
 72
8
 73
4
 74
0
 40
0
 40
0
 40
0
 40
0
 40
1
 40
1
 40
1
 40
1
 10
192.215795
 20
55.545846
 30
0.0
 10
191.940125
 20
57.261655
 30
0.0
 10
191.937114
 20
57.268859
 30
0.0
 10
191.190469
 20
57.999899
 30
0.0
  0
SPLINE
  5
11e
100
AcDbEntity
  8
Layer_1
 62
7
100
AcDbSpline
 70
8
 71
3
 72
8
 73
4
 74
0
 40
0
 40
0
 40
0
 40
0
 40
1
 40
1
 40
1
 40
1
 10
191.190469
 20
57.999899
 30
0.0
 10
189.904451
 20
59.259064
 30
0.0
 10
189.326481
 20
60.778406
 30
0.0
 10
188.685926
 20
64.583760
 30
0.0
  0
SPLINE
  5
11f
100
AcDbEntity
  8
Layer_1
 62
7
100
AcDbSpline
 70
8
 71
3
 72
8
 73
4
 74
0
 40
0
 40
0
 40
0
 40
0
 40
1
 40
1
 40
1
 40
1
 10
188.685926
 20
64.583760
 30
0.0
 10
188.504053
 20
65.664290
 30
0.0
 10
188.332018
 20
66.571570
 30
0.0
 10
188.303644
 20
66.599948
 30
0.0
  0
SPLINE
  5
120
100
AcDbEntity
  8
Layer_1
 62
7
100
AcDbSpline
 70
8
 71
3
 72
8
 73
4
 74
0
 40
0
 40
0
 40
0
 40
0
 40
1
 40
1
 40
1
 40
1
 10
188.303644
 20
66.599948
 30
0.0
 10
188.275273
 20
66.628382
 30
0.0
 10
187.518172
 20
66.543069
 30
0.0
 10
186.621215
 20
66.410644
 30
0.0
  0
SPLINE
  5
121
100
AcDbEntity
  8
Layer_1
 62
7
100
AcDbSpline
 70
8
 71
3
 72
8
 73
4
 74
0
 40
0
 40
0
 40
0
 40
0
 40
1
 40
1
 40
1
 40
1
 10
186.621215
 20
66.410644
 30
0.0
 10
178.144578
 20
65.158494
 30
0.0
 10
170.735630
 20
66.116104
 30
0.0
 10
164.210230
 20
69.307282
 30
0.0
  0
SPLINE
  5
122
100
AcDbEntity
  8
Layer_1
 62
7
100
AcDbSpline
 70
8
 71
3
 72
8
 73
4
 74
0
 40
0
 40
0
 40
0
 40
0
 40
1
 40
1
 40
1
 40
1
 10
164.210230
 20
69.307282
 30
0.0
 10
161.981497
 20
70.397230
 30
0.0
 10
160.409297
 20
71.414488
 30
0.0
 10
158.753404
 20
72.838002
 30
0.0
  0
SPLINE
  5
123
100
AcDbEntity
  8
Layer_1
 62
7
100
AcDbSpline
 70
8
 71
3
 72
8
 73
4
 74
0
 40
0
 40
0
 40
0
 40
0
 40
1
 40
1
 40
1
 40
1
 10
158.753404
 20
72.838002
 30
0.0
 10
158.089905
 20
73.408396
 30
0.0
 10
157.483946
 20
73.875077
 30
0.0
 10
157.406812
 20
73.875077
 30
0.0
  0
SPLINE
  5
124
100
AcDbEntity
  8
Layer_1
 62
7
100
AcDbSpline
 70
8
 71
3
 72
8
 73
4
 74
0
 40
0
 40
0
 40
0
 40
0
 40
1
 40
1
 40
1
 40
1
 10
157.406812
 20
73.875077
 30
0.0
 10
157.329714
 20
73.875077
 30
0.0
 10
157.022437
 20
73.621775
 30
0.0
 10
156.724068
 20
73.312207
 30
0.0
  0
SPLINE
  5
125
100
AcDbEntity
  8
Layer_1
 62
7
100
AcDbSpline
 70
8
 71
3
 72
8
 73
4
 74
0
 40
0
 40
0
 40
0
 40
0
 40
1
 40
1
 40
1
 40
1
 10
156.724068
 20
73.312207
 30
0.0
 10
156.045638
 20
72.608317
 30
0.0
 10
154.357790
 20
71.474397
 30
0.0
 10
153.336046
 20
71.036073
 30
0.0
  0
SPLINE
  5
126
100
AcDbEntity
  8
Layer_1
 62
7
100
AcDbSpline
 70
8
 71
3
 72
8
 73
4
 74
0
 40
0
 40
0
 40
0
 40
0
 40
1
 40
1
 40
1
 40
1
 10
153.336046
 20
71.036073
 30
0.0
 10
151.420926
 20
70.214493
 30
0.0
 10
148.972131
 20
69.912937
 30
0.0
 10
146.930794
 20
70.247281
 30
0.0
  0
SPLINE
  5
127
100
AcDbEntity
  8
Layer_1
 62
7
100
AcDbSpline
 70
8
 71
3
 72
8
 73
4
 74
0
 40
0
 40
0
 40
0
 40
0
 40
1
 40
1
 40
1
 40
1
 10
146.930794
 20
70.247281
 30
0.0
 10
146.095144
 20
70.384139
 30
0.0
 10
145.890258
 20
70.350861
 30
0.0
 10
144.333268
 20
69.825321
 30
0.0
  0
SPLINE
  5
128
100
AcDbEntity
  8
Layer_1
 62
7
100
AcDbSpline
 70
8
 71
3
 72
8
 73
4
 74
0
 40
0
 40
0
 40
0
 40
0
 40
1
 40
1
 40
1
 40
1
 10
144.333268
 20
69.825321
 30
0.0
 10
141.384171
 20
68.829873
 30
0.0
 10
139.498682
 20
69.093942
 30
0.0
 10
137.871059
 20
70.730366
 30
0.0
  0
SPLINE
  5
129
100
AcDbEntity
  8
Layer_1
 62
7
100
AcDbSpline
 70
8
 71
3
 72
8
 73
4
 74
0
 40
0
 40
0
 40
0
 40
0
 40
1
 40
1
 40
1
 40
1
 10
137.871059
 20
70.730366
 30
0.0
 10
136.683350
 20
71.924496
 30
0.0
 10
135.480407
 20
74.244443
 30
0.0
 10
134.473129
 20
77.283466
 30
0.0
  0
SPLINE
  5
12a
100
AcDbEntity
  8
Layer_1
 62
7
100
AcDbSpline
 70
8
 71
3
 72
8
 73
4
 74
0
 40
0
 40
0
 40
0
 40
0
 40
1
 40
1
 40
1
 40
1
 10
134.473129
 20
77.283466
 30
0.0
 10
134.116024
 20
78.360892
 30
0.0
 10
133.882914
 20
78.752089
 30
0.0
 10
133.019169
 20
79.723549
 30
0.0
  0
SPLINE
  5
12b
100
AcDbEntity
  8
Layer_1
 62
7
100
AcDbSpline
 70
8
 71
3
 72
8
 73
4
 74
0
 40
0
 40
0
 40
0
 40
0
 40
1
 40
1
 40
1
 40
1
 10
133.019169
 20
79.723549
 30
0.0
 10
130.458750
 20
82.603293
 30
0.0
 10
129.113565
 20
85.196001
 30
0.0
 10
127.909506
 20
89.571889
 30
0.0
  0
SPLINE
  5
12c
100
AcDbEntity
  8
Layer_1
 62
7
100
AcDbSpline
 70
8
 71
3
 72
8
 73
4
 74
0
 40
0
 40
0
 40
0
 40
0
 40
1
 40
1
 40
1
 40
1
 10
127.909506
 20
89.571889
 30
0.0
 10
127.131953
 20
92.397729
 30
0.0
 10
127.109684
 20
93.302805
 30
0.0
 10
127.772950
 20
95.120181
 30
0.0
  0
SPLINE
  5
12d
100
AcDbEntity
  8
Layer_1
 62
7
100
AcDbSpline
 70
8
 71
3
 72
8
 73
4
 74
0
 40
0
 40
0
 40
0
 40
0
 40
1
 40
1
 40
1
 40
1
 10
127.772950
 20
95.120181
 30
0.0
 10
128.362630
 20
96.735937
 30
0.0
 10
128.463358
 20
96.932349
 30
0.0
 10
129.118508
 20
97.743349
 30
0.0
  0
SPLINE
  5
12e
100
AcDbEntity
  8
Layer_1
 62
7
100
AcDbSpline
 70
8
 71
3
 72
8
 73
4
 74
0
 40
0
 40
0
 40
0
 40
0
 40
1
 40
1
 40
1
 40
1
 10
129.118508
 20
97.743349
 30
0.0
 10
129.464124
 20
98.171190
 30
0.0
 10
130.085585
 20
98.621345
 30
0.0
 10
130.947446
 20
99.068131
 30
0.0
  0
SPLINE
  5
12f
100
AcDbEntity
  8
Layer_1
 62
7
100
AcDbSpline
 70
8
 71
3
 72
8
 73
4
 74
0
 40
0
 40
0
 40
0
 40
0
 40
1
 40
1
 40
1
 40
1
 10
130.947446
 20
99.068131
 30
0.0
 10
131.936677
 20
99.580945
 30
0.0
 10
132.634318
 20
100.114582
 30
0.0
 10
133.827516
 20
101.271161
 30
0.0
  0
SPLINE
  5
130
100
AcDbEntity
  8
Layer_1
 62
7
100
AcDbSpline
 70
8
 71
3
 72
8
 73
4
 74
0
 40
0
 40
0
 40
0
 40
0
 40
1
 40
1
 40
1
 40
1
 10
133.827516
 20
101.271161
 30
0.0
 10
135.487757
 20
102.880435
 30
0.0
 10
136.487639
 20
103.503945
 30
0.0
 10
138.514498
 20
104.193888
 30
0.0
  0
SPLINE
  5
131
100
AcDbEntity
  8
Layer_1
 62
7
100
AcDbSpline
 70
8
 71
3
 72
8
 73
4
 74
0
 40
0
 40
0
 40
0
 40
0
 40
1
 40
1
 40
1
 40
1
 10
138.514498
 20
104.193888
 30
0.0
 10
140.876136
 20
104.997783
 30
0.0
 10
144.327326
 20
105.086163
 30
0.0
 10
146.893338
 20
104.408449
 30
0.0
  0
SPLINE
  5
132
100
AcDbEntity
  8
Layer_1
 62
7
100
AcDbSpline
 70
8
 71
3
 72
8
 73
4
 74
0
 40
0
 40
0
 40
0
 40
0
 40
1
 40
1
 40
1
 40
1
 10
146.893338
 20
104.408449
 30
0.0
 10
149.400509
 20
103.746268
 30
0.0
 10
151.136907
 20
102.530095
 30
0.0
 10
153.064120
 20
100.086397
 30
0.0
  0
LWPOLYLINE
  5
133
100
AcDbEntity
  8
Layer_1
 62
7
100
AcDbPolyline
 90
4
 70
1
 10
277.135683
 20
18.520962
 30
0.0
 10
272.497390
 20
18.173092
 30
0.0
 10
268.902708
 20
39.741170
 30
0.0
 10
276.517250
 20
40.823440
 30
0.0
  0
SPLINE
  5
134
100
AcDbEntity
  8
Layer_1
 62
7
100
AcDbSpline
 70
8
 71
3
 72
8
 73
4
 74
0
 40
0
 40
0
 40
0
 40
0
 40
1
 40
1
 40
1
 40
1
 10
154.084016
 20
99.943349
 30
0.0
 10
155.050396
 20
100.842093
 30
0.0
 10
155.601526
 20
101.120841
 30
0.0
 10
156.836762
 20
101.335646
 30
0.0
  0
SPLINE
  5
135
100
AcDbEntity
  8
Layer_1
 62
7
100
AcDbSpline
 70
8
 71
3
 72
8
 73
4
 74
0
 40
0
 40
0
 40
0
 40
0
 40
1
 40
1
 40
1
 40
1
 10
156.836762
 20
101.335646
 30
0.0
 10
158.003969
 20
101.538616
 30
0.0
 10
158.086080
 20
101.581877
 30
0.0
 10
158.888135
 20
102.416506
 30
0.0
  0
SPLINE
  5
136
100
AcDbEntity
  8
Layer_1
 62
7
100
AcDbSpline
 70
8
 71
3
 72
8
 73
4
 74
0
 40
0
 40
0
 40
0
 40
0
 40
1
 40
1
 40
1
 40
1
 10
158.888135
 20
102.416506
 30
0.0
 10
159.347654
 20
102.894690
 30
0.0
 10
159.723610
 20
103.363229
 30
0.0
 10
159.723610
 20
103.457708
 30
0.0
  0
SPLINE
  5
137
100
AcDbEntity
  8
Layer_1
 62
7
100
AcDbSpline
 70
8
 71
3
 72
8
 73
4
 74
0
 40
0
 40
0
 40
0
 40
0
 40
1
 40
1
 40
1
 40
1
 10
159.723610
 20
103.457708
 30
0.0
 10
159.723610
 20
103.552186
 30
0.0
 10
159.079369
 20
104.319959
 30
0.0
 10
158.291966
 20
105.163876
 30
0.0
  0
SPLINE
  5
138
100
AcDbEntity
  8
Layer_1
 62
7
100
AcDbSpline
 70
8
 71
3
 72
8
 73
4
 74
0
 40
0
 40
0
 40
0
 40
0
 40
1
 40
1
 40
1
 40
1
 10
158.291966
 20
105.163876
 30
0.0
 10
154.280087
 20
109.463626
 30
0.0
 10
151.123593
 20
113.706857
 30
0.0
 10
148.718870
 20
118.032889
 30
0.0
  0
SPLINE
  5
139
100
AcDbEntity
  8
Layer_1
 62
7
100
AcDbSpline
 70
8
 71
3
 72
8
 73
4
 74
0
 40
0
 40
0
 40
0
 40
0
 40
1
 40
1
 40
1
 40
1
 10
148.718870
 20
118.032889
 30
0.0
 10
147.821623
 20
119.647005
 30
0.0
 10
147.320367
 20
120.345514
 30
0.0
 10
146.346522
 20
121.338821
 30
0.0
  0
SPLINE
  5
13a
100
AcDbEntity
  8
Layer_1
 62
7
100
AcDbSpline
 70
8
 71
3
 72
8
 73
4
 74
0
 40
0
 40
0
 40
0
 40
0
 40
1
 40
1
 40
1
 40
1
 10
146.346522
 20
121.338821
 30
0.0
 10
145.667417
 20
122.031490
 30
0.0
 10
144.823337
 20
123.015335
 30
0.0
 10
144.470778
 20
123.525142
 30
0.0
  0
SPLINE
  5
13b
100
AcDbEntity
  8
Layer_1
 62
7
100
AcDbSpline
 70
8
 71
3
 72
8
 73
4
 74
0
 40
0
 40
0
 40
0
 40
0
 40
1
 40
1
 40
1
 40
1
 10
144.470778
 20
123.525142
 30
0.0
 10
143.267683
 20
125.264885
 30
0.0
 10
142.572508
 20
127.722894
 30
0.0
 10
142.559205
 20
130.284106
 30
0.0
  0
SPLINE
  5
13c
100
AcDbEntity
  8
Layer_1
 62
7
100
AcDbSpline
 70
8
 71
3
 72
8
 73
4
 74
0
 40
0
 40
0
 40
0
 40
0
 40
1
 40
1
 40
1
 40
1
 10
142.559205
 20
130.284106
 30
0.0
 10
142.555716
 20
131.017756
 30
0.0
 10
142.449081
 20
131.469279
 30
0.0
 10
142.126280
 20
132.122464
 30
0.0
  0
SPLINE
  5
13d
100
AcDbEntity
  8
Layer_1
 62
7
100
AcDbSpline
 70
8
 71
3
 72
8
 73
4
 74
0
 40
0
 40
0
 40
0
 40
0
 40
1
 40
1
 40
1
 40
1
 10
142.126280
 20
132.122464
 30
0.0
 10
141.722496
 20
132.939563
 30
0.0
 10
141.623036
 20
133.024652
 30
0.0
 10
140.359415
 20
133.634021
 30
0.0
  0
SPLINE
  5
13e
100
AcDbEntity
  8
Layer_1
 62
7
100
AcDbSpline
 70
8
 71
3
 72
8
 73
4
 74
0
 40
0
 40
0
 40
0
 40
0
 40
1
 40
1
 40
1
 40
1
 10
140.359415
 20
133.634021
 30
0.0
 10
138.037524
 20
134.753711
 30
0.0
 10
136.899225
 20
136.243532
 30
0.0
 10
136.345768
 20
138.887065
 30
0.0
  0
SPLINE
  5
13f
100
AcDbEntity
  8
Layer_1
 62
7
100
AcDbSpline
 70
8
 71
3
 72
8
 73
4
 74
0
 40
0
 40
0
 40
0
 40
0
 40
1
 40
1
 40
1
 40
1
 10
136.345768
 20
138.887065
 30
0.0
 10
136.210353
 20
139.533863
 30
0.0
 10
135.973755
 20
140.206854
 30
0.0
 10
135.819988
 20
140.382605
 30
0.0
  0
SPLINE
  5
140
100
AcDbEntity
  8
Layer_1
 62
7
100
AcDbSpline
 70
8
 71
3
 72
8
 73
4
 74
0
 40
0
 40
0
 40
0
 40
0
 40
1
 40
1
 40
1
 40
1
 10
135.819988
 20
140.382605
 30
0.0
 10
135.666234
 20
140.558353
 30
0.0
 10
135.196806
 20
141.091771
 30
0.0
 10
134.776813
 20
141.567980
 30
0.0
  0
SPLINE
  5
141
100
AcDbEntity
  8
Layer_1
 62
7
100
AcDbSpline
 70
8
 71
3
 72
8
 73
4
 74
0
 40
0
 40
0
 40
0
 40
0
 40
1
 40
1
 40
1
 40
1
 10
134.776813
 20
141.567980
 30
0.0
 10
133.691145
 20
142.798998
 30
0.0
 10
132.373229
 20
144.886818
 30
0.0
 10
131.691253
 20
146.456107
 30
0.0
  0
SPLINE
  5
142
100
AcDbEntity
  8
Layer_1
 62
7
100
AcDbSpline
 70
8
 71
3
 72
8
 73
4
 74
0
 40
0
 40
0
 40
0
 40
0
 40
1
 40
1
 40
1
 40
1
 10
131.691253
 20
146.456107
 30
0.0
 10
129.831789
 20
150.734882
 30
0.0
 10
129.684546
 20
154.828144
 30
0.0
 10
131.280969
 20
157.861503
 30
0.0
  0
SPLINE
  5
143
100
AcDbEntity
  8
Layer_1
 62
7
100
AcDbSpline
 70
8
 71
3
 72
8
 73
4
 74
0
 40
0
 40
0
 40
0
 40
0
 40
1
 40
1
 40
1
 40
1
 10
131.280969
 20
157.861503
 30
0.0
 10
131.879533
 20
158.998816
 30
0.0
 10
134.034273
 20
161.227816
 30
0.0
 10
135.460929
 20
162.185505
 30
0.0
  0
SPLINE
  5
144
100
AcDbEntity
  8
Layer_1
 62
7
100
AcDbSpline
 70
8
 71
3
 72
8
 73
4
 74
0
 40
0
 40
0
 40
0
 40
0
 40
1
 40
1
 40
1
 40
1
 10
135.460929
 20
162.185505
 30
0.0
 10
137.279123
 20
163.406039
 30
0.0
 10
140.236046
 20
164.552081
 30
0.0
 10
141.566927
 20
164.552081
 30
0.0
  0
SPLINE
  5
145
100
AcDbEntity
  8
Layer_1
 62
7
100
AcDbSpline
 70
8
 71
3
 72
8
 73
4
 74
0
 40
0
 40
0
 40
0
 40
0
 40
1
 40
1
 40
1
 40
1
 10
141.566927
 20
164.552081
 30
0.0
 10
142.300385
 20
164.552081
 30
0.0
 10
142.761405
 20
164.767445
 30
0.0
 10
143.747740
 20
165.570823
 30
0.0
  0
SPLINE
  5
146
100
AcDbEntity
  8
Layer_1
 62
7
100
AcDbSpline
 70
8
 71
3
 72
8
 73
4
 74
0
 40
0
 40
0
 40
0
 40
0
 40
1
 40
1
 40
1
 40
1
 10
143.747740
 20
165.570823
 30
0.0
 10
146.030942
 20
167.430514
 30
0.0
 10
148.749547
 20
167.945233
 30
0.0
 10
151.613568
 20
167.060072
 30
0.0
  0
SPLINE
  5
147
100
AcDbEntity
  8
Layer_1
 62
7
100
AcDbSpline
 70
8
 71
3
 72
8
 73
4
 74
0
 40
0
 40
0
 40
0
 40
0
 40
1
 40
1
 40
1
 40
1
 10
151.613568
 20
167.060072
 30
0.0
 10
152.887841
 20
166.666241
 30
0.0
 10
153.845569
 20
166.031870
 30
0.0
 10
155.024208
 20
164.800967
 30
0.0
  0
SPLINE
  5
148
100
AcDbEntity
  8
Layer_1
 62
7
100
AcDbSpline
 70
8
 71
3
 72
8
 73
4
 74
0
 40
0
 40
0
 40
0
 40
0
 40
1
 40
1
 40
1
 40
1
 10
155.024208
 20
164.800967
 30
0.0
 10
155.785353
 20
164.006073
 30
0.0
 10
156.238361
 20
163.681159
 30
0.0
 10
157.024077
 20
163.366615
 30
0.0
  0
SPLINE
  5
149
100
AcDbEntity
  8
Layer_1
 62
7
100
AcDbSpline
 70
8
 71
3
 72
8
 73
4
 74
0
 40
0
 40
0
 40
0
 40
0
 40
1
 40
1
 40
1
 40
1
 10
157.024077
 20
163.366615
 30
0.0
 10
158.080033
 20
162.943883
 30
0.0
 10
159.050901
 20
162.337865
 30
0.0
 10
159.982326
 20
161.520058
 30
0.0
  0
SPLINE
  5
14a
100
AcDbEntity
  8
Layer_1
 62
7
100
AcDbSpline
 70
8
 71
3
 72
8
 73
4
 74
0
 40
0
 40
0
 40
0
 40
0
 40
1
 40
1
 40
1
 40
1
 10
159.982326
 20
161.520058
 30
0.0
 10
160.304127
 20
161.237521
 30
0.0
 10
160.584645
 20
161.099791
 30
0.0
 10
160.668036
 20
161.183388
 30
0.0
  0
SPLINE
  5
14b
100
AcDbEntity
  8
Layer_1
 62
7
100
AcDbSpline
 70
8
 71
3
 72
8
 73
4
 74
0
 40
0
 40
0
 40
0
 40
0
 40
1
 40
1
 40
1
 40
1
 10
160.668036
 20
161.183388
 30
0.0
 10
160.745718
 20
161.261196
 30
0.0
 10
161.066714
 20
162.064960
 30
0.0
 10
161.381468
 20
162.969528
 30
0.0
  0
SPLINE
  5
14c
100
AcDbEntity
  8
Layer_1
 62
7
100
AcDbSpline
 70
8
 71
3
 72
8
 73
4
 74
0
 40
0
 40
0
 40
0
 40
0
 40
1
 40
1
 40
1
 40
1
 10
161.381468
 20
162.969528
 30
0.0
 10
162.063840
 20
164.930592
 30
0.0
 10
162.501962
 20
165.823742
 30
0.0
 10
163.527533
 20
167.344438
 30
0.0
  0
SPLINE
  5
14d
100
AcDbEntity
  8
Layer_1
 62
7
100
AcDbSpline
 70
8
 71
3
 72
8
 73
4
 74
0
 40
0
 40
0
 40
0
 40
0
 40
1
 40
1
 40
1
 40
1
 10
163.527533
 20
167.344438
 30
0.0
 10
165.102896
 20
169.680406
 30
0.0
 10
167.449603
 20
171.560287
 30
0.0
 10
170.113680
 20
172.620440
 30
0.0
  0
SPLINE
  5
14e
100
AcDbEntity
  8
Layer_1
 62
7
100
AcDbSpline
 70
8
 71
3
 72
8
 73
4
 74
0
 40
0
 40
0
 40
0
 40
0
 40
1
 40
1
 40
1
 40
1
 10
170.113680
 20
172.620440
 30
0.0
 10
175.475303
 20
174.754051
 30
0.0
 10
182.036623
 20
173.964306
 30
0.0
 10
189.280746
 20
170.313420
 30
0.0
  0
SPLINE
  5
14f
100
AcDbEntity
  8
Layer_1
 62
7
100
AcDbSpline
 70
8
 71
3
 72
8
 73
4
 74
0
 40
0
 40
0
 40
0
 40
0
 40
1
 40
1
 40
1
 40
1
 10
189.280746
 20
170.313420
 30
0.0
 10
194.708547
 20
167.577923
 30
0.0
 10
198.970164
 20
163.862418
 30
0.0
 10
202.660043
 20
158.648632
 30
0.0
  0
SPLINE
  5
150
100
AcDbEntity
  8
Layer_1
 62
7
100
AcDbSpline
 70
8
 71
3
 72
8
 73
4
 74
0
 40
0
 40
0
 40
0
 40
0
 40
1
 40
1
 40
1
 40
1
 10
202.660043
 20
158.648632
 30
0.0
 10
205.850762
 20
154.140148
 30
0.0
 10
208.100206
 20
149.581298
 30
0.0
 10
209.621322
 20
144.540574
 30
0.0
  0
SPLINE
  5
151
100
AcDbEntity
  8
Layer_1
 62
7
100
AcDbSpline
 70
8
 71
3
 72
8
 73
4
 74
0
 40
0
 40
0
 40
0
 40
0
 40
1
 40
1
 40
1
 40
1
 10
209.621322
 20
144.540574
 30
0.0
 10
210.213083
 20
142.579583
 30
0.0
 10
210.559839
 20
141.885702
 30
0.0
 10
210.950610
 20
141.880571
 30
0.0
  0
SPLINE
  5
152
100
AcDbEntity
  8
Layer_1
 62
7
100
AcDbSpline
 70
8
 71
3
 72
8
 73
4
 74
0
 40
0
 40
0
 40
0
 40
0
 40
1
 40
1
 40
1
 40
1
 10
210.950610
 20
141.880571
 30
0.0
 10
211.349416
 20
141.875226
 30
0.0
 10
214.346180
 20
140.298800
 30
0.0
 10
215.230182
 20
139.629181
 30
0.0
  0
SPLINE
  5
153
100
AcDbEntity
  8
Layer_1
 62
7
100
AcDbSpline
 70
8
 71
3
 72
8
 73
4
 74
0
 40
0
 40
0
 40
0
 40
0
 40
1
 40
1
 40
1
 40
1
 10
215.230182
 20
139.629181
 30
0.0
 10
217.789263
 20
137.690717
 30
0.0
 10
219.366669
 20
134.964754
 30
0.0
 10
219.641696
 20
132.005554
 30
0.0
  0
SPLINE
  5
154
100
AcDbEntity
  8
Layer_1
 62
7
100
AcDbSpline
 70
8
 71
3
 72
8
 73
4
 74
0
 40
0
 40
0
 40
0
 40
0
 40
1
 40
1
 40
1
 40
1
 10
219.641696
 20
132.005554
 30
0.0
 10
219.849745
 20
129.767115
 30
0.0
 10
218.901606
 20
126.908097
 30
0.0
 10
217.212526
 20
124.680633
 30
0.0
  0
SPLINE
  5
155
100
AcDbEntity
  8
Layer_1
 62
7
100
AcDbSpline
 70
8
 71
3
 72
8
 73
4
 74
0
 40
0
 40
0
 40
0
 40
0
 40
1
 40
1
 40
1
 40
1
 10
217.212526
 20
124.680633
 30
0.0
 10
216.767892
 20
124.094279
 30
0.0
 10
216.331605
 20
123.479066
 30
0.0
 10
216.242995
 20
123.313508
 30
0.0
  0
SPLINE
  5
156
100
AcDbEntity
  8
Layer_1
 62
7
100
AcDbSpline
 70
8
 71
3
 72
8
 73
4
 74
0
 40
0
 40
0
 40
0
 40
0
 40
1
 40
1
 40
1
 40
1
 10
216.242995
 20
123.313508
 30
0.0
 10
216.154383
 20
123.147946
 30
0.0
 10
216.081891
 20
122.200615
 30
0.0
 10
216.081891
 20
121.208327
 30
0.0
  0
SPLINE
  5
157
100
AcDbEntity
  8
Layer_1
 62
7
100
AcDbSpline
 70
8
 71
3
 72
8
 73
4
 74
0
 40
0
 40
0
 40
0
 40
0
 40
1
 40
1
 40
1
 40
1
 10
216.081891
 20
121.208327
 30
0.0
 10
216.081891
 20
119.263251
 30
0.0
 10
215.804523
 20
118.020387
 30
0.0
 10
215.021889
 20
116.458631
 30
0.0
  0
SPLINE
  5
158
100
AcDbEntity
  8
Layer_1
 62
7
100
AcDbSpline
 70
8
 71
3
 72
8
 73
4
 74
0
 40
0
 40
0
 40
0
 40
0
 40
1
 40
1
 40
1
 40
1
 10
215.021889
 20
116.458631
 30
0.0
 10
214.032240
 20
114.483771
 30
0.0
 10
212.254862
 20
112.543008
 30
0.0
 10
210.257156
 20
111.255894
 30
0.0
  0
SPLINE
  5
159
100
AcDbEntity
  8
Layer_1
 62
7
100
AcDbSpline
 70
8
 71
3
 72
8
 73
4
 74
0
 40
0
 40
0
 40
0
 40
0
 40
1
 40
1
 40
1
 40
1
 10
210.257156
 20
111.255894
 30
0.0
 10
208.852339
 20
110.350773
 30
0.0
 10
208.154465
 20
110.012863
 30
0.0
 10
206.225520
 20
109.303775
 30
0.0
  0
SPLINE
  5
15a
100
AcDbEntity
  8
Layer_1
 62
7
100
AcDbSpline
 70
8
 71
3
 72
8
 73
4
 74
0
 40
0
 40
0
 40
0
 40
0
 40
1
 40
1
 40
1
 40
1
 10
206.225520
 20
109.303775
 30
0.0
 10
205.311935
 20
108.967937
 30
0.0
 10
204.517625
 20
108.646331
 30
0.0
 10
204.460388
 20
108.589098
 30
0.0
  0
SPLINE
  5
15b
100
AcDbEntity
  8
Layer_1
 62
7
100
AcDbSpline
 70
8
 71
3
 72
8
 73
4
 74
0
 40
0
 40
0
 40
0
 40
0
 40
1
 40
1
 40
1
 40
1
 10
204.460388
 20
108.589098
 30
0.0
 10
204.323867
 20
108.452577
 30
0.0
 10
204.678460
 20
108.256581
 30
0.0
 10
206.478945
 20
107.473349
 30
0.0
  0
SPLINE
  5
15c
100
AcDbEntity
  8
Layer_1
 62
7
100
AcDbSpline
 70
8
 71
3
 72
8
 73
4
 74
0
 40
0
 40
0
 40
0
 40
0
 40
1
 40
1
 40
1
 40
1
 10
206.478945
 20
107.473349
 30
0.0
 10
209.062365
 20
106.349531
 30
0.0
 10
211.218744
 20
105.206667
 30
0.0
 10
213.047125
 20
103.992262
 30
0.0
  0
SPLINE
  5
15d
100
AcDbEntity
  8
Layer_1
 62
7
100
AcDbSpline
 70
8
 71
3
 72
8
 73
4
 74
0
 40
0
 40
0
 40
0
 40
0
 40
1
 40
1
 40
1
 40
1
 10
213.047125
 20
103.992262
 30
0.0
 10
214.620350
 20
102.947329
 30
0.0
 10
214.930684
 20
102.802293
 30
0.0
 10
215.880773
 20
102.667919
 30
0.0
  0
SPLINE
  5
15e
100
AcDbEntity
  8
Layer_1
 62
7
100
AcDbSpline
 70
8
 71
3
 72
8
 73
4
 74
0
 40
0
 40
0
 40
0
 40
0
 40
1
 40
1
 40
1
 40
1
 10
215.880773
 20
102.667919
 30
0.0
 10
218.096692
 20
102.354518
 30
0.0
 10
219.718736
 20
101.660846
 30
0.0
 10
221.022934
 20
100.468871
 30
0.0
  0
SPLINE
  5
15f
100
AcDbEntity
  8
Layer_1
 62
7
100
AcDbSpline
 70
8
 71
3
 72
8
 73
4
 74
0
 40
0
 40
0
 40
0
 40
0
 40
1
 40
1
 40
1
 40
1
 10
221.022934
 20
100.468871
 30
0.0
 10
221.958681
 20
99.613645
 30
0.0
 10
222.405731
 20
98.806620
 30
0.0
 10
222.680828
 20
97.475978
 30
0.0
  0
SPLINE
  5
160
100
AcDbEntity
  8
Layer_1
 62
7
100
AcDbSpline
 70
8
 71
3
 72
8
 73
4
 74
0
 40
0
 40
0
 40
0
 40
0
 40
1
 40
1
 40
1
 40
1
 10
222.680828
 20
97.475978
 30
0.0
 10
222.836257
 20
96.724194
 30
0.0
 10
222.935601
 20
96.561023
 30
0.0
 10
223.368453
 20
96.346644
 30
0.0
  0
SPLINE
  5
161
100
AcDbEntity
  8
Layer_1
 62
7
100
AcDbSpline
 70
8
 71
3
 72
8
 73
4
 74
0
 40
0
 40
0
 40
0
 40
0
 40
1
 40
1
 40
1
 40
1
 10
223.368453
 20
96.346644
 30
0.0
 10
224.213868
 20
95.927928
 30
0.0
 10
225.641249
 20
94.704312
 30
0.0
 10
226.398973
 20
93.748739
 30
0.0
  0
SPLINE
  5
162
100
AcDbEntity
  8
Layer_1
 62
7
100
AcDbSpline
 70
8
 71
3
 72
8
 73
4
 74
0
 40
0
 40
0
 40
0
 40
0
 40
1
 40
1
 40
1
 40
1
 10
226.398973
 20
93.748739
 30
0.0
 10
227.340684
 20
92.561125
 30
0.0
 10
228.439639
 20
90.322976
 30
0.0
 10
228.852519
 20
88.751773
 30
0.0
  0
SPLINE
  5
163
100
AcDbEntity
  8
Layer_1
 62
7
100
AcDbSpline
 70
8
 71
3
 72
8
 73
4
 74
0
 40
0
 40
0
 40
0
 40
0
 40
1
 40
1
 40
1
 40
1
 10
228.852519
 20
88.751773
 30
0.0
 10
229.324690
 20
86.954942
 30
0.0
 10
229.323855
 20
83.895038
 30
0.0
 10
228.850432
 20
82.139914
 30
0.0
  0
SPLINE
  5
164
100
AcDbEntity
  8
Layer_1
 62
7
100
AcDbSpline
 70
8
 71
3
 72
8
 73
4
 74
0
 40
0
 40
0
 40
0
 40
0
 40
1
 40
1
 40
1
 40
1
 10
228.850432
 20
82.139914
 30
0.0
 10
228.182656
 20
79.662713
 30
0.0
 10
227.072282
 20
77.796596
 30
0.0
 10
225.190518
 20
75.988959
 30
0.0
  0
SPLINE
  5
165
100
AcDbEntity
  8
Layer_1
 62
7
100
AcDbSpline
 70
8
 71
3
 72
8
 73
4
 74
0
 40
0
 40
0
 40
0
 40
0
 40
1
 40
1
 40
1
 40
1
 10
225.190518
 20
75.988959
 30
0.0
 10
223.222071
 20
74.098036
 30
0.0
 10
221.376572
 20
73.008496
 30
0.0
 10
218.285539
 20
71.912412
 30
0.0
  0
LWPOLYLINE
  5
166
100
AcDbEntity
  8
Layer_1
 62
7
100
AcDbPolyline
 90
3
 70
0
 10
153.064120
 20
100.086397
 30
0.0
 10
153.560736
 20
99.456697
 30
0.0
 10
154.084016
 20
99.943349
 30
0.0
  0
SPLINE
  5
167
100
AcDbEntity
  8
Layer_1
 62
7
100
AcDbSpline
 70
8
 71
3
 72
8
 73
4
 74
0
 40
0
 40
0
 40
0
 40
0
 40
1
 40
1
 40
1
 40
1
 10
216.503048
 20
70.623731
 30
0.0
 10
216.518403
 20
70.268054
 30
0.0
 10
216.811836
 20
69.313299
 30
0.0
 10
217.155116
 20
68.502055
 30
0.0
  0
SPLINE
  5
168
100
AcDbEntity
  8
Layer_1
 62
7
100
AcDbSpline
 70
8
 71
3
 72
8
 73
4
 74
0
 40
0
 40
0
 40
0
 40
0
 40
1
 40
1
 40
1
 40
1
 10
217.155116
 20
68.502055
 30
0.0
 10
218.363651
 20
65.645850
 30
0.0
 10
219.081638
 20
62.343387
 30
0.0
 10
219.187064
 20
59.155801
 30
0.0
  0
SPLINE
  5
169
100
AcDbEntity
  8
Layer_1
 62
7
100
AcDbSpline
 70
8
 71
3
 72
8
 73
4
 74
0
 40
0
 40
0
 40
0
 40
0
 40
1
 40
1
 40
1
 40
1
 10
219.187064
 20
59.155801
 30
0.0
 10
219.281605
 20
56.298077
 30
0.0
 10
219.016483
 20
54.477201
 30
0.0
 10
218.291542
 20
53.004626
 30
0.0
  0
SPLINE
  5
16a
100
AcDbEntity
  8
Layer_1
 62
7
100
AcDbSpline
 70
8
 71
3
 72
8
 73
4
 74
0
 40
0
 40
0
 40
0
 40
0
 40
1
 40
1
 40
1
 40
1
 10
218.291542
 20
53.004626
 30
0.0
 10
217.548642
 20
51.495591
 30
0.0
 10
216.446346
 20
50.698107
 30
0.0
 10
213.780188
 20
49.740788
 30
0.0
  0
SPLINE
  5
16b
100
AcDbEntity
  8
Layer_1
 62
7
100
AcDbSpline
 70
8
 71
3
 72
8
 73
4
 74
0
 40
0
 40
0
 40
0
 40
0
 40
1
 40
1
 40
1
 40
1
 10
213.780188
 20
49.740788
 30
0.0
 10
213.163820
 20
49.519475
 30
0.0
 10
212.127737
 20
48.977578
 30
0.0
 10
211.477774
 20
48.536590
 30
0.0
  0
SPLINE
  5
16c
100
AcDbEntity
  8
Layer_1
 62
7
100
AcDbSpline
 70
8
 71
3
 72
8
 73
4
 74
0
 40
0
 40
0
 40
0
 40
0
 40
1
 40
1
 40
1
 40
1
 10
211.477774
 20
48.536590
 30
0.0
 10
210.022582
 20
47.549257
 30
0.0
 10
208.164292
 20
46.854507
 30
0.0
 10
206.177506
 20
46.555018
 30
0.0
  0
SPLINE
  5
16d
100
AcDbEntity
  8
Layer_1
 62
7
100
AcDbSpline
 70
8
 71
3
 72
8
 73
4
 74
0
 40
0
 40
0
 40
0
 40
0
 40
1
 40
1
 40
1
 40
1
 10
206.177506
 20
46.555018
 30
0.0
 10
204.516892
 20
46.304679
 30
0.0
 10
203.944980
 20
46.297366
 30
0.0
 10
202.306834
 20
46.505425
 30
0.0
  0
LWPOLYLINE
  5
16e
100
AcDbEntity
  8
Layer_1
 62
7
100
AcDbPolyline
 90
3
 70
0
 10
218.285539
 20
71.912412
 30
0.0
 10
216.475135
 20
71.270446
 30
0.0
 10
216.503048
 20
70.623731
 30
0.0
  0
SPLINE
  5
16f
100
AcDbEntity
  8
Layer_1
 62
7
100
AcDbSpline
 70
8
 71
3
 72
8
 73
4
 74
0
 40
0
 40
0
 40
0
 40
0
 40
1
 40
1
 40
1
 40
1
 10
214.321561
 20
53.571995
 30
0.0
 10
215.774929
 20
54.458073
 30
0.0
 10
216.136546
 20
58.206025
 30
0.0
 10
215.211948
 20
62.800310
 30
0.0
  0
SPLINE
  5
170
100
AcDbEntity
  8
Layer_1
 62
7
100
AcDbSpline
 70
8
 71
3
 72
8
 73
4
 74
0
 40
0
 40
0
 40
0
 40
0
 40
1
 40
1
 40
1
 40
1
 10
215.211948
 20
62.800310
 30
0.0
 10
214.755440
 20
65.068762
 30
0.0
 10
214.227718
 20
66.615024
 30
0.0
 10
213.382742
 20
68.160089
 30
0.0
  0
SPLINE
  5
171
100
AcDbEntity
  8
Layer_1
 62
7
100
AcDbSpline
 70
8
 71
3
 72
8
 73
4
 74
0
 40
0
 40
0
 40
0
 40
0
 40
1
 40
1
 40
1
 40
1
 10
213.382742
 20
68.160089
 30
0.0
 10
212.966097
 20
68.921900
 30
0.0
 10
212.736116
 20
69.566589
 30
0.0
 10
212.680716
 20
70.127904
 30
0.0
  0
SPLINE
  5
172
100
AcDbEntity
  8
Layer_1
 62
7
100
AcDbSpline
 70
8
 71
3
 72
8
 73
4
 74
0
 40
0
 40
0
 40
0
 40
0
 40
1
 40
1
 40
1
 40
1
 10
212.680716
 20
70.127904
 30
0.0
 10
212.635476
 20
70.587042
 30
0.0
 10
212.568267
 20
71.113631
 30
0.0
 10
212.531450
 20
71.298105
 30
0.0
  0
SPLINE
  5
173
100
AcDbEntity
  8
Layer_1
 62
7
100
AcDbSpline
 70
8
 71
3
 72
8
 73
4
 74
0
 40
0
 40
0
 40
0
 40
0
 40
1
 40
1
 40
1
 40
1
 10
212.531450
 20
71.298105
 30
0.0
 10
212.452954
 20
71.691857
 30
0.0
 10
211.905140
 20
71.879085
 30
0.0
 10
211.486740
 20
71.655158
 30
0.0
  0
SPLINE
  5
174
100
AcDbEntity
  8
Layer_1
 62
7
100
AcDbSpline
 70
8
 71
3
 72
8
 73
4
 74
0
 40
0
 40
0
 40
0
 40
0
 40
1
 40
1
 40
1
 40
1
 10
211.486740
 20
71.655158
 30
0.0
 10
211.093155
 20
71.444523
 30
0.0
 10
211.191673
 20
70.671945
 30
0.0
 10
212.066826
 20
67.105793
 30
0.0
  0
SPLINE
  5
175
100
AcDbEntity
  8
Layer_1
 62
7
100
AcDbSpline
 70
8
 71
3
 72
8
 73
4
 74
0
 40
0
 40
0
 40
0
 40
0
 40
1
 40
1
 40
1
 40
1
 10
212.066826
 20
67.105793
 30
0.0
 10
213.233371
 20
62.352197
 30
0.0
 10
213.803038
 20
58.119036
 30
0.0
 10
213.682215
 20
55.102104
 30
0.0
  0
SPLINE
  5
176
100
AcDbEntity
  8
Layer_1
 62
7
100
AcDbSpline
 70
8
 71
3
 72
8
 73
4
 74
0
 40
0
 40
0
 40
0
 40
0
 40
1
 40
1
 40
1
 40
1
 10
213.682215
 20
55.102104
 30
0.0
 10
213.641401
 20
54.084745
 30
0.0
 10
213.651046
 20
53.252619
 30
0.0
 10
213.703614
 20
53.252949
 30
0.0
  0
SPLINE
  5
177
100
AcDbEntity
  8
Layer_1
 62
7
100
AcDbSpline
 70
8
 71
3
 72
8
 73
4
 74
0
 40
0
 40
0
 40
0
 40
0
 40
1
 40
1
 40
1
 40
1
 10
213.703614
 20
53.252949
 30
0.0
 10
213.756056
 20
53.253258
 30
0.0
 10
214.034206
 20
53.396841
 30
0.0
 10
214.321506
 20
53.571995
 30
0.0
  0
LWPOLYLINE
  5
178
100
AcDbEntity
  8
Layer_1
 62
7
100
AcDbPolyline
 90
2
 70
0
 10
202.306834
 20
46.505425
 30
0.0
 10
202.307171
 20
46.505436
 30
0.0
  0
SPLINE
  5
179
100
AcDbEntity
  8
Layer_1
 62
7
100
AcDbSpline
 70
8
 71
3
 72
8
 73
4
 74
0
 40
0
 40
0
 40
0
 40
0
 40
1
 40
1
 40
1
 40
1
 10
142.951662
 20
73.865099
 30
0.0
 10
143.001776
 20
73.946121
 30
0.0
 10
142.738206
 20
74.388963
 30
0.0
 10
142.365947
 20
74.849011
 30
0.0
  0
SPLINE
  5
17a
100
AcDbEntity
  8
Layer_1
 62
7
100
AcDbSpline
 70
8
 71
3
 72
8
 73
4
 74
0
 40
0
 40
0
 40
0
 40
0
 40
1
 40
1
 40
1
 40
1
 10
142.365947
 20
74.849011
 30
0.0
 10
141.062638
 20
76.459661
 30
0.0
 10
140.204567
 20
77.982346
 30
0.0
 10
139.665728
 20
79.640623
 30
0.0
  0
SPLINE
  5
17b
100
AcDbEntity
  8
Layer_1
 62
7
100
AcDbSpline
 70
8
 71
3
 72
8
 73
4
 74
0
 40
0
 40
0
 40
0
 40
0
 40
1
 40
1
 40
1
 40
1
 10
139.665728
 20
79.640623
 30
0.0
 10
139.521567
 20
80.084284
 30
0.0
 10
138.899548
 20
81.324002
 30
0.0
 10
138.283459
 20
82.395562
 30
0.0
  0
SPLINE
  5
17c
100
AcDbEntity
  8
Layer_1
 62
7
100
AcDbSpline
 70
8
 71
3
 72
8
 73
4
 74
0
 40
0
 40
0
 40
0
 40
0
 40
1
 40
1
 40
1
 40
1
 10
138.283459
 20
82.395562
 30
0.0
 10
136.240250
 20
85.949311
 30
0.0
 10
134.306664
 20
90.437526
 30
0.0
 10
133.488958
 20
93.524588
 30
0.0
  0
SPLINE
  5
17d
100
AcDbEntity
  8
Layer_1
 62
7
100
AcDbSpline
 70
8
 71
3
 72
8
 73
4
 74
0
 40
0
 40
0
 40
0
 40
0
 40
1
 40
1
 40
1
 40
1
 10
133.488958
 20
93.524588
 30
0.0
 10
133.266895
 20
94.362895
 30
0.0
 10
133.057777
 20
95.077869
 30
0.0
 10
133.024228
 20
95.113411
 30
0.0
  0
SPLINE
  5
17e
100
AcDbEntity
  8
Layer_1
 62
7
100
AcDbSpline
 70
8
 71
3
 72
8
 73
4
 74
0
 40
0
 40
0
 40
0
 40
0
 40
1
 40
1
 40
1
 40
1
 10
133.024228
 20
95.113411
 30
0.0
 10
132.889858
 20
95.255796
 30
0.0
 10
132.332739
 20
94.584678
 30
0.0
 10
132.166065
 20
94.079638
 30
0.0
  0
SPLINE
  5
17f
100
AcDbEntity
  8
Layer_1
 62
7
100
AcDbSpline
 70
8
 71
3
 72
8
 73
4
 74
0
 40
0
 40
0
 40
0
 40
0
 40
1
 40
1
 40
1
 40
1
 10
132.166065
 20
94.079638
 30
0.0
 10
131.910128
 20
93.304159
 30
0.0
 10
132.225720
 20
91.170120
 30
0.0
 10
132.891963
 20
89.170488
 30
0.0
  0
SPLINE
  5
180
100
AcDbEntity
  8
Layer_1
 62
7
100
AcDbSpline
 70
8
 71
3
 72
8
 73
4
 74
0
 40
0
 40
0
 40
0
 40
0
 40
1
 40
1
 40
1
 40
1
 10
132.891963
 20
89.170488
 30
0.0
 10
133.821363
 20
86.381162
 30
0.0
 10
135.323931
 20
83.748141
 30
0.0
 10
137.234724
 20
81.560421
 30
0.0
  0
SPLINE
  5
181
100
AcDbEntity
  8
Layer_1
 62
7
100
AcDbSpline
 70
8
 71
3
 72
8
 73
4
 74
0
 40
0
 40
0
 40
0
 40
0
 40
1
 40
1
 40
1
 40
1
 10
137.234724
 20
81.560421
 30
0.0
 10
137.784332
 20
80.931158
 30
0.0
 10
138.151125
 20
80.253642
 30
0.0
 10
138.710767
 20
78.833980
 30
0.0
  0
SPLINE
  5
182
100
AcDbEntity
  8
Layer_1
 62
7
100
AcDbSpline
 70
8
 71
3
 72
8
 73
4
 74
0
 40
0
 40
0
 40
0
 40
0
 40
1
 40
1
 40
1
 40
1
 10
138.710767
 20
78.833980
 30
0.0
 10
139.491356
 20
76.853784
 30
0.0
 10
140.568441
 20
74.835759
 30
0.0
 10
141.219997
 20
74.132709
 30
0.0
  0
SPLINE
  5
183
100
AcDbEntity
  8
Layer_1
 62
7
100
AcDbSpline
 70
8
 71
3
 72
8
 73
4
 74
0
 40
0
 40
0
 40
0
 40
0
 40
1
 40
1
 40
1
 40
1
 10
141.219997
 20
74.132709
 30
0.0
 10
141.511749
 20
73.817913
 30
0.0
 10
141.756348
 20
73.717654
 30
0.0
 10
142.232589
 20
73.717654
 30
0.0
  0
SPLINE
  5
184
100
AcDbEntity
  8
Layer_1
 62
7
100
AcDbSpline
 70
8
 71
3
 72
8
 73
4
 74
0
 40
0
 40
0
 40
0
 40
0
 40
1
 40
1
 40
1
 40
1
 10
142.232589
 20
73.717654
 30
0.0
 10
142.577962
 20
73.717654
 30
0.0
 10
142.901530
 20
73.784011
 30
0.0
 10
142.951662
 20
73.865099
 30
0.0
  0
LWPOLYLINE
  5
185
100
AcDbEntity
  8
Layer_1
 62
7
100
AcDbPolyline
 90
1
 70
1
 10
214.321506
 20
53.571995
 30
0.0
  0
SPLINE
  5
186
100
AcDbEntity
  8
Layer_1
 62
7
100
AcDbSpline
 70
8
 71
3
 72
8
 73
4
 74
0
 40
0
 40
0
 40
0
 40
0
 40
1
 40
1
 40
1
 40
1
 10
215.315141
 20
74.575063
 30
0.0
 10
218.514381
 20
75.412279
 30
0.0
 10
220.690659
 20
76.606647
 30
0.0
 10
222.788545
 20
78.676547
 30
0.0
  0
SPLINE
  5
187
100
AcDbEntity
  8
Layer_1
 62
7
100
AcDbSpline
 70
8
 71
3
 72
8
 73
4
 74
0
 40
0
 40
0
 40
0
 40
0
 40
1
 40
1
 40
1
 40
1
 10
222.788545
 20
78.676547
 30
0.0
 10
223.970211
 20
79.842468
 30
0.0
 10
224.340179
 20
80.330342
 30
0.0
 10
224.877711
 20
81.431486
 30
0.0
  0
SPLINE
  5
188
100
AcDbEntity
  8
Layer_1
 62
7
100
AcDbSpline
 70
8
 71
3
 72
8
 73
4
 74
0
 40
0
 40
0
 40
0
 40
0
 40
1
 40
1
 40
1
 40
1
 10
224.877711
 20
81.431486
 30
0.0
 10
225.668925
 20
83.052313
 30
0.0
 10
225.909659
 20
84.251382
 30
0.0
 10
225.762370
 20
85.837796
 30
0.0
  0
SPLINE
  5
189
100
AcDbEntity
  8
Layer_1
 62
7
100
AcDbSpline
 70
8
 71
3
 72
8
 73
4
 74
0
 40
0
 40
0
 40
0
 40
0
 40
1
 40
1
 40
1
 40
1
 10
225.762370
 20
85.837796
 30
0.0
 10
225.532405
 20
88.314545
 30
0.0
 10
224.474269
 20
90.754460
 30
0.0
 10
222.883725
 20
92.475600
 30
0.0
  0
SPLINE
  5
18a
100
AcDbEntity
  8
Layer_1
 62
7
100
AcDbSpline
 70
8
 71
3
 72
8
 73
4
 74
0
 40
0
 40
0
 40
0
 40
0
 40
1
 40
1
 40
1
 40
1
 10
222.883725
 20
92.475600
 30
0.0
 10
221.440529
 20
94.037291
 30
0.0
 10
219.562520
 20
95.037545
 30
0.0
 10
217.126415
 20
95.542004
 30
0.0
  0
SPLINE
  5
18b
100
AcDbEntity
  8
Layer_1
 62
7
100
AcDbSpline
 70
8
 71
3
 72
8
 73
4
 74
0
 40
0
 40
0
 40
0
 40
0
 40
1
 40
1
 40
1
 40
1
 10
217.126415
 20
95.542004
 30
0.0
 10
215.406682
 20
95.898114
 30
0.0
 10
215.138187
 20
96.395308
 30
0.0
 10
216.495559
 20
96.710228
 30
0.0
  0
SPLINE
  5
18c
100
AcDbEntity
  8
Layer_1
 62
7
100
AcDbSpline
 70
8
 71
3
 72
8
 73
4
 74
0
 40
0
 40
0
 40
0
 40
0
 40
1
 40
1
 40
1
 40
1
 10
216.495559
 20
96.710228
 30
0.0
 10
216.830837
 20
96.788005
 30
0.0
 10
217.441658
 20
96.853359
 30
0.0
 10
217.852930
 20
96.855424
 30
0.0
  0
SPLINE
  5
18d
100
AcDbEntity
  8
Layer_1
 62
7
100
AcDbSpline
 70
8
 71
3
 72
8
 73
4
 74
0
 40
0
 40
0
 40
0
 40
0
 40
1
 40
1
 40
1
 40
1
 10
217.852930
 20
96.855424
 30
0.0
 10
218.484508
 20
96.858034
 30
0.0
 10
218.600702
 20
96.906207
 30
0.0
 10
218.600702
 20
97.161951
 30
0.0
  0
SPLINE
  5
18e
100
AcDbEntity
  8
Layer_1
 62
7
100
AcDbSpline
 70
8
 71
3
 72
8
 73
4
 74
0
 40
0
 40
0
 40
0
 40
0
 40
1
 40
1
 40
1
 40
1
 10
218.600702
 20
97.161951
 30
0.0
 10
218.600702
 20
97.618620
 30
0.0
 10
217.892049
 20
98.367842
 30
0.0
 10
217.197130
 20
98.645900
 30
0.0
  0
SPLINE
  5
18f
100
AcDbEntity
  8
Layer_1
 62
7
100
AcDbSpline
 70
8
 71
3
 72
8
 73
4
 74
0
 40
0
 40
0
 40
0
 40
0
 40
1
 40
1
 40
1
 40
1
 10
217.197130
 20
98.645900
 30
0.0
 10
215.985570
 20
99.130664
 30
0.0
 10
214.040833
 20
99.300506
 30
0.0
 10
212.027277
 20
99.097417
 30
0.0
  0
SPLINE
  5
190
100
AcDbEntity
  8
Layer_1
 62
7
100
AcDbSpline
 70
8
 71
3
 72
8
 73
4
 74
0
 40
0
 40
0
 40
0
 40
0
 40
1
 40
1
 40
1
 40
1
 10
212.027277
 20
99.097417
 30
0.0
 10
208.850734
 20
98.777013
 30
0.0
 10
206.422708
 20
97.882499
 30
0.0
 10
204.244942
 20
96.230325
 30
0.0
  0
SPLINE
  5
191
100
AcDbEntity
  8
Layer_1
 62
7
100
AcDbSpline
 70
8
 71
3
 72
8
 73
4
 74
0
 40
0
 40
0
 40
0
 40
0
 40
1
 40
1
 40
1
 40
1
 10
204.244942
 20
96.230325
 30
0.0
 10
202.517557
 20
94.919829
 30
0.0
 10
201.298149
 20
92.684415
 30
0.0
 10
201.953287
 20
92.029284
 30
0.0
  0
SPLINE
  5
192
100
AcDbEntity
  8
Layer_1
 62
7
100
AcDbSpline
 70
8
 71
3
 72
8
 73
4
 74
0
 40
0
 40
0
 40
0
 40
0
 40
1
 40
1
 40
1
 40
1
 10
201.953287
 20
92.029284
 30
0.0
 10
202.155672
 20
91.826883
 30
0.0
 10
202.301124
 20
91.848155
 30
0.0
 10
203.145937
 20
92.203729
 30
0.0
  0
SPLINE
  5
193
100
AcDbEntity
  8
Layer_1
 62
7
100
AcDbSpline
 70
8
 71
3
 72
8
 73
4
 74
0
 40
0
 40
0
 40
0
 40
0
 40
1
 40
1
 40
1
 40
1
 10
203.145937
 20
92.203729
 30
0.0
 10
204.072024
 20
92.593517
 30
0.0
 10
204.747267
 20
92.721007
 30
0.0
 10
204.747267
 20
92.506063
 30
0.0
  0
SPLINE
  5
194
100
AcDbEntity
  8
Layer_1
 62
7
100
AcDbSpline
 70
8
 71
3
 72
8
 73
4
 74
0
 40
0
 40
0
 40
0
 40
0
 40
1
 40
1
 40
1
 40
1
 10
204.747267
 20
92.506063
 30
0.0
 10
204.747267
 20
92.449560
 30
0.0
 10
204.126178
 20
91.758914
 30
0.0
 10
203.367069
 20
90.971165
 30
0.0
  0
SPLINE
  5
195
100
AcDbEntity
  8
Layer_1
 62
7
100
AcDbSpline
 70
8
 71
3
 72
8
 73
4
 74
0
 40
0
 40
0
 40
0
 40
0
 40
1
 40
1
 40
1
 40
1
 10
203.367069
 20
90.971165
 30
0.0
 10
200.766530
 20
88.272511
 30
0.0
 10
199.837479
 20
85.481591
 30
0.0
 10
200.582414
 20
82.605898
 30
0.0
  0
SPLINE
  5
196
100
AcDbEntity
  8
Layer_1
 62
7
100
AcDbSpline
 70
8
 71
3
 72
8
 73
4
 74
0
 40
0
 40
0
 40
0
 40
0
 40
1
 40
1
 40
1
 40
1
 10
200.582414
 20
82.605898
 30
0.0
 10
201.038654
 20
80.844699
 30
0.0
 10
201.885026
 20
80.010507
 30
0.0
 10
203.556256
 20
79.674876
 30
0.0
  0
SPLINE
  5
197
100
AcDbEntity
  8
Layer_1
 62
7
100
AcDbSpline
 70
8
 71
3
 72
8
 73
4
 74
0
 40
0
 40
0
 40
0
 40
0
 40
1
 40
1
 40
1
 40
1
 10
203.556256
 20
79.674876
 30
0.0
 10
204.236895
 20
79.538187
 30
0.0
 10
204.650575
 20
79.541102
 30
0.0
 10
205.303387
 20
79.687141
 30
0.0
  0
SPLINE
  5
198
100
AcDbEntity
  8
Layer_1
 62
7
100
AcDbSpline
 70
8
 71
3
 72
8
 73
4
 74
0
 40
0
 40
0
 40
0
 40
0
 40
1
 40
1
 40
1
 40
1
 10
205.303387
 20
79.687141
 30
0.0
 10
205.773827
 20
79.792416
 30
0.0
 10
206.194494
 20
79.936422
 30
0.0
 10
206.238195
 20
80.007147
 30
0.0
  0
SPLINE
  5
199
100
AcDbEntity
  8
Layer_1
 62
7
100
AcDbSpline
 70
8
 71
3
 72
8
 73
4
 74
0
 40
0
 40
0
 40
0
 40
0
 40
1
 40
1
 40
1
 40
1
 10
206.238195
 20
80.007147
 30
0.0
 10
206.281922
 20
80.077899
 30
0.0
 10
206.029238
 20
80.498005
 30
0.0
 10
205.676703
 20
80.940770
 30
0.0
  0
SPLINE
  5
19a
100
AcDbEntity
  8
Layer_1
 62
7
100
AcDbSpline
 70
8
 71
3
 72
8
 73
4
 74
0
 40
0
 40
0
 40
0
 40
0
 40
1
 40
1
 40
1
 40
1
 10
205.676703
 20
80.940770
 30
0.0
 10
205.119119
 20
81.641067
 30
0.0
 10
205.054370
 20
81.802162
 30
0.0
 10
205.179123
 20
82.178971
 30
0.0
  0
SPLINE
  5
19b
100
AcDbEntity
  8
Layer_1
 62
7
100
AcDbSpline
 70
8
 71
3
 72
8
 73
4
 74
0
 40
0
 40
0
 40
0
 40
0
 40
1
 40
1
 40
1
 40
1
 10
205.179123
 20
82.178971
 30
0.0
 10
205.396917
 20
82.836891
 30
0.0
 10
206.126978
 20
82.852029
 30
0.0
 10
206.853993
 20
82.213700
 30
0.0
  0
SPLINE
  5
19c
100
AcDbEntity
  8
Layer_1
 62
7
100
AcDbSpline
 70
8
 71
3
 72
8
 73
4
 74
0
 40
0
 40
0
 40
0
 40
0
 40
1
 40
1
 40
1
 40
1
 10
206.853993
 20
82.213700
 30
0.0
 10
207.987420
 20
81.218533
 30
0.0
 10
209.470033
 20
78.584307
 30
0.0
 10
209.470033
 20
77.565662
 30
0.0
  0
SPLINE
  5
19d
100
AcDbEntity
  8
Layer_1
 62
7
100
AcDbSpline
 70
8
 71
3
 72
8
 73
4
 74
0
 40
0
 40
0
 40
0
 40
0
 40
1
 40
1
 40
1
 40
1
 10
209.470033
 20
77.565662
 30
0.0
 10
209.470033
 20
77.127268
 30
0.0
 10
208.836443
 20
76.393815
 30
0.0
 10
208.457730
 20
76.393815
 30
0.0
  0
SPLINE
  5
19e
100
AcDbEntity
  8
Layer_1
 62
7
100
AcDbSpline
 70
8
 71
3
 72
8
 73
4
 74
0
 40
0
 40
0
 40
0
 40
0
 40
1
 40
1
 40
1
 40
1
 10
208.457730
 20
76.393815
 30
0.0
 10
208.326035
 20
76.393815
 30
0.0
 10
207.991804
 20
76.642675
 30
0.0
 10
207.715017
 20
76.946845
 30
0.0
  0
SPLINE
  5
19f
100
AcDbEntity
  8
Layer_1
 62
7
100
AcDbSpline
 70
8
 71
3
 72
8
 73
4
 74
0
 40
0
 40
0
 40
0
 40
0
 40
1
 40
1
 40
1
 40
1
 10
207.715017
 20
76.946845
 30
0.0
 10
207.266265
 20
77.439999
 30
0.0
 10
207.150792
 20
77.489140
 30
0.0
 10
206.648583
 20
77.400794
 30
0.0
  0
SPLINE
  5
1a0
100
AcDbEntity
  8
Layer_1
 62
7
100
AcDbSpline
 70
8
 71
3
 72
8
 73
4
 74
0
 40
0
 40
0
 40
0
 40
0
 40
1
 40
1
 40
1
 40
1
 10
206.648583
 20
77.400794
 30
0.0
 10
205.616908
 20
77.219295
 30
0.0
 10
205.578883
 20
77.001914
 30
0.0
 10
206.428126
 20
76.140593
 30
0.0
  0
SPLINE
  5
1a1
100
AcDbEntity
  8
Layer_1
 62
7
100
AcDbSpline
 70
8
 71
3
 72
8
 73
4
 74
0
 40
0
 40
0
 40
0
 40
0
 40
1
 40
1
 40
1
 40
1
 10
206.428126
 20
76.140593
 30
0.0
 10
208.436206
 20
74.103940
 30
0.0
 10
211.471704
 20
73.569188
 30
0.0
 10
215.315141
 20
74.574991
 30
0.0
  0
LWPOLYLINE
  5
1a2
100
AcDbEntity
  8
Layer_1
 62
7
100
AcDbPolyline
 90
1
 70
1
 10
142.951662
 20
73.865099
 30
0.0
  0
SPLINE
  5
1a3
100
AcDbEntity
  8
Layer_1
 62
7
100
AcDbSpline
 70
8
 71
3
 72
8
 73
4
 74
0
 40
0
 40
0
 40
0
 40
0
 40
1
 40
1
 40
1
 40
1
 10
214.510760
 20
83.045100
 30
0.0
 10
213.663818
 20
83.477807
 30
0.0
 10
213.399940
 20
83.963905
 30
0.0
 10
212.851298
 20
86.101964
 30
0.0
  0
SPLINE
  5
1a4
100
AcDbEntity
  8
Layer_1
 62
7
100
AcDbSpline
 70
8
 71
3
 72
8
 73
4
 74
0
 40
0
 40
0
 40
0
 40
0
 40
1
 40
1
 40
1
 40
1
 10
212.851298
 20
86.101964
 30
0.0
 10
212.340751
 20
88.091617
 30
0.0
 10
212.368137
 20
88.842818
 30
0.0
 10
212.956887
 20
88.998995
 30
0.0
  0
SPLINE
  5
1a5
100
AcDbEntity
  8
Layer_1
 62
7
100
AcDbSpline
 70
8
 71
3
 72
8
 73
4
 74
0
 40
0
 40
0
 40
0
 40
0
 40
1
 40
1
 40
1
 40
1
 10
212.956887
 20
88.998995
 30
0.0
 10
213.313992
 20
89.093713
 30
0.0
 10
213.474457
 20
89.005049
 30
0.0
 10
214.073103
 20
88.379709
 30
0.0
  0
SPLINE
  5
1a6
100
AcDbEntity
  8
Layer_1
 62
7
100
AcDbSpline
 70
8
 71
3
 72
8
 73
4
 74
0
 40
0
 40
0
 40
0
 40
0
 40
1
 40
1
 40
1
 40
1
 10
214.073103
 20
88.379709
 30
0.0
 10
214.938685
 20
87.476021
 30
0.0
 10
216.121115
 20
85.927988
 30
0.0
 10
216.458393
 20
85.256876
 30
0.0
  0
SPLINE
  5
1a7
100
AcDbEntity
  8
Layer_1
 62
7
100
AcDbSpline
 70
8
 71
3
 72
8
 73
4
 74
0
 40
0
 40
0
 40
0
 40
0
 40
1
 40
1
 40
1
 40
1
 10
216.458393
 20
85.256876
 30
0.0
 10
217.051620
 20
84.076478
 30
0.0
 10
216.468863
 20
82.707534
 30
0.0
 10
215.367470
 20
82.693047
 30
0.0
  0
SPLINE
  5
1a8
100
AcDbEntity
  8
Layer_1
 62
7
100
AcDbSpline
 70
8
 71
3
 72
8
 73
4
 74
0
 40
0
 40
0
 40
0
 40
0
 40
1
 40
1
 40
1
 40
1
 10
215.367470
 20
82.693047
 30
0.0
 10
215.277585
 20
82.692177
 30
0.0
 10
214.892065
 20
82.850290
 30
0.0
 10
214.510749
 20
83.045100
 30
0.0
  0
LWPOLYLINE
  5
1a9
100
AcDbEntity
  8
Layer_1
 62
7
100
AcDbPolyline
 90
1
 70
1
 10
215.315141
 20
74.574991
 30
0.0
  0
SPLINE
  5
1aa
100
AcDbEntity
  8
Layer_1
 62
7
100
AcDbSpline
 70
8
 71
3
 72
8
 73
4
 74
0
 40
0
 40
0
 40
0
 40
0
 40
1
 40
1
 40
1
 40
1
 10
220.291213
 20
85.143247
 30
0.0
 10
219.633125
 20
85.500230
 30
0.0
 10
219.156411
 20
86.391403
 30
0.0
 10
218.617040
 20
88.272988
 30
0.0
  0
SPLINE
  5
1ab
100
AcDbEntity
  8
Layer_1
 62
7
100
AcDbSpline
 70
8
 71
3
 72
8
 73
4
 74
0
 40
0
 40
0
 40
0
 40
0
 40
1
 40
1
 40
1
 40
1
 10
218.617040
 20
88.272988
 30
0.0
 10
217.943274
 20
90.623316
 30
0.0
 10
217.989615
 20
91.191861
 30
0.0
 10
218.854939
 20
91.191861
 30
0.0
  0
SPLINE
  5
1ac
100
AcDbEntity
  8
Layer_1
 62
7
100
AcDbSpline
 70
8
 71
3
 72
8
 73
4
 74
0
 40
0
 40
0
 40
0
 40
0
 40
1
 40
1
 40
1
 40
1
 10
218.854939
 20
91.191861
 30
0.0
 10
219.550972
 20
91.191861
 30
0.0
 10
221.939040
 20
87.979229
 30
0.0
 10
222.252523
 20
86.621137
 30
0.0
  0
LWPOLYLINE
  5
1ad
100
AcDbEntity
  8
Layer_1
 62
7
100
AcDbPolyline
 90
1
 70
1
 10
214.510749
 20
83.045100
 30
0.0
  0
SPLINE
  5
1ae
100
AcDbEntity
  8
Layer_1
 62
7
100
AcDbSpline
 70
8
 71
3
 72
8
 73
4
 74
0
 40
0
 40
0
 40
0
 40
0
 40
1
 40
1
 40
1
 40
1
 10
221.935749
 20
85.347297
 30
0.0
 10
221.373342
 20
84.844785
 30
0.0
 10
220.940475
 20
84.791083
 30
0.0
 10
220.291213
 20
85.143247
 30
0.0
  0
LWPOLYLINE
  5
1af
100
AcDbEntity
  8
Layer_1
 62
7
100
AcDbPolyline
 90
3
 70
0
 10
222.252523
 20
86.621137
 30
0.0
 10
222.442117
 20
85.799740
 30
0.0
 10
221.935749
 20
85.347297
 30
0.0
  0
SPLINE
  5
1b0
100
AcDbEntity
  8
Layer_1
 62
7
100
AcDbSpline
 70
8
 71
3
 72
8
 73
4
 74
0
 40
0
 40
0
 40
0
 40
0
 40
1
 40
1
 40
1
 40
1
 10
175.416031
 20
85.937807
 30
0.0
 10
177.522500
 20
86.935873
 30
0.0
 10
178.534267
 20
89.582833
 30
0.0
 10
177.677174
 20
91.853303
 30
0.0
  0
SPLINE
  5
1b1
100
AcDbEntity
  8
Layer_1
 62
7
100
AcDbSpline
 70
8
 71
3
 72
8
 73
4
 74
0
 40
0
 40
0
 40
0
 40
0
 40
1
 40
1
 40
1
 40
1
 10
177.677174
 20
91.853303
 30
0.0
 10
176.628509
 20
94.631224
 30
0.0
 10
173.423755
 20
96.032835
 30
0.0
 10
171.081002
 20
94.738179
 30
0.0
  0
SPLINE
  5
1b2
100
AcDbEntity
  8
Layer_1
 62
7
100
AcDbSpline
 70
8
 71
3
 72
8
 73
4
 74
0
 40
0
 40
0
 40
0
 40
0
 40
1
 40
1
 40
1
 40
1
 10
171.081002
 20
94.738179
 30
0.0
 10
168.831896
 20
93.495252
 30
0.0
 10
167.789591
 20
90.816058
 30
0.0
 10
168.752099
 20
88.751773
 30
0.0
  0
SPLINE
  5
1b3
100
AcDbEntity
  8
Layer_1
 62
7
100
AcDbSpline
 70
8
 71
3
 72
8
 73
4
 74
0
 40
0
 40
0
 40
0
 40
0
 40
1
 40
1
 40
1
 40
1
 10
168.752099
 20
88.751773
 30
0.0
 10
169.138323
 20
87.923429
 30
0.0
 10
170.683673
 20
86.359003
 30
0.0
 10
171.580316
 20
85.888615
 30
0.0
  0
SPLINE
  5
1b4
100
AcDbEntity
  8
Layer_1
 62
7
100
AcDbSpline
 70
8
 71
3
 72
8
 73
4
 74
0
 40
0
 40
0
 40
0
 40
0
 40
1
 40
1
 40
1
 40
1
 10
171.580316
 20
85.888615
 30
0.0
 10
172.723824
 20
85.288736
 30
0.0
 10
174.082893
 20
85.306157
 30
0.0
 10
175.416031
 20
85.937800
 30
0.0
  0
LWPOLYLINE
  5
1b5
100
AcDbEntity
  8
Layer_1
 62
7
100
AcDbPolyline
 90
1
 70
1
 10
220.291213
 20
85.143247
 30
0.0
  0
SPLINE
  5
1b6
100
AcDbEntity
  8
Layer_1
 62
7
100
AcDbSpline
 70
8
 71
3
 72
8
 73
4
 74
0
 40
0
 40
0
 40
0
 40
0
 40
1
 40
1
 40
1
 40
1
 10
156.292457
 20
89.492003
 30
0.0
 10
157.674598
 20
91.304398
 30
0.0
 10
159.006712
 20
95.688085
 30
0.0
 10
158.476432
 20
96.678932
 30
0.0
  0
SPLINE
  5
1b7
100
AcDbEntity
  8
Layer_1
 62
7
100
AcDbSpline
 70
8
 71
3
 72
8
 73
4
 74
0
 40
0
 40
0
 40
0
 40
0
 40
1
 40
1
 40
1
 40
1
 10
158.476432
 20
96.678932
 30
0.0
 10
158.184493
 20
97.224417
 30
0.0
 10
157.429012
 20
97.129082
 30
0.0
 10
156.825901
 20
96.470636
 30
0.0
  0
SPLINE
  5
1b8
100
AcDbEntity
  8
Layer_1
 62
7
100
AcDbSpline
 70
8
 71
3
 72
8
 73
4
 74
0
 40
0
 40
0
 40
0
 40
0
 40
1
 40
1
 40
1
 40
1
 10
156.825901
 20
96.470636
 30
0.0
 10
155.618062
 20
95.151973
 30
0.0
 10
154.582643
 20
92.100020
 30
0.0
 10
154.728141
 20
90.287358
 30
0.0
  0
SPLINE
  5
1b9
100
AcDbEntity
  8
Layer_1
 62
7
100
AcDbSpline
 70
8
 71
3
 72
8
 73
4
 74
0
 40
0
 40
0
 40
0
 40
0
 40
1
 40
1
 40
1
 40
1
 10
154.728141
 20
90.287358
 30
0.0
 10
154.861918
 20
88.620742
 30
0.0
 10
155.413979
 20
88.340054
 30
0.0
 10
156.292457
 20
89.492003
 30
0.0
  0
LWPOLYLINE
  5
1ba
100
AcDbEntity
  8
Layer_1
 62
7
100
AcDbPolyline
 90
1
 70
1
 10
175.416031
 20
85.937800
 30
0.0
  0
SPLINE
  5
1bb
100
AcDbEntity
  8
Layer_1
 62
7
100
AcDbSpline
 70
8
 71
3
 72
8
 73
4
 74
0
 40
0
 40
0
 40
0
 40
0
 40
1
 40
1
 40
1
 40
1
 10
179.057978
 20
104.651866
 30
0.0
 10
182.723275
 20
105.357617
 30
0.0
 10
187.055268
 20
107.391828
 30
0.0
 10
190.578986
 20
110.061862
 30
0.0
  0
SPLINE
  5
1bc
100
AcDbEntity
  8
Layer_1
 62
7
100
AcDbSpline
 70
8
 71
3
 72
8
 73
4
 74
0
 40
0
 40
0
 40
0
 40
0
 40
1
 40
1
 40
1
 40
1
 10
190.578986
 20
110.061862
 30
0.0
 10
191.055204
 20
110.422701
 30
0.0
 10
192.094624
 20
111.354313
 30
0.0
 10
192.888818
 20
112.132100
 30
0.0
  0
SPLINE
  5
1bd
100
AcDbEntity
  8
Layer_1
 62
7
100
AcDbSpline
 70
8
 71
3
 72
8
 73
4
 74
0
 40
0
 40
0
 40
0
 40
0
 40
1
 40
1
 40
1
 40
1
 10
192.888818
 20
112.132100
 30
0.0
 10
193.940192
 20
113.161749
 30
0.0
 10
194.441425
 20
113.546262
 30
0.0
 10
194.732270
 20
113.546262
 30
0.0
  0
SPLINE
  5
1be
100
AcDbEntity
  8
Layer_1
 62
7
100
AcDbSpline
 70
8
 71
3
 72
8
 73
4
 74
0
 40
0
 40
0
 40
0
 40
0
 40
1
 40
1
 40
1
 40
1
 10
194.732270
 20
113.546262
 30
0.0
 10
194.951959
 20
113.546262
 30
0.0
 10
195.825252
 20
113.373334
 30
0.0
 10
196.672913
 20
113.161969
 30
0.0
  0
SPLINE
  5
1bf
100
AcDbEntity
  8
Layer_1
 62
7
100
AcDbSpline
 70
8
 71
3
 72
8
 73
4
 74
0
 40
0
 40
0
 40
0
 40
0
 40
1
 40
1
 40
1
 40
1
 10
196.672913
 20
113.161969
 30
0.0
 10
201.089878
 20
112.060612
 30
0.0
 10
204.449410
 20
112.293039
 30
0.0
 10
207.817931
 20
113.933044
 30
0.0
  0
SPLINE
  5
1c0
100
AcDbEntity
  8
Layer_1
 62
7
100
AcDbSpline
 70
8
 71
3
 72
8
 73
4
 74
0
 40
0
 40
0
 40
0
 40
0
 40
1
 40
1
 40
1
 40
1
 10
207.817931
 20
113.933044
 30
0.0
 10
211.116703
 20
115.539074
 30
0.0
 10
213.350600
 20
119.804261
 30
0.0
 10
212.636632
 20
123.133386
 30
0.0
  0
SPLINE
  5
1c1
100
AcDbEntity
  8
Layer_1
 62
7
100
AcDbSpline
 70
8
 71
3
 72
8
 73
4
 74
0
 40
0
 40
0
 40
0
 40
0
 40
1
 40
1
 40
1
 40
1
 10
212.636632
 20
123.133386
 30
0.0
 10
212.024078
 20
125.989630
 30
0.0
 10
209.508919
 20
128.603225
 30
0.0
 10
206.723658
 20
129.277721
 30
0.0
  0
SPLINE
  5
1c2
100
AcDbEntity
  8
Layer_1
 62
7
100
AcDbSpline
 70
8
 71
3
 72
8
 73
4
 74
0
 40
0
 40
0
 40
0
 40
0
 40
1
 40
1
 40
1
 40
1
 10
206.723658
 20
129.277721
 30
0.0
 10
205.590512
 20
129.552136
 30
0.0
 10
203.503206
 20
129.518794
 30
0.0
 10
202.438471
 20
129.209274
 30
0.0
  0
SPLINE
  5
1c3
100
AcDbEntity
  8
Layer_1
 62
7
100
AcDbSpline
 70
8
 71
3
 72
8
 73
4
 74
0
 40
0
 40
0
 40
0
 40
0
 40
1
 40
1
 40
1
 40
1
 10
202.438471
 20
129.209274
 30
0.0
 10
200.753925
 20
128.719559
 30
0.0
 10
200.060552
 20
128.199576
 30
0.0
 10
198.765998
 20
126.455156
 30
0.0
  0
SPLINE
  5
1c4
100
AcDbEntity
  8
Layer_1
 62
7
100
AcDbSpline
 70
8
 71
3
 72
8
 73
4
 74
0
 40
0
 40
0
 40
0
 40
0
 40
1
 40
1
 40
1
 40
1
 10
198.765998
 20
126.455156
 30
0.0
 10
196.728452
 20
123.709527
 30
0.0
 10
193.418075
 20
121.260558
 30
0.0
 10
191.743797
 20
121.260237
 30
0.0
  0
SPLINE
  5
1c5
100
AcDbEntity
  8
Layer_1
 62
7
100
AcDbSpline
 70
8
 71
3
 72
8
 73
4
 74
0
 40
0
 40
0
 40
0
 40
0
 40
1
 40
1
 40
1
 40
1
 10
191.743797
 20
121.260237
 30
0.0
 10
189.994004
 20
121.259926
 30
0.0
 10
188.645016
 20
122.365954
 30
0.0
 10
188.320437
 20
124.067094
 30
0.0
  0
SPLINE
  5
1c6
100
AcDbEntity
  8
Layer_1
 62
7
100
AcDbSpline
 70
8
 71
3
 72
8
 73
4
 74
0
 40
0
 40
0
 40
0
 40
0
 40
1
 40
1
 40
1
 40
1
 10
188.320437
 20
124.067094
 30
0.0
 10
188.257060
 20
124.399215
 30
0.0
 10
187.959237
 20
124.845240
 30
0.0
 10
187.507962
 20
125.283833
 30
0.0
  0
SPLINE
  5
1c7
100
AcDbEntity
  8
Layer_1
 62
7
100
AcDbSpline
 70
8
 71
3
 72
8
 73
4
 74
0
 40
0
 40
0
 40
0
 40
0
 40
1
 40
1
 40
1
 40
1
 10
187.507962
 20
125.283833
 30
0.0
 10
187.116098
 20
125.664669
 30
0.0
 10
186.725850
 20
126.159460
 30
0.0
 10
186.640716
 20
126.383381
 30
0.0
  0
SPLINE
  5
1c8
100
AcDbEntity
  8
Layer_1
 62
7
100
AcDbSpline
 70
8
 71
3
 72
8
 73
4
 74
0
 40
0
 40
0
 40
0
 40
0
 40
1
 40
1
 40
1
 40
1
 10
186.640716
 20
126.383381
 30
0.0
 10
186.420818
 20
126.961746
 30
0.0
 10
186.449146
 20
128.109090
 30
0.0
 10
186.698044
 20
128.703525
 30
0.0
  0
SPLINE
  5
1c9
100
AcDbEntity
  8
Layer_1
 62
7
100
AcDbSpline
 70
8
 71
3
 72
8
 73
4
 74
0
 40
0
 40
0
 40
0
 40
0
 40
1
 40
1
 40
1
 40
1
 10
186.698044
 20
128.703525
 30
0.0
 10
187.016927
 20
129.465223
 30
0.0
 10
188.067033
 20
130.318999
 30
0.0
 10
189.186621
 20
130.726830
 30
0.0
  0
SPLINE
  5
1ca
100
AcDbEntity
  8
Layer_1
 62
7
100
AcDbSpline
 70
8
 71
3
 72
8
 73
4
 74
0
 40
0
 40
0
 40
0
 40
0
 40
1
 40
1
 40
1
 40
1
 10
189.186621
 20
130.726830
 30
0.0
 10
190.759508
 20
131.299773
 30
0.0
 10
191.980579
 20
132.773717
 30
0.0
 10
193.203430
 20
135.575464
 30
0.0
  0
SPLINE
  5
1cb
100
AcDbEntity
  8
Layer_1
 62
7
100
AcDbSpline
 70
8
 71
3
 72
8
 73
4
 74
0
 40
0
 40
0
 40
0
 40
0
 40
1
 40
1
 40
1
 40
1
 10
193.203430
 20
135.575464
 30
0.0
 10
193.852173
 20
137.061817
 30
0.0
 10
193.772272
 20
137.160080
 30
0.0
 10
191.914808
 20
137.160080
 30
0.0
  0
SPLINE
  5
1cc
100
AcDbEntity
  8
Layer_1
 62
7
100
AcDbSpline
 70
8
 71
3
 72
8
 73
4
 74
0
 40
0
 40
0
 40
0
 40
0
 40
1
 40
1
 40
1
 40
1
 10
191.914808
 20
137.160080
 30
0.0
 10
190.415740
 20
137.160080
 30
0.0
 10
188.212333
 20
137.511436
 30
0.0
 10
186.328554
 20
138.050863
 30
0.0
  0
SPLINE
  5
1cd
100
AcDbEntity
  8
Layer_1
 62
7
100
AcDbSpline
 70
8
 71
3
 72
8
 73
4
 74
0
 40
0
 40
0
 40
0
 40
0
 40
1
 40
1
 40
1
 40
1
 10
186.328554
 20
138.050863
 30
0.0
 10
185.150369
 20
138.388243
 30
0.0
 10
181.172504
 20
139.925021
 30
0.0
 10
178.815018
 20
140.953597
 30
0.0
  0
SPLINE
  5
1ce
100
AcDbEntity
  8
Layer_1
 62
7
100
AcDbSpline
 70
8
 71
3
 72
8
 73
4
 74
0
 40
0
 40
0
 40
0
 40
0
 40
1
 40
1
 40
1
 40
1
 10
178.815018
 20
140.953597
 30
0.0
 10
178.362381
 20
141.151077
 30
0.0
 10
177.944818
 20
141.265422
 30
0.0
 10
177.887081
 20
141.207697
 30
0.0
  0
SPLINE
  5
1cf
100
AcDbEntity
  8
Layer_1
 62
7
100
AcDbSpline
 70
8
 71
3
 72
8
 73
4
 74
0
 40
0
 40
0
 40
0
 40
0
 40
1
 40
1
 40
1
 40
1
 10
177.887081
 20
141.207697
 30
0.0
 10
177.829399
 20
141.149973
 30
0.0
 10
177.898710
 20
140.797710
 30
0.0
 10
178.040999
 20
140.424904
 30
0.0
  0
SPLINE
  5
1d0
100
AcDbEntity
  8
Layer_1
 62
7
100
AcDbSpline
 70
8
 71
3
 72
8
 73
4
 74
0
 40
0
 40
0
 40
0
 40
0
 40
1
 40
1
 40
1
 40
1
 10
178.040999
 20
140.424904
 30
0.0
 10
178.864381
 20
138.268874
 30
0.0
 10
177.709802
 20
133.243345
 30
0.0
 10
175.981451
 20
131.460398
 30
0.0
  0
SPLINE
  5
1d1
100
AcDbEntity
  8
Layer_1
 62
7
100
AcDbSpline
 70
8
 71
3
 72
8
 73
4
 74
0
 40
0
 40
0
 40
0
 40
0
 40
1
 40
1
 40
1
 40
1
 10
175.981451
 20
131.460398
 30
0.0
 10
175.306324
 20
130.763958
 30
0.0
 10
174.745262
 20
130.607980
 30
0.0
 10
174.014096
 20
130.913485
 30
0.0
  0
SPLINE
  5
1d2
100
AcDbEntity
  8
Layer_1
 62
7
100
AcDbSpline
 70
8
 71
3
 72
8
 73
4
 74
0
 40
0
 40
0
 40
0
 40
0
 40
1
 40
1
 40
1
 40
1
 10
174.014096
 20
130.913485
 30
0.0
 10
173.167736
 20
131.267114
 30
0.0
 10
172.898229
 20
132.010459
 30
0.0
 10
172.921568
 20
133.926832
 30
0.0
  0
SPLINE
  5
1d3
100
AcDbEntity
  8
Layer_1
 62
7
100
AcDbSpline
 70
8
 71
3
 72
8
 73
4
 74
0
 40
0
 40
0
 40
0
 40
0
 40
1
 40
1
 40
1
 40
1
 10
172.921568
 20
133.926832
 30
0.0
 10
172.956338
 20
136.781261
 30
0.0
 10
174.147978
 20
140.122702
 30
0.0
 10
175.473661
 20
141.083021
 30
0.0
  0
SPLINE
  5
1d4
100
AcDbEntity
  8
Layer_1
 62
7
100
AcDbSpline
 70
8
 71
3
 72
8
 73
4
 74
0
 40
0
 40
0
 40
0
 40
0
 40
1
 40
1
 40
1
 40
1
 10
175.473661
 20
141.083021
 30
0.0
 10
175.841884
 20
141.349757
 30
0.0
 10
176.234609
 20
141.567989
 30
0.0
 10
176.346371
 20
141.567989
 30
0.0
  0
SPLINE
  5
1d5
100
AcDbEntity
  8
Layer_1
 62
7
100
AcDbSpline
 70
8
 71
3
 72
8
 73
4
 74
0
 40
0
 40
0
 40
0
 40
0
 40
1
 40
1
 40
1
 40
1
 10
176.346371
 20
141.567989
 30
0.0
 10
176.826370
 20
141.567989
 30
0.0
 10
176.675580
 20
141.883883
 30
0.0
 10
176.020907
 20
142.249786
 30
0.0
  0
SPLINE
  5
1d6
100
AcDbEntity
  8
Layer_1
 62
7
100
AcDbSpline
 70
8
 71
3
 72
8
 73
4
 74
0
 40
0
 40
0
 40
0
 40
0
 40
1
 40
1
 40
1
 40
1
 10
176.020907
 20
142.249786
 30
0.0
 10
175.055098
 20
142.789593
 30
0.0
 10
164.612360
 20
147.799135
 30
0.0
 10
164.168539
 20
147.935556
 30
0.0
  0
SPLINE
  5
1d7
100
AcDbEntity
  8
Layer_1
 62
7
100
AcDbSpline
 70
8
 71
3
 72
8
 73
4
 74
0
 40
0
 40
0
 40
0
 40
0
 40
1
 40
1
 40
1
 40
1
 10
164.168539
 20
147.935556
 30
0.0
 10
163.693135
 20
148.081680
 30
0.0
 10
162.941421
 20
147.606167
 30
0.0
 10
161.973354
 20
146.546960
 30
0.0
  0
SPLINE
  5
1d8
100
AcDbEntity
  8
Layer_1
 62
7
100
AcDbSpline
 70
8
 71
3
 72
8
 73
4
 74
0
 40
0
 40
0
 40
0
 40
0
 40
1
 40
1
 40
1
 40
1
 10
161.973354
 20
146.546960
 30
0.0
 10
161.085294
 20
145.575281
 30
0.0
 10
160.331184
 20
144.224713
 30
0.0
 10
159.792740
 20
142.641636
 30
0.0
  0
SPLINE
  5
1d9
100
AcDbEntity
  8
Layer_1
 62
7
100
AcDbSpline
 70
8
 71
3
 72
8
 73
4
 74
0
 40
0
 40
0
 40
0
 40
0
 40
1
 40
1
 40
1
 40
1
 10
159.792740
 20
142.641636
 30
0.0
 10
159.351222
 20
141.343503
 30
0.0
 10
159.324441
 20
141.046869
 30
0.0
 10
159.626159
 20
140.796460
 30
0.0
  0
SPLINE
  5
1da
100
AcDbEntity
  8
Layer_1
 62
7
100
AcDbSpline
 70
8
 71
3
 72
8
 73
4
 74
0
 40
0
 40
0
 40
0
 40
0
 40
1
 40
1
 40
1
 40
1
 10
159.626159
 20
140.796460
 30
0.0
 10
159.803870
 20
140.648980
 30
0.0
 10
159.964974
 20
140.918327
 30
0.0
 10
160.509581
 20
142.273371
 30
0.0
  0
SPLINE
  5
1db
100
AcDbEntity
  8
Layer_1
 62
7
100
AcDbSpline
 70
8
 71
3
 72
8
 73
4
 74
0
 40
0
 40
0
 40
0
 40
0
 40
1
 40
1
 40
1
 40
1
 10
160.509581
 20
142.273371
 30
0.0
 10
161.474576
 20
144.674461
 30
0.0
 10
162.302284
 20
145.661049
 30
0.0
 10
163.351693
 20
145.661049
 30
0.0
  0
SPLINE
  5
1dc
100
AcDbEntity
  8
Layer_1
 62
7
100
AcDbSpline
 70
8
 71
3
 72
8
 73
4
 74
0
 40
0
 40
0
 40
0
 40
0
 40
1
 40
1
 40
1
 40
1
 10
163.351693
 20
145.661049
 30
0.0
 10
163.892335
 20
145.661049
 30
0.0
 10
164.577696
 20
145.168306
 30
0.0
 10
164.857668
 20
144.578316
 30
0.0
  0
SPLINE
  5
1dd
100
AcDbEntity
  8
Layer_1
 62
7
100
AcDbSpline
 70
8
 71
3
 72
8
 73
4
 74
0
 40
0
 40
0
 40
0
 40
0
 40
1
 40
1
 40
1
 40
1
 10
164.857668
 20
144.578316
 30
0.0
 10
165.245497
 20
143.761009
 30
0.0
 10
165.081462
 20
140.675796
 30
0.0
 10
164.557287
 20
138.928823
 30
0.0
  0
LWPOLYLINE
  5
1de
100
AcDbEntity
  8
Layer_1
 62
7
100
AcDbPolyline
 90
1
 70
1
 10
156.292457
 20
89.492003
 30
0.0
  0
SPLINE
  5
1df
100
AcDbEntity
  8
Layer_1
 62
7
100
AcDbSpline
 70
8
 71
3
 72
8
 73
4
 74
0
 40
0
 40
0
 40
0
 40
0
 40
1
 40
1
 40
1
 40
1
 10
165.010923
 20
136.488730
 30
0.0
 10
165.802465
 20
135.420515
 30
0.0
 10
166.472906
 20
134.011571
 30
0.0
 10
166.189678
 20
134.011571
 30
0.0
  0
SPLINE
  5
1e0
100
AcDbEntity
  8
Layer_1
 62
7
100
AcDbSpline
 70
8
 71
3
 72
8
 73
4
 74
0
 40
0
 40
0
 40
0
 40
0
 40
1
 40
1
 40
1
 40
1
 10
166.189678
 20
134.011571
 30
0.0
 10
166.119908
 20
134.011571
 30
0.0
 10
165.504398
 20
134.513924
 30
0.0
 10
164.821759
 20
135.127905
 30
0.0
  0
SPLINE
  5
1e1
100
AcDbEntity
  8
Layer_1
 62
7
100
AcDbSpline
 70
8
 71
3
 72
8
 73
4
 74
0
 40
0
 40
0
 40
0
 40
0
 40
1
 40
1
 40
1
 40
1
 10
164.821759
 20
135.127905
 30
0.0
 10
161.654356
 20
137.976726
 30
0.0
 10
159.468102
 20
138.886293
 30
0.0
 10
155.788025
 20
138.886293
 30
0.0
  0
SPLINE
  5
1e2
100
AcDbEntity
  8
Layer_1
 62
7
100
AcDbSpline
 70
8
 71
3
 72
8
 73
4
 74
0
 40
0
 40
0
 40
0
 40
0
 40
1
 40
1
 40
1
 40
1
 10
155.788025
 20
138.886293
 30
0.0
 10
152.532373
 20
138.886293
 30
0.0
 10
150.544621
 20
138.200558
 30
0.0
 10
148.791256
 20
136.472535
 30
0.0
  0
SPLINE
  5
1e3
100
AcDbEntity
  8
Layer_1
 62
7
100
AcDbSpline
 70
8
 71
3
 72
8
 73
4
 74
0
 40
0
 40
0
 40
0
 40
0
 40
1
 40
1
 40
1
 40
1
 10
148.791256
 20
136.472535
 30
0.0
 10
146.240012
 20
133.958158
 30
0.0
 10
145.605725
 20
129.937726
 30
0.0
 10
147.248105
 20
126.691291
 30
0.0
  0
SPLINE
  5
1e4
100
AcDbEntity
  8
Layer_1
 62
7
100
AcDbSpline
 70
8
 71
3
 72
8
 73
4
 74
0
 40
0
 40
0
 40
0
 40
0
 40
1
 40
1
 40
1
 40
1
 10
147.248105
 20
126.691291
 30
0.0
 10
147.903836
 20
125.395167
 30
0.0
 10
149.661234
 20
123.774209
 30
0.0
 10
151.222701
 20
123.025313
 30
0.0
  0
SPLINE
  5
1e5
100
AcDbEntity
  8
Layer_1
 62
7
100
AcDbSpline
 70
8
 71
3
 72
8
 73
4
 74
0
 40
0
 40
0
 40
0
 40
0
 40
1
 40
1
 40
1
 40
1
 10
151.222701
 20
123.025313
 30
0.0
 10
153.103190
 20
122.123406
 30
0.0
 10
154.144250
 20
121.877660
 30
0.0
 10
156.501342
 20
121.779279
 30
0.0
  0
SPLINE
  5
1e6
100
AcDbEntity
  8
Layer_1
 62
7
100
AcDbSpline
 70
8
 71
3
 72
8
 73
4
 74
0
 40
0
 40
0
 40
0
 40
0
 40
1
 40
1
 40
1
 40
1
 10
156.501342
 20
121.779279
 30
0.0
 10
160.191535
 20
121.625259
 30
0.0
 10
163.174762
 20
122.302409
 30
0.0
 10
165.483583
 20
123.818132
 30
0.0
  0
SPLINE
  5
1e7
100
AcDbEntity
  8
Layer_1
 62
7
100
AcDbSpline
 70
8
 71
3
 72
8
 73
4
 74
0
 40
0
 40
0
 40
0
 40
0
 40
1
 40
1
 40
1
 40
1
 10
165.483583
 20
123.818132
 30
0.0
 10
166.793173
 20
124.677855
 30
0.0
 10
167.377945
 20
124.870799
 30
0.0
 10
168.696907
 20
124.878333
 30
0.0
  0
SPLINE
  5
1e8
100
AcDbEntity
  8
Layer_1
 62
7
100
AcDbSpline
 70
8
 71
3
 72
8
 73
4
 74
0
 40
0
 40
0
 40
0
 40
0
 40
1
 40
1
 40
1
 40
1
 10
168.696907
 20
124.878333
 30
0.0
 10
170.957957
 20
124.891245
 30
0.0
 10
173.667956
 20
125.709039
 30
0.0
 10
177.112971
 20
127.418039
 30
0.0
  0
SPLINE
  5
1e9
100
AcDbEntity
  8
Layer_1
 62
7
100
AcDbSpline
 70
8
 71
3
 72
8
 73
4
 74
0
 40
0
 40
0
 40
0
 40
0
 40
1
 40
1
 40
1
 40
1
 10
177.112971
 20
127.418039
 30
0.0
 10
178.687974
 20
128.199375
 30
0.0
 10
179.622526
 20
128.569110
 30
0.0
 10
180.150690
 20
128.619856
 30
0.0
  0
SPLINE
  5
1ea
100
AcDbEntity
  8
Layer_1
 62
7
100
AcDbSpline
 70
8
 71
3
 72
8
 73
4
 74
0
 40
0
 40
0
 40
0
 40
0
 40
1
 40
1
 40
1
 40
1
 10
180.150690
 20
128.619856
 30
0.0
 10
180.865878
 20
128.688570
 30
0.0
 10
180.944058
 20
128.658475
 30
0.0
 10
181.400984
 20
128.138048
 30
0.0
  0
SPLINE
  5
1eb
100
AcDbEntity
  8
Layer_1
 62
7
100
AcDbSpline
 70
8
 71
3
 72
8
 73
4
 74
0
 40
0
 40
0
 40
0
 40
0
 40
1
 40
1
 40
1
 40
1
 10
181.400984
 20
128.138048
 30
0.0
 10
181.960825
 20
127.500404
 30
0.0
 10
182.514025
 20
126.134727
 30
0.0
 10
182.719040
 20
124.884152
 30
0.0
  0
SPLINE
  5
1ec
100
AcDbEntity
  8
Layer_1
 62
7
100
AcDbSpline
 70
8
 71
3
 72
8
 73
4
 74
0
 40
0
 40
0
 40
0
 40
0
 40
1
 40
1
 40
1
 40
1
 10
182.719040
 20
124.884152
 30
0.0
 10
183.140953
 20
122.310401
 30
0.0
 10
181.474803
 20
119.172243
 30
0.0
 10
179.040567
 20
117.955846
 30
0.0
  0
SPLINE
  5
1ed
100
AcDbEntity
  8
Layer_1
 62
7
100
AcDbSpline
 70
8
 71
3
 72
8
 73
4
 74
0
 40
0
 40
0
 40
0
 40
0
 40
1
 40
1
 40
1
 40
1
 10
179.040567
 20
117.955846
 30
0.0
 10
178.518939
 20
117.695178
 30
0.0
 10
178.014265
 20
117.481910
 30
0.0
 10
177.919083
 20
117.481910
 30
0.0
  0
SPLINE
  5
1ee
100
AcDbEntity
  8
Layer_1
 62
7
100
AcDbSpline
 70
8
 71
3
 72
8
 73
4
 74
0
 40
0
 40
0
 40
0
 40
0
 40
1
 40
1
 40
1
 40
1
 10
177.919083
 20
117.481910
 30
0.0
 10
177.635053
 20
117.481910
 30
0.0
 10
177.197767
 20
115.145663
 30
0.0
 10
177.197174
 20
113.624983
 30
0.0
  0
SPLINE
  5
1ef
100
AcDbEntity
  8
Layer_1
 62
7
100
AcDbSpline
 70
8
 71
3
 72
8
 73
4
 74
0
 40
0
 40
0
 40
0
 40
0
 40
1
 40
1
 40
1
 40
1
 10
177.197174
 20
113.624983
 30
0.0
 10
177.196570
 20
111.958258
 30
0.0
 10
176.848057
 20
109.612091
 30
0.0
 10
176.398189
 20
108.245361
 30
0.0
  0
SPLINE
  5
1f0
100
AcDbEntity
  8
Layer_1
 62
7
100
AcDbSpline
 70
8
 71
3
 72
8
 73
4
 74
0
 40
0
 40
0
 40
0
 40
0
 40
1
 40
1
 40
1
 40
1
 10
176.398189
 20
108.245361
 30
0.0
 10
176.013477
 20
107.076533
 30
0.0
 10
175.067330
 20
105.933033
 30
0.0
 10
174.266229
 20
105.668640
 30
0.0
  0
SPLINE
  5
1f1
100
AcDbEntity
  8
Layer_1
 62
7
100
AcDbSpline
 70
8
 71
3
 72
8
 73
4
 74
0
 40
0
 40
0
 40
0
 40
0
 40
1
 40
1
 40
1
 40
1
 10
174.266229
 20
105.668640
 30
0.0
 10
171.974201
 20
104.912202
 30
0.0
 10
168.452053
 20
106.853909
 30
0.0
 10
166.237785
 20
110.094613
 30
0.0
  0
LWPOLYLINE
  5
1f2
100
AcDbEntity
  8
Layer_1
 62
7
100
AcDbPolyline
 90
3
 70
0
 10
164.557287
 20
138.928823
 30
0.0
 10
164.166900
 20
137.627769
 30
0.0
 10
165.010923
 20
136.488730
 30
0.0
  0
SPLINE
  5
1f3
100
AcDbEntity
  8
Layer_1
 62
7
100
AcDbSpline
 70
8
 71
3
 72
8
 73
4
 74
0
 40
0
 40
0
 40
0
 40
0
 40
1
 40
1
 40
1
 40
1
 10
163.058882
 20
110.524829
 30
0.0
 10
163.754976
 20
109.263521
 30
0.0
 10
165.780347
 20
107.452961
 30
0.0
 10
167.673651
 20
106.399507
 30
0.0
  0
SPLINE
  5
1f4
100
AcDbEntity
  8
Layer_1
 62
7
100
AcDbSpline
 70
8
 71
3
 72
8
 73
4
 74
0
 40
0
 40
0
 40
0
 40
0
 40
1
 40
1
 40
1
 40
1
 10
167.673651
 20
106.399507
 30
0.0
 10
169.049222
 20
105.634120
 30
0.0
 10
170.956189
 20
104.913522
 30
0.0
 10
172.486945
 20
104.580691
 30
0.0
  0
SPLINE
  5
1f5
100
AcDbEntity
  8
Layer_1
 62
7
100
AcDbSpline
 70
8
 71
3
 72
8
 73
4
 74
0
 40
0
 40
0
 40
0
 40
0
 40
1
 40
1
 40
1
 40
1
 10
172.486945
 20
104.580691
 30
0.0
 10
174.225216
 20
104.202725
 30
0.0
 10
176.874466
 20
104.231428
 30
0.0
 10
179.058034
 20
104.651870
 30
0.0
  0
LWPOLYLINE
  5
1f6
100
AcDbEntity
  8
Layer_1
 62
7
100
AcDbPolyline
 90
5
 70
0
 10
166.237785
 20
110.094613
 30
0.0
 10
165.492839
 20
111.184890
 30
0.0
 10
164.093720
 20
111.184890
 30
0.0
 10
162.694602
 20
111.184890
 30
0.0
 10
163.058882
 20
110.524829
 30
0.0
  0
SPLINE
  5
1f7
100
AcDbEntity
  8
Layer_1
 62
7
100
AcDbSpline
 70
8
 71
3
 72
8
 73
4
 74
0
 40
0
 40
0
 40
0
 40
0
 40
1
 40
1
 40
1
 40
1
 10
202.071050
 20
115.740010
 30
0.0
 10
200.856688
 20
116.110732
 30
0.0
 10
199.643198
 20
117.051161
 30
0.0
 10
199.112372
 20
118.032889
 30
0.0
  0
SPLINE
  5
1f8
100
AcDbEntity
  8
Layer_1
 62
7
100
AcDbSpline
 70
8
 71
3
 72
8
 73
4
 74
0
 40
0
 40
0
 40
0
 40
0
 40
1
 40
1
 40
1
 40
1
 10
199.112372
 20
118.032889
 30
0.0
 10
198.957197
 20
118.319873
 30
0.0
 10
198.857423
 20
118.875743
 30
0.0
 10
198.858051
 20
119.449717
 30
0.0
  0
SPLINE
  5
1f9
100
AcDbEntity
  8
Layer_1
 62
7
100
AcDbSpline
 70
8
 71
3
 72
8
 73
4
 74
0
 40
0
 40
0
 40
0
 40
0
 40
1
 40
1
 40
1
 40
1
 10
198.858051
 20
119.449717
 30
0.0
 10
198.860348
 20
121.309599
 30
0.0
 10
200.440066
 20
123.424291
 30
0.0
 10
202.639938
 20
124.511516
 30
0.0
  0
SPLINE
  5
1fa
100
AcDbEntity
  8
Layer_1
 62
7
100
AcDbSpline
 70
8
 71
3
 72
8
 73
4
 74
0
 40
0
 40
0
 40
0
 40
0
 40
1
 40
1
 40
1
 40
1
 10
202.639938
 20
124.511516
 30
0.0
 10
203.627633
 20
124.999673
 30
0.0
 10
203.980971
 20
125.088007
 30
0.0
 10
205.230789
 20
125.159269
 30
0.0
  0
SPLINE
  5
1fb
100
AcDbEntity
  8
Layer_1
 62
7
100
AcDbSpline
 70
8
 71
3
 72
8
 73
4
 74
0
 40
0
 40
0
 40
0
 40
0
 40
1
 40
1
 40
1
 40
1
 10
205.230789
 20
125.159269
 30
0.0
 10
206.424673
 20
125.227343
 30
0.0
 10
206.665224
 20
125.203306
 30
0.0
 10
206.605186
 20
125.021980
 30
0.0
  0
SPLINE
  5
1fc
100
AcDbEntity
  8
Layer_1
 62
7
100
AcDbSpline
 70
8
 71
3
 72
8
 73
4
 74
0
 40
0
 40
0
 40
0
 40
0
 40
1
 40
1
 40
1
 40
1
 10
206.605186
 20
125.021980
 30
0.0
 10
206.527388
 20
124.786874
 30
0.0
 10
206.339714
 20
124.678781
 30
0.0
 10
204.747267
 20
123.951675
 30
0.0
  0
SPLINE
  5
1fd
100
AcDbEntity
  8
Layer_1
 62
7
100
AcDbSpline
 70
8
 71
3
 72
8
 73
4
 74
0
 40
0
 40
0
 40
0
 40
0
 40
1
 40
1
 40
1
 40
1
 10
204.747267
 20
123.951675
 30
0.0
 10
204.184485
 20
123.694709
 30
0.0
 10
203.415142
 20
123.219744
 30
0.0
 10
203.037650
 20
122.896205
 30
0.0
  0
LWPOLYLINE
  5
1fe
100
AcDbEntity
  8
Layer_1
 62
7
100
AcDbPolyline
 90
1
 70
1
 10
179.058034
 20
104.651870
 30
0.0
  0
SPLINE
  5
1ff
100
AcDbEntity
  8
Layer_1
 62
7
100
AcDbSpline
 70
8
 71
3
 72
8
 73
4
 74
0
 40
0
 40
0
 40
0
 40
0
 40
1
 40
1
 40
1
 40
1
 10
202.463251
 20
121.181582
 30
0.0
 10
200.852246
 20
120.443463
 30
0.0
 10
200.347409
 20
119.723271
 30
0.0
 10
200.650906
 20
118.596133
 30
0.0
  0
SPLINE
  5
200
100
AcDbEntity
  8
Layer_1
 62
7
100
AcDbSpline
 70
8
 71
3
 72
8
 73
4
 74
0
 40
0
 40
0
 40
0
 40
0
 40
1
 40
1
 40
1
 40
1
 10
200.650906
 20
118.596133
 30
0.0
 10
200.973510
 20
117.398077
 30
0.0
 10
202.250527
 20
116.559048
 30
0.0
 10
204.158856
 20
116.291337
 30
0.0
  0
SPLINE
  5
201
100
AcDbEntity
  8
Layer_1
 62
7
100
AcDbSpline
 70
8
 71
3
 72
8
 73
4
 74
0
 40
0
 40
0
 40
0
 40
0
 40
1
 40
1
 40
1
 40
1
 10
204.158856
 20
116.291337
 30
0.0
 10
205.012960
 20
116.171517
 30
0.0
 10
205.209625
 20
115.997666
 30
0.0
 10
204.762037
 20
115.758116
 30
0.0
  0
SPLINE
  5
202
100
AcDbEntity
  8
Layer_1
 62
7
100
AcDbSpline
 70
8
 71
3
 72
8
 73
4
 74
0
 40
0
 40
0
 40
0
 40
0
 40
1
 40
1
 40
1
 40
1
 10
204.762037
 20
115.758116
 30
0.0
 10
204.411431
 20
115.570485
 30
0.0
 10
202.664823
 20
115.558733
 30
0.0
 10
202.071050
 20
115.740026
 30
0.0
  0
LWPOLYLINE
  5
203
100
AcDbEntity
  8
Layer_1
 62
7
100
AcDbPolyline
 90
5
 70
0
 10
203.037650
 20
122.896205
 30
0.0
 10
202.351313
 20
122.307952
 30
0.0
 10
202.957599
 20
121.996908
 30
0.0
 10
203.563873
 20
121.685863
 30
0.0
 10
202.463251
 20
121.181582
 30
0.0
  0
SPLINE
  5
204
100
AcDbEntity
  8
Layer_1
 62
7
100
AcDbSpline
 70
8
 71
3
 72
8
 73
4
 74
0
 40
0
 40
0
 40
0
 40
0
 40
1
 40
1
 40
1
 40
1
 10
146.111192
 20
138.256447
 30
0.0
 10
147.373661
 20
139.427021
 30
0.0
 10
148.565383
 20
140.195710
 30
0.0
 10
149.963246
 20
140.741117
 30
0.0
  0
SPLINE
  5
205
100
AcDbEntity
  8
Layer_1
 62
7
100
AcDbSpline
 70
8
 71
3
 72
8
 73
4
 74
0
 40
0
 40
0
 40
0
 40
0
 40
1
 40
1
 40
1
 40
1
 10
149.963246
 20
140.741117
 30
0.0
 10
151.451754
 20
141.321885
 30
0.0
 10
152.027259
 20
141.428353
 30
0.0
 10
154.185662
 20
141.522253
 30
0.0
  0
SPLINE
  5
206
100
AcDbEntity
  8
Layer_1
 62
7
100
AcDbSpline
 70
8
 71
3
 72
8
 73
4
 74
0
 40
0
 40
0
 40
0
 40
0
 40
1
 40
1
 40
1
 40
1
 10
154.185662
 20
141.522253
 30
0.0
 10
156.598198
 20
141.627214
 30
0.0
 10
156.603281
 20
141.630365
 30
0.0
 10
156.988284
 20
143.266365
 30
0.0
  0
SPLINE
  5
207
100
AcDbEntity
  8
Layer_1
 62
7
100
AcDbSpline
 70
8
 71
3
 72
8
 73
4
 74
0
 40
0
 40
0
 40
0
 40
0
 40
1
 40
1
 40
1
 40
1
 10
156.988284
 20
143.266365
 30
0.0
 10
157.370903
 20
144.892131
 30
0.0
 10
157.464723
 20
144.799306
 30
0.0
 10
154.631367
 20
145.598233
 30
0.0
  0
SPLINE
  5
208
100
AcDbEntity
  8
Layer_1
 62
7
100
AcDbSpline
 70
8
 71
3
 72
8
 73
4
 74
0
 40
0
 40
0
 40
0
 40
0
 40
1
 40
1
 40
1
 40
1
 10
154.631367
 20
145.598233
 30
0.0
 10
151.298465
 20
146.538033
 30
0.0
 10
149.098023
 20
147.506955
 30
0.0
 10
146.804135
 20
149.044841
 30
0.0
  0
LWPOLYLINE
  5
209
100
AcDbEntity
  8
Layer_1
 62
7
100
AcDbPolyline
 90
1
 70
1
 10
202.071050
 20
115.740026
 30
0.0
  0
SPLINE
  5
20a
100
AcDbEntity
  8
Layer_1
 62
7
100
AcDbSpline
 70
8
 71
3
 72
8
 73
4
 74
0
 40
0
 40
0
 40
0
 40
0
 40
1
 40
1
 40
1
 40
1
 10
144.078844
 20
149.507144
 30
0.0
 10
142.122024
 20
148.908403
 30
0.0
 10
140.832924
 20
148.840568
 30
0.0
 10
139.441736
 20
149.263132
 30
0.0
  0
SPLINE
  5
20b
100
AcDbEntity
  8
Layer_1
 62
7
100
AcDbSpline
 70
8
 71
3
 72
8
 73
4
 74
0
 40
0
 40
0
 40
0
 40
0
 40
1
 40
1
 40
1
 40
1
 10
139.441736
 20
149.263132
 30
0.0
 10
138.341684
 20
149.597256
 30
0.0
 10
137.369222
 20
150.229759
 30
0.0
 10
137.369222
 20
150.611102
 30
0.0
  0
SPLINE
  5
20c
100
AcDbEntity
  8
Layer_1
 62
7
100
AcDbSpline
 70
8
 71
3
 72
8
 73
4
 74
0
 40
0
 40
0
 40
0
 40
0
 40
1
 40
1
 40
1
 40
1
 10
137.369222
 20
150.611102
 30
0.0
 10
137.369222
 20
150.762700
 30
0.0
 10
137.868524
 20
150.806455
 30
0.0
 10
139.455097
 20
150.793888
 30
0.0
  0
SPLINE
  5
20d
100
AcDbEntity
  8
Layer_1
 62
7
100
AcDbSpline
 70
8
 71
3
 72
8
 73
4
 74
0
 40
0
 40
0
 40
0
 40
0
 40
1
 40
1
 40
1
 40
1
 10
139.455097
 20
150.793888
 30
0.0
 10
141.104094
 20
150.780799
 30
0.0
 10
141.714531
 20
150.837855
 30
0.0
 10
142.369576
 20
151.066211
 30
0.0
  0
SPLINE
  5
20e
100
AcDbEntity
  8
Layer_1
 62
7
100
AcDbSpline
 70
8
 71
3
 72
8
 73
4
 74
0
 40
0
 40
0
 40
0
 40
0
 40
1
 40
1
 40
1
 40
1
 10
142.369576
 20
151.066211
 30
0.0
 10
143.560936
 20
151.481517
 30
0.0
 10
143.656827
 20
151.615937
 30
0.0
 10
143.475058
 20
152.616037
 30
0.0
  0
SPLINE
  5
20f
100
AcDbEntity
  8
Layer_1
 62
7
100
AcDbSpline
 70
8
 71
3
 72
8
 73
4
 74
0
 40
0
 40
0
 40
0
 40
0
 40
1
 40
1
 40
1
 40
1
 10
143.475058
 20
152.616037
 30
0.0
 10
143.285697
 20
153.657793
 30
0.0
 10
143.471613
 20
154.334633
 30
0.0
 10
144.216446
 20
155.309620
 30
0.0
  0
SPLINE
  5
210
100
AcDbEntity
  8
Layer_1
 62
7
100
AcDbSpline
 70
8
 71
3
 72
8
 73
4
 74
0
 40
0
 40
0
 40
0
 40
0
 40
1
 40
1
 40
1
 40
1
 10
144.216446
 20
155.309620
 30
0.0
 10
144.702735
 20
155.946477
 30
0.0
 10
144.768217
 20
156.142098
 30
0.0
 10
144.768217
 20
156.958180
 30
0.0
  0
SPLINE
  5
211
100
AcDbEntity
  8
Layer_1
 62
7
100
AcDbSpline
 70
8
 71
3
 72
8
 73
4
 74
0
 40
0
 40
0
 40
0
 40
0
 40
1
 40
1
 40
1
 40
1
 10
144.768217
 20
156.958180
 30
0.0
 10
144.768217
 20
158.347506
 30
0.0
 10
145.126473
 20
159.203553
 30
0.0
 10
146.088876
 20
160.113744
 30
0.0
  0
SPLINE
  5
212
100
AcDbEntity
  8
Layer_1
 62
7
100
AcDbSpline
 70
8
 71
3
 72
8
 73
4
 74
0
 40
0
 40
0
 40
0
 40
0
 40
1
 40
1
 40
1
 40
1
 10
146.088876
 20
160.113744
 30
0.0
 10
147.109900
 20
161.079389
 30
0.0
 10
147.705138
 20
161.388284
 30
0.0
 10
149.797560
 20
162.038351
 30
0.0
  0
LWPOLYLINE
  5
213
100
AcDbEntity
  8
Layer_1
 62
7
100
AcDbPolyline
 90
3
 70
0
 10
146.804135
 20
149.044841
 30
0.0
 10
145.476614
 20
149.934832
 30
0.0
 10
144.078844
 20
149.507144
 30
0.0
  0
SPLINE
  5
214
100
AcDbEntity
  8
Layer_1
 62
7
100
AcDbSpline
 70
8
 71
3
 72
8
 73
4
 74
0
 40
0
 40
0
 40
0
 40
0
 40
1
 40
1
 40
1
 40
1
 10
150.985432
 20
162.912826
 30
0.0
 10
150.734555
 20
163.112867
 30
0.0
 10
150.181598
 20
163.359958
 30
0.0
 10
149.756627
 20
163.461903
 30
0.0
  0
SPLINE
  5
215
100
AcDbEntity
  8
Layer_1
 62
7
100
AcDbSpline
 70
8
 71
3
 72
8
 73
4
 74
0
 40
0
 40
0
 40
0
 40
0
 40
1
 40
1
 40
1
 40
1
 10
149.756627
 20
163.461903
 30
0.0
 10
148.209730
 20
163.833000
 30
0.0
 10
146.657532
 20
163.337293
 30
0.0
 10
145.154661
 20
161.992246
 30
0.0
  0
SPLINE
  5
216
100
AcDbEntity
  8
Layer_1
 62
7
100
AcDbSpline
 70
8
 71
3
 72
8
 73
4
 74
0
 40
0
 40
0
 40
0
 40
0
 40
1
 40
1
 40
1
 40
1
 10
145.154661
 20
161.992246
 30
0.0
 10
144.437229
 20
161.350136
 30
0.0
 10
144.286241
 20
161.285233
 30
0.0
 10
143.272673
 20
161.183310
 30
0.0
  0
SPLINE
  5
217
100
AcDbEntity
  8
Layer_1
 62
7
100
AcDbSpline
 70
8
 71
3
 72
8
 73
4
 74
0
 40
0
 40
0
 40
0
 40
0
 40
1
 40
1
 40
1
 40
1
 10
143.272673
 20
161.183310
 30
0.0
 10
140.815249
 20
160.936191
 30
0.0
 10
137.558281
 20
159.418059
 30
0.0
 10
136.146150
 20
157.861503
 30
0.0
  0
SPLINE
  5
218
100
AcDbEntity
  8
Layer_1
 62
7
100
AcDbSpline
 70
8
 71
3
 72
8
 73
4
 74
0
 40
0
 40
0
 40
0
 40
0
 40
1
 40
1
 40
1
 40
1
 10
136.146150
 20
157.861503
 30
0.0
 10
135.753403
 20
157.428580
 30
0.0
 10
135.212644
 20
156.613910
 30
0.0
 10
134.944452
 20
156.051111
 30
0.0
  0
SPLINE
  5
219
100
AcDbEntity
  8
Layer_1
 62
7
100
AcDbSpline
 70
8
 71
3
 72
8
 73
4
 74
0
 40
0
 40
0
 40
0
 40
0
 40
1
 40
1
 40
1
 40
1
 10
134.944452
 20
156.051111
 30
0.0
 10
134.479851
 20
155.076102
 30
0.0
 10
134.456860
 20
154.935048
 30
0.0
 10
134.456860
 20
153.060034
 30
0.0
  0
SPLINE
  5
21a
100
AcDbEntity
  8
Layer_1
 62
7
100
AcDbSpline
 70
8
 71
3
 72
8
 73
4
 74
0
 40
0
 40
0
 40
0
 40
0
 40
1
 40
1
 40
1
 40
1
 10
134.456860
 20
153.060034
 30
0.0
 10
134.456860
 20
150.823341
 30
0.0
 10
134.684748
 20
149.940210
 30
0.0
 10
135.879644
 20
147.546440
 30
0.0
  0
SPLINE
  5
21b
100
AcDbEntity
  8
Layer_1
 62
7
100
AcDbSpline
 70
8
 71
3
 72
8
 73
4
 74
0
 40
0
 40
0
 40
0
 40
0
 40
1
 40
1
 40
1
 40
1
 10
135.879644
 20
147.546440
 30
0.0
 10
136.556190
 20
146.191103
 30
0.0
 10
138.108738
 20
143.969968
 30
0.0
 10
138.802785
 20
143.364486
 30
0.0
  0
SPLINE
  5
21c
100
AcDbEntity
  8
Layer_1
 62
7
100
AcDbSpline
 70
8
 71
3
 72
8
 73
4
 74
0
 40
0
 40
0
 40
0
 40
0
 40
1
 40
1
 40
1
 40
1
 10
138.802785
 20
143.364486
 30
0.0
 10
140.442862
 20
141.933675
 30
0.0
 10
143.028761
 20
141.501037
 30
0.0
 10
145.861442
 20
142.183525
 30
0.0
  0
SPLINE
  5
21d
100
AcDbEntity
  8
Layer_1
 62
7
100
AcDbSpline
 70
8
 71
3
 72
8
 73
4
 74
0
 40
0
 40
0
 40
0
 40
0
 40
1
 40
1
 40
1
 40
1
 10
145.861442
 20
142.183525
 30
0.0
 10
146.592573
 20
142.359684
 30
0.0
 10
147.230152
 20
142.464254
 30
0.0
 10
147.278259
 20
142.415911
 30
0.0
  0
SPLINE
  5
21e
100
AcDbEntity
  8
Layer_1
 62
7
100
AcDbSpline
 70
8
 71
3
 72
8
 73
4
 74
0
 40
0
 40
0
 40
0
 40
0
 40
1
 40
1
 40
1
 40
1
 10
147.278259
 20
142.415911
 30
0.0
 10
147.425014
 20
142.268430
 30
0.0
 10
146.634297
 20
141.706215
 30
0.0
 10
145.555328
 20
141.190880
 30
0.0
  0
SPLINE
  5
21f
100
AcDbEntity
  8
Layer_1
 62
7
100
AcDbSpline
 70
8
 71
3
 72
8
 73
4
 74
0
 40
0
 40
0
 40
0
 40
0
 40
1
 40
1
 40
1
 40
1
 10
145.555328
 20
141.190880
 30
0.0
 10
144.611705
 20
140.740184
 30
0.0
 10
144.403424
 20
140.702146
 30
0.0
 10
142.879111
 20
140.702146
 30
0.0
  0
SPLINE
  5
220
100
AcDbEntity
  8
Layer_1
 62
7
100
AcDbSpline
 70
8
 71
3
 72
8
 73
4
 74
0
 40
0
 40
0
 40
0
 40
0
 40
1
 40
1
 40
1
 40
1
 10
142.879111
 20
140.702146
 30
0.0
 10
141.969967
 20
140.702146
 30
0.0
 10
140.995912
 20
140.753486
 30
0.0
 10
140.714509
 20
140.816282
 30
0.0
  0
SPLINE
  5
221
100
AcDbEntity
  8
Layer_1
 62
7
100
AcDbSpline
 70
8
 71
3
 72
8
 73
4
 74
0
 40
0
 40
0
 40
0
 40
0
 40
1
 40
1
 40
1
 40
1
 10
140.714509
 20
140.816282
 30
0.0
 10
140.212463
 20
140.928278
 30
0.0
 10
140.202870
 20
140.920010
 30
0.0
 10
140.202870
 20
140.375547
 30
0.0
  0
SPLINE
  5
222
100
AcDbEntity
  8
Layer_1
 62
7
100
AcDbSpline
 70
8
 71
3
 72
8
 73
4
 74
0
 40
0
 40
0
 40
0
 40
0
 40
1
 40
1
 40
1
 40
1
 10
140.202870
 20
140.375547
 30
0.0
 10
140.202870
 20
138.687182
 30
0.0
 10
142.078509
 20
137.204840
 30
0.0
 10
144.258135
 20
137.170608
 30
0.0
  0
SPLINE
  5
223
100
AcDbEntity
  8
Layer_1
 62
7
100
AcDbSpline
 70
8
 71
3
 72
8
 73
4
 74
0
 40
0
 40
0
 40
0
 40
0
 40
1
 40
1
 40
1
 40
1
 10
144.258135
 20
137.170608
 30
0.0
 10
144.875654
 20
137.160953
 30
0.0
 10
145.022373
 20
137.246892
 30
0.0
 10
146.111192
 20
138.256453
 30
0.0
  0
LWPOLYLINE
  5
224
100
AcDbEntity
  8
Layer_1
 62
7
100
AcDbPolyline
 90
3
 70
0
 10
149.797560
 20
162.038351
 30
0.0
 10
151.441591
 20
162.549112
 30
0.0
 10
150.985432
 20
162.912826
 30
0.0
  0
SPLINE
  5
225
100
AcDbEntity
  8
Layer_1
 62
7
100
AcDbSpline
 70
8
 71
3
 72
8
 73
4
 74
0
 40
0
 40
0
 40
0
 40
0
 40
1
 40
1
 40
1
 40
1
 10
180.312168
 20
153.335527
 30
0.0
 10
181.679284
 20
155.072825
 30
0.0
 10
182.250719
 20
157.654100
 30
0.0
 10
181.749731
 20
159.829318
 30
0.0
  0
SPLINE
  5
226
100
AcDbEntity
  8
Layer_1
 62
7
100
AcDbSpline
 70
8
 71
3
 72
8
 73
4
 74
0
 40
0
 40
0
 40
0
 40
0
 40
1
 40
1
 40
1
 40
1
 10
181.749731
 20
159.829318
 30
0.0
 10
181.480038
 20
161.000314
 30
0.0
 10
180.680425
 20
162.430233
 30
0.0
 10
179.778945
 20
163.353556
 30
0.0
  0
SPLINE
  5
227
100
AcDbEntity
  8
Layer_1
 62
7
100
AcDbSpline
 70
8
 71
3
 72
8
 73
4
 74
0
 40
0
 40
0
 40
0
 40
0
 40
1
 40
1
 40
1
 40
1
 10
179.778945
 20
163.353556
 30
0.0
 10
177.356489
 20
165.834726
 30
0.0
 10
173.846831
 20
166.444218
 30
0.0
 10
170.660869
 20
164.937023
 30
0.0
  0
SPLINE
  5
228
100
AcDbEntity
  8
Layer_1
 62
7
100
AcDbSpline
 70
8
 71
3
 72
8
 73
4
 74
0
 40
0
 40
0
 40
0
 40
0
 40
1
 40
1
 40
1
 40
1
 10
170.660869
 20
164.937023
 30
0.0
 10
168.467126
 20
163.899211
 30
0.0
 10
166.639536
 20
161.421308
 30
0.0
 10
166.292826
 20
159.014661
 30
0.0
  0
SPLINE
  5
229
100
AcDbEntity
  8
Layer_1
 62
7
100
AcDbSpline
 70
8
 71
3
 72
8
 73
4
 74
0
 40
0
 40
0
 40
0
 40
0
 40
1
 40
1
 40
1
 40
1
 10
166.292826
 20
159.014661
 30
0.0
 10
166.017692
 20
157.104862
 30
0.0
 10
166.187819
 20
156.871417
 30
0.0
 10
168.066564
 20
156.580394
 30
0.0
  0
LWPOLYLINE
  5
22a
100
AcDbEntity
  8
Layer_1
 62
7
100
AcDbPolyline
 90
1
 70
1
 10
146.111192
 20
138.256453
 30
0.0
  0
SPLINE
  5
22b
100
AcDbEntity
  8
Layer_1
 62
7
100
AcDbSpline
 70
8
 71
3
 72
8
 73
4
 74
0
 40
0
 40
0
 40
0
 40
0
 40
1
 40
1
 40
1
 40
1
 10
168.342048
 20
157.037561
 30
0.0
 10
168.104276
 20
157.349302
 30
0.0
 10
167.910542
 20
157.733059
 30
0.0
 10
167.911542
 20
157.890358
 30
0.0
  0
SPLINE
  5
22c
100
AcDbEntity
  8
Layer_1
 62
7
100
AcDbSpline
 70
8
 71
3
 72
8
 73
4
 74
0
 40
0
 40
0
 40
0
 40
0
 40
1
 40
1
 40
1
 40
1
 10
167.911542
 20
157.890358
 30
0.0
 10
167.913838
 20
158.160331
 30
0.0
 10
171.525509
 20
163.349359
 30
0.0
 10
172.151343
 20
163.980842
 30
0.0
  0
SPLINE
  5
22d
100
AcDbEntity
  8
Layer_1
 62
7
100
AcDbSpline
 70
8
 71
3
 72
8
 73
4
 74
0
 40
0
 40
0
 40
0
 40
0
 40
1
 40
1
 40
1
 40
1
 10
172.151343
 20
163.980842
 30
0.0
 10
172.311935
 20
164.142872
 30
0.0
 10
172.513170
 20
164.232270
 30
0.0
 10
172.598547
 20
164.179505
 30
0.0
  0
SPLINE
  5
22e
100
AcDbEntity
  8
Layer_1
 62
7
100
AcDbSpline
 70
8
 71
3
 72
8
 73
4
 74
0
 40
0
 40
0
 40
0
 40
0
 40
1
 40
1
 40
1
 40
1
 10
172.598547
 20
164.179505
 30
0.0
 10
172.684017
 20
164.126739
 30
0.0
 10
173.046822
 20
163.356594
 30
0.0
 10
173.404998
 20
162.468079
 30
0.0
  0
SPLINE
  5
22f
100
AcDbEntity
  8
Layer_1
 62
7
100
AcDbSpline
 70
8
 71
3
 72
8
 73
4
 74
0
 40
0
 40
0
 40
0
 40
0
 40
1
 40
1
 40
1
 40
1
 10
173.404998
 20
162.468079
 30
0.0
 10
174.274709
 20
160.310524
 30
0.0
 10
174.223356
 20
160.378073
 30
0.0
 10
174.776197
 20
160.664213
 30
0.0
  0
SPLINE
  5
230
100
AcDbEntity
  8
Layer_1
 62
7
100
AcDbSpline
 70
8
 71
3
 72
8
 73
4
 74
0
 40
0
 40
0
 40
0
 40
0
 40
1
 40
1
 40
1
 40
1
 10
174.776197
 20
160.664213
 30
0.0
 10
175.025806
 20
160.793390
 30
0.0
 10
175.655071
 20
161.231044
 30
0.0
 10
176.174571
 20
161.636777
 30
0.0
  0
SPLINE
  5
231
100
AcDbEntity
  8
Layer_1
 62
7
100
AcDbSpline
 70
8
 71
3
 72
8
 73
4
 74
0
 40
0
 40
0
 40
0
 40
0
 40
1
 40
1
 40
1
 40
1
 10
176.174571
 20
161.636777
 30
0.0
 10
177.398271
 20
162.592480
 30
0.0
 10
177.932448
 20
162.875292
 30
0.0
 10
178.075806
 20
162.643346
 30
0.0
  0
SPLINE
  5
232
100
AcDbEntity
  8
Layer_1
 62
7
100
AcDbSpline
 70
8
 71
3
 72
8
 73
4
 74
0
 40
0
 40
0
 40
0
 40
0
 40
1
 40
1
 40
1
 40
1
 10
178.075806
 20
162.643346
 30
0.0
 10
178.176046
 20
162.481102
 30
0.0
 10
178.598807
 20
156.869957
 30
0.0
 10
178.609842
 20
155.554885
 30
0.0
  0
SPLINE
  5
233
100
AcDbEntity
  8
Layer_1
 62
7
100
AcDbSpline
 70
8
 71
3
 72
8
 73
4
 74
0
 40
0
 40
0
 40
0
 40
0
 40
1
 40
1
 40
1
 40
1
 10
178.609842
 20
155.554885
 30
0.0
 10
178.613287
 20
155.048314
 30
0.0
 10
178.554957
 20
154.959137
 30
0.0
 10
178.112890
 20
154.805021
 30
0.0
  0
SPLINE
  5
234
100
AcDbEntity
  8
Layer_1
 62
7
100
AcDbSpline
 70
8
 71
3
 72
8
 73
4
 74
0
 40
0
 40
0
 40
0
 40
0
 40
1
 40
1
 40
1
 40
1
 10
178.112890
 20
154.805021
 30
0.0
 10
177.836929
 20
154.708821
 30
0.0
 10
177.225015
 20
154.584726
 30
0.0
 10
176.753111
 20
154.529267
 30
0.0
  0
LWPOLYLINE
  5
235
100
AcDbEntity
  8
Layer_1
 62
7
100
AcDbPolyline
 90
3
 70
0
 10
168.066564
 20
156.580394
 30
0.0
 10
168.774380
 20
156.470758
 30
0.0
 10
168.342048
 20
157.037561
 30
0.0
  0
SPLINE
  5
236
100
AcDbEntity
  8
Layer_1
 62
7
100
AcDbSpline
 70
8
 71
3
 72
8
 73
4
 74
0
 40
0
 40
0
 40
0
 40
0
 40
1
 40
1
 40
1
 40
1
 10
176.009270
 20
156.341748
 30
0.0
 10
176.142627
 20
158.576042
 30
0.0
 10
176.131324
 20
158.588322
 30
0.0
 10
174.823979
 20
157.628622
 30
0.0
  0
SPLINE
  5
237
100
AcDbEntity
  8
Layer_1
 62
7
100
AcDbSpline
 70
8
 71
3
 72
8
 73
4
 74
0
 40
0
 40
0
 40
0
 40
0
 40
1
 40
1
 40
1
 40
1
 10
174.823979
 20
157.628622
 30
0.0
 10
173.496377
 20
156.654035
 30
0.0
 10
173.296189
 20
156.574139
 30
0.0
 10
173.044474
 20
156.918384
 30
0.0
  0
SPLINE
  5
238
100
AcDbEntity
  8
Layer_1
 62
7
100
AcDbSpline
 70
8
 71
3
 72
8
 73
4
 74
0
 40
0
 40
0
 40
0
 40
0
 40
1
 40
1
 40
1
 40
1
 10
173.044474
 20
156.918384
 30
0.0
 10
172.927640
 20
157.078171
 30
0.0
 10
172.704369
 20
157.568260
 30
0.0
 10
172.548336
 20
158.007478
 30
0.0
  0
SPLINE
  5
239
100
AcDbEntity
  8
Layer_1
 62
7
100
AcDbSpline
 70
8
 71
3
 72
8
 73
4
 74
0
 40
0
 40
0
 40
0
 40
0
 40
1
 40
1
 40
1
 40
1
 10
172.548336
 20
158.007478
 30
0.0
 10
172.392290
 20
158.446696
 30
0.0
 10
172.156565
 20
158.973955
 30
0.0
 10
172.024509
 20
159.179157
 30
0.0
  0
LWPOLYLINE
  5
23a
100
AcDbEntity
  8
Layer_1
 62
7
100
AcDbPolyline
 90
3
 70
0
 10
176.753111
 20
154.529267
 30
0.0
 10
175.895076
 20
154.428421
 30
0.0
 10
176.009270
 20
156.341748
 30
0.0
  0
SPLINE
  5
23b
100
AcDbEntity
  8
Layer_1
 62
7
100
AcDbSpline
 70
8
 71
3
 72
8
 73
4
 74
0
 40
0
 40
0
 40
0
 40
0
 40
1
 40
1
 40
1
 40
1
 10
171.477472
 20
159.179157
 30
0.0
 10
171.308658
 20
158.973955
 30
0.0
 10
170.885512
 20
158.215394
 30
0.0
 10
170.537140
 20
157.493469
 30
0.0
  0
SPLINE
  5
23c
100
AcDbEntity
  8
Layer_1
 62
7
100
AcDbSpline
 70
8
 71
3
 72
8
 73
4
 74
0
 40
0
 40
0
 40
0
 40
0
 40
1
 40
1
 40
1
 40
1
 10
170.537140
 20
157.493469
 30
0.0
 10
170.019407
 20
156.420561
 30
0.0
 10
169.944297
 20
156.155800
 30
0.0
 10
170.125914
 20
156.043568
 30
0.0
  0
SPLINE
  5
23d
100
AcDbEntity
  8
Layer_1
 62
7
100
AcDbSpline
 70
8
 71
3
 72
8
 73
4
 74
0
 40
0
 40
0
 40
0
 40
0
 40
1
 40
1
 40
1
 40
1
 10
170.125914
 20
156.043568
 30
0.0
 10
170.248096
 20
155.968035
 30
0.0
 10
171.694452
 20
155.446057
 30
0.0
 10
173.340029
 20
154.883580
 30
0.0
  0
SPLINE
  5
23e
100
AcDbEntity
  8
Layer_1
 62
7
100
AcDbSpline
 70
8
 71
3
 72
8
 73
4
 74
0
 40
0
 40
0
 40
0
 40
0
 40
1
 40
1
 40
1
 40
1
 10
173.340029
 20
154.883580
 30
0.0
 10
174.985606
 20
154.321103
 30
0.0
 10
176.898726
 20
153.614566
 30
0.0
 10
177.591401
 20
153.313506
 30
0.0
  0
SPLINE
  5
23f
100
AcDbEntity
  8
Layer_1
 62
7
100
AcDbSpline
 70
8
 71
3
 72
8
 73
4
 74
0
 40
0
 40
0
 40
0
 40
0
 40
1
 40
1
 40
1
 40
1
 10
177.591401
 20
153.313506
 30
0.0
 10
179.283470
 20
152.578065
 30
0.0
 10
179.718871
 20
152.581587
 30
0.0
 10
180.312168
 20
153.335531
 30
0.0
  0
LWPOLYLINE
  5
240
100
AcDbEntity
  8
Layer_1
 62
7
100
AcDbPolyline
 90
3
 70
0
 10
172.024509
 20
159.179157
 30
0.0
 10
171.784411
 20
159.552254
 30
0.0
 10
171.477472
 20
159.179157
 30
0.0
  0
SPLINE
  5
241
100
AcDbEntity
  8
Layer_1
 62
7
100
AcDbSpline
 70
8
 71
3
 72
8
 73
4
 74
0
 40
0
 40
0
 40
0
 40
0
 40
1
 40
1
 40
1
 40
1
 10
148.324983
 20
157.630950
 30
0.0
 10
149.570870
 20
158.060290
 30
0.0
 10
151.645046
 20
158.381194
 30
0.0
 10
154.349755
 20
158.563060
 30
0.0
  0
SPLINE
  5
242
100
AcDbEntity
  8
Layer_1
 62
7
100
AcDbSpline
 70
8
 71
3
 72
8
 73
4
 74
0
 40
0
 40
0
 40
0
 40
0
 40
1
 40
1
 40
1
 40
1
 10
154.349755
 20
158.563060
 30
0.0
 10
155.577629
 20
158.645617
 30
0.0
 10
156.656098
 20
158.758812
 30
0.0
 10
156.746349
 20
158.814599
 30
0.0
  0
SPLINE
  5
243
100
AcDbEntity
  8
Layer_1
 62
7
100
AcDbSpline
 70
8
 71
3
 72
8
 73
4
 74
0
 40
0
 40
0
 40
0
 40
0
 40
1
 40
1
 40
1
 40
1
 10
156.746349
 20
158.814599
 30
0.0
 10
156.994330
 20
158.967857
 30
0.0
 10
156.454561
 20
159.487417
 30
0.0
 10
155.551848
 20
159.964407
 30
0.0
  0
SPLINE
  5
244
100
AcDbEntity
  8
Layer_1
 62
7
100
AcDbSpline
 70
8
 71
3
 72
8
 73
4
 74
0
 40
0
 40
0
 40
0
 40
0
 40
1
 40
1
 40
1
 40
1
 10
155.551848
 20
159.964407
 30
0.0
 10
154.828240
 20
160.346744
 30
0.0
 10
154.618610
 20
160.379462
 30
0.0
 10
152.954322
 20
160.369847
 30
0.0
  0
SPLINE
  5
245
100
AcDbEntity
  8
Layer_1
 62
7
100
AcDbSpline
 70
8
 71
3
 72
8
 73
4
 74
0
 40
0
 40
0
 40
0
 40
0
 40
1
 40
1
 40
1
 40
1
 10
152.954322
 20
160.369847
 30
0.0
 10
151.408181
 20
160.360974
 30
0.0
 10
150.961977
 20
160.296569
 30
0.0
 10
149.897346
 20
159.929123
 30
0.0
  0
SPLINE
  5
246
100
AcDbEntity
  8
Layer_1
 62
7
100
AcDbSpline
 70
8
 71
3
 72
8
 73
4
 74
0
 40
0
 40
0
 40
0
 40
0
 40
1
 40
1
 40
1
 40
1
 10
149.897346
 20
159.929123
 30
0.0
 10
148.495866
 20
159.445418
 30
0.0
 10
147.605863
 20
158.822024
 30
0.0
 10
147.240909
 20
158.068460
 30
0.0
  0
SPLINE
  5
247
100
AcDbEntity
  8
Layer_1
 62
7
100
AcDbSpline
 70
8
 71
3
 72
8
 73
4
 74
0
 40
0
 40
0
 40
0
 40
0
 40
1
 40
1
 40
1
 40
1
 10
147.240909
 20
158.068460
 30
0.0
 10
146.832578
 20
157.225360
 30
0.0
 10
146.977890
 20
157.166717
 30
0.0
 10
148.324983
 20
157.630950
 30
0.0
  0
LWPOLYLINE
  5
248
100
AcDbEntity
  8
Layer_1
 62
7
100
AcDbPolyline
 90
1
 70
1
 10
180.312168
 20
153.335531
 30
0.0
  0
SPLINE
  5
249
100
AcDbEntity
  8
Layer_1
 62
7
100
AcDbSpline
 70
8
 71
3
 72
8
 73
4
 74
0
 40
0
 40
0
 40
0
 40
0
 40
1
 40
1
 40
1
 40
1
 10
37.881079
 20
88.409943
 30
0.0
 10
37.312938
 20
88.701780
 30
0.0
 10
37.100276
 20
89.203961
 30
0.0
 10
37.181738
 20
90.061371
 30
0.0
  0
SPLINE
  5
24a
100
AcDbEntity
  8
Layer_1
 62
7
100
AcDbSpline
 70
8
 71
3
 72
8
 73
4
 74
0
 40
0
 40
0
 40
0
 40
0
 40
1
 40
1
 40
1
 40
1
 10
37.181738
 20
90.061371
 30
0.0
 10
37.279650
 20
91.091526
 30
0.0
 10
37.708146
 20
93.959602
 30
0.0
 10
38.367247
 20
97.995808
 30
0.0
  0
SPLINE
  5
24b
100
AcDbEntity
  8
Layer_1
 62
7
100
AcDbSpline
 70
8
 71
3
 72
8
 73
4
 74
0
 40
0
 40
0
 40
0
 40
0
 40
1
 40
1
 40
1
 40
1
 10
38.367247
 20
97.995808
 30
0.0
 10
40.055366
 20
108.333498
 30
0.0
 10
41.039812
 20
115.177800
 30
0.0
 10
41.053643
 20
116.672934
 30
0.0
  0
SPLINE
  5
24c
100
AcDbEntity
  8
Layer_1
 62
7
100
AcDbSpline
 70
8
 71
3
 72
8
 73
4
 74
0
 40
0
 40
0
 40
0
 40
0
 40
1
 40
1
 40
1
 40
1
 10
41.053643
 20
116.672934
 30
0.0
 10
41.065334
 20
117.933757
 30
0.0
 10
41.055730
 20
117.990062
 30
0.0
 10
40.708476
 20
118.696136
 30
0.0
  0
SPLINE
  5
24d
100
AcDbEntity
  8
Layer_1
 62
7
100
AcDbSpline
 70
8
 71
3
 72
8
 73
4
 74
0
 40
0
 40
0
 40
0
 40
0
 40
1
 40
1
 40
1
 40
1
 10
40.708476
 20
118.696136
 30
0.0
 10
40.223863
 20
119.681584
 30
0.0
 10
38.667894
 20
121.326415
 30
0.0
 10
30.220066
 20
129.783554
 30
0.0
  0
SPLINE
  5
24e
100
AcDbEntity
  8
Layer_1
 62
7
100
AcDbSpline
 70
8
 71
3
 72
8
 73
4
 74
0
 40
0
 40
0
 40
0
 40
0
 40
1
 40
1
 40
1
 40
1
 10
30.220066
 20
129.783554
 30
0.0
 10
21.850390
 20
138.162448
 30
0.0
 10
20.989577
 20
139.057655
 30
0.0
 10
20.826195
 20
139.552738
 30
0.0
  0
SPLINE
  5
24f
100
AcDbEntity
  8
Layer_1
 62
7
100
AcDbSpline
 70
8
 71
3
 72
8
 73
4
 74
0
 40
0
 40
0
 40
0
 40
0
 40
1
 40
1
 40
1
 40
1
 10
20.826195
 20
139.552738
 30
0.0
 10
20.557260
 20
140.367591
 30
0.0
 10
21.055996
 20
141.044469
 30
0.0
 10
22.105765
 20
141.289354
 30
0.0
  0
SPLINE
  5
250
100
AcDbEntity
  8
Layer_1
 62
7
100
AcDbSpline
 70
8
 71
3
 72
8
 73
4
 74
0
 40
0
 40
0
 40
0
 40
0
 40
1
 40
1
 40
1
 40
1
 10
22.105765
 20
141.289354
 30
0.0
 10
22.902236
 20
141.475168
 30
0.0
 10
27.178598
 20
142.193058
 30
0.0
 10
29.784711
 20
142.578465
 30
0.0
  0
SPLINE
  5
251
100
AcDbEntity
  8
Layer_1
 62
7
100
AcDbSpline
 70
8
 71
3
 72
8
 73
4
 74
0
 40
0
 40
0
 40
0
 40
0
 40
1
 40
1
 40
1
 40
1
 10
29.784711
 20
142.578465
 30
0.0
 10
32.748257
 20
143.016742
 30
0.0
 10
36.816707
 20
143.669403
 30
0.0
 10
39.878175
 20
144.197680
 30
0.0
  0
SPLINE
  5
252
100
AcDbEntity
  8
Layer_1
 62
7
100
AcDbSpline
 70
8
 71
3
 72
8
 73
4
 74
0
 40
0
 40
0
 40
0
 40
0
 40
1
 40
1
 40
1
 40
1
 10
39.878175
 20
144.197680
 30
0.0
 10
41.421889
 20
144.464057
 30
0.0
 10
43.601322
 20
144.830623
 30
0.0
 10
44.721373
 20
145.012282
 30
0.0
  0
SPLINE
  5
253
100
AcDbEntity
  8
Layer_1
 62
7
100
AcDbSpline
 70
8
 71
3
 72
8
 73
4
 74
0
 40
0
 40
0
 40
0
 40
0
 40
1
 40
1
 40
1
 40
1
 10
44.721373
 20
145.012282
 30
0.0
 10
48.729405
 20
145.662313
 30
0.0
 10
49.625980
 20
145.929264
 30
0.0
 10
50.438735
 20
146.714597
 30
0.0
  0
SPLINE
  5
254
100
AcDbEntity
  8
Layer_1
 62
7
100
AcDbSpline
 70
8
 71
3
 72
8
 73
4
 74
0
 40
0
 40
0
 40
0
 40
0
 40
1
 40
1
 40
1
 40
1
 10
50.438735
 20
146.714597
 30
0.0
 10
51.312617
 20
147.559001
 30
0.0
 10
51.158484
 20
147.285306
 30
0.0
 10
56.043905
 20
156.667486
 30
0.0
  0
SPLINE
  5
255
100
AcDbEntity
  8
Layer_1
 62
7
100
AcDbSpline
 70
8
 71
3
 72
8
 73
4
 74
0
 40
0
 40
0
 40
0
 40
0
 40
1
 40
1
 40
1
 40
1
 10
56.043905
 20
156.667486
 30
0.0
 10
57.141430
 20
158.775239
 30
0.0
 10
58.943881
 20
162.297164
 30
0.0
 10
60.049328
 20
164.493977
 30
0.0
  0
SPLINE
  5
256
100
AcDbEntity
  8
Layer_1
 62
7
100
AcDbSpline
 70
8
 71
3
 72
8
 73
4
 74
0
 40
0
 40
0
 40
0
 40
0
 40
1
 40
1
 40
1
 40
1
 10
60.049328
 20
164.493977
 30
0.0
 10
63.784637
 20
171.916989
 30
0.0
 10
64.035252
 20
172.320468
 30
0.0
 10
64.910575
 20
172.320468
 30
0.0
  0
SPLINE
  5
257
100
AcDbEntity
  8
Layer_1
 62
7
100
AcDbSpline
 70
8
 71
3
 72
8
 73
4
 74
0
 40
0
 40
0
 40
0
 40
0
 40
1
 40
1
 40
1
 40
1
 10
64.910575
 20
172.320468
 30
0.0
 10
65.610156
 20
172.320468
 30
0.0
 10
65.996001
 20
171.991901
 30
0.0
 10
66.621961
 20
170.863123
 30
0.0
  0
SPLINE
  5
258
100
AcDbEntity
  8
Layer_1
 62
7
100
AcDbSpline
 70
8
 71
3
 72
8
 73
4
 74
0
 40
0
 40
0
 40
0
 40
0
 40
1
 40
1
 40
1
 40
1
 10
66.621961
 20
170.863123
 30
0.0
 10
66.918286
 20
170.328762
 30
0.0
 10
68.556739
 20
167.146889
 30
0.0
 10
70.262969
 20
163.792294
 30
0.0
  0
SPLINE
  5
259
100
AcDbEntity
  8
Layer_1
 62
7
100
AcDbSpline
 70
8
 71
3
 72
8
 73
4
 74
0
 40
0
 40
0
 40
0
 40
0
 40
1
 40
1
 40
1
 40
1
 10
70.262969
 20
163.792294
 30
0.0
 10
73.013330
 20
158.384854
 30
0.0
 10
77.064359
 20
150.595876
 30
0.0
 10
78.283324
 20
148.371432
 30
0.0
  0
SPLINE
  5
25a
100
AcDbEntity
  8
Layer_1
 62
7
100
AcDbSpline
 70
8
 71
3
 72
8
 73
4
 74
0
 40
0
 40
0
 40
0
 40
0
 40
1
 40
1
 40
1
 40
1
 10
78.283324
 20
148.371432
 30
0.0
 10
79.231308
 20
146.641497
 30
0.0
 10
80.213739
 20
145.937448
 30
0.0
 10
82.221565
 20
145.549160
 30
0.0
  0
SPLINE
  5
25b
100
AcDbEntity
  8
Layer_1
 62
7
100
AcDbSpline
 70
8
 71
3
 72
8
 73
4
 74
0
 40
0
 40
0
 40
0
 40
0
 40
1
 40
1
 40
1
 40
1
 10
82.221565
 20
145.549160
 30
0.0
 10
84.133880
 20
145.179349
 30
0.0
 10
95.412352
 20
143.300771
 30
0.0
 10
98.765761
 20
142.793496
 30
0.0
  0
SPLINE
  5
25c
100
AcDbEntity
  8
Layer_1
 62
7
100
AcDbSpline
 70
8
 71
3
 72
8
 73
4
 74
0
 40
0
 40
0
 40
0
 40
0
 40
1
 40
1
 40
1
 40
1
 10
98.765761
 20
142.793496
 30
0.0
 10
102.584577
 20
142.215835
 30
0.0
 10
107.601626
 20
141.379709
 30
0.0
 10
108.176647
 20
141.225105
 30
0.0
  0
SPLINE
  5
25d
100
AcDbEntity
  8
Layer_1
 62
7
100
AcDbSpline
 70
8
 71
3
 72
8
 73
4
 74
0
 40
0
 40
0
 40
0
 40
0
 40
1
 40
1
 40
1
 40
1
 10
108.176647
 20
141.225105
 30
0.0
 10
108.936395
 20
141.020847
 30
0.0
 10
109.383900
 20
140.171558
 30
0.0
 10
109.095497
 20
139.481298
 30
0.0
  0
SPLINE
  5
25e
100
AcDbEntity
  8
Layer_1
 62
7
100
AcDbSpline
 70
8
 71
3
 72
8
 73
4
 74
0
 40
0
 40
0
 40
0
 40
0
 40
1
 40
1
 40
1
 40
1
 10
109.095497
 20
139.481298
 30
0.0
 10
108.877470
 20
138.959492
 30
0.0
 10
108.035968
 20
138.087114
 30
0.0
 10
99.744820
 20
129.787552
 30
0.0
  0
SPLINE
  5
25f
100
AcDbEntity
  8
Layer_1
 62
7
100
AcDbSpline
 70
8
 71
3
 72
8
 73
4
 74
0
 40
0
 40
0
 40
0
 40
0
 40
1
 40
1
 40
1
 40
1
 10
99.744820
 20
129.787552
 30
0.0
 10
91.179101
 20
121.213137
 30
0.0
 10
89.782891
 20
119.741354
 30
0.0
 10
89.288164
 20
118.764873
 30
0.0
  0
SPLINE
  5
260
100
AcDbEntity
  8
Layer_1
 62
7
100
AcDbSpline
 70
8
 71
3
 72
8
 73
4
 74
0
 40
0
 40
0
 40
0
 40
0
 40
1
 40
1
 40
1
 40
1
 10
89.288164
 20
118.764873
 30
0.0
 10
88.842506
 20
117.885250
 30
0.0
 10
88.753394
 20
116.848195
 30
0.0
 10
88.978425
 20
115.160107
 30
0.0
  0
SPLINE
  5
261
100
AcDbEntity
  8
Layer_1
 62
7
100
AcDbSpline
 70
8
 71
3
 72
8
 73
4
 74
0
 40
0
 40
0
 40
0
 40
0
 40
1
 40
1
 40
1
 40
1
 10
88.978425
 20
115.160107
 30
0.0
 10
89.287976
 20
112.838023
 30
0.0
 10
90.568245
 20
104.311958
 30
0.0
 10
91.110040
 20
100.964478
 30
0.0
  0
SPLINE
  5
262
100
AcDbEntity
  8
Layer_1
 62
7
100
AcDbSpline
 70
8
 71
3
 72
8
 73
4
 74
0
 40
0
 40
0
 40
0
 40
0
 40
1
 40
1
 40
1
 40
1
 10
91.110040
 20
100.964478
 30
0.0
 10
92.172941
 20
94.397316
 30
0.0
 10
92.493671
 20
92.331160
 30
0.0
 10
92.674026
 20
90.889115
 30
0.0
  0
SPLINE
  5
263
100
AcDbEntity
  8
Layer_1
 62
7
100
AcDbSpline
 70
8
 71
3
 72
8
 73
4
 74
0
 40
0
 40
0
 40
0
 40
0
 40
1
 40
1
 40
1
 40
1
 10
92.674026
 20
90.889115
 30
0.0
 10
92.849808
 20
89.483606
 30
0.0
 10
92.849098
 20
89.420046
 30
0.0
 10
92.653253
 20
89.019087
 30
0.0
  0
SPLINE
  5
264
100
AcDbEntity
  8
Layer_1
 62
7
100
AcDbSpline
 70
8
 71
3
 72
8
 73
4
 74
0
 40
0
 40
0
 40
0
 40
0
 40
1
 40
1
 40
1
 40
1
 10
92.653253
 20
89.019087
 30
0.0
 10
92.390738
 20
88.481530
 30
0.0
 10
91.798359
 20
88.172626
 30
0.0
 10
91.233307
 20
88.278628
 30
0.0
  0
SPLINE
  5
265
100
AcDbEntity
  8
Layer_1
 62
7
100
AcDbSpline
 70
8
 71
3
 72
8
 73
4
 74
0
 40
0
 40
0
 40
0
 40
0
 40
1
 40
1
 40
1
 40
1
 10
91.233307
 20
88.278628
 30
0.0
 10
91.014289
 20
88.319755
 30
0.0
 10
88.769657
 20
89.400099
 30
0.0
 10
86.245245
 20
90.679471
 30
0.0
  0
SPLINE
  5
266
100
AcDbEntity
  8
Layer_1
 62
7
100
AcDbSpline
 70
8
 71
3
 72
8
 73
4
 74
0
 40
0
 40
0
 40
0
 40
0
 40
1
 40
1
 40
1
 40
1
 10
86.245245
 20
90.679471
 30
0.0
 10
72.361442
 20
97.715746
 30
0.0
 10
67.214945
 20
100.247663
 30
0.0
 10
66.215531
 20
100.533477
 30
0.0
  0
SPLINE
  5
267
100
AcDbEntity
  8
Layer_1
 62
7
100
AcDbSpline
 70
8
 71
3
 72
8
 73
4
 74
0
 40
0
 40
0
 40
0
 40
0
 40
1
 40
1
 40
1
 40
1
 10
66.215531
 20
100.533477
 30
0.0
 10
65.267098
 20
100.804708
 30
0.0
 10
64.687631
 20
100.804719
 30
0.0
 10
63.735096
 20
100.533560
 30
0.0
  0
SPLINE
  5
268
100
AcDbEntity
  8
Layer_1
 62
7
100
AcDbSpline
 70
8
 71
3
 72
8
 73
4
 74
0
 40
0
 40
0
 40
0
 40
0
 40
1
 40
1
 40
1
 40
1
 10
63.735096
 20
100.533560
 30
0.0
 10
62.931997
 20
100.304938
 30
0.0
 10
57.764623
 20
97.797290
 30
0.0
 10
50.673296
 20
94.194894
 30
0.0
  0
SPLINE
  5
269
100
AcDbEntity
  8
Layer_1
 62
7
100
AcDbSpline
 70
8
 71
3
 72
8
 73
4
 74
0
 40
0
 40
0
 40
0
 40
0
 40
1
 40
1
 40
1
 40
1
 10
50.673296
 20
94.194894
 30
0.0
 10
42.416773
 20
90.000557
 30
0.0
 10
39.012299
 20
88.324902
 30
0.0
 10
38.636694
 20
88.270538
 30
0.0
  0
SPLINE
  5
26a
100
AcDbEntity
  8
Layer_1
 62
7
100
AcDbSpline
 70
8
 71
3
 72
8
 73
4
 74
0
 40
0
 40
0
 40
0
 40
0
 40
1
 40
1
 40
1
 40
1
 10
38.636694
 20
88.270538
 30
0.0
 10
38.391872
 20
88.235152
 30
0.0
 10
38.125859
 20
88.284213
 30
0.0
 10
37.881037
 20
88.409943
 30
0.0
  0
LWPOLYLINE
  5
26b
100
AcDbEntity
  8
Layer_1
 62
7
100
AcDbPolyline
 90
1
 70
1
 10
148.324983
 20
157.630950
 30
0.0
  0
SPLINE
  5
26c
100
AcDbEntity
  8
Layer_1
 62
7
100
AcDbSpline
 70
8
 71
3
 72
8
 73
4
 74
0
 40
0
 40
0
 40
0
 40
0
 40
1
 40
1
 40
1
 40
1
 10
58.550708
 20
122.383188
 30
0.0
 10
59.803608
 20
123.338823
 30
0.0
 10
60.181165
 20
125.738288
 30
0.0
 10
60.089641
 20
132.163562
 30
0.0
  0
SPLINE
  5
26d
100
AcDbEntity
  8
Layer_1
 62
7
100
AcDbSpline
 70
8
 71
3
 72
8
 73
4
 74
0
 40
0
 40
0
 40
0
 40
0
 40
1
 40
1
 40
1
 40
1
 10
60.089641
 20
132.163562
 30
0.0
 10
60.027429
 20
136.529308
 30
0.0
 10
59.834308
 20
137.499035
 30
0.0
 10
58.868265
 20
138.295328
 30
0.0
  0
SPLINE
  5
26e
100
AcDbEntity
  8
Layer_1
 62
7
100
AcDbSpline
 70
8
 71
3
 72
8
 73
4
 74
0
 40
0
 40
0
 40
0
 40
0
 40
1
 40
1
 40
1
 40
1
 10
58.868265
 20
138.295328
 30
0.0
 10
57.737463
 20
139.227436
 30
0.0
 10
56.456473
 20
138.775923
 30
0.0
 10
55.690576
 20
137.175278
 30
0.0
  0
SPLINE
  5
26f
100
AcDbEntity
  8
Layer_1
 62
7
100
AcDbSpline
 70
8
 71
3
 72
8
 73
4
 74
0
 40
0
 40
0
 40
0
 40
0
 40
1
 40
1
 40
1
 40
1
 10
55.690576
 20
137.175278
 30
0.0
 10
55.161558
 20
136.069694
 30
0.0
 10
55.061694
 20
135.116836
 30
0.0
 10
55.052101
 20
131.082968
 30
0.0
  0
SPLINE
  5
270
100
AcDbEntity
  8
Layer_1
 62
7
100
AcDbSpline
 70
8
 71
3
 72
8
 73
4
 74
0
 40
0
 40
0
 40
0
 40
0
 40
1
 40
1
 40
1
 40
1
 10
55.052101
 20
131.082968
 30
0.0
 10
55.039575
 20
125.841837
 30
0.0
 10
55.231944
 20
124.200701
 30
0.0
 10
55.994166
 20
123.043281
 30
0.0
  0
SPLINE
  5
271
100
AcDbEntity
  8
Layer_1
 62
7
100
AcDbSpline
 70
8
 71
3
 72
8
 73
4
 74
0
 40
0
 40
0
 40
0
 40
0
 40
1
 40
1
 40
1
 40
1
 10
55.994166
 20
123.043281
 30
0.0
 10
56.680679
 20
122.000819
 30
0.0
 10
57.703246
 20
121.736800
 30
0.0
 10
58.550708
 20
122.383188
 30
0.0
  0
LWPOLYLINE
  5
272
100
AcDbEntity
  8
Layer_1
 62
7
100
AcDbPolyline
 90
1
 70
1
 10
37.881037
 20
88.409943
 30
0.0
  0
SPLINE
  5
273
100
AcDbEntity
  8
Layer_1
 62
7
100
AcDbSpline
 70
8
 71
3
 72
8
 73
4
 74
0
 40
0
 40
0
 40
0
 40
0
 40
1
 40
1
 40
1
 40
1
 10
73.274531
 20
122.307823
 30
0.0
 10
74.426784
 20
123.152394
 30
0.0
 10
74.920426
 20
125.316368
 30
0.0
 10
74.906929
 20
129.463711
 30
0.0
  0
SPLINE
  5
274
100
AcDbEntity
  8
Layer_1
 62
7
100
AcDbSpline
 70
8
 71
3
 72
8
 73
4
 74
0
 40
0
 40
0
 40
0
 40
0
 40
1
 40
1
 40
1
 40
1
 10
74.906929
 20
129.463711
 30
0.0
 10
74.894090
 20
133.432057
 30
0.0
 10
74.621126
 20
136.231604
 30
0.0
 10
74.137651
 20
137.355476
 30
0.0
  0
SPLINE
  5
275
100
AcDbEntity
  8
Layer_1
 62
7
100
AcDbSpline
 70
8
 71
3
 72
8
 73
4
 74
0
 40
0
 40
0
 40
0
 40
0
 40
1
 40
1
 40
1
 40
1
 10
74.137651
 20
137.355476
 30
0.0
 10
73.675939
 20
138.428742
 30
0.0
 10
72.608811
 20
139.041601
 30
0.0
 10
71.684125
 20
138.764566
 30
0.0
  0
SPLINE
  5
276
100
AcDbEntity
  8
Layer_1
 62
7
100
AcDbSpline
 70
8
 71
3
 72
8
 73
4
 74
0
 40
0
 40
0
 40
0
 40
0
 40
1
 40
1
 40
1
 40
1
 10
71.684125
 20
138.764566
 30
0.0
 10
70.367144
 20
138.369984
 30
0.0
 10
69.910620
 20
137.109025
 30
0.0
 10
69.782479
 20
133.511900
 30
0.0
  0
SPLINE
  5
277
100
AcDbEntity
  8
Layer_1
 62
7
100
AcDbSpline
 70
8
 71
3
 72
8
 73
4
 74
0
 40
0
 40
0
 40
0
 40
0
 40
1
 40
1
 40
1
 40
1
 10
69.782479
 20
133.511900
 30
0.0
 10
69.649306
 20
129.773805
 30
0.0
 10
69.962009
 20
125.064374
 30
0.0
 10
70.431799
 20
123.732863
 30
0.0
  0
SPLINE
  5
278
100
AcDbEntity
  8
Layer_1
 62
7
100
AcDbSpline
 70
8
 71
3
 72
8
 73
4
 74
0
 40
0
 40
0
 40
0
 40
0
 40
1
 40
1
 40
1
 40
1
 10
70.431799
 20
123.732863
 30
0.0
 10
70.638887
 20
123.145901
 30
0.0
 10
71.270608
 20
122.374879
 30
0.0
 10
71.707382
 20
122.175996
 30
0.0
  0
SPLINE
  5
279
100
AcDbEntity
  8
Layer_1
 62
7
100
AcDbSpline
 70
8
 71
3
 72
8
 73
4
 74
0
 40
0
 40
0
 40
0
 40
0
 40
1
 40
1
 40
1
 40
1
 10
71.707382
 20
122.175996
 30
0.0
 10
72.146119
 20
121.976226
 30
0.0
 10
72.909761
 20
122.040453
 30
0.0
 10
73.274531
 20
122.307823
 30
0.0
  0
LWPOLYLINE
  5
27a
100
AcDbEntity
  8
Layer_1
 62
7
100
AcDbPolyline
 90
1
 70
1
 10
58.550708
 20
122.383188
 30
0.0
  0
LWPOLYLINE
  5
27b
100
AcDbEntity
  8
Layer_1
 62
7
100
AcDbPolyline
 90
1
 70
1
 10
73.274531
 20
122.307823
 30
0.0
  0
ENDSEC
  0
SECTION
  2
OBJECTS
  0
DICTIONARY
  5
C
330
0
100
AcDbDictionary
  3
ACAD_GROUP
350
D
  3
ACAD_MLINESTYLE
350
17
  0
DICTIONARY
  5
D
330
C
100
AcDbDictionary
  0
DICTIONARY
  5
1A
330
C
100
AcDbDictionary
  0
DICTIONARY
  5
17
330
C
100
AcDbDictionary
  3
STANDARD
350
18
  0
DICTIONARY
  5
19
330
C
100
AcDbDictionary
  0
ENDSEC
  0
EOF
