<?xml version="1.0" encoding="UTF-8" standalone="no"?>
<svg
   xmlns:dc="http://purl.org/dc/elements/1.1/"
   xmlns:cc="http://creativecommons.org/ns#"
   xmlns:rdf="http://www.w3.org/1999/02/22-rdf-syntax-ns#"
   xmlns:svg="http://www.w3.org/2000/svg"
   xmlns="http://www.w3.org/2000/svg"
   xmlns:xlink="http://www.w3.org/1999/xlink"
   xmlns:sodipodi="http://sodipodi.sourceforge.net/DTD/sodipodi-0.dtd"
   xmlns:inkscape="http://www.inkscape.org/namespaces/inkscape"
   width="100mm"
   height="100mm"
   viewBox="0 0 100 100"
   version="1.1"
   id="svg8"
   inkscape:version="1.0.1 (3bc2e813f5, 2020-09-07)"
   sodipodi:docname="drum-tutor.svg">
  <defs
     id="defs2">
    <rect
       x="7.6914949"
       y="3.8209934"
       width="83.594658"
       height="35.193058"
       id="rect18" />
    <rect
       x="6.7848039"
       y="3.3021643"
       width="86.697334"
       height="34.634075"
       id="rect12" />
    <clipPath
       clipPathUnits="userSpaceOnUse"
       id="clipPath98">
      <use
         x="0"
         y="0"
         xlink:href="#g94"
         id="use100"
         width="100%"
         height="100%" />
    </clipPath>
  </defs>
  <sodipodi:namedview
     id="base"
     pagecolor="#ffffff"
     bordercolor="#666666"
     borderopacity="1.0"
     inkscape:pageopacity="0.0"
     inkscape:pageshadow="2"
     inkscape:zoom="1.4"
     inkscape:cx="255.76325"
     inkscape:cy="204.65123"
     inkscape:document-units="mm"
     inkscape:current-layer="g94"
     inkscape:document-rotation="0"
     showgrid="false"
     inkscape:window-width="1528"
     inkscape:window-height="836"
     inkscape:window-x="72"
     inkscape:window-y="27"
     inkscape:window-maximized="1" />
  <metadata
     id="metadata5">
    <rdf:RDF>
      <cc:Work
         rdf:about="">
        <dc:format>image/svg+xml</dc:format>
        <dc:type
           rdf:resource="http://purl.org/dc/dcmitype/StillImage" />
        <dc:title></dc:title>
      </cc:Work>
    </rdf:RDF>
  </metadata>
  <g
     inkscape:label="Layer 1"
     inkscape:groupmode="layer"
     id="layer1">
    <text
       xml:space="preserve"
       id="text10"
       style="font-style:normal;font-weight:normal;font-size:10.5833px;line-height:1.25;font-family:sans-serif;letter-spacing:0px;word-spacing:0px;white-space:pre;shape-inside:url(#rect12);fill:#000000;fill-opacity:1;stroke:none;" />
    <g
       aria-label="WILL"
       transform="matrix(1.6007434,0,0,1.1988597,-6.5835032,-10.950605)"
       id="text16"
       style="font-style:normal;font-weight:normal;font-size:25.4px;line-height:1.25;font-family:sans-serif;letter-spacing:0px;word-spacing:0px;white-space:pre;shape-inside:url(#rect18);fill:#000000;fill-opacity:1;stroke:none" />
    <g
       id="g96"
       clip-path="url(#clipPath98)"
       transform="matrix(1.4939718,0,0,1.4939718,41.10736,-49.352432)">
      <g
         inkscape:label="Clip"
         id="g94">
        <path
           style="fill:#000000;stroke-width:0.264583"
           d="m -12.445756,92.340005 c -0.228675,-0.228674 -0.415773,-0.515705 -0.415773,-0.637842 0,-0.122137 0.719525,-1.095899 1.598945,-2.163913 l 1.5989448,-1.941846 -1.2541458,-1.118473 c -1.241852,-1.107509 -1.258923,-1.113346 -1.741544,-0.595313 -0.991377,1.06412 -2.848034,0.331888 -2.848034,-1.123212 0,-0.258662 -0.04288,-0.470294 -0.09529,-0.470294 -0.05241,0 -1.110385,0.468974 -2.351056,1.042167 -4.231028,1.95474 -4.114476,1.922011 -4.71299,1.323497 -0.384354,-0.384353 -0.459655,-0.649129 -0.280051,-0.984721 0.135111,-0.252458 1.862622,-1.172464 3.838912,-2.044457 l 3.593254,-1.585444 0.0036,-4.411803 0.0036,-4.4118 -3.902604,-2.110476 c -3.461403,-1.871879 -3.91265,-2.194237 -3.991467,-2.851388 -0.04887,-0.4075 -0.316765,-1.030642 -0.595312,-1.384758 -0.468377,-0.595444 -0.50645,-1.143941 -0.50645,-7.296169 0,-7.521876 -0.004,-7.505251 2.009363,-8.368276 4.106474,-1.76024 13.6204338,-1.844059 17.6614898,-0.155599 l 0.96665,0.403892 v -1.625668 c 0,-1.399435 0.0979,-1.727849 0.70347,-2.359932 0.66013,-0.689028 0.67235,-0.745234 0.19844,-0.912337 -5.679173,-2.002454 -8.6771628,-3.846404 -9.5420788,-5.868968 -0.703744,-1.645671 0.443563,-2.903831 3.3484988,-3.672029 2.52827,-0.66859 8.43998995,-0.600255 12.51013,0.144607 10.0531802,1.839799 17.5046202,6.337464 15.3410502,9.259807 -0.28336,0.382743 -1.21869,0.993552 -2.07851,1.357355 -1.50165,0.635376 -1.77195,0.660364 -6.8549602,0.63372 -4.33597,-0.02273 -5.72173,-0.126608 -7.67292,-0.57518 l -2.38125005,-0.547443 -0.72759995,0.829769 -0.72761,0.82977 v 15.987728 15.987729 l 1.49188995,1.947785 c 0.82054,1.071285 1.53310005,1.947789 1.58348005,1.947789 0.0504,0 -0.25363,-0.68461 -0.67558005,-1.521354 -1.51655,-3.007442 -1.99376995,-5.143448 -1.99503995,-8.929688 -10e-4,-4.03256 0.38571995,-5.787403 2.00544995,-9.091801 1.41712005,-2.891068 3.83933005,-5.39893 6.44635005,-6.674313 l 1.84508,-0.902636 5.0340802,-0.07984 5.03409,-0.07984 -1.40961,0.960601 c -7.56776,5.157202 -9.9580302,16.61252 -5.32467,25.518414 1.22109,2.347092 3.50912,4.916971 5.53762,6.219748 l 1.44917,0.930717 h -4.01584 c -5.9052102,0 -8.2024002,-0.654219 -10.9583602,-3.120835 -1.58742,-1.420759 -1.49853,-1.178099 0.48382,1.320774 0.77307,0.974497 1.40557,2.001716 1.40557,2.282706 0,0.635693 -0.66032,1.21267 -1.16583,1.018685 -0.20836,-0.07995 -1.76222,-1.934514 -3.45302,-4.121247 -1.69081005,-2.186737 -3.18873,-4.046668 -3.32871,-4.133181 -0.15756,-0.09738 -0.25452,1.051353 -0.25452,3.015488 0,2.965193 -0.0355,3.184035 -0.54186,3.344765 -1.06778,0.338899 -1.28945,-0.24446 -1.36843,-3.601175 l -0.0741,-3.148648 -3.65362,4.365083 c -2.009493,2.400797 -3.8166918,4.365085 -4.0159998,4.365085 -0.199309,0 -0.549477,-0.187097 -0.778153,-0.415774 z m 6.4460618,-9.109226 2.12416,-2.513542 0.001,-6.482292 c 8.5e-4,-5.385308 -0.0554,-6.370775 -0.33238,-5.823323 -0.22394,0.4426 -1.61474,1.352185 -4.235861,2.770249 l -3.9024538,2.111285 0.07257,4.108915 0.07258,4.108916 1.316198,0.08307 c 1.5113868,0.09539 1.9910938,0.395086 1.9910938,1.243938 0,0.62928 -0.446733,0.921465 -1.4107018,0.922666 -0.484706,5.29e-4 -0.389026,0.162869 0.6169518,1.046289 0.654843,0.575064 1.274336,1.021226 1.376651,0.991471 0.102314,-0.02976 1.141892,-1.185193 2.310182,-2.567641 z M -15.429279,70.067758 c 0.07687,-0.400183 0.12052,-0.740752 0.09699,-0.75682 -0.02353,-0.01607 -0.87622,-0.101049 -1.894865,-0.188849 l -1.852084,-0.159636 1.5875,0.885671 c 0.873125,0.487117 1.662917,0.89952 1.755093,0.916454 0.09218,0.01693 0.230491,-0.296638 0.307366,-0.69682 z m 4.949,-0.06615 1.4552078,-0.768784 -1.6536458,-0.01248 -1.653646,-0.01248 v 0.79375 c 0,0.436562 0.0893,0.788133 0.198438,0.781267 0.10914,-0.0069 0.853281,-0.358436 1.653646,-0.781267 z m 32.808335,20.876168 c -5.66846,-1.107014 -10.20906,-6.92221 -11.12706,-14.250546 -0.8651,-6.905996 2.38086,-14.559485 7.42979,-17.518357 3.1082,-1.821525 7.23253,-2.054828 10.31185,-0.583313 3.02536,1.445728 5.19701,3.627119 6.81528,6.84584 3.02815,6.022967 2.62125,14.014714 -0.99566,19.555256 -3.03445,4.648314 -7.69168,6.877304 -12.4342,5.95112 z m 7.80521,-33.068908 c -2.19126,-1.246157 -4.23983,-1.565594 -10.04026,-1.565594 h -5.17329 v -3.38956 -3.389564 l 1.28208,-0.328586 c 2.39121,-0.612848 4.00959,-2.187907 4.00959,-3.902255 0,-0.910463 -1.1028,-2.808467 -2.02002,-3.476617 l -0.70331,-0.512329 1.26866,-0.319454 c 5.45166,-1.372744 14.49716,-0.519428 16.58075,1.564161 l 0.74892,0.74892 v 6.443773 c 0,7.376547 0.0266,7.278038 -2.1851,8.097128 -2.23014,0.825925 -2.36652,0.82701 -3.76802,0.02998 z"
           id="path91" />
      </g>
    </g>
  </g>
</svg>
