<?xml version="1.0" encoding="UTF-8" standalone="no"?>
<svg
   xmlns:dc="http://purl.org/dc/elements/1.1/"
   xmlns:cc="http://creativecommons.org/ns#"
   xmlns:rdf="http://www.w3.org/1999/02/22-rdf-syntax-ns#"
   xmlns:svg="http://www.w3.org/2000/svg"
   xmlns="http://www.w3.org/2000/svg"
   xmlns:sodipodi="http://sodipodi.sourceforge.net/DTD/sodipodi-0.dtd"
   xmlns:inkscape="http://www.inkscape.org/namespaces/inkscape"
   width="550mm"
   height="80mm"
   viewBox="0 0 550 80"
   version="1.1"
   id="svg8"
   sodipodi:docname="enjoy-the-ride.svg"
   inkscape:version="1.0.1 (3bc2e813f5, 2020-09-07)">
  <defs
     id="defs2">
    <rect
       x="23.452333"
       y="62.553146"
       width="409.37964"
       height="153.31371"
       id="rect60" />
  </defs>
  <sodipodi:namedview
     id="base"
     pagecolor="#ffffff"
     bordercolor="#666666"
     borderopacity="1.0"
     inkscape:pageopacity="0.0"
     inkscape:pageshadow="2"
     inkscape:zoom="0.35"
     inkscape:cx="1340.6785"
     inkscape:cy="542.62689"
     inkscape:document-units="mm"
     inkscape:current-layer="text58"
     inkscape:document-rotation="0"
     showgrid="false"
     inkscape:window-width="1528"
     inkscape:window-height="836"
     inkscape:window-x="72"
     inkscape:window-y="27"
     inkscape:window-maximized="1" />
  <metadata
     id="metadata5">
    <rdf:RDF>
      <cc:Work
         rdf:about="">
        <dc:format>image/svg+xml</dc:format>
        <dc:type
           rdf:resource="http://purl.org/dc/dcmitype/StillImage" />
        <dc:title></dc:title>
      </cc:Work>
    </rdf:RDF>
  </metadata>
  <g
     inkscape:label="Layer 1"
     inkscape:groupmode="layer"
     id="layer1">
    <g
       aria-label="vintage is better"
       transform="matrix(8.4991732,0,0,8.4991732,-157.88361,-560.36324)"
       id="text58"
       style="font-size:10.5833px;line-height:1.25;font-family:Navilu;-inkscape-font-specification:Navilu;letter-spacing:0px;word-spacing:0px;white-space:pre;shape-inside:url(#rect60)">
      <path
         d="m 26.300033,68.694583 c -0.148167,0.391582 -0.232833,0.793748 -0.349249,1.195913 -0.137583,0.455082 -0.338666,0.984247 -0.592665,1.449912 -0.05292,0.105833 -0.179916,0.296332 -0.275166,0.116416 -0.105833,-0.232832 -0.148166,-0.613831 -0.201083,-0.86783 -0.116416,-0.518582 -0.179916,-1.05833 -0.317499,-1.566329 -0.07408,-0.275165 -0.349248,-0.444498 -0.624414,-0.412748 -0.285749,0.04233 -0.476249,0.275166 -0.486832,0.560915 -0.02117,0.338665 0.04233,0.677331 0.09525,1.005413 0.0635,0.306916 0.116416,0.603248 0.190499,0.910164 0.09525,0.370415 0.201083,0.772581 0.444499,1.068913 0.539748,0.677331 1.174746,0.285749 1.502828,-0.338665 0.148166,-0.296333 0.285749,-0.603249 0.391582,-0.920748 0.105833,-0.275165 0.22225,-0.730247 0.306916,-1.079496 0.09525,-0.359832 0.190499,-0.825497 0.211666,-1.09008 0.01058,-0.148166 -0.243416,-0.179916 -0.296332,-0.03175 z"
         style="font-style:normal;font-variant:normal;font-weight:normal;font-stretch:normal;font-family:Antique;-inkscape-font-specification:Antique"
         id="path64" />
      <path
         d="m 29.33742,70.588994 c -0.03175,-0.179916 -0.169333,-0.1905 -0.232833,-0.05292 -0.07408,0.148166 -0.137583,0.359832 -0.190499,0.550332 -0.07408,0.232832 -0.359833,1.142996 -0.740831,1.02658 -0.201083,-0.0635 -0.264583,-0.359832 -0.264583,-0.634998 0,-0.433915 0.03175,-0.878414 0.0635,-1.312329 0.03175,-0.328083 0.127,-0.687915 0,-1.015997 -0.0635,-0.169333 -0.169333,-0.285749 -0.359832,-0.328082 -0.296333,-0.0635 -0.698498,0.09525 -0.751415,0.433915 -0.105833,0.592665 -0.148166,1.174746 -0.137582,1.777994 0,0.349249 0,0.719665 0.148166,1.037164 0.232832,0.507998 0.86783,0.793747 1.396995,0.603248 0.370416,-0.127 0.624415,-0.465665 0.783164,-0.814914 0.08467,-0.211666 0.15875,-0.412749 0.211666,-0.634998 0.04233,-0.1905 0.08467,-0.486832 0.07408,-0.634998 z M 27.485342,68.684 c 0.423332,0.01058 0.666748,-0.412749 0.624415,-0.804331 -0.01058,-0.127 -0.04233,-0.243416 -0.09525,-0.317499 -0.328082,-0.476248 -1.005413,-0.169333 -1.079496,0.338666 -0.04233,0.338665 0.190499,0.761997 0.550331,0.783164 z"
         style="font-style:normal;font-variant:normal;font-weight:normal;font-stretch:normal;font-family:Antique;-inkscape-font-specification:Antique"
         id="path66" />
      <path
         d="m 34.004648,70.588994 c -0.03175,-0.137583 -0.0635,-0.15875 -0.116416,-0.148166 -0.137583,0.02117 -0.169333,0.201082 -0.1905,0.328082 -0.105833,0.518582 -0.179916,0.952497 -0.465665,1.407579 -0.222249,0.349249 -0.497415,0.05292 -0.486832,-0.380999 0.01058,-0.317499 0.02117,-0.666748 0.05292,-0.99483 0.04233,-0.486832 0.08467,-0.99483 -0.105833,-1.460496 -0.148166,-0.349248 -0.476249,-0.634998 -0.867831,-0.603248 -0.402165,0.03175 -0.730248,0.317499 -0.941914,0.645582 -0.296332,0.444498 -0.507998,0.96308 -0.666747,1.502828 -0.04233,-0.486832 -0.03175,-0.973663 0.02117,-1.449912 0.03175,-0.317499 -0.306915,-0.624415 -0.603248,-0.613831 -0.158749,0.01058 -0.328082,0.0635 -0.433915,0.179916 -0.116416,0.126999 -0.15875,0.264582 -0.179916,0.433915 -0.04233,0.349249 -0.05292,0.709081 -0.04233,1.05833 0.01058,0.349249 0.03175,0.709081 0.126999,1.037163 0.05292,0.1905 0.148166,0.380999 0.285749,0.518582 0.148166,0.15875 0.391582,0.264583 0.613832,0.253999 0.391582,-0.04233 0.433915,-0.550331 0.507998,-0.83608 0.116416,-0.444499 0.243416,-0.899581 0.455082,-1.31233 0.09525,-0.190499 0.190499,-0.338665 0.296332,-0.497415 0.05292,-0.07408 0.15875,-0.201082 0.243416,-0.243416 0.148166,-0.08467 0.148166,0.1905 0.137583,0.28575 -0.01058,0.211666 -0.02117,0.423332 -0.04233,0.634998 -0.05292,0.77258 -0.201083,1.598078 0.137583,2.317742 0.179916,0.391582 0.677331,0.624415 1.09008,0.539748 0.99483,-0.179916 1.132413,-1.534578 1.185329,-2.338909 0.01058,-0.07408 0.01058,-0.169333 -0.01058,-0.264582 z"
         style="font-style:normal;font-variant:normal;font-weight:normal;font-stretch:normal;font-family:Antique;-inkscape-font-specification:Antique"
         id="path68" />
      <path
         d="m 37.497131,67.477504 c -0.201083,-0.380999 -0.634998,-0.433916 -1.037164,-0.423332 -0.380999,0.01058 -0.772581,0.04233 -1.164163,0.0635 -0.04233,-0.571498 -1.015996,-0.687914 -1.121829,-0.07408 -0.01058,0.05292 -0.02117,0.116417 -0.03175,0.179916 -0.296333,0.02117 -0.592665,0.02117 -0.888998,-0.04233 -0.201082,-0.03175 -0.412748,-0.09525 -0.592664,-0.190499 -0.201083,-0.105833 -0.306916,-0.275166 -0.444499,-0.433915 -0.126999,-0.127 -0.317499,0.01058 -0.285749,0.158749 0.07408,0.349249 0.455082,0.687915 0.751414,0.836081 0.423332,0.211666 0.899581,0.243416 1.365246,0.222249 -0.127,0.740831 -0.232833,1.492245 -0.253999,2.254243 -0.02117,0.666748 -0.05292,1.365246 0.148166,2.010827 0.211666,0.656164 0.867831,1.333496 1.619245,1.015997 0.402165,-0.169333 0.666748,-0.592665 0.857247,-1.005414 0.190499,-0.433915 0.359832,-1.068913 0.359832,-1.449912 -0.01058,-0.137583 -0.179916,-0.158749 -0.253999,-0.03175 -0.296332,0.529165 -0.380999,1.164163 -0.793747,1.640412 -0.465666,0.550331 -0.645582,-0.666748 -0.687915,-0.941914 -0.05292,-0.402165 -0.04233,-0.825497 -0.03175,-1.238246 0.02117,-0.804331 0.15875,-1.587495 0.243416,-2.381243 0.148166,-0.02117 0.296333,-0.03175 0.433915,-0.05292 0.264583,-0.04233 0.539749,-0.08467 0.804331,-0.127 0.285749,-0.03175 0.560915,-0.03175 0.772581,0.1905 0.116416,0.137583 0.306916,-0.03175 0.232833,-0.179916 z"
         style="font-style:normal;font-variant:normal;font-weight:normal;font-stretch:normal;font-family:Antique;-inkscape-font-specification:Antique"
         id="path70" />
      <path
         d="m 41.084852,70.588994 c -0.02117,-0.179916 -0.158749,-0.1905 -0.222249,-0.05292 -0.07408,0.148166 -0.148166,0.359832 -0.201083,0.550332 -0.0635,0.232832 -0.349249,1.142996 -0.740831,1.02658 -0.190499,-0.0635 -0.264582,-0.359832 -0.253999,-0.634998 0,-0.433915 0.02117,-0.878414 0.0635,-1.312329 0.03175,-0.328083 0.127,-0.687915 0,-1.015997 -0.07408,-0.169333 -0.179916,-0.285749 -0.359832,-0.328082 -0.1905,-0.04233 -0.423332,0.01058 -0.582082,0.137583 -0.01058,-0.01058 -0.03175,-0.03175 -0.04233,-0.04233 -0.243416,-0.253999 -0.582081,-0.306915 -0.910164,-0.232832 -0.465665,0.105833 -0.86783,0.497415 -1.090079,0.910164 -0.243416,0.455081 -0.370416,1.02658 -0.338666,1.545161 0.02117,0.285749 0.09525,0.592665 0.264582,0.836081 0.211666,0.328082 0.645582,0.518582 1.02658,0.402165 0.359833,-0.116416 0.560915,-0.476248 0.698498,-0.80433 0.03175,-0.07408 0.05292,-0.15875 0.08467,-0.232833 0.01058,0.253999 0.04233,0.507998 0.148166,0.730248 0.232832,0.507998 0.86783,0.793747 1.396995,0.603248 0.370416,-0.127 0.624415,-0.465665 0.772581,-0.814914 0.09525,-0.211666 0.169333,-0.412749 0.211666,-0.634998 0.05292,-0.1905 0.09525,-0.486832 0.07408,-0.634998 z m -2.571741,-0.624415 c -0.01058,0.0635 -0.03175,0.148166 -0.01058,0.201083 0,0.02117 0,0.04233 -0.01058,0.0635 0,0 -0.01058,0.01058 -0.01058,0.01058 -0.09525,0.232832 -0.137583,0.476248 -0.232833,0.709081 -0.0635,0.137583 -0.306916,0.624415 -0.529165,0.486832 -0.105833,-0.07408 -0.148166,-0.1905 -0.179916,-0.296333 -0.116416,-0.486831 -0.116416,-1.015996 0.169333,-1.439328 0.126999,-0.179917 0.359832,-0.380999 0.582081,-0.243416 0.179916,0.116416 0.264583,0.317499 0.22225,0.507998 z"
         style="font-style:normal;font-variant:normal;font-weight:normal;font-stretch:normal;font-family:Antique;-inkscape-font-specification:Antique"
         id="path72" />
      <path
         d="m 45.095914,70.419661 c -0.179916,0.105833 -0.380998,0.264582 -0.550331,0.380999 -0.04233,0.02117 -0.07408,0.04233 -0.116416,0.0635 0.04233,-0.560915 0.02117,-1.132414 -0.03175,-1.682745 -0.03175,-0.328082 -0.254,-0.603248 -0.603248,-0.603248 -0.169333,0 -0.328083,0.07408 -0.444499,0.190499 -0.148166,-0.148166 -0.338666,-0.253999 -0.550332,-0.306915 -0.380998,-0.08467 -0.751414,0.126999 -1.02658,0.359832 -0.465665,0.402165 -0.793747,0.96308 -0.952497,1.555745 -0.08467,0.328082 -0.116416,0.677331 0.02117,0.99483 0.158749,0.370415 0.518582,0.603248 0.93133,0.582081 0.613832,-0.02117 1.079497,-0.592664 1.365246,-1.05833 0.02117,-0.02117 0.03175,-0.05292 0.05292,-0.08467 -0.02117,0.253999 -0.04233,0.507998 -0.0635,0.761998 -0.116417,0.0635 -0.232833,0.126999 -0.338666,0.190499 -0.698498,0.444499 -1.322912,1.037163 -1.460495,1.883827 -0.0635,0.328083 -0.01058,0.719665 0.243416,0.963081 0.328082,0.317499 0.984246,0.253999 1.375829,-0.01058 0.677331,-0.444498 0.984246,-1.248829 1.195912,-2.000243 0.116417,-0.380999 0.1905,-0.772581 0.243416,-1.164163 0.338666,-0.22225 0.656165,-0.486832 0.920747,-0.793748 0.148167,-0.158749 -0.02117,-0.349249 -0.211666,-0.222249 z m -2.063743,1.788578 c -0.0635,0.391582 -0.105833,0.846664 -0.285749,1.217079 -0.09525,0.201083 -0.486832,0.846664 -0.783164,0.666748 -0.317499,-0.201083 -0.07408,-0.783164 0.05292,-1.015997 0.243416,-0.412749 0.613832,-0.709081 1.037164,-0.941914 -0.01058,0.02117 -0.01058,0.05292 -0.02117,0.07408 z m -0.137583,-1.799161 c -0.127,0.190499 -0.624415,1.068913 -0.93133,0.730247 -0.08467,-0.09525 -0.0635,-0.455082 0,-0.613831 0.137583,-0.380999 0.380998,-0.761998 0.624414,-1.02658 0.0635,-0.0635 0.179916,-0.15875 0.275166,-0.15875 0.0635,0 0.105833,0.05292 0.148166,0.08467 0.05292,0.03175 0.116417,0.05292 0.1905,0.05292 0,0.04233 0,0.07408 0,0.116417 -0.04233,0.222249 -0.179916,0.603248 -0.306916,0.814914 z"
         style="font-style:normal;font-variant:normal;font-weight:normal;font-stretch:normal;font-family:Antique;-inkscape-font-specification:Antique"
         id="path74" />
      <path
         d="m 48.122722,70.483161 c -0.105833,-0.03175 -0.169332,0.04233 -0.201082,0.116416 -0.03175,0.05292 -0.04233,0.105833 -0.0635,0.148166 -0.05292,0.169333 -0.116416,0.328083 -0.190499,0.497415 -0.0635,0.137583 -0.127,0.285749 -0.232833,0.412749 -0.116416,0.148166 -0.285749,0.264583 -0.476248,0.285749 -0.127,0.01058 -0.264583,-0.03175 -0.359833,-0.126999 -0.126999,-0.137583 -0.211666,-0.317499 -0.275165,-0.486832 -0.04233,-0.116417 -0.105833,-0.275166 -0.105833,-0.402166 0,0 0,-0.02117 0,-0.04233 0.232832,-0.211666 0.465665,-0.444498 0.677331,-0.698498 0.222249,-0.285749 0.476248,-0.613831 0.455082,-1.005413 -0.01058,-0.423332 -0.423332,-0.719664 -0.836081,-0.677331 -0.465665,0.05292 -0.825497,0.370415 -1.068913,0.751414 -0.455082,0.677331 -0.560915,1.682745 -0.285749,2.455326 0.105833,0.306915 0.275165,0.592664 0.529165,0.793747 0.317499,0.232833 0.687914,0.285749 1.05833,0.169333 0.529164,-0.15875 0.888997,-0.539749 1.132413,-1.015997 0.158749,-0.296332 0.296332,-0.624415 0.370415,-0.96308 0.02117,-0.09525 -0.04233,-0.179916 -0.127,-0.211666 z m -1.883827,-0.486832 c 0.08467,-0.444499 0.211666,-0.645581 0.306916,-0.740831 0.03175,-0.03175 0.07408,-0.07408 0.158749,-0.09525 0.01058,0 0.105833,-0.01058 0.148167,0.03175 0.04233,0.0635 -0.02117,0.201083 -0.08467,0.317499 -0.0635,0.116416 -0.148166,0.232833 -0.328082,0.433915 -0.08467,0.105833 -0.169333,0.179917 -0.222249,0.243416 0,-0.04233 0.01058,-0.105833 0.02117,-0.190499 z"
         style="font-style:normal;font-variant:normal;font-weight:normal;font-stretch:normal;font-family:Antique;-inkscape-font-specification:Antique"
         id="path76" />
      <path
         d="m 53.329682,70.588994 c -0.03175,-0.179916 -0.169333,-0.1905 -0.232833,-0.05292 -0.07408,0.148166 -0.137583,0.359832 -0.190499,0.550332 -0.07408,0.232832 -0.359832,1.142996 -0.740831,1.02658 -0.201083,-0.0635 -0.264583,-0.359832 -0.264583,-0.634998 0,-0.433915 0.03175,-0.878414 0.0635,-1.312329 0.03175,-0.328083 0.127,-0.687915 0,-1.015997 -0.0635,-0.169333 -0.169333,-0.285749 -0.359832,-0.328082 -0.296333,-0.0635 -0.698498,0.09525 -0.751414,0.433915 -0.105833,0.592665 -0.148167,1.174746 -0.137583,1.777994 0,0.349249 0,0.719665 0.148166,1.037164 0.232832,0.507998 0.86783,0.793747 1.396995,0.603248 0.370416,-0.127 0.624415,-0.465665 0.783165,-0.814914 0.08467,-0.211666 0.158749,-0.412749 0.211666,-0.634998 0.04233,-0.1905 0.08467,-0.486832 0.07408,-0.634998 z M 51.477604,68.684 c 0.423332,0.01058 0.666748,-0.412749 0.624415,-0.804331 -0.01058,-0.127 -0.04233,-0.243416 -0.09525,-0.317499 -0.328082,-0.476248 -1.005413,-0.169333 -1.079496,0.338666 -0.04233,0.338665 0.190499,0.761997 0.550331,0.783164 z"
         style="font-style:normal;font-variant:normal;font-weight:normal;font-stretch:normal;font-family:Antique;-inkscape-font-specification:Antique"
         id="path78" />
      <path
         d="m 56.504665,71.456824 c -0.127,-0.359832 -0.476248,-0.560915 -0.836081,-0.603248 -0.264582,-0.02117 -0.518581,0.05292 -0.772581,0.116417 -0.169332,0.04233 -0.486831,0.169332 -0.634998,0.03175 -0.232832,-0.190499 -0.08467,-0.634998 -0.01058,-0.86783 0.148166,-0.423332 0.984247,-1.534579 1.481662,-0.952497 0.264583,0.296332 0.03175,0.793747 -0.105833,1.09008 -0.126999,0.306915 0.285749,0.571498 0.455082,0.275166 0.211666,-0.380999 0.402165,-0.772581 0.338666,-1.227663 -0.05292,-0.328082 -0.254,-0.634998 -0.560915,-0.783164 -0.645582,-0.317499 -1.513412,0.0635 -2.042577,0.444498 -0.687915,0.476249 -1.132413,1.545162 -0.645581,2.30716 0.275165,0.433915 0.77258,0.539748 1.248829,0.455081 0.222249,-0.04233 0.423332,-0.126999 0.624415,-0.222249 0.169332,-0.07408 0.370415,-0.169333 0.560915,-0.137583 0.486831,0.07408 0.116416,0.719665 -0.08467,0.878414 -0.105833,0.08467 -0.444498,0.232833 -0.571498,0.116416 -0.08467,-0.07408 -0.116416,-0.158749 -0.07408,-0.285749 0.03175,-0.126999 -0.137583,-0.243416 -0.232833,-0.137583 -0.232832,0.264583 -0.201082,0.666748 -0.02117,0.952497 0.201082,0.306916 0.613831,0.380999 0.952497,0.317499 0.380998,-0.07408 0.666747,-0.380998 0.825497,-0.719664 0.137583,-0.306916 0.211666,-0.730248 0.105833,-1.047747 z"
         style="font-style:normal;font-variant:normal;font-weight:normal;font-stretch:normal;font-family:Antique;-inkscape-font-specification:Antique"
         id="path80" />
      <path
         d="m 64.198704,70.504327 c -0.275166,-0.169332 -0.582082,-0.296332 -0.888998,-0.338665 0,-0.243416 -0.03175,-0.486832 -0.116416,-0.719665 -0.190499,-0.486831 -0.730248,-0.857247 -1.248829,-0.645581 -0.518582,0.211666 -0.814914,0.772581 -1.037164,1.248829 -0.05292,0.116417 -0.09525,0.22225 -0.148166,0.338666 -0.03175,-1.05833 0.03175,-2.222493 0.15875,-3.27024 0.02117,-0.179916 0.0635,-0.349248 -0.03175,-0.518581 -0.116417,-0.22225 -0.402166,-0.338666 -0.645582,-0.253999 -0.158749,0.05292 -0.264582,0.190499 -0.306915,0.349248 -0.243416,0.814915 -0.306916,1.735662 -0.338666,2.582326 -0.01058,0.423332 -0.02117,0.83608 0,1.259412 0.02117,0.550332 0.116417,1.259413 0.571498,1.608662 0.201083,0.158749 0.412749,0.190499 0.603248,0.08467 0.127,-0.07408 0.179917,-0.222249 0.201083,-0.349249 0.03175,-0.158749 0.0635,-0.317499 0.09525,-0.476248 0.09525,-0.349249 0.211666,-0.687915 0.370415,-1.015997 0.105833,-0.211666 0.22225,-0.423332 0.359833,-0.613831 0.04233,-0.07408 0.190499,-0.285749 0.296332,-0.275166 0.07408,0.01058 0.07408,0.105833 0.07408,0.158749 0,0.211666 -0.04233,0.433916 -0.07408,0.656165 0,0.05292 -0.04233,0.0635 -0.08467,0.09525 -0.137583,0.07408 -0.264583,0.179916 -0.370416,0.296332 -0.158749,0.148166 -0.275166,0.317499 -0.359832,0.518582 -0.169333,0.359832 -0.243416,0.761997 -0.03175,1.121829 0.127,0.211666 0.349249,0.328083 0.592665,0.328083 0.571498,-0.01058 0.952497,-0.370416 1.227662,-1.05833 0.179917,-0.465665 0.232833,-1.05833 0.22225,-1.068913 0.264582,0.04233 0.518581,0.137582 0.740831,0.285749 0.232832,0.148166 0.412748,-0.179916 0.169333,-0.328083 z m -2.30716,0.846664 c -0.02117,0.105833 -0.07408,0.254 -0.105833,0.359833 -0.02117,0.0635 -0.0635,0.243415 -0.158749,0.243415 -0.0635,0 -0.04233,-0.179916 -0.03175,-0.222249 0.02117,-0.116416 0.0635,-0.201083 0.116416,-0.317499 0.04233,-0.09525 0.127,-0.222249 0.222249,-0.296332 -0.01058,0.09525 -0.02117,0.148166 -0.04233,0.232832 z"
         style="font-style:normal;font-variant:normal;font-weight:normal;font-stretch:normal;font-family:Antique;-inkscape-font-specification:Antique"
         id="path82" />
      <path
         d="m 67.130262,70.483161 c -0.105833,-0.03175 -0.169333,0.04233 -0.201082,0.116416 -0.03175,0.05292 -0.04233,0.105833 -0.0635,0.148166 -0.05292,0.169333 -0.116417,0.328083 -0.1905,0.497415 -0.0635,0.137583 -0.126999,0.285749 -0.232832,0.412749 -0.116417,0.148166 -0.285749,0.264583 -0.476249,0.285749 -0.126999,0.01058 -0.264582,-0.03175 -0.359832,-0.126999 -0.127,-0.137583 -0.211666,-0.317499 -0.275166,-0.486832 -0.04233,-0.116417 -0.105833,-0.275166 -0.105833,-0.402166 0,0 0,-0.02117 0,-0.04233 0.232833,-0.211666 0.465665,-0.444498 0.677331,-0.698498 0.22225,-0.285749 0.476249,-0.613831 0.455082,-1.005413 -0.01058,-0.423332 -0.423332,-0.719664 -0.83608,-0.677331 -0.465666,0.05292 -0.825498,0.370415 -1.068914,0.751414 -0.455081,0.677331 -0.560914,1.682745 -0.285749,2.455326 0.105833,0.306915 0.275166,0.592664 0.529165,0.793747 0.317499,0.232833 0.687915,0.285749 1.05833,0.169333 0.529165,-0.15875 0.888997,-0.539749 1.132413,-1.015997 0.15875,-0.296332 0.296333,-0.624415 0.370416,-0.96308 0.02117,-0.09525 -0.04233,-0.179916 -0.127,-0.211666 z m -1.883827,-0.486832 c 0.08467,-0.444499 0.211666,-0.645581 0.306916,-0.740831 0.03175,-0.03175 0.07408,-0.07408 0.158749,-0.09525 0.01058,0 0.105833,-0.01058 0.148166,0.03175 0.04233,0.0635 -0.02117,0.201083 -0.08467,0.317499 -0.0635,0.116416 -0.148166,0.232833 -0.328082,0.433915 -0.08467,0.105833 -0.169333,0.179917 -0.22225,0.243416 0,-0.04233 0.01058,-0.105833 0.02117,-0.190499 z"
         style="font-style:normal;font-variant:normal;font-weight:normal;font-stretch:normal;font-family:Antique;-inkscape-font-specification:Antique"
         id="path84" />
      <path
         d="m 70.665077,67.477504 c -0.201082,-0.380999 -0.634998,-0.433916 -1.037163,-0.423332 -0.380999,0.01058 -0.772581,0.04233 -1.164163,0.0635 -0.04233,-0.571498 -1.015997,-0.687914 -1.12183,-0.07408 -0.01058,0.05292 -0.02117,0.116417 -0.03175,0.179916 -0.296332,0.02117 -0.592664,0.02117 -0.888997,-0.04233 -0.201082,-0.03175 -0.412748,-0.09525 -0.592664,-0.190499 -0.201083,-0.105833 -0.306916,-0.275166 -0.444499,-0.433915 -0.127,-0.127 -0.317499,0.01058 -0.285749,0.158749 0.07408,0.349249 0.455082,0.687915 0.751414,0.836081 0.423332,0.211666 0.899581,0.243416 1.365246,0.222249 -0.127,0.740831 -0.232833,1.492245 -0.253999,2.254243 -0.02117,0.666748 -0.05292,1.365246 0.148166,2.010827 0.211666,0.656164 0.86783,1.333496 1.619245,1.015997 0.402165,-0.169333 0.666748,-0.592665 0.857247,-1.005414 0.190499,-0.433915 0.359832,-1.068913 0.359832,-1.449912 -0.01058,-0.137583 -0.179916,-0.158749 -0.253999,-0.03175 -0.296332,0.529165 -0.380999,1.164163 -0.793748,1.640412 -0.465665,0.550331 -0.645581,-0.666748 -0.687914,-0.941914 -0.05292,-0.402165 -0.04233,-0.825497 -0.03175,-1.238246 0.02117,-0.804331 0.15875,-1.587495 0.243416,-2.381243 0.148166,-0.02117 0.296332,-0.03175 0.433915,-0.05292 0.264583,-0.04233 0.539749,-0.08467 0.804331,-0.127 0.285749,-0.03175 0.560915,-0.03175 0.772581,0.1905 0.116416,0.137583 0.306916,-0.03175 0.232832,-0.179916 z"
         style="font-style:normal;font-variant:normal;font-weight:normal;font-stretch:normal;font-family:Antique;-inkscape-font-specification:Antique"
         id="path86" />
      <path
         d="m 73.342636,67.477504 c -0.201082,-0.380999 -0.634998,-0.433916 -1.037163,-0.423332 -0.380999,0.01058 -0.772581,0.04233 -1.164163,0.0635 -0.04233,-0.571498 -1.015997,-0.687914 -1.12183,-0.07408 -0.01058,0.05292 -0.02117,0.116417 -0.03175,0.179916 -0.296332,0.02117 -0.592664,0.02117 -0.888997,-0.04233 -0.201082,-0.03175 -0.412748,-0.09525 -0.592665,-0.190499 -0.201082,-0.105833 -0.306915,-0.275166 -0.444498,-0.433915 -0.127,-0.127 -0.317499,0.01058 -0.285749,0.158749 0.07408,0.349249 0.455082,0.687915 0.751414,0.836081 0.423332,0.211666 0.89958,0.243416 1.365246,0.222249 -0.127,0.740831 -0.232833,1.492245 -0.254,2.254243 -0.02117,0.666748 -0.05292,1.365246 0.148167,2.010827 0.211666,0.656164 0.86783,1.333496 1.619245,1.015997 0.402165,-0.169333 0.666747,-0.592665 0.857247,-1.005414 0.190499,-0.433915 0.359832,-1.068913 0.359832,-1.449912 -0.01058,-0.137583 -0.179916,-0.158749 -0.253999,-0.03175 -0.296333,0.529165 -0.380999,1.164163 -0.793748,1.640412 -0.465665,0.550331 -0.645581,-0.666748 -0.687914,-0.941914 -0.05292,-0.402165 -0.04233,-0.825497 -0.03175,-1.238246 0.02117,-0.804331 0.158749,-1.587495 0.243416,-2.381243 0.148166,-0.02117 0.296332,-0.03175 0.433915,-0.05292 0.264583,-0.04233 0.539748,-0.08467 0.804331,-0.127 0.285749,-0.03175 0.560915,-0.03175 0.772581,0.1905 0.116416,0.137583 0.306915,-0.03175 0.232832,-0.179916 z"
         style="font-style:normal;font-variant:normal;font-weight:normal;font-stretch:normal;font-family:Antique;-inkscape-font-specification:Antique"
         id="path88" />
      <path
         d="m 75.364031,70.483161 c -0.105833,-0.03175 -0.169333,0.04233 -0.201083,0.116416 -0.03175,0.05292 -0.04233,0.105833 -0.0635,0.148166 -0.05292,0.169333 -0.116416,0.328083 -0.190499,0.497415 -0.0635,0.137583 -0.127,0.285749 -0.232833,0.412749 -0.116416,0.148166 -0.285749,0.264583 -0.476248,0.285749 -0.127,0.01058 -0.264583,-0.03175 -0.359832,-0.126999 -0.127,-0.137583 -0.211666,-0.317499 -0.275166,-0.486832 -0.04233,-0.116417 -0.105833,-0.275166 -0.105833,-0.402166 0,0 0,-0.02117 0,-0.04233 0.232832,-0.211666 0.465665,-0.444498 0.677331,-0.698498 0.222249,-0.285749 0.476248,-0.613831 0.455082,-1.005413 -0.01058,-0.423332 -0.423332,-0.719664 -0.836081,-0.677331 -0.465665,0.05292 -0.825497,0.370415 -1.068913,0.751414 -0.455082,0.677331 -0.560915,1.682745 -0.285749,2.455326 0.105833,0.306915 0.275166,0.592664 0.529165,0.793747 0.317499,0.232833 0.687914,0.285749 1.05833,0.169333 0.529165,-0.15875 0.888997,-0.539749 1.132413,-1.015997 0.158749,-0.296332 0.296332,-0.624415 0.370415,-0.96308 0.02117,-0.09525 -0.04233,-0.179916 -0.126999,-0.211666 z m -1.883828,-0.486832 c 0.08467,-0.444499 0.211666,-0.645581 0.306916,-0.740831 0.03175,-0.03175 0.07408,-0.07408 0.15875,-0.09525 0.01058,0 0.105833,-0.01058 0.148166,0.03175 0.04233,0.0635 -0.02117,0.201083 -0.08467,0.317499 -0.0635,0.116416 -0.148166,0.232833 -0.328082,0.433915 -0.08467,0.105833 -0.169333,0.179917 -0.222249,0.243416 0,-0.04233 0.01058,-0.105833 0.02117,-0.190499 z"
         style="font-style:normal;font-variant:normal;font-weight:normal;font-stretch:normal;font-family:Antique;-inkscape-font-specification:Antique"
         id="path90" />
      <path
         d="m 79.142262,70.652494 c -0.02117,-0.0635 -0.07408,-0.116417 -0.137583,-0.127 -0.07408,0 -0.127,0.05292 -0.15875,0.127 -0.02117,0.03175 -0.03175,0.07408 -0.04233,0.105833 -0.190499,0.698497 -0.465665,1.396995 -0.984247,1.904993 -0.105833,0.105833 -0.243416,0.105833 -0.232832,-0.0635 0.08467,-1.164163 0.253999,-2.328326 0.253999,-3.503072 0.02117,-0.306916 -0.285749,-0.613832 -0.592665,-0.592665 -0.592665,0.02117 -0.634998,0.761997 -0.93133,1.132413 -0.137583,0.169333 -0.529165,0.444498 -0.772581,0.402165 0.0635,0.01058 0.127,-0.07408 0.148166,-0.126999 0.0635,-0.179917 0.116416,-0.380999 0.02117,-0.550332 -0.105833,-0.169333 -0.306916,-0.243416 -0.486832,-0.148166 -0.243416,0.116416 -0.317499,0.423332 -0.317499,0.666748 -0.01058,0.285749 0.09525,0.550331 0.359832,0.677331 0.116416,0.05292 0.243416,0.07408 0.370416,0.0635 0.317499,-0.03175 0.687914,-0.264583 0.920747,-0.539749 -0.04233,0.423332 -0.07408,0.846664 -0.127,1.28058 -0.07408,0.730247 -0.116416,1.725077 0.719664,2.031993 0.391583,0.148166 0.772581,-0.02117 1.047747,-0.306916 0.15875,-0.169332 0.285749,-0.370415 0.391582,-0.582081 0.264583,-0.518582 0.455082,-1.079497 0.550332,-1.650995 0.01058,-0.0635 0.02117,-0.137583 0,-0.201082 z"
         style="font-style:normal;font-variant:normal;font-weight:normal;font-stretch:normal;font-family:Antique;-inkscape-font-specification:Antique"
         id="path92" />
    </g>
  </g>
</svg>
