<?xml version="1.0" encoding="UTF-8" standalone="no"?>
<svg
   xmlns:dc="http://purl.org/dc/elements/1.1/"
   xmlns:cc="http://creativecommons.org/ns#"
   xmlns:rdf="http://www.w3.org/1999/02/22-rdf-syntax-ns#"
   xmlns:svg="http://www.w3.org/2000/svg"
   xmlns="http://www.w3.org/2000/svg"
   width="120mm"
   height="40mm"
   viewBox="0 0 120 40"
   version="1.1"
   id="svg8">
  <defs
     id="defs2" />
  <metadata
     id="metadata5">
    <rdf:RDF>
      <cc:Work
         rdf:about="">
        <dc:format>image/svg+xml</dc:format>
        <dc:type
           rdf:resource="http://purl.org/dc/dcmitype/StillImage" />
        <dc:title></dc:title>
      </cc:Work>
    </rdf:RDF>
  </metadata>
  <g
     id="layer1">
    <path
       style="fill:#000000;stroke-width:0.224534"
       d="m 11.999648,36.773514 c 0.949947,-1.320344 2.398157,-2.264046 4.973982,-3.241213 1.167818,-0.443024 2.430819,-0.989476 2.806669,-1.214341 0.375852,-0.22486 1.407207,-0.680394 2.291908,-1.012299 0.8847,-0.331905 1.663542,-0.746777 1.730756,-0.921936 0.06722,-0.175163 -0.126844,-0.614454 -0.431234,-0.976204 l -0.553442,-0.657732 2.078424,-1.024058 c 1.143134,-0.563232 2.886747,-1.242024 3.874694,-1.508429 0.987947,-0.266407 2.250947,-0.713992 2.806669,-0.994639 1.113202,-0.56219 4.162033,-3.210832 5.622163,-4.884199 0.513546,-0.588546 1.402237,-1.34465 1.974865,-1.680233 0.998106,-0.584932 1.153853,-0.607701 3.767976,-0.550878 3.190128,0.06935 4.409892,-0.270137 6.260883,-1.742503 5.07424,-4.036299 13.959431,-10.1123203 14.787611,-10.1123203 0.172194,0 0.885723,0.9596018 1.585623,2.1324528 2.409769,4.0381375 5.017449,7.1072225 6.315552,7.4330245 0.320953,0.08053 0.833454,0.03259 1.138892,-0.106588 1.497472,-0.682293 2.409864,-0.01857 5.207443,3.788574 2.956919,4.02392 3.73311,4.715206 5.294296,4.715206 0.623431,0 1.05099,-0.235177 2.088091,-1.148504 2.796347,-2.462648 4.590485,-3.349577 5.82905,-2.881577 0.890778,0.336579 1.676291,1.128553 3.442739,3.471046 1.571939,2.08455 2.550849,3.065357 5.376032,5.386506 2.34568,1.927177 3.02439,2.287147 5.2926,2.807045 2.28801,0.524438 8.07948,2.776895 8.75056,3.403328 0.43636,0.407328 0.43184,0.413369 -0.30979,0.413369 -0.41394,0 -1.5375,-0.215103 -2.49681,-0.478005 -2.64941,-0.726081 -3.5698,-0.519845 -5.22227,1.170177 -0.7145,0.730747 -1.33636,1.32863 -1.3819,1.32863 -0.0456,0 -0.38262,-0.53046 -0.74906,-1.178803 -0.94752,-1.676428 -2.54996,-3.071721 -4.847303,-4.220723 -2.023368,-1.011975 -2.443255,-1.391802 -3.602251,-3.258607 -0.71802,-1.156516 -2.249252,-2.257339 -3.45442,-2.483431 -1.064054,-0.199614 -2.876069,0.250506 -4.10444,1.019588 -0.801445,0.501788 -1.116172,0.882186 -1.434418,1.733732 -0.224224,0.599998 -0.761411,1.873962 -1.193727,2.831038 l -0.786022,1.740134 -1.596625,0.0013 c -0.977061,9e-4 -1.84619,0.131536 -2.239758,0.3368 -1.710582,0.892134 -1.376425,0.235893 1.345451,-2.642299 2.640134,-2.791757 3.730236,-4.162632 3.546487,-4.459942 -0.225787,-0.36532 -1.401089,-0.199481 -3.267747,0.461069 -1.651583,0.584449 -1.934219,0.625759 -2.542276,0.371568 -0.864402,-0.361339 -2.443522,-1.889673 -3.675345,-3.557134 -0.523749,-0.708939 -1.106233,-1.289008 -1.294412,-1.289008 -0.196353,0 -0.582211,0.524389 -0.905544,1.230642 -0.309873,0.676853 -0.652855,1.285927 -0.76218,1.353493 -0.307281,0.189907 -0.624319,-0.572966 -1.117976,-2.690124 -0.24894,-1.067631 -0.611621,-2.248627 -0.80596,-2.624438 -0.331988,-0.641992 -0.410993,-0.674645 -1.307178,-0.540255 -0.524604,0.07869 -1.116645,0.08056 -1.315641,0.0042 -0.199004,-0.07635 -0.866473,-0.830513 -1.483284,-1.675894 -1.31682,-1.804793 -1.854033,-2.18199 -2.371148,-1.664875 -0.42631,0.426307 -0.459343,2.098602 -0.110025,5.569489 0.177974,1.768349 0.175481,2.48885 -0.0095,2.711639 -0.506428,0.610209 -0.686525,1.783571 -0.466759,3.040984 0.118755,0.679406 0.259494,1.925708 0.312768,2.769559 l 0.09688,1.534276 -0.670179,-0.636144 C 63.330415,30.753787 62.604128,29.419713 61.781525,27.234261 61.470998,26.409264 60.91589,25.391403 60.547956,24.97235 l -0.668971,-0.761918 0.139494,-2.752099 c 0.13915,-2.745765 0.137877,-2.755448 -0.559235,-4.207644 -0.384299,-0.800553 -0.813648,-2.011269 -0.954118,-2.690483 -0.254456,-1.230361 -0.656511,-2.019 -0.656511,-1.287742 0,0.205581 -0.202239,0.482046 -0.449438,0.614337 -0.24719,0.132314 -0.592275,0.582396 -0.766857,1.000231 -0.174578,0.417831 -0.53661,0.877001 -0.804507,1.020375 -0.962199,0.514952 -1.171562,1.567599 -1.000361,5.029641 0.15217,3.077232 0.140344,3.20354 -0.422723,4.513036 l -0.579276,1.347201 -0.0093,-1.382727 c -0.0087,-1.325559 -0.0501,-1.424775 -0.997563,-2.399658 -1.238518,-1.274341 -1.58005,-2.25869 -1.384225,-3.989555 l 0.149385,-1.320429 -1.751216,0.790902 c -2.229215,1.006783 -4.067572,2.258605 -4.7016,3.201534 -0.626061,0.931101 -0.97894,2.556684 -0.97894,4.509652 v 1.520685 l -2.454883,1.611734 c -1.350185,0.886455 -2.511979,1.611734 -2.581763,1.611734 -0.06977,0 0.214359,-0.479939 0.631421,-1.066534 0.904434,-1.272063 1.202394,-2.076937 0.768879,-2.076937 -0.164237,0 -1.043875,0.5052 -1.954764,1.12267 -2.327955,1.57806 -2.694996,1.403371 -0.751965,-0.357886 2.10816,-1.910944 2.138621,-2.300373 0.120501,-1.540762 -0.952403,0.358487 -2.15294,0.605454 -3.260891,0.670814 -2.063372,0.121729 -2.833642,0.409528 -4.253942,1.589444 -0.578186,0.480328 -1.639107,1.218058 -2.357603,1.639395 -0.718496,0.42134 -1.924888,1.157299 -2.680872,1.635468 -0.964643,0.610144 -3.140663,1.464012 -7.297341,2.863464 -3.257554,1.096737 -6.119028,2.071446 -6.358831,2.166021 -0.349714,0.137928 -0.294348,-0.02493 0.279735,-0.822867 z"
       id="path76" />
  </g>
</svg>
