  0
SECTION
  2
HEADER
  9
$ACADVER
  1
AC1014
  9
$HANDSEED
  5
FFFF
  9
$MEASUREMENT
 70
     1
  0
ENDSEC
  0
SECTION
  2
TABLES
  0
TABLE
  2
VPORT
  5
8
330
0
100
AcDbSymbolTable
 70
     4
  0
VPORT
  5
2E
330
8
100
AcDbSymbolTableRecord
100
AcDbViewportTableRecord
  2
*ACTIVE
 70
     0
 10
0.0
 20
0.0
 11
1.0
 21
1.0
 12
210.0
 22
148.5
 13
0.0
 23
0.0
 14
10.0
 24
10.0
 15
10.0
 25
10.0
 16
0.0
 26
0.0
 36
1.0
 17
0.0
 27
0.0
 37
0.0
 40
341.0
 41
1.24
 42
50.0
 43
0.0
 44
0.0
 50
0.0
 51
0.0
 71
     0
 72
   100
 73
     1
 74
     3
 75
     0
 76
     0
 77
     0
 78
     0
  0
ENDTAB
  0
TABLE
  2
LTYPE
  5
5
330
0
100
AcDbSymbolTable
 70
     1
  0
LTYPE
  5
14
330
5
100
AcDbSymbolTableRecord
100
AcDbLinetypeTableRecord
  2
BYBLOCK
 70
     0
  3

 72
    65
 73
     0
 40
0.0
  0
LTYPE
  5
15
330
5
100
AcDbSymbolTableRecord
100
AcDbLinetypeTableRecord
  2
BYLAYER
 70
     0
  3

 72
    65
 73
     0
 40
0.0
  0
LTYPE
  5
16
330
5
100
AcDbSymbolTableRecord
100
AcDbLinetypeTableRecord
  2
CONTINUOUS
 70
     0
  3
Solid line
 72
    65
 73
     0
 40
0.0
  0
ENDTAB
  0
TABLE
  2
LAYER
  5
2
100
AcDbSymbolTable
 70
2
  0
LAYER
  5
50
100
AcDbSymbolTableRecord
100
AcDbLayerTableRecord
  2
0
 70
0
  6
CONTINUOUS
  0
LAYER
  5
51
100
AcDbSymbolTableRecord
100
AcDbLayerTableRecord
  2
Layer_1
 70
0
  6
CONTINUOUS
  0
ENDTAB
  0
TABLE
  2
STYLE
  5
3
330
0
100
AcDbSymbolTable
 70
     1
  0
STYLE
  5
11
330
3
100
AcDbSymbolTableRecord
100
AcDbTextStyleTableRecord
  2
STANDARD
 70
     0
 40
0.0
 41
1.0
 50
0.0
 71
     0
 42
2.5
  3
txt
  4

  0
ENDTAB
  0
TABLE
  2
VIEW
  5
6
330
0
100
AcDbSymbolTable
 70
     0
  0
ENDTAB
  0
TABLE
  2
UCS
  5
7
330
0
100
AcDbSymbolTable
 70
     0
  0
ENDTAB
  0
TABLE
  2
APPID
  5
9
330
0
100
AcDbSymbolTable
 70
     2
  0
APPID
  5
12
330
9
100
AcDbSymbolTableRecord
100
AcDbRegAppTableRecord
  2
ACAD
 70
     0
  0
ENDTAB
  0
TABLE
  2
DIMSTYLE
  5
A
330
0
100
AcDbSymbolTable
 70
     1
  0
DIMSTYLE
105
27
330
A
100
AcDbSymbolTableRecord
100
AcDbDimStyleTableRecord
  2
ISO-25
 70
     0
  3

  4

  5

  6

  7

 40
1.0
 41
2.5
 42
0.625
 43
3.75
 44
1.25
 45
0.0
 46
0.0
 47
0.0
 48
0.0
140
2.5
141
2.5
142
0.0
143
0.03937007874016
144
1.0
145
0.0
146
1.0
147
0.625
 71
     0
 72
     0
 73
     0
 74
     0
 75
     0
 76
     0
 77
     1
 78
     8
170
     0
171
     3
172
     1
173
     0
174
     0
175
     0
176
     0
177
     0
178
     0
270
     2
271
     2
272
     2
273
     2
274
     3
340
11
275
     0
280
     0
281
     0
282
     0
283
     0
284
     8
285
     0
286
     0
287
     3
288
     0
  0
ENDTAB
  0
TABLE
  2
BLOCK_RECORD
  5
1
330
0
100
AcDbSymbolTable
 70
     1
  0
BLOCK_RECORD
  5
1F
330
1
100
AcDbSymbolTableRecord
100
AcDbBlockTableRecord
  2
*MODEL_SPACE
  0
BLOCK_RECORD
  5
1B
330
1
100
AcDbSymbolTableRecord
100
AcDbBlockTableRecord
  2
*PAPER_SPACE
  0
ENDTAB
  0
ENDSEC
  0
SECTION
  2
BLOCKS
  0
BLOCK
  5
20
330
1F
100
AcDbEntity
  8
0
100
AcDbBlockBegin
  2
*MODEL_SPACE
 70
     0
 10
0.0
 20
0.0
 30
0.0
  3
*MODEL_SPACE
  1

  0
ENDBLK
  5
21
330
1F
100
AcDbEntity
  8
0
100
AcDbBlockEnd
  0
BLOCK
  5
1C
330
1B
100
AcDbEntity
 67
     1
  8
0
100
AcDbBlockBegin
  2
*PAPER_SPACE
  1

  0
ENDBLK
  5
1D
330
1B
100
AcDbEntity
 67
     1
  8
0
100
AcDbBlockEnd
  0
ENDSEC
  0
SECTION
  2
ENTITIES
  0
SPLINE
  5
100
100
AcDbEntity
  8
Layer_1
 62
7
100
AcDbSpline
 70
8
 71
3
 72
8
 73
4
 74
0
 40
0
 40
0
 40
0
 40
0
 40
1
 40
1
 40
1
 40
1
 10
11.999648
 20
3.226486
 30
0.0
 10
12.949595
 20
4.546830
 30
0.0
 10
14.397805
 20
5.490532
 30
0.0
 10
16.973630
 20
6.467699
 30
0.0
  0
SPLINE
  5
101
100
AcDbEntity
  8
Layer_1
 62
7
100
AcDbSpline
 70
8
 71
3
 72
8
 73
4
 74
0
 40
0
 40
0
 40
0
 40
0
 40
1
 40
1
 40
1
 40
1
 10
16.973630
 20
6.467699
 30
0.0
 10
18.141448
 20
6.910723
 30
0.0
 10
19.404449
 20
7.457175
 30
0.0
 10
19.780299
 20
7.682040
 30
0.0
  0
SPLINE
  5
102
100
AcDbEntity
  8
Layer_1
 62
7
100
AcDbSpline
 70
8
 71
3
 72
8
 73
4
 74
0
 40
0
 40
0
 40
0
 40
0
 40
1
 40
1
 40
1
 40
1
 10
19.780299
 20
7.682040
 30
0.0
 10
20.156151
 20
7.906900
 30
0.0
 10
21.187506
 20
8.362434
 30
0.0
 10
22.072207
 20
8.694339
 30
0.0
  0
SPLINE
  5
103
100
AcDbEntity
  8
Layer_1
 62
7
100
AcDbSpline
 70
8
 71
3
 72
8
 73
4
 74
0
 40
0
 40
0
 40
0
 40
0
 40
1
 40
1
 40
1
 40
1
 10
22.072207
 20
8.694339
 30
0.0
 10
22.956907
 20
9.026244
 30
0.0
 10
23.735749
 20
9.441116
 30
0.0
 10
23.802963
 20
9.616275
 30
0.0
  0
SPLINE
  5
104
100
AcDbEntity
  8
Layer_1
 62
7
100
AcDbSpline
 70
8
 71
3
 72
8
 73
4
 74
0
 40
0
 40
0
 40
0
 40
0
 40
1
 40
1
 40
1
 40
1
 10
23.802963
 20
9.616275
 30
0.0
 10
23.870183
 20
9.791438
 30
0.0
 10
23.676119
 20
10.230729
 30
0.0
 10
23.371729
 20
10.592479
 30
0.0
  0
SPLINE
  5
105
100
AcDbEntity
  8
Layer_1
 62
7
100
AcDbSpline
 70
8
 71
3
 72
8
 73
4
 74
0
 40
0
 40
0
 40
0
 40
0
 40
1
 40
1
 40
1
 40
1
 10
24.896711
 20
12.274269
 30
0.0
 10
26.039845
 20
12.837501
 30
0.0
 10
27.783458
 20
13.516293
 30
0.0
 10
28.771405
 20
13.782698
 30
0.0
  0
SPLINE
  5
106
100
AcDbEntity
  8
Layer_1
 62
7
100
AcDbSpline
 70
8
 71
3
 72
8
 73
4
 74
0
 40
0
 40
0
 40
0
 40
0
 40
1
 40
1
 40
1
 40
1
 10
28.771405
 20
13.782698
 30
0.0
 10
29.759352
 20
14.049105
 30
0.0
 10
31.022352
 20
14.496690
 30
0.0
 10
31.578074
 20
14.777337
 30
0.0
  0
SPLINE
  5
107
100
AcDbEntity
  8
Layer_1
 62
7
100
AcDbSpline
 70
8
 71
3
 72
8
 73
4
 74
0
 40
0
 40
0
 40
0
 40
0
 40
1
 40
1
 40
1
 40
1
 10
31.578074
 20
14.777337
 30
0.0
 10
32.691276
 20
15.339527
 30
0.0
 10
35.740107
 20
17.988169
 30
0.0
 10
37.200237
 20
19.661536
 30
0.0
  0
SPLINE
  5
108
100
AcDbEntity
  8
Layer_1
 62
7
100
AcDbSpline
 70
8
 71
3
 72
8
 73
4
 74
0
 40
0
 40
0
 40
0
 40
0
 40
1
 40
1
 40
1
 40
1
 10
37.200237
 20
19.661536
 30
0.0
 10
37.713783
 20
20.250082
 30
0.0
 10
38.602474
 20
21.006186
 30
0.0
 10
39.175102
 20
21.341769
 30
0.0
  0
SPLINE
  5
109
100
AcDbEntity
  8
Layer_1
 62
7
100
AcDbSpline
 70
8
 71
3
 72
8
 73
4
 74
0
 40
0
 40
0
 40
0
 40
0
 40
1
 40
1
 40
1
 40
1
 10
39.175102
 20
21.341769
 30
0.0
 10
40.173208
 20
21.926701
 30
0.0
 10
40.328955
 20
21.949470
 30
0.0
 10
42.943078
 20
21.892647
 30
0.0
  0
SPLINE
  5
10a
100
AcDbEntity
  8
Layer_1
 62
7
100
AcDbSpline
 70
8
 71
3
 72
8
 73
4
 74
0
 40
0
 40
0
 40
0
 40
0
 40
1
 40
1
 40
1
 40
1
 10
42.943078
 20
21.892647
 30
0.0
 10
46.133206
 20
21.823297
 30
0.0
 10
47.352970
 20
22.162784
 30
0.0
 10
49.203961
 20
23.635150
 30
0.0
  0
SPLINE
  5
10b
100
AcDbEntity
  8
Layer_1
 62
7
100
AcDbSpline
 70
8
 71
3
 72
8
 73
4
 74
0
 40
0
 40
0
 40
0
 40
0
 40
1
 40
1
 40
1
 40
1
 10
49.203961
 20
23.635150
 30
0.0
 10
54.278201
 20
27.671449
 30
0.0
 10
63.163392
 20
33.747470
 30
0.0
 10
63.991572
 20
33.747470
 30
0.0
  0
SPLINE
  5
10c
100
AcDbEntity
  8
Layer_1
 62
7
100
AcDbSpline
 70
8
 71
3
 72
8
 73
4
 74
0
 40
0
 40
0
 40
0
 40
0
 40
1
 40
1
 40
1
 40
1
 10
63.991572
 20
33.747470
 30
0.0
 10
64.163766
 20
33.747470
 30
0.0
 10
64.877295
 20
32.787868
 30
0.0
 10
65.577195
 20
31.615017
 30
0.0
  0
SPLINE
  5
10d
100
AcDbEntity
  8
Layer_1
 62
7
100
AcDbSpline
 70
8
 71
3
 72
8
 73
4
 74
0
 40
0
 40
0
 40
0
 40
0
 40
1
 40
1
 40
1
 40
1
 10
65.577195
 20
31.615017
 30
0.0
 10
67.986964
 20
27.576880
 30
0.0
 10
70.594644
 20
24.507795
 30
0.0
 10
71.892747
 20
24.181993
 30
0.0
  0
SPLINE
  5
10e
100
AcDbEntity
  8
Layer_1
 62
7
100
AcDbSpline
 70
8
 71
3
 72
8
 73
4
 74
0
 40
0
 40
0
 40
0
 40
0
 40
1
 40
1
 40
1
 40
1
 10
71.892747
 20
24.181993
 30
0.0
 10
72.213700
 20
24.101463
 30
0.0
 10
72.726201
 20
24.149403
 30
0.0
 10
73.031639
 20
24.288581
 30
0.0
  0
SPLINE
  5
10f
100
AcDbEntity
  8
Layer_1
 62
7
100
AcDbSpline
 70
8
 71
3
 72
8
 73
4
 74
0
 40
0
 40
0
 40
0
 40
0
 40
1
 40
1
 40
1
 40
1
 10
73.031639
 20
24.288581
 30
0.0
 10
74.529111
 20
24.970874
 30
0.0
 10
75.441503
 20
24.307151
 30
0.0
 10
78.239082
 20
20.500007
 30
0.0
  0
SPLINE
  5
110
100
AcDbEntity
  8
Layer_1
 62
7
100
AcDbSpline
 70
8
 71
3
 72
8
 73
4
 74
0
 40
0
 40
0
 40
0
 40
0
 40
1
 40
1
 40
1
 40
1
 10
78.239082
 20
20.500007
 30
0.0
 10
81.196001
 20
16.476087
 30
0.0
 10
81.972192
 20
15.784801
 30
0.0
 10
83.533378
 20
15.784801
 30
0.0
  0
SPLINE
  5
111
100
AcDbEntity
  8
Layer_1
 62
7
100
AcDbSpline
 70
8
 71
3
 72
8
 73
4
 74
0
 40
0
 40
0
 40
0
 40
0
 40
1
 40
1
 40
1
 40
1
 10
83.533378
 20
15.784801
 30
0.0
 10
84.156809
 20
15.784801
 30
0.0
 10
84.584368
 20
16.019978
 30
0.0
 10
85.621469
 20
16.933305
 30
0.0
  0
SPLINE
  5
112
100
AcDbEntity
  8
Layer_1
 62
7
100
AcDbSpline
 70
8
 71
3
 72
8
 73
4
 74
0
 40
0
 40
0
 40
0
 40
0
 40
1
 40
1
 40
1
 40
1
 10
85.621469
 20
16.933305
 30
0.0
 10
88.417816
 20
19.395953
 30
0.0
 10
90.211954
 20
20.282882
 30
0.0
 10
91.450519
 20
19.814882
 30
0.0
  0
SPLINE
  5
113
100
AcDbEntity
  8
Layer_1
 62
7
100
AcDbSpline
 70
8
 71
3
 72
8
 73
4
 74
0
 40
0
 40
0
 40
0
 40
0
 40
1
 40
1
 40
1
 40
1
 10
91.450519
 20
19.814882
 30
0.0
 10
92.341297
 20
19.478303
 30
0.0
 10
93.126810
 20
18.686329
 30
0.0
 10
94.893258
 20
16.343836
 30
0.0
  0
SPLINE
  5
114
100
AcDbEntity
  8
Layer_1
 62
7
100
AcDbSpline
 70
8
 71
3
 72
8
 73
4
 74
0
 40
0
 40
0
 40
0
 40
0
 40
1
 40
1
 40
1
 40
1
 10
94.893258
 20
16.343836
 30
0.0
 10
96.465197
 20
14.259286
 30
0.0
 10
97.444107
 20
13.278479
 30
0.0
 10
100.269290
 20
10.957330
 30
0.0
  0
SPLINE
  5
115
100
AcDbEntity
  8
Layer_1
 62
7
100
AcDbSpline
 70
8
 71
3
 72
8
 73
4
 74
0
 40
0
 40
0
 40
0
 40
0
 40
1
 40
1
 40
1
 40
1
 10
100.269290
 20
10.957330
 30
0.0
 10
102.614970
 20
9.030153
 30
0.0
 10
103.293680
 20
8.670183
 30
0.0
 10
105.561890
 20
8.150285
 30
0.0
  0
SPLINE
  5
116
100
AcDbEntity
  8
Layer_1
 62
7
100
AcDbSpline
 70
8
 71
3
 72
8
 73
4
 74
0
 40
0
 40
0
 40
0
 40
0
 40
1
 40
1
 40
1
 40
1
 10
105.561890
 20
8.150285
 30
0.0
 10
107.849900
 20
7.625847
 30
0.0
 10
113.641370
 20
5.373390
 30
0.0
 10
114.312450
 20
4.746957
 30
0.0
  0
SPLINE
  5
117
100
AcDbEntity
  8
Layer_1
 62
7
100
AcDbSpline
 70
8
 71
3
 72
8
 73
4
 74
0
 40
0
 40
0
 40
0
 40
0
 40
1
 40
1
 40
1
 40
1
 10
114.312450
 20
4.746957
 30
0.0
 10
114.748810
 20
4.339629
 30
0.0
 10
114.744290
 20
4.333588
 30
0.0
 10
114.002660
 20
4.333588
 30
0.0
  0
SPLINE
  5
118
100
AcDbEntity
  8
Layer_1
 62
7
100
AcDbSpline
 70
8
 71
3
 72
8
 73
4
 74
0
 40
0
 40
0
 40
0
 40
0
 40
1
 40
1
 40
1
 40
1
 10
114.002660
 20
4.333588
 30
0.0
 10
113.588720
 20
4.333588
 30
0.0
 10
112.465160
 20
4.548691
 30
0.0
 10
111.505850
 20
4.811593
 30
0.0
  0
SPLINE
  5
119
100
AcDbEntity
  8
Layer_1
 62
7
100
AcDbSpline
 70
8
 71
3
 72
8
 73
4
 74
0
 40
0
 40
0
 40
0
 40
0
 40
1
 40
1
 40
1
 40
1
 10
111.505850
 20
4.811593
 30
0.0
 10
108.856440
 20
5.537674
 30
0.0
 10
107.936050
 20
5.331438
 30
0.0
 10
106.283580
 20
3.641416
 30
0.0
  0
SPLINE
  5
11a
100
AcDbEntity
  8
Layer_1
 62
7
100
AcDbSpline
 70
8
 71
3
 72
8
 73
4
 74
0
 40
0
 40
0
 40
0
 40
0
 40
1
 40
1
 40
1
 40
1
 10
106.283580
 20
3.641416
 30
0.0
 10
105.569080
 20
2.910669
 30
0.0
 10
104.947220
 20
2.312786
 30
0.0
 10
104.901680
 20
2.312786
 30
0.0
  0
SPLINE
  5
11b
100
AcDbEntity
  8
Layer_1
 62
7
100
AcDbSpline
 70
8
 71
3
 72
8
 73
4
 74
0
 40
0
 40
0
 40
0
 40
0
 40
1
 40
1
 40
1
 40
1
 10
104.901680
 20
2.312786
 30
0.0
 10
104.856080
 20
2.312786
 30
0.0
 10
104.519060
 20
2.843246
 30
0.0
 10
104.152620
 20
3.491589
 30
0.0
  0
SPLINE
  5
11c
100
AcDbEntity
  8
Layer_1
 62
7
100
AcDbSpline
 70
8
 71
3
 72
8
 73
4
 74
0
 40
0
 40
0
 40
0
 40
0
 40
1
 40
1
 40
1
 40
1
 10
104.152620
 20
3.491589
 30
0.0
 10
103.205100
 20
5.168017
 30
0.0
 10
101.602660
 20
6.563310
 30
0.0
 10
99.305317
 20
7.712312
 30
0.0
  0
SPLINE
  5
11d
100
AcDbEntity
  8
Layer_1
 62
7
100
AcDbSpline
 70
8
 71
3
 72
8
 73
4
 74
0
 40
0
 40
0
 40
0
 40
0
 40
1
 40
1
 40
1
 40
1
 10
99.305317
 20
7.712312
 30
0.0
 10
97.281949
 20
8.724287
 30
0.0
 10
96.862062
 20
9.104114
 30
0.0
 10
95.703066
 20
10.970919
 30
0.0
  0
SPLINE
  5
11e
100
AcDbEntity
  8
Layer_1
 62
7
100
AcDbSpline
 70
8
 71
3
 72
8
 73
4
 74
0
 40
0
 40
0
 40
0
 40
0
 40
1
 40
1
 40
1
 40
1
 10
95.703066
 20
10.970919
 30
0.0
 10
94.985046
 20
12.127435
 30
0.0
 10
93.453814
 20
13.228258
 30
0.0
 10
92.248646
 20
13.454350
 30
0.0
  0
SPLINE
  5
11f
100
AcDbEntity
  8
Layer_1
 62
7
100
AcDbSpline
 70
8
 71
3
 72
8
 73
4
 74
0
 40
0
 40
0
 40
0
 40
0
 40
1
 40
1
 40
1
 40
1
 10
92.248646
 20
13.454350
 30
0.0
 10
91.184592
 20
13.653964
 30
0.0
 10
89.372577
 20
13.203844
 30
0.0
 10
88.144206
 20
12.434762
 30
0.0
  0
SPLINE
  5
120
100
AcDbEntity
  8
Layer_1
 62
7
100
AcDbSpline
 70
8
 71
3
 72
8
 73
4
 74
0
 40
0
 40
0
 40
0
 40
0
 40
1
 40
1
 40
1
 40
1
 10
88.144206
 20
12.434762
 30
0.0
 10
87.342761
 20
11.932974
 30
0.0
 10
87.028034
 20
11.552576
 30
0.0
 10
86.709788
 20
10.701030
 30
0.0
  0
SPLINE
  5
121
100
AcDbEntity
  8
Layer_1
 62
7
100
AcDbSpline
 70
8
 71
3
 72
8
 73
4
 74
0
 40
0
 40
0
 40
0
 40
0
 40
1
 40
1
 40
1
 40
1
 10
86.709788
 20
10.701030
 30
0.0
 10
86.485564
 20
10.101032
 30
0.0
 10
85.948377
 20
8.827068
 30
0.0
 10
85.516061
 20
7.869992
 30
0.0
  0
LWPOLYLINE
  5
122
100
AcDbEntity
  8
Layer_1
 62
7
100
AcDbPolyline
 90
3
 70
0
 10
23.371729
 20
10.592479
 30
0.0
 10
22.818287
 20
11.250211
 30
0.0
 10
24.896711
 20
12.274269
 30
0.0
  0
SPLINE
  5
123
100
AcDbEntity
  8
Layer_1
 62
7
100
AcDbSpline
 70
8
 71
3
 72
8
 73
4
 74
0
 40
0
 40
0
 40
0
 40
0
 40
1
 40
1
 40
1
 40
1
 10
83.133414
 20
6.128558
 30
0.0
 10
82.156353
 20
6.127658
 30
0.0
 10
81.287224
 20
5.997022
 30
0.0
 10
80.893656
 20
5.791758
 30
0.0
  0
SPLINE
  5
124
100
AcDbEntity
  8
Layer_1
 62
7
100
AcDbSpline
 70
8
 71
3
 72
8
 73
4
 74
0
 40
0
 40
0
 40
0
 40
0
 40
1
 40
1
 40
1
 40
1
 10
80.893656
 20
5.791758
 30
0.0
 10
79.183074
 20
4.899624
 30
0.0
 10
79.517231
 20
5.555865
 30
0.0
 10
82.239107
 20
8.434057
 30
0.0
  0
SPLINE
  5
125
100
AcDbEntity
  8
Layer_1
 62
7
100
AcDbSpline
 70
8
 71
3
 72
8
 73
4
 74
0
 40
0
 40
0
 40
0
 40
0
 40
1
 40
1
 40
1
 40
1
 10
82.239107
 20
8.434057
 30
0.0
 10
84.879241
 20
11.225814
 30
0.0
 10
85.969343
 20
12.596689
 30
0.0
 10
85.785594
 20
12.893999
 30
0.0
  0
SPLINE
  5
126
100
AcDbEntity
  8
Layer_1
 62
7
100
AcDbSpline
 70
8
 71
3
 72
8
 73
4
 74
0
 40
0
 40
0
 40
0
 40
0
 40
1
 40
1
 40
1
 40
1
 10
85.785594
 20
12.893999
 30
0.0
 10
85.559807
 20
13.259319
 30
0.0
 10
84.384505
 20
13.093480
 30
0.0
 10
82.517847
 20
12.432930
 30
0.0
  0
SPLINE
  5
127
100
AcDbEntity
  8
Layer_1
 62
7
100
AcDbSpline
 70
8
 71
3
 72
8
 73
4
 74
0
 40
0
 40
0
 40
0
 40
0
 40
1
 40
1
 40
1
 40
1
 10
82.517847
 20
12.432930
 30
0.0
 10
80.866264
 20
11.848481
 30
0.0
 10
80.583628
 20
11.807171
 30
0.0
 10
79.975571
 20
12.061362
 30
0.0
  0
SPLINE
  5
128
100
AcDbEntity
  8
Layer_1
 62
7
100
AcDbSpline
 70
8
 71
3
 72
8
 73
4
 74
0
 40
0
 40
0
 40
0
 40
0
 40
1
 40
1
 40
1
 40
1
 10
79.975571
 20
12.061362
 30
0.0
 10
79.111169
 20
12.422701
 30
0.0
 10
77.532049
 20
13.951035
 30
0.0
 10
76.300226
 20
15.618496
 30
0.0
  0
SPLINE
  5
129
100
AcDbEntity
  8
Layer_1
 62
7
100
AcDbSpline
 70
8
 71
3
 72
8
 73
4
 74
0
 40
0
 40
0
 40
0
 40
0
 40
1
 40
1
 40
1
 40
1
 10
76.300226
 20
15.618496
 30
0.0
 10
75.776477
 20
16.327435
 30
0.0
 10
75.193993
 20
16.907504
 30
0.0
 10
75.005814
 20
16.907504
 30
0.0
  0
SPLINE
  5
12a
100
AcDbEntity
  8
Layer_1
 62
7
100
AcDbSpline
 70
8
 71
3
 72
8
 73
4
 74
0
 40
0
 40
0
 40
0
 40
0
 40
1
 40
1
 40
1
 40
1
 10
75.005814
 20
16.907504
 30
0.0
 10
74.809461
 20
16.907504
 30
0.0
 10
74.423603
 20
16.383115
 30
0.0
 10
74.100270
 20
15.676862
 30
0.0
  0
SPLINE
  5
12b
100
AcDbEntity
  8
Layer_1
 62
7
100
AcDbSpline
 70
8
 71
3
 72
8
 73
4
 74
0
 40
0
 40
0
 40
0
 40
0
 40
1
 40
1
 40
1
 40
1
 10
74.100270
 20
15.676862
 30
0.0
 10
73.790397
 20
15.000009
 30
0.0
 10
73.447415
 20
14.390935
 30
0.0
 10
73.338090
 20
14.323369
 30
0.0
  0
SPLINE
  5
12c
100
AcDbEntity
  8
Layer_1
 62
7
100
AcDbSpline
 70
8
 71
3
 72
8
 73
4
 74
0
 40
0
 40
0
 40
0
 40
0
 40
1
 40
1
 40
1
 40
1
 10
73.338090
 20
14.323369
 30
0.0
 10
73.030809
 20
14.133462
 30
0.0
 10
72.713771
 20
14.896335
 30
0.0
 10
72.220114
 20
17.013493
 30
0.0
  0
SPLINE
  5
12d
100
AcDbEntity
  8
Layer_1
 62
7
100
AcDbSpline
 70
8
 71
3
 72
8
 73
4
 74
0
 40
0
 40
0
 40
0
 40
0
 40
1
 40
1
 40
1
 40
1
 10
72.220114
 20
17.013493
 30
0.0
 10
71.971174
 20
18.081124
 30
0.0
 10
71.608493
 20
19.262120
 30
0.0
 10
71.414154
 20
19.637931
 30
0.0
  0
SPLINE
  5
12e
100
AcDbEntity
  8
Layer_1
 62
7
100
AcDbSpline
 70
8
 71
3
 72
8
 73
4
 74
0
 40
0
 40
0
 40
0
 40
0
 40
1
 40
1
 40
1
 40
1
 10
71.414154
 20
19.637931
 30
0.0
 10
71.082166
 20
20.279923
 30
0.0
 10
71.003161
 20
20.312576
 30
0.0
 10
70.106976
 20
20.178186
 30
0.0
  0
SPLINE
  5
12f
100
AcDbEntity
  8
Layer_1
 62
7
100
AcDbSpline
 70
8
 71
3
 72
8
 73
4
 74
0
 40
0
 40
0
 40
0
 40
0
 40
1
 40
1
 40
1
 40
1
 10
70.106976
 20
20.178186
 30
0.0
 10
69.582372
 20
20.099496
 30
0.0
 10
68.990331
 20
20.097626
 30
0.0
 10
68.791335
 20
20.173986
 30
0.0
  0
SPLINE
  5
130
100
AcDbEntity
  8
Layer_1
 62
7
100
AcDbSpline
 70
8
 71
3
 72
8
 73
4
 74
0
 40
0
 40
0
 40
0
 40
0
 40
1
 40
1
 40
1
 40
1
 10
68.791335
 20
20.173986
 30
0.0
 10
68.592331
 20
20.250336
 30
0.0
 10
67.924862
 20
21.004499
 30
0.0
 10
67.308051
 20
21.849880
 30
0.0
  0
SPLINE
  5
131
100
AcDbEntity
  8
Layer_1
 62
7
100
AcDbSpline
 70
8
 71
3
 72
8
 73
4
 74
0
 40
0
 40
0
 40
0
 40
0
 40
1
 40
1
 40
1
 40
1
 10
67.308051
 20
21.849880
 30
0.0
 10
65.991231
 20
23.654673
 30
0.0
 10
65.454018
 20
24.031870
 30
0.0
 10
64.936903
 20
23.514755
 30
0.0
  0
SPLINE
  5
132
100
AcDbEntity
  8
Layer_1
 62
7
100
AcDbSpline
 70
8
 71
3
 72
8
 73
4
 74
0
 40
0
 40
0
 40
0
 40
0
 40
1
 40
1
 40
1
 40
1
 10
64.936903
 20
23.514755
 30
0.0
 10
64.510593
 20
23.088448
 30
0.0
 10
64.477560
 20
21.416153
 30
0.0
 10
64.826878
 20
17.945266
 30
0.0
  0
SPLINE
  5
133
100
AcDbEntity
  8
Layer_1
 62
7
100
AcDbSpline
 70
8
 71
3
 72
8
 73
4
 74
0
 40
0
 40
0
 40
0
 40
0
 40
1
 40
1
 40
1
 40
1
 10
64.826878
 20
17.945266
 30
0.0
 10
65.004852
 20
16.176917
 30
0.0
 10
65.002359
 20
15.456416
 30
0.0
 10
64.817378
 20
15.233627
 30
0.0
  0
SPLINE
  5
134
100
AcDbEntity
  8
Layer_1
 62
7
100
AcDbSpline
 70
8
 71
3
 72
8
 73
4
 74
0
 40
0
 40
0
 40
0
 40
0
 40
1
 40
1
 40
1
 40
1
 10
64.817378
 20
15.233627
 30
0.0
 10
64.310950
 20
14.623418
 30
0.0
 10
64.130853
 20
13.450056
 30
0.0
 10
64.350619
 20
12.192643
 30
0.0
  0
SPLINE
  5
135
100
AcDbEntity
  8
Layer_1
 62
7
100
AcDbSpline
 70
8
 71
3
 72
8
 73
4
 74
0
 40
0
 40
0
 40
0
 40
0
 40
1
 40
1
 40
1
 40
1
 10
64.350619
 20
12.192643
 30
0.0
 10
64.469374
 20
11.513237
 30
0.0
 10
64.610113
 20
10.266935
 30
0.0
 10
64.663387
 20
9.423084
 30
0.0
  0
LWPOLYLINE
  5
136
100
AcDbEntity
  8
Layer_1
 62
7
100
AcDbPolyline
 90
3
 70
0
 10
85.516061
 20
7.869992
 30
0.0
 10
84.730039
 20
6.129858
 30
0.0
 10
83.133414
 20
6.128558
 30
0.0
  0
SPLINE
  5
137
100
AcDbEntity
  8
Layer_1
 62
7
100
AcDbSpline
 70
8
 71
3
 72
8
 73
4
 74
0
 40
0
 40
0
 40
0
 40
0
 40
1
 40
1
 40
1
 40
1
 10
64.090088
 20
8.524952
 30
0.0
 10
63.330415
 20
9.246213
 30
0.0
 10
62.604128
 20
10.580287
 30
0.0
 10
61.781525
 20
12.765739
 30
0.0
  0
SPLINE
  5
138
100
AcDbEntity
  8
Layer_1
 62
7
100
AcDbSpline
 70
8
 71
3
 72
8
 73
4
 74
0
 40
0
 40
0
 40
0
 40
0
 40
1
 40
1
 40
1
 40
1
 10
61.781525
 20
12.765739
 30
0.0
 10
61.470998
 20
13.590736
 30
0.0
 10
60.915890
 20
14.608597
 30
0.0
 10
60.547956
 20
15.027650
 30
0.0
  0
LWPOLYLINE
  5
139
100
AcDbEntity
  8
Layer_1
 62
7
100
AcDbPolyline
 90
3
 70
0
 10
64.663387
 20
9.423084
 30
0.0
 10
64.760267
 20
7.888808
 30
0.0
 10
64.090088
 20
8.524952
 30
0.0
  0
SPLINE
  5
13a
100
AcDbEntity
  8
Layer_1
 62
7
100
AcDbSpline
 70
8
 71
3
 72
8
 73
4
 74
0
 40
0
 40
0
 40
0
 40
0
 40
1
 40
1
 40
1
 40
1
 10
60.018479
 20
18.541667
 30
0.0
 10
60.157629
 20
21.287432
 30
0.0
 10
60.156356
 20
21.297115
 30
0.0
 10
59.459244
 20
22.749311
 30
0.0
  0
SPLINE
  5
13b
100
AcDbEntity
  8
Layer_1
 62
7
100
AcDbSpline
 70
8
 71
3
 72
8
 73
4
 74
0
 40
0
 40
0
 40
0
 40
0
 40
1
 40
1
 40
1
 40
1
 10
59.459244
 20
22.749311
 30
0.0
 10
59.074945
 20
23.549864
 30
0.0
 10
58.645596
 20
24.760580
 30
0.0
 10
58.505126
 20
25.439794
 30
0.0
  0
SPLINE
  5
13c
100
AcDbEntity
  8
Layer_1
 62
7
100
AcDbSpline
 70
8
 71
3
 72
8
 73
4
 74
0
 40
0
 40
0
 40
0
 40
0
 40
1
 40
1
 40
1
 40
1
 10
58.505126
 20
25.439794
 30
0.0
 10
58.250670
 20
26.670155
 30
0.0
 10
57.848615
 20
27.458794
 30
0.0
 10
57.848615
 20
26.727536
 30
0.0
  0
SPLINE
  5
13d
100
AcDbEntity
  8
Layer_1
 62
7
100
AcDbSpline
 70
8
 71
3
 72
8
 73
4
 74
0
 40
0
 40
0
 40
0
 40
0
 40
1
 40
1
 40
1
 40
1
 10
57.848615
 20
26.727536
 30
0.0
 10
57.848615
 20
26.521955
 30
0.0
 10
57.646376
 20
26.245490
 30
0.0
 10
57.399177
 20
26.113199
 30
0.0
  0
SPLINE
  5
13e
100
AcDbEntity
  8
Layer_1
 62
7
100
AcDbSpline
 70
8
 71
3
 72
8
 73
4
 74
0
 40
0
 40
0
 40
0
 40
0
 40
1
 40
1
 40
1
 40
1
 10
57.399177
 20
26.113199
 30
0.0
 10
57.151987
 20
25.980885
 30
0.0
 10
56.806902
 20
25.530803
 30
0.0
 10
56.632320
 20
25.112968
 30
0.0
  0
SPLINE
  5
13f
100
AcDbEntity
  8
Layer_1
 62
7
100
AcDbSpline
 70
8
 71
3
 72
8
 73
4
 74
0
 40
0
 40
0
 40
0
 40
0
 40
1
 40
1
 40
1
 40
1
 10
56.632320
 20
25.112968
 30
0.0
 10
56.457742
 20
24.695137
 30
0.0
 10
56.095710
 20
24.235967
 30
0.0
 10
55.827813
 20
24.092593
 30
0.0
  0
SPLINE
  5
140
100
AcDbEntity
  8
Layer_1
 62
7
100
AcDbSpline
 70
8
 71
3
 72
8
 73
4
 74
0
 40
0
 40
0
 40
0
 40
0
 40
1
 40
1
 40
1
 40
1
 10
55.827813
 20
24.092593
 30
0.0
 10
54.865614
 20
23.577641
 30
0.0
 10
54.656251
 20
22.524994
 30
0.0
 10
54.827452
 20
19.062952
 30
0.0
  0
SPLINE
  5
141
100
AcDbEntity
  8
Layer_1
 62
7
100
AcDbSpline
 70
8
 71
3
 72
8
 73
4
 74
0
 40
0
 40
0
 40
0
 40
0
 40
1
 40
1
 40
1
 40
1
 10
54.827452
 20
19.062952
 30
0.0
 10
54.979622
 20
15.985720
 30
0.0
 10
54.967796
 20
15.859412
 30
0.0
 10
54.404729
 20
14.549916
 30
0.0
  0
LWPOLYLINE
  5
142
100
AcDbEntity
  8
Layer_1
 62
7
100
AcDbPolyline
 90
3
 70
0
 10
60.547956
 20
15.027650
 30
0.0
 10
59.878985
 20
15.789568
 30
0.0
 10
60.018479
 20
18.541667
 30
0.0
  0
SPLINE
  5
143
100
AcDbEntity
  8
Layer_1
 62
7
100
AcDbSpline
 70
8
 71
3
 72
8
 73
4
 74
0
 40
0
 40
0
 40
0
 40
0
 40
1
 40
1
 40
1
 40
1
 10
53.816153
 20
14.585442
 30
0.0
 10
53.807453
 20
15.911001
 30
0.0
 10
53.766053
 20
16.010217
 30
0.0
 10
52.818590
 20
16.985100
 30
0.0
  0
SPLINE
  5
144
100
AcDbEntity
  8
Layer_1
 62
7
100
AcDbSpline
 70
8
 71
3
 72
8
 73
4
 74
0
 40
0
 40
0
 40
0
 40
0
 40
1
 40
1
 40
1
 40
1
 10
52.818590
 20
16.985100
 30
0.0
 10
51.580072
 20
18.259441
 30
0.0
 10
51.238540
 20
19.243790
 30
0.0
 10
51.434365
 20
20.974655
 30
0.0
  0
LWPOLYLINE
  5
145
100
AcDbEntity
  8
Layer_1
 62
7
100
AcDbPolyline
 90
3
 70
0
 10
54.404729
 20
14.549916
 30
0.0
 10
53.825453
 20
13.202715
 30
0.0
 10
53.816153
 20
14.585442
 30
0.0
  0
SPLINE
  5
146
100
AcDbEntity
  8
Layer_1
 62
7
100
AcDbSpline
 70
8
 71
3
 72
8
 73
4
 74
0
 40
0
 40
0
 40
0
 40
0
 40
1
 40
1
 40
1
 40
1
 10
49.832534
 20
21.504182
 30
0.0
 10
47.603319
 20
20.497399
 30
0.0
 10
45.764962
 20
19.245577
 30
0.0
 10
45.130934
 20
18.302648
 30
0.0
  0
SPLINE
  5
147
100
AcDbEntity
  8
Layer_1
 62
7
100
AcDbSpline
 70
8
 71
3
 72
8
 73
4
 74
0
 40
0
 40
0
 40
0
 40
0
 40
1
 40
1
 40
1
 40
1
 10
45.130934
 20
18.302648
 30
0.0
 10
44.504873
 20
17.371547
 30
0.0
 10
44.151994
 20
15.745964
 30
0.0
 10
44.151994
 20
13.792996
 30
0.0
  0
LWPOLYLINE
  5
148
100
AcDbEntity
  8
Layer_1
 62
7
100
AcDbPolyline
 90
3
 70
0
 10
51.434365
 20
20.974655
 30
0.0
 10
51.583750
 20
22.295084
 30
0.0
 10
49.832534
 20
21.504182
 30
0.0
  0
SPLINE
  5
149
100
AcDbEntity
  8
Layer_1
 62
7
100
AcDbSpline
 70
8
 71
3
 72
8
 73
4
 74
0
 40
0
 40
0
 40
0
 40
0
 40
1
 40
1
 40
1
 40
1
 10
41.697111
 20
10.660577
 30
0.0
 10
40.346926
 20
9.774122
 30
0.0
 10
39.185132
 20
9.048843
 30
0.0
 10
39.115348
 20
9.048843
 30
0.0
  0
SPLINE
  5
14a
100
AcDbEntity
  8
Layer_1
 62
7
100
AcDbSpline
 70
8
 71
3
 72
8
 73
4
 74
0
 40
0
 40
0
 40
0
 40
0
 40
1
 40
1
 40
1
 40
1
 10
39.115348
 20
9.048843
 30
0.0
 10
39.045578
 20
9.048843
 30
0.0
 10
39.329707
 20
9.528782
 30
0.0
 10
39.746769
 20
10.115377
 30
0.0
  0
SPLINE
  5
14b
100
AcDbEntity
  8
Layer_1
 62
7
100
AcDbSpline
 70
8
 71
3
 72
8
 73
4
 74
0
 40
0
 40
0
 40
0
 40
0
 40
1
 40
1
 40
1
 40
1
 10
39.746769
 20
10.115377
 30
0.0
 10
40.651203
 20
11.387440
 30
0.0
 10
40.949163
 20
12.192314
 30
0.0
 10
40.515648
 20
12.192314
 30
0.0
  0
SPLINE
  5
14c
100
AcDbEntity
  8
Layer_1
 62
7
100
AcDbSpline
 70
8
 71
3
 72
8
 73
4
 74
0
 40
0
 40
0
 40
0
 40
0
 40
1
 40
1
 40
1
 40
1
 10
40.515648
 20
12.192314
 30
0.0
 10
40.351411
 20
12.192314
 30
0.0
 10
39.471773
 20
11.687114
 30
0.0
 10
38.560884
 20
11.069644
 30
0.0
  0
SPLINE
  5
14d
100
AcDbEntity
  8
Layer_1
 62
7
100
AcDbSpline
 70
8
 71
3
 72
8
 73
4
 74
0
 40
0
 40
0
 40
0
 40
0
 40
1
 40
1
 40
1
 40
1
 10
38.560884
 20
11.069644
 30
0.0
 10
36.232929
 20
9.491584
 30
0.0
 10
35.865888
 20
9.666273
 30
0.0
 10
37.808919
 20
11.427530
 30
0.0
  0
SPLINE
  5
14e
100
AcDbEntity
  8
Layer_1
 62
7
100
AcDbSpline
 70
8
 71
3
 72
8
 73
4
 74
0
 40
0
 40
0
 40
0
 40
0
 40
1
 40
1
 40
1
 40
1
 10
37.808919
 20
11.427530
 30
0.0
 10
39.917079
 20
13.338474
 30
0.0
 10
39.947540
 20
13.727903
 30
0.0
 10
37.929420
 20
12.968292
 30
0.0
  0
SPLINE
  5
14f
100
AcDbEntity
  8
Layer_1
 62
7
100
AcDbSpline
 70
8
 71
3
 72
8
 73
4
 74
0
 40
0
 40
0
 40
0
 40
0
 40
1
 40
1
 40
1
 40
1
 10
37.929420
 20
12.968292
 30
0.0
 10
36.977017
 20
12.609805
 30
0.0
 10
35.776480
 20
12.362838
 30
0.0
 10
34.668529
 20
12.297478
 30
0.0
  0
SPLINE
  5
150
100
AcDbEntity
  8
Layer_1
 62
7
100
AcDbSpline
 70
8
 71
3
 72
8
 73
4
 74
0
 40
0
 40
0
 40
0
 40
0
 40
1
 40
1
 40
1
 40
1
 10
34.668529
 20
12.297478
 30
0.0
 10
32.605157
 20
12.175749
 30
0.0
 10
31.834887
 20
11.887950
 30
0.0
 10
30.414587
 20
10.708034
 30
0.0
  0
SPLINE
  5
151
100
AcDbEntity
  8
Layer_1
 62
7
100
AcDbSpline
 70
8
 71
3
 72
8
 73
4
 74
0
 40
0
 40
0
 40
0
 40
0
 40
1
 40
1
 40
1
 40
1
 10
30.414587
 20
10.708034
 30
0.0
 10
29.836401
 20
10.227706
 30
0.0
 10
28.775480
 20
9.489976
 30
0.0
 10
28.056984
 20
9.068639
 30
0.0
  0
SPLINE
  5
152
100
AcDbEntity
  8
Layer_1
 62
7
100
AcDbSpline
 70
8
 71
3
 72
8
 73
4
 74
0
 40
0
 40
0
 40
0
 40
0
 40
1
 40
1
 40
1
 40
1
 10
28.056984
 20
9.068639
 30
0.0
 10
27.338488
 20
8.647299
 30
0.0
 10
26.132096
 20
7.911340
 30
0.0
 10
25.376112
 20
7.433171
 30
0.0
  0
SPLINE
  5
153
100
AcDbEntity
  8
Layer_1
 62
7
100
AcDbSpline
 70
8
 71
3
 72
8
 73
4
 74
0
 40
0
 40
0
 40
0
 40
0
 40
1
 40
1
 40
1
 40
1
 10
25.376112
 20
7.433171
 30
0.0
 10
24.411469
 20
6.823027
 30
0.0
 10
22.235449
 20
5.969159
 30
0.0
 10
18.078771
 20
4.569707
 30
0.0
  0
SPLINE
  5
154
100
AcDbEntity
  8
Layer_1
 62
7
100
AcDbSpline
 70
8
 71
3
 72
8
 73
4
 74
0
 40
0
 40
0
 40
0
 40
0
 40
1
 40
1
 40
1
 40
1
 10
18.078771
 20
4.569707
 30
0.0
 10
14.821217
 20
3.472970
 30
0.0
 10
11.959743
 20
2.498261
 30
0.0
 10
11.719940
 20
2.403686
 30
0.0
  0
SPLINE
  5
155
100
AcDbEntity
  8
Layer_1
 62
7
100
AcDbSpline
 70
8
 71
3
 72
8
 73
4
 74
0
 40
0
 40
0
 40
0
 40
0
 40
1
 40
1
 40
1
 40
1
 10
11.719940
 20
2.403686
 30
0.0
 10
11.370226
 20
2.265758
 30
0.0
 10
11.425592
 20
2.428616
 30
0.0
 10
11.999675
 20
3.226553
 30
0.0
  0
LWPOLYLINE
  5
156
100
AcDbEntity
  8
Layer_1
 62
7
100
AcDbPolyline
 90
3
 70
0
 10
44.151994
 20
13.792996
 30
0.0
 10
44.151994
 20
12.272311
 30
0.0
 10
41.697111
 20
10.660577
 30
0.0
  0
LWPOLYLINE
  5
157
100
AcDbEntity
  8
Layer_1
 62
7
100
AcDbPolyline
 90
1
 70
1
 10
11.999675
 20
3.226553
 30
0.0
  0
ENDSEC
  0
SECTION
  2
OBJECTS
  0
DICTIONARY
  5
C
330
0
100
AcDbDictionary
  3
ACAD_GROUP
350
D
  3
ACAD_MLINESTYLE
350
17
  0
DICTIONARY
  5
D
330
C
100
AcDbDictionary
  0
DICTIONARY
  5
1A
330
C
100
AcDbDictionary
  0
DICTIONARY
  5
17
330
C
100
AcDbDictionary
  3
STANDARD
350
18
  0
DICTIONARY
  5
19
330
C
100
AcDbDictionary
  0
ENDSEC
  0
EOF
