<?xml version="1.0" encoding="UTF-8" standalone="no"?>
<svg
   xmlns:dc="http://purl.org/dc/elements/1.1/"
   xmlns:cc="http://creativecommons.org/ns#"
   xmlns:rdf="http://www.w3.org/1999/02/22-rdf-syntax-ns#"
   xmlns:svg="http://www.w3.org/2000/svg"
   xmlns="http://www.w3.org/2000/svg"
   xmlns:sodipodi="http://sodipodi.sourceforge.net/DTD/sodipodi-0.dtd"
   xmlns:inkscape="http://www.inkscape.org/namespaces/inkscape"
   width="12in"
   height="10in"
   viewBox="0 0 304.8 254.00001"
   version="1.1"
   id="svg8"
   inkscape:version="1.0.1 (3bc2e813f5, 2020-09-07)"
   sodipodi:docname="tb_bucs_super_bowl_lv.svg">
  <defs
     id="defs2">
    <rect
       x="16.062571"
       y="208.16109"
       width="281.70221"
       height="33.337574"
       id="rect911" />
    <rect
       x="15.61731"
       y="203.99648"
       width="270.17966"
       height="39.793644"
       id="rect905" />
  </defs>
  <sodipodi:namedview
     id="base"
     pagecolor="#ffffff"
     bordercolor="#666666"
     borderopacity="1.0"
     inkscape:pageopacity="0.0"
     inkscape:pageshadow="2"
     inkscape:zoom="0.98994949"
     inkscape:cx="695.28705"
     inkscape:cy="461.75837"
     inkscape:document-units="in"
     inkscape:current-layer="text909"
     inkscape:document-rotation="0"
     showgrid="true"
     units="in"
     inkscape:window-width="1528"
     inkscape:window-height="836"
     inkscape:window-x="72"
     inkscape:window-y="27"
     inkscape:window-maximized="1">
    <inkscape:grid
       type="xygrid"
       id="grid1025" />
  </sodipodi:namedview>
  <metadata
     id="metadata5">
    <rdf:RDF>
      <cc:Work
         rdf:about="">
        <dc:format>image/svg+xml</dc:format>
        <dc:type
           rdf:resource="http://purl.org/dc/dcmitype/StillImage" />
        <dc:title></dc:title>
      </cc:Work>
    </rdf:RDF>
  </metadata>
  <g
     inkscape:label="Layer 1"
     inkscape:groupmode="layer"
     id="layer1">
    <text
       xml:space="preserve"
       id="text903"
       style="font-weight:bold;font-size:10.5833px;line-height:1.25;font-family:Navilu;-inkscape-font-specification:'Navilu Bold';letter-spacing:0px;word-spacing:0px;white-space:pre;shape-inside:url(#rect905);" />
    <path
       style="fill:#000000;stroke-width:0.723726"
       d="m 128.47524,187.85571 c -8.70587,-1.02954 -17.81618,-5.27991 -25.79273,-12.03349 l -4.442785,-3.76162 -0.450691,2.2534 c -0.59692,2.98464 -5.841586,7.94241 -9.590067,9.06548 -6.958072,2.08469 -14.366183,0.65657 -19.625956,-3.78343 -1.966675,-1.66015 -3.176888,-2.03709 -7.171439,-2.23369 -6.198464,-0.30506 -8.555793,-2.28014 -8.555793,-7.16839 0,-2.63767 0.371164,-3.50079 2.171178,-5.04876 1.194143,-1.02695 2.3604,-1.86758 2.591685,-1.86807 0.231274,-4.8e-4 0.852653,-0.80836 1.380833,-1.79528 0.719855,-1.34506 1.362899,-1.69338 2.567886,-1.39095 0.966121,0.24248 3.014126,-0.30875 5.1327,-1.38149 3.824728,-1.93665 17.138216,-6.28906 19.237448,-6.28906 3.398074,0 0.258269,-3.49239 -6.800469,-7.56412 C 59.57756,133.57939 45.669582,120.52892 36.370703,104.73606 32.086239,97.459477 30.197104,92.123937 28.930695,83.722921 27.8382,76.47561 27.482087,59.782788 28.419991,59.784065 c 0.298542,4.09e-4 1.491399,1.710205 2.650793,3.799564 3.746051,6.750772 13.18871,20.263209 19.134356,27.38123 12.834753,15.365541 24.808452,24.872101 43.650033,34.656121 8.267867,4.29332 23.025717,10.87739 24.381107,10.87739 0.20767,0 -0.44186,-0.89561 -1.4434,-1.99025 -2.48807,-2.71935 -11.85823,-15.45595 -14.51517,-19.73005 -1.55735,-2.50525 -2.423288,-5.182 -3.079295,-9.51851 -0.724023,-4.7862 -1.428008,-6.789503 -3.406158,-9.692821 -1.371426,-2.012835 -3.08228,-5.531553 -3.801887,-7.819367 -1.308054,-4.158676 -1.307966,-4.160418 0.372898,-7.328879 l 1.681249,-3.169196 -1.722464,-7.104602 C 89.968211,60.435976 89.593417,53.079155 91.199585,48.112048 94.705413,37.270262 103.99753,28.713343 115.84942,25.412554 c 5.79942,-1.61516 24.35594,-2.287189 31.21403,-1.130418 17.67336,2.981002 27.58136,17.695741 24.89642,36.974566 -0.98678,7.085351 -0.40444,10.943395 2.52419,16.722734 1.51151,2.982819 1.74753,4.205159 1.35209,7.002359 -0.57004,4.032184 -2.45692,8.623854 -4.8821,11.880479 -1.20598,1.619393 -1.89685,3.732106 -2.19305,6.706526 -0.73099,7.34006 -2.31235,10.49331 -11.02581,21.98551 -4.56381,6.01922 -8.11072,10.94406 -7.88204,10.94406 0.22872,0 3.24706,-1.16971 6.70747,-2.59936 10.98096,-4.53673 24.83536,-11.79472 33.43139,-17.51391 15.04879,-10.0124 31.49755,-28.209244 44.14735,-48.839095 4.44204,-7.244293 4.73704,-7.563471 5.293,-5.727021 0.8364,2.762714 -0.0308,19.480828 -1.35192,26.06742 -0.68602,3.419811 -2.48348,8.328194 -4.68279,12.787496 -8.22868,16.68427 -21.7504,30.30175 -42.33497,42.63477 -4.37034,2.61843 -8.32278,5.00696 -8.7832,5.30786 -0.46041,0.30088 -1.03319,1.21962 -1.27282,2.04164 -0.39171,1.34369 0.0947,1.61993 4.81764,2.73649 2.88931,0.68307 8.02156,2.41164 11.40498,3.84128 3.38343,1.42966 6.99314,2.66817 8.02159,2.75228 2.14532,0.17544 8.40522,5.66871 9.43265,8.27745 0.84,2.13282 -0.27324,5.88146 -2.28811,7.70492 -1.00054,0.90547 -2.78529,1.33374 -5.99054,1.43754 -3.997,0.1294 -4.9836,0.46702 -7.92422,2.71164 -4.26807,3.2579 -7.79356,4.44643 -12.92671,4.35797 -7.01306,-0.1209 -14.39569,-4.75602 -15.48666,-9.72319 -0.56194,-2.55844 -1.06436,-2.5825 -3.28931,-0.15761 -4.89254,5.33224 -17.98767,11.90449 -25.68707,12.89196 -6.92299,0.8879 -7.95554,0.91793 -12.61566,0.36681 z m 18.33533,-6.83938 c 6.65793,-2.30925 12.03229,-5.67491 17.1001,-10.70882 5.44532,-5.40888 6.45245,-7.70831 4.84899,-11.07083 -2.98117,-6.25155 -12.28977,-13.47184 -21.60737,-16.75988 -10.38519,-3.66478 -21.36183,-2.86387 -31.63183,2.30801 -9.7707,4.92046 -18.223856,13.82933 -17.156603,18.08155 0.632868,2.52157 7.243523,9.47083 12.231683,12.85823 11.28474,7.66332 24.01453,9.5234 36.21503,5.29174 z m -28.06415,-23.07568 c 0.63091,-2.51378 -1.85963,-2.85869 -8.76398,-1.21374 -3.16018,0.75291 -5.85107,1.26363 -5.97977,1.13492 -0.2773,-0.2773 5.77228,-2.56777 11.62641,-4.40196 2.28878,-0.71712 4.16143,-1.54678 4.16143,-1.84371 0,-0.76646 2.14413,-2.81442 2.94661,-2.81442 0.36961,0 0.67202,0.65135 0.67202,1.44745 0,2.22366 2.1867,1.58675 3.10592,-0.90467 0.64414,-1.74585 2.6839,-1.60833 2.6839,0.18094 0,0.96497 0.48248,1.44745 1.44745,1.44745 0.96497,0 1.44747,-0.48248 1.44747,-1.44745 0,-0.93509 0.48248,-1.44746 1.36303,-1.44746 0.75439,0 1.53207,0.64635 1.74157,1.44746 0.20819,0.7961 0.89751,1.44745 1.53186,1.44745 0.67085,0 1.15334,-0.60552 1.15334,-1.44745 0,-1.98197 1.58893,-1.8169 3.48334,0.36185 1.89832,2.18327 3.0302,2.31843 3.0302,0.36188 0,-2.20228 2.18528,-1.59232 3.08972,0.86242 0.27125,0.73622 2.41405,1.82696 5.37515,2.73609 2.70825,0.8315 5.90111,1.98629 7.09526,2.56623 l 2.17118,1.05443 -2.17118,-0.36919 c -10.72105,-1.82303 -11.21776,-1.78719 -11.21776,0.80946 0,2.6949 -2.59438,2.34699 -3.14822,-0.42218 -0.57682,-2.88408 -3.36533,-3.14222 -3.36533,-0.31152 0,1.51456 -0.30216,1.81672 -1.62838,1.62837 -1.16594,-0.16558 -1.69342,-0.79648 -1.85738,-2.2215 -0.31002,-2.69427 -3.02778,-2.85667 -3.02778,-0.18095 0,1.44746 -0.36187,1.80933 -1.80932,1.80933 -1.46051,0 -1.8093,-0.3585 -1.8093,-1.85965 0,-1.51457 -0.30218,-1.81674 -1.62839,-1.62839 -1.16595,0.16559 -1.69343,0.79649 -1.8574,2.22151 -0.31,2.69426 -3.02777,2.85667 -3.02777,0.18094 0,-1.44746 -0.36186,-1.80932 -1.80931,-1.80932 -1.52787,0 -1.80933,0.33775 -1.80933,2.17118 0,1.83782 -0.2799,2.17119 -1.8231,2.17119 -1.5571,0 -1.76023,-0.25052 -1.39216,-1.71699 z m -32.10751,20.40648 c 1.562441,-0.46812 3.635717,-1.79582 4.60726,-2.95044 1.719353,-2.04333 1.766166,-2.42104 1.75538,-14.1662 -0.0053,-7.00588 -0.32124,-12.52221 -0.750578,-13.15249 -0.53481,-0.7851 -0.611491,-0.34435 -0.277021,1.59227 0.379872,2.19947 0.04652,3.40486 -1.865652,6.74704 -2.079842,3.6352 -2.294419,4.53525 -2.012006,8.43954 0.254782,3.52238 0.645356,4.61872 2.012917,5.65027 l 1.696801,1.27989 -1.567885,0.49762 c -0.862326,0.27369 -1.567864,0.94055 -1.567864,1.48193 0,0.54135 -0.858118,1.65927 -1.906917,2.48426 -2.967874,2.33453 -8.49983,2.06409 -12.736342,-0.62262 -1.840849,-1.16744 -3.666157,-2.71896 -4.056243,-3.44783 -0.962091,-1.79769 0.08388,-7.11566 1.779468,-9.04758 0.974608,-1.11043 1.052329,-1.42425 0.274313,-1.10765 -7.551361,3.07282 -9.805554,4.23337 -9.995745,5.14623 -0.12398,0.59509 -0.938173,1.18342 -1.80932,1.30741 -1.003415,0.14281 -1.668802,0.82341 -1.815573,1.85705 -0.301293,2.1218 1.683175,2.89705 3.411643,1.33281 1.176379,-1.06461 1.414376,-1.07396 2.232839,-0.0878 1.608198,1.93775 2.352909,1.18206 0.791411,-0.80306 -3.616106,-4.59713 -0.51621,-2.9978 4.241167,2.18816 3.018674,3.2906 8.782093,6.21517 12.268061,6.22523 1.346991,0.004 3.727445,-0.37593 5.289886,-0.84406 z m 105.88615,-0.90389 c 1.99024,-0.95747 5.37394,-3.5685 7.51931,-5.80225 4.05454,-4.22156 5.86151,-4.87725 3.08258,-1.11856 -1.61433,2.18351 -1.066,3.10324 0.63103,1.05843 0.82052,-0.98865 1.0454,-0.98683 2.15513,0.0174 1.63411,1.47885 3.76298,0.64745 3.47687,-1.35782 -0.13463,-0.94351 -0.8343,-1.62377 -1.81336,-1.76306 -0.87681,-0.12472 -1.79435,-0.85751 -2.03903,-1.62839 -0.24468,-0.77088 -0.83,-1.40186 -1.30074,-1.40217 -0.47073,-3e-4 -2.89137,-0.96351 -5.37917,-2.14045 -2.48782,-1.17692 -4.52329,-1.98251 -4.52329,-1.79017 0,0.19234 -0.89562,-0.10464 -1.99026,-0.65998 -2.24203,-1.13743 -11.15572,-3.49219 -11.58696,-3.06094 -0.15418,0.15417 0.2322,1.27146 0.85862,2.48283 0.62643,1.21137 1.13896,3.02665 1.13896,4.03397 0,1.32116 0.45371,1.9214 1.62838,2.15426 9.6863,1.92018 10.79335,2.04707 11.52008,1.32036 0.54342,-0.54344 0.42602,-1.45781 -0.3997,-3.11302 -1.51385,-3.03456 -1.47355,-3.34475 0.23375,-1.79967 0.7716,0.69829 1.75638,2.91784 2.18842,4.93234 0.72594,3.38497 0.6607,3.79653 -0.8601,5.42656 -2.64162,2.83132 -6.64633,4.51785 -10.72792,4.51785 -3.42422,0 -3.94724,-0.24204 -6.74589,-3.12163 -2.87858,-2.96185 -2.96517,-3.17485 -1.6917,-4.16143 0.94842,-0.73478 1.46134,-2.35672 1.74838,-5.52887 0.37746,-4.17134 0.23934,-4.74911 -1.95148,-8.1632 -2.03394,-3.16963 -2.29595,-4.09358 -1.908,-6.7287 0.35766,-2.42948 0.28524,-2.77889 -0.35384,-1.70742 -0.50174,0.84117 -0.80379,5.82298 -0.8042,13.26401 l -6.8e-4,11.91689 1.93947,2.02435 c 3.72393,3.88694 10.21626,4.65942 15.95534,1.89842 z M 78.782676,167.25664 c 3.119898,-0.59701 5.806739,-1.08546 5.970751,-1.08546 0.164008,0 0.298194,-1.06741 0.298194,-2.37202 0,-1.30461 0.521736,-3.11689 1.159414,-4.02729 0.637678,-0.91042 1.030787,-1.78392 0.873577,-1.94113 -0.465537,-0.46554 -9.169844,1.73779 -11.37973,2.88058 -3.045147,1.5747 -5.501581,7.6315 -3.094839,7.63092 0.275051,-8e-5 3.052736,-0.48861 6.172633,-1.0856 z m 24.078674,-19.97603 1.61918,-1.52112 -8.08607,-4.10136 C 87.753241,137.2752 75.187275,128.98376 69.853353,124.14541 l -3.256772,-2.95417 4.342366,3.19909 c 7.142006,5.26162 13.46106,9.00471 22.161371,13.12729 10.925242,5.17684 13.662632,5.96988 16.520532,4.78609 1.21477,-0.50317 2.20867,-1.14169 2.20867,-1.41892 0,-0.27724 -2.68684,-1.60521 -5.97075,-2.95106 C 97.228956,134.39698 85.444162,128.07819 77.090622,122.50879 62.899992,113.0477 50.492191,101.18408 39.737671,86.794035 36.32536,82.228206 33.414926,78.61106 33.270049,78.755938 c -0.514255,0.514265 1.734174,9.688456 3.556241,14.510426 5.62172,14.877446 19.645759,30.943636 36.65448,41.992036 6.646554,4.31741 24.789637,13.54334 26.63343,13.54334 0.62039,0 1.85662,-0.68453 2.74715,-1.52113 z m 68.04446,0.36475 c 4.75142,-1.96064 15.01884,-7.2693 20.23871,-10.4642 23.00828,-14.08264 39.2419,-34.72684 42.92588,-54.588661 0.36797,-1.983781 0.51986,-3.848222 0.33753,-4.143208 -0.18231,-0.294994 -2.14945,2.142287 -4.37142,5.416173 -13.89917,20.479286 -33.37884,37.042156 -57.94613,49.269596 -4.28487,2.13264 -9.6805,4.64307 -11.99029,5.57874 l -4.19963,1.70123 1.66659,1.32158 c 2.20745,1.75052 4.55515,1.35485 13.76311,-2.31956 8.59131,-3.42833 16.7246,-7.93213 24.45167,-13.54008 4.92027,-3.5709 5.12468,-3.65845 2.18554,-0.93613 -4.9214,4.5584 -15.25939,11.20859 -24.95798,16.05494 -4.79034,2.3937 -8.86766,4.50021 -9.06073,4.68112 -0.36369,0.34075 2.89722,3.08029 3.70037,3.10874 0.24993,0.009 1.71547,-0.50428 3.25678,-1.14028 z m 32.1133,-27.43085 c 0.93487,-0.99512 1.8626,-1.8093 2.06162,-1.8093 0.19903,0 -0.40303,0.81418 -1.3379,1.8093 -0.93487,0.99513 -1.86261,1.80933 -2.06163,1.80933 -0.19903,0 0.40302,-0.8142 1.33791,-1.80933 z m -63.66654,14.04047 c 4.8528,-1.04074 7.10227,-3.10194 15.42769,-14.13644 6.90446,-9.15116 7.91777,-11.30079 8.73963,-18.53999 0.36624,-3.226083 0.28683,-3.437703 -1.29004,-3.437703 -1.44337,0 -1.80414,0.5534 -2.55859,3.924573 -0.48306,2.15851 -1.37564,4.33734 -1.98353,4.84185 -0.6079,0.5045 -2.02914,2.74749 -3.15834,4.98439 -2.57823,5.10749 -4.18511,6.61458 -5.17208,4.85097 -1.06208,-1.89784 -1.95017,-1.46836 -2.20025,1.06404 -0.30385,3.0767 -2.03611,3.63721 -2.03611,0.65883 0,-1.89776 -0.27058,-2.23148 -1.80932,-2.23148 -1.62837,0 -1.80931,0.28949 -1.80931,2.89491 0,2.36422 -0.25272,2.89491 -1.3786,2.89491 -1.19058,0 -1.32563,-0.3948 -0.99029,-2.89491 0.38142,-2.84379 0.34828,-2.89491 -1.87818,-2.89491 -2.2037,0 -2.26647,0.0902 -2.26647,3.25677 0,2.41243 -0.28146,3.25677 -1.0856,3.25677 -0.71696,0 -1.08558,-0.71714 -1.08558,-2.11199 0,-3.2146 -0.70628,-4.40155 -2.61904,-4.40155 -1.62517,0 -1.70979,0.19171 -1.27752,2.89491 0.36723,2.29651 0.23851,2.89491 -0.62268,2.89491 -0.70688,0 -1.24707,-1.00988 -1.5485,-2.89491 -0.39001,-2.43898 -0.73481,-2.89491 -2.18933,-2.89491 -1.51327,0 -1.71173,0.31275 -1.60729,2.53304 0.17228,3.6632 -1.2607,3.1102 -2.3334,-0.90047 l -0.91832,-3.43352 -1.28648,1.70552 -1.28646,1.70551 -1.56395,-1.98824 c -0.86015,-1.09351 -1.56394,-2.40786 -1.56394,-2.92077 0,-0.51292 -1.14901,-2.43787 -2.55338,-4.27768 -1.41549,-1.85439 -2.92224,-4.94306 -3.38107,-6.93084 -0.70051,-3.034753 -1.0866,-3.585723 -2.51269,-3.585723 -1.46772,0 -1.6828,0.35 -1.66775,2.713983 0.01,1.49268 0.28665,3.87218 0.61589,5.28777 1.05604,4.54042 17.19706,26.54986 19.63118,26.76851 0.19902,0.0179 1.99025,0.48466 3.9805,1.03731 4.5198,1.25504 6.55746,1.31062 11.2392,0.30656 z m -19.56206,-25.62009 c 0,-2.72005 0.2272,-3.25677 1.37858,-3.25677 1.19058,0 1.32564,0.39479 0.99029,2.8949 -0.38142,2.84379 -0.34825,2.89491 1.8782,2.89491 2.20371,0 2.26647,-0.0902 2.26647,-3.25676 0,-1.79123 0.28769,-3.25678 0.63932,-3.25678 0.73193,0 1.50743,2.48918 1.52199,4.88516 0.008,1.32463 0.41487,1.62838 2.18105,1.62838 2.09077,0 2.17119,-0.12062 2.17119,-3.25676 0,-2.41244 0.28145,-3.25678 1.08558,-3.25678 0.64038,0 1.08965,0.66781 1.09547,1.62839 0.0205,3.36403 0.83235,4.88515 2.60757,4.88515 1.56652,0 1.72491,-0.30463 1.72491,-3.31708 0,-4.1489 1.63859,-4.06069 2.17119,0.11688 0.31248,2.45108 0.6334,2.86958 2.35211,3.06734 1.88243,0.21661 1.99024,0.0695 1.99024,-2.71398 0,-2.13349 0.2986,-2.94297 1.0856,-2.94297 0.78133,0 1.08559,0.79939 1.08559,2.85219 0,3.50252 1.18503,4.44581 2.20729,1.75702 0.69125,-1.81809 0.26168,-9.6753 -0.52894,-9.6753 -0.17933,0 -0.956,0.33712 -1.72592,0.74919 -1.06295,0.56888 -1.39989,0.51384 -1.39989,-0.22861 0,-1.780083 5.28591,-4.004655 11.54927,-4.860485 8.5706,-1.171098 9.31318,-1.679654 11.60389,-7.946754 1.32828,-3.63402 1.32823,-3.765158 -0.002,-6.027202 -0.74812,-1.271798 -1.99217,-5.233131 -2.76453,-8.802978 -1.11326,-5.145333 -1.75895,-6.719066 -3.11522,-7.592792 -2.58008,-1.661989 -9.31025,-8.101214 -9.31025,-8.907577 0,-0.389058 0.51334,-0.281336 1.14076,0.239373 1.44527,1.19947 2.04404,0.371912 3.65741,-5.05496 0.97319,-3.273469 1.02545,-4.553741 0.31539,-7.72662 -1.92196,-8.588229 -8.71016,-13.546847 -20.12977,-14.704336 -8.06316,-0.817274 -18.72787,0.154463 -23.14657,2.109068 -8.54323,3.779067 -13.50117,10.673638 -13.53189,18.817533 -0.021,5.591069 1.37128,10.855899 2.87101,10.855899 1.75222,0 1.2261,1.07158 -2.34912,4.784676 -3.30694,3.434443 -3.41056,3.677389 -3.53386,8.285965 -0.08358,3.123913 -0.626639,5.727146 -1.587817,7.611205 -1.296148,2.540668 -1.356357,3.167221 -0.534197,5.558756 1.288902,3.749156 3.067214,6.279994 4.939544,7.029821 0.87456,0.350234 4.19551,1.022197 7.37991,1.493236 6.45036,0.954149 9.33664,2.154969 10.52736,4.379862 0.72559,1.35577 0.66471,1.42236 -0.65468,0.71623 -0.80007,-0.42817 -1.60694,-0.7785 -1.79304,-0.7785 -0.18611,0 -0.56059,1.91462 -0.83219,4.25469 -0.35034,3.01844 -0.21525,4.70073 0.46488,5.78981 1.46633,2.34796 2.05799,1.853 2.05799,-1.72164 z m 8.50379,-10.572823 c -1.66674,-0.9434 -1.63264,-4.313931 0.0782,-7.730112 0.73962,-1.476834 1.55878,-3.575805 1.82034,-4.664368 0.86601,-3.604022 6.56262,-3.575486 7.42996,0.03719 0.25643,1.068097 1.07137,3.150322 1.81101,4.627148 0.7396,1.476826 1.34474,3.472435 1.34474,4.434681 0,2.022778 -2.20731,4.328101 -2.71104,2.831421 -0.16747,-0.49756 -0.90676,-0.904655 -1.64286,-0.904655 -0.7494,0 -1.56414,-0.71136 -1.85143,-1.616504 l -0.51305,-1.616495 -0.59799,1.616495 c -0.34003,0.919211 -1.20952,1.616504 -2.01569,1.616504 -0.77974,0 -1.523,0.469245 -1.6517,1.042775 -0.17346,0.773 -0.56165,0.85731 -1.50052,0.3259 z M 113.05281,86.490859 c -1.51646,-0.356792 -3.34665,-0.964167 -4.06708,-1.349751 -1.93294,-1.034458 -3.49408,-4.861318 -4.07072,-9.978579 -0.48511,-4.304849 -0.43452,-4.523306 1.04728,-4.523306 0.85634,0 4.14707,1.302277 7.31272,2.893933 5.86724,2.949988 8.9407,3.584947 12.48624,2.579592 2.47978,-0.703147 2.64141,0.599713 0.5591,4.506559 -3.38748,6.355619 -6.1027,7.557237 -13.26754,5.871552 z m 33.14661,-0.174941 c -1.3597,-0.615541 -2.92355,-2.355394 -4.16143,-4.629778 -2.62085,-4.815365 -2.61907,-6.178096 0.007,-5.477332 3.40011,0.907296 5.85414,0.372435 12.15531,-2.649252 6.52473,-3.128896 9.4792,-3.729848 8.72927,-1.775539 -0.24161,0.629625 -0.4393,2.698358 -0.4393,4.597188 0,3.911389 -2.15474,7.815139 -5.0931,9.227207 -2.98322,1.433607 -8.78425,1.800123 -11.19788,0.707506 z M 129.19896,71.088845 c -1.39317,-0.534917 -4.81279,-2.116984 -7.59913,-3.515704 -2.78636,-1.398706 -6.1208,-2.771649 -7.40991,-3.05096 -1.28909,-0.279321 -2.56136,-0.859884 -2.82728,-1.290128 -0.90074,-1.457425 6.57584,-0.005 13.68811,2.658563 3.78484,1.417586 7.76844,2.577432 8.85243,2.577432 1.08399,0 5.06759,-1.159846 8.85244,-2.577432 7.15571,-2.680136 13.94496,-3.984876 13.94496,-2.679927 0,0.40374 -1.05284,0.944637 -2.33964,1.201994 -1.28681,0.257368 -5.55328,1.970149 -9.48105,3.80619 -7.7832,3.638259 -11.7765,4.369134 -15.68093,2.869972 z"
       id="path901" />
    <g
       aria-label="SUPER BOWL LV"
       transform="matrix(0.87614817,0,0,0.87614817,29.023367,9.8096651)"
       id="text909"
       style="font-weight:bold;font-size:25.4px;line-height:1.25;font-family:Navilu;-inkscape-font-specification:'Navilu Bold';letter-spacing:0px;word-spacing:0px;white-space:pre;shape-inside:url(#rect911)">
      <path
         d="m 27.867244,213.11723 h -0.888337 q -0.571071,-2.15739 -1.903575,-3.74369 -1.808397,-2.12567 -4.314772,-2.12567 -1.364229,0 -2.379469,0.79316 -1.015241,0.76142 -1.015241,2.22084 0,1.26905 0.634526,2.03048 0.66625,0.7297 2.63328,1.71322 l 4.66376,2.31602 q 1.205598,0.60279 2.125659,1.80839 1.364229,1.77667 1.364229,4.02923 0,2.50637 -1.744943,4.34651 -2.157387,2.28428 -6.12317,2.28428 -1.52286,0 -2.823636,-0.34899 -1.269051,-0.34898 -2.601554,-0.72971 -0.444168,0 -0.634525,0.31728 -0.190358,0.28552 -0.317262,0.76142 h -0.920063 v -7.83637 h 0.920063 q 0.571071,2.85535 1.967028,4.6003 1.744943,2.18911 4.536855,2.18911 1.903575,0 2.918816,-0.98352 1.046967,-1.01524 1.046967,-2.56983 0,-1.42768 -0.983515,-2.34773 -0.666251,-0.60281 -2.569826,-1.52287 l -2.12566,-1.01524 q -3.521616,-1.68149 -4.727214,-3.80715 -0.697977,-1.23732 -0.697977,-2.98226 0,-3.014 2.125659,-4.75895 1.840124,-1.49113 4.885844,-1.49113 1.491134,0 3.109174,0.53935 1.649766,0.50761 1.840123,0.50761 0.571074,0 0.824883,-0.47589 0.126907,-0.22208 0.222084,-0.6028 h 0.951789 z"
         style="font-style:normal;font-variant:normal;font-weight:bold;font-stretch:normal;font-size:25.4px;font-family:'padmaa-Bold.1.1';-inkscape-font-specification:'padmaa-Bold.1.1 Bold';stroke-width:1.27904"
         id="path919" />
      <path
         d="m 47.241991,211.55075 v 0.62011 q -1.116211,0.17364 -1.463476,0.4961 -0.471289,0.44648 -0.471289,1.6123 v 7.9127 q 0,1.28984 -0.297656,2.50527 -0.372071,1.51309 -1.091407,2.28203 -0.868164,0.94258 -2.33164,1.41387 -1.21543,0.39687 -2.554883,0.39687 -1.21543,0 -2.306836,-0.24804 -1.661914,-0.37207 -2.728516,-1.31465 -0.917773,-0.81856 -1.265039,-1.5875 -0.446484,-1.01699 -0.446484,-2.90215 v -8.28476 q 0,-1.41387 -0.496094,-1.86036 -0.322461,-0.29765 -1.53789,-0.42168 v -0.62011 h 8.383984 v 0.62011 q -1.389063,0 -1.810742,0.32246 -0.595313,0.44649 -0.595313,1.95958 v 8.28476 q 0,2.55488 0.868164,3.6959 0.892969,1.14101 2.703711,1.14101 2.827735,0 3.844727,-2.08359 0.570508,-1.16582 0.570508,-3.29902 v -7.56543 q 0,-1.28985 -0.396875,-1.78594 -0.520899,-0.66973 -2.033985,-0.66973 v -0.62011 z"
         style="font-style:normal;font-variant:normal;font-weight:bold;font-stretch:normal;font-size:25.4px;font-family:'padmaa-Bold.1.1';-inkscape-font-specification:'padmaa-Bold.1.1 Bold'"
         id="path921" />
      <path
         d="m 48.159765,228.31872 v -0.62012 q 0.917773,-0.14883 1.091406,-0.19844 0.198438,-0.0496 0.347266,-0.14883 0.396875,-0.29765 0.520898,-0.71933 0.124024,-0.44649 0.124024,-1.21543 V 214.4529 q 0,-1.41387 -0.545704,-1.86036 -0.37207,-0.32246 -1.53789,-0.42168 v -0.62011 h 7.987109 q 2.430859,0 3.993555,0.69453 2.505273,1.11621 2.505273,3.86953 0,0.94258 -0.37207,1.76113 -0.570508,1.24024 -1.885156,1.98438 -1.091407,0.62011 -2.331641,0.79375 -1.21543,0.14883 -3.795117,0.14883 v 4.61367 q 0,1.41386 0.446484,1.81074 0.322461,0.29766 1.736328,0.47129 v 0.62012 z m 6.101953,-15.03165 v 6.64766 q 2.33164,0 3.175,-0.71933 0.942578,-0.79375 0.942578,-3.02618 0,-2.08359 -0.694531,-2.92695 -0.669727,-0.84336 -2.232422,-0.84336 -1.190625,0 -1.190625,0.86816 z"
         style="font-style:normal;font-variant:normal;font-weight:bold;font-stretch:normal;font-size:25.4px;font-family:'padmaa-Bold.1.1';-inkscape-font-specification:'padmaa-Bold.1.1 Bold'"
         id="path923" />
      <path
         d="m 63.315427,212.17086 v -0.62011 h 14.312305 v 4.98574 h -0.620117 q -0.396875,-2.50527 -1.785938,-3.39824 -1.16582,-0.74414 -3.894336,-0.74414 -1.091406,0 -1.463476,0.19843 -0.347266,0.19844 -0.347266,0.96739 v 5.75468 q 1.909961,0 2.75332,-0.69453 0.992188,-0.81855 1.265039,-3.00136 h 0.644922 v 8.38398 h -0.644922 q -0.223242,-2.23242 -1.141015,-3.02617 -0.917774,-0.81856 -2.877344,-0.81856 v 6.00274 q 0,0.81855 0.42168,1.11621 0.446484,0.27285 1.661914,0.27285 2.207617,0 3.59668,-0.76895 1.835546,-1.01699 2.926953,-3.62148 h 0.694531 l -0.992188,5.15938 H 63.315427 v -0.62012 q 1.265039,-0.12403 1.612305,-0.34727 0.570508,-0.34726 0.570508,-1.41386 V 213.932 q 0,-1.11621 -0.644922,-1.48828 -0.471289,-0.27286 -1.537891,-0.27286 z"
         style="font-style:normal;font-variant:normal;font-weight:bold;font-stretch:normal;font-size:25.4px;font-family:'padmaa-Bold.1.1';-inkscape-font-specification:'padmaa-Bold.1.1 Bold'"
         id="path925" />
      <path
         d="m 86.309373,213.4359 v 6.3252 q 2.579688,0 3.472657,-0.66973 1.066601,-0.79375 1.066601,-3.12539 0,-1.86035 -0.74414,-2.70371 -0.719336,-0.86816 -2.257227,-0.86816 -0.967383,0 -1.21543,0.19843 -0.223242,0.17364 -0.322461,0.84336 z m 10.889258,14.2627 v 0.62012 H 92.11367 l -5.13457,-7.76387 h -0.669727 v 4.86172 q 0,1.38906 0.471289,1.78593 0.372071,0.32247 1.711524,0.4961 v 0.62012 h -8.383984 v -0.62012 q 1.389062,-0.17363 1.711523,-0.44649 0.471289,-0.42168 0.471289,-1.83554 V 214.4529 q 0,-1.48829 -0.545703,-1.93477 -0.42168,-0.34727 -1.637109,-0.34727 v -0.62011 h 7.987109 q 3.423047,0 5.208984,1.14101 1.785938,1.11621 1.785938,3.22461 0,1.98438 -1.438672,3.10059 -0.79375,0.62011 -2.455664,1.14101 l 4.985742,7.06934 q 0.223242,0.29766 0.471289,0.39687 0.248047,0.0744 0.545703,0.0744 z"
         style="font-style:normal;font-variant:normal;font-weight:bold;font-stretch:normal;font-size:25.4px;font-family:'padmaa-Bold.1.1';-inkscape-font-specification:'padmaa-Bold.1.1 Bold'"
         id="path927" />
      <path
         d="m 113.83354,217.18966 v 8.11155 q 0,1.07072 0.45425,1.52497 0.45425,0.45427 1.49252,0.45427 2.36858,0 3.34196,-1.68723 0.64892,-1.13561 0.64892,-3.17972 0,-3.08239 -1.68719,-4.3478 -1.16808,-0.87604 -3.27707,-0.87604 z m 0,-8.24134 v 7.26795 q 3.11485,0 4.15312,-1.07073 0.9085,-0.94093 0.9085,-3.60152 0,-1.91433 -0.68138,-2.95261 -0.81116,-1.23295 -2.66059,-1.23295 -0.87605,0 -1.29785,0.32445 -0.4218,0.29202 -0.4218,1.26541 z m -8.04667,19.3704 v -0.81116 q 1.65475,-0.19468 2.10901,-0.45425 0.74627,-0.45424 0.74627,-1.84942 v -15.70398 q 0,-1.46009 -0.84361,-1.94678 -0.61647,-0.35692 -2.01167,-0.35692 v -0.81114 h 10.02589 q 2.98505,0 4.89938,0.68137 3.53664,1.2654 3.53664,4.51003 0,2.33612 -1.97923,3.63397 -0.8436,0.55158 -3.04994,1.23296 2.49836,0.48669 4.08822,1.71965 2.04412,1.58987 2.04412,4.12066 0,2.40103 -1.97922,4.02334 -2.43347,2.01167 -7.13817,2.01167 z"
         style="font-style:normal;font-variant:normal;font-weight:bold;font-stretch:normal;font-size:25.4px;font-family:'padmaa-Bold.1.1';-inkscape-font-specification:'padmaa-Bold.1.1 Bold';stroke-width:1.30806"
         id="path929" />
      <path
         d="m 136.1916,211.99723 q -2.35645,0 -3.49747,2.6293 -0.89296,2.05879 -0.89296,5.35781 0,4.06797 1.11621,6.02754 1.11621,1.95957 3.27422,1.95957 2.72851,0 3.77031,-3.175 0.62011,-1.88516 0.62011,-4.81211 0,-3.27422 -0.89296,-5.35781 -1.11621,-2.6293 -3.49746,-2.6293 z m 0,-0.81855 q 3.69589,0 6.17636,2.35644 2.60449,2.48047 2.60449,6.44922 0,3.89434 -2.48046,6.35 -2.48047,2.45566 -6.30039,2.45566 -3.84473,0 -6.3252,-2.43086 -2.45566,-2.45566 -2.45566,-6.3748 0,-3.96875 2.53007,-6.3748 2.53008,-2.43086 6.25079,-2.43086 z"
         style="font-style:normal;font-variant:normal;font-weight:bold;font-stretch:normal;font-size:25.4px;font-family:'padmaa-Bold.1.1';-inkscape-font-specification:'padmaa-Bold.1.1 Bold'"
         id="path931" />
      <path
         d="m 170.17402,211.55075 v 0.62011 q -0.64492,0.0496 -1.0666,0.47129 -0.42168,0.39688 -0.64492,1.11621 l -4.96094,14.93243 h -0.66973 l -4.16718,-11.6086 h -0.17364 l -4.51445,11.6086 h -0.69453 l -5.2586,-14.93243 q -0.32246,-0.91777 -0.62011,-1.19062 -0.29766,-0.27285 -1.09141,-0.39688 v -0.62011 h 7.29258 v 0.62011 q -0.76895,0 -1.19063,0.22325 -0.39687,0.19843 -0.39687,0.81855 0,0.14883 0.0496,0.37207 0.0496,0.22324 0.12402,0.44649 l 2.95176,8.95449 2.95176,-7.56543 -0.86817,-2.38125 q -0.34726,-0.59531 -0.74414,-0.71934 -0.37207,-0.14883 -1.04179,-0.14883 v -0.62011 h 7.73906 v 0.62011 q -0.91778,0 -1.36426,0.17364 -0.42168,0.17363 -0.42168,0.76894 0,0.19844 0.0496,0.42168 l 0.29766,0.94258 2.6541,8.25996 2.80293,-8.43359 q 0.0248,-0.0992 0.0992,-0.39688 0.0744,-0.32246 0.0744,-0.64492 0,-0.69453 -0.47129,-0.89297 -0.44648,-0.19844 -1.24023,-0.19844 v -0.62011 z"
         style="font-style:normal;font-variant:normal;font-weight:bold;font-stretch:normal;font-size:25.4px;font-family:'padmaa-Bold.1.1';-inkscape-font-specification:'padmaa-Bold.1.1 Bold'"
         id="path933" />
      <path
         d="m 186.4707,222.68805 -1.01699,5.63067 H 171.1166 v -0.62012 q 1.24023,-0.14883 1.5875,-0.37207 0.5457,-0.34727 0.5457,-1.38906 V 213.932 q 0,-1.09141 -0.64492,-1.48828 -0.44648,-0.27286 -1.48828,-0.27286 v -0.62011 h 8.65683 v 0.62011 q -1.46347,0 -1.90996,0.32246 -0.59531,0.42168 -0.59531,1.95958 v 11.70781 q 0,0.86816 0.44649,1.14101 0.44648,0.24805 1.76113,0.24805 2.60449,0 4.11758,-1.36426 1.16582,-1.04179 2.158,-3.49746 z"
         style="font-style:normal;font-variant:normal;font-weight:bold;font-stretch:normal;font-size:25.4px;font-family:'padmaa-Bold.1.1';-inkscape-font-specification:'padmaa-Bold.1.1 Bold'"
         id="path935" />
      <path
         d="m 215.641,220.90223 -1.33954,7.41649 h -18.88425 v -0.8168 q 1.63359,-0.19603 2.09098,-0.49007 0.71878,-0.45741 0.71878,-1.82961 v -15.81312 q 0,-1.43757 -0.84946,-1.9603 -0.58809,-0.3594 -1.9603,-0.3594 v -0.81679 h 11.40243 v 0.81679 q -1.92763,0 -2.51572,0.42472 -0.78413,0.55543 -0.78413,2.58109 v 15.42105 q 0,1.1435 0.58809,1.50289 0.58809,0.32672 2.31969,0.32672 3.43054,0 5.42352,-1.79695 1.53557,-1.3722 2.84244,-4.60671 z"
         style="font-style:normal;font-variant:normal;font-weight:bold;font-stretch:normal;font-size:25.4px;font-family:'padmaa-Bold.1.1';-inkscape-font-specification:'padmaa-Bold.1.1 Bold';stroke-width:1.31716"
         id="path937" />
      <path
         d="m 233.74842,206.23263 v 0.81168 q -1.29871,0.16234 -1.81818,0.68182 -0.51949,0.51949 -1.10391,1.98054 l -7.40263,19.05853 h -0.87663 l -8.31172,-19.44815 q -0.6169,-1.39611 -1.07144,-1.72078 -0.45456,-0.35716 -1.65586,-0.55196 v -0.81168 h 10.90915 v 0.81168 q -1.68833,0 -2.24028,0.22729 -0.55195,0.22726 -0.55195,1.13635 0,0.35715 0.38962,1.39611 0.42208,1.00651 0.58442,1.39611 l 4.25327,10.2598 4.12339,-10.68187 q 0.29221,-0.71429 0.45455,-1.26625 0.19481,-0.55195 0.19481,-0.97402 0,-1.49352 -2.79223,-1.49352 v -0.81168 z"
         style="font-style:normal;font-variant:normal;font-weight:bold;font-stretch:normal;font-size:25.4px;font-family:'padmaa-Bold.1.1';-inkscape-font-specification:'padmaa-Bold.1.1 Bold';stroke-width:1.30893"
         id="path939" />
    </g>
    <ellipse
       style="fill:none;stroke:#000000;stroke-width:0.18385;stroke-miterlimit:4;stroke-dasharray:none"
       id="path959"
       cx="135.35686"
       cy="127.72394"
       rx="130.52968"
       ry="124.45592" />
  </g>
</svg>
