  0
SECTION
  2
HEADER
  9
$ACADVER
  1
AC1014
  9
$HANDSEED
  5
FFFF
  9
$MEASUREMENT
 70
     1
  0
ENDSEC
  0
SECTION
  2
TABLES
  0
TABLE
  2
VPORT
  5
8
330
0
100
AcDbSymbolTable
 70
     4
  0
VPORT
  5
2E
330
8
100
AcDbSymbolTableRecord
100
AcDbViewportTableRecord
  2
*ACTIVE
 70
     0
 10
0.0
 20
0.0
 11
1.0
 21
1.0
 12
210.0
 22
148.5
 13
0.0
 23
0.0
 14
10.0
 24
10.0
 15
10.0
 25
10.0
 16
0.0
 26
0.0
 36
1.0
 17
0.0
 27
0.0
 37
0.0
 40
341.0
 41
1.24
 42
50.0
 43
0.0
 44
0.0
 50
0.0
 51
0.0
 71
     0
 72
   100
 73
     1
 74
     3
 75
     0
 76
     0
 77
     0
 78
     0
  0
ENDTAB
  0
TABLE
  2
LTYPE
  5
5
330
0
100
AcDbSymbolTable
 70
     1
  0
LTYPE
  5
14
330
5
100
AcDbSymbolTableRecord
100
AcDbLinetypeTableRecord
  2
BYBLOCK
 70
     0
  3

 72
    65
 73
     0
 40
0.0
  0
LTYPE
  5
15
330
5
100
AcDbSymbolTableRecord
100
AcDbLinetypeTableRecord
  2
BYLAYER
 70
     0
  3

 72
    65
 73
     0
 40
0.0
  0
LTYPE
  5
16
330
5
100
AcDbSymbolTableRecord
100
AcDbLinetypeTableRecord
  2
CONTINUOUS
 70
     0
  3
Solid line
 72
    65
 73
     0
 40
0.0
  0
ENDTAB
  0
TABLE
  2
LAYER
  5
2
100
AcDbSymbolTable
 70
2
  0
LAYER
  5
50
100
AcDbSymbolTableRecord
100
AcDbLayerTableRecord
  2
0
 70
0
  6
CONTINUOUS
  0
LAYER
  5
51
100
AcDbSymbolTableRecord
100
AcDbLayerTableRecord
  2
Layer_1
 70
0
  6
CONTINUOUS
  0
ENDTAB
  0
TABLE
  2
STYLE
  5
3
330
0
100
AcDbSymbolTable
 70
     1
  0
STYLE
  5
11
330
3
100
AcDbSymbolTableRecord
100
AcDbTextStyleTableRecord
  2
STANDARD
 70
     0
 40
0.0
 41
1.0
 50
0.0
 71
     0
 42
2.5
  3
txt
  4

  0
ENDTAB
  0
TABLE
  2
VIEW
  5
6
330
0
100
AcDbSymbolTable
 70
     0
  0
ENDTAB
  0
TABLE
  2
UCS
  5
7
330
0
100
AcDbSymbolTable
 70
     0
  0
ENDTAB
  0
TABLE
  2
APPID
  5
9
330
0
100
AcDbSymbolTable
 70
     2
  0
APPID
  5
12
330
9
100
AcDbSymbolTableRecord
100
AcDbRegAppTableRecord
  2
ACAD
 70
     0
  0
ENDTAB
  0
TABLE
  2
DIMSTYLE
  5
A
330
0
100
AcDbSymbolTable
 70
     1
  0
DIMSTYLE
105
27
330
A
100
AcDbSymbolTableRecord
100
AcDbDimStyleTableRecord
  2
ISO-25
 70
     0
  3

  4

  5

  6

  7

 40
1.0
 41
2.5
 42
0.625
 43
3.75
 44
1.25
 45
0.0
 46
0.0
 47
0.0
 48
0.0
140
2.5
141
2.5
142
0.0
143
0.03937007874016
144
1.0
145
0.0
146
1.0
147
0.625
 71
     0
 72
     0
 73
     0
 74
     0
 75
     0
 76
     0
 77
     1
 78
     8
170
     0
171
     3
172
     1
173
     0
174
     0
175
     0
176
     0
177
     0
178
     0
270
     2
271
     2
272
     2
273
     2
274
     3
340
11
275
     0
280
     0
281
     0
282
     0
283
     0
284
     8
285
     0
286
     0
287
     3
288
     0
  0
ENDTAB
  0
TABLE
  2
BLOCK_RECORD
  5
1
330
0
100
AcDbSymbolTable
 70
     1
  0
BLOCK_RECORD
  5
1F
330
1
100
AcDbSymbolTableRecord
100
AcDbBlockTableRecord
  2
*MODEL_SPACE
  0
BLOCK_RECORD
  5
1B
330
1
100
AcDbSymbolTableRecord
100
AcDbBlockTableRecord
  2
*PAPER_SPACE
  0
ENDTAB
  0
ENDSEC
  0
SECTION
  2
BLOCKS
  0
BLOCK
  5
20
330
1F
100
AcDbEntity
  8
0
100
AcDbBlockBegin
  2
*MODEL_SPACE
 70
     0
 10
0.0
 20
0.0
 30
0.0
  3
*MODEL_SPACE
  1

  0
ENDBLK
  5
21
330
1F
100
AcDbEntity
  8
0
100
AcDbBlockEnd
  0
BLOCK
  5
1C
330
1B
100
AcDbEntity
 67
     1
  8
0
100
AcDbBlockBegin
  2
*PAPER_SPACE
  1

  0
ENDBLK
  5
1D
330
1B
100
AcDbEntity
 67
     1
  8
0
100
AcDbBlockEnd
  0
ENDSEC
  0
SECTION
  2
ENTITIES
  0
SPLINE
  5
100
100
AcDbEntity
  8
Layer_1
 62
7
100
AcDbSpline
 70
8
 71
3
 72
8
 73
4
 74
0
 40
0
 40
0
 40
0
 40
0
 40
1
 40
1
 40
1
 40
1
 10
38.630517
 20
76.188718
 30
0.0
 10
38.766047
 20
76.188718
 30
0.0
 10
38.833812
 20
76.117665
 30
0.0
 10
38.833812
 20
75.975560
 30
0.0
  0
SPLINE
  5
101
100
AcDbEntity
  8
Layer_1
 62
7
100
AcDbSpline
 70
8
 71
3
 72
8
 73
4
 74
0
 40
0
 40
0
 40
0
 40
0
 40
1
 40
1
 40
1
 40
1
 10
38.833812
 20
75.427442
 30
0.0
 10
38.833812
 20
75.325938
 30
0.0
 10
38.725388
 20
75.275187
 30
0.0
 10
38.508541
 20
75.275187
 30
0.0
  0
SPLINE
  5
102
100
AcDbEntity
  8
Layer_1
 62
7
100
AcDbSpline
 70
8
 71
3
 72
8
 73
4
 74
0
 40
0
 40
0
 40
0
 40
0
 40
1
 40
1
 40
1
 40
1
 10
38.508541
 20
75.275187
 30
0.0
 10
38.047740
 20
75.275187
 30
0.0
 10
37.695363
 20
75.224435
 30
0.0
 10
37.451410
 20
75.122931
 30
0.0
  0
SPLINE
  5
103
100
AcDbEntity
  8
Layer_1
 62
7
100
AcDbSpline
 70
8
 71
3
 72
8
 73
4
 74
0
 40
0
 40
0
 40
0
 40
0
 40
1
 40
1
 40
1
 40
1
 10
37.451410
 20
75.122931
 30
0.0
 10
37.207457
 20
75.021428
 30
0.0
 10
37.017715
 20
74.909774
 30
0.0
 10
36.882185
 20
74.787970
 30
0.0
  0
SPLINE
  5
104
100
AcDbEntity
  8
Layer_1
 62
7
100
AcDbSpline
 70
8
 71
3
 72
8
 73
4
 74
0
 40
0
 40
0
 40
0
 40
0
 40
1
 40
1
 40
1
 40
1
 10
36.882185
 20
74.787970
 30
0.0
 10
36.746656
 20
74.645865
 30
0.0
 10
36.651785
 20
74.493610
 30
0.0
 10
36.597573
 20
74.331204
 30
0.0
  0
LWPOLYLINE
  5
105
100
AcDbEntity
  8
Layer_1
 62
7
100
AcDbPolyline
 90
2
 70
0
 10
38.833812
 20
75.975560
 30
0.0
 10
38.833812
 20
75.427442
 30
0.0
  0
SPLINE
  5
106
100
AcDbEntity
  8
Layer_1
 62
7
100
AcDbSpline
 70
8
 71
3
 72
8
 73
4
 74
0
 40
0
 40
0
 40
0
 40
0
 40
1
 40
1
 40
1
 40
1
 10
33.466839
 20
55.847426
 30
0.0
 10
33.466839
 20
55.786524
 30
0.0
 10
33.480392
 20
55.705321
 30
0.0
 10
33.507498
 20
55.603817
 30
0.0
  0
SPLINE
  5
107
100
AcDbEntity
  8
Layer_1
 62
7
100
AcDbSpline
 70
8
 71
3
 72
8
 73
4
 74
0
 40
0
 40
0
 40
0
 40
0
 40
1
 40
1
 40
1
 40
1
 10
33.507498
 20
55.603817
 30
0.0
 10
33.534604
 20
55.522615
 30
0.0
 10
33.602369
 20
55.431261
 30
0.0
 10
33.710793
 20
55.329758
 30
0.0
  0
SPLINE
  5
108
100
AcDbEntity
  8
Layer_1
 62
7
100
AcDbSpline
 70
8
 71
3
 72
8
 73
4
 74
0
 40
0
 40
0
 40
0
 40
0
 40
1
 40
1
 40
1
 40
1
 10
33.710793
 20
55.329758
 30
0.0
 10
33.819216
 20
55.248555
 30
0.0
 10
33.981852
 20
55.177503
 30
0.0
 10
34.198699
 20
55.116601
 30
0.0
  0
SPLINE
  5
109
100
AcDbEntity
  8
Layer_1
 62
7
100
AcDbSpline
 70
8
 71
3
 72
8
 73
4
 74
0
 40
0
 40
0
 40
0
 40
0
 40
1
 40
1
 40
1
 40
1
 10
34.198699
 20
55.116601
 30
0.0
 10
34.415547
 20
55.055699
 30
0.0
 10
34.713712
 20
55.025248
 30
0.0
 10
35.093195
 20
55.025248
 30
0.0
  0
SPLINE
  5
10a
100
AcDbEntity
  8
Layer_1
 62
7
100
AcDbSpline
 70
8
 71
3
 72
8
 73
4
 74
0
 40
0
 40
0
 40
0
 40
0
 40
1
 40
1
 40
1
 40
1
 10
35.093195
 20
55.025248
 30
0.0
 10
35.310042
 20
55.025248
 30
0.0
 10
35.418466
 20
54.974496
 30
0.0
 10
35.418466
 20
54.872992
 30
0.0
  0
LWPOLYLINE
  5
10b
100
AcDbEntity
  8
Layer_1
 62
7
100
AcDbPolyline
 90
2
 70
0
 10
36.597573
 20
74.331204
 30
0.0
 10
33.466839
 20
55.847426
 30
0.0
  0
SPLINE
  5
10c
100
AcDbEntity
  8
Layer_1
 62
7
100
AcDbSpline
 70
8
 71
3
 72
8
 73
4
 74
0
 40
0
 40
0
 40
0
 40
0
 40
1
 40
1
 40
1
 40
1
 10
35.418466
 20
54.324874
 30
0.0
 10
35.418466
 20
54.182769
 30
0.0
 10
35.350701
 20
54.111717
 30
0.0
 10
35.215171
 20
54.111717
 30
0.0
  0
SPLINE
  5
10d
100
AcDbEntity
  8
Layer_1
 62
7
100
AcDbSpline
 70
8
 71
3
 72
8
 73
4
 74
0
 40
0
 40
0
 40
0
 40
0
 40
1
 40
1
 40
1
 40
1
 10
35.215171
 20
54.111717
 30
0.0
 10
34.835688
 20
54.111717
 30
0.0
 10
34.496864
 20
54.121867
 30
0.0
 10
34.198699
 20
54.142168
 30
0.0
  0
SPLINE
  5
10e
100
AcDbEntity
  8
Layer_1
 62
7
100
AcDbSpline
 70
8
 71
3
 72
8
 73
4
 74
0
 40
0
 40
0
 40
0
 40
0
 40
1
 40
1
 40
1
 40
1
 10
34.198699
 20
54.142168
 30
0.0
 10
33.900534
 20
54.142168
 30
0.0
 10
33.615922
 20
54.152318
 30
0.0
 10
33.344863
 20
54.172619
 30
0.0
  0
SPLINE
  5
10f
100
AcDbEntity
  8
Layer_1
 62
7
100
AcDbSpline
 70
8
 71
3
 72
8
 73
4
 74
0
 40
0
 40
0
 40
0
 40
0
 40
1
 40
1
 40
1
 40
1
 10
33.344863
 20
54.172619
 30
0.0
 10
33.100909
 20
54.172619
 30
0.0
 10
32.843403
 20
54.172619
 30
0.0
 10
32.572344
 20
54.172619
 30
0.0
  0
SPLINE
  5
110
100
AcDbEntity
  8
Layer_1
 62
7
100
AcDbSpline
 70
8
 71
3
 72
8
 73
4
 74
0
 40
0
 40
0
 40
0
 40
0
 40
1
 40
1
 40
1
 40
1
 10
32.572344
 20
54.172619
 30
0.0
 10
32.328391
 20
54.192919
 30
0.0
 10
32.043779
 20
54.203070
 30
0.0
 10
31.718507
 20
54.203070
 30
0.0
  0
SPLINE
  5
111
100
AcDbEntity
  8
Layer_1
 62
7
100
AcDbSpline
 70
8
 71
3
 72
8
 73
4
 74
0
 40
0
 40
0
 40
0
 40
0
 40
1
 40
1
 40
1
 40
1
 10
31.718507
 20
54.203070
 30
0.0
 10
31.311919
 20
54.203070
 30
0.0
 10
30.986648
 20
54.192919
 30
0.0
 10
30.742694
 20
54.172619
 30
0.0
  0
SPLINE
  5
112
100
AcDbEntity
  8
Layer_1
 62
7
100
AcDbSpline
 70
8
 71
3
 72
8
 73
4
 74
0
 40
0
 40
0
 40
0
 40
0
 40
1
 40
1
 40
1
 40
1
 10
30.742694
 20
54.172619
 30
0.0
 10
30.525847
 20
54.172619
 30
0.0
 10
30.322553
 20
54.172619
 30
0.0
 10
30.132811
 20
54.172619
 30
0.0
  0
SPLINE
  5
113
100
AcDbEntity
  8
Layer_1
 62
7
100
AcDbSpline
 70
8
 71
3
 72
8
 73
4
 74
0
 40
0
 40
0
 40
0
 40
0
 40
1
 40
1
 40
1
 40
1
 10
30.132811
 20
54.172619
 30
0.0
 10
29.970176
 20
54.152318
 30
0.0
 10
29.793987
 20
54.142168
 30
0.0
 10
29.604246
 20
54.142168
 30
0.0
  0
SPLINE
  5
114
100
AcDbEntity
  8
Layer_1
 62
7
100
AcDbSpline
 70
8
 71
3
 72
8
 73
4
 74
0
 40
0
 40
0
 40
0
 40
0
 40
1
 40
1
 40
1
 40
1
 10
29.604246
 20
54.142168
 30
0.0
 10
29.441610
 20
54.121867
 30
0.0
 10
29.224763
 20
54.111717
 30
0.0
 10
28.953704
 20
54.111717
 30
0.0
  0
SPLINE
  5
115
100
AcDbEntity
  8
Layer_1
 62
7
100
AcDbSpline
 70
8
 71
3
 72
8
 73
4
 74
0
 40
0
 40
0
 40
0
 40
0
 40
1
 40
1
 40
1
 40
1
 10
28.953704
 20
54.111717
 30
0.0
 10
28.818174
 20
54.111717
 30
0.0
 10
28.750409
 20
54.182769
 30
0.0
 10
28.750409
 20
54.324874
 30
0.0
  0
LWPOLYLINE
  5
116
100
AcDbEntity
  8
Layer_1
 62
7
100
AcDbPolyline
 90
2
 70
0
 10
35.418466
 20
54.872992
 30
0.0
 10
35.418466
 20
54.324874
 30
0.0
  0
SPLINE
  5
117
100
AcDbEntity
  8
Layer_1
 62
7
100
AcDbSpline
 70
8
 71
3
 72
8
 73
4
 74
0
 40
0
 40
0
 40
0
 40
0
 40
1
 40
1
 40
1
 40
1
 10
28.750409
 20
54.872992
 30
0.0
 10
28.750409
 20
54.974496
 30
0.0
 10
28.858833
 20
55.025248
 30
0.0
 10
29.075680
 20
55.025248
 30
0.0
  0
SPLINE
  5
118
100
AcDbEntity
  8
Layer_1
 62
7
100
AcDbSpline
 70
8
 71
3
 72
8
 73
4
 74
0
 40
0
 40
0
 40
0
 40
0
 40
1
 40
1
 40
1
 40
1
 10
29.075680
 20
55.025248
 30
0.0
 10
29.346739
 20
55.025248
 30
0.0
 10
29.536481
 20
55.065849
 30
0.0
 10
29.644904
 20
55.147052
 30
0.0
  0
SPLINE
  5
119
100
AcDbEntity
  8
Layer_1
 62
7
100
AcDbSpline
 70
8
 71
3
 72
8
 73
4
 74
0
 40
0
 40
0
 40
0
 40
0
 40
1
 40
1
 40
1
 40
1
 10
29.644904
 20
55.147052
 30
0.0
 10
29.753328
 20
55.248555
 30
0.0
 10
29.834646
 20
55.360209
 30
0.0
 10
29.888858
 20
55.482013
 30
0.0
  0
SPLINE
  5
11a
100
AcDbEntity
  8
Layer_1
 62
7
100
AcDbSpline
 70
8
 71
3
 72
8
 73
4
 74
0
 40
0
 40
0
 40
0
 40
0
 40
1
 40
1
 40
1
 40
1
 10
29.888858
 20
55.482013
 30
0.0
 10
29.943070
 20
55.624118
 30
0.0
 10
29.943070
 20
55.786524
 30
0.0
 10
29.888858
 20
55.969230
 30
0.0
  0
LWPOLYLINE
  5
11b
100
AcDbEntity
  8
Layer_1
 62
7
100
AcDbPolyline
 90
2
 70
0
 10
28.750409
 20
54.324874
 30
0.0
 10
28.750409
 20
54.872992
 30
0.0
  0
SPLINE
  5
11c
100
AcDbEntity
  8
Layer_1
 62
7
100
AcDbSpline
 70
8
 71
3
 72
8
 73
4
 74
0
 40
0
 40
0
 40
0
 40
0
 40
1
 40
1
 40
1
 40
1
 10
23.424096
 20
55.969230
 30
0.0
 10
23.424096
 20
55.928628
 30
0.0
 10
23.410543
 20
55.857576
 30
0.0
 10
23.383437
 20
55.756073
 30
0.0
  0
SPLINE
  5
11d
100
AcDbEntity
  8
Layer_1
 62
7
100
AcDbSpline
 70
8
 71
3
 72
8
 73
4
 74
0
 40
0
 40
0
 40
0
 40
0
 40
1
 40
1
 40
1
 40
1
 10
23.383437
 20
55.756073
 30
0.0
 10
23.383437
 20
55.654569
 30
0.0
 10
23.396990
 20
55.542915
 30
0.0
 10
23.424096
 20
55.421111
 30
0.0
  0
SPLINE
  5
11e
100
AcDbEntity
  8
Layer_1
 62
7
100
AcDbSpline
 70
8
 71
3
 72
8
 73
4
 74
0
 40
0
 40
0
 40
0
 40
0
 40
1
 40
1
 40
1
 40
1
 10
23.424096
 20
55.421111
 30
0.0
 10
23.478307
 20
55.319608
 30
0.0
 10
23.559625
 20
55.228255
 30
0.0
 10
23.668049
 20
55.147052
 30
0.0
  0
SPLINE
  5
11f
100
AcDbEntity
  8
Layer_1
 62
7
100
AcDbSpline
 70
8
 71
3
 72
8
 73
4
 74
0
 40
0
 40
0
 40
0
 40
0
 40
1
 40
1
 40
1
 40
1
 10
23.668049
 20
55.147052
 30
0.0
 10
23.803578
 20
55.065849
 30
0.0
 10
23.993320
 20
55.025248
 30
0.0
 10
24.237273
 20
55.025248
 30
0.0
  0
SPLINE
  5
120
100
AcDbEntity
  8
Layer_1
 62
7
100
AcDbSpline
 70
8
 71
3
 72
8
 73
4
 74
0
 40
0
 40
0
 40
0
 40
0
 40
1
 40
1
 40
1
 40
1
 10
24.237273
 20
55.025248
 30
0.0
 10
24.318591
 20
55.025248
 30
0.0
 10
24.399909
 20
55.015097
 30
0.0
 10
24.481226
 20
54.994797
 30
0.0
  0
SPLINE
  5
121
100
AcDbEntity
  8
Layer_1
 62
7
100
AcDbSpline
 70
8
 71
3
 72
8
 73
4
 74
0
 40
0
 40
0
 40
0
 40
0
 40
1
 40
1
 40
1
 40
1
 10
24.481226
 20
54.994797
 30
0.0
 10
24.562544
 20
54.974496
 30
0.0
 10
24.603203
 20
54.933895
 30
0.0
 10
24.603203
 20
54.872992
 30
0.0
  0
LWPOLYLINE
  5
122
100
AcDbEntity
  8
Layer_1
 62
7
100
AcDbPolyline
 90
3
 70
0
 10
29.888858
 20
55.969230
 30
0.0
 10
26.676806
 20
66.627092
 30
0.0
 10
23.424096
 20
55.969230
 30
0.0
  0
SPLINE
  5
123
100
AcDbEntity
  8
Layer_1
 62
7
100
AcDbSpline
 70
8
 71
3
 72
8
 73
4
 74
0
 40
0
 40
0
 40
0
 40
0
 40
1
 40
1
 40
1
 40
1
 10
24.603203
 20
54.324874
 30
0.0
 10
24.603203
 20
54.182769
 30
0.0
 10
24.521885
 20
54.111717
 30
0.0
 10
24.359250
 20
54.111717
 30
0.0
  0
SPLINE
  5
124
100
AcDbEntity
  8
Layer_1
 62
7
100
AcDbSpline
 70
8
 71
3
 72
8
 73
4
 74
0
 40
0
 40
0
 40
0
 40
0
 40
1
 40
1
 40
1
 40
1
 10
24.359250
 20
54.111717
 30
0.0
 10
24.088191
 20
54.111717
 30
0.0
 10
23.871343
 20
54.121867
 30
0.0
 10
23.708708
 20
54.142168
 30
0.0
  0
SPLINE
  5
125
100
AcDbEntity
  8
Layer_1
 62
7
100
AcDbSpline
 70
8
 71
3
 72
8
 73
4
 74
0
 40
0
 40
0
 40
0
 40
0
 40
1
 40
1
 40
1
 40
1
 10
23.708708
 20
54.142168
 30
0.0
 10
23.546072
 20
54.142168
 30
0.0
 10
23.369884
 20
54.152318
 30
0.0
 10
23.180142
 20
54.172619
 30
0.0
  0
SPLINE
  5
126
100
AcDbEntity
  8
Layer_1
 62
7
100
AcDbSpline
 70
8
 71
3
 72
8
 73
4
 74
0
 40
0
 40
0
 40
0
 40
0
 40
1
 40
1
 40
1
 40
1
 10
23.180142
 20
54.172619
 30
0.0
 10
23.017507
 20
54.172619
 30
0.0
 10
22.814212
 20
54.172619
 30
0.0
 10
22.570259
 20
54.172619
 30
0.0
  0
SPLINE
  5
127
100
AcDbEntity
  8
Layer_1
 62
7
100
AcDbSpline
 70
8
 71
3
 72
8
 73
4
 74
0
 40
0
 40
0
 40
0
 40
0
 40
1
 40
1
 40
1
 40
1
 10
22.570259
 20
54.172619
 30
0.0
 10
22.326306
 20
54.192919
 30
0.0
 10
22.001035
 20
54.203070
 30
0.0
 10
21.594446
 20
54.203070
 30
0.0
  0
SPLINE
  5
128
100
AcDbEntity
  8
Layer_1
 62
7
100
AcDbSpline
 70
8
 71
3
 72
8
 73
4
 74
0
 40
0
 40
0
 40
0
 40
0
 40
1
 40
1
 40
1
 40
1
 10
21.594446
 20
54.203070
 30
0.0
 10
20.943904
 20
54.203070
 30
0.0
 10
20.388232
 20
54.192919
 30
0.0
 10
19.927432
 20
54.172619
 30
0.0
  0
SPLINE
  5
129
100
AcDbEntity
  8
Layer_1
 62
7
100
AcDbSpline
 70
8
 71
3
 72
8
 73
4
 74
0
 40
0
 40
0
 40
0
 40
0
 40
1
 40
1
 40
1
 40
1
 10
19.927432
 20
54.172619
 30
0.0
 10
19.466631
 20
54.132017
 30
0.0
 10
18.856748
 20
54.111717
 30
0.0
 10
18.097782
 20
54.111717
 30
0.0
  0
SPLINE
  5
12a
100
AcDbEntity
  8
Layer_1
 62
7
100
AcDbSpline
 70
8
 71
3
 72
8
 73
4
 74
0
 40
0
 40
0
 40
0
 40
0
 40
1
 40
1
 40
1
 40
1
 10
18.097782
 20
54.111717
 30
0.0
 10
17.962252
 20
54.111717
 30
0.0
 10
17.894488
 20
54.182769
 30
0.0
 10
17.894488
 20
54.324874
 30
0.0
  0
LWPOLYLINE
  5
12b
100
AcDbEntity
  8
Layer_1
 62
7
100
AcDbPolyline
 90
2
 70
0
 10
24.603203
 20
54.872992
 30
0.0
 10
24.603203
 20
54.324874
 30
0.0
  0
SPLINE
  5
12c
100
AcDbEntity
  8
Layer_1
 62
7
100
AcDbSpline
 70
8
 71
3
 72
8
 73
4
 74
0
 40
0
 40
0
 40
0
 40
0
 40
1
 40
1
 40
1
 40
1
 10
17.894488
 20
54.872992
 30
0.0
 10
17.894488
 20
54.933895
 30
0.0
 10
17.935147
 20
54.974496
 30
0.0
 10
18.016464
 20
54.994797
 30
0.0
  0
SPLINE
  5
12d
100
AcDbEntity
  8
Layer_1
 62
7
100
AcDbSpline
 70
8
 71
3
 72
8
 73
4
 74
0
 40
0
 40
0
 40
0
 40
0
 40
1
 40
1
 40
1
 40
1
 10
18.016464
 20
54.994797
 30
0.0
 10
18.097782
 20
55.015097
 30
0.0
 10
18.165547
 20
55.025248
 30
0.0
 10
18.219759
 20
55.025248
 30
0.0
  0
SPLINE
  5
12e
100
AcDbEntity
  8
Layer_1
 62
7
100
AcDbSpline
 70
8
 71
3
 72
8
 73
4
 74
0
 40
0
 40
0
 40
0
 40
0
 40
1
 40
1
 40
1
 40
1
 10
18.219759
 20
55.025248
 30
0.0
 10
18.653453
 20
55.025248
 30
0.0
 10
18.978724
 20
55.065849
 30
0.0
 10
19.195572
 20
55.147052
 30
0.0
  0
SPLINE
  5
12f
100
AcDbEntity
  8
Layer_1
 62
7
100
AcDbSpline
 70
8
 71
3
 72
8
 73
4
 74
0
 40
0
 40
0
 40
0
 40
0
 40
1
 40
1
 40
1
 40
1
 10
19.195572
 20
55.147052
 30
0.0
 10
19.412419
 20
55.248555
 30
0.0
 10
19.561502
 20
55.350059
 30
0.0
 10
19.642820
 20
55.451562
 30
0.0
  0
SPLINE
  5
130
100
AcDbEntity
  8
Layer_1
 62
7
100
AcDbSpline
 70
8
 71
3
 72
8
 73
4
 74
0
 40
0
 40
0
 40
0
 40
0
 40
1
 40
1
 40
1
 40
1
 10
19.642820
 20
55.451562
 30
0.0
 10
19.751243
 20
55.553066
 30
0.0
 10
19.805455
 20
55.654569
 30
0.0
 10
19.805455
 20
55.756073
 30
0.0
  0
SPLINE
  5
131
100
AcDbEntity
  8
Layer_1
 62
7
100
AcDbSpline
 70
8
 71
3
 72
8
 73
4
 74
0
 40
0
 40
0
 40
0
 40
0
 40
1
 40
1
 40
1
 40
1
 10
19.805455
 20
55.756073
 30
0.0
 10
19.832561
 20
55.857576
 30
0.0
 10
19.846114
 20
55.928628
 30
0.0
 10
19.846114
 20
55.969230
 30
0.0
  0
LWPOLYLINE
  5
132
100
AcDbEntity
  8
Layer_1
 62
7
100
AcDbPolyline
 90
2
 70
0
 10
17.894488
 20
54.324874
 30
0.0
 10
17.894488
 20
54.872992
 30
0.0
  0
SPLINE
  5
133
100
AcDbEntity
  8
Layer_1
 62
7
100
AcDbSpline
 70
8
 71
3
 72
8
 73
4
 74
0
 40
0
 40
0
 40
0
 40
0
 40
1
 40
1
 40
1
 40
1
 10
16.715380
 20
74.331204
 30
0.0
 10
16.661169
 20
74.493610
 30
0.0
 10
16.566298
 20
74.645865
 30
0.0
 10
16.430768
 20
74.787970
 30
0.0
  0
SPLINE
  5
134
100
AcDbEntity
  8
Layer_1
 62
7
100
AcDbSpline
 70
8
 71
3
 72
8
 73
4
 74
0
 40
0
 40
0
 40
0
 40
0
 40
1
 40
1
 40
1
 40
1
 10
16.430768
 20
74.787970
 30
0.0
 10
16.295239
 20
74.909774
 30
0.0
 10
16.105497
 20
75.021428
 30
0.0
 10
15.861544
 20
75.122931
 30
0.0
  0
SPLINE
  5
135
100
AcDbEntity
  8
Layer_1
 62
7
100
AcDbSpline
 70
8
 71
3
 72
8
 73
4
 74
0
 40
0
 40
0
 40
0
 40
0
 40
1
 40
1
 40
1
 40
1
 10
15.861544
 20
75.122931
 30
0.0
 10
15.617591
 20
75.224435
 30
0.0
 10
15.265214
 20
75.275187
 30
0.0
 10
14.804413
 20
75.275187
 30
0.0
  0
SPLINE
  5
136
100
AcDbEntity
  8
Layer_1
 62
7
100
AcDbSpline
 70
8
 71
3
 72
8
 73
4
 74
0
 40
0
 40
0
 40
0
 40
0
 40
1
 40
1
 40
1
 40
1
 10
14.804413
 20
75.275187
 30
0.0
 10
14.587566
 20
75.275187
 30
0.0
 10
14.479142
 20
75.325938
 30
0.0
 10
14.479142
 20
75.427442
 30
0.0
  0
LWPOLYLINE
  5
137
100
AcDbEntity
  8
Layer_1
 62
7
100
AcDbPolyline
 90
2
 70
0
 10
19.846114
 20
55.969230
 30
0.0
 10
16.715380
 20
74.331204
 30
0.0
  0
SPLINE
  5
138
100
AcDbEntity
  8
Layer_1
 62
7
100
AcDbSpline
 70
8
 71
3
 72
8
 73
4
 74
0
 40
0
 40
0
 40
0
 40
0
 40
1
 40
1
 40
1
 40
1
 10
14.479142
 20
75.975560
 30
0.0
 10
14.479142
 20
76.117665
 30
0.0
 10
14.546907
 20
76.188718
 30
0.0
 10
14.682436
 20
76.188718
 30
0.0
  0
SPLINE
  5
139
100
AcDbEntity
  8
Layer_1
 62
7
100
AcDbSpline
 70
8
 71
3
 72
8
 73
4
 74
0
 40
0
 40
0
 40
0
 40
0
 40
1
 40
1
 40
1
 40
1
 10
14.682436
 20
76.188718
 30
0.0
 10
15.441402
 20
76.188718
 30
0.0
 10
16.051285
 20
76.168417
 30
0.0
 10
16.512086
 20
76.127816
 30
0.0
  0
SPLINE
  5
13a
100
AcDbEntity
  8
Layer_1
 62
7
100
AcDbSpline
 70
8
 71
3
 72
8
 73
4
 74
0
 40
0
 40
0
 40
0
 40
0
 40
1
 40
1
 40
1
 40
1
 10
16.512086
 20
76.127816
 30
0.0
 10
16.972887
 20
76.087214
 30
0.0
 10
17.528558
 20
76.066914
 30
0.0
 10
18.179100
 20
76.066914
 30
0.0
  0
SPLINE
  5
13b
100
AcDbEntity
  8
Layer_1
 62
7
100
AcDbSpline
 70
8
 71
3
 72
8
 73
4
 74
0
 40
0
 40
0
 40
0
 40
0
 40
1
 40
1
 40
1
 40
1
 10
18.179100
 20
76.066914
 30
0.0
 10
18.585689
 20
76.066914
 30
0.0
 10
18.910960
 20
76.066914
 30
0.0
 10
19.154913
 20
76.066914
 30
0.0
  0
SPLINE
  5
13c
100
AcDbEntity
  8
Layer_1
 62
7
100
AcDbSpline
 70
8
 71
3
 72
8
 73
4
 74
0
 40
0
 40
0
 40
0
 40
0
 40
1
 40
1
 40
1
 40
1
 10
19.154913
 20
76.066914
 30
0.0
 10
19.425972
 20
76.087214
 30
0.0
 10
19.669925
 20
76.107515
 30
0.0
 10
19.886773
 20
76.127816
 30
0.0
  0
SPLINE
  5
13d
100
AcDbEntity
  8
Layer_1
 62
7
100
AcDbSpline
 70
8
 71
3
 72
8
 73
4
 74
0
 40
0
 40
0
 40
0
 40
0
 40
1
 40
1
 40
1
 40
1
 10
19.886773
 20
76.127816
 30
0.0
 10
20.103620
 20
76.148116
 30
0.0
 10
20.306915
 20
76.158267
 30
0.0
 10
20.496656
 20
76.158267
 30
0.0
  0
SPLINE
  5
13e
100
AcDbEntity
  8
Layer_1
 62
7
100
AcDbSpline
 70
8
 71
3
 72
8
 73
4
 74
0
 40
0
 40
0
 40
0
 40
0
 40
1
 40
1
 40
1
 40
1
 10
20.496656
 20
76.158267
 30
0.0
 10
20.686398
 20
76.178567
 30
0.0
 10
20.930351
 20
76.188718
 30
0.0
 10
21.228516
 20
76.188718
 30
0.0
  0
SPLINE
  5
13f
100
AcDbEntity
  8
Layer_1
 62
7
100
AcDbSpline
 70
8
 71
3
 72
8
 73
4
 74
0
 40
0
 40
0
 40
0
 40
0
 40
1
 40
1
 40
1
 40
1
 10
21.228516
 20
76.188718
 30
0.0
 10
21.364046
 20
76.188718
 30
0.0
 10
21.431810
 20
76.117665
 30
0.0
 10
21.431810
 20
75.975560
 30
0.0
  0
LWPOLYLINE
  5
140
100
AcDbEntity
  8
Layer_1
 62
7
100
AcDbPolyline
 90
2
 70
0
 10
14.479142
 20
75.427442
 30
0.0
 10
14.479142
 20
75.975560
 30
0.0
  0
SPLINE
  5
141
100
AcDbEntity
  8
Layer_1
 62
7
100
AcDbSpline
 70
8
 71
3
 72
8
 73
4
 74
0
 40
0
 40
0
 40
0
 40
0
 40
1
 40
1
 40
1
 40
1
 10
21.431810
 20
75.427442
 30
0.0
 10
21.431810
 20
75.366540
 30
0.0
 10
21.391151
 20
75.325938
 30
0.0
 10
21.309834
 20
75.305638
 30
0.0
  0
SPLINE
  5
142
100
AcDbEntity
  8
Layer_1
 62
7
100
AcDbSpline
 70
8
 71
3
 72
8
 73
4
 74
0
 40
0
 40
0
 40
0
 40
0
 40
1
 40
1
 40
1
 40
1
 10
21.309834
 20
75.305638
 30
0.0
 10
21.228516
 20
75.285337
 30
0.0
 10
21.147198
 20
75.275187
 30
0.0
 10
21.065880
 20
75.275187
 30
0.0
  0
SPLINE
  5
143
100
AcDbEntity
  8
Layer_1
 62
7
100
AcDbSpline
 70
8
 71
3
 72
8
 73
4
 74
0
 40
0
 40
0
 40
0
 40
0
 40
1
 40
1
 40
1
 40
1
 10
21.065880
 20
75.275187
 30
0.0
 10
20.849033
 20
75.275187
 30
0.0
 10
20.686398
 20
75.224435
 30
0.0
 10
20.577974
 20
75.122931
 30
0.0
  0
SPLINE
  5
144
100
AcDbEntity
  8
Layer_1
 62
7
100
AcDbSpline
 70
8
 71
3
 72
8
 73
4
 74
0
 40
0
 40
0
 40
0
 40
0
 40
1
 40
1
 40
1
 40
1
 10
20.577974
 20
75.122931
 30
0.0
 10
20.469550
 20
75.021428
 30
0.0
 10
20.388232
 20
74.909774
 30
0.0
 10
20.334021
 20
74.787970
 30
0.0
  0
SPLINE
  5
145
100
AcDbEntity
  8
Layer_1
 62
7
100
AcDbSpline
 70
8
 71
3
 72
8
 73
4
 74
0
 40
0
 40
0
 40
0
 40
0
 40
1
 40
1
 40
1
 40
1
 10
20.334021
 20
74.787970
 30
0.0
 10
20.252703
 20
74.645865
 30
0.0
 10
20.212044
 20
74.493610
 30
0.0
 10
20.212044
 20
74.331204
 30
0.0
  0
LWPOLYLINE
  5
146
100
AcDbEntity
  8
Layer_1
 62
7
100
AcDbPolyline
 90
2
 70
0
 10
21.431810
 20
75.975560
 30
0.0
 10
21.431810
 20
75.427442
 30
0.0
  0
SPLINE
  5
147
100
AcDbEntity
  8
Layer_1
 62
7
100
AcDbSpline
 70
8
 71
3
 72
8
 73
4
 74
0
 40
0
 40
0
 40
0
 40
0
 40
1
 40
1
 40
1
 40
1
 10
25.091110
 20
71.773317
 30
0.0
 10
25.145322
 20
71.915422
 30
0.0
 10
25.158875
 20
72.077828
 30
0.0
 10
25.131769
 20
72.260534
 30
0.0
  0
SPLINE
  5
148
100
AcDbEntity
  8
Layer_1
 62
7
100
AcDbSpline
 70
8
 71
3
 72
8
 73
4
 74
0
 40
0
 40
0
 40
0
 40
0
 40
1
 40
1
 40
1
 40
1
 10
25.131769
 20
72.260534
 30
0.0
 10
25.104663
 20
72.443240
 30
0.0
 10
24.969133
 20
72.585345
 30
0.0
 10
24.725180
 20
72.686849
 30
0.0
  0
SPLINE
  5
149
100
AcDbEntity
  8
Layer_1
 62
7
100
AcDbSpline
 70
8
 71
3
 72
8
 73
4
 74
0
 40
0
 40
0
 40
0
 40
0
 40
1
 40
1
 40
1
 40
1
 10
24.725180
 20
72.686849
 30
0.0
 10
24.670968
 20
72.707149
 30
0.0
 10
24.603203
 20
72.727450
 30
0.0
 10
24.521885
 20
72.747751
 30
0.0
  0
SPLINE
  5
14a
100
AcDbEntity
  8
Layer_1
 62
7
100
AcDbSpline
 70
8
 71
3
 72
8
 73
4
 74
0
 40
0
 40
0
 40
0
 40
0
 40
1
 40
1
 40
1
 40
1
 10
24.521885
 20
72.747751
 30
0.0
 10
24.440568
 20
72.788352
 30
0.0
 10
24.399909
 20
72.839104
 30
0.0
 10
24.399909
 20
72.900006
 30
0.0
  0
LWPOLYLINE
  5
14b
100
AcDbEntity
  8
Layer_1
 62
7
100
AcDbPolyline
 90
3
 70
0
 10
20.212044
 20
74.331204
 30
0.0
 10
22.123011
 20
61.541769
 30
0.0
 10
25.091110
 20
71.773317
 30
0.0
  0
SPLINE
  5
14c
100
AcDbEntity
  8
Layer_1
 62
7
100
AcDbSpline
 70
8
 71
3
 72
8
 73
4
 74
0
 40
0
 40
0
 40
0
 40
0
 40
1
 40
1
 40
1
 40
1
 10
24.399909
 20
73.234967
 30
0.0
 10
24.399909
 20
73.417673
 30
0.0
 10
24.508332
 20
73.509027
 30
0.0
 10
24.725180
 20
73.509027
 30
0.0
  0
SPLINE
  5
14d
100
AcDbEntity
  8
Layer_1
 62
7
100
AcDbSpline
 70
8
 71
3
 72
8
 73
4
 74
0
 40
0
 40
0
 40
0
 40
0
 40
1
 40
1
 40
1
 40
1
 10
24.725180
 20
73.509027
 30
0.0
 10
25.104663
 20
73.509027
 30
0.0
 10
25.348616
 20
73.509027
 30
0.0
 10
25.457040
 20
73.509027
 30
0.0
  0
SPLINE
  5
14e
100
AcDbEntity
  8
Layer_1
 62
7
100
AcDbSpline
 70
8
 71
3
 72
8
 73
4
 74
0
 40
0
 40
0
 40
0
 40
0
 40
1
 40
1
 40
1
 40
1
 10
25.457040
 20
73.509027
 30
0.0
 10
25.592569
 20
73.509027
 30
0.0
 10
25.687440
 20
73.498876
 30
0.0
 10
25.741652
 20
73.478575
 30
0.0
  0
SPLINE
  5
14f
100
AcDbEntity
  8
Layer_1
 62
7
100
AcDbSpline
 70
8
 71
3
 72
8
 73
4
 74
0
 40
0
 40
0
 40
0
 40
0
 40
1
 40
1
 40
1
 40
1
 10
25.741652
 20
73.478575
 30
0.0
 10
25.822970
 20
73.478575
 30
0.0
 10
25.917840
 20
73.478575
 30
0.0
 10
26.026264
 20
73.478575
 30
0.0
  0
SPLINE
  5
150
100
AcDbEntity
  8
Layer_1
 62
7
100
AcDbSpline
 70
8
 71
3
 72
8
 73
4
 74
0
 40
0
 40
0
 40
0
 40
0
 40
1
 40
1
 40
1
 40
1
 10
26.026264
 20
73.478575
 30
0.0
 10
26.134688
 20
73.478575
 30
0.0
 10
26.351535
 20
73.478575
 30
0.0
 10
26.676806
 20
73.478575
 30
0.0
  0
SPLINE
  5
151
100
AcDbEntity
  8
Layer_1
 62
7
100
AcDbSpline
 70
8
 71
3
 72
8
 73
4
 74
0
 40
0
 40
0
 40
0
 40
0
 40
1
 40
1
 40
1
 40
1
 10
26.676806
 20
73.478575
 30
0.0
 10
27.002077
 20
73.478575
 30
0.0
 10
27.205372
 20
73.478575
 30
0.0
 10
27.286689
 20
73.478575
 30
0.0
  0
SPLINE
  5
152
100
AcDbEntity
  8
Layer_1
 62
7
100
AcDbSpline
 70
8
 71
3
 72
8
 73
4
 74
0
 40
0
 40
0
 40
0
 40
0
 40
1
 40
1
 40
1
 40
1
 10
27.286689
 20
73.478575
 30
0.0
 10
27.395113
 20
73.478575
 30
0.0
 10
27.476431
 20
73.478575
 30
0.0
 10
27.530643
 20
73.478575
 30
0.0
  0
SPLINE
  5
153
100
AcDbEntity
  8
Layer_1
 62
7
100
AcDbSpline
 70
8
 71
3
 72
8
 73
4
 74
0
 40
0
 40
0
 40
0
 40
0
 40
1
 40
1
 40
1
 40
1
 10
27.530643
 20
73.478575
 30
0.0
 10
27.611960
 20
73.498876
 30
0.0
 10
27.706831
 20
73.509027
 30
0.0
 10
27.815255
 20
73.509027
 30
0.0
  0
SPLINE
  5
154
100
AcDbEntity
  8
Layer_1
 62
7
100
AcDbSpline
 70
8
 71
3
 72
8
 73
4
 74
0
 40
0
 40
0
 40
0
 40
0
 40
1
 40
1
 40
1
 40
1
 10
27.815255
 20
73.509027
 30
0.0
 10
27.950784
 20
73.509027
 30
0.0
 10
28.208291
 20
73.509027
 30
0.0
 10
28.587774
 20
73.509027
 30
0.0
  0
SPLINE
  5
155
100
AcDbEntity
  8
Layer_1
 62
7
100
AcDbSpline
 70
8
 71
3
 72
8
 73
4
 74
0
 40
0
 40
0
 40
0
 40
0
 40
1
 40
1
 40
1
 40
1
 10
28.587774
 20
73.509027
 30
0.0
 10
28.804621
 20
73.509027
 30
0.0
 10
28.913045
 20
73.417673
 30
0.0
 10
28.913045
 20
73.234967
 30
0.0
  0
LWPOLYLINE
  5
156
100
AcDbEntity
  8
Layer_1
 62
7
100
AcDbPolyline
 90
2
 70
0
 10
24.399909
 20
72.900006
 30
0.0
 10
24.399909
 20
73.234967
 30
0.0
  0
SPLINE
  5
157
100
AcDbEntity
  8
Layer_1
 62
7
100
AcDbSpline
 70
8
 71
3
 72
8
 73
4
 74
0
 40
0
 40
0
 40
0
 40
0
 40
1
 40
1
 40
1
 40
1
 10
28.913045
 20
72.900006
 30
0.0
 10
28.913045
 20
72.839104
 30
0.0
 10
28.872386
 20
72.788352
 30
0.0
 10
28.791068
 20
72.747751
 30
0.0
  0
SPLINE
  5
158
100
AcDbEntity
  8
Layer_1
 62
7
100
AcDbSpline
 70
8
 71
3
 72
8
 73
4
 74
0
 40
0
 40
0
 40
0
 40
0
 40
1
 40
1
 40
1
 40
1
 10
28.791068
 20
72.747751
 30
0.0
 10
28.709750
 20
72.727450
 30
0.0
 10
28.641985
 20
72.707149
 30
0.0
 10
28.587774
 20
72.686849
 30
0.0
  0
SPLINE
  5
159
100
AcDbEntity
  8
Layer_1
 62
7
100
AcDbSpline
 70
8
 71
3
 72
8
 73
4
 74
0
 40
0
 40
0
 40
0
 40
0
 40
1
 40
1
 40
1
 40
1
 10
28.587774
 20
72.686849
 30
0.0
 10
28.343820
 20
72.585345
 30
0.0
 10
28.208291
 20
72.443240
 30
0.0
 10
28.181185
 20
72.260534
 30
0.0
  0
SPLINE
  5
15a
100
AcDbEntity
  8
Layer_1
 62
7
100
AcDbSpline
 70
8
 71
3
 72
8
 73
4
 74
0
 40
0
 40
0
 40
0
 40
0
 40
1
 40
1
 40
1
 40
1
 10
28.181185
 20
72.260534
 30
0.0
 10
28.154079
 20
72.077828
 30
0.0
 10
28.167632
 20
71.915422
 30
0.0
 10
28.221844
 20
71.773317
 30
0.0
  0
LWPOLYLINE
  5
15b
100
AcDbEntity
  8
Layer_1
 62
7
100
AcDbPolyline
 90
2
 70
0
 10
28.913045
 20
73.234967
 30
0.0
 10
28.913045
 20
72.900006
 30
0.0
  0
SPLINE
  5
15c
100
AcDbEntity
  8
Layer_1
 62
7
100
AcDbSpline
 70
8
 71
3
 72
8
 73
4
 74
0
 40
0
 40
0
 40
0
 40
0
 40
1
 40
1
 40
1
 40
1
 10
33.100909
 20
74.331204
 30
0.0
 10
33.100909
 20
74.493610
 30
0.0
 10
33.060251
 20
74.645865
 30
0.0
 10
32.978933
 20
74.787970
 30
0.0
  0
SPLINE
  5
15d
100
AcDbEntity
  8
Layer_1
 62
7
100
AcDbSpline
 70
8
 71
3
 72
8
 73
4
 74
0
 40
0
 40
0
 40
0
 40
0
 40
1
 40
1
 40
1
 40
1
 10
32.978933
 20
74.787970
 30
0.0
 10
32.924721
 20
74.909774
 30
0.0
 10
32.843403
 20
75.021428
 30
0.0
 10
32.734980
 20
75.122931
 30
0.0
  0
SPLINE
  5
15e
100
AcDbEntity
  8
Layer_1
 62
7
100
AcDbSpline
 70
8
 71
3
 72
8
 73
4
 74
0
 40
0
 40
0
 40
0
 40
0
 40
1
 40
1
 40
1
 40
1
 10
32.734980
 20
75.122931
 30
0.0
 10
32.626556
 20
75.224435
 30
0.0
 10
32.463920
 20
75.275187
 30
0.0
 10
32.247073
 20
75.275187
 30
0.0
  0
SPLINE
  5
15f
100
AcDbEntity
  8
Layer_1
 62
7
100
AcDbSpline
 70
8
 71
3
 72
8
 73
4
 74
0
 40
0
 40
0
 40
0
 40
0
 40
1
 40
1
 40
1
 40
1
 10
32.247073
 20
75.275187
 30
0.0
 10
32.165755
 20
75.275187
 30
0.0
 10
32.084437
 20
75.285337
 30
0.0
 10
32.003120
 20
75.305638
 30
0.0
  0
SPLINE
  5
160
100
AcDbEntity
  8
Layer_1
 62
7
100
AcDbSpline
 70
8
 71
3
 72
8
 73
4
 74
0
 40
0
 40
0
 40
0
 40
0
 40
1
 40
1
 40
1
 40
1
 10
32.003120
 20
75.305638
 30
0.0
 10
31.921802
 20
75.325938
 30
0.0
 10
31.881143
 20
75.366540
 30
0.0
 10
31.881143
 20
75.427442
 30
0.0
  0
LWPOLYLINE
  5
161
100
AcDbEntity
  8
Layer_1
 62
7
100
AcDbPolyline
 90
3
 70
0
 10
28.221844
 20
71.773317
 30
0.0
 10
31.189942
 20
61.541769
 30
0.0
 10
33.100909
 20
74.331204
 30
0.0
  0
SPLINE
  5
162
100
AcDbEntity
  8
Layer_1
 62
7
100
AcDbSpline
 70
8
 71
3
 72
8
 73
4
 74
0
 40
0
 40
0
 40
0
 40
0
 40
1
 40
1
 40
1
 40
1
 10
31.881143
 20
75.975560
 30
0.0
 10
31.881143
 20
76.117665
 30
0.0
 10
31.962461
 20
76.188718
 30
0.0
 10
32.125096
 20
76.188718
 30
0.0
  0
SPLINE
  5
163
100
AcDbEntity
  8
Layer_1
 62
7
100
AcDbSpline
 70
8
 71
3
 72
8
 73
4
 74
0
 40
0
 40
0
 40
0
 40
0
 40
1
 40
1
 40
1
 40
1
 10
32.125096
 20
76.188718
 30
0.0
 10
32.396155
 20
76.188718
 30
0.0
 10
32.626556
 20
76.178567
 30
0.0
 10
32.816297
 20
76.158267
 30
0.0
  0
SPLINE
  5
164
100
AcDbEntity
  8
Layer_1
 62
7
100
AcDbSpline
 70
8
 71
3
 72
8
 73
4
 74
0
 40
0
 40
0
 40
0
 40
0
 40
1
 40
1
 40
1
 40
1
 10
32.816297
 20
76.158267
 30
0.0
 10
33.033145
 20
76.158267
 30
0.0
 10
33.236439
 20
76.148116
 30
0.0
 10
33.426181
 20
76.127816
 30
0.0
  0
SPLINE
  5
165
100
AcDbEntity
  8
Layer_1
 62
7
100
AcDbSpline
 70
8
 71
3
 72
8
 73
4
 74
0
 40
0
 40
0
 40
0
 40
0
 40
1
 40
1
 40
1
 40
1
 10
33.426181
 20
76.127816
 30
0.0
 10
33.643028
 20
76.107515
 30
0.0
 10
33.873428
 20
76.087214
 30
0.0
 10
34.117381
 20
76.066914
 30
0.0
  0
SPLINE
  5
166
100
AcDbEntity
  8
Layer_1
 62
7
100
AcDbSpline
 70
8
 71
3
 72
8
 73
4
 74
0
 40
0
 40
0
 40
0
 40
0
 40
1
 40
1
 40
1
 40
1
 10
34.117381
 20
76.066914
 30
0.0
 10
34.388441
 20
76.066914
 30
0.0
 10
34.727265
 20
76.066914
 30
0.0
 10
35.133854
 20
76.066914
 30
0.0
  0
SPLINE
  5
167
100
AcDbEntity
  8
Layer_1
 62
7
100
AcDbSpline
 70
8
 71
3
 72
8
 73
4
 74
0
 40
0
 40
0
 40
0
 40
0
 40
1
 40
1
 40
1
 40
1
 10
35.133854
 20
76.066914
 30
0.0
 10
35.784396
 20
76.066914
 30
0.0
 10
36.340067
 20
76.087214
 30
0.0
 10
36.800868
 20
76.127816
 30
0.0
  0
SPLINE
  5
168
100
AcDbEntity
  8
Layer_1
 62
7
100
AcDbSpline
 70
8
 71
3
 72
8
 73
4
 74
0
 40
0
 40
0
 40
0
 40
0
 40
1
 40
1
 40
1
 40
1
 10
36.800868
 20
76.127816
 30
0.0
 10
37.261668
 20
76.168417
 30
0.0
 10
37.871552
 20
76.188718
 30
0.0
 10
38.630517
 20
76.188718
 30
0.0
  0
LWPOLYLINE
  5
169
100
AcDbEntity
  8
Layer_1
 62
7
100
AcDbPolyline
 90
2
 70
0
 10
31.881143
 20
75.427442
 30
0.0
 10
31.881143
 20
75.975560
 30
0.0
  0
SPLINE
  5
16a
100
AcDbEntity
  8
Layer_1
 62
7
100
AcDbSpline
 70
8
 71
3
 72
8
 73
4
 74
0
 40
0
 40
0
 40
0
 40
0
 40
1
 40
1
 40
1
 40
1
 10
48.429306
 20
54.324874
 30
0.0
 10
48.429306
 20
54.203070
 30
0.0
 10
48.361542
 20
54.142168
 30
0.0
 10
48.226012
 20
54.142168
 30
0.0
  0
SPLINE
  5
16b
100
AcDbEntity
  8
Layer_1
 62
7
100
AcDbSpline
 70
8
 71
3
 72
8
 73
4
 74
0
 40
0
 40
0
 40
0
 40
0
 40
1
 40
1
 40
1
 40
1
 10
48.226012
 20
54.142168
 30
0.0
 10
47.846529
 20
54.142168
 30
0.0
 10
47.507705
 20
54.152318
 30
0.0
 10
47.209540
 20
54.172619
 30
0.0
  0
SPLINE
  5
16c
100
AcDbEntity
  8
Layer_1
 62
7
100
AcDbSpline
 70
8
 71
3
 72
8
 73
4
 74
0
 40
0
 40
0
 40
0
 40
0
 40
1
 40
1
 40
1
 40
1
 10
47.209540
 20
54.172619
 30
0.0
 10
46.911375
 20
54.172619
 30
0.0
 10
46.626763
 20
54.172619
 30
0.0
 10
46.355703
 20
54.172619
 30
0.0
  0
SPLINE
  5
16d
100
AcDbEntity
  8
Layer_1
 62
7
100
AcDbSpline
 70
8
 71
3
 72
8
 73
4
 74
0
 40
0
 40
0
 40
0
 40
0
 40
1
 40
1
 40
1
 40
1
 10
46.355703
 20
54.172619
 30
0.0
 10
46.111750
 20
54.192919
 30
0.0
 10
45.854244
 20
54.203070
 30
0.0
 10
45.583185
 20
54.203070
 30
0.0
  0
SPLINE
  5
16e
100
AcDbEntity
  8
Layer_1
 62
7
100
AcDbSpline
 70
8
 71
3
 72
8
 73
4
 74
0
 40
0
 40
0
 40
0
 40
0
 40
1
 40
1
 40
1
 40
1
 10
45.583185
 20
54.203070
 30
0.0
 10
45.339231
 20
54.203070
 30
0.0
 10
45.054619
 20
54.203070
 30
0.0
 10
44.729348
 20
54.203070
 30
0.0
  0
LWPOLYLINE
  5
16f
100
AcDbEntity
  8
Layer_1
 62
7
100
AcDbPolyline
 90
1
 70
1
 10
38.630517
 20
76.188718
 30
0.0
  0
SPLINE
  5
170
100
AcDbEntity
  8
Layer_1
 62
7
100
AcDbSpline
 70
8
 71
3
 72
8
 73
4
 74
0
 40
0
 40
0
 40
0
 40
0
 40
1
 40
1
 40
1
 40
1
 10
44.404077
 20
54.203070
 30
0.0
 10
43.753535
 20
54.203070
 30
0.0
 10
43.197864
 20
54.192919
 30
0.0
 10
42.737063
 20
54.172619
 30
0.0
  0
SPLINE
  5
171
100
AcDbEntity
  8
Layer_1
 62
7
100
AcDbSpline
 70
8
 71
3
 72
8
 73
4
 74
0
 40
0
 40
0
 40
0
 40
0
 40
1
 40
1
 40
1
 40
1
 10
42.737063
 20
54.172619
 30
0.0
 10
42.276262
 20
54.132017
 30
0.0
 10
41.666379
 20
54.101566
 30
0.0
 10
40.907413
 20
54.081266
 30
0.0
  0
SPLINE
  5
172
100
AcDbEntity
  8
Layer_1
 62
7
100
AcDbSpline
 70
8
 71
3
 72
8
 73
4
 74
0
 40
0
 40
0
 40
0
 40
0
 40
1
 40
1
 40
1
 40
1
 10
40.907413
 20
54.081266
 30
0.0
 10
40.771884
 20
54.081266
 30
0.0
 10
40.704119
 20
54.152318
 30
0.0
 10
40.704119
 20
54.294423
 30
0.0
  0
LWPOLYLINE
  5
173
100
AcDbEntity
  8
Layer_1
 62
7
100
AcDbPolyline
 90
2
 70
0
 10
44.729348
 20
54.203070
 30
0.0
 10
44.404077
 20
54.203070
 30
0.0
  0
SPLINE
  5
174
100
AcDbEntity
  8
Layer_1
 62
7
100
AcDbSpline
 70
8
 71
3
 72
8
 73
4
 74
0
 40
0
 40
0
 40
0
 40
0
 40
1
 40
1
 40
1
 40
1
 10
40.704119
 20
54.842541
 30
0.0
 10
40.704119
 20
54.964346
 30
0.0
 10
40.812542
 20
55.025248
 30
0.0
 10
41.029390
 20
55.025248
 30
0.0
  0
SPLINE
  5
175
100
AcDbEntity
  8
Layer_1
 62
7
100
AcDbSpline
 70
8
 71
3
 72
8
 73
4
 74
0
 40
0
 40
0
 40
0
 40
0
 40
1
 40
1
 40
1
 40
1
 10
41.029390
 20
55.025248
 30
0.0
 10
41.490190
 20
55.025248
 30
0.0
 10
41.842567
 20
55.065849
 30
0.0
 10
42.086521
 20
55.147052
 30
0.0
  0
SPLINE
  5
176
100
AcDbEntity
  8
Layer_1
 62
7
100
AcDbSpline
 70
8
 71
3
 72
8
 73
4
 74
0
 40
0
 40
0
 40
0
 40
0
 40
1
 40
1
 40
1
 40
1
 10
42.086521
 20
55.147052
 30
0.0
 10
42.330474
 20
55.248555
 30
0.0
 10
42.520215
 20
55.360209
 30
0.0
 10
42.655745
 20
55.482013
 30
0.0
  0
SPLINE
  5
177
100
AcDbEntity
  8
Layer_1
 62
7
100
AcDbSpline
 70
8
 71
3
 72
8
 73
4
 74
0
 40
0
 40
0
 40
0
 40
0
 40
1
 40
1
 40
1
 40
1
 10
42.655745
 20
55.482013
 30
0.0
 10
42.791275
 20
55.624118
 30
0.0
 10
42.886145
 20
55.786524
 30
0.0
 10
42.940357
 20
55.969230
 30
0.0
  0
LWPOLYLINE
  5
178
100
AcDbEntity
  8
Layer_1
 62
7
100
AcDbPolyline
 90
2
 70
0
 10
40.704119
 20
54.294423
 30
0.0
 10
40.704119
 20
54.842541
 30
0.0
  0
SPLINE
  5
179
100
AcDbEntity
  8
Layer_1
 62
7
100
AcDbSpline
 70
8
 71
3
 72
8
 73
4
 74
0
 40
0
 40
0
 40
0
 40
0
 40
1
 40
1
 40
1
 40
1
 10
42.737063
 20
74.300753
 30
0.0
 10
42.655745
 20
74.463159
 30
0.0
 10
42.547321
 20
74.615414
 30
0.0
 10
42.411792
 20
74.757519
 30
0.0
  0
SPLINE
  5
17a
100
AcDbEntity
  8
Layer_1
 62
7
100
AcDbSpline
 70
8
 71
3
 72
8
 73
4
 74
0
 40
0
 40
0
 40
0
 40
0
 40
1
 40
1
 40
1
 40
1
 10
42.411792
 20
74.757519
 30
0.0
 10
42.276262
 20
74.879323
 30
0.0
 10
42.086521
 20
74.990977
 30
0.0
 10
41.842567
 20
75.092480
 30
0.0
  0
SPLINE
  5
17b
100
AcDbEntity
  8
Layer_1
 62
7
100
AcDbSpline
 70
8
 71
3
 72
8
 73
4
 74
0
 40
0
 40
0
 40
0
 40
0
 40
1
 40
1
 40
1
 40
1
 10
41.842567
 20
75.092480
 30
0.0
 10
41.598614
 20
75.193984
 30
0.0
 10
41.246237
 20
75.244736
 30
0.0
 10
40.785437
 20
75.244736
 30
0.0
  0
SPLINE
  5
17c
100
AcDbEntity
  8
Layer_1
 62
7
100
AcDbSpline
 70
8
 71
3
 72
8
 73
4
 74
0
 40
0
 40
0
 40
0
 40
0
 40
1
 40
1
 40
1
 40
1
 10
40.785437
 20
75.244736
 30
0.0
 10
40.731225
 20
75.244736
 30
0.0
 10
40.663460
 20
75.254886
 30
0.0
 10
40.582142
 20
75.275187
 30
0.0
  0
SPLINE
  5
17d
100
AcDbEntity
  8
Layer_1
 62
7
100
AcDbSpline
 70
8
 71
3
 72
8
 73
4
 74
0
 40
0
 40
0
 40
0
 40
0
 40
1
 40
1
 40
1
 40
1
 10
40.582142
 20
75.275187
 30
0.0
 10
40.500824
 20
75.295487
 30
0.0
 10
40.460165
 20
75.336089
 30
0.0
 10
40.460165
 20
75.396991
 30
0.0
  0
LWPOLYLINE
  5
17e
100
AcDbEntity
  8
Layer_1
 62
7
100
AcDbPolyline
 90
2
 70
0
 10
42.940357
 20
55.969230
 30
0.0
 10
42.737063
 20
74.300753
 30
0.0
  0
SPLINE
  5
17f
100
AcDbEntity
  8
Layer_1
 62
7
100
AcDbSpline
 70
8
 71
3
 72
8
 73
4
 74
0
 40
0
 40
0
 40
0
 40
0
 40
1
 40
1
 40
1
 40
1
 10
40.460165
 20
75.945109
 30
0.0
 10
40.460165
 20
76.087214
 30
0.0
 10
40.527930
 20
76.158267
 30
0.0
 10
40.663460
 20
76.158267
 30
0.0
  0
SPLINE
  5
180
100
AcDbEntity
  8
Layer_1
 62
7
100
AcDbSpline
 70
8
 71
3
 72
8
 73
4
 74
0
 40
0
 40
0
 40
0
 40
0
 40
1
 40
1
 40
1
 40
1
 10
40.663460
 20
76.158267
 30
0.0
 10
41.422426
 20
76.158267
 30
0.0
 10
42.032309
 20
76.137966
 30
0.0
 10
42.493110
 20
76.097365
 30
0.0
  0
SPLINE
  5
181
100
AcDbEntity
  8
Layer_1
 62
7
100
AcDbSpline
 70
8
 71
3
 72
8
 73
4
 74
0
 40
0
 40
0
 40
0
 40
0
 40
1
 40
1
 40
1
 40
1
 10
42.493110
 20
76.097365
 30
0.0
 10
42.953910
 20
76.077064
 30
0.0
 10
43.509582
 20
76.066914
 30
0.0
 10
44.160124
 20
76.066914
 30
0.0
  0
LWPOLYLINE
  5
182
100
AcDbEntity
  8
Layer_1
 62
7
100
AcDbPolyline
 90
2
 70
0
 10
40.460165
 20
75.396991
 30
0.0
 10
40.460165
 20
75.945109
 30
0.0
  0
SPLINE
  5
183
100
AcDbEntity
  8
Layer_1
 62
7
100
AcDbSpline
 70
8
 71
3
 72
8
 73
4
 74
0
 40
0
 40
0
 40
0
 40
0
 40
1
 40
1
 40
1
 40
1
 10
44.485395
 20
76.066914
 30
0.0
 10
45.135937
 20
76.087214
 30
0.0
 10
45.691608
 20
76.107515
 30
0.0
 10
46.152409
 20
76.127816
 30
0.0
  0
SPLINE
  5
184
100
AcDbEntity
  8
Layer_1
 62
7
100
AcDbSpline
 70
8
 71
3
 72
8
 73
4
 74
0
 40
0
 40
0
 40
0
 40
0
 40
1
 40
1
 40
1
 40
1
 10
46.152409
 20
76.127816
 30
0.0
 10
46.613210
 20
76.168417
 30
0.0
 10
47.223093
 20
76.188718
 30
0.0
 10
47.982059
 20
76.188718
 30
0.0
  0
SPLINE
  5
185
100
AcDbEntity
  8
Layer_1
 62
7
100
AcDbSpline
 70
8
 71
3
 72
8
 73
4
 74
0
 40
0
 40
0
 40
0
 40
0
 40
1
 40
1
 40
1
 40
1
 10
47.982059
 20
76.188718
 30
0.0
 10
48.117588
 20
76.188718
 30
0.0
 10
48.185353
 20
76.127816
 30
0.0
 10
48.185353
 20
76.006011
 30
0.0
  0
LWPOLYLINE
  5
186
100
AcDbEntity
  8
Layer_1
 62
7
100
AcDbPolyline
 90
2
 70
0
 10
44.160124
 20
76.066914
 30
0.0
 10
44.485395
 20
76.066914
 30
0.0
  0
SPLINE
  5
187
100
AcDbEntity
  8
Layer_1
 62
7
100
AcDbSpline
 70
8
 71
3
 72
8
 73
4
 74
0
 40
0
 40
0
 40
0
 40
0
 40
1
 40
1
 40
1
 40
1
 10
48.185353
 20
75.457893
 30
0.0
 10
48.185353
 20
75.336089
 30
0.0
 10
48.076929
 20
75.275187
 30
0.0
 10
47.860082
 20
75.275187
 30
0.0
  0
SPLINE
  5
188
100
AcDbEntity
  8
Layer_1
 62
7
100
AcDbSpline
 70
8
 71
3
 72
8
 73
4
 74
0
 40
0
 40
0
 40
0
 40
0
 40
1
 40
1
 40
1
 40
1
 10
47.860082
 20
75.275187
 30
0.0
 10
47.399281
 20
75.275187
 30
0.0
 10
47.046904
 20
75.224435
 30
0.0
 10
46.802951
 20
75.122931
 30
0.0
  0
SPLINE
  5
189
100
AcDbEntity
  8
Layer_1
 62
7
100
AcDbSpline
 70
8
 71
3
 72
8
 73
4
 74
0
 40
0
 40
0
 40
0
 40
0
 40
1
 40
1
 40
1
 40
1
 10
46.802951
 20
75.122931
 30
0.0
 10
46.558998
 20
75.021428
 30
0.0
 10
46.369256
 20
74.909774
 30
0.0
 10
46.233727
 20
74.787970
 30
0.0
  0
SPLINE
  5
18a
100
AcDbEntity
  8
Layer_1
 62
7
100
AcDbSpline
 70
8
 71
3
 72
8
 73
4
 74
0
 40
0
 40
0
 40
0
 40
0
 40
1
 40
1
 40
1
 40
1
 10
46.233727
 20
74.787970
 30
0.0
 10
46.098197
 20
74.645865
 30
0.0
 10
46.003326
 20
74.493610
 30
0.0
 10
45.949115
 20
74.331204
 30
0.0
  0
LWPOLYLINE
  5
18b
100
AcDbEntity
  8
Layer_1
 62
7
100
AcDbPolyline
 90
2
 70
0
 10
48.185353
 20
76.006011
 30
0.0
 10
48.185353
 20
75.457893
 30
0.0
  0
SPLINE
  5
18c
100
AcDbEntity
  8
Layer_1
 62
7
100
AcDbSpline
 70
8
 71
3
 72
8
 73
4
 74
0
 40
0
 40
0
 40
0
 40
0
 40
1
 40
1
 40
1
 40
1
 10
46.152409
 20
55.969230
 30
0.0
 10
46.206621
 20
55.786524
 30
0.0
 10
46.301491
 20
55.634268
 30
0.0
 10
46.437021
 20
55.512464
 30
0.0
  0
SPLINE
  5
18d
100
AcDbEntity
  8
Layer_1
 62
7
100
AcDbSpline
 70
8
 71
3
 72
8
 73
4
 74
0
 40
0
 40
0
 40
0
 40
0
 40
1
 40
1
 40
1
 40
1
 10
46.437021
 20
55.512464
 30
0.0
 10
46.572551
 20
55.390660
 30
0.0
 10
46.762292
 20
55.279006
 30
0.0
 10
47.006245
 20
55.177503
 30
0.0
  0
SPLINE
  5
18e
100
AcDbEntity
  8
Layer_1
 62
7
100
AcDbSpline
 70
8
 71
3
 72
8
 73
4
 74
0
 40
0
 40
0
 40
0
 40
0
 40
1
 40
1
 40
1
 40
1
 10
47.006245
 20
55.177503
 30
0.0
 10
47.277305
 20
55.096300
 30
0.0
 10
47.643235
 20
55.055699
 30
0.0
 10
48.104035
 20
55.055699
 30
0.0
  0
SPLINE
  5
18f
100
AcDbEntity
  8
Layer_1
 62
7
100
AcDbSpline
 70
8
 71
3
 72
8
 73
4
 74
0
 40
0
 40
0
 40
0
 40
0
 40
1
 40
1
 40
1
 40
1
 10
48.104035
 20
55.055699
 30
0.0
 10
48.158247
 20
55.055699
 30
0.0
 10
48.226012
 20
55.035398
 30
0.0
 10
48.307330
 20
54.994797
 30
0.0
  0
SPLINE
  5
190
100
AcDbEntity
  8
Layer_1
 62
7
100
AcDbSpline
 70
8
 71
3
 72
8
 73
4
 74
0
 40
0
 40
0
 40
0
 40
0
 40
1
 40
1
 40
1
 40
1
 10
48.307330
 20
54.994797
 30
0.0
 10
48.388647
 20
54.974496
 30
0.0
 10
48.429306
 20
54.933895
 30
0.0
 10
48.429306
 20
54.872992
 30
0.0
  0
LWPOLYLINE
  5
191
100
AcDbEntity
  8
Layer_1
 62
7
100
AcDbPolyline
 90
2
 70
0
 10
45.949115
 20
74.331204
 30
0.0
 10
46.152409
 20
55.969230
 30
0.0
  0
SPLINE
  5
192
100
AcDbEntity
  8
Layer_1
 62
7
100
AcDbSpline
 70
8
 71
3
 72
8
 73
4
 74
0
 40
0
 40
0
 40
0
 40
0
 40
1
 40
1
 40
1
 40
1
 10
62.619179
 20
58.039900
 30
0.0
 10
62.754709
 20
58.039900
 30
0.0
 10
62.836027
 20
58.009449
 30
0.0
 10
62.863133
 20
57.948547
 30
0.0
  0
SPLINE
  5
193
100
AcDbEntity
  8
Layer_1
 62
7
100
AcDbSpline
 70
8
 71
3
 72
8
 73
4
 74
0
 40
0
 40
0
 40
0
 40
0
 40
1
 40
1
 40
1
 40
1
 10
62.863133
 20
57.948547
 30
0.0
 10
62.890238
 20
57.887645
 30
0.0
 10
62.903791
 20
57.826743
 30
0.0
 10
62.903791
 20
57.765841
 30
0.0
  0
SPLINE
  5
194
100
AcDbEntity
  8
Layer_1
 62
7
100
AcDbSpline
 70
8
 71
3
 72
8
 73
4
 74
0
 40
0
 40
0
 40
0
 40
0
 40
1
 40
1
 40
1
 40
1
 10
62.903791
 20
57.765841
 30
0.0
 10
62.768262
 20
57.177121
 30
0.0
 10
62.605626
 20
56.527499
 30
0.0
 10
62.415885
 20
55.816975
 30
0.0
  0
SPLINE
  5
195
100
AcDbEntity
  8
Layer_1
 62
7
100
AcDbSpline
 70
8
 71
3
 72
8
 73
4
 74
0
 40
0
 40
0
 40
0
 40
0
 40
1
 40
1
 40
1
 40
1
 10
62.415885
 20
55.816975
 30
0.0
 10
62.253249
 20
55.106450
 30
0.0
 10
62.104167
 20
54.446678
 30
0.0
 10
61.968637
 20
53.837657
 30
0.0
  0
SPLINE
  5
196
100
AcDbEntity
  8
Layer_1
 62
7
100
AcDbSpline
 70
8
 71
3
 72
8
 73
4
 74
0
 40
0
 40
0
 40
0
 40
0
 40
1
 40
1
 40
1
 40
1
 10
61.968637
 20
53.837657
 30
0.0
 10
61.968637
 20
53.736154
 30
0.0
 10
61.887319
 20
53.685402
 30
0.0
 10
61.724684
 20
53.685402
 30
0.0
  0
LWPOLYLINE
  5
197
100
AcDbEntity
  8
Layer_1
 62
7
100
AcDbPolyline
 90
2
 70
0
 10
48.429306
 20
54.872992
 30
0.0
 10
48.429306
 20
54.324874
 30
0.0
  0
SPLINE
  5
198
100
AcDbEntity
  8
Layer_1
 62
7
100
AcDbSpline
 70
8
 71
3
 72
8
 73
4
 74
0
 40
0
 40
0
 40
0
 40
0
 40
1
 40
1
 40
1
 40
1
 10
61.196118
 20
53.685402
 30
0.0
 10
61.006377
 20
53.685402
 30
0.0
 10
60.884400
 20
53.766605
 30
0.0
 10
60.830188
 20
53.929010
 30
0.0
  0
SPLINE
  5
199
100
AcDbEntity
  8
Layer_1
 62
7
100
AcDbSpline
 70
8
 71
3
 72
8
 73
4
 74
0
 40
0
 40
0
 40
0
 40
0
 40
1
 40
1
 40
1
 40
1
 10
60.830188
 20
53.929010
 30
0.0
 10
60.775977
 20
54.050815
 30
0.0
 10
60.654000
 20
54.132017
 30
0.0
 10
60.464259
 20
54.172619
 30
0.0
  0
SPLINE
  5
19a
100
AcDbEntity
  8
Layer_1
 62
7
100
AcDbSpline
 70
8
 71
3
 72
8
 73
4
 74
0
 40
0
 40
0
 40
0
 40
0
 40
1
 40
1
 40
1
 40
1
 10
60.464259
 20
54.172619
 30
0.0
 10
60.274517
 20
54.192919
 30
0.0
 10
60.098329
 20
54.203070
 30
0.0
 10
59.935693
 20
54.203070
 30
0.0
  0
LWPOLYLINE
  5
19b
100
AcDbEntity
  8
Layer_1
 62
7
100
AcDbPolyline
 90
2
 70
0
 10
61.724684
 20
53.685402
 30
0.0
 10
61.196118
 20
53.685402
 30
0.0
  0
SPLINE
  5
19c
100
AcDbEntity
  8
Layer_1
 62
7
100
AcDbSpline
 70
8
 71
3
 72
8
 73
4
 74
0
 40
0
 40
0
 40
0
 40
0
 40
1
 40
1
 40
1
 40
1
 10
53.755543
 20
54.203070
 30
0.0
 10
53.105001
 20
54.203070
 30
0.0
 10
52.549330
 20
54.192919
 30
0.0
 10
52.088529
 20
54.172619
 30
0.0
  0
SPLINE
  5
19d
100
AcDbEntity
  8
Layer_1
 62
7
100
AcDbSpline
 70
8
 71
3
 72
8
 73
4
 74
0
 40
0
 40
0
 40
0
 40
0
 40
1
 40
1
 40
1
 40
1
 10
52.088529
 20
54.172619
 30
0.0
 10
51.627728
 20
54.132017
 30
0.0
 10
51.017845
 20
54.111717
 30
0.0
 10
50.258879
 20
54.111717
 30
0.0
  0
SPLINE
  5
19e
100
AcDbEntity
  8
Layer_1
 62
7
100
AcDbSpline
 70
8
 71
3
 72
8
 73
4
 74
0
 40
0
 40
0
 40
0
 40
0
 40
1
 40
1
 40
1
 40
1
 10
50.258879
 20
54.111717
 30
0.0
 10
50.123350
 20
54.111717
 30
0.0
 10
50.055585
 20
54.182769
 30
0.0
 10
50.055585
 20
54.324874
 30
0.0
  0
LWPOLYLINE
  5
19f
100
AcDbEntity
  8
Layer_1
 62
7
100
AcDbPolyline
 90
2
 70
0
 10
59.935693
 20
54.203070
 30
0.0
 10
53.755543
 20
54.203070
 30
0.0
  0
SPLINE
  5
1a0
100
AcDbEntity
  8
Layer_1
 62
7
100
AcDbSpline
 70
8
 71
3
 72
8
 73
4
 74
0
 40
0
 40
0
 40
0
 40
0
 40
1
 40
1
 40
1
 40
1
 10
50.055585
 20
54.872992
 30
0.0
 10
50.055585
 20
54.974496
 30
0.0
 10
50.164008
 20
55.025248
 30
0.0
 10
50.380856
 20
55.025248
 30
0.0
  0
SPLINE
  5
1a1
100
AcDbEntity
  8
Layer_1
 62
7
100
AcDbSpline
 70
8
 71
3
 72
8
 73
4
 74
0
 40
0
 40
0
 40
0
 40
0
 40
1
 40
1
 40
1
 40
1
 10
50.380856
 20
55.025248
 30
0.0
 10
50.841656
 20
55.025248
 30
0.0
 10
51.194033
 20
55.096300
 30
0.0
 10
51.437987
 20
55.238405
 30
0.0
  0
SPLINE
  5
1a2
100
AcDbEntity
  8
Layer_1
 62
7
100
AcDbSpline
 70
8
 71
3
 72
8
 73
4
 74
0
 40
0
 40
0
 40
0
 40
0
 40
1
 40
1
 40
1
 40
1
 10
51.437987
 20
55.238405
 30
0.0
 10
51.681940
 20
55.380510
 30
0.0
 10
51.871681
 20
55.542915
 30
0.0
 10
52.007211
 20
55.725621
 30
0.0
  0
SPLINE
  5
1a3
100
AcDbEntity
  8
Layer_1
 62
7
100
AcDbSpline
 70
8
 71
3
 72
8
 73
4
 74
0
 40
0
 40
0
 40
0
 40
0
 40
1
 40
1
 40
1
 40
1
 10
52.007211
 20
55.725621
 30
0.0
 10
52.142741
 20
55.948929
 30
0.0
 10
52.237611
 20
56.192537
 30
0.0
 10
52.291823
 20
56.456446
 30
0.0
  0
LWPOLYLINE
  5
1a4
100
AcDbEntity
  8
Layer_1
 62
7
100
AcDbPolyline
 90
2
 70
0
 10
50.055585
 20
54.324874
 30
0.0
 10
50.055585
 20
54.872992
 30
0.0
  0
SPLINE
  5
1a5
100
AcDbEntity
  8
Layer_1
 62
7
100
AcDbSpline
 70
8
 71
3
 72
8
 73
4
 74
0
 40
0
 40
0
 40
0
 40
0
 40
1
 40
1
 40
1
 40
1
 10
52.291823
 20
74.331204
 30
0.0
 10
52.237611
 20
74.493610
 30
0.0
 10
52.142741
 20
74.645865
 30
0.0
 10
52.007211
 20
74.787970
 30
0.0
  0
SPLINE
  5
1a6
100
AcDbEntity
  8
Layer_1
 62
7
100
AcDbSpline
 70
8
 71
3
 72
8
 73
4
 74
0
 40
0
 40
0
 40
0
 40
0
 40
1
 40
1
 40
1
 40
1
 10
52.007211
 20
74.787970
 30
0.0
 10
51.871681
 20
74.889473
 30
0.0
 10
51.681940
 20
74.990977
 30
0.0
 10
51.437987
 20
75.092480
 30
0.0
  0
SPLINE
  5
1a7
100
AcDbEntity
  8
Layer_1
 62
7
100
AcDbSpline
 70
8
 71
3
 72
8
 73
4
 74
0
 40
0
 40
0
 40
0
 40
0
 40
1
 40
1
 40
1
 40
1
 10
51.437987
 20
75.092480
 30
0.0
 10
51.194033
 20
75.193984
 30
0.0
 10
50.841656
 20
75.244736
 30
0.0
 10
50.380856
 20
75.244736
 30
0.0
  0
SPLINE
  5
1a8
100
AcDbEntity
  8
Layer_1
 62
7
100
AcDbSpline
 70
8
 71
3
 72
8
 73
4
 74
0
 40
0
 40
0
 40
0
 40
0
 40
1
 40
1
 40
1
 40
1
 10
50.380856
 20
75.244736
 30
0.0
 10
50.164008
 20
75.244736
 30
0.0
 10
50.055585
 20
75.305638
 30
0.0
 10
50.055585
 20
75.427442
 30
0.0
  0
LWPOLYLINE
  5
1a9
100
AcDbEntity
  8
Layer_1
 62
7
100
AcDbPolyline
 90
2
 70
0
 10
52.291823
 20
56.456446
 30
0.0
 10
52.291823
 20
74.331204
 30
0.0
  0
SPLINE
  5
1aa
100
AcDbEntity
  8
Layer_1
 62
7
100
AcDbSpline
 70
8
 71
3
 72
8
 73
4
 74
0
 40
0
 40
0
 40
0
 40
0
 40
1
 40
1
 40
1
 40
1
 10
50.055585
 20
75.975560
 30
0.0
 10
50.055585
 20
76.117665
 30
0.0
 10
50.123350
 20
76.188718
 30
0.0
 10
50.258879
 20
76.188718
 30
0.0
  0
SPLINE
  5
1ab
100
AcDbEntity
  8
Layer_1
 62
7
100
AcDbSpline
 70
8
 71
3
 72
8
 73
4
 74
0
 40
0
 40
0
 40
0
 40
0
 40
1
 40
1
 40
1
 40
1
 10
50.258879
 20
76.188718
 30
0.0
 10
51.017845
 20
76.188718
 30
0.0
 10
51.627728
 20
76.168417
 30
0.0
 10
52.088529
 20
76.127816
 30
0.0
  0
SPLINE
  5
1ac
100
AcDbEntity
  8
Layer_1
 62
7
100
AcDbSpline
 70
8
 71
3
 72
8
 73
4
 74
0
 40
0
 40
0
 40
0
 40
0
 40
1
 40
1
 40
1
 40
1
 10
52.088529
 20
76.127816
 30
0.0
 10
52.549330
 20
76.087214
 30
0.0
 10
53.105001
 20
76.066914
 30
0.0
 10
53.755543
 20
76.066914
 30
0.0
  0
LWPOLYLINE
  5
1ad
100
AcDbEntity
  8
Layer_1
 62
7
100
AcDbPolyline
 90
2
 70
0
 10
50.055585
 20
75.427442
 30
0.0
 10
50.055585
 20
75.975560
 30
0.0
  0
SPLINE
  5
1ae
100
AcDbEntity
  8
Layer_1
 62
7
100
AcDbSpline
 70
8
 71
3
 72
8
 73
4
 74
0
 40
0
 40
0
 40
0
 40
0
 40
1
 40
1
 40
1
 40
1
 10
54.080814
 20
76.066914
 30
0.0
 10
54.731356
 20
76.066914
 30
0.0
 10
55.287028
 20
76.087214
 30
0.0
 10
55.747828
 20
76.127816
 30
0.0
  0
SPLINE
  5
1af
100
AcDbEntity
  8
Layer_1
 62
7
100
AcDbSpline
 70
8
 71
3
 72
8
 73
4
 74
0
 40
0
 40
0
 40
0
 40
0
 40
1
 40
1
 40
1
 40
1
 10
55.747828
 20
76.127816
 30
0.0
 10
56.208629
 20
76.168417
 30
0.0
 10
56.818512
 20
76.188718
 30
0.0
 10
57.577478
 20
76.188718
 30
0.0
  0
SPLINE
  5
1b0
100
AcDbEntity
  8
Layer_1
 62
7
100
AcDbSpline
 70
8
 71
3
 72
8
 73
4
 74
0
 40
0
 40
0
 40
0
 40
0
 40
1
 40
1
 40
1
 40
1
 10
57.577478
 20
76.188718
 30
0.0
 10
57.713008
 20
76.188718
 30
0.0
 10
57.780772
 20
76.117665
 30
0.0
 10
57.780772
 20
75.975560
 30
0.0
  0
LWPOLYLINE
  5
1b1
100
AcDbEntity
  8
Layer_1
 62
7
100
AcDbPolyline
 90
2
 70
0
 10
53.755543
 20
76.066914
 30
0.0
 10
54.080814
 20
76.066914
 30
0.0
  0
SPLINE
  5
1b2
100
AcDbEntity
  8
Layer_1
 62
7
100
AcDbSpline
 70
8
 71
3
 72
8
 73
4
 74
0
 40
0
 40
0
 40
0
 40
0
 40
1
 40
1
 40
1
 40
1
 10
57.780772
 20
75.427442
 30
0.0
 10
57.780772
 20
75.305638
 30
0.0
 10
57.672349
 20
75.244736
 30
0.0
 10
57.455501
 20
75.244736
 30
0.0
  0
SPLINE
  5
1b3
100
AcDbEntity
  8
Layer_1
 62
7
100
AcDbSpline
 70
8
 71
3
 72
8
 73
4
 74
0
 40
0
 40
0
 40
0
 40
0
 40
1
 40
1
 40
1
 40
1
 10
57.455501
 20
75.244736
 30
0.0
 10
56.994701
 20
75.244736
 30
0.0
 10
56.642324
 20
75.193984
 30
0.0
 10
56.398370
 20
75.092480
 30
0.0
  0
SPLINE
  5
1b4
100
AcDbEntity
  8
Layer_1
 62
7
100
AcDbSpline
 70
8
 71
3
 72
8
 73
4
 74
0
 40
0
 40
0
 40
0
 40
0
 40
1
 40
1
 40
1
 40
1
 10
56.398370
 20
75.092480
 30
0.0
 10
56.154417
 20
74.990977
 30
0.0
 10
55.964676
 20
74.889473
 30
0.0
 10
55.829146
 20
74.787970
 30
0.0
  0
SPLINE
  5
1b5
100
AcDbEntity
  8
Layer_1
 62
7
100
AcDbSpline
 70
8
 71
3
 72
8
 73
4
 74
0
 40
0
 40
0
 40
0
 40
0
 40
1
 40
1
 40
1
 40
1
 10
55.829146
 20
74.787970
 30
0.0
 10
55.693616
 20
74.645865
 30
0.0
 10
55.598746
 20
74.493610
 30
0.0
 10
55.544534
 20
74.331204
 30
0.0
  0
LWPOLYLINE
  5
1b6
100
AcDbEntity
  8
Layer_1
 62
7
100
AcDbPolyline
 90
2
 70
0
 10
57.780772
 20
75.975560
 30
0.0
 10
57.780772
 20
75.427442
 30
0.0
  0
SPLINE
  5
1b7
100
AcDbEntity
  8
Layer_1
 62
7
100
AcDbSpline
 70
8
 71
3
 72
8
 73
4
 74
0
 40
0
 40
0
 40
0
 40
0
 40
1
 40
1
 40
1
 40
1
 10
55.544534
 20
57.095918
 30
0.0
 10
55.544534
 20
56.771107
 30
0.0
 10
55.625852
 20
56.568100
 30
0.0
 10
55.788487
 20
56.486897
 30
0.0
  0
SPLINE
  5
1b8
100
AcDbEntity
  8
Layer_1
 62
7
100
AcDbSpline
 70
8
 71
3
 72
8
 73
4
 74
0
 40
0
 40
0
 40
0
 40
0
 40
1
 40
1
 40
1
 40
1
 10
55.788487
 20
56.486897
 30
0.0
 10
55.978229
 20
56.425995
 30
0.0
 10
56.181523
 20
56.395544
 30
0.0
 10
56.398370
 20
56.395544
 30
0.0
  0
LWPOLYLINE
  5
1b9
100
AcDbEntity
  8
Layer_1
 62
7
100
AcDbPolyline
 90
2
 70
0
 10
55.544534
 20
74.331204
 30
0.0
 10
55.544534
 20
57.095918
 30
0.0
  0
SPLINE
  5
1ba
100
AcDbEntity
  8
Layer_1
 62
7
100
AcDbSpline
 70
8
 71
3
 72
8
 73
4
 74
0
 40
0
 40
0
 40
0
 40
0
 40
1
 40
1
 40
1
 40
1
 10
59.610422
 20
56.395544
 30
0.0
 10
59.935693
 20
56.415845
 30
0.0
 10
60.233858
 20
56.476747
 30
0.0
 10
60.504917
 20
56.578250
 30
0.0
  0
SPLINE
  5
1bb
100
AcDbEntity
  8
Layer_1
 62
7
100
AcDbSpline
 70
8
 71
3
 72
8
 73
4
 74
0
 40
0
 40
0
 40
0
 40
0
 40
1
 40
1
 40
1
 40
1
 10
60.504917
 20
56.578250
 30
0.0
 10
60.721765
 20
56.679754
 30
0.0
 10
60.938612
 20
56.821859
 30
0.0
 10
61.155459
 20
57.004565
 30
0.0
  0
SPLINE
  5
1bc
100
AcDbEntity
  8
Layer_1
 62
7
100
AcDbSpline
 70
8
 71
3
 72
8
 73
4
 74
0
 40
0
 40
0
 40
0
 40
0
 40
1
 40
1
 40
1
 40
1
 10
61.155459
 20
57.004565
 30
0.0
 10
61.372307
 20
57.187271
 30
0.0
 10
61.521389
 20
57.451180
 30
0.0
 10
61.602707
 20
57.796292
 30
0.0
  0
SPLINE
  5
1bd
100
AcDbEntity
  8
Layer_1
 62
7
100
AcDbSpline
 70
8
 71
3
 72
8
 73
4
 74
0
 40
0
 40
0
 40
0
 40
0
 40
1
 40
1
 40
1
 40
1
 10
61.602707
 20
57.796292
 30
0.0
 10
61.602707
 20
57.958697
 30
0.0
 10
61.697578
 20
58.039900
 30
0.0
 10
61.887319
 20
58.039900
 30
0.0
  0
LWPOLYLINE
  5
1be
100
AcDbEntity
  8
Layer_1
 62
7
100
AcDbPolyline
 90
2
 70
0
 10
56.398370
 20
56.395544
 30
0.0
 10
59.610422
 20
56.395544
 30
0.0
  0
SPLINE
  5
1bf
100
AcDbEntity
  8
Layer_1
 62
7
100
AcDbSpline
 70
8
 71
3
 72
8
 73
4
 74
0
 40
0
 40
0
 40
0
 40
0
 40
1
 40
1
 40
1
 40
1
 10
77.093701
 20
58.039900
 30
0.0
 10
77.229231
 20
58.039900
 30
0.0
 10
77.310549
 20
58.009449
 30
0.0
 10
77.337654
 20
57.948547
 30
0.0
  0
SPLINE
  5
1c0
100
AcDbEntity
  8
Layer_1
 62
7
100
AcDbSpline
 70
8
 71
3
 72
8
 73
4
 74
0
 40
0
 40
0
 40
0
 40
0
 40
1
 40
1
 40
1
 40
1
 10
77.337654
 20
57.948547
 30
0.0
 10
77.364760
 20
57.887645
 30
0.0
 10
77.378313
 20
57.826743
 30
0.0
 10
77.378313
 20
57.765841
 30
0.0
  0
SPLINE
  5
1c1
100
AcDbEntity
  8
Layer_1
 62
7
100
AcDbSpline
 70
8
 71
3
 72
8
 73
4
 74
0
 40
0
 40
0
 40
0
 40
0
 40
1
 40
1
 40
1
 40
1
 10
77.378313
 20
57.765841
 30
0.0
 10
77.242784
 20
57.177121
 30
0.0
 10
77.080148
 20
56.527499
 30
0.0
 10
76.890407
 20
55.816975
 30
0.0
  0
SPLINE
  5
1c2
100
AcDbEntity
  8
Layer_1
 62
7
100
AcDbSpline
 70
8
 71
3
 72
8
 73
4
 74
0
 40
0
 40
0
 40
0
 40
0
 40
1
 40
1
 40
1
 40
1
 10
76.890407
 20
55.816975
 30
0.0
 10
76.727771
 20
55.106450
 30
0.0
 10
76.578689
 20
54.446678
 30
0.0
 10
76.443159
 20
53.837657
 30
0.0
  0
SPLINE
  5
1c3
100
AcDbEntity
  8
Layer_1
 62
7
100
AcDbSpline
 70
8
 71
3
 72
8
 73
4
 74
0
 40
0
 40
0
 40
0
 40
0
 40
1
 40
1
 40
1
 40
1
 10
76.443159
 20
53.837657
 30
0.0
 10
76.443159
 20
53.736154
 30
0.0
 10
76.361841
 20
53.685402
 30
0.0
 10
76.199206
 20
53.685402
 30
0.0
  0
LWPOLYLINE
  5
1c4
100
AcDbEntity
  8
Layer_1
 62
7
100
AcDbPolyline
 90
2
 70
0
 10
61.887319
 20
58.039900
 30
0.0
 10
62.619179
 20
58.039900
 30
0.0
  0
SPLINE
  5
1c5
100
AcDbEntity
  8
Layer_1
 62
7
100
AcDbSpline
 70
8
 71
3
 72
8
 73
4
 74
0
 40
0
 40
0
 40
0
 40
0
 40
1
 40
1
 40
1
 40
1
 10
75.670640
 20
53.685402
 30
0.0
 10
75.480899
 20
53.685402
 30
0.0
 10
75.358922
 20
53.766605
 30
0.0
 10
75.304710
 20
53.929010
 30
0.0
  0
SPLINE
  5
1c6
100
AcDbEntity
  8
Layer_1
 62
7
100
AcDbSpline
 70
8
 71
3
 72
8
 73
4
 74
0
 40
0
 40
0
 40
0
 40
0
 40
1
 40
1
 40
1
 40
1
 10
75.304710
 20
53.929010
 30
0.0
 10
75.250499
 20
54.050815
 30
0.0
 10
75.128522
 20
54.132017
 30
0.0
 10
74.938780
 20
54.172619
 30
0.0
  0
SPLINE
  5
1c7
100
AcDbEntity
  8
Layer_1
 62
7
100
AcDbSpline
 70
8
 71
3
 72
8
 73
4
 74
0
 40
0
 40
0
 40
0
 40
0
 40
1
 40
1
 40
1
 40
1
 10
74.938780
 20
54.172619
 30
0.0
 10
74.749040
 20
54.192919
 30
0.0
 10
74.572852
 20
54.203070
 30
0.0
 10
74.410217
 20
54.203070
 30
0.0
  0
LWPOLYLINE
  5
1c8
100
AcDbEntity
  8
Layer_1
 62
7
100
AcDbPolyline
 90
2
 70
0
 10
76.199206
 20
53.685402
 30
0.0
 10
75.670640
 20
53.685402
 30
0.0
  0
SPLINE
  5
1c9
100
AcDbEntity
  8
Layer_1
 62
7
100
AcDbSpline
 70
8
 71
3
 72
8
 73
4
 74
0
 40
0
 40
0
 40
0
 40
0
 40
1
 40
1
 40
1
 40
1
 10
68.230067
 20
54.203070
 30
0.0
 10
67.579524
 20
54.203070
 30
0.0
 10
67.023853
 20
54.192919
 30
0.0
 10
66.563052
 20
54.172619
 30
0.0
  0
SPLINE
  5
1ca
100
AcDbEntity
  8
Layer_1
 62
7
100
AcDbSpline
 70
8
 71
3
 72
8
 73
4
 74
0
 40
0
 40
0
 40
0
 40
0
 40
1
 40
1
 40
1
 40
1
 10
66.563052
 20
54.172619
 30
0.0
 10
66.102252
 20
54.132017
 30
0.0
 10
65.492368
 20
54.111717
 30
0.0
 10
64.733403
 20
54.111717
 30
0.0
  0
SPLINE
  5
1cb
100
AcDbEntity
  8
Layer_1
 62
7
100
AcDbSpline
 70
8
 71
3
 72
8
 73
4
 74
0
 40
0
 40
0
 40
0
 40
0
 40
1
 40
1
 40
1
 40
1
 10
64.733403
 20
54.111717
 30
0.0
 10
64.597873
 20
54.111717
 30
0.0
 10
64.530108
 20
54.182769
 30
0.0
 10
64.530108
 20
54.324874
 30
0.0
  0
LWPOLYLINE
  5
1cc
100
AcDbEntity
  8
Layer_1
 62
7
100
AcDbPolyline
 90
2
 70
0
 10
74.410217
 20
54.203070
 30
0.0
 10
68.230067
 20
54.203070
 30
0.0
  0
SPLINE
  5
1cd
100
AcDbEntity
  8
Layer_1
 62
7
100
AcDbSpline
 70
8
 71
3
 72
8
 73
4
 74
0
 40
0
 40
0
 40
0
 40
0
 40
1
 40
1
 40
1
 40
1
 10
64.530108
 20
54.872992
 30
0.0
 10
64.530108
 20
54.974496
 30
0.0
 10
64.638532
 20
55.025248
 30
0.0
 10
64.855379
 20
55.025248
 30
0.0
  0
SPLINE
  5
1ce
100
AcDbEntity
  8
Layer_1
 62
7
100
AcDbSpline
 70
8
 71
3
 72
8
 73
4
 74
0
 40
0
 40
0
 40
0
 40
0
 40
1
 40
1
 40
1
 40
1
 10
64.855379
 20
55.025248
 30
0.0
 10
65.316180
 20
55.025248
 30
0.0
 10
65.668557
 20
55.096300
 30
0.0
 10
65.912510
 20
55.238405
 30
0.0
  0
SPLINE
  5
1cf
100
AcDbEntity
  8
Layer_1
 62
7
100
AcDbSpline
 70
8
 71
3
 72
8
 73
4
 74
0
 40
0
 40
0
 40
0
 40
0
 40
1
 40
1
 40
1
 40
1
 10
65.912510
 20
55.238405
 30
0.0
 10
66.156464
 20
55.380510
 30
0.0
 10
66.346205
 20
55.542915
 30
0.0
 10
66.481735
 20
55.725621
 30
0.0
  0
SPLINE
  5
1d0
100
AcDbEntity
  8
Layer_1
 62
7
100
AcDbSpline
 70
8
 71
3
 72
8
 73
4
 74
0
 40
0
 40
0
 40
0
 40
0
 40
1
 40
1
 40
1
 40
1
 10
66.481735
 20
55.725621
 30
0.0
 10
66.617264
 20
55.948929
 30
0.0
 10
66.712135
 20
56.192537
 30
0.0
 10
66.766347
 20
56.456446
 30
0.0
  0
LWPOLYLINE
  5
1d1
100
AcDbEntity
  8
Layer_1
 62
7
100
AcDbPolyline
 90
2
 70
0
 10
64.530108
 20
54.324874
 30
0.0
 10
64.530108
 20
54.872992
 30
0.0
  0
SPLINE
  5
1d2
100
AcDbEntity
  8
Layer_1
 62
7
100
AcDbSpline
 70
8
 71
3
 72
8
 73
4
 74
0
 40
0
 40
0
 40
0
 40
0
 40
1
 40
1
 40
1
 40
1
 10
66.766347
 20
74.331204
 30
0.0
 10
66.712135
 20
74.493610
 30
0.0
 10
66.617264
 20
74.645865
 30
0.0
 10
66.481735
 20
74.787970
 30
0.0
  0
SPLINE
  5
1d3
100
AcDbEntity
  8
Layer_1
 62
7
100
AcDbSpline
 70
8
 71
3
 72
8
 73
4
 74
0
 40
0
 40
0
 40
0
 40
0
 40
1
 40
1
 40
1
 40
1
 10
66.481735
 20
74.787970
 30
0.0
 10
66.346205
 20
74.889473
 30
0.0
 10
66.156464
 20
74.990977
 30
0.0
 10
65.912510
 20
75.092480
 30
0.0
  0
SPLINE
  5
1d4
100
AcDbEntity
  8
Layer_1
 62
7
100
AcDbSpline
 70
8
 71
3
 72
8
 73
4
 74
0
 40
0
 40
0
 40
0
 40
0
 40
1
 40
1
 40
1
 40
1
 10
65.912510
 20
75.092480
 30
0.0
 10
65.668557
 20
75.193984
 30
0.0
 10
65.316180
 20
75.244736
 30
0.0
 10
64.855379
 20
75.244736
 30
0.0
  0
SPLINE
  5
1d5
100
AcDbEntity
  8
Layer_1
 62
7
100
AcDbSpline
 70
8
 71
3
 72
8
 73
4
 74
0
 40
0
 40
0
 40
0
 40
0
 40
1
 40
1
 40
1
 40
1
 10
64.855379
 20
75.244736
 30
0.0
 10
64.638532
 20
75.244736
 30
0.0
 10
64.530108
 20
75.305638
 30
0.0
 10
64.530108
 20
75.427442
 30
0.0
  0
LWPOLYLINE
  5
1d6
100
AcDbEntity
  8
Layer_1
 62
7
100
AcDbPolyline
 90
2
 70
0
 10
66.766347
 20
56.456446
 30
0.0
 10
66.766347
 20
74.331204
 30
0.0
  0
SPLINE
  5
1d7
100
AcDbEntity
  8
Layer_1
 62
7
100
AcDbSpline
 70
8
 71
3
 72
8
 73
4
 74
0
 40
0
 40
0
 40
0
 40
0
 40
1
 40
1
 40
1
 40
1
 10
64.530108
 20
75.975560
 30
0.0
 10
64.530108
 20
76.117665
 30
0.0
 10
64.597873
 20
76.188718
 30
0.0
 10
64.733403
 20
76.188718
 30
0.0
  0
SPLINE
  5
1d8
100
AcDbEntity
  8
Layer_1
 62
7
100
AcDbSpline
 70
8
 71
3
 72
8
 73
4
 74
0
 40
0
 40
0
 40
0
 40
0
 40
1
 40
1
 40
1
 40
1
 10
64.733403
 20
76.188718
 30
0.0
 10
65.492368
 20
76.188718
 30
0.0
 10
66.102252
 20
76.168417
 30
0.0
 10
66.563052
 20
76.127816
 30
0.0
  0
SPLINE
  5
1d9
100
AcDbEntity
  8
Layer_1
 62
7
100
AcDbSpline
 70
8
 71
3
 72
8
 73
4
 74
0
 40
0
 40
0
 40
0
 40
0
 40
1
 40
1
 40
1
 40
1
 10
66.563052
 20
76.127816
 30
0.0
 10
67.023853
 20
76.087214
 30
0.0
 10
67.579524
 20
76.066914
 30
0.0
 10
68.230067
 20
76.066914
 30
0.0
  0
LWPOLYLINE
  5
1da
100
AcDbEntity
  8
Layer_1
 62
7
100
AcDbPolyline
 90
2
 70
0
 10
64.530108
 20
75.427442
 30
0.0
 10
64.530108
 20
75.975560
 30
0.0
  0
SPLINE
  5
1db
100
AcDbEntity
  8
Layer_1
 62
7
100
AcDbSpline
 70
8
 71
3
 72
8
 73
4
 74
0
 40
0
 40
0
 40
0
 40
0
 40
1
 40
1
 40
1
 40
1
 10
68.555338
 20
76.066914
 30
0.0
 10
69.205880
 20
76.066914
 30
0.0
 10
69.761551
 20
76.087214
 30
0.0
 10
70.222352
 20
76.127816
 30
0.0
  0
SPLINE
  5
1dc
100
AcDbEntity
  8
Layer_1
 62
7
100
AcDbSpline
 70
8
 71
3
 72
8
 73
4
 74
0
 40
0
 40
0
 40
0
 40
0
 40
1
 40
1
 40
1
 40
1
 10
70.222352
 20
76.127816
 30
0.0
 10
70.683152
 20
76.168417
 30
0.0
 10
71.293036
 20
76.188718
 30
0.0
 10
72.052001
 20
76.188718
 30
0.0
  0
SPLINE
  5
1dd
100
AcDbEntity
  8
Layer_1
 62
7
100
AcDbSpline
 70
8
 71
3
 72
8
 73
4
 74
0
 40
0
 40
0
 40
0
 40
0
 40
1
 40
1
 40
1
 40
1
 10
72.052001
 20
76.188718
 30
0.0
 10
72.187531
 20
76.188718
 30
0.0
 10
72.255296
 20
76.117665
 30
0.0
 10
72.255296
 20
75.975560
 30
0.0
  0
LWPOLYLINE
  5
1de
100
AcDbEntity
  8
Layer_1
 62
7
100
AcDbPolyline
 90
2
 70
0
 10
68.230067
 20
76.066914
 30
0.0
 10
68.555338
 20
76.066914
 30
0.0
  0
SPLINE
  5
1df
100
AcDbEntity
  8
Layer_1
 62
7
100
AcDbSpline
 70
8
 71
3
 72
8
 73
4
 74
0
 40
0
 40
0
 40
0
 40
0
 40
1
 40
1
 40
1
 40
1
 10
72.255296
 20
75.427442
 30
0.0
 10
72.255296
 20
75.305638
 30
0.0
 10
72.146872
 20
75.244736
 30
0.0
 10
71.930025
 20
75.244736
 30
0.0
  0
SPLINE
  5
1e0
100
AcDbEntity
  8
Layer_1
 62
7
100
AcDbSpline
 70
8
 71
3
 72
8
 73
4
 74
0
 40
0
 40
0
 40
0
 40
0
 40
1
 40
1
 40
1
 40
1
 10
71.930025
 20
75.244736
 30
0.0
 10
71.469224
 20
75.244736
 30
0.0
 10
71.116847
 20
75.193984
 30
0.0
 10
70.872894
 20
75.092480
 30
0.0
  0
SPLINE
  5
1e1
100
AcDbEntity
  8
Layer_1
 62
7
100
AcDbSpline
 70
8
 71
3
 72
8
 73
4
 74
0
 40
0
 40
0
 40
0
 40
0
 40
1
 40
1
 40
1
 40
1
 10
70.872894
 20
75.092480
 30
0.0
 10
70.628941
 20
74.990977
 30
0.0
 10
70.439199
 20
74.889473
 30
0.0
 10
70.303669
 20
74.787970
 30
0.0
  0
SPLINE
  5
1e2
100
AcDbEntity
  8
Layer_1
 62
7
100
AcDbSpline
 70
8
 71
3
 72
8
 73
4
 74
0
 40
0
 40
0
 40
0
 40
0
 40
1
 40
1
 40
1
 40
1
 10
70.303669
 20
74.787970
 30
0.0
 10
70.168140
 20
74.645865
 30
0.0
 10
70.073269
 20
74.493610
 30
0.0
 10
70.019057
 20
74.331204
 30
0.0
  0
LWPOLYLINE
  5
1e3
100
AcDbEntity
  8
Layer_1
 62
7
100
AcDbPolyline
 90
2
 70
0
 10
72.255296
 20
75.975560
 30
0.0
 10
72.255296
 20
75.427442
 30
0.0
  0
SPLINE
  5
1e4
100
AcDbEntity
  8
Layer_1
 62
7
100
AcDbSpline
 70
8
 71
3
 72
8
 73
4
 74
0
 40
0
 40
0
 40
0
 40
0
 40
1
 40
1
 40
1
 40
1
 10
70.019057
 20
57.095918
 30
0.0
 10
70.019057
 20
56.771107
 30
0.0
 10
70.100375
 20
56.568100
 30
0.0
 10
70.263011
 20
56.486897
 30
0.0
  0
SPLINE
  5
1e5
100
AcDbEntity
  8
Layer_1
 62
7
100
AcDbSpline
 70
8
 71
3
 72
8
 73
4
 74
0
 40
0
 40
0
 40
0
 40
0
 40
1
 40
1
 40
1
 40
1
 10
70.263011
 20
56.486897
 30
0.0
 10
70.452752
 20
56.425995
 30
0.0
 10
70.656046
 20
56.395544
 30
0.0
 10
70.872894
 20
56.395544
 30
0.0
  0
LWPOLYLINE
  5
1e6
100
AcDbEntity
  8
Layer_1
 62
7
100
AcDbPolyline
 90
2
 70
0
 10
70.019057
 20
74.331204
 30
0.0
 10
70.019057
 20
57.095918
 30
0.0
  0
SPLINE
  5
1e7
100
AcDbEntity
  8
Layer_1
 62
7
100
AcDbSpline
 70
8
 71
3
 72
8
 73
4
 74
0
 40
0
 40
0
 40
0
 40
0
 40
1
 40
1
 40
1
 40
1
 10
74.084946
 20
56.395544
 30
0.0
 10
74.410217
 20
56.415845
 30
0.0
 10
74.708381
 20
56.476747
 30
0.0
 10
74.979439
 20
56.578250
 30
0.0
  0
SPLINE
  5
1e8
100
AcDbEntity
  8
Layer_1
 62
7
100
AcDbSpline
 70
8
 71
3
 72
8
 73
4
 74
0
 40
0
 40
0
 40
0
 40
0
 40
1
 40
1
 40
1
 40
1
 10
74.979439
 20
56.578250
 30
0.0
 10
75.196287
 20
56.679754
 30
0.0
 10
75.413134
 20
56.821859
 30
0.0
 10
75.629981
 20
57.004565
 30
0.0
  0
SPLINE
  5
1e9
100
AcDbEntity
  8
Layer_1
 62
7
100
AcDbSpline
 70
8
 71
3
 72
8
 73
4
 74
0
 40
0
 40
0
 40
0
 40
0
 40
1
 40
1
 40
1
 40
1
 10
75.629981
 20
57.004565
 30
0.0
 10
75.846829
 20
57.187271
 30
0.0
 10
75.995911
 20
57.451180
 30
0.0
 10
76.077229
 20
57.796292
 30
0.0
  0
SPLINE
  5
1ea
100
AcDbEntity
  8
Layer_1
 62
7
100
AcDbSpline
 70
8
 71
3
 72
8
 73
4
 74
0
 40
0
 40
0
 40
0
 40
0
 40
1
 40
1
 40
1
 40
1
 10
76.077229
 20
57.796292
 30
0.0
 10
76.077229
 20
57.958697
 30
0.0
 10
76.172100
 20
58.039900
 30
0.0
 10
76.361841
 20
58.039900
 30
0.0
  0
LWPOLYLINE
  5
1eb
100
AcDbEntity
  8
Layer_1
 62
7
100
AcDbPolyline
 90
2
 70
0
 10
70.872894
 20
56.395544
 30
0.0
 10
74.084946
 20
56.395544
 30
0.0
  0
SPLINE
  5
1ec
100
AcDbEntity
  8
Layer_1
 62
7
100
AcDbSpline
 70
8
 71
3
 72
8
 73
4
 74
0
 40
0
 40
0
 40
0
 40
0
 40
1
 40
1
 40
1
 40
1
 10
38.615866
 20
3.541264
 30
0.0
 10
38.412338
 20
3.744792
 30
0.0
 10
38.245814
 20
4.000259
 30
0.0
 10
38.245814
 20
4.108965
 30
0.0
  0
SPLINE
  5
1ed
100
AcDbEntity
  8
Layer_1
 62
7
100
AcDbSpline
 70
8
 71
3
 72
8
 73
4
 74
0
 40
0
 40
0
 40
0
 40
0
 40
1
 40
1
 40
1
 40
1
 10
38.245814
 20
4.108965
 30
0.0
 10
38.245814
 20
4.217671
 30
0.0
 10
38.886215
 20
5.084351
 30
0.0
 10
39.668928
 20
6.034919
 30
0.0
  0
LWPOLYLINE
  5
1ee
100
AcDbEntity
  8
Layer_1
 62
7
100
AcDbPolyline
 90
2
 70
0
 10
76.361841
 20
58.039900
 30
0.0
 10
77.093701
 20
58.039900
 30
0.0
  0
SPLINE
  5
1ef
100
AcDbEntity
  8
Layer_1
 62
7
100
AcDbSpline
 70
8
 71
3
 72
8
 73
4
 74
0
 40
0
 40
0
 40
0
 40
0
 40
1
 40
1
 40
1
 40
1
 10
39.975811
 20
8.758704
 30
0.0
 10
38.870521
 20
9.744423
 30
0.0
 10
38.855328
 20
9.749618
 30
0.0
 10
38.425779
 20
9.288552
 30
0.0
  0
SPLINE
  5
1f0
100
AcDbEntity
  8
Layer_1
 62
7
100
AcDbSpline
 70
8
 71
3
 72
8
 73
4
 74
0
 40
0
 40
0
 40
0
 40
0
 40
1
 40
1
 40
1
 40
1
 10
38.425779
 20
9.288552
 30
0.0
 10
37.543421
 20
8.341450
 30
0.0
 10
35.890935
 20
8.993160
 30
0.0
 10
35.890935
 20
10.288247
 30
0.0
  0
SPLINE
  5
1f1
100
AcDbEntity
  8
Layer_1
 62
7
100
AcDbSpline
 70
8
 71
3
 72
8
 73
4
 74
0
 40
0
 40
0
 40
0
 40
0
 40
1
 40
1
 40
1
 40
1
 10
35.890935
 20
10.288247
 30
0.0
 10
35.890935
 20
10.518465
 30
0.0
 10
35.852770
 20
10.706825
 30
0.0
 10
35.806124
 20
10.706825
 30
0.0
  0
SPLINE
  5
1f2
100
AcDbEntity
  8
Layer_1
 62
7
100
AcDbSpline
 70
8
 71
3
 72
8
 73
4
 74
0
 40
0
 40
0
 40
0
 40
0
 40
1
 40
1
 40
1
 40
1
 10
35.806124
 20
10.706825
 30
0.0
 10
35.759477
 20
10.706825
 30
0.0
 10
34.817844
 20
10.289422
 30
0.0
 10
33.713606
 20
9.779262
 30
0.0
  0
SPLINE
  5
1f3
100
AcDbEntity
  8
Layer_1
 62
7
100
AcDbSpline
 70
8
 71
3
 72
8
 73
4
 74
0
 40
0
 40
0
 40
0
 40
0
 40
1
 40
1
 40
1
 40
1
 10
33.713606
 20
9.779262
 30
0.0
 10
29.947852
 20
8.039479
 30
0.0
 10
30.051587
 20
8.068608
 30
0.0
 10
29.518890
 20
8.601306
 30
0.0
  0
SPLINE
  5
1f4
100
AcDbEntity
  8
Layer_1
 62
7
100
AcDbSpline
 70
8
 71
3
 72
8
 73
4
 74
0
 40
0
 40
0
 40
0
 40
0
 40
1
 40
1
 40
1
 40
1
 10
29.518890
 20
8.601306
 30
0.0
 10
29.176802
 20
8.943392
 30
0.0
 10
29.109781
 20
9.179052
 30
0.0
 10
29.269635
 20
9.477740
 30
0.0
  0
SPLINE
  5
1f5
100
AcDbEntity
  8
Layer_1
 62
7
100
AcDbSpline
 70
8
 71
3
 72
8
 73
4
 74
0
 40
0
 40
0
 40
0
 40
0
 40
1
 40
1
 40
1
 40
1
 10
29.269635
 20
9.477740
 30
0.0
 10
29.389888
 20
9.702436
 30
0.0
 10
30.927430
 20
10.521271
 30
0.0
 10
32.686393
 20
11.297374
 30
0.0
  0
LWPOLYLINE
  5
1f6
100
AcDbEntity
  8
Layer_1
 62
7
100
AcDbPolyline
 90
3
 70
0
 10
39.668928
 20
6.034919
 30
0.0
 10
41.092042
 20
7.763226
 30
0.0
 10
39.975811
 20
8.758704
 30
0.0
  0
SPLINE
  5
1f7
100
AcDbEntity
  8
Layer_1
 62
7
100
AcDbSpline
 70
8
 71
3
 72
8
 73
4
 74
0
 40
0
 40
0
 40
0
 40
0
 40
1
 40
1
 40
1
 40
1
 10
32.417470
 20
22.440162
 30
0.0
 10
29.336707
 20
24.106197
 30
0.0
 10
28.935082
 20
24.393106
 30
0.0
 10
28.864932
 20
24.977992
 30
0.0
  0
SPLINE
  5
1f8
100
AcDbEntity
  8
Layer_1
 62
7
100
AcDbSpline
 70
8
 71
3
 72
8
 73
4
 74
0
 40
0
 40
0
 40
0
 40
0
 40
1
 40
1
 40
1
 40
1
 10
28.864932
 20
24.977992
 30
0.0
 10
28.821437
 20
25.340680
 30
0.0
 10
28.583001
 20
25.895297
 30
0.0
 10
28.335085
 20
26.210472
 30
0.0
  0
SPLINE
  5
1f9
100
AcDbEntity
  8
Layer_1
 62
7
100
AcDbSpline
 70
8
 71
3
 72
8
 73
4
 74
0
 40
0
 40
0
 40
0
 40
0
 40
1
 40
1
 40
1
 40
1
 10
28.335085
 20
26.210472
 30
0.0
 10
27.918214
 20
26.740437
 30
0.0
 10
27.884328
 20
27.228617
 30
0.0
 10
27.884328
 20
32.704303
 30
0.0
  0
SPLINE
  5
1fa
100
AcDbEntity
  8
Layer_1
 62
7
100
AcDbSpline
 70
8
 71
3
 72
8
 73
4
 74
0
 40
0
 40
0
 40
0
 40
0
 40
1
 40
1
 40
1
 40
1
 10
27.884328
 20
32.704303
 30
0.0
 10
27.884328
 20
39.399021
 30
0.0
 10
27.880768
 20
39.384224
 30
0.0
 10
29.672727
 20
40.152345
 30
0.0
  0
SPLINE
  5
1fb
100
AcDbEntity
  8
Layer_1
 62
7
100
AcDbSpline
 70
8
 71
3
 72
8
 73
4
 74
0
 40
0
 40
0
 40
0
 40
0
 40
1
 40
1
 40
1
 40
1
 10
29.672727
 20
40.152345
 30
0.0
 10
33.327625
 20
41.719017
 30
0.0
 10
41.795363
 20
41.793618
 30
0.0
 10
45.392036
 20
40.290833
 30
0.0
  0
LWPOLYLINE
  5
1fc
100
AcDbEntity
  8
Layer_1
 62
7
100
AcDbPolyline
 90
5
 70
0
 10
32.686393
 20
11.297374
 30
0.0
 10
35.884508
 20
12.708471
 30
0.0
 10
35.887712
 20
16.635122
 30
0.0
 10
35.890916
 20
20.561769
 30
0.0
 10
32.417470
 20
22.440162
 30
0.0
  0
SPLINE
  5
1fd
100
AcDbEntity
  8
Layer_1
 62
7
100
AcDbSpline
 70
8
 71
3
 72
8
 73
4
 74
0
 40
0
 40
0
 40
0
 40
0
 40
1
 40
1
 40
1
 40
1
 10
46.252386
 20
41.378254
 30
0.0
 10
46.252386
 20
42.623797
 30
0.0
 10
46.339520
 20
42.916097
 30
0.0
 10
46.878498
 20
43.478671
 30
0.0
  0
SPLINE
  5
1fe
100
AcDbEntity
  8
Layer_1
 62
7
100
AcDbSpline
 70
8
 71
3
 72
8
 73
4
 74
0
 40
0
 40
0
 40
0
 40
0
 40
1
 40
1
 40
1
 40
1
 10
46.878498
 20
43.478671
 30
0.0
 10
47.466035
 20
44.091929
 30
0.0
 10
47.476911
 20
44.141954
 30
0.0
 10
47.055116
 20
44.290682
 30
0.0
  0
SPLINE
  5
1ff
100
AcDbEntity
  8
Layer_1
 62
7
100
AcDbSpline
 70
8
 71
3
 72
8
 73
4
 74
0
 40
0
 40
0
 40
0
 40
0
 40
1
 40
1
 40
1
 40
1
 10
47.055116
 20
44.290682
 30
0.0
 10
42.000465
 20
46.072932
 30
0.0
 10
39.332155
 20
47.714108
 30
0.0
 10
38.562351
 20
49.514257
 30
0.0
  0
SPLINE
  5
200
100
AcDbEntity
  8
Layer_1
 62
7
100
AcDbSpline
 70
8
 71
3
 72
8
 73
4
 74
0
 40
0
 40
0
 40
0
 40
0
 40
1
 40
1
 40
1
 40
1
 10
38.562351
 20
49.514257
 30
0.0
 10
37.935996
 20
50.978958
 30
0.0
 10
38.957137
 20
52.098762
 30
0.0
 10
41.542625
 20
52.782484
 30
0.0
  0
SPLINE
  5
201
100
AcDbEntity
  8
Layer_1
 62
7
100
AcDbSpline
 70
8
 71
3
 72
8
 73
4
 74
0
 40
0
 40
0
 40
0
 40
0
 40
1
 40
1
 40
1
 40
1
 10
41.542625
 20
52.782484
 30
0.0
 10
43.792869
 20
53.377551
 30
0.0
 10
49.054495
 20
53.316730
 30
0.0
 10
52.677054
 20
52.653779
 30
0.0
  0
SPLINE
  5
202
100
AcDbEntity
  8
Layer_1
 62
7
100
AcDbSpline
 70
8
 71
3
 72
8
 73
4
 74
0
 40
0
 40
0
 40
0
 40
0
 40
1
 40
1
 40
1
 40
1
 10
52.677054
 20
52.653779
 30
0.0
 10
61.624716
 20
51.016297
 30
0.0
 10
68.256743
 20
47.013227
 30
0.0
 10
66.331095
 20
44.412245
 30
0.0
  0
SPLINE
  5
203
100
AcDbEntity
  8
Layer_1
 62
7
100
AcDbSpline
 70
8
 71
3
 72
8
 73
4
 74
0
 40
0
 40
0
 40
0
 40
0
 40
1
 40
1
 40
1
 40
1
 10
66.331095
 20
44.412245
 30
0.0
 10
66.078895
 20
44.071591
 30
0.0
 10
65.246420
 20
43.527951
 30
0.0
 10
64.481152
 20
43.204154
 30
0.0
  0
SPLINE
  5
204
100
AcDbEntity
  8
Layer_1
 62
7
100
AcDbSpline
 70
8
 71
3
 72
8
 73
4
 74
0
 40
0
 40
0
 40
0
 40
0
 40
1
 40
1
 40
1
 40
1
 10
64.481152
 20
43.204154
 30
0.0
 10
63.144634
 20
42.638649
 30
0.0
 10
62.904058
 20
42.616408
 30
0.0
 10
58.380011
 20
42.640122
 30
0.0
  0
SPLINE
  5
205
100
AcDbEntity
  8
Layer_1
 62
7
100
AcDbSpline
 70
8
 71
3
 72
8
 73
4
 74
0
 40
0
 40
0
 40
0
 40
0
 40
1
 40
1
 40
1
 40
1
 10
58.380011
 20
42.640122
 30
0.0
 10
54.520855
 20
42.660353
 30
0.0
 10
53.287483
 20
42.752808
 30
0.0
 10
51.550859
 20
43.152052
 30
0.0
  0
LWPOLYLINE
  5
206
100
AcDbEntity
  8
Layer_1
 62
7
100
AcDbPolyline
 90
3
 70
0
 10
45.392036
 20
40.290833
 30
0.0
 10
46.252386
 20
39.931356
 30
0.0
 10
46.252386
 20
41.378254
 30
0.0
  0
SPLINE
  5
207
100
AcDbEntity
  8
Layer_1
 62
7
100
AcDbSpline
 70
8
 71
3
 72
8
 73
4
 74
0
 40
0
 40
0
 40
0
 40
0
 40
1
 40
1
 40
1
 40
1
 10
49.464115
 20
11.969445
 30
0.0
 10
50.194422
 20
11.015966
 30
0.0
 10
50.828624
 20
10.235849
 30
0.0
 10
50.873464
 20
10.235849
 30
0.0
  0
SPLINE
  5
208
100
AcDbEntity
  8
Layer_1
 62
7
100
AcDbSpline
 70
8
 71
3
 72
8
 73
4
 74
0
 40
0
 40
0
 40
0
 40
0
 40
1
 40
1
 40
1
 40
1
 10
50.873464
 20
10.235849
 30
0.0
 10
50.918322
 20
10.235849
 30
0.0
 10
50.647725
 20
10.845174
 30
0.0
 10
50.272176
 20
11.589904
 30
0.0
  0
SPLINE
  5
209
100
AcDbEntity
  8
Layer_1
 62
7
100
AcDbSpline
 70
8
 71
3
 72
8
 73
4
 74
0
 40
0
 40
0
 40
0
 40
0
 40
1
 40
1
 40
1
 40
1
 10
50.272176
 20
11.589904
 30
0.0
 10
48.922396
 20
14.266626
 30
0.0
 10
48.497655
 20
16.167742
 30
0.0
 10
48.496524
 20
19.537621
 30
0.0
  0
SPLINE
  5
20a
100
AcDbEntity
  8
Layer_1
 62
7
100
AcDbSpline
 70
8
 71
3
 72
8
 73
4
 74
0
 40
0
 40
0
 40
0
 40
0
 40
1
 40
1
 40
1
 40
1
 10
48.496524
 20
19.537621
 30
0.0
 10
48.495634
 20
23.126732
 30
0.0
 10
48.839828
 20
24.688600
 30
0.0
 10
50.281441
 20
27.629624
 30
0.0
  0
SPLINE
  5
20b
100
AcDbEntity
  8
Layer_1
 62
7
100
AcDbSpline
 70
8
 71
3
 72
8
 73
4
 74
0
 40
0
 40
0
 40
0
 40
0
 40
1
 40
1
 40
1
 40
1
 10
50.281441
 20
27.629624
 30
0.0
 10
51.542725
 20
30.202769
 30
0.0
 10
53.698571
 20
32.434849
 30
0.0
 10
56.018905
 20
33.569982
 30
0.0
  0
LWPOLYLINE
  5
20c
100
AcDbEntity
  8
Layer_1
 62
7
100
AcDbPolyline
 90
7
 70
0
 10
51.550859
 20
43.152052
 30
0.0
 10
49.431468
 20
43.639294
 30
0.0
 10
48.783880
 20
42.900772
 30
0.0
 10
48.136283
 20
42.162250
 30
0.0
 10
48.136283
 20
27.932644
 30
0.0
 10
48.136283
 20
13.703038
 30
0.0
 10
49.464115
 20
11.969445
 30
0.0
  0
SPLINE
  5
20d
100
AcDbEntity
  8
Layer_1
 62
7
100
AcDbSpline
 70
8
 71
3
 72
8
 73
4
 74
0
 40
0
 40
0
 40
0
 40
0
 40
1
 40
1
 40
1
 40
1
 10
65.367491
 20
33.660512
 30
0.0
 10
58.631935
 20
29.070432
 30
0.0
 10
56.504516
 20
18.874821
 30
0.0
 10
60.628359
 20
10.948282
 30
0.0
  0
SPLINE
  5
20e
100
AcDbEntity
  8
Layer_1
 62
7
100
AcDbSpline
 70
8
 71
3
 72
8
 73
4
 74
0
 40
0
 40
0
 40
0
 40
0
 40
1
 40
1
 40
1
 40
1
 10
60.628359
 20
10.948282
 30
0.0
 10
61.715170
 20
8.859292
 30
0.0
 10
63.751592
 20
6.572015
 30
0.0
 10
65.557024
 20
5.412501
 30
0.0
  0
LWPOLYLINE
  5
20f
100
AcDbEntity
  8
Layer_1
 62
7
100
AcDbPolyline
 90
5
 70
0
 10
56.018905
 20
33.569982
 30
0.0
 10
57.661087
 20
34.373358
 30
0.0
 10
62.141585
 20
34.444418
 30
0.0
 10
66.622091
 20
34.515479
 30
0.0
 10
65.367491
 20
33.660512
 30
0.0
  0
SPLINE
  5
210
100
AcDbEntity
  8
Layer_1
 62
7
100
AcDbSpline
 70
8
 71
3
 72
8
 73
4
 74
0
 40
0
 40
0
 40
0
 40
0
 40
1
 40
1
 40
1
 40
1
 10
63.272603
 20
4.584132
 30
0.0
 10
58.016771
 20
4.584132
 30
0.0
 10
55.972196
 20
5.166408
 30
0.0
 10
53.519301
 20
7.361778
 30
0.0
  0
SPLINE
  5
211
100
AcDbEntity
  8
Layer_1
 62
7
100
AcDbSpline
 70
8
 71
3
 72
8
 73
4
 74
0
 40
0
 40
0
 40
0
 40
0
 40
1
 40
1
 40
1
 40
1
 10
53.519301
 20
7.361778
 30
0.0
 10
52.106445
 20
8.626300
 30
0.0
 10
52.185560
 20
8.410325
 30
0.0
 10
53.949917
 20
6.186246
 30
0.0
  0
SPLINE
  5
212
100
AcDbEntity
  8
Layer_1
 62
7
100
AcDbSpline
 70
8
 71
3
 72
8
 73
4
 74
0
 40
0
 40
0
 40
0
 40
0
 40
1
 40
1
 40
1
 40
1
 10
53.949917
 20
6.186246
 30
0.0
 10
54.637974
 20
5.318911
 30
0.0
 10
55.200920
 20
4.404652
 30
0.0
 10
55.200920
 20
4.154562
 30
0.0
  0
SPLINE
  5
213
100
AcDbEntity
  8
Layer_1
 62
7
100
AcDbSpline
 70
8
 71
3
 72
8
 73
4
 74
0
 40
0
 40
0
 40
0
 40
0
 40
1
 40
1
 40
1
 40
1
 10
55.200920
 20
4.154562
 30
0.0
 10
55.200920
 20
3.588774
 30
0.0
 10
54.613214
 20
3.075246
 30
0.0
 10
54.163293
 20
3.247899
 30
0.0
  0
SPLINE
  5
214
100
AcDbEntity
  8
Layer_1
 62
7
100
AcDbSpline
 70
8
 71
3
 72
8
 73
4
 74
0
 40
0
 40
0
 40
0
 40
0
 40
1
 40
1
 40
1
 40
1
 10
54.163293
 20
3.247899
 30
0.0
 10
53.977846
 20
3.319057
 30
0.0
 10
52.594859
 20
4.969680
 30
0.0
 10
51.089991
 20
6.915945
 30
0.0
  0
SPLINE
  5
215
100
AcDbEntity
  8
Layer_1
 62
7
100
AcDbSpline
 70
8
 71
3
 72
8
 73
4
 74
0
 40
0
 40
0
 40
0
 40
0
 40
1
 40
1
 40
1
 40
1
 10
51.089991
 20
6.915945
 30
0.0
 10
49.585115
 20
8.862213
 30
0.0
 10
48.251917
 20
10.517613
 30
0.0
 10
48.127330
 20
10.594612
 30
0.0
  0
SPLINE
  5
216
100
AcDbEntity
  8
Layer_1
 62
7
100
AcDbSpline
 70
8
 71
3
 72
8
 73
4
 74
0
 40
0
 40
0
 40
0
 40
0
 40
1
 40
1
 40
1
 40
1
 10
48.127330
 20
10.594612
 30
0.0
 10
47.987096
 20
10.681283
 30
0.0
 10
47.900799
 20
9.658873
 30
0.0
 10
47.900799
 20
7.910728
 30
0.0
  0
SPLINE
  5
217
100
AcDbEntity
  8
Layer_1
 62
7
100
AcDbSpline
 70
8
 71
3
 72
8
 73
4
 74
0
 40
0
 40
0
 40
0
 40
0
 40
1
 40
1
 40
1
 40
1
 10
47.900799
 20
7.910728
 30
0.0
 10
47.900799
 20
5.271609
 30
0.0
 10
47.869202
 20
5.076832
 30
0.0
 10
47.418525
 20
4.933777
 30
0.0
  0
SPLINE
  5
218
100
AcDbEntity
  8
Layer_1
 62
7
100
AcDbSpline
 70
8
 71
3
 72
8
 73
4
 74
0
 40
0
 40
0
 40
0
 40
0
 40
1
 40
1
 40
1
 40
1
 10
47.418525
 20
4.933777
 30
0.0
 10
46.468166
 20
4.632146
 30
0.0
 10
46.270872
 20
5.151354
 30
0.0
 10
46.200577
 20
8.138942
 30
0.0
  0
LWPOLYLINE
  5
219
100
AcDbEntity
  8
Layer_1
 62
7
100
AcDbPolyline
 90
3
 70
0
 10
65.557024
 20
5.412501
 30
0.0
 10
66.846833
 20
4.584132
 30
0.0
 10
63.272603
 20
4.584132
 30
0.0
  0
SPLINE
  5
21a
100
AcDbEntity
  8
Layer_1
 62
7
100
AcDbSpline
 70
8
 71
3
 72
8
 73
4
 74
0
 40
0
 40
0
 40
0
 40
0
 40
1
 40
1
 40
1
 40
1
 10
42.882784
 20
7.056274
 30
0.0
 10
41.094269
 20
4.919486
 30
0.0
 10
39.485802
 20
3.171205
 30
0.0
 10
39.308411
 20
3.171205
 30
0.0
  0
SPLINE
  5
21b
100
AcDbEntity
  8
Layer_1
 62
7
100
AcDbSpline
 70
8
 71
3
 72
8
 73
4
 74
0
 40
0
 40
0
 40
0
 40
0
 40
1
 40
1
 40
1
 40
1
 10
39.308411
 20
3.171205
 30
0.0
 10
39.131020
 20
3.171205
 30
0.0
 10
38.819359
 20
3.337727
 30
0.0
 10
38.615829
 20
3.541257
 30
0.0
  0
LWPOLYLINE
  5
21c
100
AcDbEntity
  8
Layer_1
 62
7
100
AcDbPolyline
 90
3
 70
0
 10
46.200577
 20
8.138942
 30
0.0
 10
46.134626
 20
10.941342
 30
0.0
 10
42.882784
 20
7.056274
 30
0.0
  0
LWPOLYLINE
  5
21d
100
AcDbEntity
  8
Layer_1
 62
7
100
AcDbPolyline
 90
1
 70
1
 10
38.615829
 20
3.541257
 30
0.0
  0
SPLINE
  5
21e
100
AcDbEntity
  8
Layer_1
 62
7
100
AcDbSpline
 70
8
 71
3
 72
8
 73
4
 74
0
 40
0
 40
0
 40
0
 40
0
 40
1
 40
1
 40
1
 40
1
 10
46.244536
 20
19.655365
 30
0.0
 10
46.245293
 20
24.448467
 30
0.0
 10
46.195228
 20
25.325565
 30
0.0
 10
45.948707
 20
24.838315
 30
0.0
  0
SPLINE
  5
21f
100
AcDbEntity
  8
Layer_1
 62
7
100
AcDbSpline
 70
8
 71
3
 72
8
 73
4
 74
0
 40
0
 40
0
 40
0
 40
0
 40
1
 40
1
 40
1
 40
1
 10
45.948707
 20
24.838315
 30
0.0
 10
45.749393
 20
24.444386
 30
0.0
 10
44.511535
 20
23.634825
 30
0.0
 10
42.178651
 20
22.372702
 30
0.0
  0
LWPOLYLINE
  5
220
100
AcDbEntity
  8
Layer_1
 62
7
100
AcDbPolyline
 90
3
 70
0
 10
44.353074
 20
11.648776
 30
0.0
 10
46.243646
 20
13.885911
 30
0.0
 10
46.244536
 20
19.655365
 30
0.0
  0
SPLINE
  5
221
100
AcDbEntity
  8
Layer_1
 62
7
100
AcDbSpline
 70
8
 71
3
 72
8
 73
4
 74
0
 40
0
 40
0
 40
0
 40
0
 40
1
 40
1
 40
1
 40
1
 10
40.005986
 20
13.105513
 30
0.0
 10
41.351170
 20
13.020612
 30
0.0
 10
41.778125
 20
12.753873
 30
0.0
 10
41.778125
 20
11.998367
 30
0.0
  0
SPLINE
  5
222
100
AcDbEntity
  8
Layer_1
 62
7
100
AcDbSpline
 70
8
 71
3
 72
8
 73
4
 74
0
 40
0
 40
0
 40
0
 40
0
 40
1
 40
1
 40
1
 40
1
 10
41.778125
 20
11.998367
 30
0.0
 10
41.778125
 20
11.438287
 30
0.0
 10
41.380518
 20
11.178232
 30
0.0
 10
40.522554
 20
11.177163
 30
0.0
  0
SPLINE
  5
223
100
AcDbEntity
  8
Layer_1
 62
7
100
AcDbSpline
 70
8
 71
3
 72
8
 73
4
 74
0
 40
0
 40
0
 40
0
 40
0
 40
1
 40
1
 40
1
 40
1
 10
40.522554
 20
11.177163
 30
0.0
 10
40.091150
 20
11.176693
 30
0.0
 10
40.176308
 20
11.032205
 30
0.0
 10
41.071662
 20
10.245932
 30
0.0
  0
SPLINE
  5
224
100
AcDbEntity
  8
Layer_1
 62
7
100
AcDbSpline
 70
8
 71
3
 72
8
 73
4
 74
0
 40
0
 40
0
 40
0
 40
0
 40
1
 40
1
 40
1
 40
1
 10
41.071662
 20
10.245932
 30
0.0
 10
41.654494
 20
9.734106
 30
0.0
 10
42.205863
 20
9.337007
 30
0.0
 10
42.296927
 20
9.363490
 30
0.0
  0
SPLINE
  5
225
100
AcDbEntity
  8
Layer_1
 62
7
100
AcDbSpline
 70
8
 71
3
 72
8
 73
4
 74
0
 40
0
 40
0
 40
0
 40
0
 40
1
 40
1
 40
1
 40
1
 10
42.296927
 20
9.363490
 30
0.0
 10
42.387989
 20
9.389977
 30
0.0
 10
43.313248
 20
10.418351
 30
0.0
 10
44.353065
 20
11.648775
 30
0.0
  0
LWPOLYLINE
  5
226
100
AcDbEntity
  8
Layer_1
 62
7
100
AcDbPolyline
 90
5
 70
0
 10
42.178651
 20
22.372702
 30
0.0
 10
38.705338
 20
20.493588
 30
0.0
 10
38.769928
 20
16.836518
 30
0.0
 10
38.834527
 20
13.179448
 30
0.0
 10
40.005986
 20
13.105513
 30
0.0
  0
SPLINE
  5
227
100
AcDbEntity
  8
Layer_1
 62
7
100
AcDbSpline
 70
8
 71
3
 72
8
 73
4
 74
0
 40
0
 40
0
 40
0
 40
0
 40
1
 40
1
 40
1
 40
1
 10
35.960432
 20
23.364299
 30
0.0
 10
36.028849
 20
23.720475
 30
0.0
 10
36.067699
 20
24.023593
 30
0.0
 10
36.046756
 20
24.037894
 30
0.0
  0
SPLINE
  5
228
100
AcDbEntity
  8
Layer_1
 62
7
100
AcDbSpline
 70
8
 71
3
 72
8
 73
4
 74
0
 40
0
 40
0
 40
0
 40
0
 40
1
 40
1
 40
1
 40
1
 10
36.046756
 20
24.037894
 30
0.0
 10
36.025814
 20
24.052196
 30
0.0
 10
35.266892
 20
24.127831
 30
0.0
 10
34.360264
 20
24.205975
 30
0.0
  0
LWPOLYLINE
  5
229
100
AcDbEntity
  8
Layer_1
 62
7
100
AcDbPolyline
 90
1
 70
1
 10
44.353065
 20
11.648775
 30
0.0
  0
SPLINE
  5
22a
100
AcDbEntity
  8
Layer_1
 62
7
100
AcDbSpline
 70
8
 71
3
 72
8
 73
4
 74
0
 40
0
 40
0
 40
0
 40
0
 40
1
 40
1
 40
1
 40
1
 10
34.124776
 20
23.559780
 30
0.0
 10
34.901886
 20
23.126230
 30
0.0
 10
35.604827
 20
22.759178
 30
0.0
 10
35.686866
 20
22.744106
 30
0.0
  0
SPLINE
  5
22b
100
AcDbEntity
  8
Layer_1
 62
7
100
AcDbSpline
 70
8
 71
3
 72
8
 73
4
 74
0
 40
0
 40
0
 40
0
 40
0
 40
1
 40
1
 40
1
 40
1
 10
35.686866
 20
22.744106
 30
0.0
 10
35.768909
 20
22.729038
 30
0.0
 10
35.892011
 20
23.008124
 30
0.0
 10
35.960432
 20
23.364299
 30
0.0
  0
LWPOLYLINE
  5
22c
100
AcDbEntity
  8
Layer_1
 62
7
100
AcDbPolyline
 90
3
 70
0
 10
34.360264
 20
24.205975
 30
0.0
 10
32.711848
 20
24.348057
 30
0.0
 10
34.124776
 20
23.559780
 30
0.0
  0
LWPOLYLINE
  5
22d
100
AcDbEntity
  8
Layer_1
 62
7
100
AcDbPolyline
 90
1
 70
1
 10
35.960432
 20
23.364299
 30
0.0
  0
SPLINE
  5
22e
100
AcDbEntity
  8
Layer_1
 62
7
100
AcDbSpline
 70
8
 71
3
 72
8
 73
4
 74
0
 40
0
 40
0
 40
0
 40
0
 40
1
 40
1
 40
1
 40
1
 10
38.716789
 20
23.423169
 30
0.0
 10
38.716789
 20
23.034615
 30
0.0
 10
38.796269
 20
22.721705
 30
0.0
 10
38.893406
 20
22.727816
 30
0.0
  0
SPLINE
  5
22f
100
AcDbEntity
  8
Layer_1
 62
7
100
AcDbSpline
 70
8
 71
3
 72
8
 73
4
 74
0
 40
0
 40
0
 40
0
 40
0
 40
1
 40
1
 40
1
 40
1
 10
38.893406
 20
22.727816
 30
0.0
 10
38.990544
 20
22.733957
 30
0.0
 10
39.652854
 20
23.046836
 30
0.0
 10
40.365205
 20
23.423169
 30
0.0
  0
LWPOLYLINE
  5
230
100
AcDbEntity
  8
Layer_1
 62
7
100
AcDbPolyline
 90
5
 70
0
 10
40.365205
 20
23.423175
 30
0.0
 10
41.660388
 20
24.107418
 30
0.0
 10
40.188589
 20
24.118525
 30
0.0
 10
38.716789
 20
24.129633
 30
0.0
 10
38.716789
 20
23.423169
 30
0.0
  0
SPLINE
  5
231
100
AcDbEntity
  8
Layer_1
 62
7
100
AcDbSpline
 70
8
 71
3
 72
8
 73
4
 74
0
 40
0
 40
0
 40
0
 40
0
 40
1
 40
1
 40
1
 40
1
 10
69.565706
 20
4.842696
 30
0.0
 10
64.520589
 20
5.827975
 30
0.0
 10
60.479306
 20
11.003692
 30
0.0
 10
59.662255
 20
17.526152
 30
0.0
  0
SPLINE
  5
232
100
AcDbEntity
  8
Layer_1
 62
7
100
AcDbSpline
 70
8
 71
3
 72
8
 73
4
 74
0
 40
0
 40
0
 40
0
 40
0
 40
1
 40
1
 40
1
 40
1
 10
59.662255
 20
17.526152
 30
0.0
 10
58.892288
 20
23.672717
 30
0.0
 10
61.781299
 20
30.484574
 30
0.0
 10
66.275014
 20
33.118068
 30
0.0
  0
SPLINE
  5
233
100
AcDbEntity
  8
Layer_1
 62
7
100
AcDbSpline
 70
8
 71
3
 72
8
 73
4
 74
0
 40
0
 40
0
 40
0
 40
0
 40
1
 40
1
 40
1
 40
1
 10
66.275014
 20
33.118068
 30
0.0
 10
69.041414
 20
34.739285
 30
0.0
 10
72.712204
 20
34.946933
 30
0.0
 10
75.452900
 20
33.637236
 30
0.0
  0
SPLINE
  5
234
100
AcDbEntity
  8
Layer_1
 62
7
100
AcDbSpline
 70
8
 71
3
 72
8
 73
4
 74
0
 40
0
 40
0
 40
0
 40
0
 40
1
 40
1
 40
1
 40
1
 10
75.452900
 20
33.637236
 30
0.0
 10
78.145570
 20
32.350490
 30
0.0
 10
80.078411
 20
30.408980
 30
0.0
 10
81.518724
 20
27.544212
 30
0.0
  0
SPLINE
  5
235
100
AcDbEntity
  8
Layer_1
 62
7
100
AcDbSpline
 70
8
 71
3
 72
8
 73
4
 74
0
 40
0
 40
0
 40
0
 40
0
 40
1
 40
1
 40
1
 40
1
 10
81.518724
 20
27.544212
 30
0.0
 10
84.213878
 20
22.183573
 30
0.0
 10
83.851723
 20
15.070655
 30
0.0
 10
80.632554
 20
10.139389
 30
0.0
  0
SPLINE
  5
236
100
AcDbEntity
  8
Layer_1
 62
7
100
AcDbSpline
 70
8
 71
3
 72
8
 73
4
 74
0
 40
0
 40
0
 40
0
 40
0
 40
1
 40
1
 40
1
 40
1
 10
80.632554
 20
10.139389
 30
0.0
 10
77.931793
 20
6.002237
 30
0.0
 10
73.786705
 20
4.018362
 30
0.0
 10
69.565706
 20
4.842696
 30
0.0
  0
LWPOLYLINE
  5
237
100
AcDbEntity
  8
Layer_1
 62
7
100
AcDbPolyline
 90
1
 70
1
 10
40.365205
 20
23.423169
 30
0.0
  0
SPLINE
  5
238
100
AcDbEntity
  8
Layer_1
 62
7
100
AcDbSpline
 70
8
 71
3
 72
8
 73
4
 74
0
 40
0
 40
0
 40
0
 40
0
 40
1
 40
1
 40
1
 40
1
 10
76.512600
 20
34.275115
 30
0.0
 10
74.562307
 20
35.384236
 30
0.0
 10
72.739012
 20
35.668546
 30
0.0
 10
67.576438
 20
35.668546
 30
0.0
  0
LWPOLYLINE
  5
239
100
AcDbEntity
  8
Layer_1
 62
7
100
AcDbPolyline
 90
1
 70
1
 10
69.565706
 20
4.842696
 30
0.0
  0
SPLINE
  5
23a
100
AcDbEntity
  8
Layer_1
 62
7
100
AcDbSpline
 70
8
 71
3
 72
8
 73
4
 74
0
 40
0
 40
0
 40
0
 40
0
 40
1
 40
1
 40
1
 40
1
 10
64.113132
 20
41.994642
 30
0.0
 10
66.241388
 20
42.540097
 30
0.0
 10
67.681800
 20
43.941951
 30
0.0
 10
67.681800
 20
45.467778
 30
0.0
  0
SPLINE
  5
23b
100
AcDbEntity
  8
Layer_1
 62
7
100
AcDbSpline
 70
8
 71
3
 72
8
 73
4
 74
0
 40
0
 40
0
 40
0
 40
0
 40
1
 40
1
 40
1
 40
1
 10
67.681800
 20
45.467778
 30
0.0
 10
67.681800
 20
46.278120
 30
0.0
 10
66.700271
 20
47.967406
 30
0.0
 10
65.883915
 20
48.562082
 30
0.0
  0
LWPOLYLINE
  5
23c
100
AcDbEntity
  8
Layer_1
 62
7
100
AcDbPolyline
 90
5
 70
0
 10
67.576438
 20
35.668546
 30
0.0
 10
62.972039
 20
35.668546
 30
0.0
 10
62.972039
 20
38.685366
 30
0.0
 10
62.972039
 20
41.702190
 30
0.0
 10
64.113132
 20
41.994642
 30
0.0
  0
SPLINE
  5
23d
100
AcDbEntity
  8
Layer_1
 62
7
100
AcDbSpline
 70
8
 71
3
 72
8
 73
4
 74
0
 40
0
 40
0
 40
0
 40
0
 40
1
 40
1
 40
1
 40
1
 10
66.387095
 20
49.302396
 30
0.0
 10
71.239253
 20
50.524183
 30
0.0
 10
79.290046
 20
49.764704
 30
0.0
 10
81.144510
 20
47.910241
 30
0.0
  0
LWPOLYLINE
  5
23e
100
AcDbEntity
  8
Layer_1
 62
7
100
AcDbPolyline
 90
3
 70
0
 10
65.883915
 20
48.562082
 30
0.0
 10
65.257946
 20
49.018071
 30
0.0
 10
66.387095
 20
49.302396
 30
0.0
  0
SPLINE
  5
23f
100
AcDbEntity
  8
Layer_1
 62
7
100
AcDbSpline
 70
8
 71
3
 72
8
 73
4
 74
0
 40
0
 40
0
 40
0
 40
0
 40
1
 40
1
 40
1
 40
1
 10
81.811073
 20
41.508507
 30
0.0
 10
81.811073
 20
34.943137
 30
0.0
 10
81.834748
 20
35.030813
 30
0.0
 10
79.866262
 20
34.301796
 30
0.0
  0
SPLINE
  5
240
100
AcDbEntity
  8
Layer_1
 62
7
100
AcDbSpline
 70
8
 71
3
 72
8
 73
4
 74
0
 40
0
 40
0
 40
0
 40
0
 40
1
 40
1
 40
1
 40
1
 10
79.866262
 20
34.301796
 30
0.0
 10
77.881364
 20
33.566695
 30
0.0
 10
77.759981
 20
33.565730
 30
0.0
 10
76.512600
 20
34.275113
 30
0.0
  0
LWPOLYLINE
  5
241
100
AcDbEntity
  8
Layer_1
 62
7
100
AcDbPolyline
 90
3
 70
0
 10
81.144510
 20
47.910241
 30
0.0
 10
81.811073
 20
47.243677
 30
0.0
 10
81.811073
 20
41.508507
 30
0.0
  0
LWPOLYLINE
  5
242
100
AcDbEntity
  8
Layer_1
 62
7
100
AcDbPolyline
 90
1
 70
1
 10
76.512600
 20
34.275113
 30
0.0
  0
ENDSEC
  0
SECTION
  2
OBJECTS
  0
DICTIONARY
  5
C
330
0
100
AcDbDictionary
  3
ACAD_GROUP
350
D
  3
ACAD_MLINESTYLE
350
17
  0
DICTIONARY
  5
D
330
C
100
AcDbDictionary
  0
DICTIONARY
  5
1A
330
C
100
AcDbDictionary
  0
DICTIONARY
  5
17
330
C
100
AcDbDictionary
  3
STANDARD
350
18
  0
DICTIONARY
  5
19
330
C
100
AcDbDictionary
  0
ENDSEC
  0
EOF
