<?xml version="1.0" encoding="UTF-8" standalone="no"?>
<svg
   xmlns:dc="http://purl.org/dc/elements/1.1/"
   xmlns:cc="http://creativecommons.org/ns#"
   xmlns:rdf="http://www.w3.org/1999/02/22-rdf-syntax-ns#"
   xmlns:svg="http://www.w3.org/2000/svg"
   xmlns="http://www.w3.org/2000/svg"
   xmlns:sodipodi="http://sodipodi.sourceforge.net/DTD/sodipodi-0.dtd"
   xmlns:inkscape="http://www.inkscape.org/namespaces/inkscape"
   width="180mm"
   height="180mm"
   viewBox="0 0 180 180"
   version="1.1"
   id="svg8"
   sodipodi:docname="amanda-kate-dw-logo.svg"
   inkscape:version="1.0.1 (3bc2e813f5, 2020-09-07)">
  <sodipodi:namedview
     pagecolor="#ffffff"
     bordercolor="#666666"
     borderopacity="1"
     objecttolerance="10"
     gridtolerance="10"
     guidetolerance="10"
     inkscape:pageopacity="0"
     inkscape:pageshadow="2"
     inkscape:window-width="1528"
     inkscape:window-height="836"
     id="namedview22"
     showgrid="false"
     inkscape:zoom="0.63797236"
     inkscape:cx="312.26535"
     inkscape:cy="488.86848"
     inkscape:window-x="72"
     inkscape:window-y="27"
     inkscape:window-maximized="1"
     inkscape:current-layer="layer1"
     inkscape:document-rotation="0" />
  <defs
     id="defs2">
    <rect
       x="15.418223"
       y="5.8839231"
       width="169.0446"
       height="12.827102"
       id="rect835" />
    <rect
       x="29.485184"
       y="8.5821171"
       width="166.12508"
       height="27.459839"
       id="rect23" />
    <rect
       x="11.854147"
       y="7.1814656"
       width="179.04823"
       height="33.48037"
       id="rect3484" />
    <rect
       x="15.418223"
       y="5.8839231"
       width="169.0446"
       height="12.827102"
       id="rect835-2" />
    <rect
       x="15.418223"
       y="5.8839231"
       width="169.0446"
       height="12.827102"
       id="rect861" />
  </defs>
  <metadata
     id="metadata5">
    <rdf:RDF>
      <cc:Work
         rdf:about="">
        <dc:format>image/svg+xml</dc:format>
        <dc:type
           rdf:resource="http://purl.org/dc/dcmitype/StillImage" />
        <dc:title></dc:title>
      </cc:Work>
    </rdf:RDF>
  </metadata>
  <g
     id="layer1">
    <g
       id="g916"
       transform="matrix(0.7293986,0,0,0.7293986,-3.7264284,28.779648)">
      <path
         style="fill:none;stroke:#000000;stroke-width:0.264583;stroke-miterlimit:4;stroke-dasharray:none;stroke-opacity:1"
         d="m 185.3991,199.02406 c -0.24685,-0.64324 -0.96911,-0.9334 -1.66182,-0.66758 -0.88625,0.34008 -1.08992,0.1176 -0.73619,-0.80421 0.4476,-1.16642 -5.91523,-1.27436 -75.12368,-1.27436 H 32.264723 v -7.86202 c 0,-4.32411 -0.34544,-8.07552 -0.767645,-8.33646 -0.422205,-0.26093 -1.828097,0.074 -3.124202,0.74419 -3.426986,1.77217 -3.683258,1.50128 -0.841707,-0.88971 2.505633,-2.10835 2.505633,-2.10835 0.65383,-3.13546 -1.851803,-1.0271 -1.851803,-1.0271 0.0096,-1.05512 1.845857,-0.0278 1.840909,-0.0513 -0.593156,-2.8236 -3.30106,-3.75969 -3.090609,-4.16809 0.62954,-1.22167 3.084069,2.44262 3.084069,2.44262 3.87261,-0.5267 0.78854,-2.96933 0.78854,-2.96933 0.870275,-0.31326 0.07643,2.48434 0.220971,2.62111 2.23516,2.1156 2.075565,-0.52095 2.104152,-0.48606 0.79087,0.96511 -1.885339,2.08327 -1.731536,2.34756 1.122404,1.9287 1.7214,-0.25265 2.314584,-0.0891 1.930498,0.5324 -0.403688,0.65318 2.566779,0.89712 10.923998,0.89712 11.47845,0 11.47845,0 12.031845,-2.96575 0.304374,-1.63118 1.722991,-6.44305 3.152484,-10.69309 2.134619,-6.34637 2.455776,-8.1384 1.79714,-10.02778 -1.381667,-3.96345 -0.602237,-6.60633 2.388695,-8.09952 2.233041,-1.11481 3.655542,-3.20938 8.539225,-12.57357 3.222912,-6.17975 6.376854,-11.97408 7.008771,-12.87627 1.489305,-2.12626 1.46323,-3.66099 -0.06224,-3.66099 -1.6524,0 -2.442992,-2.36751 -1.079009,-3.23118 0.607109,-0.38441 2.05183,-0.7044 3.210493,-0.71105 1.866121,-0.0108 2.94141,-1.38921 9.417537,-12.07288 12.432201,-20.509393 25.449381,-39.102277 29.737911,-42.475632 2.18905,-1.721902 5.37772,-2.138918 6.19862,-0.810658 0.27354,0.442584 -2.30394,4.624309 -5.72774,9.29272 -9.04766,12.336657 -16.8206,23.684827 -16.8206,24.557395 0,1.271728 5.44929,1.872709 12.19055,1.344448 3.5172,-0.275614 8.10741,-0.166586 10.20047,0.24229 3.38242,0.660745 3.74277,0.599849 3.24068,-0.547652 -2.10155,-4.8031 0.0684,-10.386071 4.03665,-10.386071 1.0302,0 2.07857,-0.332453 2.3297,-0.738788 0.25113,-0.406344 1.73657,-0.53109 3.30097,-0.277225 2.71222,0.440139 2.81706,0.373412 2.25664,-1.436093 -0.32324,-1.043721 -1.23485,-3.180848 -2.02577,-4.749171 -1.51628,-3.006658 -3.76779,-11.072134 -4.39217,-15.733944 -0.67645,-5.05053 -1.05985,-6.148216 -2.31585,-6.630184 -0.97152,-0.372812 -1.14574,-0.0881 -0.79353,1.296788 0.45133,1.774482 0.45133,1.774482 -0.47041,-0.01807 -0.66841,-1.299905 -1.37595,-1.666032 -2.57449,-1.332216 -1.33006,0.370447 -1.42113,0.295792 -0.46645,-0.382351 1.05448,-0.749046 1.05448,-0.929206 0,-1.621436 -0.93292,-0.612417 -0.95447,-0.781346 -0.1009,-0.79087 0.90542,-0.01005 0.91175,-0.241637 0.038,-1.396133 -0.89095,-1.177427 -0.8818,-1.236454 0.0614,-0.395435 1.50889,1.345522 2.19168,1.242456 2.6197,-0.395434 0.32635,-1.248818 0.37065,-1.240553 0.45343,0.08461 0.0615,0.986264 0.49487,1.31394 1.31912,0.997646 0.67506,-0.259045 1.02659,-0.14611 0.78119,0.250966 -0.2454,0.397075 0.003,0.875757 0.55208,1.063738 0.54905,0.18798 0.40208,0.255195 -0.3266,0.149368 -0.84344,-0.122496 -1.17256,0.204465 -0.90571,0.899836 0.23052,0.600737 0.74694,0.889652 1.14761,0.642035 0.40065,-0.247618 1.11401,0.6558 1.58525,2.007593 0.68978,1.978706 1.1716,2.357892 2.47178,1.945231 1.34277,-0.426178 1.51304,-0.263904 1.0102,0.962711 -1.38875,3.387587 -1.21911,4.355892 1.75073,9.992819 1.71097,3.247532 4.10918,9.544726 5.32937,13.993762 1.65681,6.041072 2.98991,9.115791 5.26524,12.143961 2.9467,3.921699 3.04672,4.263705 3.04672,10.418926 0,7.1234 -2.29871,16.90796 -4.77812,20.33827 -1.70889,2.36426 -1.92488,4.2784 -0.81284,7.20327 0.4048,1.06471 0.84966,5.67528 0.98859,10.2457 0.25258,8.30987 0.25258,8.30987 2.45156,6.7442 3.42017,-2.43515 11.15731,-11.7969 14.68396,-17.76727 5.09282,-8.62179 7.4195,-16.55882 7.84852,-26.77382 0.42996,-10.237531 -0.72261,-15.927784 -4.99742,-24.672195 C 166.0152,57.918743 144.23858,43.553732 116.09688,38.509141 106.04723,36.707668 82.37026,36.046792 71.820355,37.273283 46.707759,40.192777 29.39493,49.455115 22.329646,63.750734 c -4.790336,9.69259 -4.567466,17.631045 0.823093,29.318668 3.216477,6.973848 15.287016,23.329008 17.218349,23.330268 0.326239,2.3e-4 0.593155,-0.91034 0.593155,-2.02346 0,-1.14784 0.342322,-1.81227 0.790871,-1.53506 0.43498,0.26883 0.79087,1.17075 0.79087,2.00428 0,1.32445 0.272651,1.41183 2.163025,0.69309 2.163035,-0.82237 2.163035,-0.82237 0.197716,1.27582 -1.965309,2.09817 -1.965309,2.09817 1.198174,1.63225 3.163483,-0.46592 3.163483,-0.46592 0.593155,0.72321 -2.834338,1.31129 -3.254415,2.33462 -1.270827,3.09579 0.714727,0.27427 1.101095,0.69708 0.858604,0.93956 -0.24249,0.24249 -1.218321,0.0249 -2.16851,-0.48369 -1.64937,-0.88272 -1.70499,-0.80503 -1.228228,1.71538 0.499375,2.63998 0.499375,2.63998 -0.81709,0.26736 -0.724058,-1.30493 -1.414378,-2.48782 -1.53405,-2.62864 -0.119673,-0.14082 -1.300661,0.30405 -2.624416,0.98859 -3.319626,1.71663 -3.887157,1.55737 -1.405737,-0.39453 2.545423,-2.00222 2.595731,-2.61749 0.304374,-3.72257 -0.978698,-0.472 -1.360522,-0.88228 -0.848487,-0.91171 0.512035,-0.0294 -1.188219,-2.27786 -3.778351,-4.99648 C 26.094666,106.64605 18.665454,95.653002 16.469718,89.784367 10.007793,72.513323 17.258288,55.819431 35.981601,44.85923 60.463018,30.528378 111.73581,27.558928 140.06769,38.831116 c 12.09853,4.813555 19.89862,9.477546 28.77047,17.203053 21.71689,18.910839 25.91558,47.174101 10.76562,72.468271 -3.66946,6.12647 -14.25849,17.87724 -19.89004,22.07225 -2.64905,1.97329 -2.64905,1.97329 -1.0015,7.82313 0.90616,3.21743 2.78584,8.78597 4.1771,12.37455 2.52954,6.52466 2.52954,6.52466 12.66683,6.52466 h 10.13728 v 8.78419 c 0,7.81965 0.14254,8.72948 1.29816,8.28603 1.08545,-0.41653 1.13438,-0.30079 0.2986,0.70625 -0.54977,0.66243 -0.65941,1.20441 -0.24368,1.20441 1.07882,0 0.9346,1.8797 -0.2275,2.96526 -0.75205,0.70251 -1.0861,0.65097 -1.41999,-0.21911 z m -24.5334,-22.97802 c -0.26403,-0.68804 -0.48005,-1.77387 -0.48005,-2.41296 0,-0.63909 -1.24562,-1.68243 -2.76804,-2.31853 -2.97718,-1.24395 -3.14747,-1.61618 -2.05449,-4.49092 0.53471,-1.40642 0.26057,-2.81667 -1.09384,-5.62691 -0.99406,-2.06255 -1.9988,-3.94153 -2.23277,-4.17549 -0.23396,-0.23396 -5.52497,2.06224 -11.75781,5.10266 -18.52691,9.03758 -32.38209,13.02765 -45.339821,13.05714 -12.205001,0.0278 -19.331516,-3.48982 -23.458182,-11.57875 -1.017758,-1.99498 -1.854968,-2.82911 -2.346336,-2.33775 -0.781789,0.7818 -4.065721,9.94776 -4.964834,13.85761 -0.500143,2.17489 -0.500143,2.17489 48.238043,2.17489 44.11792,0 48.69267,-0.11858 48.25813,-1.25099 z m -47.62665,-7.55728 c 4.30038,-0.8758 10.57716,-2.60938 13.9484,-3.85241 7.07872,-2.61 19.29298,-8.60923 22.00806,-10.8096 1.81557,-1.47139 1.83186,-1.59882 0.69399,-5.42878 -0.64086,-2.15711 -2.45163,-6.44578 -4.02393,-9.53034 -1.57231,-3.08459 -3.33541,-7.71118 -3.91802,-10.28131 -1.05926,-4.67299 -1.05926,-4.67299 -8.512,-5.22806 -4.09902,-0.30529 -10.29987,-1.31402 -13.7797,-2.24162 -11.68546,-3.11491 -16.98962,-3.99643 -22.350581,-3.71453 -5.329864,0.28026 -5.329864,0.28026 -11.053605,9.7227 -8.970936,14.79932 -13.65258,24.43214 -13.65258,28.0912 0,13.4198 15.331649,18.42702 40.639966,13.27275 z m 27.37484,-56.0277 c 6.86099,-4.48895 7.00194,-4.62942 6.54672,-6.52421 -0.69744,-2.90301 -4.99629,-6.935918 -7.3933,-6.935918 -1.16491,0 -3.6753,-0.5503 -5.57865,-1.222881 -4.001,-1.413832 -12.07407,-2.341724 -20.21027,-2.322899 -4.493,0.01036 -5.50402,-0.195854 -4.8461,-0.988585 0.60904,-0.73384 0.50911,-1.001724 -0.37367,-1.001724 -1.0226,0 -11.69236,15.338567 -12.950567,18.617407 -0.666106,1.73583 3.009892,2.19268 10.561127,1.31251 5.30558,-0.61841 7.53027,-0.5683 9.69112,0.21826 1.61967,0.58958 6.64741,1.0538 11.89968,1.09873 8.79534,0.0752 9.21227,7.9e-4 12.65391,-2.25069 z m -86.535819,16.08021 c -0.27573,-0.71857 -0.982584,-1.03767 -1.693906,-0.7647 -0.766139,0.29399 -1.020435,0.14436 -0.682879,-0.40181 0.295801,-0.47862 0.04737,-1.18087 -0.552082,-1.56057 -0.92044,-0.58299 -0.92114,-0.69221 -0.0048,-0.70245 0.919988,-0.0104 0.919988,-0.22304 0,-1.39612 -0.993698,-1.26706 -0.963365,-1.28808 0.358873,-0.24858 1.25507,0.9867 1.538434,0.9867 2.162785,0 0.575289,-0.90916 0.720893,-0.92157 0.730589,-0.0623 0.0077,0.66852 0.501629,0.88536 1.310279,0.57505 1.129914,-0.43359 1.156344,-0.32726 0.203921,0.82033 -0.98358,1.18516 -0.894912,1.26316 0.876729,0.77122 1.65592,-0.4598 1.747081,-0.40706 0.570312,0.32996 -0.770358,0.48249 -1.252577,1.12228 -1.071596,1.42178 0.18098,0.2995 -0.135429,0.97356 -0.703142,1.49791 -0.812717,0.75064 -1.132819,0.69115 -1.505397,-0.27978 z M 151.4057,39.25656 c -1.44172,-3.485758 -1.44172,-3.485758 -4.73274,-1.846013 -3.29101,1.639744 -3.29101,1.639744 -0.52296,-0.778458 1.52241,-1.330011 2.39119,-2.432665 1.9306,-2.450344 -0.46058,-0.01767 -1.52148,-0.53234 -2.35757,-1.143694 -1.40845,-1.029891 -1.34694,-1.080558 0.83744,-0.689646 2.35757,0.421909 2.35757,0.421909 -0.21277,-2.287294 -3.49789,-3.68688 -3.2388,-4.482556 0.49635,-1.524274 3.06665,2.428844 3.06665,2.428844 3.68947,-0.13126 0.62283,-2.560106 0.62283,-2.560106 0.94706,-0.314377 0.28714,1.988754 0.56385,2.185588 2.41828,1.720156 2.09405,-0.525574 2.09405,-0.525574 0.53379,1.216748 -1.56027,1.742321 -1.56027,1.742321 1.40549,1.404413 1.63117,-0.185849 2.96576,-0.236201 2.96576,-0.111894 0,0.124309 -1.29756,0.768174 -2.88348,1.430814 -2.87057,1.1994 -2.87678,1.212362 -1.38403,2.893735 1.49291,1.681544 1.49138,1.684692 -0.34772,0.718913 -2.40244,-1.261604 -2.69975,-0.85262 -1.62385,2.233734 1.34856,3.868458 0.47576,3.611497 -1.15912,-0.341259 z"
         id="path3474"
         sodipodi:nodetypes="cssscsscssscsssssssssssssssscssssssscssssssscsssscccscsssssssscsssssssssscsssssssscssssscsssssscsssssssssscsssssccssssssssssssssssssssssssscssscssssscccssscssscssssssccsssssssssssssssssss" />
      <text
         xml:space="preserve"
         id="text833"
         style="font-style:normal;font-variant:normal;font-weight:bold;font-stretch:normal;font-size:10.5833px;line-height:1.25;font-family:'Dance fever';-inkscape-font-specification:'Dance fever Bold';letter-spacing:0px;word-spacing:0px;white-space:pre;shape-inside:url(#rect835);fill:none;stroke:#000000;stroke-width:0.0875822;stroke-miterlimit:4;stroke-dasharray:none;stroke-opacity:1;"
         transform="matrix(3.020971,0,0,3.020971,-27.396924,-20.169837)"><tspan
           x="15.417969"
           y="15.41772"><tspan
             style="font-style:normal;font-variant:normal;font-weight:bold;font-stretch:normal;font-family:'Dance fever';-inkscape-font-specification:'Dance fever Bold';fill:none;stroke:#000000;stroke-width:0.0875822;stroke-miterlimit:4;stroke-dasharray:none;stroke-opacity:1">Summer</tspan></tspan></text>
      <g
         aria-label="Danceworks"
         transform="matrix(2.7123403,0,0,2.2680683,9.2383256,159.8904)"
         id="text833-5"
         style="font-style:normal;font-variant:normal;font-weight:bold;font-stretch:normal;font-size:10.5833px;line-height:1.25;font-family:'Dance fever';-inkscape-font-specification:'Dance fever Bold';letter-spacing:0px;word-spacing:0px;white-space:pre;shape-inside:url(#rect835-2);fill:none;stroke:#000000;stroke-width:0.106675;stroke-miterlimit:4;stroke-dasharray:none;stroke-opacity:1">
        <path
           d="m 16.027749,8.2243831 h 0.186034 q 0.191202,0 0.496092,0.1446936 l 0.186035,-0.041341 h 2.356438 q 1.943027,0 2.790518,1.8396753 0.186035,0.50126 0.186035,0.909502 v 1.591629 q 0,1.384924 -1.426265,2.377108 -0.728636,0.37207 -1.322913,0.37207 h -1.922357 q -0.697629,0 -1.074866,-0.888832 L 16.46183,14.280842 V 9.3819315 Q 16.404985,9.0718739 16.06909,9.0718739 15.67635,8.9840242 15.67635,8.7204753 V 8.5757817 q 0.10852,-0.3513986 0.351399,-0.3513986 z m 1.281571,0.9715138 0.02067,0.2480461 -0.02067,4.816228 q 0.07752,0.310058 0.351399,0.310058 h 1.63297 q 1.395259,0 1.963698,-1.343583 0.124023,-0.30489 0.124023,-0.682127 v -1.322912 q 0,-1.2453984 -1.21956,-1.860346 -0.372069,-0.1653641 -0.723468,-0.1653641 z"
           id="path881"
           style="fill:none;stroke:#000000;stroke-width:0.106675;stroke-miterlimit:4;stroke-dasharray:none;stroke-opacity:1" />
        <path
           d="m 24.306287,10.53948 h 0.268716 q 1.090369,0 1.715652,0.847491 0.165364,0.294554 0.165364,0.516762 v 2.315097 q 0,0.39274 0.248046,0.454751 0.144694,0.129191 0.144694,0.248046 v 0.144694 q 0,0.258381 -0.372069,0.351399 h -0.124023 q -0.28422,0 -0.516763,-0.351399 -0.723468,0.351399 -1.157548,0.351399 h -0.372069 q -0.98185,0 -1.63297,-0.744139 -0.227376,-0.320393 -0.227376,-0.599444 v -0.206705 q 0,-0.862994 1.302242,-1.302242 1.839675,-0.382405 1.839675,-0.558104 v -0.06201 q -0.170532,-0.52193 -1.136878,-0.558103 -0.842323,0 -1.136878,0.496092 0,0.516763 -0.496092,0.516763 -0.372069,-0.113688 -0.372069,-0.39274 v -0.124023 q 0,-0.754474 1.136878,-1.21956 0.387572,-0.124023 0.723468,-0.124023 z m -1.012855,3.472645 q 0,0.191202 0.41341,0.41341 0.356566,0.144694 0.744138,0.144694 0.966346,-0.03617 1.136878,-0.558104 V 12.99927 l -1.756993,0.434081 q -0.537433,0.191202 -0.537433,0.578774 z"
           id="path883"
           style="fill:none;stroke:#000000;stroke-width:0.106675;stroke-miterlimit:4;stroke-dasharray:none;stroke-opacity:1" />
        <path
           d="m 27.143314,10.53948 h 0.124023 q 0.32556,0 0.640785,0.516763 0.583942,-0.516763 1.178219,-0.516763 h 0.227376 q 1.018022,0 1.715652,1.136878 0.268717,0.527098 0.268717,1.136878 v 2.253085 q -0.108521,0.351399 -0.351399,0.351399 h -0.144694 q -0.263549,0 -0.351398,-0.39274 v -1.343583 q 0,-1.462438 -0.186035,-1.6123 -0.392739,-0.682126 -1.033525,-0.682126 -0.82682,0 -1.157549,0.971514 -0.06201,0.165364 -0.06201,0.351398 v 2.232415 q -0.04651,0.475422 -0.39274,0.475422 h -0.08268 q -0.310057,0 -0.392739,-0.413411 v -3.431304 q 0,-0.201537 -0.206705,-0.268716 -0.165365,-0.139526 -0.165365,-0.268717 v -0.144693 q 0,-0.258382 0.37207,-0.351399 z"
           id="path885"
           style="fill:none;stroke:#000000;stroke-width:0.106675;stroke-miterlimit:4;stroke-dasharray:none;stroke-opacity:1" />
        <path
           d="m 33.985252,10.53948 h 0.206705 q 0.868161,0 1.570958,0.80615 l 0.04134,0.165364 v 0.08268 q 0,0.30489 -0.41341,0.392739 -0.19637,0 -0.599445,-0.392739 -0.351398,-0.206705 -0.723467,-0.206705 -0.976682,0 -1.364254,1.198889 l -0.04134,0.41341 q 0,1.054196 1.012855,1.508947 0.21704,0.06201 0.41341,0.06201 0.578774,0 1.074867,-0.537433 l 0.227375,-0.06201 q 0.41341,0.08785 0.41341,0.39274 v 0.08268 q 0,0.392739 -0.992184,0.847491 -0.310058,0.124023 -0.620115,0.124023 h -0.206705 q -1.147214,0 -1.901687,-1.260901 -0.268717,-0.558104 -0.268717,-1.054196 v -0.248046 q 0,-1.255734 1.260901,-2.087722 0.516763,-0.227375 0.909503,-0.227375 z"
           id="path887"
           style="fill:none;stroke:#000000;stroke-width:0.106675;stroke-miterlimit:4;stroke-dasharray:none;stroke-opacity:1" />
        <path
           d="m 37.757619,10.53948 h 0.248046 q 0.831988,0 1.529617,0.950843 0.289387,0.516763 0.289387,0.640786 v 0.144693 q 0,0.19637 -0.620115,0.640786 l -1.819005,1.508947 v 0.02067 q 0.28422,0.124023 0.537434,0.124023 0.620115,0 1.095537,-0.909503 0.186034,-0.103352 0.289387,-0.103352 0.392739,0 0.43408,0.475422 -0.289387,0.811317 -1.074866,1.21956 -0.397907,0.165364 -0.661456,0.165364 h -0.248046 q -0.91467,0 -1.63297,-1.116208 -0.310058,-0.656288 -0.310058,-1.157548 v -0.330728 q 0,-1.080034 0.971514,-1.922357 0.542601,-0.351399 0.971514,-0.351399 z m -1.095537,2.45979 q 0.06201,0.692462 0.186034,0.764809 0.800982,-0.69763 2.04638,-1.674311 -0.397907,-0.702797 -1.033525,-0.702797 -0.852658,0 -1.178219,1.281571 z"
           id="path889"
           style="fill:none;stroke:#000000;stroke-width:0.106675;stroke-miterlimit:4;stroke-dasharray:none;stroke-opacity:1" />
        <path
           d="m 39.902186,10.518809 h 0.144693 q 0.527098,0 0.888832,1.074867 0.656289,2.935212 0.785479,2.935212 l 0.02067,0.02067 q 0.160196,-0.201537 0.599445,-2.211744 0.242878,-1.012855 0.351398,-1.012855 0.149861,-0.103352 0.268717,-0.103352 0.439248,0 0.537433,0.868161 0.516763,2.118727 0.640786,2.397779 l 0.06201,0.06201 q 0.155029,-0.160196 0.682127,-2.521802 0.211873,-0.987016 0.599445,-1.343583 0.268716,-0.165364 0.392739,-0.165364 h 0.144694 q 0.41341,0.07235 0.41341,0.39274 v 0.08268 q 0,0.294555 -0.454751,0.41341 -0.124023,0.186035 -0.80615,3.100576 -0.366901,0.909503 -0.847491,0.909503 h -0.268716 q -0.527098,0 -0.888832,-1.074867 l -0.186035,-0.847491 h -0.04134 q -0.201537,1.043861 -0.43408,1.467606 -0.351399,0.454752 -0.640786,0.454752 h -0.268717 q -0.558103,0 -0.909502,-1.136878 -0.651121,-2.893871 -0.785479,-2.893871 -0.41341,-0.09819 -0.41341,-0.39274 v -0.08268 q 0,-0.320393 0.41341,-0.39274 z"
           id="path891"
           style="fill:none;stroke:#000000;stroke-width:0.106675;stroke-miterlimit:4;stroke-dasharray:none;stroke-opacity:1" />
        <path
           d="m 48.036029,10.53948 h 0.248046 q 0.91467,0 1.612299,1.095537 0.330728,0.620115 0.330728,1.198889 v 0.289387 q 0,1.157549 -1.033525,1.984369 -0.506427,0.310058 -0.909502,0.310058 h -0.248046 q -0.91467,0 -1.6123,-1.095537 -0.330728,-0.625283 -0.330728,-1.19889 v -0.289387 q 0,-1.157548 1.033525,-1.984368 0.506428,-0.310058 0.909503,-0.310058 z m -1.095537,2.45979 q 0,1.090369 0.930172,1.529618 l 0.289388,0.04134 q 0.899167,0 1.198889,-1.302242 l 0.02067,-0.310058 q 0,-1.090369 -0.930172,-1.529617 l -0.289387,-0.04134 q -0.899167,0 -1.19889,1.302242 z"
           id="path893"
           style="fill:none;stroke:#000000;stroke-width:0.106675;stroke-miterlimit:4;stroke-dasharray:none;stroke-opacity:1" />
        <path
           d="m 50.444142,10.53948 h 0.144694 q 0.32556,0 0.640785,0.516763 0.542601,-0.516763 1.136878,-0.516763 h 0.206705 q 0.7183,0 0.992185,0.454751 v 0.165364 q 0,0.315225 -0.434081,0.39274 -0.480589,-0.165364 -0.599445,-0.165364 h -0.06201 q -0.733803,0 -1.074867,0.992184 l -0.04134,0.310058 v 2.232414 q -0.04651,0.496093 -0.392739,0.496093 h -0.124023 q -0.351399,-0.09818 -0.351399,-0.413411 v -3.26594 q 0,-0.392739 -0.186035,-0.392739 -0.206705,-0.180867 -0.206705,-0.310058 v -0.144693 q 0.108521,-0.351399 0.351399,-0.351399 z"
           id="path895"
           style="fill:none;stroke:#000000;stroke-width:0.106675;stroke-miterlimit:4;stroke-dasharray:none;stroke-opacity:1" />
        <path
           d="m 53.813438,8.3277356 h 0.124023 q 0.542601,0 0.744138,0.9921844 l 0.02067,0.165364 -0.02067,0.1446936 v 2.9765534 q 2.532137,-2.067051 2.583813,-2.067051 l 0.124023,-0.02067 h 0.02067 q 0.41341,0.07235 0.41341,0.39274 v 0.08268 q 0,0.242879 -0.682127,0.702797 l -0.640785,0.558104 q 1.322912,2.594149 1.322912,2.666495 v 0.144694 q -0.10852,0.351399 -0.351399,0.351399 h -0.144693 q -0.273884,0 -0.640786,-0.909503 l -0.868161,-1.715652 -1.136878,0.930173 v 1.21956 q -0.04651,0.475422 -0.39274,0.475422 h -0.08268 q -0.346231,0 -0.392739,-0.475422 V 9.5472956 l 0.02067,-0.1240231 q 0,-0.2738842 -0.186034,-0.2893871 Q 53.441369,8.9530185 53.441369,8.8238278 V 8.6791343 q 0,-0.2583814 0.372069,-0.3513987 z"
           id="path897"
           style="fill:none;stroke:#000000;stroke-width:0.106675;stroke-miterlimit:4;stroke-dasharray:none;stroke-opacity:1" />
        <path
           d="m 60.200621,10.53948 h 1.012855 q 0.800982,0 1.095537,0.620115 l 0.02067,0.124023 v 0.144694 q -0.10852,0.351398 -0.351398,0.351398 h -0.103353 q -0.242878,0 -0.41341,-0.330728 -0.134358,-0.06201 -0.330728,-0.06201 h -0.78548 q -0.811317,0 -1.136877,0.475421 l -0.02067,0.124023 q 0,0.335896 0.578774,0.454752 1.767329,0.253213 2.149733,0.599444 0.41341,0.408243 0.41341,0.826821 v 0.206705 q 0,0.728635 -1.074866,1.198889 -0.428913,0.144694 -0.78548,0.144694 h -1.012854 q -0.795815,0 -1.095537,-0.620116 l -0.02067,-0.124023 v -0.124023 q 0.09302,-0.372069 0.351399,-0.372069 h 0.103352 q 0.237711,0 0.413411,0.330728 0.134358,0.06201 0.330728,0.06201 h 0.785479 q 0.811317,0 1.136878,-0.475422 l 0.02067,-0.124023 q 0,-0.335896 -0.578774,-0.454751 -1.767328,-0.253214 -2.149733,-0.599445 -0.41341,-0.41341 -0.41341,-0.82682 v -0.206705 q 0,-0.754474 1.136878,-1.21956 0.387572,-0.124023 0.723468,-0.124023 z"
           id="path899"
           style="fill:none;stroke:#000000;stroke-width:0.106675;stroke-miterlimit:4;stroke-dasharray:none;stroke-opacity:1" />
      </g>
    </g>
  </g>
</svg>
