  0
SECTION
  2
HEADER
  9
$ACADVER
  1
AC1014
  9
$HANDSEED
  5
FFFF
  9
$MEASUREMENT
 70
     1
  0
ENDSEC
  0
SECTION
  2
TABLES
  0
TABLE
  2
VPORT
  5
8
330
0
100
AcDbSymbolTable
 70
     4
  0
VPORT
  5
2E
330
8
100
AcDbSymbolTableRecord
100
AcDbViewportTableRecord
  2
*ACTIVE
 70
     0
 10
0.0
 20
0.0
 11
1.0
 21
1.0
 12
210.0
 22
148.5
 13
0.0
 23
0.0
 14
10.0
 24
10.0
 15
10.0
 25
10.0
 16
0.0
 26
0.0
 36
1.0
 17
0.0
 27
0.0
 37
0.0
 40
341.0
 41
1.24
 42
50.0
 43
0.0
 44
0.0
 50
0.0
 51
0.0
 71
     0
 72
   100
 73
     1
 74
     3
 75
     0
 76
     0
 77
     0
 78
     0
  0
ENDTAB
  0
TABLE
  2
LTYPE
  5
5
330
0
100
AcDbSymbolTable
 70
     1
  0
LTYPE
  5
14
330
5
100
AcDbSymbolTableRecord
100
AcDbLinetypeTableRecord
  2
BYBLOCK
 70
     0
  3

 72
    65
 73
     0
 40
0.0
  0
LTYPE
  5
15
330
5
100
AcDbSymbolTableRecord
100
AcDbLinetypeTableRecord
  2
BYLAYER
 70
     0
  3

 72
    65
 73
     0
 40
0.0
  0
LTYPE
  5
16
330
5
100
AcDbSymbolTableRecord
100
AcDbLinetypeTableRecord
  2
CONTINUOUS
 70
     0
  3
Solid line
 72
    65
 73
     0
 40
0.0
  0
ENDTAB
  0
TABLE
  2
LAYER
  5
2
100
AcDbSymbolTable
 70
1
  0
LAYER
  5
50
100
AcDbSymbolTableRecord
100
AcDbLayerTableRecord
  2
0
 70
0
  6
CONTINUOUS
  0
ENDTAB
  0
TABLE
  2
STYLE
  5
3
330
0
100
AcDbSymbolTable
 70
     1
  0
STYLE
  5
11
330
3
100
AcDbSymbolTableRecord
100
AcDbTextStyleTableRecord
  2
STANDARD
 70
     0
 40
0.0
 41
1.0
 50
0.0
 71
     0
 42
2.5
  3
txt
  4

  0
ENDTAB
  0
TABLE
  2
VIEW
  5
6
330
0
100
AcDbSymbolTable
 70
     0
  0
ENDTAB
  0
TABLE
  2
UCS
  5
7
330
0
100
AcDbSymbolTable
 70
     0
  0
ENDTAB
  0
TABLE
  2
APPID
  5
9
330
0
100
AcDbSymbolTable
 70
     2
  0
APPID
  5
12
330
9
100
AcDbSymbolTableRecord
100
AcDbRegAppTableRecord
  2
ACAD
 70
     0
  0
ENDTAB
  0
TABLE
  2
DIMSTYLE
  5
A
330
0
100
AcDbSymbolTable
 70
     1
  0
DIMSTYLE
105
27
330
A
100
AcDbSymbolTableRecord
100
AcDbDimStyleTableRecord
  2
ISO-25
 70
     0
  3

  4

  5

  6

  7

 40
1.0
 41
2.5
 42
0.625
 43
3.75
 44
1.25
 45
0.0
 46
0.0
 47
0.0
 48
0.0
140
2.5
141
2.5
142
0.0
143
0.03937007874016
144
1.0
145
0.0
146
1.0
147
0.625
 71
     0
 72
     0
 73
     0
 74
     0
 75
     0
 76
     0
 77
     1
 78
     8
170
     0
171
     3
172
     1
173
     0
174
     0
175
     0
176
     0
177
     0
178
     0
270
     2
271
     2
272
     2
273
     2
274
     3
340
11
275
     0
280
     0
281
     0
282
     0
283
     0
284
     8
285
     0
286
     0
287
     3
288
     0
  0
ENDTAB
  0
TABLE
  2
BLOCK_RECORD
  5
1
330
0
100
AcDbSymbolTable
 70
     1
  0
BLOCK_RECORD
  5
1F
330
1
100
AcDbSymbolTableRecord
100
AcDbBlockTableRecord
  2
*MODEL_SPACE
  0
BLOCK_RECORD
  5
1B
330
1
100
AcDbSymbolTableRecord
100
AcDbBlockTableRecord
  2
*PAPER_SPACE
  0
ENDTAB
  0
ENDSEC
  0
SECTION
  2
BLOCKS
  0
BLOCK
  5
20
330
1F
100
AcDbEntity
  8
0
100
AcDbBlockBegin
  2
*MODEL_SPACE
 70
     0
 10
0.0
 20
0.0
 30
0.0
  3
*MODEL_SPACE
  1

  0
ENDBLK
  5
21
330
1F
100
AcDbEntity
  8
0
100
AcDbBlockEnd
  0
BLOCK
  5
1C
330
1B
100
AcDbEntity
 67
     1
  8
0
100
AcDbBlockBegin
  2
*PAPER_SPACE
  1

  0
ENDBLK
  5
1D
330
1B
100
AcDbEntity
 67
     1
  8
0
100
AcDbBlockEnd
  0
ENDSEC
  0
SECTION
  2
ENTITIES
  0
SPLINE
  5
100
100
AcDbEntity
  8
0
 62
7
100
AcDbSpline
 70
8
 71
3
 72
8
 73
4
 74
0
 40
0
 40
0
 40
0
 40
0
 40
1
 40
1
 40
1
 40
1
 10
131.503488
 20
6.052450
 30
0.0
 10
131.323436
 20
6.521628
 30
0.0
 10
130.796620
 20
6.733271
 30
0.0
 10
130.291358
 20
6.539382
 30
0.0
  0
SPLINE
  5
101
100
AcDbEntity
  8
0
 62
7
100
AcDbSpline
 70
8
 71
3
 72
8
 73
4
 74
0
 40
0
 40
0
 40
0
 40
0
 40
1
 40
1
 40
1
 40
1
 10
130.291358
 20
6.539382
 30
0.0
 10
129.644928
 20
6.291328
 30
0.0
 10
129.496372
 20
6.453605
 30
0.0
 10
129.754382
 20
7.125972
 30
0.0
  0
SPLINE
  5
102
100
AcDbEntity
  8
0
 62
7
100
AcDbSpline
 70
8
 71
3
 72
8
 73
4
 74
0
 40
0
 40
0
 40
0
 40
0
 40
1
 40
1
 40
1
 40
1
 10
129.754382
 20
7.125972
 30
0.0
 10
130.080861
 20
7.976757
 30
0.0
 10
125.439819
 20
8.055489
 30
0.0
 10
74.959245
 20
8.055489
 30
0.0
  0
SPLINE
  5
103
100
AcDbEntity
  8
0
 62
7
100
AcDbSpline
 70
8
 71
3
 72
8
 73
4
 74
0
 40
0
 40
0
 40
0
 40
0
 40
1
 40
1
 40
1
 40
1
 10
19.807427
 20
13.790038
 30
0.0
 10
19.807427
 20
16.944040
 30
0.0
 10
19.555463
 20
19.680314
 30
0.0
 10
19.247507
 20
19.870644
 30
0.0
  0
SPLINE
  5
104
100
AcDbEntity
  8
0
 62
7
100
AcDbSpline
 70
8
 71
3
 72
8
 73
4
 74
0
 40
0
 40
0
 40
0
 40
0
 40
1
 40
1
 40
1
 40
1
 10
19.247507
 20
19.870644
 30
0.0
 10
18.939551
 20
20.060966
 30
0.0
 10
17.914095
 20
19.816668
 30
0.0
 10
16.968717
 20
19.327832
 30
0.0
  0
SPLINE
  5
105
100
AcDbEntity
  8
0
 62
7
100
AcDbSpline
 70
8
 71
3
 72
8
 73
4
 74
0
 40
0
 40
0
 40
0
 40
0
 40
1
 40
1
 40
1
 40
1
 10
16.968717
 20
19.327832
 30
0.0
 10
14.469077
 20
18.035213
 30
0.0
 10
14.282153
 20
18.232800
 30
0.0
 10
16.354777
 20
19.976786
 30
0.0
  0
SPLINE
  5
106
100
AcDbEntity
  8
0
 62
7
100
AcDbSpline
 70
8
 71
3
 72
8
 73
4
 74
0
 40
0
 40
0
 40
0
 40
0
 40
1
 40
1
 40
1
 40
1
 10
16.354777
 20
19.976786
 30
0.0
 10
18.182383
 20
21.514614
 30
0.0
 10
18.182383
 20
21.514614
 30
0.0
 10
16.831680
 20
22.263787
 30
0.0
  0
SPLINE
  5
107
100
AcDbEntity
  8
0
 62
7
100
AcDbSpline
 70
8
 71
3
 72
8
 73
4
 74
0
 40
0
 40
0
 40
0
 40
0
 40
1
 40
1
 40
1
 40
1
 10
16.831680
 20
22.263787
 30
0.0
 10
15.480977
 20
23.012953
 30
0.0
 10
15.480977
 20
23.012953
 30
0.0
 10
16.838682
 20
23.033391
 30
0.0
  0
SPLINE
  5
108
100
AcDbEntity
  8
0
 62
7
100
AcDbSpline
 70
8
 71
3
 72
8
 73
4
 74
0
 40
0
 40
0
 40
0
 40
0
 40
1
 40
1
 40
1
 40
1
 10
16.838682
 20
23.033391
 30
0.0
 10
18.185049
 20
23.053668
 30
0.0
 10
18.181439
 20
23.070809
 30
0.0
 10
16.406035
 20
25.092922
 30
0.0
  0
SPLINE
  5
109
100
AcDbEntity
  8
0
 62
7
100
AcDbSpline
 70
8
 71
3
 72
8
 73
4
 74
0
 40
0
 40
0
 40
0
 40
0
 40
1
 40
1
 40
1
 40
1
 10
16.406035
 20
25.092922
 30
0.0
 10
13.998245
 20
27.835236
 30
0.0
 10
14.151748
 20
28.133123
 30
0.0
 10
16.865221
 20
25.984007
 30
0.0
  0
SPLINE
  5
10a
100
AcDbEntity
  8
0
 62
7
100
AcDbSpline
 70
8
 71
3
 72
8
 73
4
 74
0
 40
0
 40
0
 40
0
 40
0
 40
1
 40
1
 40
1
 40
1
 10
16.865221
 20
25.984007
 30
0.0
 10
19.114738
 20
24.202362
 30
0.0
 10
19.114738
 20
24.202362
 30
0.0
 10
19.689899
 20
26.368181
 30
0.0
  0
SPLINE
  5
10b
100
AcDbEntity
  8
0
 62
7
100
AcDbSpline
 70
8
 71
3
 72
8
 73
4
 74
0
 40
0
 40
0
 40
0
 40
0
 40
1
 40
1
 40
1
 40
1
 10
19.689899
 20
26.368181
 30
0.0
 10
20.265059
 20
28.534008
 30
0.0
 10
20.265059
 20
28.534008
 30
0.0
 10
20.324676
 20
26.596673
 30
0.0
  0
SPLINE
  5
10c
100
AcDbEntity
  8
0
 62
7
100
AcDbSpline
 70
8
 71
3
 72
8
 73
4
 74
0
 40
0
 40
0
 40
0
 40
0
 40
1
 40
1
 40
1
 40
1
 10
20.324676
 20
26.596673
 30
0.0
 10
20.380424
 20
24.784598
 30
0.0
 10
20.485852
 20
24.684838
 30
0.0
 10
21.955000
 20
25.053556
 30
0.0
  0
SPLINE
  5
10d
100
AcDbEntity
  8
0
 62
7
100
AcDbSpline
 70
8
 71
3
 72
8
 73
4
 74
0
 40
0
 40
0
 40
0
 40
0
 40
1
 40
1
 40
1
 40
1
 10
21.955000
 20
25.053556
 30
0.0
 10
23.468915
 20
25.433537
 30
0.0
 10
23.489766
 20
25.408088
 30
0.0
 10
22.531860
 20
24.349606
 30
0.0
  0
SPLINE
  5
10e
100
AcDbEntity
  8
0
 62
7
100
AcDbSpline
 70
8
 71
3
 72
8
 73
4
 74
0
 40
0
 40
0
 40
0
 40
0
 40
1
 40
1
 40
1
 40
1
 10
22.531860
 20
24.349606
 30
0.0
 10
21.156695
 20
22.830071
 30
0.0
 10
21.268879
 20
22.637298
 30
0.0
 10
23.350540
 20
22.942814
 30
0.0
  0
SPLINE
  5
10f
100
AcDbEntity
  8
0
 62
7
100
AcDbSpline
 70
8
 71
3
 72
8
 73
4
 74
0
 40
0
 40
0
 40
0
 40
0
 40
1
 40
1
 40
1
 40
1
 10
23.350540
 20
22.942814
 30
0.0
 10
24.606127
 20
23.127097
 30
0.0
 10
25.038795
 20
23.007804
 30
0.0
 10
24.758643
 20
22.554482
 30
0.0
  0
SPLINE
  5
110
100
AcDbEntity
  8
0
 62
7
100
AcDbSpline
 70
8
 71
3
 72
8
 73
4
 74
0
 40
0
 40
0
 40
0
 40
0
 40
1
 40
1
 40
1
 40
1
 10
24.758643
 20
22.554482
 30
0.0
 10
24.464194
 20
22.078053
 30
0.0
 10
26.630849
 20
21.900124
 30
0.0
 10
32.726596
 20
21.900124
 30
0.0
  0
SPLINE
  5
111
100
AcDbEntity
  8
0
 62
7
100
AcDbSpline
 70
8
 71
3
 72
8
 73
4
 74
0
 40
0
 40
0
 40
0
 40
0
 40
1
 40
1
 40
1
 40
1
 10
32.726596
 20
21.900124
 30
0.0
 10
41.098966
 20
21.900124
 30
0.0
 10
41.098966
 20
21.900124
 30
0.0
 10
41.502612
 20
24.063339
 30
0.0
  0
SPLINE
  5
112
100
AcDbEntity
  8
0
 62
7
100
AcDbSpline
 70
8
 71
3
 72
8
 73
4
 74
0
 40
0
 40
0
 40
0
 40
0
 40
1
 40
1
 40
1
 40
1
 10
41.502612
 20
24.063339
 30
0.0
 10
41.724622
 20
25.253120
 30
0.0
 10
42.759360
 20
28.762893
 30
0.0
 10
43.802031
 20
31.862868
 30
0.0
  0
SPLINE
  5
113
100
AcDbEntity
  8
0
 62
7
100
AcDbSpline
 70
8
 71
3
 72
8
 73
4
 74
0
 40
0
 40
0
 40
0
 40
0
 40
1
 40
1
 40
1
 40
1
 10
43.802031
 20
31.862868
 30
0.0
 10
45.359020
 20
36.491904
 30
0.0
 10
45.593271
 20
37.799009
 30
0.0
 10
45.112863
 20
39.177121
 30
0.0
  0
SPLINE
  5
114
100
AcDbEntity
  8
0
 62
7
100
AcDbSpline
 70
8
 71
3
 72
8
 73
4
 74
0
 40
0
 40
0
 40
0
 40
0
 40
1
 40
1
 40
1
 40
1
 10
45.112863
 20
39.177121
 30
0.0
 10
44.105076
 20
42.068057
 30
0.0
 10
44.673592
 20
43.995771
 30
0.0
 10
46.855175
 20
45.084902
 30
0.0
  0
SPLINE
  5
115
100
AcDbEntity
  8
0
 62
7
100
AcDbSpline
 70
8
 71
3
 72
8
 73
4
 74
0
 40
0
 40
0
 40
0
 40
0
 40
1
 40
1
 40
1
 40
1
 10
46.855175
 20
45.084902
 30
0.0
 10
48.483953
 20
45.898044
 30
0.0
 10
49.521523
 20
47.425821
 30
0.0
 10
53.083677
 20
54.256052
 30
0.0
  0
SPLINE
  5
116
100
AcDbEntity
  8
0
 62
7
100
AcDbSpline
 70
8
 71
3
 72
8
 73
4
 74
0
 40
0
 40
0
 40
0
 40
0
 40
1
 40
1
 40
1
 40
1
 10
53.083677
 20
54.256052
 30
0.0
 10
55.434466
 20
58.763555
 30
0.0
 10
57.734948
 20
62.989934
 30
0.0
 10
58.195867
 20
63.647990
 30
0.0
  0
SPLINE
  5
117
100
AcDbEntity
  8
0
 62
7
100
AcDbSpline
 70
8
 71
3
 72
8
 73
4
 74
0
 40
0
 40
0
 40
0
 40
0
 40
1
 40
1
 40
1
 40
1
 10
58.195867
 20
63.647990
 30
0.0
 10
59.282165
 20
65.198882
 30
0.0
 10
59.263146
 20
66.318313
 30
0.0
 10
58.150470
 20
66.318313
 30
0.0
  0
SPLINE
  5
118
100
AcDbEntity
  8
0
 62
7
100
AcDbSpline
 70
8
 71
3
 72
8
 73
4
 74
0
 40
0
 40
0
 40
0
 40
0
 40
1
 40
1
 40
1
 40
1
 10
58.150470
 20
66.318313
 30
0.0
 10
56.945211
 20
66.318313
 30
0.0
 10
56.368554
 20
68.045172
 30
0.0
 10
57.363442
 20
68.675132
 30
0.0
  0
SPLINE
  5
119
100
AcDbEntity
  8
0
 62
7
100
AcDbSpline
 70
8
 71
3
 72
8
 73
4
 74
0
 40
0
 40
0
 40
0
 40
0
 40
1
 40
1
 40
1
 40
1
 10
57.363442
 20
68.675132
 30
0.0
 10
57.806266
 20
68.955520
 30
0.0
 10
58.860044
 20
69.188921
 30
0.0
 10
59.705172
 20
69.193771
 30
0.0
  0
SPLINE
  5
11a
100
AcDbEntity
  8
0
 62
7
100
AcDbSpline
 70
8
 71
3
 72
8
 73
4
 74
0
 40
0
 40
0
 40
0
 40
0
 40
1
 40
1
 40
1
 40
1
 10
59.705172
 20
69.193771
 30
0.0
 10
61.066319
 20
69.201649
 30
0.0
 10
61.850633
 20
70.207060
 30
0.0
 10
66.574314
 20
77.999718
 30
0.0
  0
SPLINE
  5
11b
100
AcDbEntity
  8
0
 62
7
100
AcDbSpline
 70
8
 71
3
 72
8
 73
4
 74
0
 40
0
 40
0
 40
0
 40
0
 40
1
 40
1
 40
1
 40
1
 10
66.574314
 20
77.999718
 30
0.0
 10
75.642349
 20
92.959249
 30
0.0
 10
85.137067
 20
106.520880
 30
0.0
 10
88.265117
 20
108.981401
 30
0.0
  0
SPLINE
  5
11c
100
AcDbEntity
  8
0
 62
7
100
AcDbSpline
 70
8
 71
3
 72
8
 73
4
 74
0
 40
0
 40
0
 40
0
 40
0
 40
1
 40
1
 40
1
 40
1
 10
88.265117
 20
108.981401
 30
0.0
 10
89.861807
 20
110.237355
 30
0.0
 10
92.187620
 20
110.541526
 30
0.0
 10
92.786384
 20
109.572694
 30
0.0
  0
SPLINE
  5
11d
100
AcDbEntity
  8
0
 62
7
100
AcDbSpline
 70
8
 71
3
 72
8
 73
4
 74
0
 40
0
 40
0
 40
0
 40
0
 40
1
 40
1
 40
1
 40
1
 10
92.786384
 20
109.572694
 30
0.0
 10
92.985904
 20
109.249874
 30
0.0
 10
91.105892
 20
106.199728
 30
0.0
 10
88.608576
 20
102.794594
 30
0.0
  0
SPLINE
  5
11e
100
AcDbEntity
  8
0
 62
7
100
AcDbSpline
 70
8
 71
3
 72
8
 73
4
 74
0
 40
0
 40
0
 40
0
 40
0
 40
1
 40
1
 40
1
 40
1
 10
88.608576
 20
102.794594
 30
0.0
 10
82.009222
 20
93.796249
 30
0.0
 10
76.339647
 20
85.518905
 30
0.0
 10
76.339647
 20
84.882454
 30
0.0
  0
SPLINE
  5
11f
100
AcDbEntity
  8
0
 62
7
100
AcDbSpline
 70
8
 71
3
 72
8
 73
4
 74
0
 40
0
 40
0
 40
0
 40
0
 40
1
 40
1
 40
1
 40
1
 10
76.339647
 20
84.882454
 30
0.0
 10
76.339647
 20
83.954857
 30
0.0
 10
80.314354
 20
83.516502
 30
0.0
 10
85.231422
 20
83.901815
 30
0.0
  0
SPLINE
  5
120
100
AcDbEntity
  8
0
 62
7
100
AcDbSpline
 70
8
 71
3
 72
8
 73
4
 74
0
 40
0
 40
0
 40
0
 40
0
 40
1
 40
1
 40
1
 40
1
 10
85.231422
 20
83.901815
 30
0.0
 10
87.796864
 20
84.102848
 30
0.0
 10
91.144959
 20
84.023323
 30
0.0
 10
92.671635
 20
83.725089
 30
0.0
  0
SPLINE
  5
121
100
AcDbEntity
  8
0
 62
7
100
AcDbSpline
 70
8
 71
3
 72
8
 73
4
 74
0
 40
0
 40
0
 40
0
 40
0
 40
1
 40
1
 40
1
 40
1
 10
92.671635
 20
83.725089
 30
0.0
 10
95.138769
 20
83.243143
 30
0.0
 10
95.401607
 20
83.287560
 30
0.0
 10
95.035384
 20
84.124546
 30
0.0
  0
SPLINE
  5
122
100
AcDbEntity
  8
0
 62
7
100
AcDbSpline
 70
8
 71
3
 72
8
 73
4
 74
0
 40
0
 40
0
 40
0
 40
0
 40
1
 40
1
 40
1
 40
1
 10
95.035384
 20
84.124546
 30
0.0
 10
93.502515
 20
87.627923
 30
0.0
 10
95.085274
 20
91.700136
 30
0.0
 10
97.979712
 20
91.700136
 30
0.0
  0
SPLINE
  5
123
100
AcDbEntity
  8
0
 62
7
100
AcDbSpline
 70
8
 71
3
 72
8
 73
4
 74
0
 40
0
 40
0
 40
0
 40
0
 40
1
 40
1
 40
1
 40
1
 10
97.979712
 20
91.700136
 30
0.0
 10
98.731139
 20
91.700136
 30
0.0
 10
99.495819
 20
91.942627
 30
0.0
 10
99.678993
 20
92.239007
 30
0.0
  0
SPLINE
  5
124
100
AcDbEntity
  8
0
 62
7
100
AcDbSpline
 70
8
 71
3
 72
8
 73
4
 74
0
 40
0
 40
0
 40
0
 40
0
 40
1
 40
1
 40
1
 40
1
 10
99.678993
 20
92.239007
 30
0.0
 10
99.862167
 20
92.535394
 30
0.0
 10
100.945645
 20
92.626384
 30
0.0
 10
102.086717
 20
92.441215
 30
0.0
  0
SPLINE
  5
125
100
AcDbEntity
  8
0
 62
7
100
AcDbSpline
 70
8
 71
3
 72
8
 73
4
 74
0
 40
0
 40
0
 40
0
 40
0
 40
1
 40
1
 40
1
 40
1
 10
102.086717
 20
92.441215
 30
0.0
 10
104.065008
 20
92.120178
 30
0.0
 10
104.141478
 20
92.168849
 30
0.0
 10
103.732708
 20
93.488700
 30
0.0
  0
SPLINE
  5
126
100
AcDbEntity
  8
0
 62
7
100
AcDbSpline
 70
8
 71
3
 72
8
 73
4
 74
0
 40
0
 40
0
 40
0
 40
0
 40
1
 40
1
 40
1
 40
1
 10
103.732708
 20
93.488700
 30
0.0
 10
103.496937
 20
94.249989
 30
0.0
 10
102.832010
 20
95.808807
 30
0.0
 10
102.255113
 20
96.952740
 30
0.0
  0
SPLINE
  5
127
100
AcDbEntity
  8
0
 62
7
100
AcDbSpline
 70
8
 71
3
 72
8
 73
4
 74
0
 40
0
 40
0
 40
0
 40
0
 40
1
 40
1
 40
1
 40
1
 10
102.255113
 20
96.952740
 30
0.0
 10
101.149140
 20
99.145794
 30
0.0
 10
99.506891
 20
105.028744
 30
0.0
 10
99.051469
 20
108.429063
 30
0.0
  0
SPLINE
  5
128
100
AcDbEntity
  8
0
 62
7
100
AcDbSpline
 70
8
 71
3
 72
8
 73
4
 74
0
 40
0
 40
0
 40
0
 40
0
 40
1
 40
1
 40
1
 40
1
 10
99.051469
 20
108.429063
 30
0.0
 10
98.558067
 20
112.112915
 30
0.0
 10
98.278415
 20
112.913566
 30
0.0
 10
97.362290
 20
113.265113
 30
0.0
  0
SPLINE
  5
129
100
AcDbEntity
  8
0
 62
7
100
AcDbSpline
 70
8
 71
3
 72
8
 73
4
 74
0
 40
0
 40
0
 40
0
 40
0
 40
1
 40
1
 40
1
 40
1
 10
97.362290
 20
113.265113
 30
0.0
 10
96.653665
 20
113.537042
 30
0.0
 10
96.526589
 20
113.329373
 30
0.0
 10
96.783490
 20
112.319237
 30
0.0
  0
SPLINE
  5
12a
100
AcDbEntity
  8
0
 62
7
100
AcDbSpline
 70
8
 71
3
 72
8
 73
4
 74
0
 40
0
 40
0
 40
0
 40
0
 40
1
 40
1
 40
1
 40
1
 10
96.783490
 20
112.319237
 30
0.0
 10
97.112690
 20
111.024932
 30
0.0
 10
97.112690
 20
111.024932
 30
0.0
 10
96.440374
 20
112.332417
 30
0.0
  0
SPLINE
  5
12b
100
AcDbEntity
  8
0
 62
7
100
AcDbSpline
 70
8
 71
3
 72
8
 73
4
 74
0
 40
0
 40
0
 40
0
 40
0
 40
1
 40
1
 40
1
 40
1
 10
96.440374
 20
112.332417
 30
0.0
 10
95.952836
 20
113.280567
 30
0.0
 10
95.436757
 20
113.547619
 30
0.0
 10
94.562543
 20
113.304134
 30
0.0
  0
SPLINE
  5
12c
100
AcDbEntity
  8
0
 62
7
100
AcDbSpline
 70
8
 71
3
 72
8
 73
4
 74
0
 40
0
 40
0
 40
0
 40
0
 40
1
 40
1
 40
1
 40
1
 10
94.562543
 20
113.304134
 30
0.0
 10
93.592399
 20
113.033931
 30
0.0
 10
93.525973
 20
113.088384
 30
0.0
 10
94.222315
 20
113.583021
 30
0.0
  0
SPLINE
  5
12d
100
AcDbEntity
  8
0
 62
7
100
AcDbSpline
 70
8
 71
3
 72
8
 73
4
 74
0
 40
0
 40
0
 40
0
 40
0
 40
1
 40
1
 40
1
 40
1
 10
94.222315
 20
113.583021
 30
0.0
 10
94.991452
 20
114.129374
 30
0.0
 10
94.991452
 20
114.260783
 30
0.0
 10
94.222315
 20
114.765694
 30
0.0
  0
SPLINE
  5
12e
100
AcDbEntity
  8
0
 62
7
100
AcDbSpline
 70
8
 71
3
 72
8
 73
4
 74
0
 40
0
 40
0
 40
0
 40
0
 40
1
 40
1
 40
1
 40
1
 10
94.222315
 20
114.765694
 30
0.0
 10
93.541844
 20
115.212391
 30
0.0
 10
93.526126
 20
115.335607
 30
0.0
 10
94.148719
 20
115.342554
 30
0.0
  0
SPLINE
  5
12f
100
AcDbEntity
  8
0
 62
7
100
AcDbSpline
 70
8
 71
3
 72
8
 73
4
 74
0
 40
0
 40
0
 40
0
 40
0
 40
1
 40
1
 40
1
 40
1
 10
94.148719
 20
115.342554
 30
0.0
 10
94.809131
 20
115.349885
 30
0.0
 10
94.813748
 20
115.518804
 30
0.0
 10
94.176436
 20
116.360892
 30
0.0
  0
SPLINE
  5
130
100
AcDbEntity
  8
0
 62
7
100
AcDbSpline
 70
8
 71
3
 72
8
 73
4
 74
0
 40
0
 40
0
 40
0
 40
0
 40
1
 40
1
 40
1
 40
1
 10
94.176436
 20
116.360892
 30
0.0
 10
93.526578
 20
117.219706
 30
0.0
 10
93.533252
 20
117.262761
 30
0.0
 10
94.221221
 20
116.649322
 30
0.0
  0
SPLINE
  5
131
100
AcDbEntity
  8
0
 62
7
100
AcDbSpline
 70
8
 71
3
 72
8
 73
4
 74
0
 40
0
 40
0
 40
0
 40
0
 40
1
 40
1
 40
1
 40
1
 10
94.221221
 20
116.649322
 30
0.0
 10
95.321804
 20
115.667900
 30
0.0
 10
95.819830
 20
115.743076
 30
0.0
 10
96.132028
 20
116.937751
 30
0.0
  0
SPLINE
  5
132
100
AcDbEntity
  8
0
 62
7
100
AcDbSpline
 70
8
 71
3
 72
8
 73
4
 74
0
 40
0
 40
0
 40
0
 40
0
 40
1
 40
1
 40
1
 40
1
 10
96.132028
 20
116.937751
 30
0.0
 10
96.370067
 20
117.848638
 30
0.0
 10
96.402379
 20
117.842609
 30
0.0
 10
96.462759
 20
116.876037
 30
0.0
  0
SPLINE
  5
133
100
AcDbEntity
  8
0
 62
7
100
AcDbSpline
 70
8
 71
3
 72
8
 73
4
 74
0
 40
0
 40
0
 40
0
 40
0
 40
1
 40
1
 40
1
 40
1
 10
96.462759
 20
116.876037
 30
0.0
 10
96.507617
 20
116.156657
 30
0.0
 10
96.823717
 20
115.917650
 30
0.0
 10
97.424924
 20
116.148355
 30
0.0
  0
SPLINE
  5
134
100
AcDbEntity
  8
0
 62
7
100
AcDbSpline
 70
8
 71
3
 72
8
 73
4
 74
0
 40
0
 40
0
 40
0
 40
0
 40
1
 40
1
 40
1
 40
1
 10
97.424924
 20
116.148355
 30
0.0
 10
97.917312
 20
116.337302
 30
0.0
 10
98.173718
 20
116.254927
 30
0.0
 10
97.994723
 20
115.965301
 30
0.0
  0
SPLINE
  5
135
100
AcDbEntity
  8
0
 62
7
100
AcDbSpline
 70
8
 71
3
 72
8
 73
4
 74
0
 40
0
 40
0
 40
0
 40
0
 40
1
 40
1
 40
1
 40
1
 10
97.994723
 20
115.965301
 30
0.0
 10
97.815729
 20
115.675674
 30
0.0
 10
97.996911
 20
115.326524
 30
0.0
 10
98.397410
 20
115.189411
 30
0.0
  0
SPLINE
  5
136
100
AcDbEntity
  8
0
 62
7
100
AcDbSpline
 70
8
 71
3
 72
8
 73
4
 74
0
 40
0
 40
0
 40
0
 40
0
 40
1
 40
1
 40
1
 40
1
 10
98.397410
 20
115.189411
 30
0.0
 10
98.797886
 20
115.052299
 30
0.0
 10
98.690686
 20
115.003272
 30
0.0
 10
98.159188
 20
115.080462
 30
0.0
  0
SPLINE
  5
137
100
AcDbEntity
  8
0
 62
7
100
AcDbSpline
 70
8
 71
3
 72
8
 73
4
 74
0
 40
0
 40
0
 40
0
 40
0
 40
1
 40
1
 40
1
 40
1
 10
98.159188
 20
115.080462
 30
0.0
 10
97.543984
 20
115.169811
 30
0.0
 10
97.303924
 20
114.931326
 30
0.0
 10
97.498564
 20
114.424123
 30
0.0
  0
SPLINE
  5
138
100
AcDbEntity
  8
0
 62
7
100
AcDbSpline
 70
8
 71
3
 72
8
 73
4
 74
0
 40
0
 40
0
 40
0
 40
0
 40
1
 40
1
 40
1
 40
1
 10
97.498564
 20
114.424123
 30
0.0
 10
97.666705
 20
113.985946
 30
0.0
 10
98.043381
 20
113.775211
 30
0.0
 10
98.335630
 20
113.955823
 30
0.0
  0
SPLINE
  5
139
100
AcDbEntity
  8
0
 62
7
100
AcDbSpline
 70
8
 71
3
 72
8
 73
4
 74
0
 40
0
 40
0
 40
0
 40
0
 40
1
 40
1
 40
1
 40
1
 10
98.335630
 20
113.955823
 30
0.0
 10
98.627863
 20
114.136435
 30
0.0
 10
99.148187
 20
113.477483
 30
0.0
 10
99.491909
 20
112.491487
 30
0.0
  0
SPLINE
  5
13a
100
AcDbEntity
  8
0
 62
7
100
AcDbSpline
 70
8
 71
3
 72
8
 73
4
 74
0
 40
0
 40
0
 40
0
 40
0
 40
1
 40
1
 40
1
 40
1
 10
99.491909
 20
112.491487
 30
0.0
 10
99.995034
 20
111.048221
 30
0.0
 10
100.346473
 20
110.771643
 30
0.0
 10
101.294823
 20
111.072637
 30
0.0
  0
SPLINE
  5
13b
100
AcDbEntity
  8
0
 62
7
100
AcDbSpline
 70
8
 71
3
 72
8
 73
4
 74
0
 40
0
 40
0
 40
0
 40
0
 40
1
 40
1
 40
1
 40
1
 10
101.294823
 20
111.072637
 30
0.0
 10
102.274238
 20
111.383491
 30
0.0
 10
102.398433
 20
111.265128
 30
0.0
 10
102.031662
 20
110.370437
 30
0.0
  0
SPLINE
  5
13c
100
AcDbEntity
  8
0
 62
7
100
AcDbSpline
 70
8
 71
3
 72
8
 73
4
 74
0
 40
0
 40
0
 40
0
 40
0
 40
1
 40
1
 40
1
 40
1
 10
102.031662
 20
110.370437
 30
0.0
 10
101.018709
 20
107.899534
 30
0.0
 10
101.142444
 20
107.193253
 30
0.0
 10
103.308643
 20
103.081685
 30
0.0
  0
SPLINE
  5
13d
100
AcDbEntity
  8
0
 62
7
100
AcDbSpline
 70
8
 71
3
 72
8
 73
4
 74
0
 40
0
 40
0
 40
0
 40
0
 40
1
 40
1
 40
1
 40
1
 10
103.308643
 20
103.081685
 30
0.0
 10
104.556623
 20
100.712938
 30
0.0
 10
106.305875
 20
96.119771
 30
0.0
 10
107.195880
 20
92.874649
 30
0.0
  0
SPLINE
  5
13e
100
AcDbEntity
  8
0
 62
7
100
AcDbSpline
 70
8
 71
3
 72
8
 73
4
 74
0
 40
0
 40
0
 40
0
 40
0
 40
1
 40
1
 40
1
 40
1
 10
107.195880
 20
92.874649
 30
0.0
 10
108.404355
 20
88.468297
 30
0.0
 10
109.376717
 20
86.225600
 30
0.0
 10
111.036341
 20
84.016856
 30
0.0
  0
SPLINE
  5
13f
100
AcDbEntity
  8
0
 62
7
100
AcDbSpline
 70
8
 71
3
 72
8
 73
4
 74
0
 40
0
 40
0
 40
0
 40
0
 40
1
 40
1
 40
1
 40
1
 10
111.036341
 20
84.016856
 30
0.0
 10
113.185661
 20
81.156372
 30
0.0
 10
113.258615
 20
80.906913
 30
0.0
 10
113.258615
 20
76.417301
 30
0.0
  0
SPLINE
  5
140
100
AcDbEntity
  8
0
 62
7
100
AcDbSpline
 70
8
 71
3
 72
8
 73
4
 74
0
 40
0
 40
0
 40
0
 40
0
 40
1
 40
1
 40
1
 40
1
 10
113.258615
 20
76.417301
 30
0.0
 10
113.258615
 20
71.221500
 30
0.0
 10
111.581938
 20
64.084652
 30
0.0
 10
109.773459
 20
61.582588
 30
0.0
  0
SPLINE
  5
141
100
AcDbEntity
  8
0
 62
7
100
AcDbSpline
 70
8
 71
3
 72
8
 73
4
 74
0
 40
0
 40
0
 40
0
 40
0
 40
1
 40
1
 40
1
 40
1
 10
109.773459
 20
61.582588
 30
0.0
 10
108.526997
 20
59.858099
 30
0.0
 10
108.369454
 20
58.461927
 30
0.0
 10
109.180575
 20
56.328530
 30
0.0
  0
SPLINE
  5
142
100
AcDbEntity
  8
0
 62
7
100
AcDbSpline
 70
8
 71
3
 72
8
 73
4
 74
0
 40
0
 40
0
 40
0
 40
0
 40
1
 40
1
 40
1
 40
1
 10
109.180575
 20
56.328530
 30
0.0
 10
109.475835
 20
55.551931
 30
0.0
 10
109.800316
 20
52.188986
 30
0.0
 10
109.901651
 20
48.855326
 30
0.0
  0
SPLINE
  5
143
100
AcDbEntity
  8
0
 62
7
100
AcDbSpline
 70
8
 71
3
 72
8
 73
4
 74
0
 40
0
 40
0
 40
0
 40
0
 40
1
 40
1
 40
1
 40
1
 10
109.901651
 20
48.855326
 30
0.0
 10
110.085883
 20
42.794115
 30
0.0
 10
110.085883
 20
42.794115
 30
0.0
 10
111.689817
 20
43.936114
 30
0.0
  0
SPLINE
  5
144
100
AcDbEntity
  8
0
 62
7
100
AcDbSpline
 70
8
 71
3
 72
8
 73
4
 74
0
 40
0
 40
0
 40
0
 40
0
 40
1
 40
1
 40
1
 40
1
 10
111.689817
 20
43.936114
 30
0.0
 10
114.184485
 20
45.712309
 30
0.0
 10
119.827947
 20
52.540761
 30
0.0
 10
122.400282
 20
56.895542
 30
0.0
  0
SPLINE
  5
145
100
AcDbEntity
  8
0
 62
7
100
AcDbSpline
 70
8
 71
3
 72
8
 73
4
 74
0
 40
0
 40
0
 40
0
 40
0
 40
1
 40
1
 40
1
 40
1
 10
122.400282
 20
56.895542
 30
0.0
 10
126.114980
 20
63.184267
 30
0.0
 10
127.812058
 20
68.973529
 30
0.0
 10
128.124985
 20
76.424340
 30
0.0
  0
SPLINE
  5
146
100
AcDbEntity
  8
0
 62
7
100
AcDbSpline
 70
8
 71
3
 72
8
 73
4
 74
0
 40
0
 40
0
 40
0
 40
0
 40
1
 40
1
 40
1
 40
1
 10
128.124985
 20
76.424340
 30
0.0
 10
128.438597
 20
83.891585
 30
0.0
 10
127.597914
 20
88.042050
 30
0.0
 10
124.479872
 20
94.420214
 30
0.0
  0
SPLINE
  5
147
100
AcDbEntity
  8
0
 62
7
100
AcDbSpline
 70
8
 71
3
 72
8
 73
4
 74
0
 40
0
 40
0
 40
0
 40
0
 40
1
 40
1
 40
1
 40
1
 10
124.479872
 20
94.420214
 30
0.0
 10
117.364891
 20
108.974527
 30
0.0
 10
101.481046
 20
119.452351
 30
0.0
 10
80.954518
 20
123.131871
 30
0.0
  0
SPLINE
  5
148
100
AcDbEntity
  8
0
 62
7
100
AcDbSpline
 70
8
 71
3
 72
8
 73
4
 74
0
 40
0
 40
0
 40
0
 40
0
 40
1
 40
1
 40
1
 40
1
 10
80.954518
 20
123.131871
 30
0.0
 10
73.624314
 20
124.445864
 30
0.0
 10
56.354355
 20
124.927906
 30
0.0
 10
48.659265
 20
124.033305
 30
0.0
  0
SPLINE
  5
149
100
AcDbEntity
  8
0
 62
7
100
AcDbSpline
 70
8
 71
3
 72
8
 73
4
 74
0
 40
0
 40
0
 40
0
 40
0
 40
1
 40
1
 40
1
 40
1
 10
48.659265
 20
124.033305
 30
0.0
 10
30.342163
 20
121.903829
 30
0.0
 10
17.714203
 20
115.147889
 30
0.0
 10
12.560791
 20
104.720678
 30
0.0
  0
SPLINE
  5
14a
100
AcDbEntity
  8
0
 62
7
100
AcDbSpline
 70
8
 71
3
 72
8
 73
4
 74
0
 40
0
 40
0
 40
0
 40
0
 40
1
 40
1
 40
1
 40
1
 10
12.560791
 20
104.720678
 30
0.0
 10
9.066725
 20
97.650913
 30
0.0
 10
9.229286
 20
91.860612
 30
0.0
 10
13.161155
 20
83.335671
 30
0.0
  0
SPLINE
  5
14b
100
AcDbEntity
  8
0
 62
7
100
AcDbSpline
 70
8
 71
3
 72
8
 73
4
 74
0
 40
0
 40
0
 40
0
 40
0
 40
1
 40
1
 40
1
 40
1
 10
13.161155
 20
83.335671
 30
0.0
 10
15.507250
 20
78.248953
 30
0.0
 10
24.311489
 20
66.319516
 30
0.0
 10
25.720201
 20
66.318597
 30
0.0
  0
SPLINE
  5
14c
100
AcDbEntity
  8
0
 62
7
100
AcDbSpline
 70
8
 71
3
 72
8
 73
4
 74
0
 40
0
 40
0
 40
0
 40
0
 40
1
 40
1
 40
1
 40
1
 10
25.720201
 20
66.318597
 30
0.0
 10
25.958160
 20
66.318429
 30
0.0
 10
26.152848
 20
66.982598
 30
0.0
 10
26.152848
 20
67.794507
 30
0.0
  0
SPLINE
  5
14d
100
AcDbEntity
  8
0
 62
7
100
AcDbSpline
 70
8
 71
3
 72
8
 73
4
 74
0
 40
0
 40
0
 40
0
 40
0
 40
1
 40
1
 40
1
 40
1
 10
26.152848
 20
67.794507
 30
0.0
 10
26.152848
 20
68.631740
 30
0.0
 10
26.402537
 20
69.116375
 30
0.0
 10
26.729708
 20
68.914178
 30
0.0
  0
SPLINE
  5
14e
100
AcDbEntity
  8
0
 62
7
100
AcDbSpline
 70
8
 71
3
 72
8
 73
4
 74
0
 40
0
 40
0
 40
0
 40
0
 40
1
 40
1
 40
1
 40
1
 10
26.729708
 20
68.914178
 30
0.0
 10
27.046982
 20
68.718094
 30
0.0
 10
27.306568
 20
68.060234
 30
0.0
 10
27.306568
 20
67.452258
 30
0.0
  0
SPLINE
  5
14f
100
AcDbEntity
  8
0
 62
7
100
AcDbSpline
 70
8
 71
3
 72
8
 73
4
 74
0
 40
0
 40
0
 40
0
 40
0
 40
1
 40
1
 40
1
 40
1
 10
27.306568
 20
67.452258
 30
0.0
 10
27.306568
 20
66.486206
 30
0.0
 10
27.505440
 20
66.422471
 30
0.0
 10
28.884276
 20
66.946719
 30
0.0
  0
SPLINE
  5
150
100
AcDbEntity
  8
0
 62
7
100
AcDbSpline
 70
8
 71
3
 72
8
 73
4
 74
0
 40
0
 40
0
 40
0
 40
0
 40
1
 40
1
 40
1
 40
1
 10
28.884276
 20
66.946719
 30
0.0
 10
30.461992
 20
67.546555
 30
0.0
 10
30.461992
 20
67.546555
 30
0.0
 10
29.028490
 20
66.016137
 30
0.0
  0
SPLINE
  5
151
100
AcDbEntity
  8
0
 62
7
100
AcDbSpline
 70
8
 71
3
 72
8
 73
4
 74
0
 40
0
 40
0
 40
0
 40
0
 40
1
 40
1
 40
1
 40
1
 10
29.028490
 20
66.016137
 30
0.0
 10
27.594996
 20
64.485734
 30
0.0
 10
27.594996
 20
64.485734
 30
0.0
 10
29.902437
 20
64.825576
 30
0.0
  0
SPLINE
  5
152
100
AcDbEntity
  8
0
 62
7
100
AcDbSpline
 70
8
 71
3
 72
8
 73
4
 74
0
 40
0
 40
0
 40
0
 40
0
 40
1
 40
1
 40
1
 40
1
 10
29.902437
 20
64.825576
 30
0.0
 10
32.209879
 20
65.165417
 30
0.0
 10
32.209879
 20
65.165417
 30
0.0
 10
30.335084
 20
64.298067
 30
0.0
  0
SPLINE
  5
153
100
AcDbEntity
  8
0
 62
7
100
AcDbSpline
 70
8
 71
3
 72
8
 73
4
 74
0
 40
0
 40
0
 40
0
 40
0
 40
1
 40
1
 40
1
 40
1
 10
30.335084
 20
64.298067
 30
0.0
 10
28.267721
 20
63.341613
 30
0.0
 10
27.961317
 20
62.595198
 30
0.0
 10
29.408144
 20
62.040001
 30
0.0
  0
SPLINE
  5
154
100
AcDbEntity
  8
0
 62
7
100
AcDbSpline
 70
8
 71
3
 72
8
 73
4
 74
0
 40
0
 40
0
 40
0
 40
0
 40
1
 40
1
 40
1
 40
1
 10
29.408144
 20
62.040001
 30
0.0
 10
29.929465
 20
61.839949
 30
0.0
 10
30.211282
 20
61.531551
 30
0.0
 10
30.034409
 20
61.354687
 30
0.0
  0
SPLINE
  5
155
100
AcDbEntity
  8
0
 62
7
100
AcDbSpline
 70
8
 71
3
 72
8
 73
4
 74
0
 40
0
 40
0
 40
0
 40
0
 40
1
 40
1
 40
1
 40
1
 10
30.034409
 20
61.354687
 30
0.0
 10
29.857537
 20
61.177815
 30
0.0
 10
29.145767
 20
61.336525
 30
0.0
 10
28.452700
 20
61.707490
 30
0.0
  0
SPLINE
  5
156
100
AcDbEntity
  8
0
 62
7
100
AcDbSpline
 70
8
 71
3
 72
8
 73
4
 74
0
 40
0
 40
0
 40
0
 40
0
 40
1
 40
1
 40
1
 40
1
 10
28.452700
 20
61.707490
 30
0.0
 10
27.249651
 20
62.351345
 30
0.0
 10
27.209082
 20
62.294678
 30
0.0
 10
27.556832
 20
60.456293
 30
0.0
  0
SPLINE
  5
157
100
AcDbEntity
  8
0
 62
7
100
AcDbSpline
 70
8
 71
3
 72
8
 73
4
 74
0
 40
0
 40
0
 40
0
 40
0
 40
1
 40
1
 40
1
 40
1
 10
27.556832
 20
60.456293
 30
0.0
 10
27.921075
 20
58.530695
 30
0.0
 10
27.921075
 20
58.530695
 30
0.0
 10
26.960847
 20
60.261281
 30
0.0
  0
SPLINE
  5
158
100
AcDbEntity
  8
0
 62
7
100
AcDbSpline
 70
8
 71
3
 72
8
 73
4
 74
0
 40
0
 40
0
 40
0
 40
0
 40
1
 40
1
 40
1
 40
1
 10
26.960847
 20
60.261281
 30
0.0
 10
26.432720
 20
61.213096
 30
0.0
 10
25.929201
 20
62.075895
 30
0.0
 10
25.841912
 20
62.178609
 30
0.0
  0
SPLINE
  5
159
100
AcDbEntity
  8
0
 62
7
100
AcDbSpline
 70
8
 71
3
 72
8
 73
4
 74
0
 40
0
 40
0
 40
0
 40
0
 40
1
 40
1
 40
1
 40
1
 10
25.841912
 20
62.178609
 30
0.0
 10
25.754623
 20
62.281323
 30
0.0
 10
24.893212
 20
61.956835
 30
0.0
 10
23.927666
 20
61.457532
 30
0.0
  0
SPLINE
  5
15a
100
AcDbEntity
  8
0
 62
7
100
AcDbSpline
 70
8
 71
3
 72
8
 73
4
 74
0
 40
0
 40
0
 40
0
 40
0
 40
1
 40
1
 40
1
 40
1
 10
23.927666
 20
61.457532
 30
0.0
 10
21.506334
 20
60.205424
 30
0.0
 10
21.092378
 20
60.321588
 30
0.0
 10
22.902323
 20
61.745302
 30
0.0
  0
SPLINE
  5
15b
100
AcDbEntity
  8
0
 62
7
100
AcDbSpline
 70
8
 71
3
 72
8
 73
4
 74
0
 40
0
 40
0
 40
0
 40
0
 40
1
 40
1
 40
1
 40
1
 10
22.902323
 20
61.745302
 30
0.0
 10
24.758952
 20
63.205719
 30
0.0
 10
24.795646
 20
63.654496
 30
0.0
 10
23.124333
 20
64.460541
 30
0.0
  0
SPLINE
  5
15c
100
AcDbEntity
  8
0
 62
7
100
AcDbSpline
 70
8
 71
3
 72
8
 73
4
 74
0
 40
0
 40
0
 40
0
 40
0
 40
1
 40
1
 40
1
 40
1
 10
23.124333
 20
64.460541
 30
0.0
 10
22.410472
 20
64.804817
 30
0.0
 10
22.131970
 20
65.104075
 30
0.0
 10
22.505447
 20
65.125541
 30
0.0
  0
SPLINE
  5
15d
100
AcDbEntity
  8
0
 62
7
100
AcDbSpline
 70
8
 71
3
 72
8
 73
4
 74
0
 40
0
 40
0
 40
0
 40
0
 40
1
 40
1
 40
1
 40
1
 10
22.505447
 20
65.125541
 30
0.0
 10
22.878925
 20
65.146985
 30
0.0
 10
21.638762
 20
66.787010
 30
0.0
 10
19.749522
 20
68.769969
 30
0.0
  0
SPLINE
  5
15e
100
AcDbEntity
  8
0
 62
7
100
AcDbSpline
 70
8
 71
3
 72
8
 73
4
 74
0
 40
0
 40
0
 40
0
 40
0
 40
1
 40
1
 40
1
 40
1
 10
19.749522
 20
68.769969
 30
0.0
 10
15.306993
 20
73.432878
 30
0.0
 10
9.888133
 20
81.451196
 30
0.0
 10
8.286566
 20
85.731772
 30
0.0
  0
SPLINE
  5
15f
100
AcDbEntity
  8
0
 62
7
100
AcDbSpline
 70
8
 71
3
 72
8
 73
4
 74
0
 40
0
 40
0
 40
0
 40
0
 40
1
 40
1
 40
1
 40
1
 10
8.286566
 20
85.731772
 30
0.0
 10
3.573244
 20
98.329255
 30
0.0
 10
8.861748
 20
110.505763
 30
0.0
 10
22.518514
 20
118.500122
 30
0.0
  0
SPLINE
  5
160
100
AcDbEntity
  8
0
 62
7
100
AcDbSpline
 70
8
 71
3
 72
8
 73
4
 74
0
 40
0
 40
0
 40
0
 40
0
 40
1
 40
1
 40
1
 40
1
 10
22.518514
 20
118.500122
 30
0.0
 10
40.375235
 20
128.953032
 30
0.0
 10
77.773558
 20
131.118945
 30
0.0
 10
98.438803
 20
122.897023
 30
0.0
  0
SPLINE
  5
161
100
AcDbEntity
  8
0
 62
7
100
AcDbSpline
 70
8
 71
3
 72
8
 73
4
 74
0
 40
0
 40
0
 40
0
 40
0
 40
1
 40
1
 40
1
 40
1
 10
98.438803
 20
122.897023
 30
0.0
 10
107.263459
 20
119.386021
 30
0.0
 10
112.952837
 20
115.984110
 30
0.0
 10
119.423955
 20
110.349133
 30
0.0
  0
SPLINE
  5
162
100
AcDbEntity
  8
0
 62
7
100
AcDbSpline
 70
8
 71
3
 72
8
 73
4
 74
0
 40
0
 40
0
 40
0
 40
0
 40
1
 40
1
 40
1
 40
1
 10
119.423955
 20
110.349133
 30
0.0
 10
135.264233
 20
96.555586
 30
0.0
 10
138.326753
 20
75.940391
 30
0.0
 10
127.276388
 20
57.490849
 30
0.0
  0
SPLINE
  5
163
100
AcDbEntity
  8
0
 62
7
100
AcDbSpline
 70
8
 71
3
 72
8
 73
4
 74
0
 40
0
 40
0
 40
0
 40
0
 40
1
 40
1
 40
1
 40
1
 10
127.276388
 20
57.490849
 30
0.0
 10
124.599887
 20
53.022208
 30
0.0
 10
116.876259
 20
44.451208
 30
0.0
 10
112.768612
 20
41.391372
 30
0.0
  0
SPLINE
  5
164
100
AcDbEntity
  8
0
 62
7
100
AcDbSpline
 70
8
 71
3
 72
8
 73
4
 74
0
 40
0
 40
0
 40
0
 40
0
 40
1
 40
1
 40
1
 40
1
 10
112.768612
 20
41.391372
 30
0.0
 10
110.836398
 20
39.952056
 30
0.0
 10
110.836398
 20
39.952056
 30
0.0
 10
112.038119
 20
35.685188
 30
0.0
  0
SPLINE
  5
165
100
AcDbEntity
  8
0
 62
7
100
AcDbSpline
 70
8
 71
3
 72
8
 73
4
 74
0
 40
0
 40
0
 40
0
 40
0
 40
1
 40
1
 40
1
 40
1
 10
112.038119
 20
35.685188
 30
0.0
 10
112.699071
 20
33.338398
 30
0.0
 10
114.070108
 20
29.276711
 30
0.0
 10
115.084892
 20
26.659204
 30
0.0
  0
SPLINE
  5
166
100
AcDbEntity
  8
0
 62
7
100
AcDbSpline
 70
8
 71
3
 72
8
 73
4
 74
0
 40
0
 40
0
 40
0
 40
0
 40
1
 40
1
 40
1
 40
1
 10
115.084892
 20
26.659204
 30
0.0
 10
116.929936
 20
21.900124
 30
0.0
 10
116.929936
 20
21.900124
 30
0.0
 10
124.324065
 20
21.900124
 30
0.0
  0
LWPOLYLINE
  5
167
100
AcDbEntity
  8
0
 62
7
100
AcDbPolyline
 90
3
 70
0
 10
74.959245
 20
8.055489
 30
0.0
 10
19.807427
 20
8.055489
 30
0.0
 10
19.807427
 20
13.790038
 30
0.0
  0
SPLINE
  5
168
100
AcDbEntity
  8
0
 62
7
100
AcDbSpline
 70
8
 71
3
 72
8
 73
4
 74
0
 40
0
 40
0
 40
0
 40
0
 40
1
 40
1
 40
1
 40
1
 10
131.718187
 20
15.492944
 30
0.0
 10
131.718187
 20
9.789299
 30
0.0
 10
131.822155
 20
9.125670
 30
0.0
 10
132.665063
 20
9.449122
 30
0.0
  0
SPLINE
  5
169
100
AcDbEntity
  8
0
 62
7
100
AcDbSpline
 70
8
 71
3
 72
8
 73
4
 74
0
 40
0
 40
0
 40
0
 40
0
 40
1
 40
1
 40
1
 40
1
 10
132.665063
 20
9.449122
 30
0.0
 10
133.456789
 20
9.752939
 30
0.0
 10
133.492479
 20
9.668518
 30
0.0
 10
132.882862
 20
8.933984
 30
0.0
  0
SPLINE
  5
16a
100
AcDbEntity
  8
0
 62
7
100
AcDbSpline
 70
8
 71
3
 72
8
 73
4
 74
0
 40
0
 40
0
 40
0
 40
0
 40
1
 40
1
 40
1
 40
1
 10
132.882862
 20
8.933984
 30
0.0
 10
132.481860
 20
8.450808
 30
0.0
 10
132.401889
 20
8.055489
 30
0.0
 10
132.705122
 20
8.055489
 30
0.0
  0
SPLINE
  5
16b
100
AcDbEntity
  8
0
 62
7
100
AcDbSpline
 70
8
 71
3
 72
8
 73
4
 74
0
 40
0
 40
0
 40
0
 40
0
 40
1
 40
1
 40
1
 40
1
 10
132.705122
 20
8.055489
 30
0.0
 10
133.492012
 20
8.055489
 30
0.0
 10
133.386818
 20
6.684437
 30
0.0
 10
132.539184
 20
5.892631
 30
0.0
  0
SPLINE
  5
16c
100
AcDbEntity
  8
0
 62
7
100
AcDbSpline
 70
8
 71
3
 72
8
 73
4
 74
0
 40
0
 40
0
 40
0
 40
0
 40
1
 40
1
 40
1
 40
1
 10
132.539184
 20
5.892631
 30
0.0
 10
131.990639
 20
5.380221
 30
0.0
 10
131.746983
 20
5.417814
 30
0.0
 10
131.503444
 20
6.052450
 30
0.0
  0
LWPOLYLINE
  5
16d
100
AcDbEntity
  8
0
 62
7
100
AcDbPolyline
 90
3
 70
0
 10
124.324065
 20
21.900124
 30
0.0
 10
131.718187
 20
21.900124
 30
0.0
 10
131.718187
 20
15.492944
 30
0.0
  0
SPLINE
  5
16e
100
AcDbEntity
  8
0
 62
7
100
AcDbSpline
 70
8
 71
3
 72
8
 73
4
 74
0
 40
0
 40
0
 40
0
 40
0
 40
1
 40
1
 40
1
 40
1
 10
113.608851
 20
22.812594
 30
0.0
 10
113.416267
 20
23.314450
 30
0.0
 10
113.258703
 20
24.106453
 30
0.0
 10
113.258703
 20
24.572605
 30
0.0
  0
SPLINE
  5
16f
100
AcDbEntity
  8
0
 62
7
100
AcDbSpline
 70
8
 71
3
 72
8
 73
4
 74
0
 40
0
 40
0
 40
0
 40
0
 40
1
 40
1
 40
1
 40
1
 10
113.258703
 20
24.572605
 30
0.0
 10
113.258703
 20
25.038757
 30
0.0
 10
112.350149
 20
25.799768
 30
0.0
 10
111.239697
 20
26.263739
 30
0.0
  0
SPLINE
  5
170
100
AcDbEntity
  8
0
 62
7
100
AcDbSpline
 70
8
 71
3
 72
8
 73
4
 74
0
 40
0
 40
0
 40
0
 40
0
 40
1
 40
1
 40
1
 40
1
 10
111.239697
 20
26.263739
 30
0.0
 10
109.068145
 20
27.171074
 30
0.0
 10
108.943936
 20
27.442579
 30
0.0
 10
109.741154
 20
29.539411
 30
0.0
  0
SPLINE
  5
171
100
AcDbEntity
  8
0
 62
7
100
AcDbSpline
 70
8
 71
3
 72
8
 73
4
 74
0
 40
0
 40
0
 40
0
 40
0
 40
1
 40
1
 40
1
 40
1
 10
109.741154
 20
29.539411
 30
0.0
 10
110.131171
 20
30.565252
 30
0.0
 10
109.931214
 20
31.593887
 30
0.0
 10
108.943308
 20
33.643674
 30
0.0
  0
SPLINE
  5
172
100
AcDbEntity
  8
0
 62
7
100
AcDbSpline
 70
8
 71
3
 72
8
 73
4
 74
0
 40
0
 40
0
 40
0
 40
0
 40
1
 40
1
 40
1
 40
1
 10
108.943308
 20
33.643674
 30
0.0
 10
108.218242
 20
35.148096
 30
0.0
 10
107.485386
 20
36.518622
 30
0.0
 10
107.314728
 20
36.689272
 30
0.0
  0
SPLINE
  5
173
100
AcDbEntity
  8
0
 62
7
100
AcDbSpline
 70
8
 71
3
 72
8
 73
4
 74
0
 40
0
 40
0
 40
0
 40
0
 40
1
 40
1
 40
1
 40
1
 10
107.314728
 20
36.689272
 30
0.0
 10
107.144078
 20
36.859922
 30
0.0
 10
103.284821
 20
35.185076
 30
0.0
 10
98.738593
 20
32.967397
 30
0.0
  0
SPLINE
  5
174
100
AcDbEntity
  8
0
 62
7
100
AcDbSpline
 70
8
 71
3
 72
8
 73
4
 74
0
 40
0
 40
0
 40
0
 40
0
 40
1
 40
1
 40
1
 40
1
 10
98.738593
 20
32.967397
 30
0.0
 10
85.225084
 20
26.375395
 30
0.0
 10
75.119129
 20
23.465042
 30
0.0
 10
65.667773
 20
23.443532
 30
0.0
  0
SPLINE
  5
175
100
AcDbEntity
  8
0
 62
7
100
AcDbSpline
 70
8
 71
3
 72
8
 73
4
 74
0
 40
0
 40
0
 40
0
 40
0
 40
1
 40
1
 40
1
 40
1
 10
65.667773
 20
23.443532
 30
0.0
 10
56.765458
 20
23.423255
 30
0.0
 10
51.567385
 20
25.989003
 30
0.0
 10
48.557399
 20
31.889061
 30
0.0
  0
SPLINE
  5
176
100
AcDbEntity
  8
0
 62
7
100
AcDbSpline
 70
8
 71
3
 72
8
 73
4
 74
0
 40
0
 40
0
 40
0
 40
0
 40
1
 40
1
 40
1
 40
1
 10
48.557399
 20
31.889061
 30
0.0
 10
47.815047
 20
33.344197
 30
0.0
 10
47.204387
 20
33.952611
 30
0.0
 10
46.845984
 20
33.594213
 30
0.0
  0
SPLINE
  5
177
100
AcDbEntity
  8
0
 62
7
100
AcDbSpline
 70
8
 71
3
 72
8
 73
4
 74
0
 40
0
 40
0
 40
0
 40
0
 40
1
 40
1
 40
1
 40
1
 10
46.845984
 20
33.594213
 30
0.0
 10
46.275747
 20
33.023969
 30
0.0
 10
43.880451
 20
26.338327
 30
0.0
 10
43.224639
 20
23.486486
 30
0.0
  0
SPLINE
  5
178
100
AcDbEntity
  8
0
 62
7
100
AcDbSpline
 70
8
 71
3
 72
8
 73
4
 74
0
 40
0
 40
0
 40
0
 40
0
 40
1
 40
1
 40
1
 40
1
 10
43.224639
 20
23.486486
 30
0.0
 10
42.859835
 20
21.900124
 30
0.0
 10
42.859835
 20
21.900124
 30
0.0
 10
78.409419
 20
21.900124
 30
0.0
  0
SPLINE
  5
179
100
AcDbEntity
  8
0
 62
7
100
AcDbSpline
 70
8
 71
3
 72
8
 73
4
 74
0
 40
0
 40
0
 40
0
 40
0
 40
1
 40
1
 40
1
 40
1
 10
78.409419
 20
21.900124
 30
0.0
 10
110.588986
 20
21.900124
 30
0.0
 10
113.925804
 20
21.986616
 30
0.0
 10
113.608851
 20
22.812594
 30
0.0
  0
LWPOLYLINE
  5
17a
100
AcDbEntity
  8
0
 62
7
100
AcDbPolyline
 90
1
 70
1
 10
131.503444
 20
6.052450
 30
0.0
  0
SPLINE
  5
17b
100
AcDbEntity
  8
0
 62
7
100
AcDbSpline
 70
8
 71
3
 72
8
 73
4
 74
0
 40
0
 40
0
 40
0
 40
0
 40
1
 40
1
 40
1
 40
1
 10
78.870020
 20
28.324867
 30
0.0
 10
82.006713
 20
28.963675
 30
0.0
 10
86.584990
 20
30.228146
 30
0.0
 10
89.043969
 20
31.134811
 30
0.0
  0
SPLINE
  5
17c
100
AcDbEntity
  8
0
 62
7
100
AcDbSpline
 70
8
 71
3
 72
8
 73
4
 74
0
 40
0
 40
0
 40
0
 40
0
 40
1
 40
1
 40
1
 40
1
 10
89.043969
 20
31.134811
 30
0.0
 10
94.207180
 20
33.038542
 30
0.0
 10
103.116249
 20
37.414375
 30
0.0
 10
105.096626
 20
39.019322
 30
0.0
  0
SPLINE
  5
17d
100
AcDbEntity
  8
0
 62
7
100
AcDbSpline
 70
8
 71
3
 72
8
 73
4
 74
0
 40
0
 40
0
 40
0
 40
0
 40
1
 40
1
 40
1
 40
1
 10
105.096626
 20
39.019322
 30
0.0
 10
106.420901
 20
40.092553
 30
0.0
 10
106.432783
 20
40.185500
 30
0.0
 10
105.602821
 20
42.979069
 30
0.0
  0
SPLINE
  5
17e
100
AcDbEntity
  8
0
 62
7
100
AcDbSpline
 70
8
 71
3
 72
8
 73
4
 74
0
 40
0
 40
0
 40
0
 40
0
 40
1
 40
1
 40
1
 40
1
 10
105.602821
 20
42.979069
 30
0.0
 10
105.135379
 20
44.552463
 30
0.0
 10
103.814605
 20
47.680615
 30
0.0
 10
102.667771
 20
49.930490
 30
0.0
  0
SPLINE
  5
17f
100
AcDbEntity
  8
0
 62
7
100
AcDbSpline
 70
8
 71
3
 72
8
 73
4
 74
0
 40
0
 40
0
 40
0
 40
0
 40
1
 40
1
 40
1
 40
1
 10
102.667771
 20
49.930490
 30
0.0
 10
101.520930
 20
52.180386
 30
0.0
 10
100.234926
 20
55.555017
 30
0.0
 10
99.809971
 20
57.429667
 30
0.0
  0
SPLINE
  5
180
100
AcDbEntity
  8
0
 62
7
100
AcDbSpline
 70
8
 71
3
 72
8
 73
4
 74
0
 40
0
 40
0
 40
0
 40
0
 40
1
 40
1
 40
1
 40
1
 10
99.809971
 20
57.429667
 30
0.0
 10
99.037348
 20
60.838141
 30
0.0
 10
99.037348
 20
60.838141
 30
0.0
 10
93.601327
 20
61.243009
 30
0.0
  0
SPLINE
  5
181
100
AcDbEntity
  8
0
 62
7
100
AcDbSpline
 70
8
 71
3
 72
8
 73
4
 74
0
 40
0
 40
0
 40
0
 40
0
 40
1
 40
1
 40
1
 40
1
 10
93.601327
 20
61.243009
 30
0.0
 10
90.611506
 20
61.465687
 30
0.0
 10
86.088612
 20
62.201453
 30
0.0
 10
83.550427
 20
62.878044
 30
0.0
  0
SPLINE
  5
182
100
AcDbEntity
  8
0
 62
7
100
AcDbSpline
 70
8
 71
3
 72
8
 73
4
 74
0
 40
0
 40
0
 40
0
 40
0
 40
1
 40
1
 40
1
 40
1
 10
83.550427
 20
62.878044
 30
0.0
 10
75.027064
 20
65.150056
 30
0.0
 10
71.158215
 20
65.793036
 30
0.0
 10
67.247936
 20
65.587418
 30
0.0
  0
SPLINE
  5
183
100
AcDbEntity
  8
0
 62
7
100
AcDbSpline
 70
8
 71
3
 72
8
 73
4
 74
0
 40
0
 40
0
 40
0
 40
0
 40
1
 40
1
 40
1
 40
1
 10
67.247936
 20
65.587418
 30
0.0
 10
63.360338
 20
65.382997
 30
0.0
 10
63.360338
 20
65.382997
 30
0.0
 10
59.185447
 20
58.495691
 30
0.0
  0
SPLINE
  5
184
100
AcDbEntity
  8
0
 62
7
100
AcDbSpline
 70
8
 71
3
 72
8
 73
4
 74
0
 40
0
 40
0
 40
0
 40
0
 40
1
 40
1
 40
1
 40
1
 10
59.185447
 20
58.495691
 30
0.0
 10
52.642056
 20
47.701082
 30
0.0
 10
49.227269
 20
40.674912
 30
0.0
 10
49.227269
 20
38.005998
 30
0.0
  0
SPLINE
  5
185
100
AcDbEntity
  8
0
 62
7
100
AcDbSpline
 70
8
 71
3
 72
8
 73
4
 74
0
 40
0
 40
0
 40
0
 40
0
 40
1
 40
1
 40
1
 40
1
 10
49.227269
 20
38.005998
 30
0.0
 10
49.227269
 20
28.217609
 30
0.0
 10
60.410159
 20
24.565348
 30
0.0
 10
78.870020
 20
28.324867
 30
0.0
  0
LWPOLYLINE
  5
186
100
AcDbEntity
  8
0
 62
7
100
AcDbPolyline
 90
1
 70
1
 10
113.608851
 20
22.812594
 30
0.0
  0
SPLINE
  5
187
100
AcDbEntity
  8
0
 62
7
100
AcDbSpline
 70
8
 71
3
 72
8
 73
4
 74
0
 40
0
 40
0
 40
0
 40
0
 40
1
 40
1
 40
1
 40
1
 10
98.837201
 20
69.191415
 30
0.0
 10
103.841600
 20
72.465651
 30
0.0
 10
103.944409
 20
72.568110
 30
0.0
 10
103.612372
 20
73.950168
 30
0.0
  0
SPLINE
  5
188
100
AcDbEntity
  8
0
 62
7
100
AcDbSpline
 70
8
 71
3
 72
8
 73
4
 74
0
 40
0
 40
0
 40
0
 40
0
 40
1
 40
1
 40
1
 40
1
 10
103.612372
 20
73.950168
 30
0.0
 10
103.103660
 20
76.067620
 30
0.0
 10
99.968083
 20
79.009219
 30
0.0
 10
98.219706
 20
79.009219
 30
0.0
  0
SPLINE
  5
189
100
AcDbEntity
  8
0
 62
7
100
AcDbSpline
 70
8
 71
3
 72
8
 73
4
 74
0
 40
0
 40
0
 40
0
 40
0
 40
1
 40
1
 40
1
 40
1
 10
98.219706
 20
79.009219
 30
0.0
 10
97.370022
 20
79.009219
 30
0.0
 10
95.538946
 20
79.410607
 30
0.0
 10
94.150644
 20
79.901187
 30
0.0
  0
SPLINE
  5
18a
100
AcDbEntity
  8
0
 62
7
100
AcDbSpline
 70
8
 71
3
 72
8
 73
4
 74
0
 40
0
 40
0
 40
0
 40
0
 40
1
 40
1
 40
1
 40
1
 10
94.150644
 20
79.901187
 30
0.0
 10
91.232319
 20
80.932435
 30
0.0
 10
85.343830
 20
81.609239
 30
0.0
 10
79.409294
 20
81.595508
 30
0.0
  0
SPLINE
  5
18b
100
AcDbEntity
  8
0
 62
7
100
AcDbSpline
 70
8
 71
3
 72
8
 73
4
 74
0
 40
0
 40
0
 40
0
 40
0
 40
1
 40
1
 40
1
 40
1
 10
79.409294
 20
81.595508
 30
0.0
 10
76.132104
 20
81.587951
 30
0.0
 10
75.394667
 20
81.738363
 30
0.0
 10
75.874553
 20
82.316580
 30
0.0
  0
SPLINE
  5
18c
100
AcDbEntity
  8
0
 62
7
100
AcDbSpline
 70
8
 71
3
 72
8
 73
4
 74
0
 40
0
 40
0
 40
0
 40
0
 40
1
 40
1
 40
1
 40
1
 10
75.874553
 20
82.316580
 30
0.0
 10
76.318786
 20
82.851843
 30
0.0
 10
76.245898
 20
83.047237
 30
0.0
 10
75.601999
 20
83.047237
 30
0.0
  0
SPLINE
  5
18d
100
AcDbEntity
  8
0
 62
7
100
AcDbSpline
 70
8
 71
3
 72
8
 73
4
 74
0
 40
0
 40
0
 40
0
 40
0
 40
1
 40
1
 40
1
 40
1
 10
75.601999
 20
83.047237
 30
0.0
 10
74.856115
 20
83.047237
 30
0.0
 10
67.073603
 20
71.859302
 30
0.0
 10
66.155868
 20
69.467719
 30
0.0
  0
SPLINE
  5
18e
100
AcDbEntity
  8
0
 62
7
100
AcDbSpline
 70
8
 71
3
 72
8
 73
4
 74
0
 40
0
 40
0
 40
0
 40
0
 40
1
 40
1
 40
1
 40
1
 10
66.155868
 20
69.467719
 30
0.0
 10
65.670011
 20
68.201606
 30
0.0
 10
68.351280
 20
67.868380
 30
0.0
 10
73.859144
 20
68.510375
 30
0.0
  0
SPLINE
  5
18f
100
AcDbEntity
  8
0
 62
7
100
AcDbSpline
 70
8
 71
3
 72
8
 73
4
 74
0
 40
0
 40
0
 40
0
 40
0
 40
1
 40
1
 40
1
 40
1
 10
73.859144
 20
68.510375
 30
0.0
 10
77.729028
 20
68.961443
 30
0.0
 10
79.351715
 20
68.924893
 30
0.0
 10
80.927837
 20
68.351177
 30
0.0
  0
SPLINE
  5
190
100
AcDbEntity
  8
0
 62
7
100
AcDbSpline
 70
8
 71
3
 72
8
 73
4
 74
0
 40
0
 40
0
 40
0
 40
0
 40
1
 40
1
 40
1
 40
1
 10
80.927837
 20
68.351177
 30
0.0
 10
82.109222
 20
67.921138
 30
0.0
 10
85.776451
 20
67.582536
 30
0.0
 10
89.607451
 20
67.549764
 30
0.0
  0
SPLINE
  5
191
100
AcDbEntity
  8
0
 62
7
100
AcDbSpline
 70
8
 71
3
 72
8
 73
4
 74
0
 40
0
 40
0
 40
0
 40
0
 40
1
 40
1
 40
1
 40
1
 10
89.607451
 20
67.549764
 30
0.0
 10
96.022764
 20
67.494913
 30
0.0
 10
96.326872
 20
67.549188
 30
0.0
 10
98.837201
 20
69.191415
 30
0.0
  0
LWPOLYLINE
  5
192
100
AcDbEntity
  8
0
 62
7
100
AcDbPolyline
 90
1
 70
1
 10
78.870020
 20
28.324867
 30
0.0
  0
SPLINE
  5
193
100
AcDbEntity
  8
0
 62
7
100
AcDbSpline
 70
8
 71
3
 72
8
 73
4
 74
0
 40
0
 40
0
 40
0
 40
0
 40
1
 40
1
 40
1
 40
1
 10
35.718061
 20
57.462526
 30
0.0
 10
35.516944
 20
57.986650
 30
0.0
 10
35.001365
 20
58.219402
 30
0.0
 10
34.482528
 20
58.020298
 30
0.0
  0
SPLINE
  5
194
100
AcDbEntity
  8
0
 62
7
100
AcDbSpline
 70
8
 71
3
 72
8
 73
4
 74
0
 40
0
 40
0
 40
0
 40
0
 40
1
 40
1
 40
1
 40
1
 10
34.482528
 20
58.020298
 30
0.0
 10
33.923707
 20
57.805862
 30
0.0
 10
33.738223
 20
57.915002
 30
0.0
 10
33.984436
 20
58.313377
 30
0.0
  0
SPLINE
  5
195
100
AcDbEntity
  8
0
 62
7
100
AcDbSpline
 70
8
 71
3
 72
8
 73
4
 74
0
 40
0
 40
0
 40
0
 40
0
 40
1
 40
1
 40
1
 40
1
 10
33.984436
 20
58.313377
 30
0.0
 10
34.200193
 20
58.662482
 30
0.0
 10
34.018988
 20
59.174703
 30
0.0
 10
33.581748
 20
59.451656
 30
0.0
  0
SPLINE
  5
196
100
AcDbEntity
  8
0
 62
7
100
AcDbSpline
 70
8
 71
3
 72
8
 73
4
 74
0
 40
0
 40
0
 40
0
 40
0
 40
1
 40
1
 40
1
 40
1
 10
33.581748
 20
59.451656
 30
0.0
 10
32.910380
 20
59.876888
 30
0.0
 10
32.909870
 20
59.956553
 30
0.0
 10
33.578247
 20
59.964022
 30
0.0
  0
SPLINE
  5
197
100
AcDbEntity
  8
0
 62
7
100
AcDbSpline
 70
8
 71
3
 72
8
 73
4
 74
0
 40
0
 40
0
 40
0
 40
0
 40
1
 40
1
 40
1
 40
1
 10
33.578247
 20
59.964022
 30
0.0
 10
34.249285
 20
59.971608
 30
0.0
 10
34.249285
 20
60.126707
 30
0.0
 10
33.578247
 20
60.982350
 30
0.0
  0
SPLINE
  5
198
100
AcDbEntity
  8
0
 62
7
100
AcDbSpline
 70
8
 71
3
 72
8
 73
4
 74
0
 40
0
 40
0
 40
0
 40
0
 40
1
 40
1
 40
1
 40
1
 10
33.578247
 20
60.982350
 30
0.0
 10
32.853445
 20
61.906543
 30
0.0
 10
32.875570
 20
61.921875
 30
0.0
 10
33.840009
 20
61.163664
 30
0.0
  0
SPLINE
  5
199
100
AcDbEntity
  8
0
 62
7
100
AcDbSpline
 70
8
 71
3
 72
8
 73
4
 74
0
 40
0
 40
0
 40
0
 40
0
 40
1
 40
1
 40
1
 40
1
 10
33.840009
 20
61.163664
 30
0.0
 10
34.755456
 20
60.443966
 30
0.0
 10
34.962141
 20
60.443966
 30
0.0
 10
35.417542
 20
61.163664
 30
0.0
  0
SPLINE
  5
19a
100
AcDbEntity
  8
0
 62
7
100
AcDbSpline
 70
8
 71
3
 72
8
 73
4
 74
0
 40
0
 40
0
 40
0
 40
0
 40
1
 40
1
 40
1
 40
1
 10
35.417542
 20
61.163664
 30
0.0
 10
35.837157
 20
61.826805
 30
0.0
 10
35.943361
 20
61.835857
 30
0.0
 10
35.950433
 20
61.209106
 30
0.0
  0
SPLINE
  5
19b
100
AcDbEntity
  8
0
 62
7
100
AcDbSpline
 70
8
 71
3
 72
8
 73
4
 74
0
 40
0
 40
0
 40
0
 40
0
 40
1
 40
1
 40
1
 40
1
 10
35.950433
 20
61.209106
 30
0.0
 10
35.956049
 20
60.721488
 30
0.0
 10
36.316321
 20
60.563325
 30
0.0
 10
36.906149
 20
60.789665
 30
0.0
  0
SPLINE
  5
19c
100
AcDbEntity
  8
0
 62
7
100
AcDbSpline
 70
8
 71
3
 72
8
 73
4
 74
0
 40
0
 40
0
 40
0
 40
0
 40
1
 40
1
 40
1
 40
1
 10
36.906149
 20
60.789665
 30
0.0
 10
37.730307
 20
61.105925
 30
0.0
 10
37.749585
 20
61.028368
 30
0.0
 10
37.054889
 20
60.191317
 30
0.0
  0
SPLINE
  5
19d
100
AcDbEntity
  8
0
 62
7
100
AcDbSpline
 70
8
 71
3
 72
8
 73
4
 74
0
 40
0
 40
0
 40
0
 40
0
 40
1
 40
1
 40
1
 40
1
 10
37.054889
 20
60.191317
 30
0.0
 10
36.337467
 20
59.326863
 30
0.0
 10
36.402141
 20
59.269970
 30
0.0
 10
37.694374
 20
59.628790
 30
0.0
  0
SPLINE
  5
19e
100
AcDbEntity
  8
0
 62
7
100
AcDbSpline
 70
8
 71
3
 72
8
 73
4
 74
0
 40
0
 40
0
 40
0
 40
0
 40
1
 40
1
 40
1
 40
1
 10
37.694374
 20
59.628790
 30
0.0
 10
38.902200
 20
59.964168
 30
0.0
 10
38.968693
 20
59.925699
 30
0.0
 10
38.110359
 20
59.388118
 30
0.0
  0
SPLINE
  5
19f
100
AcDbEntity
  8
0
 62
7
100
AcDbSpline
 70
8
 71
3
 72
8
 73
4
 74
0
 40
0
 40
0
 40
0
 40
0
 40
1
 40
1
 40
1
 40
1
 10
38.110359
 20
59.388118
 30
0.0
 10
37.548461
 20
59.036190
 30
0.0
 10
37.196731
 20
58.569528
 30
0.0
 10
37.328738
 20
58.351073
 30
0.0
  0
SPLINE
  5
1a0
100
AcDbEntity
  8
0
 62
7
100
AcDbSpline
 70
8
 71
3
 72
8
 73
4
 74
0
 40
0
 40
0
 40
0
 40
0
 40
1
 40
1
 40
1
 40
1
 10
37.328738
 20
58.351073
 30
0.0
 10
37.460745
 20
58.132618
 30
0.0
 10
37.229956
 20
57.640959
 30
0.0
 10
36.815867
 20
57.258499
 30
0.0
  0
SPLINE
  5
1a1
100
AcDbEntity
  8
0
 62
7
100
AcDbSpline
 70
8
 71
3
 72
8
 73
4
 74
0
 40
0
 40
0
 40
0
 40
0
 40
1
 40
1
 40
1
 40
1
 10
36.815867
 20
57.258499
 30
0.0
 10
36.223072
 20
56.710983
 30
0.0
 10
35.989590
 20
56.754375
 30
0.0
 10
35.717832
 20
57.462570
 30
0.0
  0
LWPOLYLINE
  5
1a2
100
AcDbEntity
  8
0
 62
7
100
AcDbPolyline
 90
1
 70
1
 10
98.837201
 20
69.191415
 30
0.0
  0
SPLINE
  5
1a3
100
AcDbEntity
  8
0
 62
7
100
AcDbSpline
 70
8
 71
3
 72
8
 73
4
 74
0
 40
0
 40
0
 40
0
 40
0
 40
1
 40
1
 40
1
 40
1
 10
106.708736
 20
122.586704
 30
0.0
 10
105.657147
 20
125.129213
 30
0.0
 10
105.657147
 20
125.129213
 30
0.0
 10
103.256680
 20
123.933184
 30
0.0
  0
SPLINE
  5
1a4
100
AcDbEntity
  8
0
 62
7
100
AcDbSpline
 70
8
 71
3
 72
8
 73
4
 74
0
 40
0
 40
0
 40
0
 40
0
 40
1
 40
1
 40
1
 40
1
 10
103.256680
 20
123.933184
 30
0.0
 10
100.856221
 20
122.737157
 30
0.0
 10
100.856221
 20
122.737157
 30
0.0
 10
102.875234
 20
124.500991
 30
0.0
  0
SPLINE
  5
1a5
100
AcDbEntity
  8
0
 62
7
100
AcDbSpline
 70
8
 71
3
 72
8
 73
4
 74
0
 40
0
 40
0
 40
0
 40
0
 40
1
 40
1
 40
1
 40
1
 10
102.875234
 20
124.500991
 30
0.0
 10
103.985678
 20
125.471100
 30
0.0
 10
104.619365
 20
126.275374
 30
0.0
 10
104.283412
 20
126.288269
 30
0.0
  0
SPLINE
  5
1a6
100
AcDbEntity
  8
0
 62
7
100
AcDbSpline
 70
8
 71
3
 72
8
 73
4
 74
0
 40
0
 40
0
 40
0
 40
0
 40
1
 40
1
 40
1
 40
1
 10
104.283412
 20
126.288269
 30
0.0
 10
103.947465
 20
126.301158
 30
0.0
 10
103.173646
 20
126.676558
 30
0.0
 10
102.563802
 20
127.122479
 30
0.0
  0
SPLINE
  5
1a7
100
AcDbEntity
  8
0
 62
7
100
AcDbSpline
 70
8
 71
3
 72
8
 73
4
 74
0
 40
0
 40
0
 40
0
 40
0
 40
1
 40
1
 40
1
 40
1
 10
102.563802
 20
127.122479
 30
0.0
 10
101.536480
 20
127.873680
 30
0.0
 10
101.581346
 20
127.910637
 30
0.0
 10
103.174630
 20
127.625506
 30
0.0
  0
SPLINE
  5
1a8
100
AcDbEntity
  8
0
 62
7
100
AcDbSpline
 70
8
 71
3
 72
8
 73
4
 74
0
 40
0
 40
0
 40
0
 40
0
 40
1
 40
1
 40
1
 40
1
 10
103.174630
 20
127.625506
 30
0.0
 10
104.894239
 20
127.317766
 30
0.0
 10
104.894239
 20
127.317766
 30
0.0
 10
103.019436
 20
129.293856
 30
0.0
  0
SPLINE
  5
1a9
100
AcDbEntity
  8
0
 62
7
100
AcDbSpline
 70
8
 71
3
 72
8
 73
4
 74
0
 40
0
 40
0
 40
0
 40
0
 40
1
 40
1
 40
1
 40
1
 10
103.019436
 20
129.293856
 30
0.0
 10
100.468079
 20
131.983062
 30
0.0
 10
100.657059
 20
132.563428
 30
0.0
 10
103.381473
 20
130.405660
 30
0.0
  0
SPLINE
  5
1aa
100
AcDbEntity
  8
0
 62
7
100
AcDbSpline
 70
8
 71
3
 72
8
 73
4
 74
0
 40
0
 40
0
 40
0
 40
0
 40
1
 40
1
 40
1
 40
1
 10
103.381473
 20
130.405660
 30
0.0
 10
105.618285
 20
128.634063
 30
0.0
 10
105.618285
 20
128.634063
 30
0.0
 10
106.072569
 20
130.501401
 30
0.0
  0
SPLINE
  5
1ab
100
AcDbEntity
  8
0
 62
7
100
AcDbSpline
 70
8
 71
3
 72
8
 73
4
 74
0
 40
0
 40
0
 40
0
 40
0
 40
1
 40
1
 40
1
 40
1
 10
106.072569
 20
130.501401
 30
0.0
 10
106.526861
 20
132.368739
 30
0.0
 10
106.526861
 20
132.368739
 30
0.0
 10
106.763354
 20
130.730707
 30
0.0
  0
SPLINE
  5
1ac
100
AcDbEntity
  8
0
 62
7
100
AcDbSpline
 70
8
 71
3
 72
8
 73
4
 74
0
 40
0
 40
0
 40
0
 40
0
 40
1
 40
1
 40
1
 40
1
 10
106.763354
 20
130.730707
 30
0.0
 10
106.972793
 20
129.280112
 30
0.0
 10
107.174625
 20
129.136541
 30
0.0
 10
108.527245
 20
129.476027
 30
0.0
  0
SPLINE
  5
1ad
100
AcDbEntity
  8
0
 62
7
100
AcDbSpline
 70
8
 71
3
 72
8
 73
4
 74
0
 40
0
 40
0
 40
0
 40
0
 40
1
 40
1
 40
1
 40
1
 10
108.527245
 20
129.476027
 30
0.0
 10
110.054643
 20
129.859380
 30
0.0
 10
110.054643
 20
129.859380
 30
0.0
 10
108.916590
 20
128.588532
 30
0.0
  0
SPLINE
  5
1ae
100
AcDbEntity
  8
0
 62
7
100
AcDbSpline
 70
8
 71
3
 72
8
 73
4
 74
0
 40
0
 40
0
 40
0
 40
0
 40
1
 40
1
 40
1
 40
1
 10
108.916590
 20
128.588532
 30
0.0
 10
107.778531
 20
127.317685
 30
0.0
 10
107.778531
 20
127.317685
 30
0.0
 10
109.941753
 20
127.564155
 30
0.0
  0
SPLINE
  5
1af
100
AcDbEntity
  8
0
 62
7
100
AcDbSpline
 70
8
 71
3
 72
8
 73
4
 74
0
 40
0
 40
0
 40
0
 40
0
 40
1
 40
1
 40
1
 40
1
 10
109.941753
 20
127.564155
 30
0.0
 10
111.131527
 20
127.699713
 30
0.0
 10
112.104976
 20
127.736439
 30
0.0
 10
112.104976
 20
127.645770
 30
0.0
  0
SPLINE
  5
1b0
100
AcDbEntity
  8
0
 62
7
100
AcDbSpline
 70
8
 71
3
 72
8
 73
4
 74
0
 40
0
 40
0
 40
0
 40
0
 40
1
 40
1
 40
1
 40
1
 10
112.104976
 20
127.645770
 30
0.0
 10
112.104976
 20
127.555099
 30
0.0
 10
111.158537
 20
127.085465
 30
0.0
 10
110.001768
 20
126.602136
 30
0.0
  0
SPLINE
  5
1b1
100
AcDbEntity
  8
0
 62
7
100
AcDbSpline
 70
8
 71
3
 72
8
 73
4
 74
0
 40
0
 40
0
 40
0
 40
0
 40
1
 40
1
 40
1
 40
1
 10
110.001768
 20
126.602136
 30
0.0
 10
107.907978
 20
125.727294
 30
0.0
 10
107.903448
 20
125.717840
 30
0.0
 10
108.992258
 20
124.491448
 30
0.0
  0
SPLINE
  5
1b2
100
AcDbEntity
  8
0
 62
7
100
AcDbSpline
 70
8
 71
3
 72
8
 73
4
 74
0
 40
0
 40
0
 40
0
 40
0
 40
1
 40
1
 40
1
 40
1
 10
108.992258
 20
124.491448
 30
0.0
 10
110.081185
 20
123.264932
 30
0.0
 10
110.080069
 20
123.262636
 30
0.0
 10
108.738632
 20
123.967074
 30
0.0
  0
SPLINE
  5
1b3
100
AcDbEntity
  8
0
 62
7
100
AcDbSpline
 70
8
 71
3
 72
8
 73
4
 74
0
 40
0
 40
0
 40
0
 40
0
 40
1
 40
1
 40
1
 40
1
 10
108.738632
 20
123.967074
 30
0.0
 10
106.986294
 20
124.887286
 30
0.0
 10
106.769437
 20
124.588974
 30
0.0
 10
107.554197
 20
122.337790
 30
0.0
  0
SPLINE
  5
1b4
100
AcDbEntity
  8
0
 62
7
100
AcDbSpline
 70
8
 71
3
 72
8
 73
4
 74
0
 40
0
 40
0
 40
0
 40
0
 40
1
 40
1
 40
1
 40
1
 10
107.554197
 20
122.337790
 30
0.0
 10
108.537835
 20
119.516141
 30
0.0
 10
107.901216
 20
119.703568
 30
0.0
 10
106.708736
 20
122.586704
 30
0.0
  0
LWPOLYLINE
  5
1b5
100
AcDbEntity
  8
0
 62
7
100
AcDbPolyline
 90
2
 70
0
 10
35.717832
 20
57.462570
 30
0.0
 10
35.718061
 20
57.462526
 30
0.0
  0
LWPOLYLINE
  5
1b6
100
AcDbEntity
  8
0
 62
7
100
AcDbPolyline
 90
1
 70
1
 10
106.708736
 20
122.586704
 30
0.0
  0
SPLINE
  5
1b7
100
AcDbEntity
  8
0
 62
7
100
AcDbSpline
 70
8
 71
3
 72
8
 73
4
 74
0
 40
0
 40
0
 40
0
 40
0
 40
1
 40
1
 40
1
 40
1
 10
35.088992
 20
20.990967
 30
0.0
 10
35.341172
 20
20.990967
 30
0.0
 10
35.668324
 20
20.911177
 30
0.0
 10
36.070449
 20
20.751596
 30
0.0
  0
LWPOLYLINE
  5
1b8
100
AcDbEntity
  8
0
 62
7
100
AcDbPolyline
 90
2
 70
0
 10
34.720946
 20
20.990967
 30
0.0
 10
35.088992
 20
20.990967
 30
0.0
  0
SPLINE
  5
1b9
100
AcDbEntity
  8
0
 62
7
100
AcDbSpline
 70
8
 71
3
 72
8
 73
4
 74
0
 40
0
 40
0
 40
0
 40
0
 40
1
 40
1
 40
1
 40
1
 10
41.100422
 20
20.819988
 30
0.0
 10
43.663117
 20
20.819988
 30
0.0
 10
45.503350
 20
19.805512
 30
0.0
 10
46.621122
 20
17.776561
 30
0.0
  0
SPLINE
  5
1ba
100
AcDbEntity
  8
0
 62
7
100
AcDbSpline
 70
8
 71
3
 72
8
 73
4
 74
0
 40
0
 40
0
 40
0
 40
0
 40
1
 40
1
 40
1
 40
1
 10
46.621122
 20
17.776561
 30
0.0
 10
46.866487
 20
17.223729
 30
0.0
 10
46.989169
 20
16.722191
 30
0.0
 10
46.989169
 20
16.271947
 30
0.0
  0
LWPOLYLINE
  5
1bb
100
AcDbEntity
  8
0
 62
7
100
AcDbPolyline
 90
3
 70
0
 10
36.070449
 20
20.751596
 30
0.0
 10
36.438497
 20
20.819988
 30
0.0
 10
41.100422
 20
20.819988
 30
0.0
  0
SPLINE
  5
1bc
100
AcDbEntity
  8
0
 62
7
100
AcDbSpline
 70
8
 71
3
 72
8
 73
4
 74
0
 40
0
 40
0
 40
0
 40
0
 40
1
 40
1
 40
1
 40
1
 10
46.989169
 20
13.638870
 30
0.0
 10
46.989169
 20
12.111458
 30
0.0
 10
46.048605
 20
10.800619
 30
0.0
 10
44.167478
 20
9.706354
 30
0.0
  0
SPLINE
  5
1bd
100
AcDbEntity
  8
0
 62
7
100
AcDbSpline
 70
8
 71
3
 72
8
 73
4
 74
0
 40
0
 40
0
 40
0
 40
0
 40
1
 40
1
 40
1
 40
1
 10
44.167478
 20
9.706354
 30
0.0
 10
43.206466
 20
9.296003
 30
0.0
 10
42.334059
 20
9.090828
 30
0.0
 10
41.550256
 20
9.090828
 30
0.0
  0
LWPOLYLINE
  5
1be
100
AcDbEntity
  8
0
 62
7
100
AcDbPolyline
 90
2
 70
0
 10
46.989169
 20
16.271947
 30
0.0
 10
46.989169
 20
13.638870
 30
0.0
  0
SPLINE
  5
1bf
100
AcDbEntity
  8
0
 62
7
100
AcDbSpline
 70
8
 71
3
 72
8
 73
4
 74
0
 40
0
 40
0
 40
0
 40
0
 40
1
 40
1
 40
1
 40
1
 10
37.747107
 20
9.090828
 30
0.0
 10
36.826991
 20
9.090828
 30
0.0
 10
36.118160
 20
9.580968
 30
0.0
 10
35.620615
 20
10.561248
 30
0.0
  0
LWPOLYLINE
  5
1c0
100
AcDbEntity
  8
0
 62
7
100
AcDbPolyline
 90
2
 70
0
 10
41.550256
 20
9.090828
 30
0.0
 10
37.747107
 20
9.090828
 30
0.0
  0
SPLINE
  5
1c1
100
AcDbEntity
  8
0
 62
7
100
AcDbSpline
 70
8
 71
3
 72
8
 73
4
 74
0
 40
0
 40
0
 40
0
 40
0
 40
1
 40
1
 40
1
 40
1
 10
35.579722
 20
19.076002
 30
0.0
 10
35.504748
 20
19.417960
 30
0.0
 10
35.245752
 20
19.588939
 30
0.0
 10
34.802734
 20
19.588939
 30
0.0
  0
SPLINE
  5
1c2
100
AcDbEntity
  8
0
 62
7
100
AcDbSpline
 70
8
 71
3
 72
8
 73
4
 74
0
 40
0
 40
0
 40
0
 40
0
 40
1
 40
1
 40
1
 40
1
 10
34.802734
 20
19.588939
 30
0.0
 10
34.284742
 20
19.685827
 30
0.0
 10
34.025746
 20
19.879603
 30
0.0
 10
34.025746
 20
20.170268
 30
0.0
  0
LWPOLYLINE
  5
1c3
100
AcDbEntity
  8
0
 62
7
100
AcDbPolyline
 90
3
 70
0
 10
35.620615
 20
10.561248
 30
0.0
 10
35.579722
 20
10.971597
 30
0.0
 10
35.579722
 20
19.076002
 30
0.0
  0
SPLINE
  5
1c4
100
AcDbEntity
  8
0
 62
7
100
AcDbSpline
 70
8
 71
3
 72
8
 73
4
 74
0
 40
0
 40
0
 40
0
 40
0
 40
1
 40
1
 40
1
 40
1
 10
34.025746
 20
20.409638
 30
0.0
 10
34.168875
 20
20.797191
 30
0.0
 10
34.400608
 20
20.990967
 30
0.0
 10
34.720946
 20
20.990967
 30
0.0
  0
LWPOLYLINE
  5
1c5
100
AcDbEntity
  8
0
 62
7
100
AcDbPolyline
 90
2
 70
0
 10
34.025746
 20
20.170268
 30
0.0
 10
34.025746
 20
20.409638
 30
0.0
  0
LWPOLYLINE
  5
1c6
100
AcDbEntity
  8
0
 62
7
100
AcDbPolyline
 90
1
 70
1
 10
34.720946
 20
20.990967
 30
0.0
  0
SPLINE
  5
1c7
100
AcDbEntity
  8
0
 62
7
100
AcDbSpline
 70
8
 71
3
 72
8
 73
4
 74
0
 40
0
 40
0
 40
0
 40
0
 40
1
 40
1
 40
1
 40
1
 10
37.256378
 20
11.005794
 30
0.0
 10
37.358621
 20
10.663835
 30
0.0
 10
37.590354
 20
10.492856
 30
0.0
 10
37.951578
 20
10.492856
 30
0.0
  0
LWPOLYLINE
  5
1c8
100
AcDbEntity
  8
0
 62
7
100
AcDbPolyline
 90
3
 70
0
 10
37.256378
 20
19.383764
 30
0.0
 10
37.297271
 20
18.973415
 30
0.0
 10
37.256378
 20
11.005794
 30
0.0
  0
SPLINE
  5
1c9
100
AcDbEntity
  8
0
 62
7
100
AcDbSpline
 70
8
 71
3
 72
8
 73
4
 74
0
 40
0
 40
0
 40
0
 40
0
 40
1
 40
1
 40
1
 40
1
 10
41.182210
 20
10.492856
 30
0.0
 10
43.022443
 20
10.492856
 30
0.0
 10
44.317422
 20
11.233765
 30
0.0
 10
45.067147
 20
12.715583
 30
0.0
  0
SPLINE
  5
1ca
100
AcDbEntity
  8
0
 62
7
100
AcDbSpline
 70
8
 71
3
 72
8
 73
4
 74
0
 40
0
 40
0
 40
0
 40
0
 40
1
 40
1
 40
1
 40
1
 10
45.067147
 20
12.715583
 30
0.0
 10
45.230723
 20
13.051842
 30
0.0
 10
45.312512
 20
13.427996
 30
0.0
 10
45.312512
 20
13.844045
 30
0.0
  0
LWPOLYLINE
  5
1cb
100
AcDbEntity
  8
0
 62
7
100
AcDbPolyline
 90
2
 70
0
 10
37.951578
 20
10.492856
 30
0.0
 10
41.182210
 20
10.492856
 30
0.0
  0
SPLINE
  5
1cc
100
AcDbEntity
  8
0
 62
7
100
AcDbSpline
 70
8
 71
3
 72
8
 73
4
 74
0
 40
0
 40
0
 40
0
 40
0
 40
1
 40
1
 40
1
 40
1
 10
45.312512
 20
16.032575
 30
0.0
 10
45.312512
 20
17.406107
 30
0.0
 10
44.508261
 20
18.431981
 30
0.0
 10
42.899761
 20
19.110198
 30
0.0
  0
SPLINE
  5
1cd
100
AcDbEntity
  8
0
 62
7
100
AcDbSpline
 70
8
 71
3
 72
8
 73
4
 74
0
 40
0
 40
0
 40
0
 40
0
 40
1
 40
1
 40
1
 40
1
 10
42.899761
 20
19.110198
 30
0.0
 10
42.409032
 20
19.292575
 30
0.0
 10
41.931934
 20
19.383764
 30
0.0
 10
41.468468
 20
19.383764
 30
0.0
  0
LWPOLYLINE
  5
1ce
100
AcDbEntity
  8
0
 62
7
100
AcDbPolyline
 90
2
 70
0
 10
45.312512
 20
13.844045
 30
0.0
 10
45.312512
 20
16.032575
 30
0.0
  0
LWPOLYLINE
  5
1cf
100
AcDbEntity
  8
0
 62
7
100
AcDbPolyline
 90
2
 70
0
 10
41.468468
 20
19.383764
 30
0.0
 10
37.256378
 20
19.383764
 30
0.0
  0
SPLINE
  5
1d0
100
AcDbEntity
  8
0
 62
7
100
AcDbSpline
 70
8
 71
3
 72
8
 73
4
 74
0
 40
0
 40
0
 40
0
 40
0
 40
1
 40
1
 40
1
 40
1
 10
51.630646
 20
17.161037
 30
0.0
 10
53.068754
 20
17.161037
 30
0.0
 10
54.200157
 20
16.693694
 30
0.0
 10
55.024854
 20
15.759009
 30
0.0
  0
SPLINE
  5
1d1
100
AcDbEntity
  8
0
 62
7
100
AcDbSpline
 70
8
 71
3
 72
8
 73
4
 74
0
 40
0
 40
0
 40
0
 40
0
 40
1
 40
1
 40
1
 40
1
 10
55.024854
 20
15.759009
 30
0.0
 10
55.242956
 20
15.434150
 30
0.0
 10
55.352007
 20
15.149185
 30
0.0
 10
55.352007
 20
14.904115
 30
0.0
  0
LWPOLYLINE
  5
1d2
100
AcDbEntity
  8
0
 62
7
100
AcDbPolyline
 90
2
 70
0
 10
51.099024
 20
17.161037
 30
0.0
 10
51.630646
 20
17.161037
 30
0.0
  0
SPLINE
  5
1d3
100
AcDbEntity
  8
0
 62
7
100
AcDbSpline
 70
8
 71
3
 72
8
 73
4
 74
0
 40
0
 40
0
 40
0
 40
0
 40
1
 40
1
 40
1
 40
1
 10
55.352007
 20
11.074185
 30
0.0
 10
55.352007
 20
10.641038
 30
0.0
 10
55.515583
 20
10.390269
 30
0.0
 10
55.842736
 20
10.321878
 30
0.0
  0
SPLINE
  5
1d4
100
AcDbEntity
  8
0
 62
7
100
AcDbSpline
 70
8
 71
3
 72
8
 73
4
 74
0
 40
0
 40
0
 40
0
 40
0
 40
1
 40
1
 40
1
 40
1
 10
55.842736
 20
10.321878
 30
0.0
 10
56.033575
 20
10.179395
 30
0.0
 10
56.128995
 20
10.042612
 30
0.0
 10
56.128995
 20
9.911529
 30
0.0
  0
LWPOLYLINE
  5
1d5
100
AcDbEntity
  8
0
 62
7
100
AcDbPolyline
 90
2
 70
0
 10
55.352007
 20
14.904115
 30
0.0
 10
55.352007
 20
11.074185
 30
0.0
  0
SPLINE
  5
1d6
100
AcDbEntity
  8
0
 62
7
100
AcDbSpline
 70
8
 71
3
 72
8
 73
4
 74
0
 40
0
 40
0
 40
0
 40
0
 40
1
 40
1
 40
1
 40
1
 10
56.128995
 20
9.672157
 30
0.0
 10
56.128995
 20
9.387193
 30
0.0
 10
55.883631
 20
9.193416
 30
0.0
 10
55.392902
 20
9.090828
 30
0.0
  0
LWPOLYLINE
  5
1d7
100
AcDbEntity
  8
0
 62
7
100
AcDbPolyline
 90
2
 70
0
 10
56.128995
 20
9.911529
 30
0.0
 10
56.128995
 20
9.672157
 30
0.0
  0
SPLINE
  5
1d8
100
AcDbEntity
  8
0
 62
7
100
AcDbSpline
 70
8
 71
3
 72
8
 73
4
 74
0
 40
0
 40
0
 40
0
 40
0
 40
1
 40
1
 40
1
 40
1
 10
55.147538
 20
9.090828
 30
0.0
 10
54.772674
 20
9.090828
 30
0.0
 10
54.431890
 20
9.284605
 30
0.0
 10
54.125185
 20
9.672157
 30
0.0
  0
SPLINE
  5
1d9
100
AcDbEntity
  8
0
 62
7
100
AcDbSpline
 70
8
 71
3
 72
8
 73
4
 74
0
 40
0
 40
0
 40
0
 40
0
 40
1
 40
1
 40
1
 40
1
 10
54.125185
 20
9.672157
 30
0.0
 10
53.170989
 20
9.284605
 30
0.0
 10
52.407634
 20
9.090828
 30
0.0
 10
51.835117
 20
9.090828
 30
0.0
  0
LWPOLYLINE
  5
1da
100
AcDbEntity
  8
0
 62
7
100
AcDbPolyline
 90
2
 70
0
 10
55.392902
 20
9.090828
 30
0.0
 10
55.147538
 20
9.090828
 30
0.0
  0
SPLINE
  5
1db
100
AcDbEntity
  8
0
 62
7
100
AcDbSpline
 70
8
 71
3
 72
8
 73
4
 74
0
 40
0
 40
0
 40
0
 40
0
 40
1
 40
1
 40
1
 40
1
 10
51.099024
 20
9.090828
 30
0.0
 10
49.804044
 20
9.090828
 30
0.0
 10
48.727166
 20
9.501178
 30
0.0
 10
47.868392
 20
10.321878
 30
0.0
  0
SPLINE
  5
1dc
100
AcDbEntity
  8
0
 62
7
100
AcDbSpline
 70
8
 71
3
 72
8
 73
4
 74
0
 40
0
 40
0
 40
0
 40
0
 40
1
 40
1
 40
1
 40
1
 10
47.868392
 20
10.321878
 30
0.0
 10
47.568502
 20
10.675235
 30
0.0
 10
47.418556
 20
11.005794
 30
0.0
 10
47.418556
 20
11.313555
 30
0.0
  0
LWPOLYLINE
  5
1dd
100
AcDbEntity
  8
0
 62
7
100
AcDbPolyline
 90
2
 70
0
 10
51.835117
 20
9.090828
 30
0.0
 10
51.099024
 20
9.090828
 30
0.0
  0
SPLINE
  5
1de
100
AcDbEntity
  8
0
 62
7
100
AcDbSpline
 70
8
 71
3
 72
8
 73
4
 74
0
 40
0
 40
0
 40
0
 40
0
 40
1
 40
1
 40
1
 40
1
 10
47.418556
 20
11.655513
 30
0.0
 10
47.418556
 20
12.607296
 30
0.0
 10
48.277332
 20
13.325408
 30
0.0
 10
49.994883
 20
13.809848
 30
0.0
  0
SPLINE
  5
1df
100
AcDbEntity
  8
0
 62
7
100
AcDbSpline
 70
8
 71
3
 72
8
 73
4
 74
0
 40
0
 40
0
 40
0
 40
0
 40
1
 40
1
 40
1
 40
1
 10
49.994883
 20
13.809848
 30
0.0
 10
52.421265
 20
14.231597
 30
0.0
 10
53.634456
 20
14.539360
 30
0.0
 10
53.634456
 20
14.733135
 30
0.0
  0
LWPOLYLINE
  5
1e0
100
AcDbEntity
  8
0
 62
7
100
AcDbPolyline
 90
2
 70
0
 10
47.418556
 20
11.313555
 30
0.0
 10
47.418556
 20
11.655513
 30
0.0
  0
SPLINE
  5
1e1
100
AcDbEntity
  8
0
 62
7
100
AcDbSpline
 70
8
 71
3
 72
8
 73
4
 74
0
 40
0
 40
0
 40
0
 40
0
 40
1
 40
1
 40
1
 40
1
 10
53.634456
 20
14.835720
 30
0.0
 10
53.409538
 20
15.411349
 30
0.0
 10
52.659813
 20
15.719111
 30
0.0
 10
51.385282
 20
15.759006
 30
0.0
  0
SPLINE
  5
1e2
100
AcDbEntity
  8
0
 62
7
100
AcDbSpline
 70
8
 71
3
 72
8
 73
4
 74
0
 40
0
 40
0
 40
0
 40
0
 40
1
 40
1
 40
1
 40
1
 10
51.385282
 20
15.759006
 30
0.0
 10
50.274326
 20
15.759006
 30
0.0
 10
49.524601
 20
15.485439
 30
0.0
 10
49.136107
 20
14.938307
 30
0.0
  0
SPLINE
  5
1e3
100
AcDbEntity
  8
0
 62
7
100
AcDbSpline
 70
8
 71
3
 72
8
 73
4
 74
0
 40
0
 40
0
 40
0
 40
0
 40
1
 40
1
 40
1
 40
1
 10
49.136107
 20
14.938307
 30
0.0
 10
49.136107
 20
14.368377
 30
0.0
 10
48.808955
 20
14.083411
 30
0.0
 10
48.154650
 20
14.083411
 30
0.0
  0
SPLINE
  5
1e4
100
AcDbEntity
  8
0
 62
7
100
AcDbSpline
 70
8
 71
3
 72
8
 73
4
 74
0
 40
0
 40
0
 40
0
 40
0
 40
1
 40
1
 40
1
 40
1
 10
48.154650
 20
14.083411
 30
0.0
 10
47.663921
 20
14.208796
 30
0.0
 10
47.418556
 20
14.425370
 30
0.0
 10
47.418556
 20
14.733132
 30
0.0
  0
LWPOLYLINE
  5
1e5
100
AcDbEntity
  8
0
 62
7
100
AcDbPolyline
 90
2
 70
0
 10
53.634456
 20
14.733135
 30
0.0
 10
53.634456
 20
14.835720
 30
0.0
  0
SPLINE
  5
1e6
100
AcDbEntity
  8
0
 62
7
100
AcDbSpline
 70
8
 71
3
 72
8
 73
4
 74
0
 40
0
 40
0
 40
0
 40
0
 40
1
 40
1
 40
1
 40
1
 10
47.418556
 20
14.938307
 30
0.0
 10
47.418556
 20
15.770405
 30
0.0
 10
48.168281
 20
16.442923
 30
0.0
 10
49.667731
 20
16.955859
 30
0.0
  0
SPLINE
  5
1e7
100
AcDbEntity
  8
0
 62
7
100
AcDbSpline
 70
8
 71
3
 72
8
 73
4
 74
0
 40
0
 40
0
 40
0
 40
0
 40
1
 40
1
 40
1
 40
1
 10
49.667731
 20
16.955859
 30
0.0
 10
50.178907
 20
17.092642
 30
0.0
 10
50.656005
 20
17.161034
 30
0.0
 10
51.099024
 20
17.161034
 30
0.0
  0
LWPOLYLINE
  5
1e8
100
AcDbEntity
  8
0
 62
7
100
AcDbPolyline
 90
2
 70
0
 10
47.418556
 20
14.733132
 30
0.0
 10
47.418556
 20
14.938307
 30
0.0
  0
SPLINE
  5
1e9
100
AcDbEntity
  8
0
 62
7
100
AcDbSpline
 70
8
 71
3
 72
8
 73
4
 74
0
 40
0
 40
0
 40
0
 40
0
 40
1
 40
1
 40
1
 40
1
 10
49.095214
 20
11.416143
 30
0.0
 10
49.095214
 20
11.205269
 30
0.0
 10
49.367841
 20
10.977298
 30
0.0
 10
49.913095
 20
10.732228
 30
0.0
  0
SPLINE
  5
1ea
100
AcDbEntity
  8
0
 62
7
100
AcDbSpline
 70
8
 71
3
 72
8
 73
4
 74
0
 40
0
 40
0
 40
0
 40
0
 40
1
 40
1
 40
1
 40
1
 10
49.913095
 20
10.732228
 30
0.0
 10
50.383377
 20
10.572647
 30
0.0
 10
50.874106
 20
10.492856
 30
0.0
 10
51.385282
 20
10.492856
 30
0.0
  0
SPLINE
  5
1eb
100
AcDbEntity
  8
0
 62
7
100
AcDbSpline
 70
8
 71
3
 72
8
 73
4
 74
0
 40
0
 40
0
 40
0
 40
0
 40
1
 40
1
 40
1
 40
1
 10
51.385282
 20
10.492856
 30
0.0
 10
52.659813
 20
10.532748
 30
0.0
 10
53.409538
 20
10.840510
 30
0.0
 10
53.634456
 20
11.416143
 30
0.0
  0
LWPOLYLINE
  5
1ec
100
AcDbEntity
  8
0
 62
7
100
AcDbPolyline
 90
1
 70
1
 10
51.099024
 20
17.161034
 30
0.0
  0
SPLINE
  5
1ed
100
AcDbEntity
  8
0
 62
7
100
AcDbSpline
 70
8
 71
3
 72
8
 73
4
 74
0
 40
0
 40
0
 40
0
 40
0
 40
1
 40
1
 40
1
 40
1
 10
50.158460
 20
12.373625
 30
0.0
 10
49.449629
 20
12.162751
 30
0.0
 10
49.095214
 20
11.843591
 30
0.0
 10
49.095214
 20
11.416143
 30
0.0
  0
LWPOLYLINE
  5
1ee
100
AcDbEntity
  8
0
 62
7
100
AcDbPolyline
 90
3
 70
0
 10
53.634456
 20
11.416143
 30
0.0
 10
53.634456
 20
13.091738
 30
0.0
 10
50.158460
 20
12.373625
 30
0.0
  0
LWPOLYLINE
  5
1ef
100
AcDbEntity
  8
0
 62
7
100
AcDbPolyline
 90
1
 70
1
 10
49.095214
 20
11.416143
 30
0.0
  0
SPLINE
  5
1f0
100
AcDbEntity
  8
0
 62
7
100
AcDbSpline
 70
8
 71
3
 72
8
 73
4
 74
0
 40
0
 40
0
 40
0
 40
0
 40
1
 40
1
 40
1
 40
1
 10
56.957101
 20
17.161037
 30
0.0
 10
57.386488
 20
17.161037
 30
0.0
 10
57.809059
 20
16.876072
 30
0.0
 10
58.224816
 20
16.306142
 30
0.0
  0
SPLINE
  5
1f1
100
AcDbEntity
  8
0
 62
7
100
AcDbSpline
 70
8
 71
3
 72
8
 73
4
 74
0
 40
0
 40
0
 40
0
 40
0
 40
1
 40
1
 40
1
 40
1
 10
58.224816
 20
16.306142
 30
0.0
 10
58.994988
 20
16.876072
 30
0.0
 10
59.771975
 20
17.161037
 30
0.0
 10
60.555778
 20
17.161037
 30
0.0
  0
LWPOLYLINE
  5
1f2
100
AcDbEntity
  8
0
 62
7
100
AcDbPolyline
 90
2
 70
0
 10
56.711736
 20
17.161037
 30
0.0
 10
56.957101
 20
17.161037
 30
0.0
  0
SPLINE
  5
1f3
100
AcDbEntity
  8
0
 62
7
100
AcDbSpline
 70
8
 71
3
 72
8
 73
4
 74
0
 40
0
 40
0
 40
0
 40
0
 40
1
 40
1
 40
1
 40
1
 10
61.005614
 20
17.161037
 30
0.0
 10
62.348302
 20
17.161037
 30
0.0
 10
63.479705
 20
16.534114
 30
0.0
 10
64.399822
 20
15.280268
 30
0.0
  0
SPLINE
  5
1f4
100
AcDbEntity
  8
0
 62
7
100
AcDbSpline
 70
8
 71
3
 72
8
 73
4
 74
0
 40
0
 40
0
 40
0
 40
0
 40
1
 40
1
 40
1
 40
1
 10
64.399822
 20
15.280268
 30
0.0
 10
64.754238
 20
14.698939
 30
0.0
 10
64.931446
 20
14.072016
 30
0.0
 10
64.931446
 20
13.399499
 30
0.0
  0
LWPOLYLINE
  5
1f5
100
AcDbEntity
  8
0
 62
7
100
AcDbPolyline
 90
2
 70
0
 10
60.555778
 20
17.161037
 30
0.0
 10
61.005614
 20
17.161037
 30
0.0
  0
SPLINE
  5
1f6
100
AcDbEntity
  8
0
 62
7
100
AcDbSpline
 70
8
 71
3
 72
8
 73
4
 74
0
 40
0
 40
0
 40
0
 40
0
 40
1
 40
1
 40
1
 40
1
 10
64.931446
 20
9.672157
 30
0.0
 10
64.788316
 20
9.284605
 30
0.0
 10
64.556582
 20
9.090828
 30
0.0
 10
64.236246
 20
9.090828
 30
0.0
  0
LWPOLYLINE
  5
1f7
100
AcDbEntity
  8
0
 62
7
100
AcDbPolyline
 90
2
 70
0
 10
64.931446
 20
13.399499
 30
0.0
 10
64.931446
 20
9.672157
 30
0.0
  0
SPLINE
  5
1f8
100
AcDbEntity
  8
0
 62
7
100
AcDbSpline
 70
8
 71
3
 72
8
 73
4
 74
0
 40
0
 40
0
 40
0
 40
0
 40
1
 40
1
 40
1
 40
1
 10
63.949987
 20
9.090828
 30
0.0
 10
63.602387
 20
9.090828
 30
0.0
 10
63.370654
 20
9.307402
 30
0.0
 10
63.254788
 20
9.740549
 30
0.0
  0
LWPOLYLINE
  5
1f9
100
AcDbEntity
  8
0
 62
7
100
AcDbPolyline
 90
2
 70
0
 10
64.236246
 20
9.090828
 30
0.0
 10
63.949987
 20
9.090828
 30
0.0
  0
SPLINE
  5
1fa
100
AcDbEntity
  8
0
 62
7
100
AcDbSpline
 70
8
 71
3
 72
8
 73
4
 74
0
 40
0
 40
0
 40
0
 40
0
 40
1
 40
1
 40
1
 40
1
 10
63.254788
 20
11.963276
 30
0.0
 10
63.254788
 20
13.576177
 30
0.0
 10
63.132106
 20
14.465268
 30
0.0
 10
62.886741
 20
14.630549
 30
0.0
  0
SPLINE
  5
1fb
100
AcDbEntity
  8
0
 62
7
100
AcDbSpline
 70
8
 71
3
 72
8
 73
4
 74
0
 40
0
 40
0
 40
0
 40
0
 40
1
 40
1
 40
1
 40
1
 10
62.886741
 20
14.630549
 30
0.0
 10
62.368750
 20
15.382856
 30
0.0
 10
61.687182
 20
15.759009
 30
0.0
 10
60.842038
 20
15.759009
 30
0.0
  0
SPLINE
  5
1fc
100
AcDbEntity
  8
0
 62
7
100
AcDbSpline
 70
8
 71
3
 72
8
 73
4
 74
0
 40
0
 40
0
 40
0
 40
0
 40
1
 40
1
 40
1
 40
1
 10
60.842038
 20
15.759009
 30
0.0
 10
59.751529
 20
15.759009
 30
0.0
 10
58.988173
 20
15.223275
 30
0.0
 10
58.551968
 20
14.151806
 30
0.0
  0
SPLINE
  5
1fd
100
AcDbEntity
  8
0
 62
7
100
AcDbSpline
 70
8
 71
3
 72
8
 73
4
 74
0
 40
0
 40
0
 40
0
 40
0
 40
1
 40
1
 40
1
 40
1
 10
58.551968
 20
14.151806
 30
0.0
 10
58.470182
 20
13.969429
 30
0.0
 10
58.429289
 20
13.775653
 30
0.0
 10
58.429289
 20
13.570479
 30
0.0
  0
LWPOLYLINE
  5
1fe
100
AcDbEntity
  8
0
 62
7
100
AcDbPolyline
 90
2
 70
0
 10
63.254788
 20
9.740549
 30
0.0
 10
63.254788
 20
11.963276
 30
0.0
  0
SPLINE
  5
1ff
100
AcDbEntity
  8
0
 62
7
100
AcDbSpline
 70
8
 71
3
 72
8
 73
4
 74
0
 40
0
 40
0
 40
0
 40
0
 40
1
 40
1
 40
1
 40
1
 10
58.429289
 20
9.877332
 30
0.0
 10
58.367946
 20
9.352996
 30
0.0
 10
58.108950
 20
9.090828
 30
0.0
 10
57.652301
 20
9.090828
 30
0.0
  0
LWPOLYLINE
  5
200
100
AcDbEntity
  8
0
 62
7
100
AcDbPolyline
 90
2
 70
0
 10
58.429289
 20
13.570479
 30
0.0
 10
58.429289
 20
9.877332
 30
0.0
  0
SPLINE
  5
201
100
AcDbEntity
  8
0
 62
7
100
AcDbSpline
 70
8
 71
3
 72
8
 73
4
 74
0
 40
0
 40
0
 40
0
 40
0
 40
1
 40
1
 40
1
 40
1
 10
57.488728
 20
9.090828
 30
0.0
 10
57.079788
 20
9.090828
 30
0.0
 10
56.820793
 20
9.318801
 30
0.0
 10
56.711742
 20
9.774746
 30
0.0
  0
LWPOLYLINE
  5
202
100
AcDbEntity
  8
0
 62
7
100
AcDbPolyline
 90
2
 70
0
 10
57.652301
 20
9.090828
 30
0.0
 10
57.488728
 20
9.090828
 30
0.0
  0
SPLINE
  5
203
100
AcDbEntity
  8
0
 62
7
100
AcDbSpline
 70
8
 71
3
 72
8
 73
4
 74
0
 40
0
 40
0
 40
0
 40
0
 40
1
 40
1
 40
1
 40
1
 10
56.711742
 20
15.451248
 30
0.0
 10
56.711742
 20
15.673520
 30
0.0
 10
56.575429
 20
15.821701
 30
0.0
 10
56.302801
 20
15.895792
 30
0.0
  0
SPLINE
  5
204
100
AcDbEntity
  8
0
 62
7
100
AcDbSpline
 70
8
 71
3
 72
8
 73
4
 74
0
 40
0
 40
0
 40
0
 40
0
 40
1
 40
1
 40
1
 40
1
 10
56.302801
 20
15.895792
 30
0.0
 10
56.084698
 20
16.049673
 30
0.0
 10
55.975647
 20
16.197855
 30
0.0
 10
55.975647
 20
16.340338
 30
0.0
  0
LWPOLYLINE
  5
205
100
AcDbEntity
  8
0
 62
7
100
AcDbPolyline
 90
2
 70
0
 10
56.711742
 20
9.774746
 30
0.0
 10
56.711742
 20
15.451248
 30
0.0
  0
SPLINE
  5
206
100
AcDbEntity
  8
0
 62
7
100
AcDbSpline
 70
8
 71
3
 72
8
 73
4
 74
0
 40
0
 40
0
 40
0
 40
0
 40
1
 40
1
 40
1
 40
1
 10
55.975647
 20
16.579708
 30
0.0
 10
55.975647
 20
16.864674
 30
0.0
 10
56.221012
 20
17.058450
 30
0.0
 10
56.711742
 20
17.161037
 30
0.0
  0
LWPOLYLINE
  5
207
100
AcDbEntity
  8
0
 62
7
100
AcDbPolyline
 90
2
 70
0
 10
55.975647
 20
16.340338
 30
0.0
 10
55.975647
 20
16.579708
 30
0.0
  0
LWPOLYLINE
  5
208
100
AcDbEntity
  8
0
 62
7
100
AcDbPolyline
 90
1
 70
1
 10
56.711742
 20
17.161037
 30
0.0
  0
SPLINE
  5
209
100
AcDbEntity
  8
0
 62
7
100
AcDbSpline
 70
8
 71
3
 72
8
 73
4
 74
0
 40
0
 40
0
 40
0
 40
0
 40
1
 40
1
 40
1
 40
1
 10
70.656617
 20
17.161037
 30
0.0
 10
71.801651
 20
17.161037
 30
0.0
 10
72.837634
 20
16.716492
 30
0.0
 10
73.764566
 20
15.827401
 30
0.0
  0
LWPOLYLINE
  5
20a
100
AcDbEntity
  8
0
 62
7
100
AcDbPolyline
 90
2
 70
0
 10
70.247676
 20
17.161037
 30
0.0
 10
70.656617
 20
17.161037
 30
0.0
  0
SPLINE
  5
20b
100
AcDbEntity
  8
0
 62
7
100
AcDbSpline
 70
8
 71
3
 72
8
 73
4
 74
0
 40
0
 40
0
 40
0
 40
0
 40
1
 40
1
 40
1
 40
1
 10
73.846352
 20
15.417054
 30
0.0
 10
73.846352
 20
15.080796
 30
0.0
 10
73.573725
 20
14.864223
 30
0.0
 10
73.028471
 20
14.767335
 30
0.0
  0
SPLINE
  5
20c
100
AcDbEntity
  8
0
 62
7
100
AcDbSpline
 70
8
 71
3
 72
8
 73
4
 74
0
 40
0
 40
0
 40
0
 40
0
 40
1
 40
1
 40
1
 40
1
 10
73.028471
 20
14.767335
 30
0.0
 10
72.769475
 20
14.767335
 30
0.0
 10
72.374165
 20
14.983908
 30
0.0
 10
71.842542
 20
15.417054
 30
0.0
  0
SPLINE
  5
20d
100
AcDbEntity
  8
0
 62
7
100
AcDbSpline
 70
8
 71
3
 72
8
 73
4
 74
0
 40
0
 40
0
 40
0
 40
0
 40
1
 40
1
 40
1
 40
1
 10
71.842542
 20
15.417054
 30
0.0
 10
71.379077
 20
15.645026
 30
0.0
 10
70.901979
 20
15.759012
 30
0.0
 10
70.411251
 20
15.759012
 30
0.0
  0
SPLINE
  5
20e
100
AcDbEntity
  8
0
 62
7
100
AcDbSpline
 70
8
 71
3
 72
8
 73
4
 74
0
 40
0
 40
0
 40
0
 40
0
 40
1
 40
1
 40
1
 40
1
 10
70.411251
 20
15.759012
 30
0.0
 10
69.123086
 20
15.759012
 30
0.0
 10
68.223416
 20
15.097894
 30
0.0
 10
67.712240
 20
13.775657
 30
0.0
  0
LWPOLYLINE
  5
20f
100
AcDbEntity
  8
0
 62
7
100
AcDbPolyline
 90
3
 70
0
 10
73.764566
 20
15.827401
 30
0.0
 10
73.846352
 20
15.553834
 30
0.0
 10
73.846352
 20
15.417054
 30
0.0
  0
SPLINE
  5
210
100
AcDbEntity
  8
0
 62
7
100
AcDbSpline
 70
8
 71
3
 72
8
 73
4
 74
0
 40
0
 40
0
 40
0
 40
0
 40
1
 40
1
 40
1
 40
1
 10
67.630454
 20
13.091741
 30
0.0
 10
67.630454
 20
11.929084
 30
0.0
 10
68.298391
 20
11.096986
 30
0.0
 10
69.634264
 20
10.595448
 30
0.0
  0
SPLINE
  5
211
100
AcDbEntity
  8
0
 62
7
100
AcDbSpline
 70
8
 71
3
 72
8
 73
4
 74
0
 40
0
 40
0
 40
0
 40
0
 40
1
 40
1
 40
1
 40
1
 10
69.634264
 20
10.595448
 30
0.0
 10
69.920523
 20
10.527058
 30
0.0
 10
70.193150
 20
10.492863
 30
0.0
 10
70.452146
 20
10.492863
 30
0.0
  0
SPLINE
  5
212
100
AcDbEntity
  8
0
 62
7
100
AcDbSpline
 70
8
 71
3
 72
8
 73
4
 74
0
 40
0
 40
0
 40
0
 40
0
 40
1
 40
1
 40
1
 40
1
 10
70.452146
 20
10.492863
 30
0.0
 10
71.215502
 20
10.492863
 30
0.0
 10
71.924333
 20
10.789226
 30
0.0
 10
72.578639
 20
11.381953
 30
0.0
  0
LWPOLYLINE
  5
213
100
AcDbEntity
  8
0
 62
7
100
AcDbPolyline
 90
2
 70
0
 10
67.712240
 20
13.775657
 30
0.0
 10
67.630454
 20
13.091741
 30
0.0
  0
SPLINE
  5
214
100
AcDbEntity
  8
0
 62
7
100
AcDbSpline
 70
8
 71
3
 72
8
 73
4
 74
0
 40
0
 40
0
 40
0
 40
0
 40
1
 40
1
 40
1
 40
1
 10
73.028473
 20
11.484538
 30
0.0
 10
73.573727
 20
11.387650
 30
0.0
 10
73.846354
 20
11.171076
 30
0.0
 10
73.846354
 20
10.834817
 30
0.0
  0
LWPOLYLINE
  5
215
100
AcDbEntity
  8
0
 62
7
100
AcDbPolyline
 90
2
 70
0
 10
72.578639
 20
11.381953
 30
0.0
 10
73.028473
 20
11.484538
 30
0.0
  0
SPLINE
  5
216
100
AcDbEntity
  8
0
 62
7
100
AcDbSpline
 70
8
 71
3
 72
8
 73
4
 74
0
 40
0
 40
0
 40
0
 40
0
 40
1
 40
1
 40
1
 40
1
 10
73.846354
 20
10.698038
 30
0.0
 10
73.846354
 20
10.264891
 30
0.0
 10
73.192049
 20
9.797549
 30
0.0
 10
71.883439
 20
9.296009
 30
0.0
  0
SPLINE
  5
217
100
AcDbEntity
  8
0
 62
7
100
AcDbSpline
 70
8
 71
3
 72
8
 73
4
 74
0
 40
0
 40
0
 40
0
 40
0
 40
1
 40
1
 40
1
 40
1
 10
71.883439
 20
9.296009
 30
0.0
 10
71.474498
 20
9.159226
 30
0.0
 10
71.065557
 20
9.090835
 30
0.0
 10
70.656617
 20
9.090835
 30
0.0
  0
LWPOLYLINE
  5
218
100
AcDbEntity
  8
0
 62
7
100
AcDbPolyline
 90
2
 70
0
 10
73.846354
 20
10.834817
 30
0.0
 10
73.846354
 20
10.698038
 30
0.0
  0
SPLINE
  5
219
100
AcDbEntity
  8
0
 62
7
100
AcDbSpline
 70
8
 71
3
 72
8
 73
4
 74
0
 40
0
 40
0
 40
0
 40
0
 40
1
 40
1
 40
1
 40
1
 10
70.247676
 20
9.090835
 30
0.0
 10
68.734594
 20
9.090835
 30
0.0
 10
67.480509
 20
9.786149
 30
0.0
 10
66.485421
 20
11.176779
 30
0.0
  0
SPLINE
  5
21a
100
AcDbEntity
  8
0
 62
7
100
AcDbSpline
 70
8
 71
3
 72
8
 73
4
 74
0
 40
0
 40
0
 40
0
 40
0
 40
1
 40
1
 40
1
 40
1
 10
66.485421
 20
11.176779
 30
0.0
 10
66.131005
 20
11.792303
 30
0.0
 10
65.953797
 20
12.373632
 30
0.0
 10
65.953797
 20
12.920765
 30
0.0
  0
LWPOLYLINE
  5
21b
100
AcDbEntity
  8
0
 62
7
100
AcDbPolyline
 90
2
 70
0
 10
70.656617
 20
9.090835
 30
0.0
 10
70.247676
 20
9.090835
 30
0.0
  0
SPLINE
  5
21c
100
AcDbEntity
  8
0
 62
7
100
AcDbSpline
 70
8
 71
3
 72
8
 73
4
 74
0
 40
0
 40
0
 40
0
 40
0
 40
1
 40
1
 40
1
 40
1
 10
65.953797
 20
13.331114
 30
0.0
 10
65.953797
 20
14.716045
 30
0.0
 10
66.785310
 20
15.867304
 30
0.0
 10
68.448336
 20
16.784891
 30
0.0
  0
SPLINE
  5
21d
100
AcDbEntity
  8
0
 62
7
100
AcDbSpline
 70
8
 71
3
 72
8
 73
4
 74
0
 40
0
 40
0
 40
0
 40
0
 40
1
 40
1
 40
1
 40
1
 10
68.448336
 20
16.784891
 30
0.0
 10
69.129904
 20
17.035659
 30
0.0
 10
69.729684
 20
17.161044
 30
0.0
 10
70.247676
 20
17.161044
 30
0.0
  0
LWPOLYLINE
  5
21e
100
AcDbEntity
  8
0
 62
7
100
AcDbPolyline
 90
2
 70
0
 10
65.953797
 20
12.920765
 30
0.0
 10
65.953797
 20
13.331114
 30
0.0
  0
LWPOLYLINE
  5
21f
100
AcDbEntity
  8
0
 62
7
100
AcDbPolyline
 90
1
 70
1
 10
70.247676
 20
17.161044
 30
0.0
  0
SPLINE
  5
220
100
AcDbEntity
  8
0
 62
7
100
AcDbSpline
 70
8
 71
3
 72
8
 73
4
 74
0
 40
0
 40
0
 40
0
 40
0
 40
1
 40
1
 40
1
 40
1
 10
78.201573
 20
17.161037
 30
0.0
 10
79.298898
 20
17.161037
 30
0.0
 10
80.307618
 20
16.636702
 30
0.0
 10
81.227734
 20
15.588031
 30
0.0
  0
SPLINE
  5
221
100
AcDbEntity
  8
0
 62
7
100
AcDbSpline
 70
8
 71
3
 72
8
 73
4
 74
0
 40
0
 40
0
 40
0
 40
0
 40
1
 40
1
 40
1
 40
1
 10
81.227734
 20
15.588031
 30
0.0
 10
81.609412
 20
15.018101
 30
0.0
 10
81.800251
 20
14.664744
 30
0.0
 10
81.800251
 20
14.527961
 30
0.0
  0
LWPOLYLINE
  5
222
100
AcDbEntity
  8
0
 62
7
100
AcDbPolyline
 90
2
 70
0
 10
77.710845
 20
17.161037
 30
0.0
 10
78.201573
 20
17.161037
 30
0.0
  0
SPLINE
  5
223
100
AcDbEntity
  8
0
 62
7
100
AcDbSpline
 70
8
 71
3
 72
8
 73
4
 74
0
 40
0
 40
0
 40
0
 40
0
 40
1
 40
1
 40
1
 40
1
 10
81.800251
 20
14.288591
 30
0.0
 10
81.800251
 20
14.072017
 30
0.0
 10
81.391310
 20
13.718661
 30
0.0
 10
80.573429
 20
13.228521
 30
0.0
  0
LWPOLYLINE
  5
224
100
AcDbEntity
  8
0
 62
7
100
AcDbPolyline
 90
2
 70
0
 10
81.800251
 20
14.527961
 30
0.0
 10
81.800251
 20
14.288591
 30
0.0
  0
SPLINE
  5
225
100
AcDbEntity
  8
0
 62
7
100
AcDbSpline
 70
8
 71
3
 72
8
 73
4
 74
0
 40
0
 40
0
 40
0
 40
0
 40
1
 40
1
 40
1
 40
1
 10
76.974749
 20
10.698033
 30
0.0
 10
77.349613
 20
10.561249
 30
0.0
 10
77.704028
 20
10.492858
 30
0.0
 10
78.037997
 20
10.492858
 30
0.0
  0
SPLINE
  5
226
100
AcDbEntity
  8
0
 62
7
100
AcDbSpline
 70
8
 71
3
 72
8
 73
4
 74
0
 40
0
 40
0
 40
0
 40
0
 40
1
 40
1
 40
1
 40
1
 10
78.037997
 20
10.492858
 30
0.0
 10
78.855878
 20
10.492858
 30
0.0
 10
79.578341
 20
10.994397
 30
0.0
 10
80.205383
 20
11.997474
 30
0.0
  0
SPLINE
  5
227
100
AcDbEntity
  8
0
 62
7
100
AcDbSpline
 70
8
 71
3
 72
8
 73
4
 74
0
 40
0
 40
0
 40
0
 40
0
 40
1
 40
1
 40
1
 40
1
 10
80.205383
 20
11.997474
 30
0.0
 10
80.450747
 20
12.111460
 30
0.0
 10
80.641586
 20
12.168452
 30
0.0
 10
80.777900
 20
12.168452
 30
0.0
  0
SPLINE
  5
228
100
AcDbEntity
  8
0
 62
7
100
AcDbSpline
 70
8
 71
3
 72
8
 73
4
 74
0
 40
0
 40
0
 40
0
 40
0
 40
1
 40
1
 40
1
 40
1
 10
80.777900
 20
12.168452
 30
0.0
 10
81.295891
 20
12.168452
 30
0.0
 10
81.582149
 20
11.906284
 30
0.0
 10
81.636675
 20
11.381948
 30
0.0
  0
SPLINE
  5
229
100
AcDbEntity
  8
0
 62
7
100
AcDbSpline
 70
8
 71
3
 72
8
 73
4
 74
0
 40
0
 40
0
 40
0
 40
0
 40
1
 40
1
 40
1
 40
1
 10
81.636675
 20
11.381948
 30
0.0
 10
81.254997
 20
10.487159
 30
0.0
 10
80.546166
 20
9.814641
 30
0.0
 10
79.510183
 20
9.364396
 30
0.0
  0
SPLINE
  5
22a
100
AcDbEntity
  8
0
 62
7
100
AcDbSpline
 70
8
 71
3
 72
8
 73
4
 74
0
 40
0
 40
0
 40
0
 40
0
 40
1
 40
1
 40
1
 40
1
 10
79.510183
 20
9.364396
 30
0.0
 10
78.985376
 20
9.182019
 30
0.0
 10
78.549173
 20
9.090830
 30
0.0
 10
78.201573
 20
9.090830
 30
0.0
  0
LWPOLYLINE
  5
22b
100
AcDbEntity
  8
0
 62
7
100
AcDbPolyline
 90
3
 70
0
 10
80.573429
 20
13.228521
 30
0.0
 10
76.974749
 20
10.732228
 30
0.0
 10
76.974749
 20
10.698033
 30
0.0
  0
SPLINE
  5
22c
100
AcDbEntity
  8
0
 62
7
100
AcDbSpline
 70
8
 71
3
 72
8
 73
4
 74
0
 40
0
 40
0
 40
0
 40
0
 40
1
 40
1
 40
1
 40
1
 10
77.710845
 20
9.090830
 30
0.0
 10
76.504469
 20
9.090830
 30
0.0
 10
75.427592
 20
9.706355
 30
0.0
 10
74.480213
 20
10.937404
 30
0.0
  0
SPLINE
  5
22d
100
AcDbEntity
  8
0
 62
7
100
AcDbSpline
 70
8
 71
3
 72
8
 73
4
 74
0
 40
0
 40
0
 40
0
 40
0
 40
1
 40
1
 40
1
 40
1
 10
74.480213
 20
10.937404
 30
0.0
 10
74.071271
 20
11.661214
 30
0.0
 10
73.866801
 20
12.299536
 30
0.0
 10
73.866801
 20
12.852368
 30
0.0
  0
LWPOLYLINE
  5
22e
100
AcDbEntity
  8
0
 62
7
100
AcDbPolyline
 90
2
 70
0
 10
78.201573
 20
9.090830
 30
0.0
 10
77.710845
 20
9.090830
 30
0.0
  0
SPLINE
  5
22f
100
AcDbEntity
  8
0
 62
7
100
AcDbSpline
 70
8
 71
3
 72
8
 73
4
 74
0
 40
0
 40
0
 40
0
 40
0
 40
1
 40
1
 40
1
 40
1
 10
73.866801
 20
13.399501
 30
0.0
 10
73.866801
 20
14.590654
 30
0.0
 10
74.507475
 20
15.650724
 30
0.0
 10
75.788823
 20
16.579710
 30
0.0
  0
SPLINE
  5
230
100
AcDbEntity
  8
0
 62
7
100
AcDbSpline
 70
8
 71
3
 72
8
 73
4
 74
0
 40
0
 40
0
 40
0
 40
0
 40
1
 40
1
 40
1
 40
1
 10
75.788823
 20
16.579710
 30
0.0
 10
76.504469
 20
16.967262
 30
0.0
 10
77.145143
 20
17.161039
 30
0.0
 10
77.710845
 20
17.161039
 30
0.0
  0
LWPOLYLINE
  5
231
100
AcDbEntity
  8
0
 62
7
100
AcDbPolyline
 90
2
 70
0
 10
73.866801
 20
12.852368
 30
0.0
 10
73.866801
 20
13.399501
 30
0.0
  0
SPLINE
  5
232
100
AcDbEntity
  8
0
 62
7
100
AcDbSpline
 70
8
 71
3
 72
8
 73
4
 74
0
 40
0
 40
0
 40
0
 40
0
 40
1
 40
1
 40
1
 40
1
 10
75.543458
 20
13.091738
 30
0.0
 10
75.625244
 20
12.328032
 30
0.0
 10
75.747926
 20
11.906283
 30
0.0
 10
75.911504
 20
11.826493
 30
0.0
  0
SPLINE
  5
233
100
AcDbEntity
  8
0
 62
7
100
AcDbSpline
 70
8
 71
3
 72
8
 73
4
 74
0
 40
0
 40
0
 40
0
 40
0
 40
1
 40
1
 40
1
 40
1
 10
75.911504
 20
11.826493
 30
0.0
 10
76.967934
 20
12.595899
 30
0.0
 10
78.317438
 20
13.519185
 30
0.0
 10
79.960017
 20
14.596352
 30
0.0
  0
SPLINE
  5
234
100
AcDbEntity
  8
0
 62
7
100
AcDbSpline
 70
8
 71
3
 72
8
 73
4
 74
0
 40
0
 40
0
 40
0
 40
0
 40
1
 40
1
 40
1
 40
1
 10
79.960017
 20
14.596352
 30
0.0
 10
79.435210
 20
15.371457
 30
0.0
 10
78.753642
 20
15.759009
 30
0.0
 10
77.915314
 20
15.759009
 30
0.0
  0
SPLINE
  5
235
100
AcDbEntity
  8
0
 62
7
100
AcDbSpline
 70
8
 71
3
 72
8
 73
4
 74
0
 40
0
 40
0
 40
0
 40
0
 40
1
 40
1
 40
1
 40
1
 10
77.915314
 20
15.759009
 30
0.0
 10
76.790727
 20
15.759009
 30
0.0
 10
76.013740
 20
15.052296
 30
0.0
 10
75.584351
 20
13.638870
 30
0.0
  0
LWPOLYLINE
  5
236
100
AcDbEntity
  8
0
 62
7
100
AcDbPolyline
 90
1
 70
1
 10
77.710845
 20
17.161039
 30
0.0
  0
LWPOLYLINE
  5
237
100
AcDbEntity
  8
0
 62
7
100
AcDbPolyline
 90
2
 70
0
 10
75.584351
 20
13.638870
 30
0.0
 10
75.543458
 20
13.091738
 30
0.0
  0
SPLINE
  5
238
100
AcDbEntity
  8
0
 62
7
100
AcDbSpline
 70
8
 71
3
 72
8
 73
4
 74
0
 40
0
 40
0
 40
0
 40
0
 40
1
 40
1
 40
1
 40
1
 10
82.239866
 20
17.195234
 30
0.0
 10
82.935066
 20
17.195234
 30
0.0
 10
83.521214
 20
16.602506
 30
0.0
 10
83.998312
 20
15.417051
 30
0.0
  0
SPLINE
  5
239
100
AcDbEntity
  8
0
 62
7
100
AcDbSpline
 70
8
 71
3
 72
8
 73
4
 74
0
 40
0
 40
0
 40
0
 40
0
 40
1
 40
1
 40
1
 40
1
 10
83.998312
 20
15.417051
 30
0.0
 10
84.863904
 20
12.179849
 30
0.0
 10
85.381895
 20
10.561248
 30
0.0
 10
85.552287
 20
10.561248
 30
0.0
  0
LWPOLYLINE
  5
23a
100
AcDbEntity
  8
0
 62
7
100
AcDbPolyline
 90
2
 70
0
 10
81.953609
 20
17.195234
 30
0.0
 10
82.239866
 20
17.195234
 30
0.0
  0
SPLINE
  5
23b
100
AcDbEntity
  8
0
 62
7
100
AcDbSpline
 70
8
 71
3
 72
8
 73
4
 74
0
 40
0
 40
0
 40
0
 40
0
 40
1
 40
1
 40
1
 40
1
 10
85.593180
 20
10.527053
 30
0.0
 10
85.804465
 20
10.749325
 30
0.0
 10
86.199775
 20
11.968975
 30
0.0
 10
86.779109
 20
14.186003
 30
0.0
  0
SPLINE
  5
23c
100
AcDbEntity
  8
0
 62
7
100
AcDbSpline
 70
8
 71
3
 72
8
 73
4
 74
0
 40
0
 40
0
 40
0
 40
0
 40
1
 40
1
 40
1
 40
1
 10
86.779109
 20
14.186003
 30
0.0
 10
87.099445
 20
15.303066
 30
0.0
 10
87.331178
 20
15.861597
 30
0.0
 10
87.474307
 20
15.861597
 30
0.0
  0
SPLINE
  5
23d
100
AcDbEntity
  8
0
 62
7
100
AcDbSpline
 70
8
 71
3
 72
8
 73
4
 74
0
 40
0
 40
0
 40
0
 40
0
 40
1
 40
1
 40
1
 40
1
 10
87.474307
 20
15.861597
 30
0.0
 10
87.671961
 20
15.975583
 30
0.0
 10
87.849169
 20
16.032575
 30
0.0
 10
88.005930
 20
16.032575
 30
0.0
  0
SPLINE
  5
23e
100
AcDbEntity
  8
0
 62
7
100
AcDbSpline
 70
8
 71
3
 72
8
 73
4
 74
0
 40
0
 40
0
 40
0
 40
0
 40
1
 40
1
 40
1
 40
1
 10
88.005930
 20
16.032575
 30
0.0
 10
88.585263
 20
16.032575
 30
0.0
 10
88.939678
 20
15.553834
 30
0.0
 10
89.069176
 20
14.596352
 30
0.0
  0
SPLINE
  5
23f
100
AcDbEntity
  8
0
 62
7
100
AcDbSpline
 70
8
 71
3
 72
8
 73
4
 74
0
 40
0
 40
0
 40
0
 40
0
 40
1
 40
1
 40
1
 40
1
 10
89.069176
 20
14.596352
 30
0.0
 10
89.750744
 20
12.259639
 30
0.0
 10
90.173317
 20
10.937402
 30
0.0
 10
90.336893
 20
10.629639
 30
0.0
  0
LWPOLYLINE
  5
240
100
AcDbEntity
  8
0
 62
7
100
AcDbPolyline
 90
2
 70
0
 10
85.552287
 20
10.561248
 30
0.0
 10
85.593180
 20
10.527053
 30
0.0
  0
SPLINE
  5
241
100
AcDbEntity
  8
0
 62
7
100
AcDbSpline
 70
8
 71
3
 72
8
 73
4
 74
0
 40
0
 40
0
 40
0
 40
0
 40
1
 40
1
 40
1
 40
1
 10
90.459572
 20
10.527055
 30
0.0
 10
90.664043
 20
10.703732
 30
0.0
 10
91.113878
 20
12.094362
 30
0.0
 10
91.809077
 20
14.698942
 30
0.0
  0
SPLINE
  5
242
100
AcDbEntity
  8
0
 62
7
100
AcDbSpline
 70
8
 71
3
 72
8
 73
4
 74
0
 40
0
 40
0
 40
0
 40
0
 40
1
 40
1
 40
1
 40
1
 10
91.809077
 20
14.698942
 30
0.0
 10
92.088521
 20
15.787508
 30
0.0
 10
92.483830
 20
16.528417
 30
0.0
 10
92.995006
 20
16.921669
 30
0.0
  0
SPLINE
  5
243
100
AcDbEntity
  8
0
 62
7
100
AcDbSpline
 70
8
 71
3
 72
8
 73
4
 74
0
 40
0
 40
0
 40
0
 40
0
 40
1
 40
1
 40
1
 40
1
 10
92.995006
 20
16.921669
 30
0.0
 10
93.349421
 20
17.104047
 30
0.0
 10
93.608416
 20
17.195235
 30
0.0
 10
93.771992
 20
17.195235
 30
0.0
  0
LWPOLYLINE
  5
244
100
AcDbEntity
  8
0
 62
7
100
AcDbPolyline
 90
2
 70
0
 10
90.336893
 20
10.629639
 30
0.0
 10
90.459572
 20
10.527055
 30
0.0
  0
SPLINE
  5
245
100
AcDbEntity
  8
0
 62
7
100
AcDbSpline
 70
8
 71
3
 72
8
 73
4
 74
0
 40
0
 40
0
 40
0
 40
0
 40
1
 40
1
 40
1
 40
1
 10
94.058252
 20
17.195235
 30
0.0
 10
94.603506
 20
17.115442
 30
0.0
 10
94.876133
 20
16.898868
 30
0.0
 10
94.876133
 20
16.545515
 30
0.0
  0
LWPOLYLINE
  5
246
100
AcDbEntity
  8
0
 62
7
100
AcDbPolyline
 90
2
 70
0
 10
93.771992
 20
17.195235
 30
0.0
 10
94.058252
 20
17.195235
 30
0.0
  0
SPLINE
  5
247
100
AcDbEntity
  8
0
 62
7
100
AcDbSpline
 70
8
 71
3
 72
8
 73
4
 74
0
 40
0
 40
0
 40
0
 40
0
 40
1
 40
1
 40
1
 40
1
 10
94.876133
 20
16.408735
 30
0.0
 10
94.876133
 20
16.083874
 30
0.0
 10
94.576243
 20
15.855902
 30
0.0
 10
93.976464
 20
15.724819
 30
0.0
  0
SPLINE
  5
248
100
AcDbEntity
  8
0
 62
7
100
AcDbSpline
 70
8
 71
3
 72
8
 73
4
 74
0
 40
0
 40
0
 40
0
 40
0
 40
1
 40
1
 40
1
 40
1
 10
93.976464
 20
15.724819
 30
0.0
 10
93.812888
 20
15.519644
 30
0.0
 10
93.281264
 20
13.809854
 30
0.0
 10
92.381594
 20
10.595449
 30
0.0
  0
SPLINE
  5
249
100
AcDbEntity
  8
0
 62
7
100
AcDbSpline
 70
8
 71
3
 72
8
 73
4
 74
0
 40
0
 40
0
 40
0
 40
0
 40
1
 40
1
 40
1
 40
1
 10
92.381594
 20
10.595449
 30
0.0
 10
91.897682
 20
9.592372
 30
0.0
 10
91.338796
 20
9.090833
 30
0.0
 10
90.704937
 20
9.090833
 30
0.0
  0
LWPOLYLINE
  5
24a
100
AcDbEntity
  8
0
 62
7
100
AcDbPolyline
 90
2
 70
0
 10
94.876133
 20
16.545515
 30
0.0
 10
94.876133
 20
16.408735
 30
0.0
  0
SPLINE
  5
24b
100
AcDbEntity
  8
0
 62
7
100
AcDbSpline
 70
8
 71
3
 72
8
 73
4
 74
0
 40
0
 40
0
 40
0
 40
0
 40
1
 40
1
 40
1
 40
1
 10
90.173315
 20
9.090833
 30
0.0
 10
89.478115
 20
9.090833
 30
0.0
 10
88.891967
 20
9.683561
 30
0.0
 10
88.414869
 20
10.869016
 30
0.0
  0
LWPOLYLINE
  5
24c
100
AcDbEntity
  8
0
 62
7
100
AcDbPolyline
 90
2
 70
0
 10
90.704937
 20
9.090833
 30
0.0
 10
90.173315
 20
9.090833
 30
0.0
  0
SPLINE
  5
24d
100
AcDbEntity
  8
0
 62
7
100
AcDbSpline
 70
8
 71
3
 72
8
 73
4
 74
0
 40
0
 40
0
 40
0
 40
0
 40
1
 40
1
 40
1
 40
1
 10
87.965035
 20
12.271044
 30
0.0
 10
87.699224
 20
11.119785
 30
0.0
 10
87.412966
 20
10.310484
 30
0.0
 10
87.106261
 20
9.843142
 30
0.0
  0
SPLINE
  5
24e
100
AcDbEntity
  8
0
 62
7
100
AcDbSpline
 70
8
 71
3
 72
8
 73
4
 74
0
 40
0
 40
0
 40
0
 40
0
 40
1
 40
1
 40
1
 40
1
 10
87.106261
 20
9.843142
 30
0.0
 10
86.642794
 20
9.341603
 30
0.0
 10
86.220222
 20
9.090833
 30
0.0
 10
85.838544
 20
9.090833
 30
0.0
  0
LWPOLYLINE
  5
24f
100
AcDbEntity
  8
0
 62
7
100
AcDbPolyline
 90
3
 70
0
 10
88.414869
 20
10.869016
 30
0.0
 10
88.046822
 20
12.271044
 30
0.0
 10
87.965035
 20
12.271044
 30
0.0
  0
SPLINE
  5
250
100
AcDbEntity
  8
0
 62
7
100
AcDbSpline
 70
8
 71
3
 72
8
 73
4
 74
0
 40
0
 40
0
 40
0
 40
0
 40
1
 40
1
 40
1
 40
1
 10
85.306920
 20
9.090833
 30
0.0
 10
84.570828
 20
9.090833
 30
0.0
 10
83.971048
 20
9.717756
 30
0.0
 10
83.507581
 20
10.971602
 30
0.0
  0
SPLINE
  5
251
100
AcDbEntity
  8
0
 62
7
100
AcDbSpline
 70
8
 71
3
 72
8
 73
4
 74
0
 40
0
 40
0
 40
0
 40
0
 40
1
 40
1
 40
1
 40
1
 10
83.507581
 20
10.971602
 30
0.0
 10
82.648806
 20
14.163210
 30
0.0
 10
82.130814
 20
15.759014
 30
0.0
 10
81.953607
 20
15.759014
 30
0.0
  0
SPLINE
  5
252
100
AcDbEntity
  8
0
 62
7
100
AcDbSpline
 70
8
 71
3
 72
8
 73
4
 74
0
 40
0
 40
0
 40
0
 40
0
 40
1
 40
1
 40
1
 40
1
 10
81.953607
 20
15.759014
 30
0.0
 10
81.408353
 20
15.867306
 30
0.0
 10
81.135726
 20
16.083880
 30
0.0
 10
81.135726
 20
16.408735
 30
0.0
  0
LWPOLYLINE
  5
253
100
AcDbEntity
  8
0
 62
7
100
AcDbPolyline
 90
2
 70
0
 10
85.838544
 20
9.090833
 30
0.0
 10
85.306920
 20
9.090833
 30
0.0
  0
SPLINE
  5
254
100
AcDbEntity
  8
0
 62
7
100
AcDbSpline
 70
8
 71
3
 72
8
 73
4
 74
0
 40
0
 40
0
 40
0
 40
0
 40
1
 40
1
 40
1
 40
1
 10
81.135726
 20
16.545515
 30
0.0
 10
81.135726
 20
16.898871
 30
0.0
 10
81.408353
 20
17.115445
 30
0.0
 10
81.953607
 20
17.195235
 30
0.0
  0
LWPOLYLINE
  5
255
100
AcDbEntity
  8
0
 62
7
100
AcDbPolyline
 90
2
 70
0
 10
81.135726
 20
16.408735
 30
0.0
 10
81.135726
 20
16.545515
 30
0.0
  0
LWPOLYLINE
  5
256
100
AcDbEntity
  8
0
 62
7
100
AcDbPolyline
 90
1
 70
1
 10
81.953607
 20
17.195235
 30
0.0
  0
SPLINE
  5
257
100
AcDbEntity
  8
0
 62
7
100
AcDbSpline
 70
8
 71
3
 72
8
 73
4
 74
0
 40
0
 40
0
 40
0
 40
0
 40
1
 40
1
 40
1
 40
1
 10
98.536154
 20
17.161037
 30
0.0
 10
99.742530
 20
17.161037
 30
0.0
 10
100.805775
 20
16.556911
 30
0.0
 10
101.725891
 20
15.348660
 30
0.0
  0
SPLINE
  5
258
100
AcDbEntity
  8
0
 62
7
100
AcDbSpline
 70
8
 71
3
 72
8
 73
4
 74
0
 40
0
 40
0
 40
0
 40
0
 40
1
 40
1
 40
1
 40
1
 10
101.725891
 20
15.348660
 30
0.0
 10
102.162095
 20
14.664744
 30
0.0
 10
102.380196
 20
14.003625
 30
0.0
 10
102.380196
 20
13.365304
 30
0.0
  0
LWPOLYLINE
  5
259
100
AcDbEntity
  8
0
 62
7
100
AcDbPolyline
 90
2
 70
0
 10
98.045426
 20
17.161037
 30
0.0
 10
98.536154
 20
17.161037
 30
0.0
  0
SPLINE
  5
25a
100
AcDbEntity
  8
0
 62
7
100
AcDbSpline
 70
8
 71
3
 72
8
 73
4
 74
0
 40
0
 40
0
 40
0
 40
0
 40
1
 40
1
 40
1
 40
1
 10
102.380196
 20
12.886563
 30
0.0
 10
102.380196
 20
11.609919
 30
0.0
 10
101.698629
 20
10.515653
 30
0.0
 10
100.335493
 20
9.603766
 30
0.0
  0
SPLINE
  5
25b
100
AcDbEntity
  8
0
 62
7
100
AcDbSpline
 70
8
 71
3
 72
8
 73
4
 74
0
 40
0
 40
0
 40
0
 40
0
 40
1
 40
1
 40
1
 40
1
 10
100.335493
 20
9.603766
 30
0.0
 10
99.667557
 20
9.261807
 30
0.0
 10
99.067778
 20
9.090828
 30
0.0
 10
98.536154
 20
9.090828
 30
0.0
  0
LWPOLYLINE
  5
25c
100
AcDbEntity
  8
0
 62
7
100
AcDbPolyline
 90
2
 70
0
 10
102.380196
 20
13.365304
 30
0.0
 10
102.380196
 20
12.886563
 30
0.0
  0
SPLINE
  5
25d
100
AcDbEntity
  8
0
 62
7
100
AcDbSpline
 70
8
 71
3
 72
8
 73
4
 74
0
 40
0
 40
0
 40
0
 40
0
 40
1
 40
1
 40
1
 40
1
 10
98.045426
 20
9.090828
 30
0.0
 10
96.839050
 20
9.090828
 30
0.0
 10
95.775804
 20
9.694954
 30
0.0
 10
94.855687
 20
10.903206
 30
0.0
  0
SPLINE
  5
25e
100
AcDbEntity
  8
0
 62
7
100
AcDbSpline
 70
8
 71
3
 72
8
 73
4
 74
0
 40
0
 40
0
 40
0
 40
0
 40
1
 40
1
 40
1
 40
1
 10
94.855687
 20
10.903206
 30
0.0
 10
94.419483
 20
11.592821
 30
0.0
 10
94.201382
 20
12.253940
 30
0.0
 10
94.201382
 20
12.886563
 30
0.0
  0
LWPOLYLINE
  5
25f
100
AcDbEntity
  8
0
 62
7
100
AcDbPolyline
 90
2
 70
0
 10
98.536154
 20
9.090828
 30
0.0
 10
98.045426
 20
9.090828
 30
0.0
  0
SPLINE
  5
260
100
AcDbEntity
  8
0
 62
7
100
AcDbSpline
 70
8
 71
3
 72
8
 73
4
 74
0
 40
0
 40
0
 40
0
 40
0
 40
1
 40
1
 40
1
 40
1
 10
94.201382
 20
13.365304
 30
0.0
 10
94.201382
 20
14.641947
 30
0.0
 10
94.882949
 20
15.736212
 30
0.0
 10
96.246085
 20
16.648099
 30
0.0
  0
SPLINE
  5
261
100
AcDbEntity
  8
0
 62
7
100
AcDbSpline
 70
8
 71
3
 72
8
 73
4
 74
0
 40
0
 40
0
 40
0
 40
0
 40
1
 40
1
 40
1
 40
1
 10
96.246085
 20
16.648099
 30
0.0
 10
96.914022
 20
16.990058
 30
0.0
 10
97.513802
 20
17.161037
 30
0.0
 10
98.045426
 20
17.161037
 30
0.0
  0
LWPOLYLINE
  5
262
100
AcDbEntity
  8
0
 62
7
100
AcDbPolyline
 90
2
 70
0
 10
94.201382
 20
12.886563
 30
0.0
 10
94.201382
 20
13.365304
 30
0.0
  0
SPLINE
  5
263
100
AcDbEntity
  8
0
 62
7
100
AcDbSpline
 70
8
 71
3
 72
8
 73
4
 74
0
 40
0
 40
0
 40
0
 40
0
 40
1
 40
1
 40
1
 40
1
 10
95.878039
 20
13.091738
 30
0.0
 10
95.878039
 20
11.889186
 30
0.0
 10
96.491450
 20
11.045689
 30
0.0
 10
97.718271
 20
10.561248
 30
0.0
  0
LWPOLYLINE
  5
264
100
AcDbEntity
  8
0
 62
7
100
AcDbPolyline
 90
1
 70
1
 10
98.045426
 20
17.161037
 30
0.0
  0
SPLINE
  5
265
100
AcDbEntity
  8
0
 62
7
100
AcDbSpline
 70
8
 71
3
 72
8
 73
4
 74
0
 40
0
 40
0
 40
0
 40
0
 40
1
 40
1
 40
1
 40
1
 10
98.290790
 20
10.492858
 30
0.0
 10
99.476718
 20
10.492858
 30
0.0
 10
100.267337
 20
11.210970
 30
0.0
 10
100.662646
 20
12.647193
 30
0.0
  0
LWPOLYLINE
  5
266
100
AcDbEntity
  8
0
 62
7
100
AcDbPolyline
 90
2
 70
0
 10
97.718271
 20
10.561248
 30
0.0
 10
98.290790
 20
10.492858
 30
0.0
  0
SPLINE
  5
267
100
AcDbEntity
  8
0
 62
7
100
AcDbSpline
 70
8
 71
3
 72
8
 73
4
 74
0
 40
0
 40
0
 40
0
 40
0
 40
1
 40
1
 40
1
 40
1
 10
100.703539
 20
13.160131
 30
0.0
 10
100.703539
 20
14.362683
 30
0.0
 10
100.090128
 20
15.206179
 30
0.0
 10
98.863307
 20
15.690619
 30
0.0
  0
LWPOLYLINE
  5
268
100
AcDbEntity
  8
0
 62
7
100
AcDbPolyline
 90
2
 70
0
 10
100.662646
 20
12.647193
 30
0.0
 10
100.703539
 20
13.160131
 30
0.0
  0
SPLINE
  5
269
100
AcDbEntity
  8
0
 62
7
100
AcDbSpline
 70
8
 71
3
 72
8
 73
4
 74
0
 40
0
 40
0
 40
0
 40
0
 40
1
 40
1
 40
1
 40
1
 10
98.290790
 20
15.759009
 30
0.0
 10
97.104862
 20
15.759009
 30
0.0
 10
96.314243
 20
15.040897
 30
0.0
 10
95.918932
 20
13.604674
 30
0.0
  0
LWPOLYLINE
  5
26a
100
AcDbEntity
  8
0
 62
7
100
AcDbPolyline
 90
2
 70
0
 10
98.863307
 20
15.690619
 30
0.0
 10
98.290790
 20
15.759009
 30
0.0
  0
LWPOLYLINE
  5
26b
100
AcDbEntity
  8
0
 62
7
100
AcDbPolyline
 90
2
 70
0
 10
95.918932
 20
13.604674
 30
0.0
 10
95.878039
 20
13.091738
 30
0.0
  0
SPLINE
  5
26c
100
AcDbEntity
  8
0
 62
7
100
AcDbSpline
 70
8
 71
3
 72
8
 73
4
 74
0
 40
0
 40
0
 40
0
 40
0
 40
1
 40
1
 40
1
 40
1
 10
103.095843
 20
17.161037
 30
0.0
 10
103.525230
 20
17.161037
 30
0.0
 10
103.947802
 20
16.876072
 30
0.0
 10
104.363558
 20
16.306142
 30
0.0
  0
SPLINE
  5
26d
100
AcDbEntity
  8
0
 62
7
100
AcDbSpline
 70
8
 71
3
 72
8
 73
4
 74
0
 40
0
 40
0
 40
0
 40
0
 40
1
 40
1
 40
1
 40
1
 10
104.363558
 20
16.306142
 30
0.0
 10
105.079205
 20
16.876072
 30
0.0
 10
105.828930
 20
17.161037
 30
0.0
 10
106.612733
 20
17.161037
 30
0.0
  0
LWPOLYLINE
  5
26e
100
AcDbEntity
  8
0
 62
7
100
AcDbPolyline
 90
2
 70
0
 10
102.809584
 20
17.161037
 30
0.0
 10
103.095843
 20
17.161037
 30
0.0
  0
SPLINE
  5
26f
100
AcDbEntity
  8
0
 62
7
100
AcDbSpline
 70
8
 71
3
 72
8
 73
4
 74
0
 40
0
 40
0
 40
0
 40
0
 40
1
 40
1
 40
1
 40
1
 10
107.021673
 20
17.161037
 30
0.0
 10
107.969053
 20
17.161037
 30
0.0
 10
108.623358
 20
16.910268
 30
0.0
 10
108.984590
 20
16.408730
 30
0.0
  0
LWPOLYLINE
  5
270
100
AcDbEntity
  8
0
 62
7
100
AcDbPolyline
 90
2
 70
0
 10
106.612733
 20
17.161037
 30
0.0
 10
107.021673
 20
17.161037
 30
0.0
  0
SPLINE
  5
271
100
AcDbEntity
  8
0
 62
7
100
AcDbSpline
 70
8
 71
3
 72
8
 73
4
 74
0
 40
0
 40
0
 40
0
 40
0
 40
1
 40
1
 40
1
 40
1
 10
108.984590
 20
16.135164
 30
0.0
 10
108.984590
 20
15.787506
 30
0.0
 10
108.698332
 20
15.570933
 30
0.0
 10
108.125814
 20
15.485443
 30
0.0
  0
SPLINE
  5
272
100
AcDbEntity
  8
0
 62
7
100
AcDbSpline
 70
8
 71
3
 72
8
 73
4
 74
0
 40
0
 40
0
 40
0
 40
0
 40
1
 40
1
 40
1
 40
1
 10
108.125814
 20
15.485443
 30
0.0
 10
107.491956
 20
15.667820
 30
0.0
 10
107.096647
 20
15.759009
 30
0.0
 10
106.939885
 20
15.759009
 30
0.0
  0
LWPOLYLINE
  5
273
100
AcDbEntity
  8
0
 62
7
100
AcDbPolyline
 90
2
 70
0
 10
108.984590
 20
16.408730
 30
0.0
 10
108.984590
 20
16.135164
 30
0.0
  0
SPLINE
  5
274
100
AcDbEntity
  8
0
 62
7
100
AcDbSpline
 70
8
 71
3
 72
8
 73
4
 74
0
 40
0
 40
0
 40
0
 40
0
 40
1
 40
1
 40
1
 40
1
 10
106.817206
 20
15.759009
 30
0.0
 10
105.849379
 20
15.759009
 30
0.0
 10
105.140548
 20
15.211876
 30
0.0
 10
104.690713
 20
14.117611
 30
0.0
  0
LWPOLYLINE
  5
275
100
AcDbEntity
  8
0
 62
7
100
AcDbPolyline
 90
2
 70
0
 10
106.939885
 20
15.759009
 30
0.0
 10
106.817206
 20
15.759009
 30
0.0
  0
SPLINE
  5
276
100
AcDbEntity
  8
0
 62
7
100
AcDbSpline
 70
8
 71
3
 72
8
 73
4
 74
0
 40
0
 40
0
 40
0
 40
0
 40
1
 40
1
 40
1
 40
1
 10
104.608926
 20
9.911529
 30
0.0
 10
104.547584
 20
9.364395
 30
0.0
 10
104.288588
 20
9.090828
 30
0.0
 10
103.831940
 20
9.090828
 30
0.0
  0
LWPOLYLINE
  5
277
100
AcDbEntity
  8
0
 62
7
100
AcDbPolyline
 90
3
 70
0
 10
104.690713
 20
14.117611
 30
0.0
 10
104.608926
 20
13.604674
 30
0.0
 10
104.608926
 20
9.911529
 30
0.0
  0
SPLINE
  5
278
100
AcDbEntity
  8
0
 62
7
100
AcDbSpline
 70
8
 71
3
 72
8
 73
4
 74
0
 40
0
 40
0
 40
0
 40
0
 40
1
 40
1
 40
1
 40
1
 10
103.586576
 20
9.090828
 30
0.0
 10
103.123109
 20
9.199109
 30
0.0
 10
102.891376
 20
9.427082
 30
0.0
 10
102.891376
 20
9.774746
 30
0.0
  0
LWPOLYLINE
  5
279
100
AcDbEntity
  8
0
 62
7
100
AcDbPolyline
 90
2
 70
0
 10
103.831940
 20
9.090828
 30
0.0
 10
103.586576
 20
9.090828
 30
0.0
  0
SPLINE
  5
27a
100
AcDbEntity
  8
0
 62
7
100
AcDbSpline
 70
8
 71
3
 72
8
 73
4
 74
0
 40
0
 40
0
 40
0
 40
0
 40
1
 40
1
 40
1
 40
1
 10
102.891376
 20
15.177681
 30
0.0
 10
102.891376
 20
15.610828
 30
0.0
 10
102.768693
 20
15.827401
 30
0.0
 10
102.523328
 20
15.827401
 30
0.0
  0
SPLINE
  5
27b
100
AcDbEntity
  8
0
 62
7
100
AcDbSpline
 70
8
 71
3
 72
8
 73
4
 74
0
 40
0
 40
0
 40
0
 40
0
 40
1
 40
1
 40
1
 40
1
 10
102.523328
 20
15.827401
 30
0.0
 10
102.250701
 20
16.026876
 30
0.0
 10
102.114388
 20
16.197855
 30
0.0
 10
102.114388
 20
16.340338
 30
0.0
  0
LWPOLYLINE
  5
27c
100
AcDbEntity
  8
0
 62
7
100
AcDbPolyline
 90
2
 70
0
 10
102.891376
 20
9.774746
 30
0.0
 10
102.891376
 20
15.177681
 30
0.0
  0
SPLINE
  5
27d
100
AcDbEntity
  8
0
 62
7
100
AcDbSpline
 70
8
 71
3
 72
8
 73
4
 74
0
 40
0
 40
0
 40
0
 40
0
 40
1
 40
1
 40
1
 40
1
 10
102.114388
 20
16.579708
 30
0.0
 10
102.257518
 20
16.967261
 30
0.0
 10
102.489251
 20
17.161037
 30
0.0
 10
102.809588
 20
17.161037
 30
0.0
  0
LWPOLYLINE
  5
27e
100
AcDbEntity
  8
0
 62
7
100
AcDbPolyline
 90
2
 70
0
 10
102.114388
 20
16.340338
 30
0.0
 10
102.114388
 20
16.579708
 30
0.0
  0
LWPOLYLINE
  5
27f
100
AcDbEntity
  8
0
 62
7
100
AcDbPolyline
 90
1
 70
1
 10
102.809588
 20
17.161037
 30
0.0
  0
SPLINE
  5
280
100
AcDbEntity
  8
0
 62
7
100
AcDbSpline
 70
8
 71
3
 72
8
 73
4
 74
0
 40
0
 40
0
 40
0
 40
0
 40
1
 40
1
 40
1
 40
1
 10
109.720689
 20
20.819988
 30
0.0
 10
110.436336
 20
20.819988
 30
0.0
 10
110.927065
 20
20.272855
 30
0.0
 10
111.192876
 20
19.178589
 30
0.0
  0
LWPOLYLINE
  5
281
100
AcDbEntity
  8
0
 62
7
100
AcDbPolyline
 90
2
 70
0
 10
109.475325
 20
20.819988
 30
0.0
 10
109.720689
 20
20.819988
 30
0.0
  0
SPLINE
  5
282
100
AcDbEntity
  8
0
 62
7
100
AcDbSpline
 70
8
 71
3
 72
8
 73
4
 74
0
 40
0
 40
0
 40
0
 40
0
 40
1
 40
1
 40
1
 40
1
 10
111.192876
 20
13.741457
 30
0.0
 10
114.532559
 20
16.021177
 30
0.0
 10
116.236478
 20
17.161037
 30
0.0
 10
116.304635
 20
17.161037
 30
0.0
  0
LWPOLYLINE
  5
283
100
AcDbEntity
  8
0
 62
7
100
AcDbPolyline
 90
4
 70
0
 10
111.192876
 20
19.178589
 30
0.0
 10
111.233769
 20
18.905023
 30
0.0
 10
111.192876
 20
18.665652
 30
0.0
 10
111.192876
 20
13.741457
 30
0.0
  0
SPLINE
  5
284
100
AcDbEntity
  8
0
 62
7
100
AcDbSpline
 70
8
 71
3
 72
8
 73
4
 74
0
 40
0
 40
0
 40
0
 40
0
 40
1
 40
1
 40
1
 40
1
 10
116.590892
 20
17.195232
 30
0.0
 10
117.136146
 20
17.115438
 30
0.0
 10
117.408773
 20
16.898865
 30
0.0
 10
117.408773
 20
16.545511
 30
0.0
  0
LWPOLYLINE
  5
285
100
AcDbEntity
  8
0
 62
7
100
AcDbPolyline
 90
3
 70
0
 10
116.304635
 20
17.161037
 30
0.0
 10
116.549999
 20
17.195232
 30
0.0
 10
116.590892
 20
17.195232
 30
0.0
  0
SPLINE
  5
286
100
AcDbEntity
  8
0
 62
7
100
AcDbSpline
 70
8
 71
3
 72
8
 73
4
 74
0
 40
0
 40
0
 40
0
 40
0
 40
1
 40
1
 40
1
 40
1
 10
117.408773
 20
16.408731
 30
0.0
 10
117.408773
 20
16.140864
 30
0.0
 10
116.958938
 20
15.753312
 30
0.0
 10
116.059268
 20
15.246075
 30
0.0
  0
LWPOLYLINE
  5
287
100
AcDbEntity
  8
0
 62
7
100
AcDbPolyline
 90
2
 70
0
 10
117.408773
 20
16.545511
 30
0.0
 10
117.408773
 20
16.408731
 30
0.0
  0
SPLINE
  5
288
100
AcDbEntity
  8
0
 62
7
100
AcDbSpline
 70
8
 71
3
 72
8
 73
4
 74
0
 40
0
 40
0
 40
0
 40
0
 40
1
 40
1
 40
1
 40
1
 10
114.791553
 20
14.322788
 30
0.0
 10
116.536367
 20
11.461739
 30
0.0
 10
117.408773
 20
9.991320
 30
0.0
 10
117.408773
 20
9.911530
 30
0.0
  0
LWPOLYLINE
  5
289
100
AcDbEntity
  8
0
 62
7
100
AcDbPolyline
 90
2
 70
0
 10
116.059268
 20
15.246075
 30
0.0
 10
114.791553
 20
14.322788
 30
0.0
  0
SPLINE
  5
28a
100
AcDbEntity
  8
0
 62
7
100
AcDbSpline
 70
8
 71
3
 72
8
 73
4
 74
0
 40
0
 40
0
 40
0
 40
0
 40
1
 40
1
 40
1
 40
1
 10
117.408773
 20
9.672159
 30
0.0
 10
117.265644
 20
9.284606
 30
0.0
 10
117.033911
 20
9.090830
 30
0.0
 10
116.713573
 20
9.090830
 30
0.0
  0
LWPOLYLINE
  5
28b
100
AcDbEntity
  8
0
 62
7
100
AcDbPolyline
 90
2
 70
0
 10
117.408773
 20
9.911530
 30
0.0
 10
117.408773
 20
9.672159
 30
0.0
  0
SPLINE
  5
28c
100
AcDbEntity
  8
0
 62
7
100
AcDbSpline
 70
8
 71
3
 72
8
 73
4
 74
0
 40
0
 40
0
 40
0
 40
0
 40
1
 40
1
 40
1
 40
1
 10
116.427316
 20
9.090830
 30
0.0
 10
116.066085
 20
9.090830
 30
0.0
 10
115.643513
 20
9.592369
 30
0.0
 10
115.159599
 20
10.595446
 30
0.0
  0
LWPOLYLINE
  5
28d
100
AcDbEntity
  8
0
 62
7
100
AcDbPolyline
 90
2
 70
0
 10
116.713573
 20
9.090830
 30
0.0
 10
116.427316
 20
9.090830
 30
0.0
  0
SPLINE
  5
28e
100
AcDbEntity
  8
0
 62
7
100
AcDbSpline
 70
8
 71
3
 72
8
 73
4
 74
0
 40
0
 40
0
 40
0
 40
0
 40
1
 40
1
 40
1
 40
1
 10
111.192874
 20
9.877334
 30
0.0
 10
111.131531
 20
9.352998
 30
0.0
 10
110.872535
 20
9.090830
 30
0.0
 10
110.415886
 20
9.090830
 30
0.0
  0
LWPOLYLINE
  5
28f
100
AcDbEntity
  8
0
 62
7
100
AcDbPolyline
 90
4
 70
0
 10
115.159599
 20
10.595446
 30
0.0
 10
113.442048
 20
13.433697
 30
0.0
 10
111.192874
 20
11.894886
 30
0.0
 10
111.192874
 20
9.877334
 30
0.0
  0
SPLINE
  5
290
100
AcDbEntity
  8
0
 62
7
100
AcDbSpline
 70
8
 71
3
 72
8
 73
4
 74
0
 40
0
 40
0
 40
0
 40
0
 40
1
 40
1
 40
1
 40
1
 10
110.252313
 20
9.090830
 30
0.0
 10
109.795663
 20
9.090830
 30
0.0
 10
109.536667
 20
9.352998
 30
0.0
 10
109.475327
 20
9.877334
 30
0.0
  0
LWPOLYLINE
  5
291
100
AcDbEntity
  8
0
 62
7
100
AcDbPolyline
 90
2
 70
0
 10
110.415886
 20
9.090830
 30
0.0
 10
110.252313
 20
9.090830
 30
0.0
  0
SPLINE
  5
292
100
AcDbEntity
  8
0
 62
7
100
AcDbSpline
 70
8
 71
3
 72
8
 73
4
 74
0
 40
0
 40
0
 40
0
 40
0
 40
1
 40
1
 40
1
 40
1
 10
109.516220
 20
19.007610
 30
0.0
 10
109.516220
 20
19.309673
 30
0.0
 10
109.393538
 20
19.469254
 30
0.0
 10
109.148174
 20
19.486352
 30
0.0
  0
SPLINE
  5
293
100
AcDbEntity
  8
0
 62
7
100
AcDbSpline
 70
8
 71
3
 72
8
 73
4
 74
0
 40
0
 40
0
 40
0
 40
0
 40
1
 40
1
 40
1
 40
1
 10
109.148174
 20
19.486352
 30
0.0
 10
108.875546
 20
19.685827
 30
0.0
 10
108.739232
 20
19.856806
 30
0.0
 10
108.739232
 20
19.999289
 30
0.0
  0
LWPOLYLINE
  5
294
100
AcDbEntity
  8
0
 62
7
100
AcDbPolyline
 90
3
 70
0
 10
109.475327
 20
9.877334
 30
0.0
 10
109.475327
 20
18.802436
 30
0.0
 10
109.516220
 20
19.007610
 30
0.0
  0
SPLINE
  5
295
100
AcDbEntity
  8
0
 62
7
100
AcDbSpline
 70
8
 71
3
 72
8
 73
4
 74
0
 40
0
 40
0
 40
0
 40
0
 40
1
 40
1
 40
1
 40
1
 10
108.739232
 20
20.238659
 30
0.0
 10
108.739232
 20
20.523624
 30
0.0
 10
108.984596
 20
20.717400
 30
0.0
 10
109.475325
 20
20.819988
 30
0.0
  0
LWPOLYLINE
  5
296
100
AcDbEntity
  8
0
 62
7
100
AcDbPolyline
 90
2
 70
0
 10
108.739232
 20
19.999289
 30
0.0
 10
108.739232
 20
20.238659
 30
0.0
  0
LWPOLYLINE
  5
297
100
AcDbEntity
  8
0
 62
7
100
AcDbPolyline
 90
1
 70
1
 10
109.475325
 20
20.819988
 30
0.0
  0
SPLINE
  5
298
100
AcDbEntity
  8
0
 62
7
100
AcDbSpline
 70
8
 71
3
 72
8
 73
4
 74
0
 40
0
 40
0
 40
0
 40
0
 40
1
 40
1
 40
1
 40
1
 10
124.115398
 20
17.161037
 30
0.0
 10
125.171828
 20
17.161037
 30
0.0
 10
125.894290
 20
16.819079
 30
0.0
 10
126.282784
 20
16.135164
 30
0.0
  0
LWPOLYLINE
  5
299
100
AcDbEntity
  8
0
 62
7
100
AcDbPolyline
 90
2
 70
0
 10
122.111588
 20
17.161037
 30
0.0
 10
124.115398
 20
17.161037
 30
0.0
  0
SPLINE
  5
29a
100
AcDbEntity
  8
0
 62
7
100
AcDbSpline
 70
8
 71
3
 72
8
 73
4
 74
0
 40
0
 40
0
 40
0
 40
0
 40
1
 40
1
 40
1
 40
1
 10
126.323677
 20
15.690617
 30
0.0
 10
126.180548
 20
15.303066
 30
0.0
 10
125.948816
 20
15.109290
 30
0.0
 10
125.628479
 20
15.109290
 30
0.0
  0
LWPOLYLINE
  5
29b
100
AcDbEntity
  8
0
 62
7
100
AcDbPolyline
 90
3
 70
0
 10
126.282784
 20
16.135164
 30
0.0
 10
126.323677
 20
15.929989
 30
0.0
 10
126.323677
 20
15.690617
 30
0.0
  0
SPLINE
  5
29c
100
AcDbEntity
  8
0
 62
7
100
AcDbSpline
 70
8
 71
3
 72
8
 73
4
 74
0
 40
0
 40
0
 40
0
 40
0
 40
1
 40
1
 40
1
 40
1
 10
125.424008
 20
15.109290
 30
0.0
 10
125.103672
 20
15.109290
 30
0.0
 10
124.831045
 20
15.291667
 30
0.0
 10
124.606127
 20
15.656423
 30
0.0
  0
SPLINE
  5
29d
100
AcDbEntity
  8
0
 62
7
100
AcDbSpline
 70
8
 71
3
 72
8
 73
4
 74
0
 40
0
 40
0
 40
0
 40
0
 40
1
 40
1
 40
1
 40
1
 10
124.606127
 20
15.656423
 30
0.0
 10
124.428919
 20
15.724812
 30
0.0
 10
124.210818
 20
15.759007
 30
0.0
 10
123.951822
 20
15.759007
 30
0.0
  0
LWPOLYLINE
  5
29e
100
AcDbEntity
  8
0
 62
7
100
AcDbPolyline
 90
2
 70
0
 10
125.628479
 20
15.109290
 30
0.0
 10
125.424008
 20
15.109290
 30
0.0
  0
SPLINE
  5
29f
100
AcDbEntity
  8
0
 62
7
100
AcDbSpline
 70
8
 71
3
 72
8
 73
4
 74
0
 40
0
 40
0
 40
0
 40
0
 40
1
 40
1
 40
1
 40
1
 10
122.397845
 20
15.759007
 30
0.0
 10
121.327784
 20
15.759007
 30
0.0
 10
120.578060
 20
15.496840
 30
0.0
 10
120.148673
 20
14.972505
 30
0.0
  0
LWPOLYLINE
  5
2a0
100
AcDbEntity
  8
0
 62
7
100
AcDbPolyline
 90
2
 70
0
 10
123.951822
 20
15.759007
 30
0.0
 10
122.397845
 20
15.759007
 30
0.0
  0
SPLINE
  5
2a1
100
AcDbEntity
  8
0
 62
7
100
AcDbSpline
 70
8
 71
3
 72
8
 73
4
 74
0
 40
0
 40
0
 40
0
 40
0
 40
1
 40
1
 40
1
 40
1
 10
120.107780
 20
14.767330
 30
0.0
 10
120.107780
 20
14.396876
 30
0.0
 10
120.489458
 20
14.146106
 30
0.0
 10
121.252814
 20
14.015021
 30
0.0
  0
SPLINE
  5
2a2
100
AcDbEntity
  8
0
 62
7
100
AcDbSpline
 70
8
 71
3
 72
8
 73
4
 74
0
 40
0
 40
0
 40
0
 40
0
 40
1
 40
1
 40
1
 40
1
 10
121.252814
 20
14.015021
 30
0.0
 10
123.583777
 20
13.735757
 30
0.0
 10
125.001438
 20
13.405198
 30
0.0
 10
125.505798
 20
13.023344
 30
0.0
  0
SPLINE
  5
2a3
100
AcDbEntity
  8
0
 62
7
100
AcDbSpline
 70
8
 71
3
 72
8
 73
4
 74
0
 40
0
 40
0
 40
0
 40
0
 40
1
 40
1
 40
1
 40
1
 10
125.505798
 20
13.023344
 30
0.0
 10
126.051052
 20
12.573099
 30
0.0
 10
126.323679
 20
12.117155
 30
0.0
 10
126.323679
 20
11.655511
 30
0.0
  0
LWPOLYLINE
  5
2a4
100
AcDbEntity
  8
0
 62
7
100
AcDbPolyline
 90
2
 70
0
 10
120.148673
 20
14.972505
 30
0.0
 10
120.107780
 20
14.767330
 30
0.0
  0
SPLINE
  5
2a5
100
AcDbEntity
  8
0
 62
7
100
AcDbSpline
 70
8
 71
3
 72
8
 73
4
 74
0
 40
0
 40
0
 40
0
 40
0
 40
1
 40
1
 40
1
 40
1
 10
126.323679
 20
11.313553
 30
0.0
 10
126.323679
 20
10.509953
 30
0.0
 10
125.614849
 20
9.848834
 30
0.0
 10
124.197188
 20
9.330198
 30
0.0
  0
SPLINE
  5
2a6
100
AcDbEntity
  8
0
 62
7
100
AcDbSpline
 70
8
 71
3
 72
8
 73
4
 74
0
 40
0
 40
0
 40
0
 40
0
 40
1
 40
1
 40
1
 40
1
 10
124.197188
 20
9.330198
 30
0.0
 10
123.631487
 20
9.170617
 30
0.0
 10
123.113495
 20
9.090826
 30
0.0
 10
122.643212
 20
9.090826
 30
0.0
  0
LWPOLYLINE
  5
2a7
100
AcDbEntity
  8
0
 62
7
100
AcDbPolyline
 90
2
 70
0
 10
126.323679
 20
11.655511
 30
0.0
 10
126.323679
 20
11.313553
 30
0.0
  0
SPLINE
  5
2a8
100
AcDbEntity
  8
0
 62
7
100
AcDbSpline
 70
8
 71
3
 72
8
 73
4
 74
0
 40
0
 40
0
 40
0
 40
0
 40
1
 40
1
 40
1
 40
1
 10
120.639404
 20
9.090826
 30
0.0
 10
119.589788
 20
9.090826
 30
0.0
 10
118.867326
 20
9.432785
 30
0.0
 10
118.472017
 20
10.116702
 30
0.0
  0
LWPOLYLINE
  5
2a9
100
AcDbEntity
  8
0
 62
7
100
AcDbPolyline
 90
2
 70
0
 10
122.643212
 20
9.090826
 30
0.0
 10
120.639404
 20
9.090826
 30
0.0
  0
SPLINE
  5
2aa
100
AcDbEntity
  8
0
 62
7
100
AcDbSpline
 70
8
 71
3
 72
8
 73
4
 74
0
 40
0
 40
0
 40
0
 40
0
 40
1
 40
1
 40
1
 40
1
 10
118.431124
 20
10.527051
 30
0.0
 10
118.553810
 20
10.937401
 30
0.0
 10
118.785543
 20
11.142575
 30
0.0
 10
119.126324
 20
11.142575
 30
0.0
  0
LWPOLYLINE
  5
2ab
100
AcDbEntity
  8
0
 62
7
100
AcDbPolyline
 90
3
 70
0
 10
118.472017
 20
10.116702
 30
0.0
 10
118.431124
 20
10.321876
 30
0.0
 10
118.431124
 20
10.527051
 30
0.0
  0
SPLINE
  5
2ac
100
AcDbEntity
  8
0
 62
7
100
AcDbSpline
 70
8
 71
3
 72
8
 73
4
 74
0
 40
0
 40
0
 40
0
 40
0
 40
1
 40
1
 40
1
 40
1
 10
119.330793
 20
11.142575
 30
0.0
 10
119.644315
 20
11.142575
 30
0.0
 10
119.916943
 20
10.960198
 30
0.0
 10
120.148677
 20
10.595443
 30
0.0
  0
SPLINE
  5
2ad
100
AcDbEntity
  8
0
 62
7
100
AcDbSpline
 70
8
 71
3
 72
8
 73
4
 74
0
 40
0
 40
0
 40
0
 40
0
 40
1
 40
1
 40
1
 40
1
 10
120.148677
 20
10.595443
 30
0.0
 10
120.325884
 20
10.527053
 30
0.0
 10
120.543986
 20
10.492858
 30
0.0
 10
120.802982
 20
10.492858
 30
0.0
  0
LWPOLYLINE
  5
2ae
100
AcDbEntity
  8
0
 62
7
100
AcDbPolyline
 90
2
 70
0
 10
119.126324
 20
11.142575
 30
0.0
 10
119.330793
 20
11.142575
 30
0.0
  0
SPLINE
  5
2af
100
AcDbEntity
  8
0
 62
7
100
AcDbSpline
 70
8
 71
3
 72
8
 73
4
 74
0
 40
0
 40
0
 40
0
 40
0
 40
1
 40
1
 40
1
 40
1
 10
122.356956
 20
10.492858
 30
0.0
 10
123.427017
 20
10.492858
 30
0.0
 10
124.176742
 20
10.755026
 30
0.0
 10
124.606131
 20
11.279362
 30
0.0
  0
LWPOLYLINE
  5
2b0
100
AcDbEntity
  8
0
 62
7
100
AcDbPolyline
 90
2
 70
0
 10
120.802982
 20
10.492858
 30
0.0
 10
122.356956
 20
10.492858
 30
0.0
  0
SPLINE
  5
2b1
100
AcDbEntity
  8
0
 62
7
100
AcDbSpline
 70
8
 71
3
 72
8
 73
4
 74
0
 40
0
 40
0
 40
0
 40
0
 40
1
 40
1
 40
1
 40
1
 10
124.647024
 20
11.484537
 30
0.0
 10
124.647024
 20
11.854991
 30
0.0
 10
124.265346
 20
12.105760
 30
0.0
 10
123.501990
 20
12.236844
 30
0.0
  0
SPLINE
  5
2b2
100
AcDbEntity
  8
0
 62
7
100
AcDbSpline
 70
8
 71
3
 72
8
 73
4
 74
0
 40
0
 40
0
 40
0
 40
0
 40
1
 40
1
 40
1
 40
1
 10
123.501990
 20
12.236844
 30
0.0
 10
121.171028
 20
12.516110
 30
0.0
 10
119.753366
 20
12.846669
 30
0.0
 10
119.249005
 20
13.228522
 30
0.0
  0
SPLINE
  5
2b3
100
AcDbEntity
  8
0
 62
7
100
AcDbSpline
 70
8
 71
3
 72
8
 73
4
 74
0
 40
0
 40
0
 40
0
 40
0
 40
1
 40
1
 40
1
 40
1
 10
119.249005
 20
13.228522
 30
0.0
 10
118.703751
 20
13.684466
 30
0.0
 10
118.431124
 20
14.140410
 30
0.0
 10
118.431124
 20
14.596354
 30
0.0
  0
LWPOLYLINE
  5
2b4
100
AcDbEntity
  8
0
 62
7
100
AcDbPolyline
 90
2
 70
0
 10
124.606131
 20
11.279362
 30
0.0
 10
124.647024
 20
11.484537
 30
0.0
  0
SPLINE
  5
2b5
100
AcDbEntity
  8
0
 62
7
100
AcDbSpline
 70
8
 71
3
 72
8
 73
4
 74
0
 40
0
 40
0
 40
0
 40
0
 40
1
 40
1
 40
1
 40
1
 10
118.431124
 20
14.938312
 30
0.0
 10
118.431124
 20
15.770410
 30
0.0
 10
119.180849
 20
16.442928
 30
0.0
 10
120.680299
 20
16.955864
 30
0.0
  0
SPLINE
  5
2b6
100
AcDbEntity
  8
0
 62
7
100
AcDbSpline
 70
8
 71
3
 72
8
 73
4
 74
0
 40
0
 40
0
 40
0
 40
0
 40
1
 40
1
 40
1
 40
1
 10
120.680299
 20
16.955864
 30
0.0
 10
121.191475
 20
17.092647
 30
0.0
 10
121.668572
 20
17.161039
 30
0.0
 10
122.111592
 20
17.161039
 30
0.0
  0
LWPOLYLINE
  5
2b7
100
AcDbEntity
  8
0
 62
7
100
AcDbPolyline
 90
2
 70
0
 10
118.431124
 20
14.596354
 30
0.0
 10
118.431124
 20
14.938312
 30
0.0
  0
LWPOLYLINE
  5
2b8
100
AcDbEntity
  8
0
 62
7
100
AcDbPolyline
 90
1
 70
1
 10
122.111592
 20
17.161039
 30
0.0
  0
ENDSEC
  0
SECTION
  2
OBJECTS
  0
DICTIONARY
  5
C
330
0
100
AcDbDictionary
  3
ACAD_GROUP
350
D
  3
ACAD_MLINESTYLE
350
17
  0
DICTIONARY
  5
D
330
C
100
AcDbDictionary
  0
DICTIONARY
  5
1A
330
C
100
AcDbDictionary
  0
DICTIONARY
  5
17
330
C
100
AcDbDictionary
  3
STANDARD
350
18
  0
DICTIONARY
  5
19
330
C
100
AcDbDictionary
  0
ENDSEC
  0
EOF
